<?xml version="1.0" standalone="no"?>
 <!DOCTYPE svg PUBLIC "-//W3C//DTD SVG 1.1//EN" 
 "http://www.w3.org/Graphics/SVG/1.1/DTD/svg11.dtd"> 
<svg xmlns="http://www.w3.org/2000/svg" version="1.1" 
    width="29.7002cm" height="21.0007cm" viewBox="0 0 116930 82680 ">
<title>SVG Picture created as dropbot-front-pannel-F.SilkS.svg date 2017/03/07 13:46:38 </title>
  <desc>Picture generated by PCBNEW </desc>
<g style="fill:#000000; fill-opacity:1;stroke:#000000; stroke-opacity:1;
stroke-linecap:round; stroke-linejoin:round; "
 transform="translate(0 0) scale(1 1)">
</g>
<g style="fill:#000000; fill-opacity:0.0; 
stroke:#000000; stroke-width:-0.000393701; stroke-opacity:1; 
stroke-linecap:round; stroke-linejoin:round;">
</g>
<g style="fill:#000000; fill-opacity:0.0; 
stroke:#000000; stroke-width:39.3701; stroke-opacity:1; 
stroke-linecap:round; stroke-linejoin:round;">
</g>
<g style="fill:#000000; fill-opacity:0.0; 
stroke:#000000; stroke-width:59.0551; stroke-opacity:1; 
stroke-linecap:round; stroke-linejoin:round;">
<rect x="69685.9" y="65357.2" width="42519.7" height="12598.4" rx="0" />
</g>
<g style="fill:#000000; fill-opacity:0.0; 
stroke:#000000; stroke-width:39.3701; stroke-opacity:1; 
stroke-linecap:round; stroke-linejoin:round;">
</g>
<g style="fill:#000000; fill-opacity:0.0; 
stroke:#000000; stroke-width:59.0551; stroke-opacity:1; 
stroke-linecap:round; stroke-linejoin:round;">
<rect x="3937.01" y="3937.01" width="109056" height="74806" rx="0" />
</g>
<g style="fill:#000000; fill-opacity:0.0; 
stroke:#000000; stroke-width:39.3701; stroke-opacity:1; 
stroke-linecap:round; stroke-linejoin:round;">
</g>
<g style="fill:#000000; fill-opacity:0.0; 
stroke:#000000; stroke-width:59.0551; stroke-opacity:1; 
stroke-linecap:round; stroke-linejoin:round;">
<rect x="4724.41" y="4724.41" width="107481" height="73231.2" rx="0" />
</g>
<g style="fill:#000000; fill-opacity:0.0; 
stroke:#000000; stroke-width:39.3701; stroke-opacity:1; 
stroke-linecap:round; stroke-linejoin:round;">
</g>
<g style="fill:#000000; fill-opacity:0.0; 
stroke:#000000; stroke-width:59.0551; stroke-opacity:1; 
stroke-linecap:round; stroke-linejoin:round;">
<path d="M23622 4724
L23622 3937
" />
</g>
<g style="fill:#000000; fill-opacity:0.0; 
stroke:#000000; stroke-width:39.3701; stroke-opacity:1; 
stroke-linecap:round; stroke-linejoin:round;">
</g>
<g style="fill:#000000; fill-opacity:0.0; 
stroke:#000000; stroke-width:59.0551; stroke-opacity:1; 
stroke-linecap:round; stroke-linejoin:round;">
<path d="M43307 4724
L43307 3937
" />
</g>
<g style="fill:#000000; fill-opacity:0.0; 
stroke:#000000; stroke-width:39.3701; stroke-opacity:1; 
stroke-linecap:round; stroke-linejoin:round;">
</g>
<g style="fill:#000000; fill-opacity:0.0; 
stroke:#000000; stroke-width:59.0551; stroke-opacity:1; 
stroke-linecap:round; stroke-linejoin:round;">
<path d="M62992 4724
L62992 3937
" />
</g>
<g style="fill:#000000; fill-opacity:0.0; 
stroke:#000000; stroke-width:39.3701; stroke-opacity:1; 
stroke-linecap:round; stroke-linejoin:round;">
</g>
<g style="fill:#000000; fill-opacity:0.0; 
stroke:#000000; stroke-width:59.0551; stroke-opacity:1; 
stroke-linecap:round; stroke-linejoin:round;">
<path d="M82677 4724
L82677 3937
" />
</g>
<g style="fill:#000000; fill-opacity:0.0; 
stroke:#000000; stroke-width:39.3701; stroke-opacity:1; 
stroke-linecap:round; stroke-linejoin:round;">
</g>
<g style="fill:#000000; fill-opacity:0.0; 
stroke:#000000; stroke-width:59.0551; stroke-opacity:1; 
stroke-linecap:round; stroke-linejoin:round;">
<path d="M102362 4724
L102362 3937
" />
</g>
<g style="fill:#000000; fill-opacity:0.0; 
stroke:#000000; stroke-width:39.3701; stroke-opacity:1; 
stroke-linecap:round; stroke-linejoin:round;">
</g>
<g style="fill:#000000; fill-opacity:0.0; 
stroke:#000000; stroke-width:59.0551; stroke-opacity:1; 
stroke-linecap:round; stroke-linejoin:round;">
<path d="M14169 4562
L13877 4562
" />
<path d="M14023 4562
L14023 4050
L13974 4123
L13925 4172
L13877 4196
" />
</g>
<g style="fill:#000000; fill-opacity:0.0; 
stroke:#000000; stroke-width:39.3701; stroke-opacity:1; 
stroke-linecap:round; stroke-linejoin:round;">
</g>
<g style="fill:#000000; fill-opacity:0.0; 
stroke:#000000; stroke-width:59.0551; stroke-opacity:1; 
stroke-linecap:round; stroke-linejoin:round;">
<path d="M33562 4099
L33586 4074
L33635 4050
L33757 4050
L33805 4074
L33830 4099
L33854 4147
L33854 4196
L33830 4269
L33537 4562
L33854 4562
" />
</g>
<g style="fill:#000000; fill-opacity:0.0; 
stroke:#000000; stroke-width:39.3701; stroke-opacity:1; 
stroke-linecap:round; stroke-linejoin:round;">
</g>
<g style="fill:#000000; fill-opacity:0.0; 
stroke:#000000; stroke-width:59.0551; stroke-opacity:1; 
stroke-linecap:round; stroke-linejoin:round;">
<path d="M53222 4050
L53539 4050
L53368 4245
L53442 4245
L53490 4269
L53515 4294
L53539 4342
L53539 4464
L53515 4513
L53490 4537
L53442 4562
L53295 4562
L53247 4537
L53222 4513
" />
</g>
<g style="fill:#000000; fill-opacity:0.0; 
stroke:#000000; stroke-width:39.3701; stroke-opacity:1; 
stroke-linecap:round; stroke-linejoin:round;">
</g>
<g style="fill:#000000; fill-opacity:0.0; 
stroke:#000000; stroke-width:59.0551; stroke-opacity:1; 
stroke-linecap:round; stroke-linejoin:round;">
<path d="M73175 4221
L73175 4562
" />
<path d="M73053 4026
L72932 4391
L73248 4391
" />
</g>
<g style="fill:#000000; fill-opacity:0.0; 
stroke:#000000; stroke-width:39.3701; stroke-opacity:1; 
stroke-linecap:round; stroke-linejoin:round;">
</g>
<g style="fill:#000000; fill-opacity:0.0; 
stroke:#000000; stroke-width:59.0551; stroke-opacity:1; 
stroke-linecap:round; stroke-linejoin:round;">
<path d="M92885 4050
L92641 4050
L92617 4294
L92641 4269
L92690 4245
L92812 4245
L92860 4269
L92885 4294
L92909 4342
L92909 4464
L92885 4513
L92860 4537
L92812 4562
L92690 4562
L92641 4537
L92617 4513
" />
</g>
<g style="fill:#000000; fill-opacity:0.0; 
stroke:#000000; stroke-width:39.3701; stroke-opacity:1; 
stroke-linecap:round; stroke-linejoin:round;">
</g>
<g style="fill:#000000; fill-opacity:0.0; 
stroke:#000000; stroke-width:59.0551; stroke-opacity:1; 
stroke-linecap:round; stroke-linejoin:round;">
<path d="M112545 4050
L112448 4050
L112399 4074
L112375 4099
L112326 4172
L112302 4269
L112302 4464
L112326 4513
L112350 4537
L112399 4562
L112497 4562
L112545 4537
L112570 4513
L112594 4464
L112594 4342
L112570 4294
L112545 4269
L112497 4245
L112399 4245
L112350 4269
L112326 4294
L112302 4342
" />
</g>
<g style="fill:#000000; fill-opacity:0.0; 
stroke:#000000; stroke-width:39.3701; stroke-opacity:1; 
stroke-linecap:round; stroke-linejoin:round;">
</g>
<g style="fill:#000000; fill-opacity:0.0; 
stroke:#000000; stroke-width:59.0551; stroke-opacity:1; 
stroke-linecap:round; stroke-linejoin:round;">
<path d="M23622 77955
L23622 78742
" />
</g>
<g style="fill:#000000; fill-opacity:0.0; 
stroke:#000000; stroke-width:39.3701; stroke-opacity:1; 
stroke-linecap:round; stroke-linejoin:round;">
</g>
<g style="fill:#000000; fill-opacity:0.0; 
stroke:#000000; stroke-width:59.0551; stroke-opacity:1; 
stroke-linecap:round; stroke-linejoin:round;">
<path d="M43307 77955
L43307 78742
" />
</g>
<g style="fill:#000000; fill-opacity:0.0; 
stroke:#000000; stroke-width:39.3701; stroke-opacity:1; 
stroke-linecap:round; stroke-linejoin:round;">
</g>
<g style="fill:#000000; fill-opacity:0.0; 
stroke:#000000; stroke-width:59.0551; stroke-opacity:1; 
stroke-linecap:round; stroke-linejoin:round;">
<path d="M62992 77955
L62992 78742
" />
</g>
<g style="fill:#000000; fill-opacity:0.0; 
stroke:#000000; stroke-width:39.3701; stroke-opacity:1; 
stroke-linecap:round; stroke-linejoin:round;">
</g>
<g style="fill:#000000; fill-opacity:0.0; 
stroke:#000000; stroke-width:59.0551; stroke-opacity:1; 
stroke-linecap:round; stroke-linejoin:round;">
<path d="M82677 77955
L82677 78742
" />
</g>
<g style="fill:#000000; fill-opacity:0.0; 
stroke:#000000; stroke-width:39.3701; stroke-opacity:1; 
stroke-linecap:round; stroke-linejoin:round;">
</g>
<g style="fill:#000000; fill-opacity:0.0; 
stroke:#000000; stroke-width:59.0551; stroke-opacity:1; 
stroke-linecap:round; stroke-linejoin:round;">
<path d="M102362 77955
L102362 78742
" />
</g>
<g style="fill:#000000; fill-opacity:0.0; 
stroke:#000000; stroke-width:39.3701; stroke-opacity:1; 
stroke-linecap:round; stroke-linejoin:round;">
</g>
<g style="fill:#000000; fill-opacity:0.0; 
stroke:#000000; stroke-width:59.0551; stroke-opacity:1; 
stroke-linecap:round; stroke-linejoin:round;">
<path d="M14169 78580
L13877 78580
" />
<path d="M14023 78580
L14023 78069
L13974 78142
L13925 78190
L13877 78215
" />
</g>
<g style="fill:#000000; fill-opacity:0.0; 
stroke:#000000; stroke-width:39.3701; stroke-opacity:1; 
stroke-linecap:round; stroke-linejoin:round;">
</g>
<g style="fill:#000000; fill-opacity:0.0; 
stroke:#000000; stroke-width:59.0551; stroke-opacity:1; 
stroke-linecap:round; stroke-linejoin:round;">
<path d="M33562 78117
L33586 78093
L33635 78069
L33757 78069
L33805 78093
L33830 78117
L33854 78166
L33854 78215
L33830 78288
L33537 78580
L33854 78580
" />
</g>
<g style="fill:#000000; fill-opacity:0.0; 
stroke:#000000; stroke-width:39.3701; stroke-opacity:1; 
stroke-linecap:round; stroke-linejoin:round;">
</g>
<g style="fill:#000000; fill-opacity:0.0; 
stroke:#000000; stroke-width:59.0551; stroke-opacity:1; 
stroke-linecap:round; stroke-linejoin:round;">
<path d="M53222 78069
L53539 78069
L53368 78263
L53442 78263
L53490 78288
L53515 78312
L53539 78361
L53539 78483
L53515 78532
L53490 78556
L53442 78580
L53295 78580
L53247 78556
L53222 78532
" />
</g>
<g style="fill:#000000; fill-opacity:0.0; 
stroke:#000000; stroke-width:39.3701; stroke-opacity:1; 
stroke-linecap:round; stroke-linejoin:round;">
</g>
<g style="fill:#000000; fill-opacity:0.0; 
stroke:#000000; stroke-width:59.0551; stroke-opacity:1; 
stroke-linecap:round; stroke-linejoin:round;">
<path d="M73175 78239
L73175 78580
" />
<path d="M73053 78044
L72932 78410
L73248 78410
" />
</g>
<g style="fill:#000000; fill-opacity:0.0; 
stroke:#000000; stroke-width:39.3701; stroke-opacity:1; 
stroke-linecap:round; stroke-linejoin:round;">
</g>
<g style="fill:#000000; fill-opacity:0.0; 
stroke:#000000; stroke-width:59.0551; stroke-opacity:1; 
stroke-linecap:round; stroke-linejoin:round;">
<path d="M92885 78069
L92641 78069
L92617 78312
L92641 78288
L92690 78263
L92812 78263
L92860 78288
L92885 78312
L92909 78361
L92909 78483
L92885 78532
L92860 78556
L92812 78580
L92690 78580
L92641 78556
L92617 78532
" />
</g>
<g style="fill:#000000; fill-opacity:0.0; 
stroke:#000000; stroke-width:39.3701; stroke-opacity:1; 
stroke-linecap:round; stroke-linejoin:round;">
</g>
<g style="fill:#000000; fill-opacity:0.0; 
stroke:#000000; stroke-width:59.0551; stroke-opacity:1; 
stroke-linecap:round; stroke-linejoin:round;">
<path d="M112545 78069
L112448 78069
L112399 78093
L112375 78117
L112326 78190
L112302 78288
L112302 78483
L112326 78532
L112350 78556
L112399 78580
L112497 78580
L112545 78556
L112570 78532
L112594 78483
L112594 78361
L112570 78312
L112545 78288
L112497 78263
L112399 78263
L112350 78288
L112326 78312
L112302 78361
" />
</g>
<g style="fill:#000000; fill-opacity:0.0; 
stroke:#000000; stroke-width:39.3701; stroke-opacity:1; 
stroke-linecap:round; stroke-linejoin:round;">
</g>
<g style="fill:#000000; fill-opacity:0.0; 
stroke:#000000; stroke-width:59.0551; stroke-opacity:1; 
stroke-linecap:round; stroke-linejoin:round;">
<path d="M3937 23622
L4724 23622
" />
</g>
<g style="fill:#000000; fill-opacity:0.0; 
stroke:#000000; stroke-width:39.3701; stroke-opacity:1; 
stroke-linecap:round; stroke-linejoin:round;">
</g>
<g style="fill:#000000; fill-opacity:0.0; 
stroke:#000000; stroke-width:59.0551; stroke-opacity:1; 
stroke-linecap:round; stroke-linejoin:round;">
<path d="M3937 43307
L4724 43307
" />
</g>
<g style="fill:#000000; fill-opacity:0.0; 
stroke:#000000; stroke-width:39.3701; stroke-opacity:1; 
stroke-linecap:round; stroke-linejoin:round;">
</g>
<g style="fill:#000000; fill-opacity:0.0; 
stroke:#000000; stroke-width:59.0551; stroke-opacity:1; 
stroke-linecap:round; stroke-linejoin:round;">
<path d="M3937 62992
L4724 62992
" />
</g>
<g style="fill:#000000; fill-opacity:0.0; 
stroke:#000000; stroke-width:39.3701; stroke-opacity:1; 
stroke-linecap:round; stroke-linejoin:round;">
</g>
<g style="fill:#000000; fill-opacity:0.0; 
stroke:#000000; stroke-width:59.0551; stroke-opacity:1; 
stroke-linecap:round; stroke-linejoin:round;">
<path d="M4208 13864
L4452 13864
" />
<path d="M4160 14011
L4330 13499
L4501 14011
" />
</g>
<g style="fill:#000000; fill-opacity:0.0; 
stroke:#000000; stroke-width:39.3701; stroke-opacity:1; 
stroke-linecap:round; stroke-linejoin:round;">
</g>
<g style="fill:#000000; fill-opacity:0.0; 
stroke:#000000; stroke-width:59.0551; stroke-opacity:1; 
stroke-linecap:round; stroke-linejoin:round;">
<path d="M4367 33428
L4440 33452
L4464 33476
L4489 33525
L4489 33598
L4464 33647
L4440 33671
L4391 33696
L4196 33696
L4196 33184
L4367 33184
L4416 33208
L4440 33233
L4464 33281
L4464 33330
L4440 33379
L4416 33403
L4367 33428
L4196 33428
" />
</g>
<g style="fill:#000000; fill-opacity:0.0; 
stroke:#000000; stroke-width:39.3701; stroke-opacity:1; 
stroke-linecap:round; stroke-linejoin:round;">
</g>
<g style="fill:#000000; fill-opacity:0.0; 
stroke:#000000; stroke-width:59.0551; stroke-opacity:1; 
stroke-linecap:round; stroke-linejoin:round;">
<path d="M4489 53332
L4464 53356
L4391 53381
L4342 53381
L4269 53356
L4221 53308
L4196 53259
L4172 53161
L4172 53088
L4196 52991
L4221 52942
L4269 52893
L4342 52869
L4391 52869
L4464 52893
L4489 52918
" />
</g>
<g style="fill:#000000; fill-opacity:0.0; 
stroke:#000000; stroke-width:39.3701; stroke-opacity:1; 
stroke-linecap:round; stroke-linejoin:round;">
</g>
<g style="fill:#000000; fill-opacity:0.0; 
stroke:#000000; stroke-width:59.0551; stroke-opacity:1; 
stroke-linecap:round; stroke-linejoin:round;">
<path d="M4196 73066
L4196 72554
L4318 72554
L4391 72578
L4440 72627
L4464 72676
L4489 72773
L4489 72846
L4464 72944
L4440 72993
L4391 73041
L4318 73066
L4196 73066
" />
</g>
<g style="fill:#000000; fill-opacity:0.0; 
stroke:#000000; stroke-width:39.3701; stroke-opacity:1; 
stroke-linecap:round; stroke-linejoin:round;">
</g>
<g style="fill:#000000; fill-opacity:0.0; 
stroke:#000000; stroke-width:59.0551; stroke-opacity:1; 
stroke-linecap:round; stroke-linejoin:round;">
<path d="M112992 23622
L112205 23622
" />
</g>
<g style="fill:#000000; fill-opacity:0.0; 
stroke:#000000; stroke-width:39.3701; stroke-opacity:1; 
stroke-linecap:round; stroke-linejoin:round;">
</g>
<g style="fill:#000000; fill-opacity:0.0; 
stroke:#000000; stroke-width:59.0551; stroke-opacity:1; 
stroke-linecap:round; stroke-linejoin:round;">
<path d="M112992 43307
L112205 43307
" />
</g>
<g style="fill:#000000; fill-opacity:0.0; 
stroke:#000000; stroke-width:39.3701; stroke-opacity:1; 
stroke-linecap:round; stroke-linejoin:round;">
</g>
<g style="fill:#000000; fill-opacity:0.0; 
stroke:#000000; stroke-width:59.0551; stroke-opacity:1; 
stroke-linecap:round; stroke-linejoin:round;">
<path d="M112992 62992
L112205 62992
" />
</g>
<g style="fill:#000000; fill-opacity:0.0; 
stroke:#000000; stroke-width:39.3701; stroke-opacity:1; 
stroke-linecap:round; stroke-linejoin:round;">
</g>
<g style="fill:#000000; fill-opacity:0.0; 
stroke:#000000; stroke-width:59.0551; stroke-opacity:1; 
stroke-linecap:round; stroke-linejoin:round;">
<path d="M112477 13864
L112721 13864
" />
<path d="M112428 14011
L112599 13499
L112769 14011
" />
</g>
<g style="fill:#000000; fill-opacity:0.0; 
stroke:#000000; stroke-width:39.3701; stroke-opacity:1; 
stroke-linecap:round; stroke-linejoin:round;">
</g>
<g style="fill:#000000; fill-opacity:0.0; 
stroke:#000000; stroke-width:59.0551; stroke-opacity:1; 
stroke-linecap:round; stroke-linejoin:round;">
<path d="M112635 33428
L112708 33452
L112733 33476
L112757 33525
L112757 33598
L112733 33647
L112708 33671
L112660 33696
L112465 33696
L112465 33184
L112635 33184
L112684 33208
L112708 33233
L112733 33281
L112733 33330
L112708 33379
L112684 33403
L112635 33428
L112465 33428
" />
</g>
<g style="fill:#000000; fill-opacity:0.0; 
stroke:#000000; stroke-width:39.3701; stroke-opacity:1; 
stroke-linecap:round; stroke-linejoin:round;">
</g>
<g style="fill:#000000; fill-opacity:0.0; 
stroke:#000000; stroke-width:59.0551; stroke-opacity:1; 
stroke-linecap:round; stroke-linejoin:round;">
<path d="M112757 53332
L112733 53356
L112660 53381
L112611 53381
L112538 53356
L112489 53308
L112465 53259
L112440 53161
L112440 53088
L112465 52991
L112489 52942
L112538 52893
L112611 52869
L112660 52869
L112733 52893
L112757 52918
" />
</g>
<g style="fill:#000000; fill-opacity:0.0; 
stroke:#000000; stroke-width:39.3701; stroke-opacity:1; 
stroke-linecap:round; stroke-linejoin:round;">
</g>
<g style="fill:#000000; fill-opacity:0.0; 
stroke:#000000; stroke-width:59.0551; stroke-opacity:1; 
stroke-linecap:round; stroke-linejoin:round;">
<path d="M112465 73066
L112465 72554
L112587 72554
L112660 72578
L112708 72627
L112733 72676
L112757 72773
L112757 72846
L112733 72944
L112708 72993
L112660 73041
L112587 73066
L112465 73066
" />
</g>
<g style="fill:#000000; fill-opacity:0.0; 
stroke:#000000; stroke-width:39.3701; stroke-opacity:1; 
stroke-linecap:round; stroke-linejoin:round;">
</g>
<g style="fill:#000000; fill-opacity:0.0; 
stroke:#000000; stroke-width:59.0551; stroke-opacity:1; 
stroke-linecap:round; stroke-linejoin:round;">
<path d="M78881 76293
L78881 75703
L79022 75703
L79106 75731
L79162 75787
L79190 75843
L79219 75956
L79219 76040
L79190 76153
L79162 76209
L79106 76265
L79022 76293
L78881 76293
" />
<path d="M79725 76293
L79725 75984
L79697 75928
L79640 75899
L79528 75899
L79472 75928
" />
<path d="M79725 76265
L79669 76293
L79528 76293
L79472 76265
L79444 76209
L79444 76153
L79472 76096
L79528 76068
L79669 76068
L79725 76040
" />
<path d="M79922 75899
L80147 75899
" />
<path d="M80006 75703
L80006 76209
L80034 76265
L80090 76293
L80147 76293
" />
<path d="M80568 76265
L80512 76293
L80400 76293
L80343 76265
L80315 76209
L80315 75984
L80343 75928
L80400 75899
L80512 75899
L80568 75928
L80597 75984
L80597 76040
L80315 76096
" />
<path d="M80850 76237
L80878 76265
L80850 76293
L80822 76265
L80850 76237
L80850 76293
" />
<path d="M80850 75928
L80878 75956
L80850 75984
L80822 75956
L80850 75928
L80850 75984
" />
<path d="M81553 75759
L81581 75731
L81637 75703
L81778 75703
L81834 75731
L81862 75759
L81890 75815
L81890 75871
L81862 75956
L81525 76293
L81890 76293
" />
<path d="M82256 75703
L82312 75703
L82368 75731
L82396 75759
L82424 75815
L82453 75928
L82453 76068
L82424 76181
L82396 76237
L82368 76265
L82312 76293
L82256 76293
L82199 76265
L82171 76237
L82143 76181
L82115 76068
L82115 75928
L82143 75815
L82171 75759
L82199 75731
L82256 75703
" />
<path d="M83015 76293
L82678 76293
" />
<path d="M82846 76293
L82846 75703
L82790 75787
L82734 75843
L82678 75871
" />
<path d="M83521 75703
L83409 75703
L83352 75731
L83324 75759
L83268 75843
L83240 75956
L83240 76181
L83268 76237
L83296 76265
L83352 76293
L83465 76293
L83521 76265
L83549 76237
L83577 76181
L83577 76040
L83549 75984
L83521 75956
L83465 75928
L83352 75928
L83296 75956
L83268 75984
L83240 76040
" />
<path d="M83831 76068
L84280 76068
" />
<path d="M84871 76293
L84534 76293
" />
<path d="M84702 76293
L84702 75703
L84646 75787
L84590 75843
L84534 75871
" />
<path d="M85096 75759
L85124 75731
L85180 75703
L85321 75703
L85377 75731
L85405 75759
L85433 75815
L85433 75871
L85405 75956
L85068 76293
L85433 76293
" />
<path d="M85687 76068
L86136 76068
" />
<path d="M86727 76293
L86390 76293
" />
<path d="M86558 76293
L86558 75703
L86502 75787
L86446 75843
L86390 75871
" />
<path d="M87064 75956
L87008 75928
L86980 75899
L86952 75843
L86952 75815
L86980 75759
L87008 75731
L87064 75703
L87177 75703
L87233 75731
L87261 75759
L87289 75815
L87289 75843
L87261 75899
L87233 75928
L87177 75956
L87064 75956
L87008 75984
L86980 76012
L86952 76068
L86952 76181
L86980 76237
L87008 76265
L87064 76293
L87177 76293
L87233 76265
L87261 76237
L87289 76181
L87289 76068
L87261 76012
L87233 75984
L87177 75956
" />
</g>
<g style="fill:#000000; fill-opacity:0.0; 
stroke:#000000; stroke-width:39.3701; stroke-opacity:1; 
stroke-linecap:round; stroke-linejoin:round;">
</g>
<g style="fill:#000000; fill-opacity:0.0; 
stroke:#000000; stroke-width:59.0551; stroke-opacity:1; 
stroke-linecap:round; stroke-linejoin:round;">
<path d="M69685 76577
L112205 76577
" />
</g>
<g style="fill:#000000; fill-opacity:0.0; 
stroke:#000000; stroke-width:39.3701; stroke-opacity:1; 
stroke-linecap:round; stroke-linejoin:round;">
</g>
<g style="fill:#000000; fill-opacity:0.0; 
stroke:#000000; stroke-width:59.0551; stroke-opacity:1; 
stroke-linecap:round; stroke-linejoin:round;">
<path d="M70220 77395
L70220 76805
" />
<path d="M70557 77395
L70304 77058
" />
<path d="M70557 76805
L70220 77142
" />
<path d="M70810 77395
L70810 77002
" />
<path d="M70810 76805
L70782 76833
L70810 76861
L70838 76833
L70810 76805
L70810 76861
" />
<path d="M71429 77339
L71401 77367
L71316 77395
L71260 77395
L71176 77367
L71120 77311
L71091 77255
L71063 77142
L71063 77058
L71091 76946
L71120 76889
L71176 76833
L71260 76805
L71316 76805
L71401 76833
L71429 76861
" />
<path d="M71935 77395
L71935 77086
L71907 77030
L71851 77002
L71738 77002
L71682 77030
" />
<path d="M71935 77367
L71879 77395
L71738 77395
L71682 77367
L71654 77311
L71654 77255
L71682 77199
L71738 77171
L71879 77171
L71935 77142
" />
<path d="M72469 77395
L72469 76805
" />
<path d="M72469 77367
L72413 77395
L72301 77395
L72244 77367
L72216 77339
L72188 77283
L72188 77114
L72216 77058
L72244 77030
L72301 77002
L72413 77002
L72469 77030
" />
<path d="M73201 77086
L73397 77086
" />
<path d="M73482 77395
L73201 77395
L73201 76805
L73482 76805
" />
<path d="M73735 77339
L73763 77367
L73735 77395
L73707 77367
L73735 77339
L73735 77395
" />
<path d="M74016 77395
L74016 76805
L74157 76805
L74241 76833
L74297 76889
L74325 76946
L74354 77058
L74354 77142
L74325 77255
L74297 77311
L74241 77367
L74157 77395
L74016 77395
" />
<path d="M74607 77339
L74635 77367
L74607 77395
L74579 77367
L74607 77339
L74607 77395
" />
<path d="M74860 77227
L75141 77227
" />
<path d="M74804 77395
L75000 76805
L75197 77395
" />
<path d="M75394 77339
L75422 77367
L75394 77395
L75366 77367
L75394 77339
L75394 77395
" />
<path d="M76575 77395
L76575 76805
" />
<path d="M76631 77171
L76800 77395
" />
<path d="M76800 77002
L76575 77227
" />
<path d="M77053 77395
L77053 77002
" />
<path d="M77053 76805
L77025 76833
L77053 76861
L77081 76833
L77053 76805
L77053 76861
" />
<path d="M77588 77367
L77531 77395
L77419 77395
L77363 77367
L77334 77339
L77306 77283
L77306 77114
L77334 77058
L77363 77030
L77419 77002
L77531 77002
L77588 77030
" />
<path d="M78094 77395
L78094 77086
L78066 77030
L78009 77002
L77897 77002
L77841 77030
" />
<path d="M78094 77367
L78037 77395
L77897 77395
L77841 77367
L77813 77311
L77813 77255
L77841 77199
L77897 77171
L78037 77171
L78094 77142
" />
<path d="M78628 77395
L78628 76805
" />
<path d="M78628 77367
L78572 77395
L78459 77395
L78403 77367
L78375 77339
L78347 77283
L78347 77114
L78375 77058
L78403 77030
L78459 77002
L78572 77002
L78628 77030
" />
<path d="M79612 77002
L79612 77395
" />
<path d="M79472 76777
L79331 77199
L79697 77199
" />
<path d="M79922 77339
L79950 77367
L79922 77395
L79894 77367
L79922 77339
L79922 77395
" />
<path d="M80315 76805
L80372 76805
L80428 76833
L80456 76861
L80484 76917
L80512 77030
L80512 77171
L80484 77283
L80456 77339
L80428 77367
L80372 77395
L80315 77395
L80259 77367
L80231 77339
L80203 77283
L80175 77171
L80175 77030
L80203 76917
L80231 76861
L80259 76833
L80315 76805
" />
<path d="M80765 77339
L80793 77367
L80765 77395
L80737 77367
L80765 77339
L80765 77395
" />
<path d="M81356 77395
L81018 77395
" />
<path d="M81187 77395
L81187 76805
L81131 76889
L81075 76946
L81018 76974
" />
<path d="M81609 77171
L82059 77171
" />
<path d="M82312 77367
L82368 77395
L82481 77395
L82537 77367
L82565 77311
L82565 77283
L82537 77227
L82481 77199
L82396 77199
L82340 77171
L82312 77114
L82312 77086
L82340 77030
L82396 77002
L82481 77002
L82537 77030
" />
<path d="M82734 77002
L82959 77002
" />
<path d="M82818 76805
L82818 77311
L82846 77367
L82903 77395
L82959 77395
" />
<path d="M83409 77395
L83409 77086
L83381 77030
L83324 77002
L83212 77002
L83156 77030
" />
<path d="M83409 77367
L83352 77395
L83212 77395
L83156 77367
L83127 77311
L83127 77255
L83156 77199
L83212 77171
L83352 77171
L83409 77142
" />
<path d="M83690 77395
L83690 76805
" />
<path d="M83690 77030
L83746 77002
L83859 77002
L83915 77030
L83943 77058
L83971 77114
L83971 77283
L83943 77339
L83915 77367
L83859 77395
L83746 77395
L83690 77367
" />
<path d="M84309 77395
L84252 77367
L84224 77311
L84224 76805
" />
<path d="M84759 77367
L84702 77395
L84590 77395
L84534 77367
L84505 77311
L84505 77086
L84534 77030
L84590 77002
L84702 77002
L84759 77030
L84787 77086
L84787 77142
L84505 77199
" />
</g>
<g style="fill:#000000; fill-opacity:0.0; 
stroke:#000000; stroke-width:39.3701; stroke-opacity:1; 
stroke-linecap:round; stroke-linejoin:round;">
</g>
<g style="fill:#000000; fill-opacity:0.0; 
stroke:#000000; stroke-width:59.0551; stroke-opacity:1; 
stroke-linecap:round; stroke-linejoin:round;">
<path d="M69685 75396
L112205 75396
" />
</g>
<g style="fill:#000000; fill-opacity:0.0; 
stroke:#000000; stroke-width:39.3701; stroke-opacity:1; 
stroke-linecap:round; stroke-linejoin:round;">
</g>
<g style="fill:#000000; fill-opacity:0.0; 
stroke:#000000; stroke-width:118.11; stroke-opacity:1; 
stroke-linecap:round; stroke-linejoin:round;">
<path d="M104022 76293
L103825 76012
" />
<path d="M103684 76293
L103684 75703
L103909 75703
L103965 75731
L103994 75759
L104022 75815
L104022 75899
L103994 75956
L103965 75984
L103909 76012
L103684 76012
" />
<path d="M104500 76265
L104444 76293
L104331 76293
L104275 76265
L104247 76209
L104247 75984
L104275 75928
L104331 75899
L104444 75899
L104500 75928
L104528 75984
L104528 76040
L104247 76096
" />
<path d="M104725 75899
L104865 76293
L105006 75899
" />
<path d="M105231 76237
L105259 76265
L105231 76293
L105203 76265
L105231 76237
L105231 76293
" />
<path d="M105231 75928
L105259 75956
L105231 75984
L105203 75956
L105231 75928
L105231 75984
" />
<path d="M106075 75703
L106131 75703
L106187 75731
L106215 75759
L106243 75815
L106271 75928
L106271 76068
L106243 76181
L106215 76237
L106187 76265
L106131 76293
L106075 76293
L106018 76265
L105990 76237
L105962 76181
L105934 76068
L105934 75928
L105962 75815
L105990 75759
L106018 75731
L106075 75703
" />
<path d="M106525 76237
L106553 76265
L106525 76293
L106496 76265
L106525 76237
L106525 76293
" />
<path d="M107115 76293
L106778 76293
" />
<path d="M106946 76293
L106946 75703
L106890 75787
L106834 75843
L106778 75871
" />
</g>
<g style="fill:#000000; fill-opacity:0.0; 
stroke:#000000; stroke-width:39.3701; stroke-opacity:1; 
stroke-linecap:round; stroke-linejoin:round;">
</g>
<g style="fill:#000000; fill-opacity:0.0; 
stroke:#000000; stroke-width:59.0551; stroke-opacity:1; 
stroke-linecap:round; stroke-linejoin:round;">
<path d="M70192 76265
L70276 76293
L70417 76293
L70473 76265
L70501 76237
L70529 76181
L70529 76124
L70501 76068
L70473 76040
L70417 76012
L70304 75984
L70248 75956
L70220 75928
L70192 75871
L70192 75815
L70220 75759
L70248 75731
L70304 75703
L70445 75703
L70529 75731
" />
<path d="M70782 76293
L70782 75899
" />
<path d="M70782 75703
L70754 75731
L70782 75759
L70810 75731
L70782 75703
L70782 75759
" />
<path d="M71007 75899
L71316 75899
L71007 76293
L71316 76293
" />
<path d="M71766 76265
L71710 76293
L71598 76293
L71541 76265
L71513 76209
L71513 75984
L71541 75928
L71598 75899
L71710 75899
L71766 75928
L71795 75984
L71795 76040
L71513 76096
" />
<path d="M72048 76237
L72076 76265
L72048 76293
L72019 76265
L72048 76237
L72048 76293
" />
<path d="M72048 75928
L72076 75956
L72048 75984
L72019 75956
L72048 75928
L72048 75984
" />
<path d="M72751 76124
L73032 76124
" />
<path d="M72694 76293
L72891 75703
L73088 76293
" />
<path d="M73538 75899
L73538 76293
" />
<path d="M73397 75674
L73257 76096
L73622 76096
" />
</g>
<g style="fill:#000000; fill-opacity:0.0; 
stroke:#000000; stroke-width:39.3701; stroke-opacity:1; 
stroke-linecap:round; stroke-linejoin:round;">
</g>
<g style="fill:#000000; fill-opacity:0.0; 
stroke:#000000; stroke-width:59.0551; stroke-opacity:1; 
stroke-linecap:round; stroke-linejoin:round;">
<path d="M103684 77395
L103684 76805
" />
<path d="M104219 77395
L104219 76805
" />
<path d="M104219 77367
L104162 77395
L104050 77395
L103994 77367
L103965 77339
L103937 77283
L103937 77114
L103965 77058
L103994 77030
L104050 77002
L104162 77002
L104219 77030
" />
<path d="M104500 77339
L104528 77367
L104500 77395
L104472 77367
L104500 77339
L104500 77395
" />
<path d="M104500 77030
L104528 77058
L104500 77086
L104472 77058
L104500 77030
L104500 77086
" />
<path d="M105540 77395
L105203 77395
" />
<path d="M105372 77395
L105372 76805
L105315 76889
L105259 76946
L105203 76974
" />
<path d="M106215 76777
L105709 77536
" />
<path d="M106721 77395
L106384 77395
" />
<path d="M106553 77395
L106553 76805
L106496 76889
L106440 76946
L106384 76974
" />
</g>
<g style="fill:#000000; fill-opacity:0.0; 
stroke:#000000; stroke-width:39.3701; stroke-opacity:1; 
stroke-linecap:round; stroke-linejoin:round;">
</g>
<g style="fill:#000000; fill-opacity:0.0; 
stroke:#000000; stroke-width:59.0551; stroke-opacity:1; 
stroke-linecap:round; stroke-linejoin:round;">
<path d="M69685 73821
L112205 73821
" />
</g>
<g style="fill:#000000; fill-opacity:0.0; 
stroke:#000000; stroke-width:39.3701; stroke-opacity:1; 
stroke-linecap:round; stroke-linejoin:round;">
</g>
<g style="fill:#000000; fill-opacity:0.0; 
stroke:#000000; stroke-width:157.48; stroke-opacity:1; 
stroke-linecap:round; stroke-linejoin:round;">
<path d="M70257 74099
L70707 74099
" />
<path d="M70384 74886
L70482 74099
" />
<path d="M70871 74886
L70937 74361
" />
<path d="M70970 74099
L70927 74136
L70960 74174
L71002 74136
L70970 74099
L70960 74174
" />
<path d="M71199 74361
L71499 74361
" />
<path d="M71345 74099
L71260 74774
L71288 74849
L71359 74886
L71434 74886
" />
<path d="M71809 74886
L71738 74849
L71710 74774
L71795 74099
" />
<path d="M72413 74849
L72334 74886
L72184 74886
L72113 74849
L72085 74774
L72123 74474
L72169 74399
L72249 74361
L72399 74361
L72469 74399
L72498 74474
L72488 74549
L72104 74624
" />
<path d="M72793 74811
L72826 74849
L72783 74886
L72751 74849
L72793 74811
L72783 74886
" />
<path d="M72844 74399
L72877 74436
L72835 74474
L72802 74436
L72844 74399
L72835 74474
" />
<path d="M73758 74886
L73857 74099
L74044 74099
L74152 74136
L74218 74211
L74246 74286
L74265 74436
L74250 74549
L74194 74699
L74147 74774
L74063 74849
L73946 74886
L73758 74886
" />
<path d="M74546 74886
L74611 74361
" />
<path d="M74593 74511
L74639 74436
L74682 74399
L74761 74361
L74836 74361
" />
<path d="M75146 74886
L75075 74849
L75043 74811
L75014 74736
L75043 74511
L75089 74436
L75132 74399
L75211 74361
L75324 74361
L75394 74399
L75427 74436
L75455 74511
L75427 74736
L75380 74811
L75338 74849
L75258 74886
L75146 74886
" />
<path d="M75811 74361
L75713 75149
" />
<path d="M75807 74399
L75886 74361
L76036 74361
L76106 74399
L76139 74436
L76167 74511
L76139 74736
L76092 74811
L76050 74849
L75971 74886
L75821 74886
L75750 74849
" />
<path d="M76772 74474
L76880 74511
L76913 74549
L76941 74624
L76927 74736
L76880 74811
L76838 74849
L76758 74886
L76458 74886
L76556 74099
L76819 74099
L76889 74136
L76922 74174
L76950 74249
L76941 74324
L76894 74399
L76852 74436
L76772 74474
L76510 74474
" />
<path d="M77358 74886
L77288 74849
L77255 74811
L77227 74736
L77255 74511
L77302 74436
L77344 74399
L77424 74361
L77536 74361
L77606 74399
L77639 74436
L77667 74511
L77639 74736
L77592 74811
L77550 74849
L77470 74886
L77358 74886
" />
<path d="M77911 74361
L78211 74361
" />
<path d="M78056 74099
L77972 74774
L78000 74849
L78070 74886
L78145 74886
" />
<path d="M78961 74361
L79261 74361
" />
<path d="M79008 74886
L79092 74211
L79139 74136
L79219 74099
L79294 74099
" />
<path d="M79458 74886
L79523 74361
" />
<path d="M79504 74511
L79551 74436
L79594 74399
L79673 74361
L79748 74361
" />
<path d="M80058 74886
L79987 74849
L79954 74811
L79926 74736
L79954 74511
L80001 74436
L80043 74399
L80123 74361
L80236 74361
L80306 74399
L80339 74436
L80367 74511
L80339 74736
L80292 74811
L80250 74849
L80170 74886
L80058 74886
" />
<path d="M80723 74361
L80657 74886
" />
<path d="M80714 74436
L80756 74399
L80836 74361
L80948 74361
L81018 74399
L81046 74474
L80995 74886
" />
<path d="M81323 74361
L81623 74361
" />
<path d="M81468 74099
L81384 74774
L81412 74849
L81482 74886
L81557 74886
" />
<path d="M82485 74361
L82387 75149
" />
<path d="M82481 74399
L82560 74361
L82710 74361
L82781 74399
L82813 74436
L82842 74511
L82813 74736
L82767 74811
L82724 74849
L82645 74886
L82495 74886
L82424 74849
" />
<path d="M83470 74886
L83521 74474
L83493 74399
L83423 74361
L83273 74361
L83193 74399
" />
<path d="M83474 74849
L83395 74886
L83207 74886
L83137 74849
L83109 74774
L83118 74699
L83165 74624
L83245 74586
L83432 74586
L83512 74549
" />
<path d="M83910 74361
L83845 74886
" />
<path d="M83901 74436
L83943 74399
L84023 74361
L84135 74361
L84205 74399
L84234 74474
L84182 74886
" />
<path d="M84623 74361
L84557 74886
" />
<path d="M84613 74436
L84655 74399
L84735 74361
L84848 74361
L84918 74399
L84946 74474
L84894 74886
" />
<path d="M85574 74849
L85494 74886
L85344 74886
L85274 74849
L85246 74774
L85283 74474
L85330 74399
L85410 74361
L85560 74361
L85630 74399
L85658 74474
L85649 74549
L85265 74624
" />
<path d="M86057 74886
L85986 74849
L85958 74774
L86043 74099
" />
</g>
<g style="fill:#000000; fill-opacity:0.0; 
stroke:#000000; stroke-width:39.3701; stroke-opacity:1; 
stroke-linecap:round; stroke-linejoin:round;">
</g>
<g style="fill:#000000; fill-opacity:0.0; 
stroke:#000000; stroke-width:59.0551; stroke-opacity:1; 
stroke-linecap:round; stroke-linejoin:round;">
<path d="M70417 73070
L70220 73070
" />
<path d="M70220 73380
L70220 72789
L70501 72789
" />
<path d="M70726 73380
L70726 72986
" />
<path d="M70726 72789
L70698 72817
L70726 72845
L70754 72817
L70726 72789
L70726 72845
" />
<path d="M71091 73380
L71035 73352
L71007 73295
L71007 72789
" />
<path d="M71541 73352
L71485 73380
L71373 73380
L71316 73352
L71288 73295
L71288 73070
L71316 73014
L71373 72986
L71485 72986
L71541 73014
L71570 73070
L71570 73127
L71288 73183
" />
<path d="M71823 73323
L71851 73352
L71823 73380
L71795 73352
L71823 73323
L71823 73380
" />
<path d="M71823 73014
L71851 73042
L71823 73070
L71795 73042
L71823 73014
L71823 73070
" />
<path d="M72807 73380
L72807 72789
" />
<path d="M72807 73352
L72751 73380
L72638 73380
L72582 73352
L72554 73323
L72526 73267
L72526 73099
L72554 73042
L72582 73014
L72638 72986
L72751 72986
L72807 73014
" />
<path d="M73088 73380
L73088 72986
" />
<path d="M73088 73099
L73116 73042
L73144 73014
L73201 72986
L73257 72986
" />
<path d="M73538 73380
L73482 73352
L73454 73323
L73426 73267
L73426 73099
L73454 73042
L73482 73014
L73538 72986
L73622 72986
L73679 73014
L73707 73042
L73735 73099
L73735 73267
L73707 73323
L73679 73352
L73622 73380
L73538 73380
" />
<path d="M73988 72986
L73988 73577
" />
<path d="M73988 73014
L74044 72986
L74157 72986
L74213 73014
L74241 73042
L74269 73099
L74269 73267
L74241 73323
L74213 73352
L74157 73380
L74044 73380
L73988 73352
" />
<path d="M74522 73380
L74522 72789
" />
<path d="M74522 73014
L74579 72986
L74691 72986
L74747 73014
L74775 73042
L74804 73099
L74804 73267
L74775 73323
L74747 73352
L74691 73380
L74579 73380
L74522 73352
" />
<path d="M75141 73380
L75085 73352
L75057 73323
L75028 73267
L75028 73099
L75057 73042
L75085 73014
L75141 72986
L75225 72986
L75282 73014
L75310 73042
L75338 73099
L75338 73267
L75310 73323
L75282 73352
L75225 73380
L75141 73380
" />
<path d="M75507 72986
L75732 72986
" />
<path d="M75591 72789
L75591 73295
L75619 73352
L75675 73380
L75732 73380
" />
<path d="M75928 73155
L76378 73155
" />
<path d="M76575 72986
L76800 72986
" />
<path d="M76660 73380
L76660 72874
L76688 72817
L76744 72789
L76800 72789
" />
<path d="M76997 73380
L76997 72986
" />
<path d="M76997 73099
L77025 73042
L77053 73014
L77109 72986
L77166 72986
" />
<path d="M77447 73380
L77391 73352
L77363 73323
L77334 73267
L77334 73099
L77363 73042
L77391 73014
L77447 72986
L77531 72986
L77588 73014
L77616 73042
L77644 73099
L77644 73267
L77616 73323
L77588 73352
L77531 73380
L77447 73380
" />
<path d="M77897 72986
L77897 73380
" />
<path d="M77897 73042
L77925 73014
L77981 72986
L78066 72986
L78122 73014
L78150 73070
L78150 73380
" />
<path d="M78347 72986
L78572 72986
" />
<path d="M78431 72789
L78431 73295
L78459 73352
L78516 73380
L78572 73380
" />
<path d="M78769 73155
L79219 73155
" />
<path d="M79500 72986
L79500 73577
" />
<path d="M79500 73014
L79556 72986
L79669 72986
L79725 73014
L79753 73042
L79781 73099
L79781 73267
L79753 73323
L79725 73352
L79669 73380
L79556 73380
L79500 73352
" />
<path d="M80287 73380
L80287 73070
L80259 73014
L80203 72986
L80090 72986
L80034 73014
" />
<path d="M80287 73352
L80231 73380
L80090 73380
L80034 73352
L80006 73295
L80006 73239
L80034 73183
L80090 73155
L80231 73155
L80287 73127
" />
<path d="M80568 72986
L80568 73380
" />
<path d="M80568 73042
L80597 73014
L80653 72986
L80737 72986
L80793 73014
L80822 73070
L80822 73380
" />
<path d="M81103 72986
L81103 73380
" />
<path d="M81103 73042
L81131 73014
L81187 72986
L81271 72986
L81328 73014
L81356 73070
L81356 73380
" />
<path d="M81862 73352
L81806 73380
L81693 73380
L81637 73352
L81609 73295
L81609 73070
L81637 73014
L81693 72986
L81806 72986
L81862 73014
L81890 73070
L81890 73127
L81609 73183
" />
<path d="M82228 73380
L82171 73352
L82143 73295
L82143 72789
" />
<path d="M82453 73323
L82481 73352
L82453 73380
L82424 73352
L82453 73323
L82453 73380
" />
<path d="M82734 73380
L82734 72789
" />
<path d="M82790 73155
L82959 73380
" />
<path d="M82959 72986
L82734 73211
" />
<path d="M83212 73380
L83212 72986
" />
<path d="M83212 72789
L83184 72817
L83212 72845
L83240 72817
L83212 72789
L83212 72845
" />
<path d="M83746 73352
L83690 73380
L83577 73380
L83521 73352
L83493 73323
L83465 73267
L83465 73099
L83493 73042
L83521 73014
L83577 72986
L83690 72986
L83746 73014
" />
<path d="M84252 73380
L84252 73070
L84224 73014
L84168 72986
L84055 72986
L83999 73014
" />
<path d="M84252 73352
L84196 73380
L84055 73380
L83999 73352
L83971 73295
L83971 73239
L83999 73183
L84055 73155
L84196 73155
L84252 73127
" />
<path d="M84787 73380
L84787 72789
" />
<path d="M84787 73352
L84730 73380
L84618 73380
L84562 73352
L84534 73323
L84505 73267
L84505 73099
L84534 73042
L84562 73014
L84618 72986
L84730 72986
L84787 73014
" />
<path d="M84927 73436
L85377 73436
" />
<path d="M85518 72986
L85518 73577
" />
<path d="M85518 73014
L85574 72986
L85687 72986
L85743 73014
L85771 73042
L85799 73099
L85799 73267
L85771 73323
L85743 73352
L85687 73380
L85574 73380
L85518 73352
" />
<path d="M86305 73352
L86249 73380
L86136 73380
L86080 73352
L86052 73323
L86024 73267
L86024 73099
L86052 73042
L86080 73014
L86136 72986
L86249 72986
L86305 73014
" />
<path d="M86558 73380
L86558 72789
" />
<path d="M86558 73014
L86615 72986
L86727 72986
L86783 73014
L86811 73042
L86840 73099
L86840 73267
L86811 73323
L86783 73352
L86727 73380
L86615 73380
L86558 73352
" />
</g>
<g style="fill:#000000; fill-opacity:0.0; 
stroke:#000000; stroke-width:39.3701; stroke-opacity:1; 
stroke-linecap:round; stroke-linejoin:round;">
</g>
<g style="fill:#000000; fill-opacity:0.0; 
stroke:#000000; stroke-width:59.0551; stroke-opacity:1; 
stroke-linecap:round; stroke-linejoin:round;">
<path d="M69685 71459
L112205 71459
" />
</g>
<g style="fill:#000000; fill-opacity:0.0; 
stroke:#000000; stroke-width:39.3701; stroke-opacity:1; 
stroke-linecap:round; stroke-linejoin:round;">
</g>
<g style="fill:#000000; fill-opacity:0.0; 
stroke:#000000; stroke-width:59.0551; stroke-opacity:1; 
stroke-linecap:round; stroke-linejoin:round;">
<path d="M70192 72289
L70276 72317
L70417 72317
L70473 72289
L70501 72260
L70529 72204
L70529 72148
L70501 72092
L70473 72064
L70417 72036
L70304 72007
L70248 71979
L70220 71951
L70192 71895
L70192 71839
L70220 71782
L70248 71754
L70304 71726
L70445 71726
L70529 71754
" />
<path d="M70782 72317
L70782 71726
" />
<path d="M71035 72317
L71035 72007
L71007 71951
L70951 71923
L70867 71923
L70810 71951
L70782 71979
" />
<path d="M71541 72289
L71485 72317
L71373 72317
L71316 72289
L71288 72232
L71288 72007
L71316 71951
L71373 71923
L71485 71923
L71541 71951
L71570 72007
L71570 72064
L71288 72120
" />
<path d="M72048 72289
L71991 72317
L71879 72317
L71823 72289
L71795 72232
L71795 72007
L71823 71951
L71879 71923
L71991 71923
L72048 71951
L72076 72007
L72076 72064
L71795 72120
" />
<path d="M72244 71923
L72469 71923
" />
<path d="M72329 71726
L72329 72232
L72357 72289
L72413 72317
L72469 72317
" />
<path d="M72666 72260
L72694 72289
L72666 72317
L72638 72289
L72666 72260
L72666 72317
" />
<path d="M72666 71951
L72694 71979
L72666 72007
L72638 71979
L72666 71951
L72666 72007
" />
</g>
<g style="fill:#000000; fill-opacity:0.0; 
stroke:#000000; stroke-width:39.3701; stroke-opacity:1; 
stroke-linecap:round; stroke-linejoin:round;">
</g>
<g style="fill:#000000; fill-opacity:0.0; 
stroke:#000000; stroke-width:118.11; stroke-opacity:1; 
stroke-linecap:round; stroke-linejoin:round;">
<path d="M70192 71108
L70276 71136
L70417 71136
L70473 71108
L70501 71079
L70529 71023
L70529 70967
L70501 70911
L70473 70883
L70417 70854
L70304 70826
L70248 70798
L70220 70770
L70192 70714
L70192 70658
L70220 70601
L70248 70573
L70304 70545
L70445 70545
L70529 70573
" />
<path d="M71035 71108
L70979 71136
L70867 71136
L70810 71108
L70782 71079
L70754 71023
L70754 70854
L70782 70798
L70810 70770
L70867 70742
L70979 70742
L71035 70770
" />
<path d="M71288 71136
L71288 70742
" />
<path d="M71288 70545
L71260 70573
L71288 70601
L71316 70573
L71288 70545
L71288 70601
" />
<path d="M71570 70911
L72019 70911
" />
<path d="M72498 70826
L72582 70854
L72610 70883
L72638 70939
L72638 71023
L72610 71079
L72582 71108
L72526 71136
L72301 71136
L72301 70545
L72498 70545
L72554 70573
L72582 70601
L72610 70658
L72610 70714
L72582 70770
L72554 70798
L72498 70826
L72301 70826
" />
<path d="M72976 71136
L72919 71108
L72891 71079
L72863 71023
L72863 70854
L72891 70798
L72919 70770
L72976 70742
L73060 70742
L73116 70770
L73144 70798
L73172 70854
L73172 71023
L73144 71079
L73116 71108
L73060 71136
L72976 71136
" />
<path d="M73341 70742
L73566 70742
" />
<path d="M73426 70545
L73426 71051
L73454 71108
L73510 71136
L73566 71136
" />
<path d="M73735 71108
L73791 71136
L73904 71136
L73960 71108
L73988 71051
L73988 71023
L73960 70967
L73904 70939
L73819 70939
L73763 70911
L73735 70854
L73735 70826
L73763 70770
L73819 70742
L73904 70742
L73960 70770
" />
<path d="M74691 71136
L74691 70545
" />
<path d="M74972 70742
L74972 71136
" />
<path d="M74972 70798
L75000 70770
L75057 70742
L75141 70742
L75197 70770
L75225 70826
L75225 71136
" />
<path d="M75760 71108
L75703 71136
L75591 71136
L75535 71108
L75507 71079
L75478 71023
L75478 70854
L75507 70798
L75535 70770
L75591 70742
L75703 70742
L75760 70770
" />
<path d="M76013 71079
L76041 71108
L76013 71136
L75985 71108
L76013 71079
L76013 71136
" />
</g>
<g style="fill:#000000; fill-opacity:0.0; 
stroke:#000000; stroke-width:39.3701; stroke-opacity:1; 
stroke-linecap:round; stroke-linejoin:round;">
</g>
<g style="fill:#000000; fill-opacity:0.0; 
stroke:#000000; stroke-width:59.0551; stroke-opacity:1; 
stroke-linecap:round; stroke-linejoin:round;">
<path d="M77559 75396
L77559 76577
" />
</g>
<g style="fill:#000000; fill-opacity:0.0; 
stroke:#000000; stroke-width:39.3701; stroke-opacity:1; 
stroke-linecap:round; stroke-linejoin:round;">
</g>
<g style="fill:#000000; fill-opacity:0.0; 
stroke:#000000; stroke-width:59.0551; stroke-opacity:1; 
stroke-linecap:round; stroke-linejoin:round;">
<path d="M102756 75396
L102756 77955
" />
</g>
<g style="fill:#000000; fill-opacity:0.0; 
stroke:#000000; stroke-width:118.11; stroke-opacity:1; 
stroke-linecap:round; stroke-linejoin:round;">
<path d="M28183 36184
L28267 36212
L28408 36212
L28464 36184
L28492 36155
L28520 36099
L28520 36043
L28492 35987
L28464 35959
L28408 35931
L28295 35902
L28239 35874
L28211 35846
L28183 35790
L28183 35734
L28211 35677
L28239 35649
L28295 35621
L28436 35621
L28520 35649
" />
<path d="M28717 35818
L28830 36212
L28942 35931
L29055 36212
L29167 35818
" />
<path d="M29392 36212
L29392 35818
" />
<path d="M29392 35621
L29364 35649
L29392 35677
L29420 35649
L29392 35621
L29392 35677
" />
<path d="M29589 35818
L29814 35818
" />
<path d="M29673 35621
L29673 36127
L29701 36184
L29758 36212
L29814 36212
" />
<path d="M30264 36184
L30208 36212
L30095 36212
L30039 36184
L30011 36155
L29983 36099
L29983 35931
L30011 35874
L30039 35846
L30095 35818
L30208 35818
L30264 35846
" />
<path d="M30517 36212
L30517 35621
" />
<path d="M30770 36212
L30770 35902
L30742 35846
L30686 35818
L30601 35818
L30545 35846
L30517 35874
" />
<path d="M31051 36212
L31051 35818
" />
<path d="M31051 35621
L31023 35649
L31051 35677
L31079 35649
L31051 35621
L31051 35677
" />
<path d="M31332 35818
L31332 36212
" />
<path d="M31332 35874
L31361 35846
L31417 35818
L31501 35818
L31557 35846
L31586 35902
L31586 36212
" />
<path d="M32120 35818
L32120 36296
L32092 36352
L32064 36380
L32007 36409
L31923 36409
L31867 36380
" />
<path d="M32120 36184
L32064 36212
L31951 36212
L31895 36184
L31867 36155
L31839 36099
L31839 35931
L31867 35874
L31895 35846
L31951 35818
L32064 35818
L32120 35846
" />
<path d="M32851 36212
L32851 35621
" />
<path d="M32851 35846
L32907 35818
L33020 35818
L33076 35846
L33104 35874
L33132 35931
L33132 36099
L33104 36155
L33076 36184
L33020 36212
L32907 36212
L32851 36184
" />
<path d="M33470 36212
L33413 36184
L33385 36155
L33357 36099
L33357 35931
L33385 35874
L33413 35846
L33470 35818
L33554 35818
L33610 35846
L33638 35874
L33667 35931
L33667 36099
L33638 36155
L33610 36184
L33554 36212
L33470 36212
" />
<path d="M34173 36212
L34173 35902
L34145 35846
L34088 35818
L33976 35818
L33920 35846
" />
<path d="M34173 36184
L34116 36212
L33976 36212
L33920 36184
L33892 36127
L33892 36071
L33920 36015
L33976 35987
L34116 35987
L34173 35959
" />
<path d="M34454 36212
L34454 35818
" />
<path d="M34454 35931
L34482 35874
L34510 35846
L34566 35818
L34623 35818
" />
<path d="M35073 36212
L35073 35621
" />
<path d="M35073 36184
L35016 36212
L34904 36212
L34848 36184
L34820 36155
L34791 36099
L34791 35931
L34820 35874
L34848 35846
L34904 35818
L35016 35818
L35073 35846
" />
<path d="M35916 35621
L35973 35621
L36029 35649
L36057 35677
L36085 35734
L36113 35846
L36113 35987
L36085 36099
L36057 36155
L36029 36184
L35973 36212
L35916 36212
L35860 36184
L35832 36155
L35804 36099
L35776 35987
L35776 35846
L35804 35734
L35832 35677
L35860 35649
L35916 35621
" />
<path d="M36366 35987
L36816 35987
" />
<path d="M37041 35621
L37407 35621
L37210 35846
L37294 35846
L37350 35874
L37379 35902
L37407 35959
L37407 36099
L37379 36155
L37350 36184
L37294 36212
L37125 36212
L37069 36184
L37041 36155
" />
<path d="M37688 36212
L37800 36212
L37857 36184
L37885 36155
L37941 36071
L37969 35959
L37969 35734
L37941 35677
L37913 35649
L37857 35621
L37744 35621
L37688 35649
L37660 35677
L37632 35734
L37632 35874
L37660 35931
L37688 35959
L37744 35987
L37857 35987
L37913 35959
L37941 35931
L37969 35874
" />
<path d="M28183 30859
L28267 30887
L28408 30887
L28464 30859
L28492 30830
L28520 30774
L28520 30718
L28492 30662
L28464 30634
L28408 30606
L28295 30577
L28239 30549
L28211 30521
L28183 30465
L28183 30409
L28211 30352
L28239 30324
L28295 30296
L28436 30296
L28520 30324
" />
<path d="M28717 30493
L28830 30887
L28942 30606
L29055 30887
L29167 30493
" />
<path d="M29392 30887
L29392 30493
" />
<path d="M29392 30296
L29364 30324
L29392 30352
L29420 30324
L29392 30296
L29392 30352
" />
<path d="M29589 30493
L29814 30493
" />
<path d="M29673 30296
L29673 30802
L29701 30859
L29758 30887
L29814 30887
" />
<path d="M30264 30859
L30208 30887
L30095 30887
L30039 30859
L30011 30830
L29983 30774
L29983 30606
L30011 30549
L30039 30521
L30095 30493
L30208 30493
L30264 30521
" />
<path d="M30517 30887
L30517 30296
" />
<path d="M30770 30887
L30770 30577
L30742 30521
L30686 30493
L30601 30493
L30545 30521
L30517 30549
" />
<path d="M31051 30887
L31051 30493
" />
<path d="M31051 30296
L31023 30324
L31051 30352
L31079 30324
L31051 30296
L31051 30352
" />
<path d="M31332 30493
L31332 30887
" />
<path d="M31332 30549
L31361 30521
L31417 30493
L31501 30493
L31557 30521
L31586 30577
L31586 30887
" />
<path d="M32120 30493
L32120 30971
L32092 31027
L32064 31055
L32007 31084
L31923 31084
L31867 31055
" />
<path d="M32120 30859
L32064 30887
L31951 30887
L31895 30859
L31867 30830
L31839 30774
L31839 30606
L31867 30549
L31895 30521
L31951 30493
L32064 30493
L32120 30521
" />
<path d="M32851 30887
L32851 30296
" />
<path d="M32851 30521
L32907 30493
L33020 30493
L33076 30521
L33104 30549
L33132 30606
L33132 30774
L33104 30830
L33076 30859
L33020 30887
L32907 30887
L32851 30859
" />
<path d="M33470 30887
L33413 30859
L33385 30830
L33357 30774
L33357 30606
L33385 30549
L33413 30521
L33470 30493
L33554 30493
L33610 30521
L33638 30549
L33667 30606
L33667 30774
L33638 30830
L33610 30859
L33554 30887
L33470 30887
" />
<path d="M34173 30887
L34173 30577
L34145 30521
L34088 30493
L33976 30493
L33920 30521
" />
<path d="M34173 30859
L34116 30887
L33976 30887
L33920 30859
L33892 30802
L33892 30746
L33920 30690
L33976 30662
L34116 30662
L34173 30634
" />
<path d="M34454 30887
L34454 30493
" />
<path d="M34454 30606
L34482 30549
L34510 30521
L34566 30493
L34623 30493
" />
<path d="M35073 30887
L35073 30296
" />
<path d="M35073 30859
L35016 30887
L34904 30887
L34848 30859
L34820 30830
L34791 30774
L34791 30606
L34820 30549
L34848 30521
L34904 30493
L35016 30493
L35073 30521
" />
<path d="M36057 30493
L36057 30887
" />
<path d="M35916 30268
L35776 30690
L36141 30690
" />
<path d="M36479 30296
L36535 30296
L36591 30324
L36619 30352
L36647 30409
L36676 30521
L36676 30662
L36647 30774
L36619 30830
L36591 30859
L36535 30887
L36479 30887
L36422 30859
L36394 30830
L36366 30774
L36338 30662
L36338 30521
L36366 30409
L36394 30352
L36422 30324
L36479 30296
" />
<path d="M36929 30662
L37379 30662
" />
<path d="M37604 30296
L37997 30296
L37744 30887
" />
<path d="M38250 30887
L38363 30887
L38419 30859
L38447 30830
L38503 30746
L38532 30634
L38532 30409
L38503 30352
L38475 30324
L38419 30296
L38307 30296
L38250 30324
L38222 30352
L38194 30409
L38194 30549
L38222 30606
L38250 30634
L38307 30662
L38419 30662
L38475 30634
L38503 30606
L38532 30549
" />
<path d="M28183 25553
L28267 25582
L28408 25582
L28464 25553
L28492 25525
L28520 25469
L28520 25413
L28492 25357
L28464 25329
L28408 25300
L28295 25272
L28239 25244
L28211 25216
L28183 25160
L28183 25104
L28211 25047
L28239 25019
L28295 24991
L28436 24991
L28520 25019
" />
<path d="M28717 25188
L28830 25582
L28942 25300
L29055 25582
L29167 25188
" />
<path d="M29392 25582
L29392 25188
" />
<path d="M29392 24991
L29364 25019
L29392 25047
L29420 25019
L29392 24991
L29392 25047
" />
<path d="M29589 25188
L29814 25188
" />
<path d="M29673 24991
L29673 25497
L29701 25553
L29758 25582
L29814 25582
" />
<path d="M30264 25553
L30208 25582
L30095 25582
L30039 25553
L30011 25525
L29983 25469
L29983 25300
L30011 25244
L30039 25216
L30095 25188
L30208 25188
L30264 25216
" />
<path d="M30517 25582
L30517 24991
" />
<path d="M30770 25582
L30770 25272
L30742 25216
L30686 25188
L30601 25188
L30545 25216
L30517 25244
" />
<path d="M31051 25582
L31051 25188
" />
<path d="M31051 24991
L31023 25019
L31051 25047
L31079 25019
L31051 24991
L31051 25047
" />
<path d="M31332 25188
L31332 25582
" />
<path d="M31332 25244
L31361 25216
L31417 25188
L31501 25188
L31557 25216
L31586 25272
L31586 25582
" />
<path d="M32120 25188
L32120 25666
L32092 25722
L32064 25750
L32007 25778
L31923 25778
L31867 25750
" />
<path d="M32120 25553
L32064 25582
L31951 25582
L31895 25553
L31867 25525
L31839 25469
L31839 25300
L31867 25244
L31895 25216
L31951 25188
L32064 25188
L32120 25216
" />
<path d="M32851 25582
L32851 24991
" />
<path d="M32851 25216
L32907 25188
L33020 25188
L33076 25216
L33104 25244
L33132 25300
L33132 25469
L33104 25525
L33076 25553
L33020 25582
L32907 25582
L32851 25553
" />
<path d="M33470 25582
L33413 25553
L33385 25525
L33357 25469
L33357 25300
L33385 25244
L33413 25216
L33470 25188
L33554 25188
L33610 25216
L33638 25244
L33667 25300
L33667 25469
L33638 25525
L33610 25553
L33554 25582
L33470 25582
" />
<path d="M34173 25582
L34173 25272
L34145 25216
L34088 25188
L33976 25188
L33920 25216
" />
<path d="M34173 25553
L34116 25582
L33976 25582
L33920 25553
L33892 25497
L33892 25441
L33920 25385
L33976 25357
L34116 25357
L34173 25329
" />
<path d="M34454 25582
L34454 25188
" />
<path d="M34454 25300
L34482 25244
L34510 25216
L34566 25188
L34623 25188
" />
<path d="M35073 25582
L35073 24991
" />
<path d="M35073 25553
L35016 25582
L34904 25582
L34848 25553
L34820 25525
L34791 25469
L34791 25300
L34820 25244
L34848 25216
L34904 25188
L35016 25188
L35073 25216
" />
<path d="M35888 25244
L35832 25216
L35804 25188
L35776 25132
L35776 25104
L35804 25047
L35832 25019
L35888 24991
L36001 24991
L36057 25019
L36085 25047
L36113 25104
L36113 25132
L36085 25188
L36057 25216
L36001 25244
L35888 25244
L35832 25272
L35804 25300
L35776 25357
L35776 25469
L35804 25525
L35832 25553
L35888 25582
L36001 25582
L36057 25553
L36085 25525
L36113 25469
L36113 25357
L36085 25300
L36057 25272
L36001 25244
" />
<path d="M36479 24991
L36535 24991
L36591 25019
L36619 25047
L36647 25104
L36676 25216
L36676 25357
L36647 25469
L36619 25525
L36591 25553
L36535 25582
L36479 25582
L36422 25553
L36394 25525
L36366 25469
L36338 25357
L36338 25216
L36366 25104
L36394 25047
L36422 25019
L36479 24991
" />
<path d="M36929 25357
L37379 25357
" />
<path d="M37969 25582
L37632 25582
" />
<path d="M37800 25582
L37800 24991
L37744 25075
L37688 25132
L37632 25160
" />
<path d="M38532 25582
L38194 25582
" />
<path d="M38363 25582
L38363 24991
L38307 25075
L38250 25132
L38194 25160
" />
<path d="M38813 25582
L38925 25582
L38982 25553
L39010 25525
L39066 25441
L39094 25329
L39094 25104
L39066 25047
L39038 25019
L38982 24991
L38869 24991
L38813 25019
L38785 25047
L38757 25104
L38757 25244
L38785 25300
L38813 25329
L38869 25357
L38982 25357
L39038 25329
L39066 25300
L39094 25244
" />
<path d="M35233 20092
L35205 20120
L35120 20149
L35064 20149
L34980 20120
L34924 20064
L34895 20008
L34867 19895
L34867 19811
L34895 19699
L34924 19642
L34980 19586
L35064 19558
L35120 19558
L35205 19586
L35233 19614
" />
<path d="M35570 20149
L35514 20120
L35486 20092
L35458 20036
L35458 19867
L35486 19811
L35514 19783
L35570 19755
L35655 19755
L35711 19783
L35739 19811
L35767 19867
L35767 20036
L35739 20092
L35711 20120
L35655 20149
L35570 20149
" />
<path d="M36020 19755
L36020 20149
" />
<path d="M36020 19811
L36048 19783
L36105 19755
L36189 19755
L36245 19783
L36273 19839
L36273 20149
" />
<path d="M36470 19755
L36695 19755
" />
<path d="M36555 19558
L36555 20064
L36583 20120
L36639 20149
L36695 20149
" />
<path d="M36892 20149
L36892 19755
" />
<path d="M36892 19867
L36920 19811
L36948 19783
L37005 19755
L37061 19755
" />
<path d="M37342 20149
L37286 20120
L37258 20092
L37230 20036
L37230 19867
L37258 19811
L37286 19783
L37342 19755
L37426 19755
L37483 19783
L37511 19811
L37539 19867
L37539 20036
L37511 20092
L37483 20120
L37426 20149
L37342 20149
" />
<path d="M37876 20149
L37820 20120
L37792 20064
L37792 19558
" />
<path d="M38551 20149
L38551 19558
" />
<path d="M38551 19783
L38607 19755
L38720 19755
L38776 19783
L38804 19811
L38832 19867
L38832 20036
L38804 20092
L38776 20120
L38720 20149
L38607 20149
L38551 20120
" />
<path d="M39170 20149
L39114 20120
L39086 20092
L39057 20036
L39057 19867
L39086 19811
L39114 19783
L39170 19755
L39254 19755
L39311 19783
L39339 19811
L39367 19867
L39367 20036
L39339 20092
L39311 20120
L39254 20149
L39170 20149
" />
<path d="M39873 20149
L39873 19839
L39845 19783
L39789 19755
L39676 19755
L39620 19783
" />
<path d="M39873 20120
L39817 20149
L39676 20149
L39620 20120
L39592 20064
L39592 20008
L39620 19952
L39676 19924
L39817 19924
L39873 19895
" />
<path d="M40154 20149
L40154 19755
" />
<path d="M40154 19867
L40182 19811
L40210 19783
L40267 19755
L40323 19755
" />
<path d="M40773 20149
L40773 19558
" />
<path d="M40773 20120
L40717 20149
L40604 20149
L40548 20120
L40520 20092
L40492 20036
L40492 19867
L40520 19811
L40548 19783
L40604 19755
L40717 19755
L40773 19783
" />
</g>
<g style="fill:#000000; fill-opacity:0.0; 
stroke:#000000; stroke-width:78.7402; stroke-opacity:1; 
stroke-linecap:round; stroke-linejoin:round;">
<path d="M25920 25811
L25920 26441
" />
<path d="M25920 31795
L25920 31165
" />
<path d="M25920 37150
L25920 36520
" />
<path d="M58952 37150
L58952 36520
" />
<path d="M58952 31795
L58952 31165
" />
<path d="M58952 26441
L58952 25811
" />
<path d="M25920 25811
L58952 25811
" />
<path d="M25920 37150
L58952 37150
" />
<path d="M25920 36520
L58952 36520
" />
<path d="M25920 31795
L58952 31795
" />
<path d="M25920 31165
L58952 31165
" />
<path d="M25920 26441
L58952 26441
" />
<path d="M58952 21087
L58952 20457
" />
<path d="M25920 21087
L58952 21087
" />
<path d="M27889 21087
L27889 20457
" />
<path d="M58952 20457
L25920 20457
" />
</g>
<g style="fill:#000000; fill-opacity:0.0; 
stroke:#000000; stroke-width:59.0551; stroke-opacity:1; 
stroke-linecap:round; stroke-linejoin:round;">
<path d="M60685 35732
L58952 35732
" />
<path d="M58952 35732
L58952 39370
" />
<path d="M19788 35732
L19788 39370
" />
<path d="M18055 35732
L19788 35732
" />
<path d="M60685 35732
L60685 12303
" />
<path d="M18055 35732
L18055 12303
" />
<path d="M58952 39370
L19788 39370
" />
<path d="M18055 12303
L60685 12303
" />
<path d="M23143 18322
L23143 17928
L23293 17928
L23331 17947
L23350 17966
L23368 18003
L23368 18060
L23350 18097
L23331 18116
L23293 18135
L23143 18135
" />
<path d="M23743 18322
L23518 18322
" />
<path d="M23631 18322
L23631 17928
L23593 17985
L23556 18022
L23518 18041
" />
<path d="M24118 18322
L23893 18322
" />
<path d="M24006 18322
L24006 17928
L23968 17985
L23931 18022
L23893 18041
" />
<path d="M59473 19548
L59473 19154
L59623 19154
L59660 19173
L59679 19191
L59698 19229
L59698 19285
L59679 19323
L59660 19341
L59623 19360
L59473 19360
" />
<path d="M59885 19548
L59960 19548
L59998 19529
L60016 19510
L60054 19454
L60073 19379
L60073 19229
L60054 19191
L60035 19173
L59998 19154
L59923 19154
L59885 19173
L59866 19191
L59848 19229
L59848 19323
L59866 19360
L59885 19379
L59923 19398
L59998 19398
L60035 19379
L60054 19360
L60073 19323
" />
</g>
<g style="fill:#000000; fill-opacity:0.0; 
stroke:#000000; stroke-width:40; stroke-opacity:1; 
stroke-linecap:round; stroke-linejoin:round;">
<path d="M30418 15777
L30418 15277
L30608 15277
L30656 15301
L30680 15324
L30704 15372
L30704 15444
L30680 15491
L30656 15515
L30608 15539
L30418 15539
" />
<path d="M30870 15277
L31204 15277
L30989 15777
" />
<path d="M21524 16131
L21810 16131
" />
<path d="M21667 16631
L21667 16131
" />
<path d="M22143 16369
L21976 16369
" />
<path d="M21976 16631
L21976 16131
L22214 16131
" />
<path d="M22405 16631
L22405 16131
L22571 16488
L22738 16131
L22738 16631
" />
<path d="M22976 16441
L23357 16441
" />
<path d="M23857 16631
L23571 16631
" />
<path d="M23714 16631
L23714 16131
L23667 16203
L23619 16250
L23571 16274
" />
<path d="M24048 16179
L24071 16155
L24119 16131
L24238 16131
L24286 16155
L24310 16179
L24333 16226
L24333 16274
L24310 16345
L24024 16631
L24333 16631
" />
<path d="M24786 16131
L24548 16131
L24524 16369
L24548 16345
L24595 16322
L24714 16322
L24762 16345
L24786 16369
L24810 16417
L24810 16536
L24786 16584
L24762 16607
L24714 16631
L24595 16631
L24548 16607
L24524 16584
" />
<path d="M25024 16441
L25405 16441
" />
<path d="M25738 16131
L25786 16131
L25833 16155
L25857 16179
L25881 16226
L25905 16322
L25905 16441
L25881 16536
L25857 16584
L25833 16607
L25786 16631
L25738 16631
L25691 16607
L25667 16584
L25643 16536
L25619 16441
L25619 16322
L25643 16226
L25667 16179
L25691 16155
L25738 16131
" />
<path d="M26095 16179
L26119 16155
L26167 16131
L26286 16131
L26333 16155
L26357 16179
L26381 16226
L26381 16274
L26357 16345
L26071 16631
L26381 16631
" />
<path d="M26595 16441
L26976 16441
" />
<path d="M27452 16631
L27214 16631
L27214 16131
" />
<path d="M27619 16441
L28000 16441
" />
<path d="M28238 16631
L28238 16131
L28357 16131
L28429 16155
L28476 16203
L28500 16250
L28524 16345
L28524 16417
L28500 16512
L28476 16560
L28429 16607
L28357 16631
L28238 16631
" />
<path d="M28738 16631
L28738 16131
" />
<path d="M28738 16369
L29024 16369
" />
<path d="M29024 16631
L29024 16131
" />
<path d="M29567 16179
L29591 16155
L29638 16131
L29757 16131
L29805 16155
L29829 16179
L29852 16226
L29852 16274
L29829 16345
L29543 16631
L29852 16631
" />
<path d="M20387 16298
L20387 16631
" />
<path d="M20268 16107
L20149 16464
L20458 16464
" />
<path d="M20744 16131
L20791 16131
L20839 16155
L20863 16179
L20887 16226
L20911 16322
L20911 16441
L20887 16536
L20863 16584
L20839 16607
L20791 16631
L20744 16631
L20696 16607
L20672 16584
L20649 16536
L20625 16441
L20625 16322
L20649 16226
L20672 16179
L20696 16155
L20744 16131
" />
<path d="M59434 15836
L59434 15336
L59624 15336
L59672 15360
L59696 15384
L59719 15431
L59719 15503
L59696 15550
L59672 15574
L59624 15598
L59434 15598
" />
<path d="M59886 15336
L60196 15336
L60029 15526
L60100 15526
L60148 15550
L60172 15574
L60196 15622
L60196 15741
L60172 15788
L60148 15812
L60100 15836
L59957 15836
L59910 15812
L59886 15788
" />
<path d="M50444 16131
L50730 16131
" />
<path d="M50587 16631
L50587 16131
" />
<path d="M51063 16369
L50896 16369
" />
<path d="M50896 16631
L50896 16131
L51134 16131
" />
<path d="M51325 16631
L51325 16131
L51491 16488
L51658 16131
L51658 16631
" />
<path d="M51896 16441
L52277 16441
" />
<path d="M52777 16631
L52491 16631
" />
<path d="M52634 16631
L52634 16131
L52587 16203
L52539 16250
L52491 16274
" />
<path d="M52968 16179
L52991 16155
L53039 16131
L53158 16131
L53206 16155
L53230 16179
L53253 16226
L53253 16274
L53230 16345
L52944 16631
L53253 16631
" />
<path d="M53706 16131
L53468 16131
L53444 16369
L53468 16345
L53515 16322
L53634 16322
L53682 16345
L53706 16369
L53730 16417
L53730 16536
L53706 16584
L53682 16607
L53634 16631
L53515 16631
L53468 16607
L53444 16584
" />
<path d="M53944 16441
L54325 16441
" />
<path d="M54658 16131
L54706 16131
L54753 16155
L54777 16179
L54801 16226
L54825 16322
L54825 16441
L54801 16536
L54777 16584
L54753 16607
L54706 16631
L54658 16631
L54611 16607
L54587 16584
L54563 16536
L54539 16441
L54539 16322
L54563 16226
L54587 16179
L54611 16155
L54658 16131
" />
<path d="M55015 16179
L55039 16155
L55087 16131
L55206 16131
L55253 16155
L55277 16179
L55301 16226
L55301 16274
L55277 16345
L54991 16631
L55301 16631
" />
<path d="M55515 16441
L55896 16441
" />
<path d="M56372 16631
L56134 16631
L56134 16131
" />
<path d="M56539 16441
L56920 16441
" />
<path d="M57158 16631
L57158 16131
L57277 16131
L57349 16155
L57396 16203
L57420 16250
L57444 16345
L57444 16417
L57420 16512
L57396 16560
L57349 16607
L57277 16631
L57158 16631
" />
<path d="M57658 16631
L57658 16131
" />
<path d="M57658 16369
L57944 16369
" />
<path d="M57944 16631
L57944 16131
" />
<path d="M58487 16179
L58511 16155
L58558 16131
L58677 16131
L58725 16155
L58749 16179
L58772 16226
L58772 16274
L58749 16345
L58463 16631
L58772 16631
" />
<path d="M49307 16298
L49307 16631
" />
<path d="M49188 16107
L49069 16464
L49378 16464
" />
<path d="M49664 16131
L49711 16131
L49759 16155
L49783 16179
L49807 16226
L49831 16322
L49831 16441
L49807 16536
L49783 16584
L49759 16607
L49711 16631
L49664 16631
L49616 16607
L49592 16584
L49569 16536
L49545 16441
L49545 16322
L49569 16226
L49592 16179
L49616 16155
L49664 16131
" />
<path d="M54724 19478
L54724 18978
L54915 18978
L54962 19001
L54986 19025
L55010 19073
L55010 19144
L54986 19192
L54962 19216
L54915 19240
L54724 19240
" />
<path d="M55486 19478
L55201 19478
" />
<path d="M55343 19478
L55343 18978
L55296 19049
L55248 19097
L55201 19121
" />
<path d="M54052 21008
L53766 21008
" />
<path d="M53909 21008
L53909 20508
L53861 20579
L53813 20627
L53766 20651
" />
<path d="M53866 17455
L53890 17432
L53937 17408
L54056 17408
L54104 17432
L54128 17455
L54152 17503
L54152 17551
L54128 17622
L53842 17908
L54152 17908
" />
<path d="M55812 24793
L55812 24293
L56002 24293
L56050 24316
L56073 24340
L56097 24388
L56097 24459
L56073 24507
L56050 24531
L56002 24555
L55812 24555
" />
<path d="M56288 24340
L56312 24316
L56359 24293
L56478 24293
L56526 24316
L56550 24340
L56573 24388
L56573 24435
L56550 24507
L56264 24793
L56573 24793
" />
<path d="M54528 26308
L54242 26308
" />
<path d="M54385 26308
L54385 25808
L54337 25879
L54289 25927
L54242 25951
" />
<path d="M54202 22903
L54226 22879
L54274 22855
L54393 22855
L54441 22879
L54464 22903
L54488 22950
L54488 22998
L54464 23070
L54179 23355
L54488 23355
" />
<path d="M55772 30147
L55772 29647
L55963 29647
L56010 29671
L56034 29695
L56058 29742
L56058 29814
L56034 29861
L56010 29885
L55963 29909
L55772 29909
" />
<path d="M56486 29814
L56486 30147
" />
<path d="M56367 29623
L56248 29980
L56558 29980
" />
<path d="M54567 31721
L54281 31721
" />
<path d="M54424 31721
L54424 31221
L54376 31293
L54329 31340
L54281 31364
" />
<path d="M54183 28178
L54207 28155
L54254 28131
L54373 28131
L54421 28155
L54445 28178
L54468 28226
L54468 28274
L54445 28345
L54159 28631
L54468 28631
" />
<path d="M55733 35541
L55733 35041
L55923 35041
L55971 35064
L55995 35088
L56019 35136
L56019 35207
L55995 35255
L55971 35279
L55923 35303
L55733 35303
" />
<path d="M56447 35041
L56352 35041
L56304 35064
L56280 35088
L56233 35160
L56209 35255
L56209 35445
L56233 35493
L56257 35517
L56304 35541
L56399 35541
L56447 35517
L56471 35493
L56495 35445
L56495 35326
L56471 35279
L56447 35255
L56399 35231
L56304 35231
L56257 35255
L56233 35279
L56209 35326
" />
<path d="M54547 37076
L54262 37076
" />
<path d="M54404 37076
L54404 36576
L54357 36647
L54309 36695
L54262 36719
" />
<path d="M54183 33513
L54207 33489
L54254 33465
L54373 33465
L54421 33489
L54445 33513
L54468 33561
L54468 33608
L54445 33680
L54159 33965
L54468 33965
" />
</g>
<g style="fill:#000000; fill-opacity:0.0; 
stroke:#000000; stroke-width:59.0551; stroke-opacity:1; 
stroke-linecap:round; stroke-linejoin:round;">
<path d="M25545 35414
L25545 35020
L25695 35020
L25733 35039
L25751 35058
L25770 35095
L25770 35151
L25751 35189
L25733 35208
L25695 35226
L25545 35226
" />
<path d="M26145 35414
L25920 35414
" />
<path d="M26032 35414
L26032 35020
L25995 35076
L25958 35114
L25920 35133
" />
<path d="M26389 35020
L26426 35020
L26464 35039
L26482 35058
L26501 35095
L26520 35170
L26520 35264
L26501 35339
L26482 35376
L26464 35395
L26426 35414
L26389 35414
L26351 35395
L26332 35376
L26314 35339
L26295 35264
L26295 35170
L26314 35095
L26332 35058
L26351 35039
L26389 35020
" />
<path d="M57166 21824
L57447 21824
L57503 21842
L57541 21880
L57559 21936
L57559 21974
" />
<path d="M57559 21636
L57166 21636
L57166 21486
L57185 21449
L57203 21430
L57241 21411
L57297 21411
L57335 21430
L57353 21449
L57372 21486
L57372 21636
" />
<path d="M57559 21036
L57559 21261
" />
<path d="M57559 21149
L57166 21149
L57222 21186
L57260 21224
L57278 21261
" />
<path d="M58032 21745
L58313 21745
L58369 21764
L58407 21801
L58426 21857
L58426 21895
" />
<path d="M58426 21557
L58032 21557
L58032 21407
L58051 21370
L58069 21351
L58107 21332
L58163 21332
L58201 21351
L58219 21370
L58238 21407
L58238 21557
" />
<path d="M58069 21182
L58051 21164
L58032 21126
L58032 21032
L58051 20995
L58069 20976
L58107 20958
L58144 20958
L58201 20976
L58426 21201
L58426 20958
" />
</g>
<g style="fill:#000000; fill-opacity:0.0; 
stroke:#000000; stroke-width:40; stroke-opacity:1; 
stroke-linecap:round; stroke-linejoin:round;">
<path d="M46087 15777
L46087 15277
L46278 15277
L46325 15301
L46349 15324
L46373 15372
L46373 15444
L46349 15491
L46325 15515
L46278 15539
L46087 15539
" />
<path d="M46825 15277
L46587 15277
L46563 15515
L46587 15491
L46635 15467
L46754 15467
L46801 15491
L46825 15515
L46849 15563
L46849 15682
L46825 15729
L46801 15753
L46754 15777
L46635 15777
L46587 15753
L46563 15729
" />
<path d="M35684 16281
L35970 16281
" />
<path d="M35827 16781
L35827 16281
" />
<path d="M36303 16519
L36136 16519
" />
<path d="M36136 16781
L36136 16281
L36374 16281
" />
<path d="M36565 16781
L36565 16281
L36731 16638
L36898 16281
L36898 16781
" />
<path d="M37136 16591
L37517 16591
" />
<path d="M38017 16781
L37731 16781
" />
<path d="M37874 16781
L37874 16281
L37827 16353
L37779 16400
L37731 16424
" />
<path d="M38208 16329
L38231 16305
L38279 16281
L38398 16281
L38446 16305
L38470 16329
L38493 16376
L38493 16424
L38470 16495
L38184 16781
L38493 16781
" />
<path d="M38946 16281
L38708 16281
L38684 16519
L38708 16495
L38755 16472
L38874 16472
L38922 16495
L38946 16519
L38970 16567
L38970 16686
L38946 16734
L38922 16757
L38874 16781
L38755 16781
L38708 16757
L38684 16734
" />
<path d="M39184 16591
L39565 16591
" />
<path d="M39898 16281
L39946 16281
L39993 16305
L40017 16329
L40041 16376
L40065 16472
L40065 16591
L40041 16686
L40017 16734
L39993 16757
L39946 16781
L39898 16781
L39851 16757
L39827 16734
L39803 16686
L39779 16591
L39779 16472
L39803 16376
L39827 16329
L39851 16305
L39898 16281
" />
<path d="M40255 16329
L40279 16305
L40327 16281
L40446 16281
L40493 16305
L40517 16329
L40541 16376
L40541 16424
L40517 16495
L40231 16781
L40541 16781
" />
<path d="M40755 16591
L41136 16591
" />
<path d="M41612 16781
L41374 16781
L41374 16281
" />
<path d="M41779 16591
L42160 16591
" />
<path d="M42398 16781
L42398 16281
L42517 16281
L42589 16305
L42636 16353
L42660 16400
L42684 16495
L42684 16567
L42660 16662
L42636 16710
L42589 16757
L42517 16781
L42398 16781
" />
<path d="M42898 16781
L42898 16281
" />
<path d="M42898 16519
L43184 16519
" />
<path d="M43184 16781
L43184 16281
" />
<path d="M45277 16329
L45301 16305
L45348 16281
L45467 16281
L45515 16305
L45539 16329
L45562 16376
L45562 16424
L45539 16495
L45253 16781
L45562 16781
" />
<path d="M33371 16281
L33132 16281
L33109 16519
L33132 16495
L33180 16472
L33299 16472
L33347 16495
L33371 16519
L33394 16567
L33394 16686
L33371 16734
L33347 16757
L33299 16781
L33180 16781
L33132 16757
L33109 16734
" />
<path d="M33704 16281
L33751 16281
L33799 16305
L33823 16329
L33847 16376
L33871 16472
L33871 16591
L33847 16686
L33823 16734
L33799 16757
L33751 16781
L33704 16781
L33656 16757
L33632 16734
L33609 16686
L33585 16591
L33585 16472
L33609 16376
L33632 16329
L33656 16305
L33704 16281
" />
</g>
<g style="fill:#000000; fill-opacity:0.0; 
stroke:#000000; stroke-width:59.0551; stroke-opacity:1; 
stroke-linecap:round; stroke-linejoin:round;">
<path d="M26706 21400
L26687 21419
L26631 21437
L26593 21437
L26537 21419
L26499 21381
L26481 21344
L26462 21269
L26462 21212
L26481 21137
L26499 21100
L26537 21062
L26593 21044
L26631 21044
L26687 21062
L26706 21081
" />
<path d="M26856 21081
L26874 21062
L26912 21044
L27005 21044
L27043 21062
L27062 21081
L27080 21119
L27080 21156
L27062 21212
L26837 21437
L27080 21437
" />
<path d="M26745 22109
L26726 22127
L26670 22146
L26632 22146
L26576 22127
L26539 22090
L26520 22052
L26501 21977
L26501 21921
L26520 21846
L26539 21809
L26576 21771
L26632 21752
L26670 21752
L26726 21771
L26745 21790
" />
<path d="M26876 21752
L27120 21752
L26989 21902
L27045 21902
L27082 21921
L27101 21940
L27120 21977
L27120 22071
L27101 22109
L27082 22127
L27045 22146
L26932 22146
L26895 22127
L26876 22109
" />
<path d="M21902 22232
L21715 22232
L21715 21838
" />
<path d="M22015 21875
L22034 21857
L22071 21838
L22165 21838
L22202 21857
L22221 21875
L22240 21913
L22240 21950
L22221 22007
L21996 22232
L22240 22232
" />
<path d="M26910 22189
L27229 22189
L27266 22170
L27285 22152
L27304 22114
L27304 22039
L27285 22002
L27266 21983
L27229 21964
L26910 21964
" />
<path d="M26947 21796
L26929 21777
L26910 21739
L26910 21646
L26929 21608
L26947 21589
L26985 21571
L27022 21571
L27079 21589
L27304 21814
L27304 21571
" />
<path d="M28558 22579
L28689 22973
L28820 22579
" />
<path d="M29026 22579
L29101 22579
L29139 22598
L29176 22635
L29195 22710
L29195 22842
L29176 22917
L29139 22954
L29101 22973
L29026 22973
L28989 22954
L28952 22917
L28933 22842
L28933 22710
L28952 22635
L28989 22598
L29026 22579
" />
<path d="M29364 22579
L29364 22898
L29383 22935
L29401 22954
L29439 22973
L29514 22973
L29551 22954
L29570 22935
L29589 22898
L29589 22579
" />
<path d="M29720 22579
L29945 22579
" />
<path d="M29833 22973
L29833 22579
" />
<path d="M28584 20611
L28715 21004
L28847 20611
" />
<path d="M28978 21004
L28978 20611
" />
<path d="M29165 21004
L29165 20611
L29390 21004
L29390 20611
" />
<path d="M28833 21614
L28796 21595
L28740 21595
L28683 21614
L28646 21651
L28627 21689
L28608 21764
L28608 21820
L28627 21895
L28646 21932
L28683 21970
L28740 21989
L28777 21989
L28833 21970
L28852 21951
L28852 21820
L28777 21820
" />
<path d="M29021 21989
L29021 21595
L29246 21989
L29246 21595
" />
<path d="M29433 21989
L29433 21595
L29527 21595
L29583 21614
L29621 21651
L29640 21689
L29658 21764
L29658 21820
L29640 21895
L29621 21932
L29583 21970
L29527 21989
L29433 21989
" />
<path d="M28607 19775
L28738 19775
" />
<path d="M28794 19981
L28607 19981
L28607 19587
L28794 19587
" />
<path d="M28963 19981
L28963 19587
L29188 19981
L29188 19587
" />
<path d="M28597 18997
L28597 18603
L28747 18603
L28785 18622
L28803 18640
L28822 18678
L28822 18734
L28803 18772
L28785 18790
L28747 18809
L28597 18809
" />
<path d="M29197 18622
L29160 18603
L29103 18603
L29047 18622
L29010 18659
L28991 18697
L28972 18772
L28972 18828
L28991 18903
L29010 18940
L29047 18978
L29103 18997
L29141 18997
L29197 18978
L29216 18959
L29216 18828
L29141 18828
" />
</g>
<g style="fill:#000000; fill-opacity:0.0; 
stroke:#000000; stroke-width:47.2441; stroke-opacity:1; 
stroke-linecap:round; stroke-linejoin:round;">
<path d="M26578 18645
L26578 19562
" />
<path d="M20677 18645
L20677 19480
" />
<path d="M26578 18645
L20677 18645
" />
<path d="M26578 20755
L20677 20755
" />
<path d="M26578 20728
L26578 20755
" />
</g>
<g style="fill:#000000; fill-opacity:0.0; 
stroke:#000000; stroke-width:59.0551; stroke-opacity:1; 
stroke-linecap:round; stroke-linejoin:round;">
<path d="M59263 20933
L59263 22933
" />
<path d="M59263 22933
L60263 22933
" />
<path d="M60263 22933
L60263 20933
" />
<path d="M60374 19822
L60374 20433
" />
<path d="M60263 20933
L59263 20933
" />
<path d="M59153 20433
L59153 19822
" />
<path d="M59153 19822
L60374 19822
" />
</g>
<g style="fill:#000000; fill-opacity:0.0; 
stroke:#000000; stroke-width:26; stroke-opacity:1; 
stroke-linecap:round; stroke-linejoin:round;">
<path d="M18590 13455
L19560 13455
" />
<path d="M19560 13455
L19560 12555
" />
<path d="M18590 12555
L19560 12555
" />
<path d="M18590 13455
L18590 12555
" />
<path d="M18590 14575
L19560 14575
" />
<path d="M19560 14575
L19560 13605
" />
<path d="M18590 13605
L19560 13605
" />
<path d="M18590 14575
L18590 13605
" />
<path d="M30260 13455
L31230 13455
" />
<path d="M31230 13455
L31230 12555
" />
<path d="M30260 12555
L31230 12555
" />
<path d="M30260 13455
L30260 12555
" />
<path d="M30260 14575
L31230 14575
" />
<path d="M31230 14575
L31230 13605
" />
<path d="M30260 13605
L31230 13605
" />
<path d="M30260 14575
L30260 13605
" />
</g>
<g style="fill:#000000; fill-opacity:0.0; 
stroke:#000000; stroke-width:50; stroke-opacity:1; 
stroke-linecap:round; stroke-linejoin:round;">
<path d="M18355 12705
L18355 15145
" />
<path d="M18355 15145
L19575 15145
" />
<path d="M19575 15145
L19575 16020
" />
<path d="M19575 16020
L30245 16020
" />
<path d="M30245 16020
L30245 15145
" />
<path d="M30245 15145
L31465 15145
" />
<path d="M31465 15145
L31465 12705
" />
</g>
<g style="fill:#000000; fill-opacity:0.0; 
stroke:#000000; stroke-width:26; stroke-opacity:1; 
stroke-linecap:round; stroke-linejoin:round;">
<path d="M47510 13455
L48480 13455
" />
<path d="M48480 13455
L48480 12555
" />
<path d="M47510 12555
L48480 12555
" />
<path d="M47510 13455
L47510 12555
" />
<path d="M47510 14575
L48480 14575
" />
<path d="M48480 14575
L48480 13605
" />
<path d="M47510 13605
L48480 13605
" />
<path d="M47510 14575
L47510 13605
" />
<path d="M59180 13455
L60150 13455
" />
<path d="M60150 13455
L60150 12555
" />
<path d="M59180 12555
L60150 12555
" />
<path d="M59180 13455
L59180 12555
" />
<path d="M59180 14575
L60150 14575
" />
<path d="M60150 14575
L60150 13605
" />
<path d="M59180 13605
L60150 13605
" />
<path d="M59180 14575
L59180 13605
" />
</g>
<g style="fill:#000000; fill-opacity:0.0; 
stroke:#000000; stroke-width:50; stroke-opacity:1; 
stroke-linecap:round; stroke-linejoin:round;">
<path d="M47275 12705
L47275 15145
" />
<path d="M47275 15145
L48495 15145
" />
<path d="M48495 15145
L48495 16020
" />
<path d="M48495 16020
L59165 16020
" />
<path d="M59165 16020
L59165 15145
" />
<path d="M59165 15145
L60385 15145
" />
<path d="M60385 15145
L60385 12705
" />
<path d="M50634 19512
L50634 18952
" />
<path d="M50354 19232
L50914 19232
" />
<circle cx="50634.2" cy="19232.1" r="197.99" /> 
<path d="M50035 19682
L50035 18782
" />
<path d="M50734 19682
L50035 19682
" />
<path d="M50734 20357
L50734 19682
" />
<path d="M50934 18432
L50934 18107
" />
<path d="M50734 18432
L50934 18432
" />
<path d="M50734 18782
L50734 18432
" />
<path d="M50035 18782
L50734 18782
" />
<path d="M50934 18107
L53784 18107
" />
<path d="M53784 18107
L53784 18782
" />
<path d="M53784 18782
L54483 18782
" />
<path d="M54483 18782
L54483 19682
" />
<path d="M54483 19682
L53784 19682
" />
<path d="M53784 19682
L53784 20357
" />
<path d="M53784 20357
L50734 20357
" />
<circle cx="53884.2" cy="19232.1" r="197.99" /> 
<path d="M53604 19232
L54164 19232
" />
<path d="M53884 19512
L53884 18952
" />
<path d="M41697 24866
L41697 24306
" />
<path d="M41417 24586
L41977 24586
" />
<circle cx="41697.2" cy="24586.2" r="197.99" /> 
<path d="M41098 25036
L41098 24136
" />
<path d="M41797 25036
L41098 25036
" />
<path d="M41797 25711
L41797 25036
" />
<path d="M41997 23786
L41997 23461
" />
<path d="M41797 23786
L41997 23786
" />
<path d="M41797 24136
L41797 23786
" />
<path d="M41098 24136
L41797 24136
" />
<path d="M41997 23461
L54847 23461
" />
<path d="M54847 23461
L54847 24136
" />
<path d="M54847 24136
L55546 24136
" />
<path d="M55546 24136
L55546 25036
" />
<path d="M55546 25036
L54847 25036
" />
<path d="M54847 25036
L54847 25711
" />
<path d="M54847 25711
L41797 25711
" />
<circle cx="54947.2" cy="24586.2" r="197.99" /> 
<path d="M54667 24586
L55227 24586
" />
<path d="M54947 24866
L54947 24306
" />
<path d="M41697 30220
L41697 29660
" />
<path d="M41417 29940
L41977 29940
" />
<circle cx="41697.2" cy="29940.6" r="197.99" /> 
<path d="M41098 30390
L41098 29490
" />
<path d="M41797 30390
L41098 30390
" />
<path d="M41797 31065
L41797 30390
" />
<path d="M41997 29140
L41997 28815
" />
<path d="M41797 29140
L41997 29140
" />
<path d="M41797 29490
L41797 29140
" />
<path d="M41098 29490
L41797 29490
" />
<path d="M41997 28815
L54847 28815
" />
<path d="M54847 28815
L54847 29490
" />
<path d="M54847 29490
L55546 29490
" />
<path d="M55546 29490
L55546 30390
" />
<path d="M55546 30390
L54847 30390
" />
<path d="M54847 30390
L54847 31065
" />
<path d="M54847 31065
L41797 31065
" />
<circle cx="54947.2" cy="29940.6" r="197.99" /> 
<path d="M54667 29940
L55227 29940
" />
<path d="M54947 30220
L54947 29660
" />
<path d="M41697 35574
L41697 35014
" />
<path d="M41417 35294
L41977 35294
" />
<circle cx="41697.2" cy="35294.9" r="197.99" /> 
<path d="M41098 35744
L41098 34844
" />
<path d="M41797 35744
L41098 35744
" />
<path d="M41797 36419
L41797 35744
" />
<path d="M41997 34494
L41997 34169
" />
<path d="M41797 34494
L41997 34494
" />
<path d="M41797 34844
L41797 34494
" />
<path d="M41098 34844
L41797 34844
" />
<path d="M41997 34169
L54847 34169
" />
<path d="M54847 34169
L54847 34844
" />
<path d="M54847 34844
L55546 34844
" />
<path d="M55546 34844
L55546 35744
" />
<path d="M55546 35744
L54847 35744
" />
<path d="M54847 35744
L54847 36419
" />
<path d="M54847 36419
L41797 36419
" />
<circle cx="54947.2" cy="35294.9" r="197.99" /> 
<path d="M54667 35294
L55227 35294
" />
<path d="M54947 35574
L54947 35014
" />
</g>
<g style="fill:#000000; fill-opacity:0.0; 
stroke:#000000; stroke-width:47.2441; stroke-opacity:1; 
stroke-linecap:round; stroke-linejoin:round;">
<path d="M22897 38984
L22897 34984
" />
<path d="M22397 38984
L25397 38984
" />
<path d="M25397 38984
L25397 34984
" />
<path d="M25397 34984
L22397 34984
" />
<path d="M22397 34984
L22397 38984
" />
<path d="M57748 22401
L57748 22874
" />
<path d="M57055 22874
L57055 22401
" />
<path d="M58594 22381
L58594 22854
" />
<path d="M57901 22854
L57901 22381
" />
</g>
<g style="fill:#000000; fill-opacity:0.0; 
stroke:#000000; stroke-width:50; stroke-opacity:1; 
stroke-linecap:round; stroke-linejoin:round;">
<path d="M31565 12705
L31565 15145
" />
<path d="M31565 15145
L32785 15145
" />
<path d="M32785 15145
L32785 16175
" />
<path d="M32785 16175
L45955 16175
" />
<path d="M45955 16175
L45955 15145
" />
<path d="M45955 15145
L47175 15145
" />
<path d="M47175 15145
L47175 12705
" />
</g>
<g style="fill:#000000; fill-opacity:0.0; 
stroke:#000000; stroke-width:47.2441; stroke-opacity:1; 
stroke-linecap:round; stroke-linejoin:round;">
<path d="M25905 20925
L25511 20925
" />
<path d="M25511 21594
L25905 21594
" />
<path d="M25905 21633
L25511 21633
" />
<path d="M25511 22303
L25905 22303
" />
</g>
<g style="fill:#000000; fill-opacity:0.0; 
stroke:#000000; stroke-width:39.3701; stroke-opacity:1; 
stroke-linecap:round; stroke-linejoin:round;">
<path d="M25511 34606
L25511 22401
" />
<path d="M18425 34606
L25511 34606
" />
<path d="M18425 34606
L18425 22401
" />
<path d="M18425 22401
L25511 22401
" />
<path d="M34566 25314
L27559 25314
" />
<path d="M34566 18307
L34566 25314
" />
<path d="M27559 18307
L27559 25314
" />
<path d="M34566 18307
L27559 18307
" />
</g>
<g style="fill:#000000; fill-opacity:0.0; 
stroke:#000000; stroke-width:47.2441; stroke-opacity:1; 
stroke-linecap:round; stroke-linejoin:round;">
<circle cx="19685" cy="17322.8" r="900" /> 
<circle cx="59055.1" cy="17322.8" r="900" /> 
<circle cx="59055.1" cy="33858.3" r="900" /> 
<circle cx="26771.7" cy="33858.3" r="900" /> 
</g>
<g style="fill:#000000; fill-opacity:1.0; 
stroke:#000000; stroke-width:0; stroke-opacity:1; 
stroke-linecap:round; stroke-linejoin:round;">
<circle cx="24921.3" cy="30964.6" r="393.701" /> 
</g>
<g style="fill:#000000; fill-opacity:1.0; 
stroke:#000000; stroke-width:39.3701; stroke-opacity:1; 
stroke-linecap:round; stroke-linejoin:round;">
</g>
<g style="fill:#000000; fill-opacity:1.0; 
stroke:#000000; stroke-width:0; stroke-opacity:1; 
stroke-linecap:round; stroke-linejoin:round;">
<circle cx="24921.3" cy="26043.3" r="393.701" /> 
</g>
<g style="fill:#000000; fill-opacity:1.0; 
stroke:#000000; stroke-width:39.3701; stroke-opacity:1; 
stroke-linecap:round; stroke-linejoin:round;">
</g>
<g style="fill:#000000; fill-opacity:1.0; 
stroke:#000000; stroke-width:0; stroke-opacity:1; 
stroke-linecap:round; stroke-linejoin:round;">
<circle cx="19015.7" cy="30964.6" r="393.701" /> 
</g>
<g style="fill:#000000; fill-opacity:1.0; 
stroke:#000000; stroke-width:39.3701; stroke-opacity:1; 
stroke-linecap:round; stroke-linejoin:round;">
</g>
<g style="fill:#000000; fill-opacity:1.0; 
stroke:#000000; stroke-width:0; stroke-opacity:1; 
stroke-linecap:round; stroke-linejoin:round;">
<circle cx="19015.7" cy="26043.3" r="393.701" /> 
</g>
<g style="fill:#000000; fill-opacity:1.0; 
stroke:#000000; stroke-width:39.3701; stroke-opacity:1; 
stroke-linecap:round; stroke-linejoin:round;">
</g>
<g style="fill:#000000; fill-opacity:1.0; 
stroke:#000000; stroke-width:0; stroke-opacity:1; 
stroke-linecap:round; stroke-linejoin:round;">
<circle cx="28059.1" cy="22807.1" r="400" /> 
</g>
<g style="fill:#000000; fill-opacity:1.0; 
stroke:#000000; stroke-width:39.3701; stroke-opacity:1; 
stroke-linecap:round; stroke-linejoin:round;">
</g>
<g style="fill:#000000; fill-opacity:1.0; 
stroke:#000000; stroke-width:0; stroke-opacity:1; 
stroke-linecap:round; stroke-linejoin:round;">
<circle cx="28059.1" cy="21807.1" r="400" /> 
</g>
<g style="fill:#000000; fill-opacity:1.0; 
stroke:#000000; stroke-width:39.3701; stroke-opacity:1; 
stroke-linecap:round; stroke-linejoin:round;">
</g>
<g style="fill:#000000; fill-opacity:1.0; 
stroke:#000000; stroke-width:0; stroke-opacity:1; 
stroke-linecap:round; stroke-linejoin:round;">
<circle cx="28059.1" cy="20807.1" r="400" /> 
</g>
<g style="fill:#000000; fill-opacity:1.0; 
stroke:#000000; stroke-width:39.3701; stroke-opacity:1; 
stroke-linecap:round; stroke-linejoin:round;">
</g>
<g style="fill:#000000; fill-opacity:1.0; 
stroke:#000000; stroke-width:0; stroke-opacity:1; 
stroke-linecap:round; stroke-linejoin:round;">
<circle cx="28059.1" cy="19807.1" r="400" /> 
</g>
<g style="fill:#000000; fill-opacity:1.0; 
stroke:#000000; stroke-width:39.3701; stroke-opacity:1; 
stroke-linecap:round; stroke-linejoin:round;">
</g>
<g style="fill:#000000; fill-opacity:1.0; 
stroke:#000000; stroke-width:0; stroke-opacity:1; 
stroke-linecap:round; stroke-linejoin:round;">
<circle cx="28059.1" cy="18807.1" r="400" /> 
</g>
<g style="fill:#000000; fill-opacity:1.0; 
stroke:#000000; stroke-width:39.3701; stroke-opacity:1; 
stroke-linecap:round; stroke-linejoin:round;">
</g> 
</svg>
