<?xml version="1.0" standalone="no"?>
 <!DOCTYPE svg PUBLIC "-//W3C//DTD SVG 1.1//EN" 
 "http://www.w3.org/Graphics/SVG/1.1/DTD/svg11.dtd"> 
<svg xmlns="http://www.w3.org/2000/svg" version="1.1" 
    width="29.7002cm" height="21.0007cm" viewBox="0 0 116930 82680 ">
<title>SVG Picture created as dropbot-front-pannel-F.Mask.svg date 2016/12/19 01:01:20 </title>
  <desc>Picture generated by PCBNEW </desc>
<g style="fill:#000000; fill-opacity:1;stroke:#000000; stroke-opacity:1;
stroke-linecap:round; stroke-linejoin:round; "
 transform="translate(0 0) scale(1 1)">
</g>
<g style="fill:#000000; fill-opacity:0.0; 
stroke:#000000; stroke-width:-0.000393701; stroke-opacity:1; 
stroke-linecap:round; stroke-linejoin:round;">
</g>
<g style="fill:#000000; fill-opacity:0.0; 
stroke:#000000; stroke-width:39.3701; stroke-opacity:1; 
stroke-linecap:round; stroke-linejoin:round;">
</g>
<g style="fill:#000000; fill-opacity:0.0; 
stroke:#000000; stroke-width:59.0551; stroke-opacity:1; 
stroke-linecap:round; stroke-linejoin:round;">
<rect x="69685.9" y="65357.2" width="42519.7" height="12598.4" rx="0" />
</g>
<g style="fill:#000000; fill-opacity:0.0; 
stroke:#000000; stroke-width:39.3701; stroke-opacity:1; 
stroke-linecap:round; stroke-linejoin:round;">
</g>
<g style="fill:#000000; fill-opacity:0.0; 
stroke:#000000; stroke-width:59.0551; stroke-opacity:1; 
stroke-linecap:round; stroke-linejoin:round;">
<rect x="3937.01" y="3937.01" width="109056" height="74806" rx="0" />
</g>
<g style="fill:#000000; fill-opacity:0.0; 
stroke:#000000; stroke-width:39.3701; stroke-opacity:1; 
stroke-linecap:round; stroke-linejoin:round;">
</g>
<g style="fill:#000000; fill-opacity:0.0; 
stroke:#000000; stroke-width:59.0551; stroke-opacity:1; 
stroke-linecap:round; stroke-linejoin:round;">
<rect x="4724.41" y="4724.41" width="107481" height="73231.2" rx="0" />
</g>
<g style="fill:#000000; fill-opacity:0.0; 
stroke:#000000; stroke-width:39.3701; stroke-opacity:1; 
stroke-linecap:round; stroke-linejoin:round;">
</g>
<g style="fill:#000000; fill-opacity:0.0; 
stroke:#000000; stroke-width:59.0551; stroke-opacity:1; 
stroke-linecap:round; stroke-linejoin:round;">
<path d="M23622 4724
L23622 3937
" />
</g>
<g style="fill:#000000; fill-opacity:0.0; 
stroke:#000000; stroke-width:39.3701; stroke-opacity:1; 
stroke-linecap:round; stroke-linejoin:round;">
</g>
<g style="fill:#000000; fill-opacity:0.0; 
stroke:#000000; stroke-width:59.0551; stroke-opacity:1; 
stroke-linecap:round; stroke-linejoin:round;">
<path d="M43307 4724
L43307 3937
" />
</g>
<g style="fill:#000000; fill-opacity:0.0; 
stroke:#000000; stroke-width:39.3701; stroke-opacity:1; 
stroke-linecap:round; stroke-linejoin:round;">
</g>
<g style="fill:#000000; fill-opacity:0.0; 
stroke:#000000; stroke-width:59.0551; stroke-opacity:1; 
stroke-linecap:round; stroke-linejoin:round;">
<path d="M62992 4724
L62992 3937
" />
</g>
<g style="fill:#000000; fill-opacity:0.0; 
stroke:#000000; stroke-width:39.3701; stroke-opacity:1; 
stroke-linecap:round; stroke-linejoin:round;">
</g>
<g style="fill:#000000; fill-opacity:0.0; 
stroke:#000000; stroke-width:59.0551; stroke-opacity:1; 
stroke-linecap:round; stroke-linejoin:round;">
<path d="M82677 4724
L82677 3937
" />
</g>
<g style="fill:#000000; fill-opacity:0.0; 
stroke:#000000; stroke-width:39.3701; stroke-opacity:1; 
stroke-linecap:round; stroke-linejoin:round;">
</g>
<g style="fill:#000000; fill-opacity:0.0; 
stroke:#000000; stroke-width:59.0551; stroke-opacity:1; 
stroke-linecap:round; stroke-linejoin:round;">
<path d="M102362 4724
L102362 3937
" />
</g>
<g style="fill:#000000; fill-opacity:0.0; 
stroke:#000000; stroke-width:39.3701; stroke-opacity:1; 
stroke-linecap:round; stroke-linejoin:round;">
</g>
<g style="fill:#000000; fill-opacity:0.0; 
stroke:#000000; stroke-width:59.0551; stroke-opacity:1; 
stroke-linecap:round; stroke-linejoin:round;">
<path d="M14169 4562
L13877 4562
" />
<path d="M14023 4562
L14023 4050
L13974 4123
L13925 4172
L13877 4196
" />
</g>
<g style="fill:#000000; fill-opacity:0.0; 
stroke:#000000; stroke-width:39.3701; stroke-opacity:1; 
stroke-linecap:round; stroke-linejoin:round;">
</g>
<g style="fill:#000000; fill-opacity:0.0; 
stroke:#000000; stroke-width:59.0551; stroke-opacity:1; 
stroke-linecap:round; stroke-linejoin:round;">
<path d="M33562 4099
L33586 4074
L33635 4050
L33757 4050
L33805 4074
L33830 4099
L33854 4147
L33854 4196
L33830 4269
L33537 4562
L33854 4562
" />
</g>
<g style="fill:#000000; fill-opacity:0.0; 
stroke:#000000; stroke-width:39.3701; stroke-opacity:1; 
stroke-linecap:round; stroke-linejoin:round;">
</g>
<g style="fill:#000000; fill-opacity:0.0; 
stroke:#000000; stroke-width:59.0551; stroke-opacity:1; 
stroke-linecap:round; stroke-linejoin:round;">
<path d="M53222 4050
L53539 4050
L53368 4245
L53442 4245
L53490 4269
L53515 4294
L53539 4342
L53539 4464
L53515 4513
L53490 4537
L53442 4562
L53295 4562
L53247 4537
L53222 4513
" />
</g>
<g style="fill:#000000; fill-opacity:0.0; 
stroke:#000000; stroke-width:39.3701; stroke-opacity:1; 
stroke-linecap:round; stroke-linejoin:round;">
</g>
<g style="fill:#000000; fill-opacity:0.0; 
stroke:#000000; stroke-width:59.0551; stroke-opacity:1; 
stroke-linecap:round; stroke-linejoin:round;">
<path d="M73175 4221
L73175 4562
" />
<path d="M73053 4026
L72932 4391
L73248 4391
" />
</g>
<g style="fill:#000000; fill-opacity:0.0; 
stroke:#000000; stroke-width:39.3701; stroke-opacity:1; 
stroke-linecap:round; stroke-linejoin:round;">
</g>
<g style="fill:#000000; fill-opacity:0.0; 
stroke:#000000; stroke-width:59.0551; stroke-opacity:1; 
stroke-linecap:round; stroke-linejoin:round;">
<path d="M92885 4050
L92641 4050
L92617 4294
L92641 4269
L92690 4245
L92812 4245
L92860 4269
L92885 4294
L92909 4342
L92909 4464
L92885 4513
L92860 4537
L92812 4562
L92690 4562
L92641 4537
L92617 4513
" />
</g>
<g style="fill:#000000; fill-opacity:0.0; 
stroke:#000000; stroke-width:39.3701; stroke-opacity:1; 
stroke-linecap:round; stroke-linejoin:round;">
</g>
<g style="fill:#000000; fill-opacity:0.0; 
stroke:#000000; stroke-width:59.0551; stroke-opacity:1; 
stroke-linecap:round; stroke-linejoin:round;">
<path d="M112545 4050
L112448 4050
L112399 4074
L112375 4099
L112326 4172
L112302 4269
L112302 4464
L112326 4513
L112350 4537
L112399 4562
L112497 4562
L112545 4537
L112570 4513
L112594 4464
L112594 4342
L112570 4294
L112545 4269
L112497 4245
L112399 4245
L112350 4269
L112326 4294
L112302 4342
" />
</g>
<g style="fill:#000000; fill-opacity:0.0; 
stroke:#000000; stroke-width:39.3701; stroke-opacity:1; 
stroke-linecap:round; stroke-linejoin:round;">
</g>
<g style="fill:#000000; fill-opacity:0.0; 
stroke:#000000; stroke-width:59.0551; stroke-opacity:1; 
stroke-linecap:round; stroke-linejoin:round;">
<path d="M23622 77955
L23622 78742
" />
</g>
<g style="fill:#000000; fill-opacity:0.0; 
stroke:#000000; stroke-width:39.3701; stroke-opacity:1; 
stroke-linecap:round; stroke-linejoin:round;">
</g>
<g style="fill:#000000; fill-opacity:0.0; 
stroke:#000000; stroke-width:59.0551; stroke-opacity:1; 
stroke-linecap:round; stroke-linejoin:round;">
<path d="M43307 77955
L43307 78742
" />
</g>
<g style="fill:#000000; fill-opacity:0.0; 
stroke:#000000; stroke-width:39.3701; stroke-opacity:1; 
stroke-linecap:round; stroke-linejoin:round;">
</g>
<g style="fill:#000000; fill-opacity:0.0; 
stroke:#000000; stroke-width:59.0551; stroke-opacity:1; 
stroke-linecap:round; stroke-linejoin:round;">
<path d="M62992 77955
L62992 78742
" />
</g>
<g style="fill:#000000; fill-opacity:0.0; 
stroke:#000000; stroke-width:39.3701; stroke-opacity:1; 
stroke-linecap:round; stroke-linejoin:round;">
</g>
<g style="fill:#000000; fill-opacity:0.0; 
stroke:#000000; stroke-width:59.0551; stroke-opacity:1; 
stroke-linecap:round; stroke-linejoin:round;">
<path d="M82677 77955
L82677 78742
" />
</g>
<g style="fill:#000000; fill-opacity:0.0; 
stroke:#000000; stroke-width:39.3701; stroke-opacity:1; 
stroke-linecap:round; stroke-linejoin:round;">
</g>
<g style="fill:#000000; fill-opacity:0.0; 
stroke:#000000; stroke-width:59.0551; stroke-opacity:1; 
stroke-linecap:round; stroke-linejoin:round;">
<path d="M102362 77955
L102362 78742
" />
</g>
<g style="fill:#000000; fill-opacity:0.0; 
stroke:#000000; stroke-width:39.3701; stroke-opacity:1; 
stroke-linecap:round; stroke-linejoin:round;">
</g>
<g style="fill:#000000; fill-opacity:0.0; 
stroke:#000000; stroke-width:59.0551; stroke-opacity:1; 
stroke-linecap:round; stroke-linejoin:round;">
<path d="M14169 78580
L13877 78580
" />
<path d="M14023 78580
L14023 78069
L13974 78142
L13925 78190
L13877 78215
" />
</g>
<g style="fill:#000000; fill-opacity:0.0; 
stroke:#000000; stroke-width:39.3701; stroke-opacity:1; 
stroke-linecap:round; stroke-linejoin:round;">
</g>
<g style="fill:#000000; fill-opacity:0.0; 
stroke:#000000; stroke-width:59.0551; stroke-opacity:1; 
stroke-linecap:round; stroke-linejoin:round;">
<path d="M33562 78117
L33586 78093
L33635 78069
L33757 78069
L33805 78093
L33830 78117
L33854 78166
L33854 78215
L33830 78288
L33537 78580
L33854 78580
" />
</g>
<g style="fill:#000000; fill-opacity:0.0; 
stroke:#000000; stroke-width:39.3701; stroke-opacity:1; 
stroke-linecap:round; stroke-linejoin:round;">
</g>
<g style="fill:#000000; fill-opacity:0.0; 
stroke:#000000; stroke-width:59.0551; stroke-opacity:1; 
stroke-linecap:round; stroke-linejoin:round;">
<path d="M53222 78069
L53539 78069
L53368 78263
L53442 78263
L53490 78288
L53515 78312
L53539 78361
L53539 78483
L53515 78532
L53490 78556
L53442 78580
L53295 78580
L53247 78556
L53222 78532
" />
</g>
<g style="fill:#000000; fill-opacity:0.0; 
stroke:#000000; stroke-width:39.3701; stroke-opacity:1; 
stroke-linecap:round; stroke-linejoin:round;">
</g>
<g style="fill:#000000; fill-opacity:0.0; 
stroke:#000000; stroke-width:59.0551; stroke-opacity:1; 
stroke-linecap:round; stroke-linejoin:round;">
<path d="M73175 78239
L73175 78580
" />
<path d="M73053 78044
L72932 78410
L73248 78410
" />
</g>
<g style="fill:#000000; fill-opacity:0.0; 
stroke:#000000; stroke-width:39.3701; stroke-opacity:1; 
stroke-linecap:round; stroke-linejoin:round;">
</g>
<g style="fill:#000000; fill-opacity:0.0; 
stroke:#000000; stroke-width:59.0551; stroke-opacity:1; 
stroke-linecap:round; stroke-linejoin:round;">
<path d="M92885 78069
L92641 78069
L92617 78312
L92641 78288
L92690 78263
L92812 78263
L92860 78288
L92885 78312
L92909 78361
L92909 78483
L92885 78532
L92860 78556
L92812 78580
L92690 78580
L92641 78556
L92617 78532
" />
</g>
<g style="fill:#000000; fill-opacity:0.0; 
stroke:#000000; stroke-width:39.3701; stroke-opacity:1; 
stroke-linecap:round; stroke-linejoin:round;">
</g>
<g style="fill:#000000; fill-opacity:0.0; 
stroke:#000000; stroke-width:59.0551; stroke-opacity:1; 
stroke-linecap:round; stroke-linejoin:round;">
<path d="M112545 78069
L112448 78069
L112399 78093
L112375 78117
L112326 78190
L112302 78288
L112302 78483
L112326 78532
L112350 78556
L112399 78580
L112497 78580
L112545 78556
L112570 78532
L112594 78483
L112594 78361
L112570 78312
L112545 78288
L112497 78263
L112399 78263
L112350 78288
L112326 78312
L112302 78361
" />
</g>
<g style="fill:#000000; fill-opacity:0.0; 
stroke:#000000; stroke-width:39.3701; stroke-opacity:1; 
stroke-linecap:round; stroke-linejoin:round;">
</g>
<g style="fill:#000000; fill-opacity:0.0; 
stroke:#000000; stroke-width:59.0551; stroke-opacity:1; 
stroke-linecap:round; stroke-linejoin:round;">
<path d="M3937 23622
L4724 23622
" />
</g>
<g style="fill:#000000; fill-opacity:0.0; 
stroke:#000000; stroke-width:39.3701; stroke-opacity:1; 
stroke-linecap:round; stroke-linejoin:round;">
</g>
<g style="fill:#000000; fill-opacity:0.0; 
stroke:#000000; stroke-width:59.0551; stroke-opacity:1; 
stroke-linecap:round; stroke-linejoin:round;">
<path d="M3937 43307
L4724 43307
" />
</g>
<g style="fill:#000000; fill-opacity:0.0; 
stroke:#000000; stroke-width:39.3701; stroke-opacity:1; 
stroke-linecap:round; stroke-linejoin:round;">
</g>
<g style="fill:#000000; fill-opacity:0.0; 
stroke:#000000; stroke-width:59.0551; stroke-opacity:1; 
stroke-linecap:round; stroke-linejoin:round;">
<path d="M3937 62992
L4724 62992
" />
</g>
<g style="fill:#000000; fill-opacity:0.0; 
stroke:#000000; stroke-width:39.3701; stroke-opacity:1; 
stroke-linecap:round; stroke-linejoin:round;">
</g>
<g style="fill:#000000; fill-opacity:0.0; 
stroke:#000000; stroke-width:59.0551; stroke-opacity:1; 
stroke-linecap:round; stroke-linejoin:round;">
<path d="M4208 13864
L4452 13864
" />
<path d="M4160 14011
L4330 13499
L4501 14011
" />
</g>
<g style="fill:#000000; fill-opacity:0.0; 
stroke:#000000; stroke-width:39.3701; stroke-opacity:1; 
stroke-linecap:round; stroke-linejoin:round;">
</g>
<g style="fill:#000000; fill-opacity:0.0; 
stroke:#000000; stroke-width:59.0551; stroke-opacity:1; 
stroke-linecap:round; stroke-linejoin:round;">
<path d="M4367 33428
L4440 33452
L4464 33476
L4489 33525
L4489 33598
L4464 33647
L4440 33671
L4391 33696
L4196 33696
L4196 33184
L4367 33184
L4416 33208
L4440 33233
L4464 33281
L4464 33330
L4440 33379
L4416 33403
L4367 33428
L4196 33428
" />
</g>
<g style="fill:#000000; fill-opacity:0.0; 
stroke:#000000; stroke-width:39.3701; stroke-opacity:1; 
stroke-linecap:round; stroke-linejoin:round;">
</g>
<g style="fill:#000000; fill-opacity:0.0; 
stroke:#000000; stroke-width:59.0551; stroke-opacity:1; 
stroke-linecap:round; stroke-linejoin:round;">
<path d="M4489 53332
L4464 53356
L4391 53381
L4342 53381
L4269 53356
L4221 53308
L4196 53259
L4172 53161
L4172 53088
L4196 52991
L4221 52942
L4269 52893
L4342 52869
L4391 52869
L4464 52893
L4489 52918
" />
</g>
<g style="fill:#000000; fill-opacity:0.0; 
stroke:#000000; stroke-width:39.3701; stroke-opacity:1; 
stroke-linecap:round; stroke-linejoin:round;">
</g>
<g style="fill:#000000; fill-opacity:0.0; 
stroke:#000000; stroke-width:59.0551; stroke-opacity:1; 
stroke-linecap:round; stroke-linejoin:round;">
<path d="M4196 73066
L4196 72554
L4318 72554
L4391 72578
L4440 72627
L4464 72676
L4489 72773
L4489 72846
L4464 72944
L4440 72993
L4391 73041
L4318 73066
L4196 73066
" />
</g>
<g style="fill:#000000; fill-opacity:0.0; 
stroke:#000000; stroke-width:39.3701; stroke-opacity:1; 
stroke-linecap:round; stroke-linejoin:round;">
</g>
<g style="fill:#000000; fill-opacity:0.0; 
stroke:#000000; stroke-width:59.0551; stroke-opacity:1; 
stroke-linecap:round; stroke-linejoin:round;">
<path d="M112992 23622
L112205 23622
" />
</g>
<g style="fill:#000000; fill-opacity:0.0; 
stroke:#000000; stroke-width:39.3701; stroke-opacity:1; 
stroke-linecap:round; stroke-linejoin:round;">
</g>
<g style="fill:#000000; fill-opacity:0.0; 
stroke:#000000; stroke-width:59.0551; stroke-opacity:1; 
stroke-linecap:round; stroke-linejoin:round;">
<path d="M112992 43307
L112205 43307
" />
</g>
<g style="fill:#000000; fill-opacity:0.0; 
stroke:#000000; stroke-width:39.3701; stroke-opacity:1; 
stroke-linecap:round; stroke-linejoin:round;">
</g>
<g style="fill:#000000; fill-opacity:0.0; 
stroke:#000000; stroke-width:59.0551; stroke-opacity:1; 
stroke-linecap:round; stroke-linejoin:round;">
<path d="M112992 62992
L112205 62992
" />
</g>
<g style="fill:#000000; fill-opacity:0.0; 
stroke:#000000; stroke-width:39.3701; stroke-opacity:1; 
stroke-linecap:round; stroke-linejoin:round;">
</g>
<g style="fill:#000000; fill-opacity:0.0; 
stroke:#000000; stroke-width:59.0551; stroke-opacity:1; 
stroke-linecap:round; stroke-linejoin:round;">
<path d="M112477 13864
L112721 13864
" />
<path d="M112428 14011
L112599 13499
L112769 14011
" />
</g>
<g style="fill:#000000; fill-opacity:0.0; 
stroke:#000000; stroke-width:39.3701; stroke-opacity:1; 
stroke-linecap:round; stroke-linejoin:round;">
</g>
<g style="fill:#000000; fill-opacity:0.0; 
stroke:#000000; stroke-width:59.0551; stroke-opacity:1; 
stroke-linecap:round; stroke-linejoin:round;">
<path d="M112635 33428
L112708 33452
L112733 33476
L112757 33525
L112757 33598
L112733 33647
L112708 33671
L112660 33696
L112465 33696
L112465 33184
L112635 33184
L112684 33208
L112708 33233
L112733 33281
L112733 33330
L112708 33379
L112684 33403
L112635 33428
L112465 33428
" />
</g>
<g style="fill:#000000; fill-opacity:0.0; 
stroke:#000000; stroke-width:39.3701; stroke-opacity:1; 
stroke-linecap:round; stroke-linejoin:round;">
</g>
<g style="fill:#000000; fill-opacity:0.0; 
stroke:#000000; stroke-width:59.0551; stroke-opacity:1; 
stroke-linecap:round; stroke-linejoin:round;">
<path d="M112757 53332
L112733 53356
L112660 53381
L112611 53381
L112538 53356
L112489 53308
L112465 53259
L112440 53161
L112440 53088
L112465 52991
L112489 52942
L112538 52893
L112611 52869
L112660 52869
L112733 52893
L112757 52918
" />
</g>
<g style="fill:#000000; fill-opacity:0.0; 
stroke:#000000; stroke-width:39.3701; stroke-opacity:1; 
stroke-linecap:round; stroke-linejoin:round;">
</g>
<g style="fill:#000000; fill-opacity:0.0; 
stroke:#000000; stroke-width:59.0551; stroke-opacity:1; 
stroke-linecap:round; stroke-linejoin:round;">
<path d="M112465 73066
L112465 72554
L112587 72554
L112660 72578
L112708 72627
L112733 72676
L112757 72773
L112757 72846
L112733 72944
L112708 72993
L112660 73041
L112587 73066
L112465 73066
" />
</g>
<g style="fill:#000000; fill-opacity:0.0; 
stroke:#000000; stroke-width:39.3701; stroke-opacity:1; 
stroke-linecap:round; stroke-linejoin:round;">
</g>
<g style="fill:#000000; fill-opacity:0.0; 
stroke:#000000; stroke-width:59.0551; stroke-opacity:1; 
stroke-linecap:round; stroke-linejoin:round;">
<path d="M78881 76293
L78881 75703
L79022 75703
L79106 75731
L79162 75787
L79190 75843
L79219 75956
L79219 76040
L79190 76153
L79162 76209
L79106 76265
L79022 76293
L78881 76293
" />
<path d="M79725 76293
L79725 75984
L79697 75928
L79640 75899
L79528 75899
L79472 75928
" />
<path d="M79725 76265
L79669 76293
L79528 76293
L79472 76265
L79444 76209
L79444 76153
L79472 76096
L79528 76068
L79669 76068
L79725 76040
" />
<path d="M79922 75899
L80147 75899
" />
<path d="M80006 75703
L80006 76209
L80034 76265
L80090 76293
L80147 76293
" />
<path d="M80568 76265
L80512 76293
L80400 76293
L80343 76265
L80315 76209
L80315 75984
L80343 75928
L80400 75899
L80512 75899
L80568 75928
L80597 75984
L80597 76040
L80315 76096
" />
<path d="M80850 76237
L80878 76265
L80850 76293
L80822 76265
L80850 76237
L80850 76293
" />
<path d="M80850 75928
L80878 75956
L80850 75984
L80822 75956
L80850 75928
L80850 75984
" />
<path d="M81553 75759
L81581 75731
L81637 75703
L81778 75703
L81834 75731
L81862 75759
L81890 75815
L81890 75871
L81862 75956
L81525 76293
L81890 76293
" />
<path d="M82256 75703
L82312 75703
L82368 75731
L82396 75759
L82424 75815
L82453 75928
L82453 76068
L82424 76181
L82396 76237
L82368 76265
L82312 76293
L82256 76293
L82199 76265
L82171 76237
L82143 76181
L82115 76068
L82115 75928
L82143 75815
L82171 75759
L82199 75731
L82256 75703
" />
<path d="M83015 76293
L82678 76293
" />
<path d="M82846 76293
L82846 75703
L82790 75787
L82734 75843
L82678 75871
" />
<path d="M83521 75703
L83409 75703
L83352 75731
L83324 75759
L83268 75843
L83240 75956
L83240 76181
L83268 76237
L83296 76265
L83352 76293
L83465 76293
L83521 76265
L83549 76237
L83577 76181
L83577 76040
L83549 75984
L83521 75956
L83465 75928
L83352 75928
L83296 75956
L83268 75984
L83240 76040
" />
<path d="M83831 76068
L84280 76068
" />
<path d="M84871 76293
L84534 76293
" />
<path d="M84702 76293
L84702 75703
L84646 75787
L84590 75843
L84534 75871
" />
<path d="M85096 75759
L85124 75731
L85180 75703
L85321 75703
L85377 75731
L85405 75759
L85433 75815
L85433 75871
L85405 75956
L85068 76293
L85433 76293
" />
<path d="M85687 76068
L86136 76068
" />
<path d="M86727 76293
L86390 76293
" />
<path d="M86558 76293
L86558 75703
L86502 75787
L86446 75843
L86390 75871
" />
<path d="M87064 75956
L87008 75928
L86980 75899
L86952 75843
L86952 75815
L86980 75759
L87008 75731
L87064 75703
L87177 75703
L87233 75731
L87261 75759
L87289 75815
L87289 75843
L87261 75899
L87233 75928
L87177 75956
L87064 75956
L87008 75984
L86980 76012
L86952 76068
L86952 76181
L86980 76237
L87008 76265
L87064 76293
L87177 76293
L87233 76265
L87261 76237
L87289 76181
L87289 76068
L87261 76012
L87233 75984
L87177 75956
" />
</g>
<g style="fill:#000000; fill-opacity:0.0; 
stroke:#000000; stroke-width:39.3701; stroke-opacity:1; 
stroke-linecap:round; stroke-linejoin:round;">
</g>
<g style="fill:#000000; fill-opacity:0.0; 
stroke:#000000; stroke-width:59.0551; stroke-opacity:1; 
stroke-linecap:round; stroke-linejoin:round;">
<path d="M69685 76577
L112205 76577
" />
</g>
<g style="fill:#000000; fill-opacity:0.0; 
stroke:#000000; stroke-width:39.3701; stroke-opacity:1; 
stroke-linecap:round; stroke-linejoin:round;">
</g>
<g style="fill:#000000; fill-opacity:0.0; 
stroke:#000000; stroke-width:59.0551; stroke-opacity:1; 
stroke-linecap:round; stroke-linejoin:round;">
<path d="M70220 77395
L70220 76805
" />
<path d="M70557 77395
L70304 77058
" />
<path d="M70557 76805
L70220 77142
" />
<path d="M70810 77395
L70810 77002
" />
<path d="M70810 76805
L70782 76833
L70810 76861
L70838 76833
L70810 76805
L70810 76861
" />
<path d="M71429 77339
L71401 77367
L71316 77395
L71260 77395
L71176 77367
L71120 77311
L71091 77255
L71063 77142
L71063 77058
L71091 76946
L71120 76889
L71176 76833
L71260 76805
L71316 76805
L71401 76833
L71429 76861
" />
<path d="M71935 77395
L71935 77086
L71907 77030
L71851 77002
L71738 77002
L71682 77030
" />
<path d="M71935 77367
L71879 77395
L71738 77395
L71682 77367
L71654 77311
L71654 77255
L71682 77199
L71738 77171
L71879 77171
L71935 77142
" />
<path d="M72469 77395
L72469 76805
" />
<path d="M72469 77367
L72413 77395
L72301 77395
L72244 77367
L72216 77339
L72188 77283
L72188 77114
L72216 77058
L72244 77030
L72301 77002
L72413 77002
L72469 77030
" />
<path d="M73201 77086
L73397 77086
" />
<path d="M73482 77395
L73201 77395
L73201 76805
L73482 76805
" />
<path d="M73735 77339
L73763 77367
L73735 77395
L73707 77367
L73735 77339
L73735 77395
" />
<path d="M74016 77395
L74016 76805
L74157 76805
L74241 76833
L74297 76889
L74325 76946
L74354 77058
L74354 77142
L74325 77255
L74297 77311
L74241 77367
L74157 77395
L74016 77395
" />
<path d="M74607 77339
L74635 77367
L74607 77395
L74579 77367
L74607 77339
L74607 77395
" />
<path d="M74860 77227
L75141 77227
" />
<path d="M74804 77395
L75000 76805
L75197 77395
" />
<path d="M75394 77339
L75422 77367
L75394 77395
L75366 77367
L75394 77339
L75394 77395
" />
<path d="M76575 77395
L76575 76805
" />
<path d="M76631 77171
L76800 77395
" />
<path d="M76800 77002
L76575 77227
" />
<path d="M77053 77395
L77053 77002
" />
<path d="M77053 76805
L77025 76833
L77053 76861
L77081 76833
L77053 76805
L77053 76861
" />
<path d="M77588 77367
L77531 77395
L77419 77395
L77363 77367
L77334 77339
L77306 77283
L77306 77114
L77334 77058
L77363 77030
L77419 77002
L77531 77002
L77588 77030
" />
<path d="M78094 77395
L78094 77086
L78066 77030
L78009 77002
L77897 77002
L77841 77030
" />
<path d="M78094 77367
L78037 77395
L77897 77395
L77841 77367
L77813 77311
L77813 77255
L77841 77199
L77897 77171
L78037 77171
L78094 77142
" />
<path d="M78628 77395
L78628 76805
" />
<path d="M78628 77367
L78572 77395
L78459 77395
L78403 77367
L78375 77339
L78347 77283
L78347 77114
L78375 77058
L78403 77030
L78459 77002
L78572 77002
L78628 77030
" />
<path d="M79612 77002
L79612 77395
" />
<path d="M79472 76777
L79331 77199
L79697 77199
" />
<path d="M79922 77339
L79950 77367
L79922 77395
L79894 77367
L79922 77339
L79922 77395
" />
<path d="M80315 76805
L80372 76805
L80428 76833
L80456 76861
L80484 76917
L80512 77030
L80512 77171
L80484 77283
L80456 77339
L80428 77367
L80372 77395
L80315 77395
L80259 77367
L80231 77339
L80203 77283
L80175 77171
L80175 77030
L80203 76917
L80231 76861
L80259 76833
L80315 76805
" />
<path d="M80765 77339
L80793 77367
L80765 77395
L80737 77367
L80765 77339
L80765 77395
" />
<path d="M81356 77395
L81018 77395
" />
<path d="M81187 77395
L81187 76805
L81131 76889
L81075 76946
L81018 76974
" />
<path d="M81609 77171
L82059 77171
" />
<path d="M82312 77367
L82368 77395
L82481 77395
L82537 77367
L82565 77311
L82565 77283
L82537 77227
L82481 77199
L82396 77199
L82340 77171
L82312 77114
L82312 77086
L82340 77030
L82396 77002
L82481 77002
L82537 77030
" />
<path d="M82734 77002
L82959 77002
" />
<path d="M82818 76805
L82818 77311
L82846 77367
L82903 77395
L82959 77395
" />
<path d="M83409 77395
L83409 77086
L83381 77030
L83324 77002
L83212 77002
L83156 77030
" />
<path d="M83409 77367
L83352 77395
L83212 77395
L83156 77367
L83127 77311
L83127 77255
L83156 77199
L83212 77171
L83352 77171
L83409 77142
" />
<path d="M83690 77395
L83690 76805
" />
<path d="M83690 77030
L83746 77002
L83859 77002
L83915 77030
L83943 77058
L83971 77114
L83971 77283
L83943 77339
L83915 77367
L83859 77395
L83746 77395
L83690 77367
" />
<path d="M84309 77395
L84252 77367
L84224 77311
L84224 76805
" />
<path d="M84759 77367
L84702 77395
L84590 77395
L84534 77367
L84505 77311
L84505 77086
L84534 77030
L84590 77002
L84702 77002
L84759 77030
L84787 77086
L84787 77142
L84505 77199
" />
</g>
<g style="fill:#000000; fill-opacity:0.0; 
stroke:#000000; stroke-width:39.3701; stroke-opacity:1; 
stroke-linecap:round; stroke-linejoin:round;">
</g>
<g style="fill:#000000; fill-opacity:0.0; 
stroke:#000000; stroke-width:59.0551; stroke-opacity:1; 
stroke-linecap:round; stroke-linejoin:round;">
<path d="M69685 75396
L112205 75396
" />
</g>
<g style="fill:#000000; fill-opacity:0.0; 
stroke:#000000; stroke-width:39.3701; stroke-opacity:1; 
stroke-linecap:round; stroke-linejoin:round;">
</g>
<g style="fill:#000000; fill-opacity:0.0; 
stroke:#000000; stroke-width:118.11; stroke-opacity:1; 
stroke-linecap:round; stroke-linejoin:round;">
<path d="M104022 76293
L103825 76012
" />
<path d="M103684 76293
L103684 75703
L103909 75703
L103965 75731
L103994 75759
L104022 75815
L104022 75899
L103994 75956
L103965 75984
L103909 76012
L103684 76012
" />
<path d="M104500 76265
L104444 76293
L104331 76293
L104275 76265
L104247 76209
L104247 75984
L104275 75928
L104331 75899
L104444 75899
L104500 75928
L104528 75984
L104528 76040
L104247 76096
" />
<path d="M104725 75899
L104865 76293
L105006 75899
" />
<path d="M105231 76237
L105259 76265
L105231 76293
L105203 76265
L105231 76237
L105231 76293
" />
<path d="M105231 75928
L105259 75956
L105231 75984
L105203 75956
L105231 75928
L105231 75984
" />
<path d="M106075 75703
L106131 75703
L106187 75731
L106215 75759
L106243 75815
L106271 75928
L106271 76068
L106243 76181
L106215 76237
L106187 76265
L106131 76293
L106075 76293
L106018 76265
L105990 76237
L105962 76181
L105934 76068
L105934 75928
L105962 75815
L105990 75759
L106018 75731
L106075 75703
" />
<path d="M106525 76237
L106553 76265
L106525 76293
L106496 76265
L106525 76237
L106525 76293
" />
<path d="M107115 76293
L106778 76293
" />
<path d="M106946 76293
L106946 75703
L106890 75787
L106834 75843
L106778 75871
" />
</g>
<g style="fill:#000000; fill-opacity:0.0; 
stroke:#000000; stroke-width:39.3701; stroke-opacity:1; 
stroke-linecap:round; stroke-linejoin:round;">
</g>
<g style="fill:#000000; fill-opacity:0.0; 
stroke:#000000; stroke-width:59.0551; stroke-opacity:1; 
stroke-linecap:round; stroke-linejoin:round;">
<path d="M70192 76265
L70276 76293
L70417 76293
L70473 76265
L70501 76237
L70529 76181
L70529 76124
L70501 76068
L70473 76040
L70417 76012
L70304 75984
L70248 75956
L70220 75928
L70192 75871
L70192 75815
L70220 75759
L70248 75731
L70304 75703
L70445 75703
L70529 75731
" />
<path d="M70782 76293
L70782 75899
" />
<path d="M70782 75703
L70754 75731
L70782 75759
L70810 75731
L70782 75703
L70782 75759
" />
<path d="M71007 75899
L71316 75899
L71007 76293
L71316 76293
" />
<path d="M71766 76265
L71710 76293
L71598 76293
L71541 76265
L71513 76209
L71513 75984
L71541 75928
L71598 75899
L71710 75899
L71766 75928
L71795 75984
L71795 76040
L71513 76096
" />
<path d="M72048 76237
L72076 76265
L72048 76293
L72019 76265
L72048 76237
L72048 76293
" />
<path d="M72048 75928
L72076 75956
L72048 75984
L72019 75956
L72048 75928
L72048 75984
" />
<path d="M72751 76124
L73032 76124
" />
<path d="M72694 76293
L72891 75703
L73088 76293
" />
<path d="M73538 75899
L73538 76293
" />
<path d="M73397 75674
L73257 76096
L73622 76096
" />
</g>
<g style="fill:#000000; fill-opacity:0.0; 
stroke:#000000; stroke-width:39.3701; stroke-opacity:1; 
stroke-linecap:round; stroke-linejoin:round;">
</g>
<g style="fill:#000000; fill-opacity:0.0; 
stroke:#000000; stroke-width:59.0551; stroke-opacity:1; 
stroke-linecap:round; stroke-linejoin:round;">
<path d="M103684 77395
L103684 76805
" />
<path d="M104219 77395
L104219 76805
" />
<path d="M104219 77367
L104162 77395
L104050 77395
L103994 77367
L103965 77339
L103937 77283
L103937 77114
L103965 77058
L103994 77030
L104050 77002
L104162 77002
L104219 77030
" />
<path d="M104500 77339
L104528 77367
L104500 77395
L104472 77367
L104500 77339
L104500 77395
" />
<path d="M104500 77030
L104528 77058
L104500 77086
L104472 77058
L104500 77030
L104500 77086
" />
<path d="M105540 77395
L105203 77395
" />
<path d="M105372 77395
L105372 76805
L105315 76889
L105259 76946
L105203 76974
" />
<path d="M106215 76777
L105709 77536
" />
<path d="M106721 77395
L106384 77395
" />
<path d="M106553 77395
L106553 76805
L106496 76889
L106440 76946
L106384 76974
" />
</g>
<g style="fill:#000000; fill-opacity:0.0; 
stroke:#000000; stroke-width:39.3701; stroke-opacity:1; 
stroke-linecap:round; stroke-linejoin:round;">
</g>
<g style="fill:#000000; fill-opacity:0.0; 
stroke:#000000; stroke-width:59.0551; stroke-opacity:1; 
stroke-linecap:round; stroke-linejoin:round;">
<path d="M69685 73821
L112205 73821
" />
</g>
<g style="fill:#000000; fill-opacity:0.0; 
stroke:#000000; stroke-width:39.3701; stroke-opacity:1; 
stroke-linecap:round; stroke-linejoin:round;">
</g>
<g style="fill:#000000; fill-opacity:0.0; 
stroke:#000000; stroke-width:157.48; stroke-opacity:1; 
stroke-linecap:round; stroke-linejoin:round;">
<path d="M70257 74099
L70707 74099
" />
<path d="M70384 74886
L70482 74099
" />
<path d="M70871 74886
L70937 74361
" />
<path d="M70970 74099
L70927 74136
L70960 74174
L71002 74136
L70970 74099
L70960 74174
" />
<path d="M71199 74361
L71499 74361
" />
<path d="M71345 74099
L71260 74774
L71288 74849
L71359 74886
L71434 74886
" />
<path d="M71809 74886
L71738 74849
L71710 74774
L71795 74099
" />
<path d="M72413 74849
L72334 74886
L72184 74886
L72113 74849
L72085 74774
L72123 74474
L72169 74399
L72249 74361
L72399 74361
L72469 74399
L72498 74474
L72488 74549
L72104 74624
" />
<path d="M72793 74811
L72826 74849
L72783 74886
L72751 74849
L72793 74811
L72783 74886
" />
<path d="M72844 74399
L72877 74436
L72835 74474
L72802 74436
L72844 74399
L72835 74474
" />
<path d="M73758 74886
L73857 74099
L74044 74099
L74152 74136
L74218 74211
L74246 74286
L74265 74436
L74250 74549
L74194 74699
L74147 74774
L74063 74849
L73946 74886
L73758 74886
" />
<path d="M74546 74886
L74611 74361
" />
<path d="M74593 74511
L74639 74436
L74682 74399
L74761 74361
L74836 74361
" />
<path d="M75146 74886
L75075 74849
L75043 74811
L75014 74736
L75043 74511
L75089 74436
L75132 74399
L75211 74361
L75324 74361
L75394 74399
L75427 74436
L75455 74511
L75427 74736
L75380 74811
L75338 74849
L75258 74886
L75146 74886
" />
<path d="M75811 74361
L75713 75149
" />
<path d="M75807 74399
L75886 74361
L76036 74361
L76106 74399
L76139 74436
L76167 74511
L76139 74736
L76092 74811
L76050 74849
L75971 74886
L75821 74886
L75750 74849
" />
<path d="M76772 74474
L76880 74511
L76913 74549
L76941 74624
L76927 74736
L76880 74811
L76838 74849
L76758 74886
L76458 74886
L76556 74099
L76819 74099
L76889 74136
L76922 74174
L76950 74249
L76941 74324
L76894 74399
L76852 74436
L76772 74474
L76510 74474
" />
<path d="M77358 74886
L77288 74849
L77255 74811
L77227 74736
L77255 74511
L77302 74436
L77344 74399
L77424 74361
L77536 74361
L77606 74399
L77639 74436
L77667 74511
L77639 74736
L77592 74811
L77550 74849
L77470 74886
L77358 74886
" />
<path d="M77911 74361
L78211 74361
" />
<path d="M78056 74099
L77972 74774
L78000 74849
L78070 74886
L78145 74886
" />
<path d="M78961 74361
L79261 74361
" />
<path d="M79008 74886
L79092 74211
L79139 74136
L79219 74099
L79294 74099
" />
<path d="M79458 74886
L79523 74361
" />
<path d="M79504 74511
L79551 74436
L79594 74399
L79673 74361
L79748 74361
" />
<path d="M80058 74886
L79987 74849
L79954 74811
L79926 74736
L79954 74511
L80001 74436
L80043 74399
L80123 74361
L80236 74361
L80306 74399
L80339 74436
L80367 74511
L80339 74736
L80292 74811
L80250 74849
L80170 74886
L80058 74886
" />
<path d="M80723 74361
L80657 74886
" />
<path d="M80714 74436
L80756 74399
L80836 74361
L80948 74361
L81018 74399
L81046 74474
L80995 74886
" />
<path d="M81323 74361
L81623 74361
" />
<path d="M81468 74099
L81384 74774
L81412 74849
L81482 74886
L81557 74886
" />
<path d="M82485 74361
L82387 75149
" />
<path d="M82481 74399
L82560 74361
L82710 74361
L82781 74399
L82813 74436
L82842 74511
L82813 74736
L82767 74811
L82724 74849
L82645 74886
L82495 74886
L82424 74849
" />
<path d="M83470 74886
L83521 74474
L83493 74399
L83423 74361
L83273 74361
L83193 74399
" />
<path d="M83474 74849
L83395 74886
L83207 74886
L83137 74849
L83109 74774
L83118 74699
L83165 74624
L83245 74586
L83432 74586
L83512 74549
" />
<path d="M83910 74361
L83845 74886
" />
<path d="M83901 74436
L83943 74399
L84023 74361
L84135 74361
L84205 74399
L84234 74474
L84182 74886
" />
<path d="M84623 74361
L84557 74886
" />
<path d="M84613 74436
L84655 74399
L84735 74361
L84848 74361
L84918 74399
L84946 74474
L84894 74886
" />
<path d="M85574 74849
L85494 74886
L85344 74886
L85274 74849
L85246 74774
L85283 74474
L85330 74399
L85410 74361
L85560 74361
L85630 74399
L85658 74474
L85649 74549
L85265 74624
" />
<path d="M86057 74886
L85986 74849
L85958 74774
L86043 74099
" />
</g>
<g style="fill:#000000; fill-opacity:0.0; 
stroke:#000000; stroke-width:39.3701; stroke-opacity:1; 
stroke-linecap:round; stroke-linejoin:round;">
</g>
<g style="fill:#000000; fill-opacity:0.0; 
stroke:#000000; stroke-width:59.0551; stroke-opacity:1; 
stroke-linecap:round; stroke-linejoin:round;">
<path d="M70417 73070
L70220 73070
" />
<path d="M70220 73380
L70220 72789
L70501 72789
" />
<path d="M70726 73380
L70726 72986
" />
<path d="M70726 72789
L70698 72817
L70726 72845
L70754 72817
L70726 72789
L70726 72845
" />
<path d="M71091 73380
L71035 73352
L71007 73295
L71007 72789
" />
<path d="M71541 73352
L71485 73380
L71373 73380
L71316 73352
L71288 73295
L71288 73070
L71316 73014
L71373 72986
L71485 72986
L71541 73014
L71570 73070
L71570 73127
L71288 73183
" />
<path d="M71823 73323
L71851 73352
L71823 73380
L71795 73352
L71823 73323
L71823 73380
" />
<path d="M71823 73014
L71851 73042
L71823 73070
L71795 73042
L71823 73014
L71823 73070
" />
<path d="M72807 73380
L72807 72789
" />
<path d="M72807 73352
L72751 73380
L72638 73380
L72582 73352
L72554 73323
L72526 73267
L72526 73099
L72554 73042
L72582 73014
L72638 72986
L72751 72986
L72807 73014
" />
<path d="M73088 73380
L73088 72986
" />
<path d="M73088 73099
L73116 73042
L73144 73014
L73201 72986
L73257 72986
" />
<path d="M73538 73380
L73482 73352
L73454 73323
L73426 73267
L73426 73099
L73454 73042
L73482 73014
L73538 72986
L73622 72986
L73679 73014
L73707 73042
L73735 73099
L73735 73267
L73707 73323
L73679 73352
L73622 73380
L73538 73380
" />
<path d="M73988 72986
L73988 73577
" />
<path d="M73988 73014
L74044 72986
L74157 72986
L74213 73014
L74241 73042
L74269 73099
L74269 73267
L74241 73323
L74213 73352
L74157 73380
L74044 73380
L73988 73352
" />
<path d="M74522 73380
L74522 72789
" />
<path d="M74522 73014
L74579 72986
L74691 72986
L74747 73014
L74775 73042
L74804 73099
L74804 73267
L74775 73323
L74747 73352
L74691 73380
L74579 73380
L74522 73352
" />
<path d="M75141 73380
L75085 73352
L75057 73323
L75028 73267
L75028 73099
L75057 73042
L75085 73014
L75141 72986
L75225 72986
L75282 73014
L75310 73042
L75338 73099
L75338 73267
L75310 73323
L75282 73352
L75225 73380
L75141 73380
" />
<path d="M75507 72986
L75732 72986
" />
<path d="M75591 72789
L75591 73295
L75619 73352
L75675 73380
L75732 73380
" />
<path d="M75928 73155
L76378 73155
" />
<path d="M76575 72986
L76800 72986
" />
<path d="M76660 73380
L76660 72874
L76688 72817
L76744 72789
L76800 72789
" />
<path d="M76997 73380
L76997 72986
" />
<path d="M76997 73099
L77025 73042
L77053 73014
L77109 72986
L77166 72986
" />
<path d="M77447 73380
L77391 73352
L77363 73323
L77334 73267
L77334 73099
L77363 73042
L77391 73014
L77447 72986
L77531 72986
L77588 73014
L77616 73042
L77644 73099
L77644 73267
L77616 73323
L77588 73352
L77531 73380
L77447 73380
" />
<path d="M77897 72986
L77897 73380
" />
<path d="M77897 73042
L77925 73014
L77981 72986
L78066 72986
L78122 73014
L78150 73070
L78150 73380
" />
<path d="M78347 72986
L78572 72986
" />
<path d="M78431 72789
L78431 73295
L78459 73352
L78516 73380
L78572 73380
" />
<path d="M78769 73155
L79219 73155
" />
<path d="M79500 72986
L79500 73577
" />
<path d="M79500 73014
L79556 72986
L79669 72986
L79725 73014
L79753 73042
L79781 73099
L79781 73267
L79753 73323
L79725 73352
L79669 73380
L79556 73380
L79500 73352
" />
<path d="M80287 73380
L80287 73070
L80259 73014
L80203 72986
L80090 72986
L80034 73014
" />
<path d="M80287 73352
L80231 73380
L80090 73380
L80034 73352
L80006 73295
L80006 73239
L80034 73183
L80090 73155
L80231 73155
L80287 73127
" />
<path d="M80568 72986
L80568 73380
" />
<path d="M80568 73042
L80597 73014
L80653 72986
L80737 72986
L80793 73014
L80822 73070
L80822 73380
" />
<path d="M81103 72986
L81103 73380
" />
<path d="M81103 73042
L81131 73014
L81187 72986
L81271 72986
L81328 73014
L81356 73070
L81356 73380
" />
<path d="M81862 73352
L81806 73380
L81693 73380
L81637 73352
L81609 73295
L81609 73070
L81637 73014
L81693 72986
L81806 72986
L81862 73014
L81890 73070
L81890 73127
L81609 73183
" />
<path d="M82228 73380
L82171 73352
L82143 73295
L82143 72789
" />
<path d="M82453 73323
L82481 73352
L82453 73380
L82424 73352
L82453 73323
L82453 73380
" />
<path d="M82734 73380
L82734 72789
" />
<path d="M82790 73155
L82959 73380
" />
<path d="M82959 72986
L82734 73211
" />
<path d="M83212 73380
L83212 72986
" />
<path d="M83212 72789
L83184 72817
L83212 72845
L83240 72817
L83212 72789
L83212 72845
" />
<path d="M83746 73352
L83690 73380
L83577 73380
L83521 73352
L83493 73323
L83465 73267
L83465 73099
L83493 73042
L83521 73014
L83577 72986
L83690 72986
L83746 73014
" />
<path d="M84252 73380
L84252 73070
L84224 73014
L84168 72986
L84055 72986
L83999 73014
" />
<path d="M84252 73352
L84196 73380
L84055 73380
L83999 73352
L83971 73295
L83971 73239
L83999 73183
L84055 73155
L84196 73155
L84252 73127
" />
<path d="M84787 73380
L84787 72789
" />
<path d="M84787 73352
L84730 73380
L84618 73380
L84562 73352
L84534 73323
L84505 73267
L84505 73099
L84534 73042
L84562 73014
L84618 72986
L84730 72986
L84787 73014
" />
<path d="M84927 73436
L85377 73436
" />
<path d="M85518 72986
L85518 73577
" />
<path d="M85518 73014
L85574 72986
L85687 72986
L85743 73014
L85771 73042
L85799 73099
L85799 73267
L85771 73323
L85743 73352
L85687 73380
L85574 73380
L85518 73352
" />
<path d="M86305 73352
L86249 73380
L86136 73380
L86080 73352
L86052 73323
L86024 73267
L86024 73099
L86052 73042
L86080 73014
L86136 72986
L86249 72986
L86305 73014
" />
<path d="M86558 73380
L86558 72789
" />
<path d="M86558 73014
L86615 72986
L86727 72986
L86783 73014
L86811 73042
L86840 73099
L86840 73267
L86811 73323
L86783 73352
L86727 73380
L86615 73380
L86558 73352
" />
</g>
<g style="fill:#000000; fill-opacity:0.0; 
stroke:#000000; stroke-width:39.3701; stroke-opacity:1; 
stroke-linecap:round; stroke-linejoin:round;">
</g>
<g style="fill:#000000; fill-opacity:0.0; 
stroke:#000000; stroke-width:59.0551; stroke-opacity:1; 
stroke-linecap:round; stroke-linejoin:round;">
<path d="M69685 71459
L112205 71459
" />
</g>
<g style="fill:#000000; fill-opacity:0.0; 
stroke:#000000; stroke-width:39.3701; stroke-opacity:1; 
stroke-linecap:round; stroke-linejoin:round;">
</g>
<g style="fill:#000000; fill-opacity:0.0; 
stroke:#000000; stroke-width:59.0551; stroke-opacity:1; 
stroke-linecap:round; stroke-linejoin:round;">
<path d="M70192 72289
L70276 72317
L70417 72317
L70473 72289
L70501 72260
L70529 72204
L70529 72148
L70501 72092
L70473 72064
L70417 72036
L70304 72007
L70248 71979
L70220 71951
L70192 71895
L70192 71839
L70220 71782
L70248 71754
L70304 71726
L70445 71726
L70529 71754
" />
<path d="M70782 72317
L70782 71726
" />
<path d="M71035 72317
L71035 72007
L71007 71951
L70951 71923
L70867 71923
L70810 71951
L70782 71979
" />
<path d="M71541 72289
L71485 72317
L71373 72317
L71316 72289
L71288 72232
L71288 72007
L71316 71951
L71373 71923
L71485 71923
L71541 71951
L71570 72007
L71570 72064
L71288 72120
" />
<path d="M72048 72289
L71991 72317
L71879 72317
L71823 72289
L71795 72232
L71795 72007
L71823 71951
L71879 71923
L71991 71923
L72048 71951
L72076 72007
L72076 72064
L71795 72120
" />
<path d="M72244 71923
L72469 71923
" />
<path d="M72329 71726
L72329 72232
L72357 72289
L72413 72317
L72469 72317
" />
<path d="M72666 72260
L72694 72289
L72666 72317
L72638 72289
L72666 72260
L72666 72317
" />
<path d="M72666 71951
L72694 71979
L72666 72007
L72638 71979
L72666 71951
L72666 72007
" />
</g>
<g style="fill:#000000; fill-opacity:0.0; 
stroke:#000000; stroke-width:39.3701; stroke-opacity:1; 
stroke-linecap:round; stroke-linejoin:round;">
</g>
<g style="fill:#000000; fill-opacity:0.0; 
stroke:#000000; stroke-width:118.11; stroke-opacity:1; 
stroke-linecap:round; stroke-linejoin:round;">
<path d="M70557 71136
L70360 70854
" />
<path d="M70220 71136
L70220 70545
L70445 70545
L70501 70573
L70529 70601
L70557 70658
L70557 70742
L70529 70798
L70501 70826
L70445 70854
L70220 70854
" />
<path d="M70754 70742
L70895 71136
" />
<path d="M71035 70742
L70895 71136
L70838 71276
L70810 71304
L70754 71332
" />
<path d="M71513 71136
L71513 70826
L71485 70770
L71429 70742
L71316 70742
L71260 70770
" />
<path d="M71513 71108
L71457 71136
L71316 71136
L71260 71108
L71232 71051
L71232 70995
L71260 70939
L71316 70911
L71457 70911
L71513 70883
" />
<path d="M71795 70742
L71795 71136
" />
<path d="M71795 70798
L71823 70770
L71879 70742
L71963 70742
L72019 70770
L72048 70826
L72048 71136
" />
<path d="M72976 70826
L72779 70826
" />
<path d="M72779 71136
L72779 70545
L73060 70545
" />
<path d="M73369 71136
L73313 71108
L73285 71079
L73257 71023
L73257 70854
L73285 70798
L73313 70770
L73369 70742
L73454 70742
L73510 70770
L73538 70798
L73566 70854
L73566 71023
L73538 71079
L73510 71108
L73454 71136
L73369 71136
" />
<path d="M73819 71136
L73819 70545
" />
<path d="M73819 70770
L73876 70742
L73988 70742
L74044 70770
L74072 70798
L74100 70854
L74100 71023
L74072 71079
L74044 71108
L73988 71136
L73876 71136
L73819 71108
" />
<path d="M74579 71108
L74522 71136
L74410 71136
L74354 71108
L74325 71051
L74325 70826
L74354 70770
L74410 70742
L74522 70742
L74579 70770
L74607 70826
L74607 70883
L74325 70939
" />
<path d="M74944 71136
L74888 71108
L74860 71051
L74860 70545
" />
</g>
<g style="fill:#000000; fill-opacity:0.0; 
stroke:#000000; stroke-width:39.3701; stroke-opacity:1; 
stroke-linecap:round; stroke-linejoin:round;">
</g>
<g style="fill:#000000; fill-opacity:0.0; 
stroke:#000000; stroke-width:59.0551; stroke-opacity:1; 
stroke-linecap:round; stroke-linejoin:round;">
<path d="M77559 75396
L77559 76577
" />
</g>
<g style="fill:#000000; fill-opacity:0.0; 
stroke:#000000; stroke-width:39.3701; stroke-opacity:1; 
stroke-linecap:round; stroke-linejoin:round;">
</g>
<g style="fill:#000000; fill-opacity:0.0; 
stroke:#000000; stroke-width:59.0551; stroke-opacity:1; 
stroke-linecap:round; stroke-linejoin:round;">
<path d="M102756 75396
L102756 77955
" />
<path d="M42519 34251
L42519 8267
" />
<path d="M9448 34251
L9448 8267
" />
<path d="M42519 34251
L9448 34251
" />
<path d="M9448 8267
L42519 8267
" />
</g>
<g style="fill:#000000; fill-opacity:1.0; 
stroke:#000000; stroke-width:0; stroke-opacity:1; 
stroke-linecap:round; stroke-linejoin:round;">
<circle cx="40944.9" cy="32677.2" r="878.74" /> 
</g>
<g style="fill:#000000; fill-opacity:1.0; 
stroke:#000000; stroke-width:39.3701; stroke-opacity:1; 
stroke-linecap:round; stroke-linejoin:round;">
</g>
<g style="fill:#000000; fill-opacity:1.0; 
stroke:#000000; stroke-width:0; stroke-opacity:1; 
stroke-linecap:round; stroke-linejoin:round;">
<circle cx="11023.6" cy="32677.2" r="878.74" /> 
</g>
<g style="fill:#000000; fill-opacity:1.0; 
stroke:#000000; stroke-width:39.3701; stroke-opacity:1; 
stroke-linecap:round; stroke-linejoin:round;">
</g>
<g style="fill:#000000; fill-opacity:1.0; 
stroke:#000000; stroke-width:0; stroke-opacity:1; 
stroke-linecap:round; stroke-linejoin:round;">
<circle cx="40944.9" cy="9842.52" r="878.74" /> 
</g>
<g style="fill:#000000; fill-opacity:1.0; 
stroke:#000000; stroke-width:39.3701; stroke-opacity:1; 
stroke-linecap:round; stroke-linejoin:round;">
</g>
<g style="fill:#000000; fill-opacity:1.0; 
stroke:#000000; stroke-width:0; stroke-opacity:1; 
stroke-linecap:round; stroke-linejoin:round;">
<polyline style="fill-rule:evenodd;"
points="37421,25826
37421,25196
37775,25196
37775,25826
37421,25826
" /> 
<polyline style="fill-rule:evenodd;"
points="38051,25826
38051,25196
38405,25196
38405,25826
38051,25826
" /> 
<polyline style="fill-rule:evenodd;"
points="37736,25826
37736,25196
38090,25196
38090,25826
37736,25826
" /> 
<polyline style="fill-rule:evenodd;"
points="37421,24488
37421,23858
37775,23858
37775,24488
37421,24488
" /> 
<polyline style="fill-rule:evenodd;"
points="38051,24488
38051,23858
38405,23858
38405,24488
38051,24488
" /> 
<polyline style="fill-rule:evenodd;"
points="37736,24488
37736,23858
38090,23858
38090,24488
37736,24488
" /> 
<polyline style="fill-rule:evenodd;"
points="34901,25826
34901,25196
35255,25196
35255,25826
34901,25826
" /> 
<polyline style="fill-rule:evenodd;"
points="35216,25826
35216,25196
35570,25196
35570,25826
35216,25826
" /> 
<polyline style="fill-rule:evenodd;"
points="35846,25826
35846,25196
36200,25196
36200,25826
35846,25826
" /> 
<polyline style="fill-rule:evenodd;"
points="35531,25826
35531,25196
35885,25196
35885,25826
35531,25826
" /> 
<polyline style="fill-rule:evenodd;"
points="36791,25826
36791,25196
37145,25196
37145,25826
36791,25826
" /> 
<polyline style="fill-rule:evenodd;"
points="37106,25826
37106,25196
37460,25196
37460,25826
37106,25826
" /> 
<polyline style="fill-rule:evenodd;"
points="36476,25826
36476,25196
36830,25196
36830,25826
36476,25826
" /> 
<polyline style="fill-rule:evenodd;"
points="36161,25826
36161,25196
36515,25196
36515,25826
36161,25826
" /> 
<polyline style="fill-rule:evenodd;"
points="34901,24488
34901,23858
35255,23858
35255,24488
34901,24488
" /> 
<polyline style="fill-rule:evenodd;"
points="35216,24488
35216,23858
35570,23858
35570,24488
35216,24488
" /> 
<polyline style="fill-rule:evenodd;"
points="35846,24488
35846,23858
36200,23858
36200,24488
35846,24488
" /> 
<polyline style="fill-rule:evenodd;"
points="35531,24488
35531,23858
35885,23858
35885,24488
35531,24488
" /> 
<polyline style="fill-rule:evenodd;"
points="36791,24488
36791,23858
37145,23858
37145,24488
36791,24488
" /> 
<polyline style="fill-rule:evenodd;"
points="37106,24488
37106,23858
37460,23858
37460,24488
37106,24488
" /> 
<polyline style="fill-rule:evenodd;"
points="36476,24488
36476,23858
36830,23858
36830,24488
36476,24488
" /> 
<polyline style="fill-rule:evenodd;"
points="36161,24488
36161,23858
36515,23858
36515,24488
36161,24488
" /> 
<polyline style="fill-rule:evenodd;"
points="33641,24488
33641,23858
33996,23858
33996,24488
33641,24488
" /> 
<polyline style="fill-rule:evenodd;"
points="33956,24488
33956,23858
34311,23858
34311,24488
33956,24488
" /> 
<polyline style="fill-rule:evenodd;"
points="34586,24488
34586,23858
34940,23858
34940,24488
34586,24488
" /> 
<polyline style="fill-rule:evenodd;"
points="34271,24488
34271,23858
34625,23858
34625,24488
34271,24488
" /> 
<polyline style="fill-rule:evenodd;"
points="33641,25826
33641,25196
33996,25196
33996,25826
33641,25826
" /> 
<polyline style="fill-rule:evenodd;"
points="33956,25826
33956,25196
34311,25196
34311,25826
33956,25826
" /> 
<polyline style="fill-rule:evenodd;"
points="34586,25826
34586,25196
34940,25196
34940,25826
34586,25826
" /> 
<polyline style="fill-rule:evenodd;"
points="34271,25826
34271,25196
34625,25196
34625,25826
34271,25826
" /> 
<polyline style="fill-rule:evenodd;"
points="33011,25826
33011,25196
33366,25196
33366,25826
33011,25826
" /> 
<polyline style="fill-rule:evenodd;"
points="33326,25826
33326,25196
33681,25196
33681,25826
33326,25826
" /> 
<polyline style="fill-rule:evenodd;"
points="29862,25826
29862,25196
30216,25196
30216,25826
29862,25826
" /> 
<polyline style="fill-rule:evenodd;"
points="30177,25826
30177,25196
30531,25196
30531,25826
30177,25826
" /> 
<polyline style="fill-rule:evenodd;"
points="29547,25826
29547,25196
29901,25196
29901,25826
29547,25826
" /> 
<polyline style="fill-rule:evenodd;"
points="30492,25826
30492,25196
30846,25196
30846,25826
30492,25826
" /> 
<polyline style="fill-rule:evenodd;"
points="30807,25826
30807,25196
31161,25196
31161,25826
30807,25826
" /> 
<polyline style="fill-rule:evenodd;"
points="32696,25826
32696,25196
33051,25196
33051,25826
32696,25826
" /> 
<polyline style="fill-rule:evenodd;"
points="32381,25826
32381,25196
32736,25196
32736,25826
32381,25826
" /> 
<circle cx="38818.9" cy="24842.5" r="354.331" /> 
</g>
<g style="fill:#000000; fill-opacity:1.0; 
stroke:#000000; stroke-width:39.3701; stroke-opacity:1; 
stroke-linecap:round; stroke-linejoin:round;">
</g>
<g style="fill:#000000; fill-opacity:1.0; 
stroke:#000000; stroke-width:0; stroke-opacity:1; 
stroke-linecap:round; stroke-linejoin:round;">
<polyline style="fill-rule:evenodd;"
points="33011,24488
33011,23858
33366,23858
33366,24488
33011,24488
" /> 
<polyline style="fill-rule:evenodd;"
points="33326,24488
33326,23858
33681,23858
33681,24488
33326,24488
" /> 
<polyline style="fill-rule:evenodd;"
points="29862,24488
29862,23858
30216,23858
30216,24488
29862,24488
" /> 
<polyline style="fill-rule:evenodd;"
points="30177,24488
30177,23858
30531,23858
30531,24488
30177,24488
" /> 
<polyline style="fill-rule:evenodd;"
points="29547,24488
29547,23858
29901,23858
29901,24488
29547,24488
" /> 
<polyline style="fill-rule:evenodd;"
points="29232,24488
29232,23858
29586,23858
29586,24488
29232,24488
" /> 
<polyline style="fill-rule:evenodd;"
points="30492,24488
30492,23858
30846,23858
30846,24488
30492,24488
" /> 
<polyline style="fill-rule:evenodd;"
points="30807,24488
30807,23858
31161,23858
31161,24488
30807,24488
" /> 
<polyline style="fill-rule:evenodd;"
points="32696,24488
32696,23858
33051,23858
33051,24488
32696,24488
" /> 
<polyline style="fill-rule:evenodd;"
points="32381,24488
32381,23858
32736,23858
32736,24488
32381,24488
" /> 
<polyline style="fill-rule:evenodd;"
points="29232,25826
29232,25196
29586,25196
29586,25826
29232,25826
" /> 
<circle cx="28818.9" cy="25433.1" r="354.331" /> 
</g>
<g style="fill:#000000; fill-opacity:1.0; 
stroke:#000000; stroke-width:39.3701; stroke-opacity:1; 
stroke-linecap:round; stroke-linejoin:round;">
</g>
<g style="fill:#000000; fill-opacity:1.0; 
stroke:#000000; stroke-width:0; stroke-opacity:1; 
stroke-linecap:round; stroke-linejoin:round;">
<polyline style="fill-rule:evenodd;"
points="37421,32362
37421,31732
37775,31732
37775,32362
37421,32362
" /> 
<polyline style="fill-rule:evenodd;"
points="38051,32362
38051,31732
38405,31732
38405,32362
38051,32362
" /> 
<polyline style="fill-rule:evenodd;"
points="37736,32362
37736,31732
38090,31732
38090,32362
37736,32362
" /> 
<polyline style="fill-rule:evenodd;"
points="37421,31023
37421,30393
37775,30393
37775,31023
37421,31023
" /> 
<polyline style="fill-rule:evenodd;"
points="38051,31023
38051,30393
38405,30393
38405,31023
38051,31023
" /> 
<polyline style="fill-rule:evenodd;"
points="37736,31023
37736,30393
38090,30393
38090,31023
37736,31023
" /> 
<polyline style="fill-rule:evenodd;"
points="34901,32362
34901,31732
35255,31732
35255,32362
34901,32362
" /> 
<polyline style="fill-rule:evenodd;"
points="35216,32362
35216,31732
35570,31732
35570,32362
35216,32362
" /> 
<polyline style="fill-rule:evenodd;"
points="35846,32362
35846,31732
36200,31732
36200,32362
35846,32362
" /> 
<polyline style="fill-rule:evenodd;"
points="35531,32362
35531,31732
35885,31732
35885,32362
35531,32362
" /> 
<polyline style="fill-rule:evenodd;"
points="36791,32362
36791,31732
37145,31732
37145,32362
36791,32362
" /> 
<polyline style="fill-rule:evenodd;"
points="37106,32362
37106,31732
37460,31732
37460,32362
37106,32362
" /> 
<polyline style="fill-rule:evenodd;"
points="36476,32362
36476,31732
36830,31732
36830,32362
36476,32362
" /> 
<polyline style="fill-rule:evenodd;"
points="36161,32362
36161,31732
36515,31732
36515,32362
36161,32362
" /> 
<polyline style="fill-rule:evenodd;"
points="34901,31023
34901,30393
35255,30393
35255,31023
34901,31023
" /> 
<polyline style="fill-rule:evenodd;"
points="35216,31023
35216,30393
35570,30393
35570,31023
35216,31023
" /> 
<polyline style="fill-rule:evenodd;"
points="35846,31023
35846,30393
36200,30393
36200,31023
35846,31023
" /> 
<polyline style="fill-rule:evenodd;"
points="35531,31023
35531,30393
35885,30393
35885,31023
35531,31023
" /> 
<polyline style="fill-rule:evenodd;"
points="36791,31023
36791,30393
37145,30393
37145,31023
36791,31023
" /> 
<polyline style="fill-rule:evenodd;"
points="37106,31023
37106,30393
37460,30393
37460,31023
37106,31023
" /> 
<polyline style="fill-rule:evenodd;"
points="36476,31023
36476,30393
36830,30393
36830,31023
36476,31023
" /> 
<polyline style="fill-rule:evenodd;"
points="36161,31023
36161,30393
36515,30393
36515,31023
36161,31023
" /> 
<polyline style="fill-rule:evenodd;"
points="33641,31023
33641,30393
33996,30393
33996,31023
33641,31023
" /> 
<polyline style="fill-rule:evenodd;"
points="33956,31023
33956,30393
34311,30393
34311,31023
33956,31023
" /> 
<polyline style="fill-rule:evenodd;"
points="34586,31023
34586,30393
34940,30393
34940,31023
34586,31023
" /> 
<polyline style="fill-rule:evenodd;"
points="34271,31023
34271,30393
34625,30393
34625,31023
34271,31023
" /> 
<polyline style="fill-rule:evenodd;"
points="33641,32362
33641,31732
33996,31732
33996,32362
33641,32362
" /> 
<polyline style="fill-rule:evenodd;"
points="33956,32362
33956,31732
34311,31732
34311,32362
33956,32362
" /> 
<polyline style="fill-rule:evenodd;"
points="34586,32362
34586,31732
34940,31732
34940,32362
34586,32362
" /> 
<polyline style="fill-rule:evenodd;"
points="34271,32362
34271,31732
34625,31732
34625,32362
34271,32362
" /> 
<polyline style="fill-rule:evenodd;"
points="33011,32362
33011,31732
33366,31732
33366,32362
33011,32362
" /> 
<polyline style="fill-rule:evenodd;"
points="33326,32362
33326,31732
33681,31732
33681,32362
33326,32362
" /> 
<polyline style="fill-rule:evenodd;"
points="29862,32362
29862,31732
30216,31732
30216,32362
29862,32362
" /> 
<polyline style="fill-rule:evenodd;"
points="30177,32362
30177,31732
30531,31732
30531,32362
30177,32362
" /> 
<polyline style="fill-rule:evenodd;"
points="29547,32362
29547,31732
29901,31732
29901,32362
29547,32362
" /> 
<polyline style="fill-rule:evenodd;"
points="30492,32362
30492,31732
30846,31732
30846,32362
30492,32362
" /> 
<polyline style="fill-rule:evenodd;"
points="30807,32362
30807,31732
31161,31732
31161,32362
30807,32362
" /> 
<polyline style="fill-rule:evenodd;"
points="32696,32362
32696,31732
33051,31732
33051,32362
32696,32362
" /> 
<polyline style="fill-rule:evenodd;"
points="32381,32362
32381,31732
32736,31732
32736,32362
32381,32362
" /> 
<circle cx="38818.9" cy="31378" r="354.331" /> 
</g>
<g style="fill:#000000; fill-opacity:1.0; 
stroke:#000000; stroke-width:39.3701; stroke-opacity:1; 
stroke-linecap:round; stroke-linejoin:round;">
</g>
<g style="fill:#000000; fill-opacity:1.0; 
stroke:#000000; stroke-width:0; stroke-opacity:1; 
stroke-linecap:round; stroke-linejoin:round;">
<polyline style="fill-rule:evenodd;"
points="33011,31023
33011,30393
33366,30393
33366,31023
33011,31023
" /> 
<polyline style="fill-rule:evenodd;"
points="33326,31023
33326,30393
33681,30393
33681,31023
33326,31023
" /> 
<polyline style="fill-rule:evenodd;"
points="29862,31023
29862,30393
30216,30393
30216,31023
29862,31023
" /> 
<polyline style="fill-rule:evenodd;"
points="30177,31023
30177,30393
30531,30393
30531,31023
30177,31023
" /> 
<polyline style="fill-rule:evenodd;"
points="29547,31023
29547,30393
29901,30393
29901,31023
29547,31023
" /> 
<polyline style="fill-rule:evenodd;"
points="29232,31023
29232,30393
29586,30393
29586,31023
29232,31023
" /> 
<polyline style="fill-rule:evenodd;"
points="30492,31023
30492,30393
30846,30393
30846,31023
30492,31023
" /> 
<polyline style="fill-rule:evenodd;"
points="30807,31023
30807,30393
31161,30393
31161,31023
30807,31023
" /> 
<polyline style="fill-rule:evenodd;"
points="32696,31023
32696,30393
33051,30393
33051,31023
32696,31023
" /> 
<polyline style="fill-rule:evenodd;"
points="32381,31023
32381,30393
32736,30393
32736,31023
32381,31023
" /> 
<polyline style="fill-rule:evenodd;"
points="29232,32362
29232,31732
29586,31732
29586,32362
29232,32362
" /> 
<circle cx="28818.9" cy="31968.5" r="354.331" /> 
</g>
<g style="fill:#000000; fill-opacity:1.0; 
stroke:#000000; stroke-width:39.3701; stroke-opacity:1; 
stroke-linecap:round; stroke-linejoin:round;">
</g>
<g style="fill:#000000; fill-opacity:1.0; 
stroke:#000000; stroke-width:0; stroke-opacity:1; 
stroke-linecap:round; stroke-linejoin:round;">
<circle cx="38760.8" cy="30196.9" r="328.74" /> 
</g>
<g style="fill:#000000; fill-opacity:1.0; 
stroke:#000000; stroke-width:39.3701; stroke-opacity:1; 
stroke-linecap:round; stroke-linejoin:round;">
</g>
<g style="fill:#000000; fill-opacity:1.0; 
stroke:#000000; stroke-width:0; stroke-opacity:1; 
stroke-linecap:round; stroke-linejoin:round;">
<circle cx="28010.8" cy="30196.9" r="328.74" /> 
</g>
<g style="fill:#000000; fill-opacity:1.0; 
stroke:#000000; stroke-width:39.3701; stroke-opacity:1; 
stroke-linecap:round; stroke-linejoin:round;">
</g>
<g style="fill:#000000; fill-opacity:1.0; 
stroke:#000000; stroke-width:0; stroke-opacity:1; 
stroke-linecap:round; stroke-linejoin:round;">
<circle cx="38760.8" cy="23661.4" r="328.74" /> 
</g>
<g style="fill:#000000; fill-opacity:1.0; 
stroke:#000000; stroke-width:39.3701; stroke-opacity:1; 
stroke-linecap:round; stroke-linejoin:round;">
</g>
<g style="fill:#000000; fill-opacity:1.0; 
stroke:#000000; stroke-width:0; stroke-opacity:1; 
stroke-linecap:round; stroke-linejoin:round;">
<circle cx="28010.8" cy="23661.4" r="328.74" /> 
</g>
<g style="fill:#000000; fill-opacity:1.0; 
stroke:#000000; stroke-width:39.3701; stroke-opacity:1; 
stroke-linecap:round; stroke-linejoin:round;">
</g>
<g style="fill:#000000; fill-opacity:1.0; 
stroke:#000000; stroke-width:0; stroke-opacity:1; 
stroke-linecap:round; stroke-linejoin:round;">
<circle cx="38818.9" cy="11771.7" r="354.331" /> 
</g>
<g style="fill:#000000; fill-opacity:1.0; 
stroke:#000000; stroke-width:39.3701; stroke-opacity:1; 
stroke-linecap:round; stroke-linejoin:round;">
</g>
<g style="fill:#000000; fill-opacity:1.0; 
stroke:#000000; stroke-width:0; stroke-opacity:1; 
stroke-linecap:round; stroke-linejoin:round;">
<polyline style="fill-rule:evenodd;"
points="37736,11417
37736,10787
38090,10787
38090,11417
37736,11417
" /> 
<polyline style="fill-rule:evenodd;"
points="38051,11417
38051,10787
38405,10787
38405,11417
38051,11417
" /> 
<polyline style="fill-rule:evenodd;"
points="35846,11417
35846,10787
36200,10787
36200,11417
35846,11417
" /> 
<polyline style="fill-rule:evenodd;"
points="36161,11417
36161,10787
36515,10787
36515,11417
36161,11417
" /> 
<polyline style="fill-rule:evenodd;"
points="35531,11417
35531,10787
35885,10787
35885,11417
35531,11417
" /> 
<polyline style="fill-rule:evenodd;"
points="35216,11417
35216,10787
35570,10787
35570,11417
35216,11417
" /> 
<polyline style="fill-rule:evenodd;"
points="36476,11417
36476,10787
36830,10787
36830,11417
36476,11417
" /> 
<polyline style="fill-rule:evenodd;"
points="36791,11417
36791,10787
37145,10787
37145,11417
36791,11417
" /> 
<polyline style="fill-rule:evenodd;"
points="37421,11417
37421,10787
37775,10787
37775,11417
37421,11417
" /> 
<polyline style="fill-rule:evenodd;"
points="37106,11417
37106,10787
37460,10787
37460,11417
37106,11417
" /> 
<polyline style="fill-rule:evenodd;"
points="37106,12755
37106,12125
37460,12125
37460,12755
37106,12755
" /> 
<polyline style="fill-rule:evenodd;"
points="37421,12755
37421,12125
37775,12125
37775,12755
37421,12755
" /> 
<polyline style="fill-rule:evenodd;"
points="36791,12755
36791,12125
37145,12125
37145,12755
36791,12755
" /> 
<polyline style="fill-rule:evenodd;"
points="36476,12755
36476,12125
36830,12125
36830,12755
36476,12755
" /> 
<polyline style="fill-rule:evenodd;"
points="35216,12755
35216,12125
35570,12125
35570,12755
35216,12755
" /> 
<polyline style="fill-rule:evenodd;"
points="35531,12755
35531,12125
35885,12125
35885,12755
35531,12755
" /> 
<polyline style="fill-rule:evenodd;"
points="36161,12755
36161,12125
36515,12125
36515,12755
36161,12755
" /> 
<polyline style="fill-rule:evenodd;"
points="35846,12755
35846,12125
36200,12125
36200,12755
35846,12755
" /> 
<polyline style="fill-rule:evenodd;"
points="38051,12755
38051,12125
38405,12125
38405,12755
38051,12755
" /> 
<polyline style="fill-rule:evenodd;"
points="37736,12755
37736,12125
38090,12125
38090,12755
37736,12755
" /> 
<circle cx="34803.1" cy="12362.2" r="354.331" /> 
</g>
<g style="fill:#000000; fill-opacity:1.0; 
stroke:#000000; stroke-width:39.3701; stroke-opacity:1; 
stroke-linecap:round; stroke-linejoin:round;">
</g>
<g style="fill:#000000; fill-opacity:1.0; 
stroke:#000000; stroke-width:0; stroke-opacity:1; 
stroke-linecap:round; stroke-linejoin:round;">
<polyline style="fill-rule:evenodd;"
points="37421,19291
37421,18661
37775,18661
37775,19291
37421,19291
" /> 
<polyline style="fill-rule:evenodd;"
points="38051,19291
38051,18661
38405,18661
38405,19291
38051,19291
" /> 
<polyline style="fill-rule:evenodd;"
points="37736,19291
37736,18661
38090,18661
38090,19291
37736,19291
" /> 
<polyline style="fill-rule:evenodd;"
points="37421,17952
37421,17322
37775,17322
37775,17952
37421,17952
" /> 
<polyline style="fill-rule:evenodd;"
points="38051,17952
38051,17322
38405,17322
38405,17952
38051,17952
" /> 
<polyline style="fill-rule:evenodd;"
points="37736,17952
37736,17322
38090,17322
38090,17952
37736,17952
" /> 
<polyline style="fill-rule:evenodd;"
points="34901,19291
34901,18661
35255,18661
35255,19291
34901,19291
" /> 
<polyline style="fill-rule:evenodd;"
points="35216,19291
35216,18661
35570,18661
35570,19291
35216,19291
" /> 
<polyline style="fill-rule:evenodd;"
points="35846,19291
35846,18661
36200,18661
36200,19291
35846,19291
" /> 
<polyline style="fill-rule:evenodd;"
points="35531,19291
35531,18661
35885,18661
35885,19291
35531,19291
" /> 
<polyline style="fill-rule:evenodd;"
points="36791,19291
36791,18661
37145,18661
37145,19291
36791,19291
" /> 
<polyline style="fill-rule:evenodd;"
points="37106,19291
37106,18661
37460,18661
37460,19291
37106,19291
" /> 
<polyline style="fill-rule:evenodd;"
points="36476,19291
36476,18661
36830,18661
36830,19291
36476,19291
" /> 
<polyline style="fill-rule:evenodd;"
points="36161,19291
36161,18661
36515,18661
36515,19291
36161,19291
" /> 
<polyline style="fill-rule:evenodd;"
points="34901,17952
34901,17322
35255,17322
35255,17952
34901,17952
" /> 
<polyline style="fill-rule:evenodd;"
points="35216,17952
35216,17322
35570,17322
35570,17952
35216,17952
" /> 
<polyline style="fill-rule:evenodd;"
points="35846,17952
35846,17322
36200,17322
36200,17952
35846,17952
" /> 
<polyline style="fill-rule:evenodd;"
points="35531,17952
35531,17322
35885,17322
35885,17952
35531,17952
" /> 
<polyline style="fill-rule:evenodd;"
points="36791,17952
36791,17322
37145,17322
37145,17952
36791,17952
" /> 
<polyline style="fill-rule:evenodd;"
points="37106,17952
37106,17322
37460,17322
37460,17952
37106,17952
" /> 
<polyline style="fill-rule:evenodd;"
points="36476,17952
36476,17322
36830,17322
36830,17952
36476,17952
" /> 
<polyline style="fill-rule:evenodd;"
points="36161,17952
36161,17322
36515,17322
36515,17952
36161,17952
" /> 
<polyline style="fill-rule:evenodd;"
points="33641,17952
33641,17322
33996,17322
33996,17952
33641,17952
" /> 
<polyline style="fill-rule:evenodd;"
points="33956,17952
33956,17322
34311,17322
34311,17952
33956,17952
" /> 
<polyline style="fill-rule:evenodd;"
points="34586,17952
34586,17322
34940,17322
34940,17952
34586,17952
" /> 
<polyline style="fill-rule:evenodd;"
points="34271,17952
34271,17322
34625,17322
34625,17952
34271,17952
" /> 
<polyline style="fill-rule:evenodd;"
points="33641,19291
33641,18661
33996,18661
33996,19291
33641,19291
" /> 
<polyline style="fill-rule:evenodd;"
points="33956,19291
33956,18661
34311,18661
34311,19291
33956,19291
" /> 
<polyline style="fill-rule:evenodd;"
points="34586,19291
34586,18661
34940,18661
34940,19291
34586,19291
" /> 
<polyline style="fill-rule:evenodd;"
points="34271,19291
34271,18661
34625,18661
34625,19291
34271,19291
" /> 
<polyline style="fill-rule:evenodd;"
points="33011,19291
33011,18661
33366,18661
33366,19291
33011,19291
" /> 
<polyline style="fill-rule:evenodd;"
points="33326,19291
33326,18661
33681,18661
33681,19291
33326,19291
" /> 
<polyline style="fill-rule:evenodd;"
points="29862,19291
29862,18661
30216,18661
30216,19291
29862,19291
" /> 
<polyline style="fill-rule:evenodd;"
points="30177,19291
30177,18661
30531,18661
30531,19291
30177,19291
" /> 
<polyline style="fill-rule:evenodd;"
points="29547,19291
29547,18661
29901,18661
29901,19291
29547,19291
" /> 
<polyline style="fill-rule:evenodd;"
points="30492,19291
30492,18661
30846,18661
30846,19291
30492,19291
" /> 
<polyline style="fill-rule:evenodd;"
points="30807,19291
30807,18661
31161,18661
31161,19291
30807,19291
" /> 
<polyline style="fill-rule:evenodd;"
points="32696,19291
32696,18661
33051,18661
33051,19291
32696,19291
" /> 
<polyline style="fill-rule:evenodd;"
points="32381,19291
32381,18661
32736,18661
32736,19291
32381,19291
" /> 
<circle cx="38818.9" cy="18307.1" r="354.331" /> 
</g>
<g style="fill:#000000; fill-opacity:1.0; 
stroke:#000000; stroke-width:39.3701; stroke-opacity:1; 
stroke-linecap:round; stroke-linejoin:round;">
</g>
<g style="fill:#000000; fill-opacity:1.0; 
stroke:#000000; stroke-width:0; stroke-opacity:1; 
stroke-linecap:round; stroke-linejoin:round;">
<polyline style="fill-rule:evenodd;"
points="33011,17952
33011,17322
33366,17322
33366,17952
33011,17952
" /> 
<polyline style="fill-rule:evenodd;"
points="33326,17952
33326,17322
33681,17322
33681,17952
33326,17952
" /> 
<polyline style="fill-rule:evenodd;"
points="29862,17952
29862,17322
30216,17322
30216,17952
29862,17952
" /> 
<polyline style="fill-rule:evenodd;"
points="30177,17952
30177,17322
30531,17322
30531,17952
30177,17952
" /> 
<polyline style="fill-rule:evenodd;"
points="29547,17952
29547,17322
29901,17322
29901,17952
29547,17952
" /> 
<polyline style="fill-rule:evenodd;"
points="29232,17952
29232,17322
29586,17322
29586,17952
29232,17952
" /> 
<polyline style="fill-rule:evenodd;"
points="30492,17952
30492,17322
30846,17322
30846,17952
30492,17952
" /> 
<polyline style="fill-rule:evenodd;"
points="30807,17952
30807,17322
31161,17322
31161,17952
30807,17952
" /> 
<polyline style="fill-rule:evenodd;"
points="32696,17952
32696,17322
33051,17322
33051,17952
32696,17952
" /> 
<polyline style="fill-rule:evenodd;"
points="32381,17952
32381,17322
32736,17322
32736,17952
32381,17952
" /> 
<polyline style="fill-rule:evenodd;"
points="29232,19291
29232,18661
29586,18661
29586,19291
29232,19291
" /> 
<circle cx="28818.9" cy="18897.6" r="354.331" /> 
</g>
<g style="fill:#000000; fill-opacity:1.0; 
stroke:#000000; stroke-width:39.3701; stroke-opacity:1; 
stroke-linecap:round; stroke-linejoin:round;">
</g>
<g style="fill:#000000; fill-opacity:1.0; 
stroke:#000000; stroke-width:0; stroke-opacity:1; 
stroke-linecap:round; stroke-linejoin:round;">
<circle cx="38760.8" cy="17126" r="328.74" /> 
</g>
<g style="fill:#000000; fill-opacity:1.0; 
stroke:#000000; stroke-width:39.3701; stroke-opacity:1; 
stroke-linecap:round; stroke-linejoin:round;">
</g>
<g style="fill:#000000; fill-opacity:1.0; 
stroke:#000000; stroke-width:0; stroke-opacity:1; 
stroke-linecap:round; stroke-linejoin:round;">
<circle cx="28010.8" cy="17126" r="328.74" /> 
</g>
<g style="fill:#000000; fill-opacity:1.0; 
stroke:#000000; stroke-width:39.3701; stroke-opacity:1; 
stroke-linecap:round; stroke-linejoin:round;">
</g>
<g style="fill:#000000; fill-opacity:1.0; 
stroke:#000000; stroke-width:0; stroke-opacity:1; 
stroke-linecap:round; stroke-linejoin:round;">
<polyline style="fill-rule:evenodd;"
points="29478,9478
28521,9478
28521,8521
29478,8521
29478,9478
" /> 
</g>
<g style="fill:#000000; fill-opacity:1.0; 
stroke:#000000; stroke-width:957.48; stroke-opacity:1; 
stroke-linecap:round; stroke-linejoin:round;">
</g>
<g style="fill:#000000; fill-opacity:0.0; 
stroke:#000000; stroke-width:957.48; stroke-opacity:1; 
stroke-linecap:round; stroke-linejoin:round;">
<path d="M30000 9000
L30000 9000
" />
</g>
<g style="fill:#000000; fill-opacity:0.0; 
stroke:#000000; stroke-width:0; stroke-opacity:1; 
stroke-linecap:round; stroke-linejoin:round;">
</g>
<g style="fill:#000000; fill-opacity:1.0; 
stroke:#000000; stroke-width:0; stroke-opacity:1; 
stroke-linecap:round; stroke-linejoin:round;">
<polyline style="fill-rule:evenodd;"
points="26478,9478
25521,9478
25521,8521
26478,8521
26478,9478
" /> 
</g>
<g style="fill:#000000; fill-opacity:1.0; 
stroke:#000000; stroke-width:957.48; stroke-opacity:1; 
stroke-linecap:round; stroke-linejoin:round;">
</g>
<g style="fill:#000000; fill-opacity:0.0; 
stroke:#000000; stroke-width:957.48; stroke-opacity:1; 
stroke-linecap:round; stroke-linejoin:round;">
<path d="M27000 9000
L27000 9000
" />
</g>
<g style="fill:#000000; fill-opacity:0.0; 
stroke:#000000; stroke-width:0; stroke-opacity:1; 
stroke-linecap:round; stroke-linejoin:round;">
</g>
<g style="fill:#000000; fill-opacity:1.0; 
stroke:#000000; stroke-width:0; stroke-opacity:1; 
stroke-linecap:round; stroke-linejoin:round;">
<polyline style="fill-rule:evenodd;"
points="14418,10418
13581,10418
13581,9581
14418,9581
14418,10418
" /> 
</g>
<g style="fill:#000000; fill-opacity:1.0; 
stroke:#000000; stroke-width:837.48; stroke-opacity:1; 
stroke-linecap:round; stroke-linejoin:round;">
</g>
<g style="fill:#000000; fill-opacity:0.0; 
stroke:#000000; stroke-width:837.48; stroke-opacity:1; 
stroke-linecap:round; stroke-linejoin:round;">
<path d="M14000 9000
L14000 9000
" />
<path d="M15000 10000
L15000 10000
" />
<path d="M15000 9000
L15000 9000
" />
<path d="M16000 10000
L16000 10000
" />
<path d="M16000 9000
L16000 9000
" />
<path d="M17000 10000
L17000 10000
" />
<path d="M17000 9000
L17000 9000
" />
<path d="M18000 10000
L18000 10000
" />
<path d="M18000 9000
L18000 9000
" />
<path d="M19000 10000
L19000 10000
" />
<path d="M19000 9000
L19000 9000
" />
<path d="M20000 10000
L20000 10000
" />
<path d="M20000 9000
L20000 9000
" />
<path d="M21000 10000
L21000 10000
" />
<path d="M21000 9000
L21000 9000
" />
<path d="M22000 10000
L22000 10000
" />
<path d="M22000 9000
L22000 9000
" />
<path d="M23000 10000
L23000 10000
" />
<path d="M23000 9000
L23000 9000
" />
</g>
<g style="fill:#000000; fill-opacity:1.0; 
stroke:#000000; stroke-width:0; stroke-opacity:1; 
stroke-linecap:round; stroke-linejoin:round;">
<circle cx="11023.6" cy="9842.52" r="878.74" /> 
</g>
<g style="fill:#000000; fill-opacity:1.0; 
stroke:#000000; stroke-width:39.3701; stroke-opacity:1; 
stroke-linecap:round; stroke-linejoin:round;">
</g>
<g style="fill:#000000; fill-opacity:1.0; 
stroke:#000000; stroke-width:0; stroke-opacity:1; 
stroke-linecap:round; stroke-linejoin:round;">
<polyline style="fill-rule:evenodd;"
points="26418,10978
25581,10978
25581,10021
26418,10021
26418,10978
" /> 
</g>
<g style="fill:#000000; fill-opacity:1.0; 
stroke:#000000; stroke-width:837.48; stroke-opacity:1; 
stroke-linecap:round; stroke-linejoin:round;">
</g>
<g style="fill:#000000; fill-opacity:0.0; 
stroke:#000000; stroke-width:837.48; stroke-opacity:1; 
stroke-linecap:round; stroke-linejoin:round;">
<path d="M27000 10560
L27000 10440
" />
<path d="M28000 10560
L28000 10440
" />
</g> 
</svg>
