<?xml version="1.0" standalone="no"?>
 <!DOCTYPE svg PUBLIC "-//W3C//DTD SVG 1.1//EN" 
 "http://www.w3.org/Graphics/SVG/1.1/DTD/svg11.dtd"> 
<svg xmlns="http://www.w3.org/2000/svg" version="1.1" 
    width="29.7002cm" height="21.0007cm" viewBox="0 0 116930 82680 ">
<title>SVG Picture created as dropbot-front-pannel-F.Mask.svg date 2017/03/07 13:46:38 </title>
  <desc>Picture generated by PCBNEW </desc>
<g style="fill:#000000; fill-opacity:1;stroke:#000000; stroke-opacity:1;
stroke-linecap:round; stroke-linejoin:round; "
 transform="translate(0 0) scale(1 1)">
</g>
<g style="fill:#000000; fill-opacity:0.0; 
stroke:#000000; stroke-width:-0.000393701; stroke-opacity:1; 
stroke-linecap:round; stroke-linejoin:round;">
</g>
<g style="fill:#000000; fill-opacity:0.0; 
stroke:#000000; stroke-width:39.3701; stroke-opacity:1; 
stroke-linecap:round; stroke-linejoin:round;">
</g>
<g style="fill:#000000; fill-opacity:0.0; 
stroke:#000000; stroke-width:59.0551; stroke-opacity:1; 
stroke-linecap:round; stroke-linejoin:round;">
<rect x="69685.9" y="65357.2" width="42519.7" height="12598.4" rx="0" />
</g>
<g style="fill:#000000; fill-opacity:0.0; 
stroke:#000000; stroke-width:39.3701; stroke-opacity:1; 
stroke-linecap:round; stroke-linejoin:round;">
</g>
<g style="fill:#000000; fill-opacity:0.0; 
stroke:#000000; stroke-width:59.0551; stroke-opacity:1; 
stroke-linecap:round; stroke-linejoin:round;">
<rect x="3937.01" y="3937.01" width="109056" height="74806" rx="0" />
</g>
<g style="fill:#000000; fill-opacity:0.0; 
stroke:#000000; stroke-width:39.3701; stroke-opacity:1; 
stroke-linecap:round; stroke-linejoin:round;">
</g>
<g style="fill:#000000; fill-opacity:0.0; 
stroke:#000000; stroke-width:59.0551; stroke-opacity:1; 
stroke-linecap:round; stroke-linejoin:round;">
<rect x="4724.41" y="4724.41" width="107481" height="73231.2" rx="0" />
</g>
<g style="fill:#000000; fill-opacity:0.0; 
stroke:#000000; stroke-width:39.3701; stroke-opacity:1; 
stroke-linecap:round; stroke-linejoin:round;">
</g>
<g style="fill:#000000; fill-opacity:0.0; 
stroke:#000000; stroke-width:59.0551; stroke-opacity:1; 
stroke-linecap:round; stroke-linejoin:round;">
<path d="M23622 4724
L23622 3937
" />
</g>
<g style="fill:#000000; fill-opacity:0.0; 
stroke:#000000; stroke-width:39.3701; stroke-opacity:1; 
stroke-linecap:round; stroke-linejoin:round;">
</g>
<g style="fill:#000000; fill-opacity:0.0; 
stroke:#000000; stroke-width:59.0551; stroke-opacity:1; 
stroke-linecap:round; stroke-linejoin:round;">
<path d="M43307 4724
L43307 3937
" />
</g>
<g style="fill:#000000; fill-opacity:0.0; 
stroke:#000000; stroke-width:39.3701; stroke-opacity:1; 
stroke-linecap:round; stroke-linejoin:round;">
</g>
<g style="fill:#000000; fill-opacity:0.0; 
stroke:#000000; stroke-width:59.0551; stroke-opacity:1; 
stroke-linecap:round; stroke-linejoin:round;">
<path d="M62992 4724
L62992 3937
" />
</g>
<g style="fill:#000000; fill-opacity:0.0; 
stroke:#000000; stroke-width:39.3701; stroke-opacity:1; 
stroke-linecap:round; stroke-linejoin:round;">
</g>
<g style="fill:#000000; fill-opacity:0.0; 
stroke:#000000; stroke-width:59.0551; stroke-opacity:1; 
stroke-linecap:round; stroke-linejoin:round;">
<path d="M82677 4724
L82677 3937
" />
</g>
<g style="fill:#000000; fill-opacity:0.0; 
stroke:#000000; stroke-width:39.3701; stroke-opacity:1; 
stroke-linecap:round; stroke-linejoin:round;">
</g>
<g style="fill:#000000; fill-opacity:0.0; 
stroke:#000000; stroke-width:59.0551; stroke-opacity:1; 
stroke-linecap:round; stroke-linejoin:round;">
<path d="M102362 4724
L102362 3937
" />
</g>
<g style="fill:#000000; fill-opacity:0.0; 
stroke:#000000; stroke-width:39.3701; stroke-opacity:1; 
stroke-linecap:round; stroke-linejoin:round;">
</g>
<g style="fill:#000000; fill-opacity:0.0; 
stroke:#000000; stroke-width:59.0551; stroke-opacity:1; 
stroke-linecap:round; stroke-linejoin:round;">
<path d="M14169 4562
L13877 4562
" />
<path d="M14023 4562
L14023 4050
L13974 4123
L13925 4172
L13877 4196
" />
</g>
<g style="fill:#000000; fill-opacity:0.0; 
stroke:#000000; stroke-width:39.3701; stroke-opacity:1; 
stroke-linecap:round; stroke-linejoin:round;">
</g>
<g style="fill:#000000; fill-opacity:0.0; 
stroke:#000000; stroke-width:59.0551; stroke-opacity:1; 
stroke-linecap:round; stroke-linejoin:round;">
<path d="M33562 4099
L33586 4074
L33635 4050
L33757 4050
L33805 4074
L33830 4099
L33854 4147
L33854 4196
L33830 4269
L33537 4562
L33854 4562
" />
</g>
<g style="fill:#000000; fill-opacity:0.0; 
stroke:#000000; stroke-width:39.3701; stroke-opacity:1; 
stroke-linecap:round; stroke-linejoin:round;">
</g>
<g style="fill:#000000; fill-opacity:0.0; 
stroke:#000000; stroke-width:59.0551; stroke-opacity:1; 
stroke-linecap:round; stroke-linejoin:round;">
<path d="M53222 4050
L53539 4050
L53368 4245
L53442 4245
L53490 4269
L53515 4294
L53539 4342
L53539 4464
L53515 4513
L53490 4537
L53442 4562
L53295 4562
L53247 4537
L53222 4513
" />
</g>
<g style="fill:#000000; fill-opacity:0.0; 
stroke:#000000; stroke-width:39.3701; stroke-opacity:1; 
stroke-linecap:round; stroke-linejoin:round;">
</g>
<g style="fill:#000000; fill-opacity:0.0; 
stroke:#000000; stroke-width:59.0551; stroke-opacity:1; 
stroke-linecap:round; stroke-linejoin:round;">
<path d="M73175 4221
L73175 4562
" />
<path d="M73053 4026
L72932 4391
L73248 4391
" />
</g>
<g style="fill:#000000; fill-opacity:0.0; 
stroke:#000000; stroke-width:39.3701; stroke-opacity:1; 
stroke-linecap:round; stroke-linejoin:round;">
</g>
<g style="fill:#000000; fill-opacity:0.0; 
stroke:#000000; stroke-width:59.0551; stroke-opacity:1; 
stroke-linecap:round; stroke-linejoin:round;">
<path d="M92885 4050
L92641 4050
L92617 4294
L92641 4269
L92690 4245
L92812 4245
L92860 4269
L92885 4294
L92909 4342
L92909 4464
L92885 4513
L92860 4537
L92812 4562
L92690 4562
L92641 4537
L92617 4513
" />
</g>
<g style="fill:#000000; fill-opacity:0.0; 
stroke:#000000; stroke-width:39.3701; stroke-opacity:1; 
stroke-linecap:round; stroke-linejoin:round;">
</g>
<g style="fill:#000000; fill-opacity:0.0; 
stroke:#000000; stroke-width:59.0551; stroke-opacity:1; 
stroke-linecap:round; stroke-linejoin:round;">
<path d="M112545 4050
L112448 4050
L112399 4074
L112375 4099
L112326 4172
L112302 4269
L112302 4464
L112326 4513
L112350 4537
L112399 4562
L112497 4562
L112545 4537
L112570 4513
L112594 4464
L112594 4342
L112570 4294
L112545 4269
L112497 4245
L112399 4245
L112350 4269
L112326 4294
L112302 4342
" />
</g>
<g style="fill:#000000; fill-opacity:0.0; 
stroke:#000000; stroke-width:39.3701; stroke-opacity:1; 
stroke-linecap:round; stroke-linejoin:round;">
</g>
<g style="fill:#000000; fill-opacity:0.0; 
stroke:#000000; stroke-width:59.0551; stroke-opacity:1; 
stroke-linecap:round; stroke-linejoin:round;">
<path d="M23622 77955
L23622 78742
" />
</g>
<g style="fill:#000000; fill-opacity:0.0; 
stroke:#000000; stroke-width:39.3701; stroke-opacity:1; 
stroke-linecap:round; stroke-linejoin:round;">
</g>
<g style="fill:#000000; fill-opacity:0.0; 
stroke:#000000; stroke-width:59.0551; stroke-opacity:1; 
stroke-linecap:round; stroke-linejoin:round;">
<path d="M43307 77955
L43307 78742
" />
</g>
<g style="fill:#000000; fill-opacity:0.0; 
stroke:#000000; stroke-width:39.3701; stroke-opacity:1; 
stroke-linecap:round; stroke-linejoin:round;">
</g>
<g style="fill:#000000; fill-opacity:0.0; 
stroke:#000000; stroke-width:59.0551; stroke-opacity:1; 
stroke-linecap:round; stroke-linejoin:round;">
<path d="M62992 77955
L62992 78742
" />
</g>
<g style="fill:#000000; fill-opacity:0.0; 
stroke:#000000; stroke-width:39.3701; stroke-opacity:1; 
stroke-linecap:round; stroke-linejoin:round;">
</g>
<g style="fill:#000000; fill-opacity:0.0; 
stroke:#000000; stroke-width:59.0551; stroke-opacity:1; 
stroke-linecap:round; stroke-linejoin:round;">
<path d="M82677 77955
L82677 78742
" />
</g>
<g style="fill:#000000; fill-opacity:0.0; 
stroke:#000000; stroke-width:39.3701; stroke-opacity:1; 
stroke-linecap:round; stroke-linejoin:round;">
</g>
<g style="fill:#000000; fill-opacity:0.0; 
stroke:#000000; stroke-width:59.0551; stroke-opacity:1; 
stroke-linecap:round; stroke-linejoin:round;">
<path d="M102362 77955
L102362 78742
" />
</g>
<g style="fill:#000000; fill-opacity:0.0; 
stroke:#000000; stroke-width:39.3701; stroke-opacity:1; 
stroke-linecap:round; stroke-linejoin:round;">
</g>
<g style="fill:#000000; fill-opacity:0.0; 
stroke:#000000; stroke-width:59.0551; stroke-opacity:1; 
stroke-linecap:round; stroke-linejoin:round;">
<path d="M14169 78580
L13877 78580
" />
<path d="M14023 78580
L14023 78069
L13974 78142
L13925 78190
L13877 78215
" />
</g>
<g style="fill:#000000; fill-opacity:0.0; 
stroke:#000000; stroke-width:39.3701; stroke-opacity:1; 
stroke-linecap:round; stroke-linejoin:round;">
</g>
<g style="fill:#000000; fill-opacity:0.0; 
stroke:#000000; stroke-width:59.0551; stroke-opacity:1; 
stroke-linecap:round; stroke-linejoin:round;">
<path d="M33562 78117
L33586 78093
L33635 78069
L33757 78069
L33805 78093
L33830 78117
L33854 78166
L33854 78215
L33830 78288
L33537 78580
L33854 78580
" />
</g>
<g style="fill:#000000; fill-opacity:0.0; 
stroke:#000000; stroke-width:39.3701; stroke-opacity:1; 
stroke-linecap:round; stroke-linejoin:round;">
</g>
<g style="fill:#000000; fill-opacity:0.0; 
stroke:#000000; stroke-width:59.0551; stroke-opacity:1; 
stroke-linecap:round; stroke-linejoin:round;">
<path d="M53222 78069
L53539 78069
L53368 78263
L53442 78263
L53490 78288
L53515 78312
L53539 78361
L53539 78483
L53515 78532
L53490 78556
L53442 78580
L53295 78580
L53247 78556
L53222 78532
" />
</g>
<g style="fill:#000000; fill-opacity:0.0; 
stroke:#000000; stroke-width:39.3701; stroke-opacity:1; 
stroke-linecap:round; stroke-linejoin:round;">
</g>
<g style="fill:#000000; fill-opacity:0.0; 
stroke:#000000; stroke-width:59.0551; stroke-opacity:1; 
stroke-linecap:round; stroke-linejoin:round;">
<path d="M73175 78239
L73175 78580
" />
<path d="M73053 78044
L72932 78410
L73248 78410
" />
</g>
<g style="fill:#000000; fill-opacity:0.0; 
stroke:#000000; stroke-width:39.3701; stroke-opacity:1; 
stroke-linecap:round; stroke-linejoin:round;">
</g>
<g style="fill:#000000; fill-opacity:0.0; 
stroke:#000000; stroke-width:59.0551; stroke-opacity:1; 
stroke-linecap:round; stroke-linejoin:round;">
<path d="M92885 78069
L92641 78069
L92617 78312
L92641 78288
L92690 78263
L92812 78263
L92860 78288
L92885 78312
L92909 78361
L92909 78483
L92885 78532
L92860 78556
L92812 78580
L92690 78580
L92641 78556
L92617 78532
" />
</g>
<g style="fill:#000000; fill-opacity:0.0; 
stroke:#000000; stroke-width:39.3701; stroke-opacity:1; 
stroke-linecap:round; stroke-linejoin:round;">
</g>
<g style="fill:#000000; fill-opacity:0.0; 
stroke:#000000; stroke-width:59.0551; stroke-opacity:1; 
stroke-linecap:round; stroke-linejoin:round;">
<path d="M112545 78069
L112448 78069
L112399 78093
L112375 78117
L112326 78190
L112302 78288
L112302 78483
L112326 78532
L112350 78556
L112399 78580
L112497 78580
L112545 78556
L112570 78532
L112594 78483
L112594 78361
L112570 78312
L112545 78288
L112497 78263
L112399 78263
L112350 78288
L112326 78312
L112302 78361
" />
</g>
<g style="fill:#000000; fill-opacity:0.0; 
stroke:#000000; stroke-width:39.3701; stroke-opacity:1; 
stroke-linecap:round; stroke-linejoin:round;">
</g>
<g style="fill:#000000; fill-opacity:0.0; 
stroke:#000000; stroke-width:59.0551; stroke-opacity:1; 
stroke-linecap:round; stroke-linejoin:round;">
<path d="M3937 23622
L4724 23622
" />
</g>
<g style="fill:#000000; fill-opacity:0.0; 
stroke:#000000; stroke-width:39.3701; stroke-opacity:1; 
stroke-linecap:round; stroke-linejoin:round;">
</g>
<g style="fill:#000000; fill-opacity:0.0; 
stroke:#000000; stroke-width:59.0551; stroke-opacity:1; 
stroke-linecap:round; stroke-linejoin:round;">
<path d="M3937 43307
L4724 43307
" />
</g>
<g style="fill:#000000; fill-opacity:0.0; 
stroke:#000000; stroke-width:39.3701; stroke-opacity:1; 
stroke-linecap:round; stroke-linejoin:round;">
</g>
<g style="fill:#000000; fill-opacity:0.0; 
stroke:#000000; stroke-width:59.0551; stroke-opacity:1; 
stroke-linecap:round; stroke-linejoin:round;">
<path d="M3937 62992
L4724 62992
" />
</g>
<g style="fill:#000000; fill-opacity:0.0; 
stroke:#000000; stroke-width:39.3701; stroke-opacity:1; 
stroke-linecap:round; stroke-linejoin:round;">
</g>
<g style="fill:#000000; fill-opacity:0.0; 
stroke:#000000; stroke-width:59.0551; stroke-opacity:1; 
stroke-linecap:round; stroke-linejoin:round;">
<path d="M4208 13864
L4452 13864
" />
<path d="M4160 14011
L4330 13499
L4501 14011
" />
</g>
<g style="fill:#000000; fill-opacity:0.0; 
stroke:#000000; stroke-width:39.3701; stroke-opacity:1; 
stroke-linecap:round; stroke-linejoin:round;">
</g>
<g style="fill:#000000; fill-opacity:0.0; 
stroke:#000000; stroke-width:59.0551; stroke-opacity:1; 
stroke-linecap:round; stroke-linejoin:round;">
<path d="M4367 33428
L4440 33452
L4464 33476
L4489 33525
L4489 33598
L4464 33647
L4440 33671
L4391 33696
L4196 33696
L4196 33184
L4367 33184
L4416 33208
L4440 33233
L4464 33281
L4464 33330
L4440 33379
L4416 33403
L4367 33428
L4196 33428
" />
</g>
<g style="fill:#000000; fill-opacity:0.0; 
stroke:#000000; stroke-width:39.3701; stroke-opacity:1; 
stroke-linecap:round; stroke-linejoin:round;">
</g>
<g style="fill:#000000; fill-opacity:0.0; 
stroke:#000000; stroke-width:59.0551; stroke-opacity:1; 
stroke-linecap:round; stroke-linejoin:round;">
<path d="M4489 53332
L4464 53356
L4391 53381
L4342 53381
L4269 53356
L4221 53308
L4196 53259
L4172 53161
L4172 53088
L4196 52991
L4221 52942
L4269 52893
L4342 52869
L4391 52869
L4464 52893
L4489 52918
" />
</g>
<g style="fill:#000000; fill-opacity:0.0; 
stroke:#000000; stroke-width:39.3701; stroke-opacity:1; 
stroke-linecap:round; stroke-linejoin:round;">
</g>
<g style="fill:#000000; fill-opacity:0.0; 
stroke:#000000; stroke-width:59.0551; stroke-opacity:1; 
stroke-linecap:round; stroke-linejoin:round;">
<path d="M4196 73066
L4196 72554
L4318 72554
L4391 72578
L4440 72627
L4464 72676
L4489 72773
L4489 72846
L4464 72944
L4440 72993
L4391 73041
L4318 73066
L4196 73066
" />
</g>
<g style="fill:#000000; fill-opacity:0.0; 
stroke:#000000; stroke-width:39.3701; stroke-opacity:1; 
stroke-linecap:round; stroke-linejoin:round;">
</g>
<g style="fill:#000000; fill-opacity:0.0; 
stroke:#000000; stroke-width:59.0551; stroke-opacity:1; 
stroke-linecap:round; stroke-linejoin:round;">
<path d="M112992 23622
L112205 23622
" />
</g>
<g style="fill:#000000; fill-opacity:0.0; 
stroke:#000000; stroke-width:39.3701; stroke-opacity:1; 
stroke-linecap:round; stroke-linejoin:round;">
</g>
<g style="fill:#000000; fill-opacity:0.0; 
stroke:#000000; stroke-width:59.0551; stroke-opacity:1; 
stroke-linecap:round; stroke-linejoin:round;">
<path d="M112992 43307
L112205 43307
" />
</g>
<g style="fill:#000000; fill-opacity:0.0; 
stroke:#000000; stroke-width:39.3701; stroke-opacity:1; 
stroke-linecap:round; stroke-linejoin:round;">
</g>
<g style="fill:#000000; fill-opacity:0.0; 
stroke:#000000; stroke-width:59.0551; stroke-opacity:1; 
stroke-linecap:round; stroke-linejoin:round;">
<path d="M112992 62992
L112205 62992
" />
</g>
<g style="fill:#000000; fill-opacity:0.0; 
stroke:#000000; stroke-width:39.3701; stroke-opacity:1; 
stroke-linecap:round; stroke-linejoin:round;">
</g>
<g style="fill:#000000; fill-opacity:0.0; 
stroke:#000000; stroke-width:59.0551; stroke-opacity:1; 
stroke-linecap:round; stroke-linejoin:round;">
<path d="M112477 13864
L112721 13864
" />
<path d="M112428 14011
L112599 13499
L112769 14011
" />
</g>
<g style="fill:#000000; fill-opacity:0.0; 
stroke:#000000; stroke-width:39.3701; stroke-opacity:1; 
stroke-linecap:round; stroke-linejoin:round;">
</g>
<g style="fill:#000000; fill-opacity:0.0; 
stroke:#000000; stroke-width:59.0551; stroke-opacity:1; 
stroke-linecap:round; stroke-linejoin:round;">
<path d="M112635 33428
L112708 33452
L112733 33476
L112757 33525
L112757 33598
L112733 33647
L112708 33671
L112660 33696
L112465 33696
L112465 33184
L112635 33184
L112684 33208
L112708 33233
L112733 33281
L112733 33330
L112708 33379
L112684 33403
L112635 33428
L112465 33428
" />
</g>
<g style="fill:#000000; fill-opacity:0.0; 
stroke:#000000; stroke-width:39.3701; stroke-opacity:1; 
stroke-linecap:round; stroke-linejoin:round;">
</g>
<g style="fill:#000000; fill-opacity:0.0; 
stroke:#000000; stroke-width:59.0551; stroke-opacity:1; 
stroke-linecap:round; stroke-linejoin:round;">
<path d="M112757 53332
L112733 53356
L112660 53381
L112611 53381
L112538 53356
L112489 53308
L112465 53259
L112440 53161
L112440 53088
L112465 52991
L112489 52942
L112538 52893
L112611 52869
L112660 52869
L112733 52893
L112757 52918
" />
</g>
<g style="fill:#000000; fill-opacity:0.0; 
stroke:#000000; stroke-width:39.3701; stroke-opacity:1; 
stroke-linecap:round; stroke-linejoin:round;">
</g>
<g style="fill:#000000; fill-opacity:0.0; 
stroke:#000000; stroke-width:59.0551; stroke-opacity:1; 
stroke-linecap:round; stroke-linejoin:round;">
<path d="M112465 73066
L112465 72554
L112587 72554
L112660 72578
L112708 72627
L112733 72676
L112757 72773
L112757 72846
L112733 72944
L112708 72993
L112660 73041
L112587 73066
L112465 73066
" />
</g>
<g style="fill:#000000; fill-opacity:0.0; 
stroke:#000000; stroke-width:39.3701; stroke-opacity:1; 
stroke-linecap:round; stroke-linejoin:round;">
</g>
<g style="fill:#000000; fill-opacity:0.0; 
stroke:#000000; stroke-width:59.0551; stroke-opacity:1; 
stroke-linecap:round; stroke-linejoin:round;">
<path d="M78881 76293
L78881 75703
L79022 75703
L79106 75731
L79162 75787
L79190 75843
L79219 75956
L79219 76040
L79190 76153
L79162 76209
L79106 76265
L79022 76293
L78881 76293
" />
<path d="M79725 76293
L79725 75984
L79697 75928
L79640 75899
L79528 75899
L79472 75928
" />
<path d="M79725 76265
L79669 76293
L79528 76293
L79472 76265
L79444 76209
L79444 76153
L79472 76096
L79528 76068
L79669 76068
L79725 76040
" />
<path d="M79922 75899
L80147 75899
" />
<path d="M80006 75703
L80006 76209
L80034 76265
L80090 76293
L80147 76293
" />
<path d="M80568 76265
L80512 76293
L80400 76293
L80343 76265
L80315 76209
L80315 75984
L80343 75928
L80400 75899
L80512 75899
L80568 75928
L80597 75984
L80597 76040
L80315 76096
" />
<path d="M80850 76237
L80878 76265
L80850 76293
L80822 76265
L80850 76237
L80850 76293
" />
<path d="M80850 75928
L80878 75956
L80850 75984
L80822 75956
L80850 75928
L80850 75984
" />
<path d="M81553 75759
L81581 75731
L81637 75703
L81778 75703
L81834 75731
L81862 75759
L81890 75815
L81890 75871
L81862 75956
L81525 76293
L81890 76293
" />
<path d="M82256 75703
L82312 75703
L82368 75731
L82396 75759
L82424 75815
L82453 75928
L82453 76068
L82424 76181
L82396 76237
L82368 76265
L82312 76293
L82256 76293
L82199 76265
L82171 76237
L82143 76181
L82115 76068
L82115 75928
L82143 75815
L82171 75759
L82199 75731
L82256 75703
" />
<path d="M83015 76293
L82678 76293
" />
<path d="M82846 76293
L82846 75703
L82790 75787
L82734 75843
L82678 75871
" />
<path d="M83521 75703
L83409 75703
L83352 75731
L83324 75759
L83268 75843
L83240 75956
L83240 76181
L83268 76237
L83296 76265
L83352 76293
L83465 76293
L83521 76265
L83549 76237
L83577 76181
L83577 76040
L83549 75984
L83521 75956
L83465 75928
L83352 75928
L83296 75956
L83268 75984
L83240 76040
" />
<path d="M83831 76068
L84280 76068
" />
<path d="M84871 76293
L84534 76293
" />
<path d="M84702 76293
L84702 75703
L84646 75787
L84590 75843
L84534 75871
" />
<path d="M85096 75759
L85124 75731
L85180 75703
L85321 75703
L85377 75731
L85405 75759
L85433 75815
L85433 75871
L85405 75956
L85068 76293
L85433 76293
" />
<path d="M85687 76068
L86136 76068
" />
<path d="M86727 76293
L86390 76293
" />
<path d="M86558 76293
L86558 75703
L86502 75787
L86446 75843
L86390 75871
" />
<path d="M87064 75956
L87008 75928
L86980 75899
L86952 75843
L86952 75815
L86980 75759
L87008 75731
L87064 75703
L87177 75703
L87233 75731
L87261 75759
L87289 75815
L87289 75843
L87261 75899
L87233 75928
L87177 75956
L87064 75956
L87008 75984
L86980 76012
L86952 76068
L86952 76181
L86980 76237
L87008 76265
L87064 76293
L87177 76293
L87233 76265
L87261 76237
L87289 76181
L87289 76068
L87261 76012
L87233 75984
L87177 75956
" />
</g>
<g style="fill:#000000; fill-opacity:0.0; 
stroke:#000000; stroke-width:39.3701; stroke-opacity:1; 
stroke-linecap:round; stroke-linejoin:round;">
</g>
<g style="fill:#000000; fill-opacity:0.0; 
stroke:#000000; stroke-width:59.0551; stroke-opacity:1; 
stroke-linecap:round; stroke-linejoin:round;">
<path d="M69685 76577
L112205 76577
" />
</g>
<g style="fill:#000000; fill-opacity:0.0; 
stroke:#000000; stroke-width:39.3701; stroke-opacity:1; 
stroke-linecap:round; stroke-linejoin:round;">
</g>
<g style="fill:#000000; fill-opacity:0.0; 
stroke:#000000; stroke-width:59.0551; stroke-opacity:1; 
stroke-linecap:round; stroke-linejoin:round;">
<path d="M70220 77395
L70220 76805
" />
<path d="M70557 77395
L70304 77058
" />
<path d="M70557 76805
L70220 77142
" />
<path d="M70810 77395
L70810 77002
" />
<path d="M70810 76805
L70782 76833
L70810 76861
L70838 76833
L70810 76805
L70810 76861
" />
<path d="M71429 77339
L71401 77367
L71316 77395
L71260 77395
L71176 77367
L71120 77311
L71091 77255
L71063 77142
L71063 77058
L71091 76946
L71120 76889
L71176 76833
L71260 76805
L71316 76805
L71401 76833
L71429 76861
" />
<path d="M71935 77395
L71935 77086
L71907 77030
L71851 77002
L71738 77002
L71682 77030
" />
<path d="M71935 77367
L71879 77395
L71738 77395
L71682 77367
L71654 77311
L71654 77255
L71682 77199
L71738 77171
L71879 77171
L71935 77142
" />
<path d="M72469 77395
L72469 76805
" />
<path d="M72469 77367
L72413 77395
L72301 77395
L72244 77367
L72216 77339
L72188 77283
L72188 77114
L72216 77058
L72244 77030
L72301 77002
L72413 77002
L72469 77030
" />
<path d="M73201 77086
L73397 77086
" />
<path d="M73482 77395
L73201 77395
L73201 76805
L73482 76805
" />
<path d="M73735 77339
L73763 77367
L73735 77395
L73707 77367
L73735 77339
L73735 77395
" />
<path d="M74016 77395
L74016 76805
L74157 76805
L74241 76833
L74297 76889
L74325 76946
L74354 77058
L74354 77142
L74325 77255
L74297 77311
L74241 77367
L74157 77395
L74016 77395
" />
<path d="M74607 77339
L74635 77367
L74607 77395
L74579 77367
L74607 77339
L74607 77395
" />
<path d="M74860 77227
L75141 77227
" />
<path d="M74804 77395
L75000 76805
L75197 77395
" />
<path d="M75394 77339
L75422 77367
L75394 77395
L75366 77367
L75394 77339
L75394 77395
" />
<path d="M76575 77395
L76575 76805
" />
<path d="M76631 77171
L76800 77395
" />
<path d="M76800 77002
L76575 77227
" />
<path d="M77053 77395
L77053 77002
" />
<path d="M77053 76805
L77025 76833
L77053 76861
L77081 76833
L77053 76805
L77053 76861
" />
<path d="M77588 77367
L77531 77395
L77419 77395
L77363 77367
L77334 77339
L77306 77283
L77306 77114
L77334 77058
L77363 77030
L77419 77002
L77531 77002
L77588 77030
" />
<path d="M78094 77395
L78094 77086
L78066 77030
L78009 77002
L77897 77002
L77841 77030
" />
<path d="M78094 77367
L78037 77395
L77897 77395
L77841 77367
L77813 77311
L77813 77255
L77841 77199
L77897 77171
L78037 77171
L78094 77142
" />
<path d="M78628 77395
L78628 76805
" />
<path d="M78628 77367
L78572 77395
L78459 77395
L78403 77367
L78375 77339
L78347 77283
L78347 77114
L78375 77058
L78403 77030
L78459 77002
L78572 77002
L78628 77030
" />
<path d="M79612 77002
L79612 77395
" />
<path d="M79472 76777
L79331 77199
L79697 77199
" />
<path d="M79922 77339
L79950 77367
L79922 77395
L79894 77367
L79922 77339
L79922 77395
" />
<path d="M80315 76805
L80372 76805
L80428 76833
L80456 76861
L80484 76917
L80512 77030
L80512 77171
L80484 77283
L80456 77339
L80428 77367
L80372 77395
L80315 77395
L80259 77367
L80231 77339
L80203 77283
L80175 77171
L80175 77030
L80203 76917
L80231 76861
L80259 76833
L80315 76805
" />
<path d="M80765 77339
L80793 77367
L80765 77395
L80737 77367
L80765 77339
L80765 77395
" />
<path d="M81356 77395
L81018 77395
" />
<path d="M81187 77395
L81187 76805
L81131 76889
L81075 76946
L81018 76974
" />
<path d="M81609 77171
L82059 77171
" />
<path d="M82312 77367
L82368 77395
L82481 77395
L82537 77367
L82565 77311
L82565 77283
L82537 77227
L82481 77199
L82396 77199
L82340 77171
L82312 77114
L82312 77086
L82340 77030
L82396 77002
L82481 77002
L82537 77030
" />
<path d="M82734 77002
L82959 77002
" />
<path d="M82818 76805
L82818 77311
L82846 77367
L82903 77395
L82959 77395
" />
<path d="M83409 77395
L83409 77086
L83381 77030
L83324 77002
L83212 77002
L83156 77030
" />
<path d="M83409 77367
L83352 77395
L83212 77395
L83156 77367
L83127 77311
L83127 77255
L83156 77199
L83212 77171
L83352 77171
L83409 77142
" />
<path d="M83690 77395
L83690 76805
" />
<path d="M83690 77030
L83746 77002
L83859 77002
L83915 77030
L83943 77058
L83971 77114
L83971 77283
L83943 77339
L83915 77367
L83859 77395
L83746 77395
L83690 77367
" />
<path d="M84309 77395
L84252 77367
L84224 77311
L84224 76805
" />
<path d="M84759 77367
L84702 77395
L84590 77395
L84534 77367
L84505 77311
L84505 77086
L84534 77030
L84590 77002
L84702 77002
L84759 77030
L84787 77086
L84787 77142
L84505 77199
" />
</g>
<g style="fill:#000000; fill-opacity:0.0; 
stroke:#000000; stroke-width:39.3701; stroke-opacity:1; 
stroke-linecap:round; stroke-linejoin:round;">
</g>
<g style="fill:#000000; fill-opacity:0.0; 
stroke:#000000; stroke-width:59.0551; stroke-opacity:1; 
stroke-linecap:round; stroke-linejoin:round;">
<path d="M69685 75396
L112205 75396
" />
</g>
<g style="fill:#000000; fill-opacity:0.0; 
stroke:#000000; stroke-width:39.3701; stroke-opacity:1; 
stroke-linecap:round; stroke-linejoin:round;">
</g>
<g style="fill:#000000; fill-opacity:0.0; 
stroke:#000000; stroke-width:118.11; stroke-opacity:1; 
stroke-linecap:round; stroke-linejoin:round;">
<path d="M104022 76293
L103825 76012
" />
<path d="M103684 76293
L103684 75703
L103909 75703
L103965 75731
L103994 75759
L104022 75815
L104022 75899
L103994 75956
L103965 75984
L103909 76012
L103684 76012
" />
<path d="M104500 76265
L104444 76293
L104331 76293
L104275 76265
L104247 76209
L104247 75984
L104275 75928
L104331 75899
L104444 75899
L104500 75928
L104528 75984
L104528 76040
L104247 76096
" />
<path d="M104725 75899
L104865 76293
L105006 75899
" />
<path d="M105231 76237
L105259 76265
L105231 76293
L105203 76265
L105231 76237
L105231 76293
" />
<path d="M105231 75928
L105259 75956
L105231 75984
L105203 75956
L105231 75928
L105231 75984
" />
<path d="M106075 75703
L106131 75703
L106187 75731
L106215 75759
L106243 75815
L106271 75928
L106271 76068
L106243 76181
L106215 76237
L106187 76265
L106131 76293
L106075 76293
L106018 76265
L105990 76237
L105962 76181
L105934 76068
L105934 75928
L105962 75815
L105990 75759
L106018 75731
L106075 75703
" />
<path d="M106525 76237
L106553 76265
L106525 76293
L106496 76265
L106525 76237
L106525 76293
" />
<path d="M107115 76293
L106778 76293
" />
<path d="M106946 76293
L106946 75703
L106890 75787
L106834 75843
L106778 75871
" />
</g>
<g style="fill:#000000; fill-opacity:0.0; 
stroke:#000000; stroke-width:39.3701; stroke-opacity:1; 
stroke-linecap:round; stroke-linejoin:round;">
</g>
<g style="fill:#000000; fill-opacity:0.0; 
stroke:#000000; stroke-width:59.0551; stroke-opacity:1; 
stroke-linecap:round; stroke-linejoin:round;">
<path d="M70192 76265
L70276 76293
L70417 76293
L70473 76265
L70501 76237
L70529 76181
L70529 76124
L70501 76068
L70473 76040
L70417 76012
L70304 75984
L70248 75956
L70220 75928
L70192 75871
L70192 75815
L70220 75759
L70248 75731
L70304 75703
L70445 75703
L70529 75731
" />
<path d="M70782 76293
L70782 75899
" />
<path d="M70782 75703
L70754 75731
L70782 75759
L70810 75731
L70782 75703
L70782 75759
" />
<path d="M71007 75899
L71316 75899
L71007 76293
L71316 76293
" />
<path d="M71766 76265
L71710 76293
L71598 76293
L71541 76265
L71513 76209
L71513 75984
L71541 75928
L71598 75899
L71710 75899
L71766 75928
L71795 75984
L71795 76040
L71513 76096
" />
<path d="M72048 76237
L72076 76265
L72048 76293
L72019 76265
L72048 76237
L72048 76293
" />
<path d="M72048 75928
L72076 75956
L72048 75984
L72019 75956
L72048 75928
L72048 75984
" />
<path d="M72751 76124
L73032 76124
" />
<path d="M72694 76293
L72891 75703
L73088 76293
" />
<path d="M73538 75899
L73538 76293
" />
<path d="M73397 75674
L73257 76096
L73622 76096
" />
</g>
<g style="fill:#000000; fill-opacity:0.0; 
stroke:#000000; stroke-width:39.3701; stroke-opacity:1; 
stroke-linecap:round; stroke-linejoin:round;">
</g>
<g style="fill:#000000; fill-opacity:0.0; 
stroke:#000000; stroke-width:59.0551; stroke-opacity:1; 
stroke-linecap:round; stroke-linejoin:round;">
<path d="M103684 77395
L103684 76805
" />
<path d="M104219 77395
L104219 76805
" />
<path d="M104219 77367
L104162 77395
L104050 77395
L103994 77367
L103965 77339
L103937 77283
L103937 77114
L103965 77058
L103994 77030
L104050 77002
L104162 77002
L104219 77030
" />
<path d="M104500 77339
L104528 77367
L104500 77395
L104472 77367
L104500 77339
L104500 77395
" />
<path d="M104500 77030
L104528 77058
L104500 77086
L104472 77058
L104500 77030
L104500 77086
" />
<path d="M105540 77395
L105203 77395
" />
<path d="M105372 77395
L105372 76805
L105315 76889
L105259 76946
L105203 76974
" />
<path d="M106215 76777
L105709 77536
" />
<path d="M106721 77395
L106384 77395
" />
<path d="M106553 77395
L106553 76805
L106496 76889
L106440 76946
L106384 76974
" />
</g>
<g style="fill:#000000; fill-opacity:0.0; 
stroke:#000000; stroke-width:39.3701; stroke-opacity:1; 
stroke-linecap:round; stroke-linejoin:round;">
</g>
<g style="fill:#000000; fill-opacity:0.0; 
stroke:#000000; stroke-width:59.0551; stroke-opacity:1; 
stroke-linecap:round; stroke-linejoin:round;">
<path d="M69685 73821
L112205 73821
" />
</g>
<g style="fill:#000000; fill-opacity:0.0; 
stroke:#000000; stroke-width:39.3701; stroke-opacity:1; 
stroke-linecap:round; stroke-linejoin:round;">
</g>
<g style="fill:#000000; fill-opacity:0.0; 
stroke:#000000; stroke-width:157.48; stroke-opacity:1; 
stroke-linecap:round; stroke-linejoin:round;">
<path d="M70257 74099
L70707 74099
" />
<path d="M70384 74886
L70482 74099
" />
<path d="M70871 74886
L70937 74361
" />
<path d="M70970 74099
L70927 74136
L70960 74174
L71002 74136
L70970 74099
L70960 74174
" />
<path d="M71199 74361
L71499 74361
" />
<path d="M71345 74099
L71260 74774
L71288 74849
L71359 74886
L71434 74886
" />
<path d="M71809 74886
L71738 74849
L71710 74774
L71795 74099
" />
<path d="M72413 74849
L72334 74886
L72184 74886
L72113 74849
L72085 74774
L72123 74474
L72169 74399
L72249 74361
L72399 74361
L72469 74399
L72498 74474
L72488 74549
L72104 74624
" />
<path d="M72793 74811
L72826 74849
L72783 74886
L72751 74849
L72793 74811
L72783 74886
" />
<path d="M72844 74399
L72877 74436
L72835 74474
L72802 74436
L72844 74399
L72835 74474
" />
<path d="M73758 74886
L73857 74099
L74044 74099
L74152 74136
L74218 74211
L74246 74286
L74265 74436
L74250 74549
L74194 74699
L74147 74774
L74063 74849
L73946 74886
L73758 74886
" />
<path d="M74546 74886
L74611 74361
" />
<path d="M74593 74511
L74639 74436
L74682 74399
L74761 74361
L74836 74361
" />
<path d="M75146 74886
L75075 74849
L75043 74811
L75014 74736
L75043 74511
L75089 74436
L75132 74399
L75211 74361
L75324 74361
L75394 74399
L75427 74436
L75455 74511
L75427 74736
L75380 74811
L75338 74849
L75258 74886
L75146 74886
" />
<path d="M75811 74361
L75713 75149
" />
<path d="M75807 74399
L75886 74361
L76036 74361
L76106 74399
L76139 74436
L76167 74511
L76139 74736
L76092 74811
L76050 74849
L75971 74886
L75821 74886
L75750 74849
" />
<path d="M76772 74474
L76880 74511
L76913 74549
L76941 74624
L76927 74736
L76880 74811
L76838 74849
L76758 74886
L76458 74886
L76556 74099
L76819 74099
L76889 74136
L76922 74174
L76950 74249
L76941 74324
L76894 74399
L76852 74436
L76772 74474
L76510 74474
" />
<path d="M77358 74886
L77288 74849
L77255 74811
L77227 74736
L77255 74511
L77302 74436
L77344 74399
L77424 74361
L77536 74361
L77606 74399
L77639 74436
L77667 74511
L77639 74736
L77592 74811
L77550 74849
L77470 74886
L77358 74886
" />
<path d="M77911 74361
L78211 74361
" />
<path d="M78056 74099
L77972 74774
L78000 74849
L78070 74886
L78145 74886
" />
<path d="M78961 74361
L79261 74361
" />
<path d="M79008 74886
L79092 74211
L79139 74136
L79219 74099
L79294 74099
" />
<path d="M79458 74886
L79523 74361
" />
<path d="M79504 74511
L79551 74436
L79594 74399
L79673 74361
L79748 74361
" />
<path d="M80058 74886
L79987 74849
L79954 74811
L79926 74736
L79954 74511
L80001 74436
L80043 74399
L80123 74361
L80236 74361
L80306 74399
L80339 74436
L80367 74511
L80339 74736
L80292 74811
L80250 74849
L80170 74886
L80058 74886
" />
<path d="M80723 74361
L80657 74886
" />
<path d="M80714 74436
L80756 74399
L80836 74361
L80948 74361
L81018 74399
L81046 74474
L80995 74886
" />
<path d="M81323 74361
L81623 74361
" />
<path d="M81468 74099
L81384 74774
L81412 74849
L81482 74886
L81557 74886
" />
<path d="M82485 74361
L82387 75149
" />
<path d="M82481 74399
L82560 74361
L82710 74361
L82781 74399
L82813 74436
L82842 74511
L82813 74736
L82767 74811
L82724 74849
L82645 74886
L82495 74886
L82424 74849
" />
<path d="M83470 74886
L83521 74474
L83493 74399
L83423 74361
L83273 74361
L83193 74399
" />
<path d="M83474 74849
L83395 74886
L83207 74886
L83137 74849
L83109 74774
L83118 74699
L83165 74624
L83245 74586
L83432 74586
L83512 74549
" />
<path d="M83910 74361
L83845 74886
" />
<path d="M83901 74436
L83943 74399
L84023 74361
L84135 74361
L84205 74399
L84234 74474
L84182 74886
" />
<path d="M84623 74361
L84557 74886
" />
<path d="M84613 74436
L84655 74399
L84735 74361
L84848 74361
L84918 74399
L84946 74474
L84894 74886
" />
<path d="M85574 74849
L85494 74886
L85344 74886
L85274 74849
L85246 74774
L85283 74474
L85330 74399
L85410 74361
L85560 74361
L85630 74399
L85658 74474
L85649 74549
L85265 74624
" />
<path d="M86057 74886
L85986 74849
L85958 74774
L86043 74099
" />
</g>
<g style="fill:#000000; fill-opacity:0.0; 
stroke:#000000; stroke-width:39.3701; stroke-opacity:1; 
stroke-linecap:round; stroke-linejoin:round;">
</g>
<g style="fill:#000000; fill-opacity:0.0; 
stroke:#000000; stroke-width:59.0551; stroke-opacity:1; 
stroke-linecap:round; stroke-linejoin:round;">
<path d="M70417 73070
L70220 73070
" />
<path d="M70220 73380
L70220 72789
L70501 72789
" />
<path d="M70726 73380
L70726 72986
" />
<path d="M70726 72789
L70698 72817
L70726 72845
L70754 72817
L70726 72789
L70726 72845
" />
<path d="M71091 73380
L71035 73352
L71007 73295
L71007 72789
" />
<path d="M71541 73352
L71485 73380
L71373 73380
L71316 73352
L71288 73295
L71288 73070
L71316 73014
L71373 72986
L71485 72986
L71541 73014
L71570 73070
L71570 73127
L71288 73183
" />
<path d="M71823 73323
L71851 73352
L71823 73380
L71795 73352
L71823 73323
L71823 73380
" />
<path d="M71823 73014
L71851 73042
L71823 73070
L71795 73042
L71823 73014
L71823 73070
" />
<path d="M72807 73380
L72807 72789
" />
<path d="M72807 73352
L72751 73380
L72638 73380
L72582 73352
L72554 73323
L72526 73267
L72526 73099
L72554 73042
L72582 73014
L72638 72986
L72751 72986
L72807 73014
" />
<path d="M73088 73380
L73088 72986
" />
<path d="M73088 73099
L73116 73042
L73144 73014
L73201 72986
L73257 72986
" />
<path d="M73538 73380
L73482 73352
L73454 73323
L73426 73267
L73426 73099
L73454 73042
L73482 73014
L73538 72986
L73622 72986
L73679 73014
L73707 73042
L73735 73099
L73735 73267
L73707 73323
L73679 73352
L73622 73380
L73538 73380
" />
<path d="M73988 72986
L73988 73577
" />
<path d="M73988 73014
L74044 72986
L74157 72986
L74213 73014
L74241 73042
L74269 73099
L74269 73267
L74241 73323
L74213 73352
L74157 73380
L74044 73380
L73988 73352
" />
<path d="M74522 73380
L74522 72789
" />
<path d="M74522 73014
L74579 72986
L74691 72986
L74747 73014
L74775 73042
L74804 73099
L74804 73267
L74775 73323
L74747 73352
L74691 73380
L74579 73380
L74522 73352
" />
<path d="M75141 73380
L75085 73352
L75057 73323
L75028 73267
L75028 73099
L75057 73042
L75085 73014
L75141 72986
L75225 72986
L75282 73014
L75310 73042
L75338 73099
L75338 73267
L75310 73323
L75282 73352
L75225 73380
L75141 73380
" />
<path d="M75507 72986
L75732 72986
" />
<path d="M75591 72789
L75591 73295
L75619 73352
L75675 73380
L75732 73380
" />
<path d="M75928 73155
L76378 73155
" />
<path d="M76575 72986
L76800 72986
" />
<path d="M76660 73380
L76660 72874
L76688 72817
L76744 72789
L76800 72789
" />
<path d="M76997 73380
L76997 72986
" />
<path d="M76997 73099
L77025 73042
L77053 73014
L77109 72986
L77166 72986
" />
<path d="M77447 73380
L77391 73352
L77363 73323
L77334 73267
L77334 73099
L77363 73042
L77391 73014
L77447 72986
L77531 72986
L77588 73014
L77616 73042
L77644 73099
L77644 73267
L77616 73323
L77588 73352
L77531 73380
L77447 73380
" />
<path d="M77897 72986
L77897 73380
" />
<path d="M77897 73042
L77925 73014
L77981 72986
L78066 72986
L78122 73014
L78150 73070
L78150 73380
" />
<path d="M78347 72986
L78572 72986
" />
<path d="M78431 72789
L78431 73295
L78459 73352
L78516 73380
L78572 73380
" />
<path d="M78769 73155
L79219 73155
" />
<path d="M79500 72986
L79500 73577
" />
<path d="M79500 73014
L79556 72986
L79669 72986
L79725 73014
L79753 73042
L79781 73099
L79781 73267
L79753 73323
L79725 73352
L79669 73380
L79556 73380
L79500 73352
" />
<path d="M80287 73380
L80287 73070
L80259 73014
L80203 72986
L80090 72986
L80034 73014
" />
<path d="M80287 73352
L80231 73380
L80090 73380
L80034 73352
L80006 73295
L80006 73239
L80034 73183
L80090 73155
L80231 73155
L80287 73127
" />
<path d="M80568 72986
L80568 73380
" />
<path d="M80568 73042
L80597 73014
L80653 72986
L80737 72986
L80793 73014
L80822 73070
L80822 73380
" />
<path d="M81103 72986
L81103 73380
" />
<path d="M81103 73042
L81131 73014
L81187 72986
L81271 72986
L81328 73014
L81356 73070
L81356 73380
" />
<path d="M81862 73352
L81806 73380
L81693 73380
L81637 73352
L81609 73295
L81609 73070
L81637 73014
L81693 72986
L81806 72986
L81862 73014
L81890 73070
L81890 73127
L81609 73183
" />
<path d="M82228 73380
L82171 73352
L82143 73295
L82143 72789
" />
<path d="M82453 73323
L82481 73352
L82453 73380
L82424 73352
L82453 73323
L82453 73380
" />
<path d="M82734 73380
L82734 72789
" />
<path d="M82790 73155
L82959 73380
" />
<path d="M82959 72986
L82734 73211
" />
<path d="M83212 73380
L83212 72986
" />
<path d="M83212 72789
L83184 72817
L83212 72845
L83240 72817
L83212 72789
L83212 72845
" />
<path d="M83746 73352
L83690 73380
L83577 73380
L83521 73352
L83493 73323
L83465 73267
L83465 73099
L83493 73042
L83521 73014
L83577 72986
L83690 72986
L83746 73014
" />
<path d="M84252 73380
L84252 73070
L84224 73014
L84168 72986
L84055 72986
L83999 73014
" />
<path d="M84252 73352
L84196 73380
L84055 73380
L83999 73352
L83971 73295
L83971 73239
L83999 73183
L84055 73155
L84196 73155
L84252 73127
" />
<path d="M84787 73380
L84787 72789
" />
<path d="M84787 73352
L84730 73380
L84618 73380
L84562 73352
L84534 73323
L84505 73267
L84505 73099
L84534 73042
L84562 73014
L84618 72986
L84730 72986
L84787 73014
" />
<path d="M84927 73436
L85377 73436
" />
<path d="M85518 72986
L85518 73577
" />
<path d="M85518 73014
L85574 72986
L85687 72986
L85743 73014
L85771 73042
L85799 73099
L85799 73267
L85771 73323
L85743 73352
L85687 73380
L85574 73380
L85518 73352
" />
<path d="M86305 73352
L86249 73380
L86136 73380
L86080 73352
L86052 73323
L86024 73267
L86024 73099
L86052 73042
L86080 73014
L86136 72986
L86249 72986
L86305 73014
" />
<path d="M86558 73380
L86558 72789
" />
<path d="M86558 73014
L86615 72986
L86727 72986
L86783 73014
L86811 73042
L86840 73099
L86840 73267
L86811 73323
L86783 73352
L86727 73380
L86615 73380
L86558 73352
" />
</g>
<g style="fill:#000000; fill-opacity:0.0; 
stroke:#000000; stroke-width:39.3701; stroke-opacity:1; 
stroke-linecap:round; stroke-linejoin:round;">
</g>
<g style="fill:#000000; fill-opacity:0.0; 
stroke:#000000; stroke-width:59.0551; stroke-opacity:1; 
stroke-linecap:round; stroke-linejoin:round;">
<path d="M69685 71459
L112205 71459
" />
</g>
<g style="fill:#000000; fill-opacity:0.0; 
stroke:#000000; stroke-width:39.3701; stroke-opacity:1; 
stroke-linecap:round; stroke-linejoin:round;">
</g>
<g style="fill:#000000; fill-opacity:0.0; 
stroke:#000000; stroke-width:59.0551; stroke-opacity:1; 
stroke-linecap:round; stroke-linejoin:round;">
<path d="M70192 72289
L70276 72317
L70417 72317
L70473 72289
L70501 72260
L70529 72204
L70529 72148
L70501 72092
L70473 72064
L70417 72036
L70304 72007
L70248 71979
L70220 71951
L70192 71895
L70192 71839
L70220 71782
L70248 71754
L70304 71726
L70445 71726
L70529 71754
" />
<path d="M70782 72317
L70782 71726
" />
<path d="M71035 72317
L71035 72007
L71007 71951
L70951 71923
L70867 71923
L70810 71951
L70782 71979
" />
<path d="M71541 72289
L71485 72317
L71373 72317
L71316 72289
L71288 72232
L71288 72007
L71316 71951
L71373 71923
L71485 71923
L71541 71951
L71570 72007
L71570 72064
L71288 72120
" />
<path d="M72048 72289
L71991 72317
L71879 72317
L71823 72289
L71795 72232
L71795 72007
L71823 71951
L71879 71923
L71991 71923
L72048 71951
L72076 72007
L72076 72064
L71795 72120
" />
<path d="M72244 71923
L72469 71923
" />
<path d="M72329 71726
L72329 72232
L72357 72289
L72413 72317
L72469 72317
" />
<path d="M72666 72260
L72694 72289
L72666 72317
L72638 72289
L72666 72260
L72666 72317
" />
<path d="M72666 71951
L72694 71979
L72666 72007
L72638 71979
L72666 71951
L72666 72007
" />
</g>
<g style="fill:#000000; fill-opacity:0.0; 
stroke:#000000; stroke-width:39.3701; stroke-opacity:1; 
stroke-linecap:round; stroke-linejoin:round;">
</g>
<g style="fill:#000000; fill-opacity:0.0; 
stroke:#000000; stroke-width:118.11; stroke-opacity:1; 
stroke-linecap:round; stroke-linejoin:round;">
<path d="M70192 71108
L70276 71136
L70417 71136
L70473 71108
L70501 71079
L70529 71023
L70529 70967
L70501 70911
L70473 70883
L70417 70854
L70304 70826
L70248 70798
L70220 70770
L70192 70714
L70192 70658
L70220 70601
L70248 70573
L70304 70545
L70445 70545
L70529 70573
" />
<path d="M71035 71108
L70979 71136
L70867 71136
L70810 71108
L70782 71079
L70754 71023
L70754 70854
L70782 70798
L70810 70770
L70867 70742
L70979 70742
L71035 70770
" />
<path d="M71288 71136
L71288 70742
" />
<path d="M71288 70545
L71260 70573
L71288 70601
L71316 70573
L71288 70545
L71288 70601
" />
<path d="M71570 70911
L72019 70911
" />
<path d="M72498 70826
L72582 70854
L72610 70883
L72638 70939
L72638 71023
L72610 71079
L72582 71108
L72526 71136
L72301 71136
L72301 70545
L72498 70545
L72554 70573
L72582 70601
L72610 70658
L72610 70714
L72582 70770
L72554 70798
L72498 70826
L72301 70826
" />
<path d="M72976 71136
L72919 71108
L72891 71079
L72863 71023
L72863 70854
L72891 70798
L72919 70770
L72976 70742
L73060 70742
L73116 70770
L73144 70798
L73172 70854
L73172 71023
L73144 71079
L73116 71108
L73060 71136
L72976 71136
" />
<path d="M73341 70742
L73566 70742
" />
<path d="M73426 70545
L73426 71051
L73454 71108
L73510 71136
L73566 71136
" />
<path d="M73735 71108
L73791 71136
L73904 71136
L73960 71108
L73988 71051
L73988 71023
L73960 70967
L73904 70939
L73819 70939
L73763 70911
L73735 70854
L73735 70826
L73763 70770
L73819 70742
L73904 70742
L73960 70770
" />
<path d="M74691 71136
L74691 70545
" />
<path d="M74972 70742
L74972 71136
" />
<path d="M74972 70798
L75000 70770
L75057 70742
L75141 70742
L75197 70770
L75225 70826
L75225 71136
" />
<path d="M75760 71108
L75703 71136
L75591 71136
L75535 71108
L75507 71079
L75478 71023
L75478 70854
L75507 70798
L75535 70770
L75591 70742
L75703 70742
L75760 70770
" />
<path d="M76013 71079
L76041 71108
L76013 71136
L75985 71108
L76013 71079
L76013 71136
" />
</g>
<g style="fill:#000000; fill-opacity:0.0; 
stroke:#000000; stroke-width:39.3701; stroke-opacity:1; 
stroke-linecap:round; stroke-linejoin:round;">
</g>
<g style="fill:#000000; fill-opacity:0.0; 
stroke:#000000; stroke-width:59.0551; stroke-opacity:1; 
stroke-linecap:round; stroke-linejoin:round;">
<path d="M77559 75396
L77559 76577
" />
</g>
<g style="fill:#000000; fill-opacity:0.0; 
stroke:#000000; stroke-width:39.3701; stroke-opacity:1; 
stroke-linecap:round; stroke-linejoin:round;">
</g>
<g style="fill:#000000; fill-opacity:0.0; 
stroke:#000000; stroke-width:59.0551; stroke-opacity:1; 
stroke-linecap:round; stroke-linejoin:round;">
<path d="M102756 75396
L102756 77955
" />
<path d="M60685 35732
L58952 35732
" />
<path d="M58952 35732
L58952 39370
" />
<path d="M19788 35732
L19788 39370
" />
<path d="M18055 35732
L19788 35732
" />
<path d="M60685 35732
L60685 12303
" />
<path d="M18055 35732
L18055 12303
" />
<path d="M58952 39370
L19788 39370
" />
<path d="M18055 12303
L60685 12303
" />
</g>
<g style="fill:#000000; fill-opacity:1.0; 
stroke:#000000; stroke-width:0; stroke-opacity:1; 
stroke-linecap:round; stroke-linejoin:round;">
<circle cx="25027.6" cy="19094.5" r="374.016" /> 
</g>
<g style="fill:#000000; fill-opacity:1.0; 
stroke:#000000; stroke-width:39.3701; stroke-opacity:1; 
stroke-linecap:round; stroke-linejoin:round;">
</g>
<g style="fill:#000000; fill-opacity:1.0; 
stroke:#000000; stroke-width:0; stroke-opacity:1; 
stroke-linecap:round; stroke-linejoin:round;">
<circle cx="24027.6" cy="19094.5" r="374.016" /> 
</g>
<g style="fill:#000000; fill-opacity:1.0; 
stroke:#000000; stroke-width:39.3701; stroke-opacity:1; 
stroke-linecap:round; stroke-linejoin:round;">
</g>
<g style="fill:#000000; fill-opacity:1.0; 
stroke:#000000; stroke-width:0; stroke-opacity:1; 
stroke-linecap:round; stroke-linejoin:round;">
<circle cx="23228.3" cy="19094.5" r="374.016" /> 
</g>
<g style="fill:#000000; fill-opacity:1.0; 
stroke:#000000; stroke-width:39.3701; stroke-opacity:1; 
stroke-linecap:round; stroke-linejoin:round;">
</g>
<g style="fill:#000000; fill-opacity:1.0; 
stroke:#000000; stroke-width:0; stroke-opacity:1; 
stroke-linecap:round; stroke-linejoin:round;">
<circle cx="22228.3" cy="19094.5" r="374.016" /> 
</g>
<g style="fill:#000000; fill-opacity:1.0; 
stroke:#000000; stroke-width:39.3701; stroke-opacity:1; 
stroke-linecap:round; stroke-linejoin:round;">
</g>
<g style="fill:#000000; fill-opacity:1.0; 
stroke:#000000; stroke-width:0; stroke-opacity:1; 
stroke-linecap:round; stroke-linejoin:round;">
<circle cx="26228.3" cy="20145.7" r="669.291" /> 
</g>
<g style="fill:#000000; fill-opacity:1.0; 
stroke:#000000; stroke-width:39.3701; stroke-opacity:1; 
stroke-linecap:round; stroke-linejoin:round;">
</g>
<g style="fill:#000000; fill-opacity:1.0; 
stroke:#000000; stroke-width:0; stroke-opacity:1; 
stroke-linecap:round; stroke-linejoin:round;">
<circle cx="20826.8" cy="20145.7" r="669.291" /> 
</g>
<g style="fill:#000000; fill-opacity:1.0; 
stroke:#000000; stroke-width:39.3701; stroke-opacity:1; 
stroke-linecap:round; stroke-linejoin:round;">
</g>
<g style="fill:#000000; fill-opacity:1.0; 
stroke:#000000; stroke-width:0; stroke-opacity:1; 
stroke-linecap:round; stroke-linejoin:round;">
<polyline style="fill-rule:evenodd;"
points="59285,20851
59285,20014
60242,20014
60242,20851
59285,20851
" /> 
</g>
<g style="fill:#000000; fill-opacity:1.0; 
stroke:#000000; stroke-width:837.48; stroke-opacity:1; 
stroke-linecap:round; stroke-linejoin:round;">
</g>
<g style="fill:#000000; fill-opacity:0.0; 
stroke:#000000; stroke-width:837.48; stroke-opacity:1; 
stroke-linecap:round; stroke-linejoin:round;">
<path d="M59703 21433
L59823 21433
" />
<path d="M59703 22433
L59823 22433
" />
</g>
<g style="fill:#000000; fill-opacity:0.0; 
stroke:#000000; stroke-width:0; stroke-opacity:1; 
stroke-linecap:round; stroke-linejoin:round;">
</g>
<g style="fill:#000000; fill-opacity:1.0; 
stroke:#000000; stroke-width:0; stroke-opacity:1; 
stroke-linecap:round; stroke-linejoin:round;">
<polyline style="fill-rule:evenodd;"
points="29436,15399
29436,14791
29883,14791
29883,15399
29436,15399
" /> 
<polyline style="fill-rule:evenodd;"
points="29436,15999
29436,15391
29883,15391
29883,15999
29436,15999
" /> 
<polyline style="fill-rule:evenodd;"
points="28936,15399
28936,14791
29383,14791
29383,15399
28936,15399
" /> 
<polyline style="fill-rule:evenodd;"
points="28936,15999
28936,15391
29383,15391
29383,15999
28936,15999
" /> 
<polyline style="fill-rule:evenodd;"
points="28436,15399
28436,14791
28883,14791
28883,15399
28436,15399
" /> 
<polyline style="fill-rule:evenodd;"
points="28436,15999
28436,15391
28883,15391
28883,15999
28436,15999
" /> 
<polyline style="fill-rule:evenodd;"
points="27936,15399
27936,14791
28383,14791
28383,15399
27936,15399
" /> 
<polyline style="fill-rule:evenodd;"
points="27936,15999
27936,15391
28383,15391
28383,15999
27936,15999
" /> 
<polyline style="fill-rule:evenodd;"
points="27436,15399
27436,14791
27883,14791
27883,15399
27436,15399
" /> 
<polyline style="fill-rule:evenodd;"
points="27436,15999
27436,15391
27883,15391
27883,15999
27436,15999
" /> 
<polyline style="fill-rule:evenodd;"
points="26936,15399
26936,14791
27383,14791
27383,15399
26936,15399
" /> 
<polyline style="fill-rule:evenodd;"
points="26936,15999
26936,15391
27383,15391
27383,15999
26936,15999
" /> 
<polyline style="fill-rule:evenodd;"
points="26436,15399
26436,14791
26883,14791
26883,15399
26436,15399
" /> 
<polyline style="fill-rule:evenodd;"
points="26436,15999
26436,15391
26883,15391
26883,15999
26436,15999
" /> 
<polyline style="fill-rule:evenodd;"
points="25936,15399
25936,14791
26383,14791
26383,15399
25936,15399
" /> 
<polyline style="fill-rule:evenodd;"
points="25936,15999
25936,15391
26383,15391
26383,15999
25936,15999
" /> 
<polyline style="fill-rule:evenodd;"
points="25436,15399
25436,14791
25883,14791
25883,15399
25436,15399
" /> 
<polyline style="fill-rule:evenodd;"
points="25436,15999
25436,15391
25883,15391
25883,15999
25436,15999
" /> 
<polyline style="fill-rule:evenodd;"
points="24936,15399
24936,14791
25383,14791
25383,15399
24936,15399
" /> 
<polyline style="fill-rule:evenodd;"
points="24936,15999
24936,15391
25383,15391
25383,15999
24936,15999
" /> 
<polyline style="fill-rule:evenodd;"
points="24436,15399
24436,14791
24883,14791
24883,15399
24436,15399
" /> 
<polyline style="fill-rule:evenodd;"
points="24436,15999
24436,15391
24883,15391
24883,15999
24436,15999
" /> 
<polyline style="fill-rule:evenodd;"
points="23936,15399
23936,14791
24383,14791
24383,15399
23936,15399
" /> 
<polyline style="fill-rule:evenodd;"
points="23936,15999
23936,15391
24383,15391
24383,15999
23936,15999
" /> 
<polyline style="fill-rule:evenodd;"
points="23436,15399
23436,14791
23883,14791
23883,15399
23436,15399
" /> 
<polyline style="fill-rule:evenodd;"
points="23436,15999
23436,15391
23883,15391
23883,15999
23436,15999
" /> 
<polyline style="fill-rule:evenodd;"
points="22936,15399
22936,14791
23383,14791
23383,15399
22936,15399
" /> 
<polyline style="fill-rule:evenodd;"
points="22936,15999
22936,15391
23383,15391
23383,15999
22936,15999
" /> 
<polyline style="fill-rule:evenodd;"
points="22436,15399
22436,14791
22883,14791
22883,15399
22436,15399
" /> 
<polyline style="fill-rule:evenodd;"
points="22436,15999
22436,15391
22883,15391
22883,15999
22436,15999
" /> 
<polyline style="fill-rule:evenodd;"
points="21936,15399
21936,14791
22383,14791
22383,15399
21936,15399
" /> 
<polyline style="fill-rule:evenodd;"
points="21936,15999
21936,15391
22383,15391
22383,15999
21936,15999
" /> 
<polyline style="fill-rule:evenodd;"
points="21436,15399
21436,14791
21883,14791
21883,15399
21436,15399
" /> 
<polyline style="fill-rule:evenodd;"
points="21436,15999
21436,15391
21883,15391
21883,15999
21436,15999
" /> 
<polyline style="fill-rule:evenodd;"
points="20936,15399
20936,14791
21383,14791
21383,15399
20936,15399
" /> 
<polyline style="fill-rule:evenodd;"
points="20936,15999
20936,15391
21383,15391
21383,15999
20936,15999
" /> 
<polyline style="fill-rule:evenodd;"
points="20436,15399
20436,14791
20883,14791
20883,15399
20436,15399
" /> 
<polyline style="fill-rule:evenodd;"
points="20436,15999
20436,15391
20883,15391
20883,15999
20436,15999
" /> 
<polyline style="fill-rule:evenodd;"
points="19936,15399
19936,14791
20383,14791
20383,15399
19936,15399
" /> 
<polyline style="fill-rule:evenodd;"
points="19936,15999
19936,15391
20383,15391
20383,15999
19936,15999
" /> 
<circle cx="30680.1" cy="13085.4" r="328.74" /> 
</g>
<g style="fill:#000000; fill-opacity:1.0; 
stroke:#000000; stroke-width:39.3701; stroke-opacity:1; 
stroke-linecap:round; stroke-linejoin:round;">
</g>
<g style="fill:#000000; fill-opacity:1.0; 
stroke:#000000; stroke-width:0; stroke-opacity:1; 
stroke-linecap:round; stroke-linejoin:round;">
<circle cx="19140.1" cy="13085.4" r="328.74" /> 
</g>
<g style="fill:#000000; fill-opacity:1.0; 
stroke:#000000; stroke-width:39.3701; stroke-opacity:1; 
stroke-linecap:round; stroke-linejoin:round;">
</g>
<g style="fill:#000000; fill-opacity:1.0; 
stroke:#000000; stroke-width:0; stroke-opacity:1; 
stroke-linecap:round; stroke-linejoin:round;">
<circle cx="30680.1" cy="13975.4" r="328.74" /> 
</g>
<g style="fill:#000000; fill-opacity:1.0; 
stroke:#000000; stroke-width:39.3701; stroke-opacity:1; 
stroke-linecap:round; stroke-linejoin:round;">
</g>
<g style="fill:#000000; fill-opacity:1.0; 
stroke:#000000; stroke-width:0; stroke-opacity:1; 
stroke-linecap:round; stroke-linejoin:round;">
<circle cx="19140.1" cy="13975.4" r="328.74" /> 
</g>
<g style="fill:#000000; fill-opacity:1.0; 
stroke:#000000; stroke-width:39.3701; stroke-opacity:1; 
stroke-linecap:round; stroke-linejoin:round;">
</g>
<g style="fill:#000000; fill-opacity:1.0; 
stroke:#000000; stroke-width:0; stroke-opacity:1; 
stroke-linecap:round; stroke-linejoin:round;">
<polyline style="fill-rule:evenodd;"
points="58356,15399
58356,14791
58803,14791
58803,15399
58356,15399
" /> 
<polyline style="fill-rule:evenodd;"
points="58356,15999
58356,15391
58803,15391
58803,15999
58356,15999
" /> 
<polyline style="fill-rule:evenodd;"
points="57856,15399
57856,14791
58303,14791
58303,15399
57856,15399
" /> 
<polyline style="fill-rule:evenodd;"
points="57856,15999
57856,15391
58303,15391
58303,15999
57856,15999
" /> 
<polyline style="fill-rule:evenodd;"
points="57356,15399
57356,14791
57803,14791
57803,15399
57356,15399
" /> 
<polyline style="fill-rule:evenodd;"
points="57356,15999
57356,15391
57803,15391
57803,15999
57356,15999
" /> 
<polyline style="fill-rule:evenodd;"
points="56856,15399
56856,14791
57303,14791
57303,15399
56856,15399
" /> 
<polyline style="fill-rule:evenodd;"
points="56856,15999
56856,15391
57303,15391
57303,15999
56856,15999
" /> 
<polyline style="fill-rule:evenodd;"
points="56356,15399
56356,14791
56803,14791
56803,15399
56356,15399
" /> 
<polyline style="fill-rule:evenodd;"
points="56356,15999
56356,15391
56803,15391
56803,15999
56356,15999
" /> 
<polyline style="fill-rule:evenodd;"
points="55856,15399
55856,14791
56303,14791
56303,15399
55856,15399
" /> 
<polyline style="fill-rule:evenodd;"
points="55856,15999
55856,15391
56303,15391
56303,15999
55856,15999
" /> 
<polyline style="fill-rule:evenodd;"
points="55356,15399
55356,14791
55803,14791
55803,15399
55356,15399
" /> 
<polyline style="fill-rule:evenodd;"
points="55356,15999
55356,15391
55803,15391
55803,15999
55356,15999
" /> 
<polyline style="fill-rule:evenodd;"
points="54856,15399
54856,14791
55303,14791
55303,15399
54856,15399
" /> 
<polyline style="fill-rule:evenodd;"
points="54856,15999
54856,15391
55303,15391
55303,15999
54856,15999
" /> 
<polyline style="fill-rule:evenodd;"
points="54356,15399
54356,14791
54803,14791
54803,15399
54356,15399
" /> 
<polyline style="fill-rule:evenodd;"
points="54356,15999
54356,15391
54803,15391
54803,15999
54356,15999
" /> 
<polyline style="fill-rule:evenodd;"
points="53856,15399
53856,14791
54303,14791
54303,15399
53856,15399
" /> 
<polyline style="fill-rule:evenodd;"
points="53856,15999
53856,15391
54303,15391
54303,15999
53856,15999
" /> 
<polyline style="fill-rule:evenodd;"
points="53356,15399
53356,14791
53803,14791
53803,15399
53356,15399
" /> 
<polyline style="fill-rule:evenodd;"
points="53356,15999
53356,15391
53803,15391
53803,15999
53356,15999
" /> 
<polyline style="fill-rule:evenodd;"
points="52856,15399
52856,14791
53303,14791
53303,15399
52856,15399
" /> 
<polyline style="fill-rule:evenodd;"
points="52856,15999
52856,15391
53303,15391
53303,15999
52856,15999
" /> 
<polyline style="fill-rule:evenodd;"
points="52356,15399
52356,14791
52803,14791
52803,15399
52356,15399
" /> 
<polyline style="fill-rule:evenodd;"
points="52356,15999
52356,15391
52803,15391
52803,15999
52356,15999
" /> 
<polyline style="fill-rule:evenodd;"
points="51856,15399
51856,14791
52303,14791
52303,15399
51856,15399
" /> 
<polyline style="fill-rule:evenodd;"
points="51856,15999
51856,15391
52303,15391
52303,15999
51856,15999
" /> 
<polyline style="fill-rule:evenodd;"
points="51356,15399
51356,14791
51803,14791
51803,15399
51356,15399
" /> 
<polyline style="fill-rule:evenodd;"
points="51356,15999
51356,15391
51803,15391
51803,15999
51356,15999
" /> 
<polyline style="fill-rule:evenodd;"
points="50856,15399
50856,14791
51303,14791
51303,15399
50856,15399
" /> 
<polyline style="fill-rule:evenodd;"
points="50856,15999
50856,15391
51303,15391
51303,15999
50856,15999
" /> 
<polyline style="fill-rule:evenodd;"
points="50356,15399
50356,14791
50803,14791
50803,15399
50356,15399
" /> 
<polyline style="fill-rule:evenodd;"
points="50356,15999
50356,15391
50803,15391
50803,15999
50356,15999
" /> 
<polyline style="fill-rule:evenodd;"
points="49856,15399
49856,14791
50303,14791
50303,15399
49856,15399
" /> 
<polyline style="fill-rule:evenodd;"
points="49856,15999
49856,15391
50303,15391
50303,15999
49856,15999
" /> 
<polyline style="fill-rule:evenodd;"
points="49356,15399
49356,14791
49803,14791
49803,15399
49356,15399
" /> 
<polyline style="fill-rule:evenodd;"
points="49356,15999
49356,15391
49803,15391
49803,15999
49356,15999
" /> 
<polyline style="fill-rule:evenodd;"
points="48856,15399
48856,14791
49303,14791
49303,15399
48856,15399
" /> 
<polyline style="fill-rule:evenodd;"
points="48856,15999
48856,15391
49303,15391
49303,15999
48856,15999
" /> 
<circle cx="59600.1" cy="13085.4" r="328.74" /> 
</g>
<g style="fill:#000000; fill-opacity:1.0; 
stroke:#000000; stroke-width:39.3701; stroke-opacity:1; 
stroke-linecap:round; stroke-linejoin:round;">
</g>
<g style="fill:#000000; fill-opacity:1.0; 
stroke:#000000; stroke-width:0; stroke-opacity:1; 
stroke-linecap:round; stroke-linejoin:round;">
<circle cx="48060.1" cy="13085.4" r="328.74" /> 
</g>
<g style="fill:#000000; fill-opacity:1.0; 
stroke:#000000; stroke-width:39.3701; stroke-opacity:1; 
stroke-linecap:round; stroke-linejoin:round;">
</g>
<g style="fill:#000000; fill-opacity:1.0; 
stroke:#000000; stroke-width:0; stroke-opacity:1; 
stroke-linecap:round; stroke-linejoin:round;">
<circle cx="59600.1" cy="13975.4" r="328.74" /> 
</g>
<g style="fill:#000000; fill-opacity:1.0; 
stroke:#000000; stroke-width:39.3701; stroke-opacity:1; 
stroke-linecap:round; stroke-linejoin:round;">
</g>
<g style="fill:#000000; fill-opacity:1.0; 
stroke:#000000; stroke-width:0; stroke-opacity:1; 
stroke-linecap:round; stroke-linejoin:round;">
<circle cx="48060.1" cy="13975.4" r="328.74" /> 
</g>
<g style="fill:#000000; fill-opacity:1.0; 
stroke:#000000; stroke-width:39.3701; stroke-opacity:1; 
stroke-linecap:round; stroke-linejoin:round;">
</g>
<g style="fill:#000000; fill-opacity:1.0; 
stroke:#000000; stroke-width:0; stroke-opacity:1; 
stroke-linecap:round; stroke-linejoin:round;">
<polyline style="fill-rule:evenodd;"
points="51035,19210
51035,18179
51482,18179
51482,19210
51035,19210
" /> 
<polyline style="fill-rule:evenodd;"
points="51035,20284
51035,19253
51482,19253
51482,20284
51035,20284
" /> 
<polyline style="fill-rule:evenodd;"
points="51535,19210
51535,18179
51982,18179
51982,19210
51535,19210
" /> 
<polyline style="fill-rule:evenodd;"
points="51535,20284
51535,19253
51982,19253
51982,20284
51535,20284
" /> 
<polyline style="fill-rule:evenodd;"
points="53035,20284
53035,19253
53482,19253
53482,20284
53035,20284
" /> 
<polyline style="fill-rule:evenodd;"
points="53035,19210
53035,18179
53482,18179
53482,19210
53035,19210
" /> 
<polyline style="fill-rule:evenodd;"
points="52535,20284
52535,19253
52982,19253
52982,20284
52535,20284
" /> 
<polyline style="fill-rule:evenodd;"
points="52535,19210
52535,18179
52982,18179
52982,19210
52535,19210
" /> 
<polyline style="fill-rule:evenodd;"
points="52035,20284
52035,19253
52482,19253
52482,20284
52035,20284
" /> 
<polyline style="fill-rule:evenodd;"
points="52035,19210
52035,18179
52482,18179
52482,19210
52035,19210
" /> 
<polyline style="fill-rule:evenodd;"
points="42598,25638
42598,24607
43045,24607
43045,25638
42598,25638
" /> 
<polyline style="fill-rule:evenodd;"
points="42598,24564
42598,23533
43045,23533
43045,24564
42598,24564
" /> 
<polyline style="fill-rule:evenodd;"
points="46098,25638
46098,24607
46545,24607
46545,25638
46098,25638
" /> 
<polyline style="fill-rule:evenodd;"
points="46098,24564
46098,23533
46545,23533
46545,24564
46098,24564
" /> 
<polyline style="fill-rule:evenodd;"
points="45598,25638
45598,24607
46045,24607
46045,25638
45598,25638
" /> 
<polyline style="fill-rule:evenodd;"
points="45598,24564
45598,23533
46045,23533
46045,24564
45598,24564
" /> 
<polyline style="fill-rule:evenodd;"
points="45098,25638
45098,24607
45545,24607
45545,25638
45098,25638
" /> 
<polyline style="fill-rule:evenodd;"
points="45098,24564
45098,23533
45545,23533
45545,24564
45098,24564
" /> 
<polyline style="fill-rule:evenodd;"
points="44598,25638
44598,24607
45045,24607
45045,25638
44598,25638
" /> 
<polyline style="fill-rule:evenodd;"
points="44598,24564
44598,23533
45045,23533
45045,24564
44598,24564
" /> 
<polyline style="fill-rule:evenodd;"
points="49598,24564
49598,23533
50045,23533
50045,24564
49598,24564
" /> 
<polyline style="fill-rule:evenodd;"
points="49598,25638
49598,24607
50045,24607
50045,25638
49598,25638
" /> 
<polyline style="fill-rule:evenodd;"
points="50098,24564
50098,23533
50545,23533
50545,24564
50098,24564
" /> 
<polyline style="fill-rule:evenodd;"
points="50098,25638
50098,24607
50545,24607
50545,25638
50098,25638
" /> 
<polyline style="fill-rule:evenodd;"
points="50598,24564
50598,23533
51045,23533
51045,24564
50598,24564
" /> 
<polyline style="fill-rule:evenodd;"
points="50598,25638
50598,24607
51045,24607
51045,25638
50598,25638
" /> 
<polyline style="fill-rule:evenodd;"
points="51098,24564
51098,23533
51545,23533
51545,24564
51098,24564
" /> 
<polyline style="fill-rule:evenodd;"
points="51098,25638
51098,24607
51545,24607
51545,25638
51098,25638
" /> 
<polyline style="fill-rule:evenodd;"
points="51598,24564
51598,23533
52045,23533
52045,24564
51598,24564
" /> 
<polyline style="fill-rule:evenodd;"
points="51598,25638
51598,24607
52045,24607
52045,25638
51598,25638
" /> 
<polyline style="fill-rule:evenodd;"
points="42098,24564
42098,23533
42545,23533
42545,24564
42098,24564
" /> 
<polyline style="fill-rule:evenodd;"
points="42098,25638
42098,24607
42545,24607
42545,25638
42098,25638
" /> 
<polyline style="fill-rule:evenodd;"
points="43098,24564
43098,23533
43545,23533
43545,24564
43098,24564
" /> 
<polyline style="fill-rule:evenodd;"
points="43098,25638
43098,24607
43545,24607
43545,25638
43098,25638
" /> 
<polyline style="fill-rule:evenodd;"
points="43598,24564
43598,23533
44045,23533
44045,24564
43598,24564
" /> 
<polyline style="fill-rule:evenodd;"
points="43598,25638
43598,24607
44045,24607
44045,25638
43598,25638
" /> 
<polyline style="fill-rule:evenodd;"
points="44098,24564
44098,23533
44545,23533
44545,24564
44098,24564
" /> 
<polyline style="fill-rule:evenodd;"
points="44098,25638
44098,24607
44545,24607
44545,25638
44098,25638
" /> 
<polyline style="fill-rule:evenodd;"
points="46598,24564
46598,23533
47045,23533
47045,24564
46598,24564
" /> 
<polyline style="fill-rule:evenodd;"
points="46598,25638
46598,24607
47045,24607
47045,25638
46598,25638
" /> 
<polyline style="fill-rule:evenodd;"
points="54098,25638
54098,24607
54545,24607
54545,25638
54098,25638
" /> 
<polyline style="fill-rule:evenodd;"
points="54098,24564
54098,23533
54545,23533
54545,24564
54098,24564
" /> 
<polyline style="fill-rule:evenodd;"
points="53598,25638
53598,24607
54045,24607
54045,25638
53598,25638
" /> 
<polyline style="fill-rule:evenodd;"
points="53598,24564
53598,23533
54045,23533
54045,24564
53598,24564
" /> 
<polyline style="fill-rule:evenodd;"
points="53098,25638
53098,24607
53545,24607
53545,25638
53098,25638
" /> 
<polyline style="fill-rule:evenodd;"
points="53098,24564
53098,23533
53545,23533
53545,24564
53098,24564
" /> 
<polyline style="fill-rule:evenodd;"
points="52598,25638
52598,24607
53045,24607
53045,25638
52598,25638
" /> 
<polyline style="fill-rule:evenodd;"
points="52598,24564
52598,23533
53045,23533
53045,24564
52598,24564
" /> 
<polyline style="fill-rule:evenodd;"
points="52098,25638
52098,24607
52545,24607
52545,25638
52098,25638
" /> 
<polyline style="fill-rule:evenodd;"
points="52098,24564
52098,23533
52545,23533
52545,24564
52098,24564
" /> 
<polyline style="fill-rule:evenodd;"
points="49098,25638
49098,24607
49545,24607
49545,25638
49098,25638
" /> 
<polyline style="fill-rule:evenodd;"
points="49098,24564
49098,23533
49545,23533
49545,24564
49098,24564
" /> 
<polyline style="fill-rule:evenodd;"
points="48598,25638
48598,24607
49045,24607
49045,25638
48598,25638
" /> 
<polyline style="fill-rule:evenodd;"
points="48598,24564
48598,23533
49045,23533
49045,24564
48598,24564
" /> 
<polyline style="fill-rule:evenodd;"
points="48098,25638
48098,24607
48545,24607
48545,25638
48098,25638
" /> 
<polyline style="fill-rule:evenodd;"
points="48098,24564
48098,23533
48545,23533
48545,24564
48098,24564
" /> 
<polyline style="fill-rule:evenodd;"
points="47598,25638
47598,24607
48045,24607
48045,25638
47598,25638
" /> 
<polyline style="fill-rule:evenodd;"
points="47598,24564
47598,23533
48045,23533
48045,24564
47598,24564
" /> 
<polyline style="fill-rule:evenodd;"
points="47098,25638
47098,24607
47545,24607
47545,25638
47098,25638
" /> 
<polyline style="fill-rule:evenodd;"
points="47098,24564
47098,23533
47545,23533
47545,24564
47098,24564
" /> 
<polyline style="fill-rule:evenodd;"
points="42598,30993
42598,29961
43045,29961
43045,30993
42598,30993
" /> 
<polyline style="fill-rule:evenodd;"
points="42598,29919
42598,28887
43045,28887
43045,29919
42598,29919
" /> 
<polyline style="fill-rule:evenodd;"
points="46098,30993
46098,29961
46545,29961
46545,30993
46098,30993
" /> 
<polyline style="fill-rule:evenodd;"
points="46098,29919
46098,28887
46545,28887
46545,29919
46098,29919
" /> 
<polyline style="fill-rule:evenodd;"
points="45598,30993
45598,29961
46045,29961
46045,30993
45598,30993
" /> 
<polyline style="fill-rule:evenodd;"
points="45598,29919
45598,28887
46045,28887
46045,29919
45598,29919
" /> 
<polyline style="fill-rule:evenodd;"
points="45098,30993
45098,29961
45545,29961
45545,30993
45098,30993
" /> 
<polyline style="fill-rule:evenodd;"
points="45098,29919
45098,28887
45545,28887
45545,29919
45098,29919
" /> 
<polyline style="fill-rule:evenodd;"
points="44598,30993
44598,29961
45045,29961
45045,30993
44598,30993
" /> 
<polyline style="fill-rule:evenodd;"
points="44598,29919
44598,28887
45045,28887
45045,29919
44598,29919
" /> 
<polyline style="fill-rule:evenodd;"
points="49598,29919
49598,28887
50045,28887
50045,29919
49598,29919
" /> 
<polyline style="fill-rule:evenodd;"
points="49598,30993
49598,29961
50045,29961
50045,30993
49598,30993
" /> 
<polyline style="fill-rule:evenodd;"
points="50098,29919
50098,28887
50545,28887
50545,29919
50098,29919
" /> 
<polyline style="fill-rule:evenodd;"
points="50098,30993
50098,29961
50545,29961
50545,30993
50098,30993
" /> 
<polyline style="fill-rule:evenodd;"
points="50598,29919
50598,28887
51045,28887
51045,29919
50598,29919
" /> 
<polyline style="fill-rule:evenodd;"
points="50598,30993
50598,29961
51045,29961
51045,30993
50598,30993
" /> 
<polyline style="fill-rule:evenodd;"
points="51098,29919
51098,28887
51545,28887
51545,29919
51098,29919
" /> 
<polyline style="fill-rule:evenodd;"
points="51098,30993
51098,29961
51545,29961
51545,30993
51098,30993
" /> 
<polyline style="fill-rule:evenodd;"
points="51598,29919
51598,28887
52045,28887
52045,29919
51598,29919
" /> 
<polyline style="fill-rule:evenodd;"
points="51598,30993
51598,29961
52045,29961
52045,30993
51598,30993
" /> 
<polyline style="fill-rule:evenodd;"
points="42098,29919
42098,28887
42545,28887
42545,29919
42098,29919
" /> 
<polyline style="fill-rule:evenodd;"
points="42098,30993
42098,29961
42545,29961
42545,30993
42098,30993
" /> 
<polyline style="fill-rule:evenodd;"
points="43098,29919
43098,28887
43545,28887
43545,29919
43098,29919
" /> 
<polyline style="fill-rule:evenodd;"
points="43098,30993
43098,29961
43545,29961
43545,30993
43098,30993
" /> 
<polyline style="fill-rule:evenodd;"
points="43598,29919
43598,28887
44045,28887
44045,29919
43598,29919
" /> 
<polyline style="fill-rule:evenodd;"
points="43598,30993
43598,29961
44045,29961
44045,30993
43598,30993
" /> 
<polyline style="fill-rule:evenodd;"
points="44098,29919
44098,28887
44545,28887
44545,29919
44098,29919
" /> 
<polyline style="fill-rule:evenodd;"
points="44098,30993
44098,29961
44545,29961
44545,30993
44098,30993
" /> 
<polyline style="fill-rule:evenodd;"
points="46598,29919
46598,28887
47045,28887
47045,29919
46598,29919
" /> 
<polyline style="fill-rule:evenodd;"
points="46598,30993
46598,29961
47045,29961
47045,30993
46598,30993
" /> 
<polyline style="fill-rule:evenodd;"
points="54098,30993
54098,29961
54545,29961
54545,30993
54098,30993
" /> 
<polyline style="fill-rule:evenodd;"
points="54098,29919
54098,28887
54545,28887
54545,29919
54098,29919
" /> 
<polyline style="fill-rule:evenodd;"
points="53598,30993
53598,29961
54045,29961
54045,30993
53598,30993
" /> 
<polyline style="fill-rule:evenodd;"
points="53598,29919
53598,28887
54045,28887
54045,29919
53598,29919
" /> 
<polyline style="fill-rule:evenodd;"
points="53098,30993
53098,29961
53545,29961
53545,30993
53098,30993
" /> 
<polyline style="fill-rule:evenodd;"
points="53098,29919
53098,28887
53545,28887
53545,29919
53098,29919
" /> 
<polyline style="fill-rule:evenodd;"
points="52598,30993
52598,29961
53045,29961
53045,30993
52598,30993
" /> 
<polyline style="fill-rule:evenodd;"
points="52598,29919
52598,28887
53045,28887
53045,29919
52598,29919
" /> 
<polyline style="fill-rule:evenodd;"
points="52098,30993
52098,29961
52545,29961
52545,30993
52098,30993
" /> 
<polyline style="fill-rule:evenodd;"
points="52098,29919
52098,28887
52545,28887
52545,29919
52098,29919
" /> 
<polyline style="fill-rule:evenodd;"
points="49098,30993
49098,29961
49545,29961
49545,30993
49098,30993
" /> 
<polyline style="fill-rule:evenodd;"
points="49098,29919
49098,28887
49545,28887
49545,29919
49098,29919
" /> 
<polyline style="fill-rule:evenodd;"
points="48598,30993
48598,29961
49045,29961
49045,30993
48598,30993
" /> 
<polyline style="fill-rule:evenodd;"
points="48598,29919
48598,28887
49045,28887
49045,29919
48598,29919
" /> 
<polyline style="fill-rule:evenodd;"
points="48098,30993
48098,29961
48545,29961
48545,30993
48098,30993
" /> 
<polyline style="fill-rule:evenodd;"
points="48098,29919
48098,28887
48545,28887
48545,29919
48098,29919
" /> 
<polyline style="fill-rule:evenodd;"
points="47598,30993
47598,29961
48045,29961
48045,30993
47598,30993
" /> 
<polyline style="fill-rule:evenodd;"
points="47598,29919
47598,28887
48045,28887
48045,29919
47598,29919
" /> 
<polyline style="fill-rule:evenodd;"
points="47098,30993
47098,29961
47545,29961
47545,30993
47098,30993
" /> 
<polyline style="fill-rule:evenodd;"
points="47098,29919
47098,28887
47545,28887
47545,29919
47098,29919
" /> 
<polyline style="fill-rule:evenodd;"
points="42598,36347
42598,35316
43045,35316
43045,36347
42598,36347
" /> 
<polyline style="fill-rule:evenodd;"
points="42598,35273
42598,34242
43045,34242
43045,35273
42598,35273
" /> 
<polyline style="fill-rule:evenodd;"
points="46098,36347
46098,35316
46545,35316
46545,36347
46098,36347
" /> 
<polyline style="fill-rule:evenodd;"
points="46098,35273
46098,34242
46545,34242
46545,35273
46098,35273
" /> 
<polyline style="fill-rule:evenodd;"
points="45598,36347
45598,35316
46045,35316
46045,36347
45598,36347
" /> 
<polyline style="fill-rule:evenodd;"
points="45598,35273
45598,34242
46045,34242
46045,35273
45598,35273
" /> 
<polyline style="fill-rule:evenodd;"
points="45098,36347
45098,35316
45545,35316
45545,36347
45098,36347
" /> 
<polyline style="fill-rule:evenodd;"
points="45098,35273
45098,34242
45545,34242
45545,35273
45098,35273
" /> 
<polyline style="fill-rule:evenodd;"
points="44598,36347
44598,35316
45045,35316
45045,36347
44598,36347
" /> 
<polyline style="fill-rule:evenodd;"
points="44598,35273
44598,34242
45045,34242
45045,35273
44598,35273
" /> 
<polyline style="fill-rule:evenodd;"
points="49598,35273
49598,34242
50045,34242
50045,35273
49598,35273
" /> 
<polyline style="fill-rule:evenodd;"
points="49598,36347
49598,35316
50045,35316
50045,36347
49598,36347
" /> 
<polyline style="fill-rule:evenodd;"
points="50098,35273
50098,34242
50545,34242
50545,35273
50098,35273
" /> 
<polyline style="fill-rule:evenodd;"
points="50098,36347
50098,35316
50545,35316
50545,36347
50098,36347
" /> 
<polyline style="fill-rule:evenodd;"
points="50598,35273
50598,34242
51045,34242
51045,35273
50598,35273
" /> 
<polyline style="fill-rule:evenodd;"
points="50598,36347
50598,35316
51045,35316
51045,36347
50598,36347
" /> 
<polyline style="fill-rule:evenodd;"
points="51098,35273
51098,34242
51545,34242
51545,35273
51098,35273
" /> 
<polyline style="fill-rule:evenodd;"
points="51098,36347
51098,35316
51545,35316
51545,36347
51098,36347
" /> 
<polyline style="fill-rule:evenodd;"
points="51598,35273
51598,34242
52045,34242
52045,35273
51598,35273
" /> 
<polyline style="fill-rule:evenodd;"
points="51598,36347
51598,35316
52045,35316
52045,36347
51598,36347
" /> 
<polyline style="fill-rule:evenodd;"
points="42098,35273
42098,34242
42545,34242
42545,35273
42098,35273
" /> 
<polyline style="fill-rule:evenodd;"
points="42098,36347
42098,35316
42545,35316
42545,36347
42098,36347
" /> 
<polyline style="fill-rule:evenodd;"
points="43098,35273
43098,34242
43545,34242
43545,35273
43098,35273
" /> 
<polyline style="fill-rule:evenodd;"
points="43098,36347
43098,35316
43545,35316
43545,36347
43098,36347
" /> 
<polyline style="fill-rule:evenodd;"
points="43598,35273
43598,34242
44045,34242
44045,35273
43598,35273
" /> 
<polyline style="fill-rule:evenodd;"
points="43598,36347
43598,35316
44045,35316
44045,36347
43598,36347
" /> 
<polyline style="fill-rule:evenodd;"
points="44098,35273
44098,34242
44545,34242
44545,35273
44098,35273
" /> 
<polyline style="fill-rule:evenodd;"
points="44098,36347
44098,35316
44545,35316
44545,36347
44098,36347
" /> 
<polyline style="fill-rule:evenodd;"
points="46598,35273
46598,34242
47045,34242
47045,35273
46598,35273
" /> 
<polyline style="fill-rule:evenodd;"
points="46598,36347
46598,35316
47045,35316
47045,36347
46598,36347
" /> 
<polyline style="fill-rule:evenodd;"
points="54098,36347
54098,35316
54545,35316
54545,36347
54098,36347
" /> 
<polyline style="fill-rule:evenodd;"
points="54098,35273
54098,34242
54545,34242
54545,35273
54098,35273
" /> 
<polyline style="fill-rule:evenodd;"
points="53598,36347
53598,35316
54045,35316
54045,36347
53598,36347
" /> 
<polyline style="fill-rule:evenodd;"
points="53598,35273
53598,34242
54045,34242
54045,35273
53598,35273
" /> 
<polyline style="fill-rule:evenodd;"
points="53098,36347
53098,35316
53545,35316
53545,36347
53098,36347
" /> 
<polyline style="fill-rule:evenodd;"
points="53098,35273
53098,34242
53545,34242
53545,35273
53098,35273
" /> 
<polyline style="fill-rule:evenodd;"
points="52598,36347
52598,35316
53045,35316
53045,36347
52598,36347
" /> 
<polyline style="fill-rule:evenodd;"
points="52598,35273
52598,34242
53045,34242
53045,35273
52598,35273
" /> 
<polyline style="fill-rule:evenodd;"
points="52098,36347
52098,35316
52545,35316
52545,36347
52098,36347
" /> 
<polyline style="fill-rule:evenodd;"
points="52098,35273
52098,34242
52545,34242
52545,35273
52098,35273
" /> 
<polyline style="fill-rule:evenodd;"
points="49098,36347
49098,35316
49545,35316
49545,36347
49098,36347
" /> 
<polyline style="fill-rule:evenodd;"
points="49098,35273
49098,34242
49545,34242
49545,35273
49098,35273
" /> 
<polyline style="fill-rule:evenodd;"
points="48598,36347
48598,35316
49045,35316
49045,36347
48598,36347
" /> 
<polyline style="fill-rule:evenodd;"
points="48598,35273
48598,34242
49045,34242
49045,35273
48598,35273
" /> 
<polyline style="fill-rule:evenodd;"
points="48098,36347
48098,35316
48545,35316
48545,36347
48098,36347
" /> 
<polyline style="fill-rule:evenodd;"
points="48098,35273
48098,34242
48545,34242
48545,35273
48098,35273
" /> 
<polyline style="fill-rule:evenodd;"
points="47598,36347
47598,35316
48045,35316
48045,36347
47598,36347
" /> 
<polyline style="fill-rule:evenodd;"
points="47598,35273
47598,34242
48045,34242
48045,35273
47598,35273
" /> 
<polyline style="fill-rule:evenodd;"
points="47098,36347
47098,35316
47545,35316
47545,36347
47098,36347
" /> 
<polyline style="fill-rule:evenodd;"
points="47098,35273
47098,34242
47545,34242
47545,35273
47098,35273
" /> 
<polyline style="fill-rule:evenodd;"
points="23228,35314
24566,35314
24566,36653
23228,36653
23228,35314
" /> 
<circle cx="23897.6" cy="37984.3" r="669.291" /> 
</g>
<g style="fill:#000000; fill-opacity:1.0; 
stroke:#000000; stroke-width:39.3701; stroke-opacity:1; 
stroke-linecap:round; stroke-linejoin:round;">
</g>
<g style="fill:#000000; fill-opacity:1.0; 
stroke:#000000; stroke-width:0; stroke-opacity:1; 
stroke-linecap:round; stroke-linejoin:round;">
<polyline style="fill-rule:evenodd;"
points="57736,23228
57066,23228
57066,22795
57736,22795
57736,23228
" /> 
<polyline style="fill-rule:evenodd;"
points="57736,22480
57066,22480
57066,22047
57736,22047
57736,22480
" /> 
<polyline style="fill-rule:evenodd;"
points="58582,23208
57913,23208
57913,22775
58582,22775
58582,23208
" /> 
<polyline style="fill-rule:evenodd;"
points="58582,22460
57913,22460
57913,22027
58582,22027
58582,22460
" /> 
<polyline style="fill-rule:evenodd;"
points="45146,15449
45146,14841
45593,14841
45593,15449
45146,15449
" /> 
<polyline style="fill-rule:evenodd;"
points="45146,16049
45146,15441
45593,15441
45593,16049
45146,16049
" /> 
<polyline style="fill-rule:evenodd;"
points="44646,15449
44646,14841
45093,14841
45093,15449
44646,15449
" /> 
<polyline style="fill-rule:evenodd;"
points="44646,16049
44646,15441
45093,15441
45093,16049
44646,16049
" /> 
<polyline style="fill-rule:evenodd;"
points="44146,15449
44146,14841
44593,14841
44593,15449
44146,15449
" /> 
<polyline style="fill-rule:evenodd;"
points="44146,16049
44146,15441
44593,15441
44593,16049
44146,16049
" /> 
<polyline style="fill-rule:evenodd;"
points="43646,15449
43646,14841
44093,14841
44093,15449
43646,15449
" /> 
<polyline style="fill-rule:evenodd;"
points="43646,16049
43646,15441
44093,15441
44093,16049
43646,16049
" /> 
<polyline style="fill-rule:evenodd;"
points="43146,15449
43146,14841
43593,14841
43593,15449
43146,15449
" /> 
<polyline style="fill-rule:evenodd;"
points="43146,16049
43146,15441
43593,15441
43593,16049
43146,16049
" /> 
<polyline style="fill-rule:evenodd;"
points="42646,15449
42646,14841
43093,14841
43093,15449
42646,15449
" /> 
<polyline style="fill-rule:evenodd;"
points="42646,16049
42646,15441
43093,15441
43093,16049
42646,16049
" /> 
<polyline style="fill-rule:evenodd;"
points="42146,15449
42146,14841
42593,14841
42593,15449
42146,15449
" /> 
<polyline style="fill-rule:evenodd;"
points="42146,16049
42146,15441
42593,15441
42593,16049
42146,16049
" /> 
<polyline style="fill-rule:evenodd;"
points="41646,15449
41646,14841
42093,14841
42093,15449
41646,15449
" /> 
<polyline style="fill-rule:evenodd;"
points="41646,16049
41646,15441
42093,15441
42093,16049
41646,16049
" /> 
<polyline style="fill-rule:evenodd;"
points="41146,15449
41146,14841
41593,14841
41593,15449
41146,15449
" /> 
<polyline style="fill-rule:evenodd;"
points="41146,16049
41146,15441
41593,15441
41593,16049
41146,16049
" /> 
<polyline style="fill-rule:evenodd;"
points="40646,15449
40646,14841
41093,14841
41093,15449
40646,15449
" /> 
<polyline style="fill-rule:evenodd;"
points="40646,16049
40646,15441
41093,15441
41093,16049
40646,16049
" /> 
<polyline style="fill-rule:evenodd;"
points="40146,15449
40146,14841
40593,14841
40593,15449
40146,15449
" /> 
<polyline style="fill-rule:evenodd;"
points="40146,16049
40146,15441
40593,15441
40593,16049
40146,16049
" /> 
<polyline style="fill-rule:evenodd;"
points="39646,15449
39646,14841
40093,14841
40093,15449
39646,15449
" /> 
<polyline style="fill-rule:evenodd;"
points="39646,16049
39646,15441
40093,15441
40093,16049
39646,16049
" /> 
<polyline style="fill-rule:evenodd;"
points="39146,15449
39146,14841
39593,14841
39593,15449
39146,15449
" /> 
<polyline style="fill-rule:evenodd;"
points="39146,16049
39146,15441
39593,15441
39593,16049
39146,16049
" /> 
<polyline style="fill-rule:evenodd;"
points="38646,15449
38646,14841
39093,14841
39093,15449
38646,15449
" /> 
<polyline style="fill-rule:evenodd;"
points="38646,16049
38646,15441
39093,15441
39093,16049
38646,16049
" /> 
<polyline style="fill-rule:evenodd;"
points="38146,15449
38146,14841
38593,14841
38593,15449
38146,15449
" /> 
<polyline style="fill-rule:evenodd;"
points="38146,16049
38146,15441
38593,15441
38593,16049
38146,16049
" /> 
<polyline style="fill-rule:evenodd;"
points="37646,15449
37646,14841
38093,14841
38093,15449
37646,15449
" /> 
<polyline style="fill-rule:evenodd;"
points="37646,16049
37646,15441
38093,15441
38093,16049
37646,16049
" /> 
<polyline style="fill-rule:evenodd;"
points="37146,15449
37146,14841
37593,14841
37593,15449
37146,15449
" /> 
<polyline style="fill-rule:evenodd;"
points="37146,16049
37146,15441
37593,15441
37593,16049
37146,16049
" /> 
<polyline style="fill-rule:evenodd;"
points="36646,15449
36646,14841
37093,14841
37093,15449
36646,15449
" /> 
<polyline style="fill-rule:evenodd;"
points="36646,16049
36646,15441
37093,15441
37093,16049
36646,16049
" /> 
<polyline style="fill-rule:evenodd;"
points="36146,15449
36146,14841
36593,14841
36593,15449
36146,15449
" /> 
<polyline style="fill-rule:evenodd;"
points="36146,16049
36146,15441
36593,15441
36593,16049
36146,16049
" /> 
<polyline style="fill-rule:evenodd;"
points="35646,15449
35646,14841
36093,14841
36093,15449
35646,15449
" /> 
<polyline style="fill-rule:evenodd;"
points="35646,16049
35646,15441
36093,15441
36093,16049
35646,16049
" /> 
<polyline style="fill-rule:evenodd;"
points="35146,15449
35146,14841
35593,14841
35593,15449
35146,15449
" /> 
<polyline style="fill-rule:evenodd;"
points="35146,16049
35146,15441
35593,15441
35593,16049
35146,16049
" /> 
<polyline style="fill-rule:evenodd;"
points="34646,15449
34646,14841
35093,14841
35093,15449
34646,15449
" /> 
<polyline style="fill-rule:evenodd;"
points="34646,16049
34646,15441
35093,15441
35093,16049
34646,16049
" /> 
<polyline style="fill-rule:evenodd;"
points="34146,15449
34146,14841
34593,14841
34593,15449
34146,15449
" /> 
<polyline style="fill-rule:evenodd;"
points="34146,16049
34146,15441
34593,15441
34593,16049
34146,16049
" /> 
<polyline style="fill-rule:evenodd;"
points="33646,15449
33646,14841
34093,14841
34093,15449
33646,15449
" /> 
<polyline style="fill-rule:evenodd;"
points="33646,16049
33646,15441
34093,15441
34093,16049
33646,16049
" /> 
<polyline style="fill-rule:evenodd;"
points="33146,15449
33146,14841
33593,14841
33593,15449
33146,15449
" /> 
<polyline style="fill-rule:evenodd;"
points="33146,16049
33146,15441
33593,15441
33593,16049
33146,16049
" /> 
<circle cx="46390.1" cy="13085.4" r="328.74" /> 
</g>
<g style="fill:#000000; fill-opacity:1.0; 
stroke:#000000; stroke-width:39.3701; stroke-opacity:1; 
stroke-linecap:round; stroke-linejoin:round;">
</g>
<g style="fill:#000000; fill-opacity:1.0; 
stroke:#000000; stroke-width:0; stroke-opacity:1; 
stroke-linecap:round; stroke-linejoin:round;">
<circle cx="32350.1" cy="13085.4" r="328.74" /> 
</g>
<g style="fill:#000000; fill-opacity:1.0; 
stroke:#000000; stroke-width:39.3701; stroke-opacity:1; 
stroke-linecap:round; stroke-linejoin:round;">
</g>
<g style="fill:#000000; fill-opacity:1.0; 
stroke:#000000; stroke-width:0; stroke-opacity:1; 
stroke-linecap:round; stroke-linejoin:round;">
<circle cx="46390.1" cy="13975.4" r="328.74" /> 
</g>
<g style="fill:#000000; fill-opacity:1.0; 
stroke:#000000; stroke-width:39.3701; stroke-opacity:1; 
stroke-linecap:round; stroke-linejoin:round;">
</g>
<g style="fill:#000000; fill-opacity:1.0; 
stroke:#000000; stroke-width:0; stroke-opacity:1; 
stroke-linecap:round; stroke-linejoin:round;">
<circle cx="32350.1" cy="13975.4" r="328.74" /> 
</g>
<g style="fill:#000000; fill-opacity:1.0; 
stroke:#000000; stroke-width:39.3701; stroke-opacity:1; 
stroke-linecap:round; stroke-linejoin:round;">
</g>
<g style="fill:#000000; fill-opacity:1.0; 
stroke:#000000; stroke-width:0; stroke-opacity:1; 
stroke-linecap:round; stroke-linejoin:round;">
<polyline style="fill-rule:evenodd;"
points="25039,21584
25039,20935
25590,20935
25590,21584
25039,21584
" /> 
<polyline style="fill-rule:evenodd;"
points="25826,21584
25826,20935
26377,20935
26377,21584
25826,21584
" /> 
<polyline style="fill-rule:evenodd;"
points="25039,22293
25039,21643
25590,21643
25590,22293
25039,22293
" /> 
<polyline style="fill-rule:evenodd;"
points="25826,22293
25826,21643
26377,21643
26377,22293
25826,22293
" /> 
<circle cx="24921.3" cy="30964.6" r="472.441" /> 
</g>
<g style="fill:#000000; fill-opacity:1.0; 
stroke:#000000; stroke-width:39.3701; stroke-opacity:1; 
stroke-linecap:round; stroke-linejoin:round;">
</g>
<g style="fill:#000000; fill-opacity:1.0; 
stroke:#000000; stroke-width:0; stroke-opacity:1; 
stroke-linecap:round; stroke-linejoin:round;">
<circle cx="24921.3" cy="26043.3" r="472.441" /> 
</g>
<g style="fill:#000000; fill-opacity:1.0; 
stroke:#000000; stroke-width:39.3701; stroke-opacity:1; 
stroke-linecap:round; stroke-linejoin:round;">
</g>
<g style="fill:#000000; fill-opacity:1.0; 
stroke:#000000; stroke-width:0; stroke-opacity:1; 
stroke-linecap:round; stroke-linejoin:round;">
<circle cx="19015.7" cy="30964.6" r="472.441" /> 
</g>
<g style="fill:#000000; fill-opacity:1.0; 
stroke:#000000; stroke-width:39.3701; stroke-opacity:1; 
stroke-linecap:round; stroke-linejoin:round;">
</g>
<g style="fill:#000000; fill-opacity:1.0; 
stroke:#000000; stroke-width:0; stroke-opacity:1; 
stroke-linecap:round; stroke-linejoin:round;">
<circle cx="19015.7" cy="26043.3" r="472.441" /> 
</g>
<g style="fill:#000000; fill-opacity:1.0; 
stroke:#000000; stroke-width:39.3701; stroke-opacity:1; 
stroke-linecap:round; stroke-linejoin:round;">
</g>
<g style="fill:#000000; fill-opacity:1.0; 
stroke:#000000; stroke-width:0; stroke-opacity:1; 
stroke-linecap:round; stroke-linejoin:round;">
<circle cx="28059.1" cy="22807.1" r="478.74" /> 
</g>
<g style="fill:#000000; fill-opacity:1.0; 
stroke:#000000; stroke-width:39.3701; stroke-opacity:1; 
stroke-linecap:round; stroke-linejoin:round;">
</g>
<g style="fill:#000000; fill-opacity:1.0; 
stroke:#000000; stroke-width:0; stroke-opacity:1; 
stroke-linecap:round; stroke-linejoin:round;">
<circle cx="28059.1" cy="21807.1" r="478.74" /> 
</g>
<g style="fill:#000000; fill-opacity:1.0; 
stroke:#000000; stroke-width:39.3701; stroke-opacity:1; 
stroke-linecap:round; stroke-linejoin:round;">
</g>
<g style="fill:#000000; fill-opacity:1.0; 
stroke:#000000; stroke-width:0; stroke-opacity:1; 
stroke-linecap:round; stroke-linejoin:round;">
<circle cx="28059.1" cy="20807.1" r="478.74" /> 
</g>
<g style="fill:#000000; fill-opacity:1.0; 
stroke:#000000; stroke-width:39.3701; stroke-opacity:1; 
stroke-linecap:round; stroke-linejoin:round;">
</g>
<g style="fill:#000000; fill-opacity:1.0; 
stroke:#000000; stroke-width:0; stroke-opacity:1; 
stroke-linecap:round; stroke-linejoin:round;">
<circle cx="28059.1" cy="19807.1" r="478.74" /> 
</g>
<g style="fill:#000000; fill-opacity:1.0; 
stroke:#000000; stroke-width:39.3701; stroke-opacity:1; 
stroke-linecap:round; stroke-linejoin:round;">
</g>
<g style="fill:#000000; fill-opacity:1.0; 
stroke:#000000; stroke-width:0; stroke-opacity:1; 
stroke-linecap:round; stroke-linejoin:round;">
<circle cx="28059.1" cy="18807.1" r="478.74" /> 
</g>
<g style="fill:#000000; fill-opacity:1.0; 
stroke:#000000; stroke-width:39.3701; stroke-opacity:1; 
stroke-linecap:round; stroke-linejoin:round;">
</g>
<g style="fill:#000000; fill-opacity:1.0; 
stroke:#000000; stroke-width:0; stroke-opacity:1; 
stroke-linecap:round; stroke-linejoin:round;">
<circle cx="19685" cy="17322.8" r="878.74" /> 
</g>
<g style="fill:#000000; fill-opacity:1.0; 
stroke:#000000; stroke-width:39.3701; stroke-opacity:1; 
stroke-linecap:round; stroke-linejoin:round;">
</g>
<g style="fill:#000000; fill-opacity:1.0; 
stroke:#000000; stroke-width:0; stroke-opacity:1; 
stroke-linecap:round; stroke-linejoin:round;">
<circle cx="59055.1" cy="17322.8" r="878.74" /> 
</g>
<g style="fill:#000000; fill-opacity:1.0; 
stroke:#000000; stroke-width:39.3701; stroke-opacity:1; 
stroke-linecap:round; stroke-linejoin:round;">
</g>
<g style="fill:#000000; fill-opacity:1.0; 
stroke:#000000; stroke-width:0; stroke-opacity:1; 
stroke-linecap:round; stroke-linejoin:round;">
<circle cx="59055.1" cy="33858.3" r="878.74" /> 
</g>
<g style="fill:#000000; fill-opacity:1.0; 
stroke:#000000; stroke-width:39.3701; stroke-opacity:1; 
stroke-linecap:round; stroke-linejoin:round;">
</g>
<g style="fill:#000000; fill-opacity:1.0; 
stroke:#000000; stroke-width:0; stroke-opacity:1; 
stroke-linecap:round; stroke-linejoin:round;">
<circle cx="26771.7" cy="33858.3" r="878.74" /> 
</g>
<g style="fill:#000000; fill-opacity:1.0; 
stroke:#000000; stroke-width:39.3701; stroke-opacity:1; 
stroke-linecap:round; stroke-linejoin:round;">
</g> 
</svg>
