M48
INCH,TZ
T1C0.0157
T2C0.0220
T3C0.0394
T4C0.0400
T5C0.0500
T6C0.0598
T7C0.1200
%
G90
G05
T1
X18543Y-17598
X19016Y-18150
X19134Y-22677
X20354Y-18150
X20650Y-15875
X20669Y-17717
X21150Y-15875
X21650Y-15875
X22150Y-15875
X22650Y-15875
X22900Y-15700
X23150Y-15875
X23400Y-15700
X23650Y-15875
X23900Y-15700
X24150Y-15875
X24400Y-15700
X24650Y-15875
X24744Y-19016
X24900Y-15700
X25150Y-15875
X25400Y-15700
X25650Y-15875
X25900Y-15700
X26150Y-15875
X26260Y-29724
X26260Y-30512
X26400Y-15700
X26650Y-15875
X26900Y-15700
X27150Y-15875
X27165Y-29724
X27165Y-30512
X27400Y-15700
X27650Y-15875
X27900Y-15700
X28150Y-15875
X28409Y-15665
X28650Y-15875
X28858Y-22480
X28858Y-22795
X28858Y-23071
X28900Y-15700
X29150Y-15875
X29400Y-15700
X29975Y-15425
X33875Y-28300
X33950Y-28600
X34025Y-28900
X34050Y-23525
X34075Y-29200
X34150Y-29500
X34325Y-23650
X34350Y-23100
X34625Y-23250
X34875Y-23050
X42322Y-24049
X42322Y-25123
X42322Y-29404
X42322Y-30478
X42322Y-34758
X42322Y-35832
X42822Y-24049
X42822Y-25123
X42822Y-29404
X42822Y-30478
X42822Y-34758
X42822Y-35832
X43322Y-24049
X43322Y-25123
X43322Y-29404
X43322Y-30478
X43322Y-34758
X43322Y-35832
X43600Y-14400
X43822Y-24049
X43822Y-25123
X43822Y-29404
X43822Y-30478
X43822Y-34758
X43822Y-35832
X44322Y-24049
X44322Y-25123
X44322Y-29404
X44322Y-30478
X44322Y-34758
X44322Y-35832
X44822Y-24049
X44822Y-25123
X44822Y-29404
X44822Y-30478
X44822Y-34758
X44822Y-35832
X45322Y-24049
X45322Y-25123
X45322Y-29404
X45322Y-30478
X45322Y-34758
X45322Y-35832
X45354Y-17201
X45822Y-24049
X45822Y-25123
X45822Y-29404
X45822Y-30478
X45822Y-34758
X45822Y-35832
X46083Y-17161
X46322Y-24049
X46322Y-25123
X46322Y-29404
X46322Y-30478
X46322Y-34758
X46322Y-35832
X46681Y-17240
X46822Y-24049
X46822Y-25123
X46822Y-29404
X46822Y-30478
X46822Y-34758
X46822Y-35832
X46850Y-16142
X47165Y-16457
X47268Y-17091
X47322Y-24049
X47322Y-25123
X47322Y-29404
X47322Y-30478
X47322Y-34758
X47322Y-35832
X47559Y-16850
X47822Y-24049
X47822Y-25123
X47822Y-29404
X47822Y-30478
X47822Y-34758
X47822Y-35832
X48322Y-24049
X48322Y-25123
X48322Y-29404
X48322Y-30478
X48322Y-34758
X48322Y-35832
X48822Y-24049
X48822Y-25123
X48822Y-29404
X48822Y-30478
X48822Y-34758
X48822Y-35832
X49322Y-24049
X49322Y-25123
X49322Y-29404
X49322Y-30478
X49322Y-34758
X49322Y-35832
X49822Y-24049
X49822Y-25123
X49822Y-29404
X49822Y-30478
X49822Y-34758
X49822Y-35832
X50322Y-24049
X50322Y-25123
X50322Y-29404
X50322Y-30478
X50322Y-34758
X50322Y-35832
X50822Y-24049
X50822Y-25123
X50822Y-29404
X50822Y-30478
X50822Y-34758
X50822Y-35832
X51322Y-24049
X51322Y-25123
X51322Y-29404
X51322Y-30478
X51322Y-34758
X51322Y-35832
X51822Y-24049
X51822Y-25123
X51822Y-29404
X51822Y-30478
X51823Y-34772
X51823Y-35807
X52047Y-17362
X52339Y-23094
X52822Y-25123
X53150Y-16260
X53322Y-25123
X53822Y-25123
X53822Y-30478
X54921Y-20669
X55583Y-29142
X55591Y-20984
X55594Y-22406
X55594Y-34567
X55886Y-20051
X55886Y-22587
X56102Y-35827
X56142Y-25118
X56142Y-30472
X56146Y-19768
X56146Y-22173
X56378Y-36063
X56417Y-18898
X56693Y-22402
X56693Y-23858
X56693Y-28740
X56693Y-34213
X56697Y-18697
X57244Y-21535
X57283Y-20709
X57323Y-36850
X57362Y-26063
X57362Y-31378
X57480Y-17717
X57657Y-25433
X57677Y-28189
X57677Y-33622
X57717Y-22913
X57831Y-21016
X57992Y-28386
X57992Y-33701
X58031Y-24173
X58937Y-23268
X59331Y-24449
X59370Y-26299
T2
X20160Y-14906
X20160Y-15406
X20660Y-14906
X20660Y-15406
X21160Y-14906
X21160Y-15406
X21660Y-14906
X21660Y-15406
X22160Y-14906
X22160Y-15406
X22660Y-14906
X22660Y-15406
X23160Y-14906
X23160Y-15406
X23660Y-14906
X23660Y-15406
X24160Y-14906
X24160Y-15406
X24660Y-14906
X24660Y-15406
X25160Y-14906
X25160Y-15406
X25660Y-14906
X25660Y-15406
X26160Y-14906
X26160Y-15406
X26660Y-14906
X26660Y-15406
X27160Y-14906
X27160Y-15406
X27660Y-14906
X27660Y-15406
X28160Y-14906
X28160Y-15406
X28660Y-14906
X28660Y-15406
X29160Y-14906
X29160Y-15406
X29660Y-14906
X29660Y-15406
X33370Y-14906
X33370Y-15406
X33870Y-14906
X33870Y-15406
X34370Y-14906
X34370Y-15406
X34870Y-14906
X34870Y-15406
X35370Y-14906
X35370Y-15406
X35870Y-14906
X35870Y-15406
X36370Y-14906
X36370Y-15406
X36870Y-14906
X36870Y-15406
X37370Y-14906
X37370Y-15406
X37870Y-14906
X37870Y-15406
X38370Y-14906
X38370Y-15406
X38870Y-14906
X38870Y-15406
X39370Y-14906
X39370Y-15406
X39870Y-14906
X39870Y-15406
X40370Y-14906
X40370Y-15406
X40870Y-14906
X40870Y-15406
X41370Y-14906
X41370Y-15406
X41870Y-14906
X41870Y-15406
X42370Y-14906
X42370Y-15406
X42870Y-14906
X42870Y-15406
X43370Y-14906
X43370Y-15406
X43870Y-14906
X43870Y-15406
X44370Y-14906
X44370Y-15406
X44870Y-14906
X44870Y-15406
X45370Y-14906
X45370Y-15406
X49080Y-14906
X49080Y-15406
X49580Y-14906
X49580Y-15406
X50080Y-14906
X50080Y-15406
X50580Y-14906
X50580Y-15406
X51080Y-14906
X51080Y-15406
X51580Y-14906
X51580Y-15406
X52080Y-14906
X52080Y-15406
X52580Y-14906
X52580Y-15406
X53080Y-14906
X53080Y-15406
X53580Y-14906
X53580Y-15406
X54080Y-14906
X54080Y-15406
X54580Y-14906
X54580Y-15406
X55080Y-14906
X55080Y-15406
X55580Y-14906
X55580Y-15406
X56080Y-14906
X56080Y-15406
X56580Y-14906
X56580Y-15406
X57080Y-14906
X57080Y-15406
X57580Y-14906
X57580Y-15406
X58080Y-14906
X58080Y-15406
X58580Y-14906
X58580Y-15406
T3
X19016Y-26043
X19016Y-30965
X24921Y-26043
X24921Y-30965
T4
X28059Y-18807
X28059Y-19807
X28059Y-20807
X28059Y-21807
X28059Y-22807
X59764Y-20441
X59764Y-21441
X59764Y-22441
T5
X41697Y-24586
X41697Y-29941
X41697Y-35295
X50634Y-19232
X53884Y-19232
X54947Y-24586
X54947Y-29941
X54947Y-35295
T6
X22835Y-18898
X22835Y-20898
T7
X19685Y-17323
X26772Y-33858
X59055Y-17323
X59055Y-33071
T0
M30
