G04 #@! TF.GenerationSoftware,KiCad,Pcbnew,5.1.9+dfsg1-1~bpo10+1*
G04 #@! TF.CreationDate,2021-11-09T02:57:50+00:00*
G04 #@! TF.ProjectId,dropbot-front-panel,64726f70-626f-4742-9d66-726f6e742d70,3.3*
G04 #@! TF.SameCoordinates,Original*
G04 #@! TF.FileFunction,Paste,Top*
G04 #@! TF.FilePolarity,Positive*
%FSLAX46Y46*%
G04 Gerber Fmt 4.6, Leading zero omitted, Abs format (unit mm)*
G04 Created by KiCad (PCBNEW 5.1.9+dfsg1-1~bpo10+1) date 2021-11-09 02:57:50*
%MOMM*%
%LPD*%
G01*
G04 APERTURE LIST*
%ADD10O,1.473200X0.609600*%
%ADD11R,0.700000X1.300000*%
%ADD12R,1.250000X1.000000*%
%ADD13R,0.736600X2.219960*%
%ADD14R,0.600000X0.450000*%
%ADD15R,1.300000X0.700000*%
%ADD16R,0.450000X1.450000*%
%ADD17R,0.900000X0.500000*%
G04 APERTURE END LIST*
D10*
X68594000Y-54005000D03*
X68594000Y-52735000D03*
X68594000Y-51465000D03*
X68594000Y-50195000D03*
X63006000Y-50195000D03*
X63006000Y-51465000D03*
X63006000Y-52735000D03*
X63006000Y-54005000D03*
D11*
X144550000Y-64600000D03*
X146450000Y-64600000D03*
X133150000Y-45000000D03*
X131250000Y-45000000D03*
D12*
X48600000Y-59600000D03*
X48600000Y-57600000D03*
X66700000Y-75500000D03*
X66700000Y-77500000D03*
X69000000Y-75500000D03*
X69000000Y-77500000D03*
D13*
X108768400Y-77412980D03*
X108768400Y-74685020D03*
X117658400Y-77412980D03*
X117658400Y-74685020D03*
X116388400Y-77412980D03*
X116388400Y-74685020D03*
X115118400Y-77412980D03*
X115118400Y-74685020D03*
X113848400Y-77412980D03*
X113848400Y-74685020D03*
X126548400Y-74685020D03*
X126548400Y-77412980D03*
X127818400Y-74685020D03*
X127818400Y-77412980D03*
X129088400Y-74685020D03*
X129088400Y-77412980D03*
X130358400Y-74685020D03*
X130358400Y-77412980D03*
X131628400Y-74685020D03*
X131628400Y-77412980D03*
X107498400Y-74685020D03*
X107498400Y-77412980D03*
X110038400Y-74685020D03*
X110038400Y-77412980D03*
X111308400Y-74685020D03*
X111308400Y-77412980D03*
X112578400Y-74685020D03*
X112578400Y-77412980D03*
X118928400Y-74685020D03*
X118928400Y-77412980D03*
X137978400Y-77412980D03*
X137978400Y-74685020D03*
X136708400Y-77412980D03*
X136708400Y-74685020D03*
X135438400Y-77412980D03*
X135438400Y-74685020D03*
X134168400Y-77412980D03*
X134168400Y-74685020D03*
X132898400Y-77412980D03*
X132898400Y-74685020D03*
X125278400Y-77412980D03*
X125278400Y-74685020D03*
X124008400Y-77412980D03*
X124008400Y-74685020D03*
X122738400Y-77412980D03*
X122738400Y-74685020D03*
X121468400Y-77412980D03*
X121468400Y-74685020D03*
X120198400Y-77412980D03*
X120198400Y-74685020D03*
X108768400Y-91012980D03*
X108768400Y-88285020D03*
X117658400Y-91012980D03*
X117658400Y-88285020D03*
X116388400Y-91012980D03*
X116388400Y-88285020D03*
X115118400Y-91012980D03*
X115118400Y-88285020D03*
X113848400Y-91012980D03*
X113848400Y-88285020D03*
X126548400Y-88285020D03*
X126548400Y-91012980D03*
X127818400Y-88285020D03*
X127818400Y-91012980D03*
X129088400Y-88285020D03*
X129088400Y-91012980D03*
X130358400Y-88285020D03*
X130358400Y-91012980D03*
X131628400Y-88285020D03*
X131628400Y-91012980D03*
X107498400Y-88285020D03*
X107498400Y-91012980D03*
X110038400Y-88285020D03*
X110038400Y-91012980D03*
X111308400Y-88285020D03*
X111308400Y-91012980D03*
X112578400Y-88285020D03*
X112578400Y-91012980D03*
X118928400Y-88285020D03*
X118928400Y-91012980D03*
X137978400Y-91012980D03*
X137978400Y-88285020D03*
X136708400Y-91012980D03*
X136708400Y-88285020D03*
X135438400Y-91012980D03*
X135438400Y-88285020D03*
X134168400Y-91012980D03*
X134168400Y-88285020D03*
X132898400Y-91012980D03*
X132898400Y-88285020D03*
X125278400Y-91012980D03*
X125278400Y-88285020D03*
X124008400Y-91012980D03*
X124008400Y-88285020D03*
X122738400Y-91012980D03*
X122738400Y-88285020D03*
X121468400Y-91012980D03*
X121468400Y-88285020D03*
X120198400Y-91012980D03*
X120198400Y-88285020D03*
D14*
X68150000Y-48300000D03*
X66050000Y-48300000D03*
D11*
X64750000Y-48300000D03*
X62850000Y-48300000D03*
D15*
X148500000Y-68150000D03*
X148500000Y-70050000D03*
D16*
X150425000Y-74450000D03*
X151075000Y-74450000D03*
X151725000Y-74450000D03*
X152375000Y-74450000D03*
X152375000Y-68550000D03*
X151725000Y-68550000D03*
X151075000Y-68550000D03*
X150425000Y-68550000D03*
D17*
X150100000Y-77750000D03*
X150100000Y-76250000D03*
X151400000Y-77750000D03*
X151400000Y-76250000D03*
X152700000Y-77750000D03*
X152700000Y-76250000D03*
D13*
X130198400Y-47485520D03*
X130198400Y-50213480D03*
X131468400Y-47485520D03*
X131468400Y-50213480D03*
X135278400Y-50213480D03*
X135278400Y-47485520D03*
X134008400Y-50213480D03*
X134008400Y-47485520D03*
X132738400Y-50213480D03*
X132738400Y-47485520D03*
D12*
X150800000Y-66800000D03*
X150800000Y-64800000D03*
D13*
X108768400Y-63812980D03*
X108768400Y-61085020D03*
X117658400Y-63812980D03*
X117658400Y-61085020D03*
X116388400Y-63812980D03*
X116388400Y-61085020D03*
X115118400Y-63812980D03*
X115118400Y-61085020D03*
X113848400Y-63812980D03*
X113848400Y-61085020D03*
X126548400Y-61085020D03*
X126548400Y-63812980D03*
X127818400Y-61085020D03*
X127818400Y-63812980D03*
X129088400Y-61085020D03*
X129088400Y-63812980D03*
X130358400Y-61085020D03*
X130358400Y-63812980D03*
X131628400Y-61085020D03*
X131628400Y-63812980D03*
X107498400Y-61085020D03*
X107498400Y-63812980D03*
X110038400Y-61085020D03*
X110038400Y-63812980D03*
X111308400Y-61085020D03*
X111308400Y-63812980D03*
X112578400Y-61085020D03*
X112578400Y-63812980D03*
X118928400Y-61085020D03*
X118928400Y-63812980D03*
X137978400Y-63812980D03*
X137978400Y-61085020D03*
X136708400Y-63812980D03*
X136708400Y-61085020D03*
X135438400Y-63812980D03*
X135438400Y-61085020D03*
X134168400Y-63812980D03*
X134168400Y-61085020D03*
X132898400Y-63812980D03*
X132898400Y-61085020D03*
X125278400Y-63812980D03*
X125278400Y-61085020D03*
X124008400Y-63812980D03*
X124008400Y-61085020D03*
X122738400Y-63812980D03*
X122738400Y-61085020D03*
X121468400Y-63812980D03*
X121468400Y-61085020D03*
X120198400Y-63812980D03*
X120198400Y-61085020D03*
M02*
