G04 #@! TF.GenerationSoftware,KiCad,Pcbnew,5.1.9+dfsg1-1~bpo10+1*
G04 #@! TF.CreationDate,2021-11-09T02:57:50+00:00*
G04 #@! TF.ProjectId,dropbot-front-panel,64726f70-626f-4742-9d66-726f6e742d70,3.3*
G04 #@! TF.SameCoordinates,Original*
G04 #@! TF.FileFunction,Copper,L4,Bot*
G04 #@! TF.FilePolarity,Positive*
%FSLAX46Y46*%
G04 Gerber Fmt 4.6, Leading zero omitted, Abs format (unit mm)*
G04 Created by KiCad (PCBNEW 5.1.9+dfsg1-1~bpo10+1) date 2021-11-09 02:57:50*
%MOMM*%
%LPD*%
G01*
G04 APERTURE LIST*
G04 #@! TA.AperFunction,ComponentPad*
%ADD10C,2.000000*%
G04 #@! TD*
G04 #@! TA.AperFunction,ComponentPad*
%ADD11R,2.032000X1.727200*%
G04 #@! TD*
G04 #@! TA.AperFunction,ComponentPad*
%ADD12O,2.032000X1.727200*%
G04 #@! TD*
G04 #@! TA.AperFunction,ComponentPad*
%ADD13R,3.000000X3.000000*%
G04 #@! TD*
G04 #@! TA.AperFunction,ComponentPad*
%ADD14C,3.000000*%
G04 #@! TD*
G04 #@! TA.AperFunction,ComponentPad*
%ADD15C,2.032000*%
G04 #@! TD*
G04 #@! TA.AperFunction,ComponentPad*
%ADD16C,4.064000*%
G04 #@! TD*
G04 #@! TA.AperFunction,ComponentPad*
%ADD17C,1.750000*%
G04 #@! TD*
G04 #@! TA.AperFunction,ComponentPad*
%ADD18C,0.814000*%
G04 #@! TD*
G04 #@! TA.AperFunction,ViaPad*
%ADD19C,0.600000*%
G04 #@! TD*
G04 #@! TA.AperFunction,Conductor*
%ADD20C,0.150000*%
G04 #@! TD*
G04 #@! TA.AperFunction,Conductor*
%ADD21C,0.500000*%
G04 #@! TD*
G04 #@! TA.AperFunction,Conductor*
%ADD22C,0.100000*%
G04 #@! TD*
G04 APERTURE END LIST*
D10*
X63300000Y-78650000D03*
X63300000Y-66150000D03*
X48300000Y-78650000D03*
X48300000Y-66150000D03*
D11*
X151800000Y-57000000D03*
D12*
X151800000Y-54460000D03*
X151800000Y-51920000D03*
D13*
X58000000Y-48000000D03*
D14*
X58000000Y-53080000D03*
D15*
X71270000Y-57930000D03*
X71270000Y-55390000D03*
X71270000Y-52850000D03*
X71270000Y-50310000D03*
X71270000Y-47770000D03*
D16*
X50000000Y-44000000D03*
X150000000Y-44000000D03*
X150000000Y-84000000D03*
X68000000Y-86000000D03*
D17*
X105910900Y-76049000D03*
X139565900Y-76049000D03*
X105910900Y-89649000D03*
X139565900Y-89649000D03*
X136865900Y-48849500D03*
X128610900Y-48849500D03*
X105910900Y-62449000D03*
X139565900Y-62449000D03*
D18*
X125933400Y-39131800D03*
X124663400Y-39131800D03*
X124663400Y-37861800D03*
X125933400Y-37861800D03*
X129743400Y-37861800D03*
X131013400Y-37861800D03*
X128473400Y-37861800D03*
X127203400Y-37861800D03*
X127203400Y-39131800D03*
X128473400Y-39131800D03*
X131013400Y-39131800D03*
X129743400Y-39131800D03*
X143713400Y-37861800D03*
X144983400Y-37861800D03*
X147523400Y-37861800D03*
X146253400Y-37861800D03*
X146253400Y-39131800D03*
X147523400Y-39131800D03*
X144983400Y-39131800D03*
X143713400Y-39131800D03*
X148793400Y-39131800D03*
X148793400Y-37861800D03*
X142443400Y-37861800D03*
X142443400Y-39131800D03*
X134823400Y-39131800D03*
X136093400Y-39131800D03*
X133553400Y-39131800D03*
X132283400Y-39131800D03*
X137363400Y-39131800D03*
X138633400Y-39131800D03*
X141173400Y-39131800D03*
X139903400Y-39131800D03*
X139903400Y-37861800D03*
X141173400Y-37861800D03*
X138633400Y-37861800D03*
X137363400Y-37861800D03*
X132283400Y-37861800D03*
X133553400Y-37861800D03*
X136093400Y-37861800D03*
X134823400Y-37861800D03*
X89840000Y-39131800D03*
X88570000Y-39131800D03*
X87300000Y-39131800D03*
X87300000Y-37861800D03*
X88570000Y-37861800D03*
X89840000Y-37861800D03*
X86030000Y-37861800D03*
X84760000Y-37861800D03*
X84760000Y-39131800D03*
X86030000Y-39131800D03*
X92380000Y-39131800D03*
X91110000Y-39131800D03*
X91110000Y-37861800D03*
X92380000Y-37861800D03*
X96190000Y-37861800D03*
X97460000Y-37861800D03*
X94920000Y-37861800D03*
X93650000Y-37861800D03*
X93650000Y-39131800D03*
X94920000Y-39131800D03*
X97460000Y-39131800D03*
X96190000Y-39131800D03*
X110160000Y-37861800D03*
X111430000Y-37861800D03*
X113970000Y-37861800D03*
X112700000Y-37861800D03*
X112700000Y-39131800D03*
X113970000Y-39131800D03*
X111430000Y-39131800D03*
X110160000Y-39131800D03*
X115240000Y-39131800D03*
X115240000Y-37861800D03*
X108890000Y-37861800D03*
X108890000Y-39131800D03*
X101270000Y-39131800D03*
X102540000Y-39131800D03*
X100000000Y-39131800D03*
X98730000Y-39131800D03*
X103810000Y-39131800D03*
X105080000Y-39131800D03*
X107620000Y-39131800D03*
X106350000Y-39131800D03*
X106350000Y-37861800D03*
X107620000Y-37861800D03*
X105080000Y-37861800D03*
X103810000Y-37861800D03*
X98730000Y-37861800D03*
X100000000Y-37861800D03*
X102540000Y-37861800D03*
X101270000Y-37861800D03*
X52476600Y-39131800D03*
X51206600Y-39131800D03*
X51206600Y-37861800D03*
X52476600Y-37861800D03*
X56286600Y-37861800D03*
X57556600Y-37861800D03*
X55016600Y-37861800D03*
X53746600Y-37861800D03*
X53746600Y-39131800D03*
X55016600Y-39131800D03*
X57556600Y-39131800D03*
X56286600Y-39131800D03*
X70256600Y-37861800D03*
X71526600Y-37861800D03*
X74066600Y-37861800D03*
X72796600Y-37861800D03*
X72796600Y-39131800D03*
X74066600Y-39131800D03*
X71526600Y-39131800D03*
X70256600Y-39131800D03*
X75336600Y-39131800D03*
X75336600Y-37861800D03*
X68986600Y-37861800D03*
X68986600Y-39131800D03*
X61366600Y-39131800D03*
X62636600Y-39131800D03*
X60096600Y-39131800D03*
X58826600Y-39131800D03*
X63906600Y-39131800D03*
X65176600Y-39131800D03*
X67716600Y-39131800D03*
X66446600Y-39131800D03*
X66446600Y-37861800D03*
X67716600Y-37861800D03*
X65176600Y-37861800D03*
X63906600Y-37861800D03*
X58826600Y-37861800D03*
X60096600Y-37861800D03*
X62636600Y-37861800D03*
X61366600Y-37861800D03*
D19*
X132940000Y-58660000D03*
X115200000Y-43690000D03*
X144000000Y-56900000D03*
X144010000Y-47490000D03*
X144000000Y-73000000D03*
X144000000Y-86900000D03*
X144000000Y-60600000D03*
X110744000Y-36576000D03*
X66700000Y-75500000D03*
X136708400Y-77412980D03*
X143300000Y-48000000D03*
X136708400Y-63812980D03*
X135438400Y-63812980D03*
X134168400Y-63812980D03*
X141950000Y-50930000D03*
X117050000Y-43590000D03*
X118570000Y-43790000D03*
X141950000Y-57370000D03*
X143200000Y-91600000D03*
X120060000Y-43410000D03*
X120800000Y-42800000D03*
X69000000Y-75500000D03*
X145500000Y-52600000D03*
X142610000Y-56320000D03*
X142610000Y-50210000D03*
X142600000Y-77400000D03*
X142600000Y-63800000D03*
X142500000Y-91000000D03*
X119800000Y-41800000D03*
X146000000Y-45000000D03*
X150800000Y-66800000D03*
X150700000Y-62100000D03*
X141180000Y-74020000D03*
X141210000Y-87800000D03*
X139500000Y-52500000D03*
X146890000Y-53380000D03*
X147400000Y-61400000D03*
X73300000Y-57900000D03*
X73300000Y-58600000D03*
X73300000Y-57100000D03*
X141200000Y-53300000D03*
X141210000Y-56910000D03*
X72771000Y-40322500D03*
X129088400Y-88285020D03*
X74041000Y-40322500D03*
X130358400Y-88285020D03*
X76136500Y-39179500D03*
X131630000Y-88320000D03*
X118928400Y-88285020D03*
X62611000Y-40322500D03*
X120198400Y-88285020D03*
X63881000Y-40322500D03*
X122738400Y-88285020D03*
X66421000Y-40322500D03*
X121468400Y-88285020D03*
X65151000Y-40322500D03*
X126548400Y-88285020D03*
X70231000Y-40322500D03*
X127818400Y-88285020D03*
X71501000Y-40322500D03*
X125278400Y-88285020D03*
X68961000Y-40322500D03*
X124008400Y-88285020D03*
X67691000Y-40322500D03*
X57531000Y-40322500D03*
X113848400Y-88285020D03*
X115118400Y-88285020D03*
X58801000Y-40322500D03*
X117658400Y-88285020D03*
X61341000Y-40322500D03*
X60071000Y-40322500D03*
X116388400Y-88285020D03*
X111308400Y-88285020D03*
X87947500Y-59055000D03*
X54991000Y-40322500D03*
X112578400Y-88285020D03*
X56261000Y-40322500D03*
X88582500Y-58547000D03*
X87249000Y-58674000D03*
X53721000Y-40322500D03*
X110038400Y-88285020D03*
X146450000Y-64600000D03*
X146600000Y-58200000D03*
X146500000Y-71600000D03*
X146500000Y-85400000D03*
X72160000Y-39790000D03*
X127818400Y-91012980D03*
X129088400Y-91012980D03*
X73406000Y-39878000D03*
X131630000Y-90950000D03*
X74676000Y-39878000D03*
X130358400Y-91012980D03*
X117658400Y-91012980D03*
X61976000Y-39878000D03*
X118928400Y-91012980D03*
X63246000Y-39878000D03*
X121468400Y-91012980D03*
X65786000Y-39878000D03*
X120198400Y-91012980D03*
X64516000Y-39878000D03*
X110038400Y-91012980D03*
X86423500Y-73406000D03*
X86233000Y-72644000D03*
X111308400Y-91012980D03*
X108768400Y-91012980D03*
X86550500Y-74168000D03*
X107498400Y-91012980D03*
X86741000Y-74930000D03*
X86042500Y-71882000D03*
X112578400Y-91012980D03*
X113848400Y-91012980D03*
X58166000Y-39878000D03*
X116388400Y-91012980D03*
X60706000Y-39878000D03*
X115118400Y-91012980D03*
X59436000Y-39878000D03*
X107498400Y-88285020D03*
X86487000Y-59753500D03*
X52451000Y-40322500D03*
X108768400Y-88285020D03*
X87185500Y-60071000D03*
X122738400Y-91012980D03*
X67056000Y-39878000D03*
X124008400Y-91012980D03*
X68326000Y-39878000D03*
X126548400Y-91012980D03*
X70866000Y-39878000D03*
X125278400Y-91012980D03*
X69596000Y-39878000D03*
X125278400Y-74685020D03*
X126548400Y-74685020D03*
X129088400Y-74685020D03*
X127818400Y-74685020D03*
X131628400Y-74685020D03*
X130358400Y-74685020D03*
X125278400Y-77412980D03*
X126548400Y-77412980D03*
X129088400Y-77412980D03*
X127818400Y-77412980D03*
X131628400Y-77412980D03*
X130358400Y-77412980D03*
X120198400Y-77412980D03*
X121468400Y-77412980D03*
X124008400Y-77412980D03*
X122738400Y-77412980D03*
X120198400Y-74685020D03*
X121468400Y-74685020D03*
X124008400Y-74685020D03*
X122738400Y-74685020D03*
X117658400Y-74685020D03*
X118928400Y-74685020D03*
X110038400Y-74685020D03*
X111308400Y-74685020D03*
X108768400Y-74685020D03*
X112578400Y-74685020D03*
X113848400Y-74685020D03*
X116388400Y-74685020D03*
X115118400Y-74685020D03*
X117658400Y-77412980D03*
X118928400Y-77412980D03*
X110038400Y-77412980D03*
X111308400Y-77412980D03*
X108768400Y-77412980D03*
X107498400Y-77412980D03*
X112578400Y-77412980D03*
X113848400Y-77412980D03*
X116388400Y-77412980D03*
X115118400Y-77412980D03*
X107498400Y-74685020D03*
X125278400Y-61085020D03*
X126548400Y-61085020D03*
X129088400Y-61085020D03*
X127818400Y-61085020D03*
X131628400Y-61085020D03*
X130358400Y-61085020D03*
X125278400Y-63812980D03*
X126548400Y-63812980D03*
X129088400Y-63812980D03*
X127818400Y-63812980D03*
X131628400Y-63812980D03*
X130358400Y-63812980D03*
X120198400Y-63812980D03*
X121468400Y-63812980D03*
X124008400Y-63812980D03*
X122738400Y-63812980D03*
X120198400Y-61085020D03*
X121468400Y-61085020D03*
X124008400Y-61085020D03*
X122738400Y-61085020D03*
X117658400Y-61085020D03*
X118928400Y-61085020D03*
X110038400Y-61085020D03*
X111308400Y-61085020D03*
X108768400Y-61085020D03*
X112578400Y-61085020D03*
X113848400Y-61085020D03*
X116388400Y-61085020D03*
X115118400Y-61085020D03*
X117658400Y-63812980D03*
X118928400Y-63812980D03*
X110038400Y-63812980D03*
X111308400Y-63812980D03*
X108768400Y-63812980D03*
X107498400Y-63812980D03*
X112578400Y-63812980D03*
X113848400Y-63812980D03*
X116388400Y-63812980D03*
X115118400Y-63812980D03*
X107498400Y-61085020D03*
X135000000Y-41300000D03*
X119000000Y-41000000D03*
X132200000Y-44100000D03*
X147300000Y-85600000D03*
X147300000Y-72100000D03*
X149700000Y-59100000D03*
X145400000Y-54700000D03*
X145700000Y-79700000D03*
X145700000Y-66200000D03*
X145600000Y-93600000D03*
X62850000Y-48300000D03*
X69000000Y-77500000D03*
X66700000Y-77500000D03*
X48600000Y-57600000D03*
X48300000Y-46100000D03*
X51700000Y-46100000D03*
X52500000Y-45000000D03*
X47100000Y-44700000D03*
D20*
X115290000Y-43600000D02*
X115200000Y-43690000D01*
X144000000Y-60600000D02*
X144000000Y-56900000D01*
X144000000Y-56900000D02*
X144000000Y-47500000D01*
X144000000Y-47500000D02*
X144010000Y-47490000D01*
X144000000Y-86900000D02*
X144000000Y-73000000D01*
X144000000Y-73000000D02*
X144000000Y-60600000D01*
X136700000Y-77404580D02*
X136700000Y-77400000D01*
X136708400Y-77412980D02*
X136700000Y-77404580D01*
X144210000Y-46800000D02*
X143810000Y-46800000D01*
X144700000Y-47290000D02*
X144210000Y-46800000D01*
X143810000Y-46800000D02*
X143290000Y-47320000D01*
X143290000Y-47320000D02*
X143290000Y-48000000D01*
X143300000Y-48000000D02*
X143290000Y-48000000D01*
X143290000Y-48000000D02*
X143300000Y-48000000D01*
X143300000Y-48000000D02*
X143290000Y-48000000D01*
X143300000Y-49970000D02*
X142770000Y-49440000D01*
X142770000Y-49440000D02*
X142420000Y-49440000D01*
X142420000Y-49440000D02*
X141950000Y-49910000D01*
X143290000Y-49960000D02*
X143300000Y-49970000D01*
X143290000Y-48000000D02*
X143290000Y-49960000D01*
X136700000Y-63800000D02*
X136700000Y-63804580D01*
X136700000Y-63804580D02*
X136708400Y-63812980D01*
X135400000Y-63800000D02*
X135425420Y-63800000D01*
X135425420Y-63800000D02*
X135438400Y-63812980D01*
X134181380Y-63800000D02*
X134200000Y-63800000D01*
X134168400Y-63812980D02*
X134181380Y-63800000D01*
X143300000Y-88700000D02*
X143300000Y-49970000D01*
X141950000Y-50930000D02*
X141950000Y-57370000D01*
X141950000Y-49910000D02*
X141950000Y-50930000D01*
X144700000Y-87300000D02*
X143300000Y-88700000D01*
X144700000Y-87300000D02*
X144700000Y-47290000D01*
X143300000Y-91500000D02*
X143300000Y-88700000D01*
X141950000Y-57370000D02*
X141950000Y-90650000D01*
X141950000Y-90650000D02*
X141800000Y-90800000D01*
X141800000Y-90800000D02*
X141800000Y-91200000D01*
X141800000Y-91200000D02*
X142300000Y-91700000D01*
X142300000Y-91700000D02*
X143100000Y-91700000D01*
X143100000Y-91700000D02*
X143200000Y-91600000D01*
X143200000Y-91600000D02*
X143300000Y-91500000D01*
D21*
X110160000Y-39131800D02*
X110160000Y-40260000D01*
X110160000Y-40260000D02*
X112450000Y-42550000D01*
X120600000Y-42800000D02*
X120370000Y-42570000D01*
X120370000Y-42570000D02*
X112450000Y-42570000D01*
X112450000Y-42570000D02*
X112450000Y-42550000D01*
X120800000Y-42800000D02*
X120600000Y-42800000D01*
D20*
X142600000Y-56330000D02*
X142600000Y-56420000D01*
X142610000Y-56320000D02*
X142600000Y-56330000D01*
X142600000Y-63800000D02*
X142600000Y-56420000D01*
X142600000Y-56420000D02*
X142600000Y-50220000D01*
X142600000Y-50220000D02*
X142610000Y-50210000D01*
X142600000Y-63800000D02*
X142600000Y-77400000D01*
X142600000Y-77400000D02*
X142600000Y-90900000D01*
X142600000Y-90900000D02*
X142500000Y-91000000D01*
X111430000Y-39131800D02*
X111430000Y-40130000D01*
X119800000Y-41800000D02*
X113100000Y-41800000D01*
X146900000Y-45900000D02*
X146000000Y-45000000D01*
X146900000Y-45900000D02*
X146900000Y-53380000D01*
X111430000Y-40130000D02*
X113100000Y-41800000D01*
X150800000Y-62200000D02*
X150800000Y-66800000D01*
X150700000Y-62100000D02*
X150800000Y-62200000D01*
X146890000Y-53380000D02*
X146900000Y-53380000D01*
X146900000Y-53380000D02*
X146890000Y-53380000D01*
X146890000Y-53380000D02*
X146900000Y-53380000D01*
X147400000Y-61400000D02*
X147500000Y-61300000D01*
X147500000Y-61300000D02*
X147500000Y-57900000D01*
X147500000Y-57900000D02*
X146900000Y-57300000D01*
X146900000Y-57300000D02*
X146900000Y-53380000D01*
X141200000Y-53300000D02*
X141200000Y-56900000D01*
X141200000Y-56900000D02*
X141210000Y-56910000D01*
X72796600Y-40296900D02*
X72771000Y-40322500D01*
X72796600Y-39131800D02*
X72796600Y-40296900D01*
X129080000Y-88280000D02*
X129083380Y-88280000D01*
X129083380Y-88280000D02*
X129088400Y-88285020D01*
X74066600Y-40296900D02*
X74041000Y-40322500D01*
X74066600Y-39131800D02*
X74066600Y-40296900D01*
X130340000Y-88280000D02*
X130353380Y-88280000D01*
X130353380Y-88280000D02*
X130358400Y-88285020D01*
X76088800Y-39131800D02*
X76136500Y-39179500D01*
X75336600Y-39131800D02*
X76088800Y-39131800D01*
X118910000Y-88280000D02*
X118923380Y-88280000D01*
X118923380Y-88280000D02*
X118928400Y-88285020D01*
X62636600Y-40296900D02*
X62611000Y-40322500D01*
X62636600Y-40296900D02*
X62636600Y-39131800D01*
X120210000Y-88280000D02*
X120203420Y-88280000D01*
X120203420Y-88280000D02*
X120198400Y-88285020D01*
X63906600Y-40296900D02*
X63881000Y-40322500D01*
X63906600Y-40296900D02*
X63906600Y-39131800D01*
X122720000Y-88280000D02*
X122733380Y-88280000D01*
X122733380Y-88280000D02*
X122738400Y-88285020D01*
X66446600Y-40296900D02*
X66421000Y-40322500D01*
X66446600Y-40296900D02*
X66446600Y-39131800D01*
X121460000Y-88280000D02*
X121463380Y-88280000D01*
X121463380Y-88280000D02*
X121468400Y-88285020D01*
X65176600Y-40296900D02*
X65151000Y-40322500D01*
X65176600Y-40296900D02*
X65176600Y-39131800D01*
X126543380Y-88280000D02*
X126548400Y-88285020D01*
X126530000Y-88280000D02*
X126543380Y-88280000D01*
X70256600Y-40296900D02*
X70231000Y-40322500D01*
X70256600Y-40296900D02*
X70256600Y-39131800D01*
X127823420Y-88280000D02*
X127818400Y-88285020D01*
X127830000Y-88280000D02*
X127823420Y-88280000D01*
X71526600Y-40296900D02*
X71501000Y-40322500D01*
X71526600Y-40296900D02*
X71526600Y-39131800D01*
X125270000Y-88280000D02*
X125273380Y-88280000D01*
X125273380Y-88280000D02*
X125278400Y-88285020D01*
X68986600Y-40296900D02*
X68961000Y-40322500D01*
X68986600Y-40296900D02*
X68986600Y-39131800D01*
X124020000Y-88280000D02*
X124013420Y-88280000D01*
X124013420Y-88280000D02*
X124008400Y-88285020D01*
X67716600Y-40296900D02*
X67691000Y-40322500D01*
X67716600Y-40296900D02*
X67716600Y-39131800D01*
X57556600Y-40296900D02*
X57531000Y-40322500D01*
X57556600Y-39131800D02*
X57556600Y-40296900D01*
X113843380Y-88280000D02*
X113848400Y-88285020D01*
X113840000Y-88280000D02*
X113843380Y-88280000D01*
X115100000Y-88280000D02*
X115113380Y-88280000D01*
X115113380Y-88280000D02*
X115118400Y-88285020D01*
X58826600Y-40296900D02*
X58801000Y-40322500D01*
X58826600Y-40296900D02*
X58826600Y-39131800D01*
X117650000Y-88280000D02*
X117653380Y-88280000D01*
X117653380Y-88280000D02*
X117658400Y-88285020D01*
X61366600Y-40296900D02*
X61341000Y-40322500D01*
X61366600Y-40296900D02*
X61366600Y-39131800D01*
X60096600Y-40296900D02*
X60071000Y-40322500D01*
X60096600Y-39131800D02*
X60096600Y-40296900D01*
X116393420Y-88280000D02*
X116388400Y-88285020D01*
X116393420Y-88280000D02*
X116400000Y-88280000D01*
X111303380Y-88280000D02*
X111308400Y-88285020D01*
X111290000Y-88280000D02*
X111303380Y-88280000D01*
X55016600Y-40296900D02*
X55016600Y-39131800D01*
X55016600Y-40296900D02*
X54991000Y-40322500D01*
X112583420Y-88280000D02*
X112578400Y-88285020D01*
X112590000Y-88280000D02*
X112583420Y-88280000D01*
X56286600Y-39131800D02*
X56286600Y-40296900D01*
X56286600Y-40296900D02*
X56261000Y-40322500D01*
X88582500Y-58547000D02*
X88519000Y-58610500D01*
X53746600Y-39131800D02*
X53746600Y-40296900D01*
X53746600Y-40296900D02*
X53721000Y-40322500D01*
X110033380Y-88280000D02*
X110038400Y-88285020D01*
X110033380Y-88280000D02*
X110030000Y-88280000D01*
D21*
X146450000Y-64600000D02*
X146500000Y-64600000D01*
X146600000Y-58200000D02*
X146500000Y-58300000D01*
X146500000Y-58300000D02*
X146500000Y-64600000D01*
X146500000Y-64600000D02*
X146500000Y-71600000D01*
X146500000Y-71600000D02*
X146500000Y-85400000D01*
D20*
X72160000Y-39790000D02*
X72136000Y-39814000D01*
X72136000Y-39814000D02*
X72136000Y-40640000D01*
X72136000Y-40640000D02*
X72863502Y-41367502D01*
X72863502Y-41367502D02*
X77628308Y-41367502D01*
X77628308Y-41367502D02*
X83889994Y-47629188D01*
X127190000Y-90384580D02*
X127818400Y-91012980D01*
X127190000Y-87660000D02*
X127190000Y-90384580D01*
X119390006Y-79860006D02*
X127190000Y-87660000D01*
X101870812Y-79860006D02*
X119390006Y-79860006D01*
X83889994Y-61879188D02*
X101870812Y-79860006D01*
X83889994Y-47629188D02*
X83889994Y-61879188D01*
X77854704Y-40957500D02*
X73723500Y-40957500D01*
X84339996Y-47442792D02*
X84339996Y-61692792D01*
X84339996Y-61692792D02*
X102057208Y-79410004D01*
X102057208Y-79410004D02*
X120210004Y-79410004D01*
X120210004Y-79410004D02*
X128450000Y-87650000D01*
X128450000Y-87650000D02*
X128450000Y-90374580D01*
X128450000Y-90374580D02*
X129088400Y-91012980D01*
X77854704Y-40957500D02*
X84339996Y-47442792D01*
X73406000Y-40640000D02*
X73406000Y-39878000D01*
X73723500Y-40957500D02*
X73406000Y-40640000D01*
X76512400Y-38342400D02*
X85240000Y-47070000D01*
X75336600Y-37861800D02*
X76031800Y-37861800D01*
X76031800Y-37861800D02*
X76512400Y-38342400D01*
X130990000Y-90310000D02*
X131630000Y-90950000D01*
X130990000Y-87660000D02*
X130990000Y-90310000D01*
X121840000Y-78510000D02*
X130990000Y-87660000D01*
X102430000Y-78510000D02*
X121840000Y-78510000D01*
X85240000Y-61320000D02*
X102430000Y-78510000D01*
X85240000Y-47070000D02*
X85240000Y-61320000D01*
X74866500Y-39878000D02*
X74930000Y-39941500D01*
X74930000Y-39941500D02*
X77531670Y-39941500D01*
X77531670Y-39941500D02*
X84789998Y-47199828D01*
X84789998Y-47199828D02*
X84789998Y-47256396D01*
X129720000Y-87660000D02*
X129720000Y-90374580D01*
X129720000Y-90374580D02*
X130358400Y-91012980D01*
X121020002Y-78960002D02*
X129720000Y-87660000D01*
X102243604Y-78960002D02*
X121020002Y-78960002D01*
X84789998Y-61506396D02*
X102243604Y-78960002D01*
X84789998Y-47256396D02*
X84789998Y-61506396D01*
X74676000Y-39878000D02*
X74866500Y-39878000D01*
X61976000Y-39878000D02*
X61976000Y-40576500D01*
X80289978Y-49120356D02*
X80289978Y-63370356D01*
X80289978Y-63370356D02*
X100379644Y-83460022D01*
X100379644Y-83460022D02*
X112840022Y-83460022D01*
X112840022Y-83460022D02*
X117020000Y-87640000D01*
X117020000Y-87640000D02*
X117020000Y-90374580D01*
X117020000Y-90374580D02*
X117658400Y-91012980D01*
X80289978Y-48780948D02*
X80289978Y-49120356D01*
X76156548Y-44647518D02*
X80289978Y-48780948D01*
X66047018Y-44647518D02*
X76156548Y-44647518D01*
X61976000Y-40576500D02*
X66047018Y-44647518D01*
X63246000Y-39878000D02*
X63246000Y-40576500D01*
X80739980Y-48933960D02*
X80739980Y-63183960D01*
X80739980Y-63183960D02*
X100566040Y-83010020D01*
X100566040Y-83010020D02*
X113650020Y-83010020D01*
X113650020Y-83010020D02*
X118290000Y-87650000D01*
X118290000Y-87650000D02*
X118290000Y-90374580D01*
X118290000Y-90374580D02*
X118928400Y-91012980D01*
X80739980Y-48651120D02*
X80739980Y-48933960D01*
X76326376Y-44237516D02*
X80739980Y-48651120D01*
X66907016Y-44237516D02*
X76326376Y-44237516D01*
X63246000Y-40576500D02*
X66907016Y-44237516D01*
X65786000Y-39878000D02*
X65786000Y-40576500D01*
X81639984Y-48561168D02*
X81639984Y-62811168D01*
X81639984Y-62811168D02*
X100938832Y-82110016D01*
X100938832Y-82110016D02*
X115290016Y-82110016D01*
X115290016Y-82110016D02*
X120830000Y-87650000D01*
X120830000Y-87650000D02*
X120830000Y-90374580D01*
X120830000Y-90374580D02*
X121468400Y-91012980D01*
X81639984Y-48391464D02*
X81639984Y-48561168D01*
X76666032Y-43417512D02*
X81639984Y-48391464D01*
X68627012Y-43417512D02*
X76666032Y-43417512D01*
X65786000Y-40576500D02*
X68627012Y-43417512D01*
X64516000Y-39878000D02*
X64516000Y-40576500D01*
X81189982Y-48747564D02*
X81189982Y-62997564D01*
X81189982Y-62997564D02*
X100752436Y-82560018D01*
X100752436Y-82560018D02*
X114480018Y-82560018D01*
X114480018Y-82560018D02*
X119560000Y-87640000D01*
X119560000Y-87640000D02*
X119560000Y-90374580D01*
X119560000Y-90374580D02*
X120198400Y-91012980D01*
X81189982Y-48521292D02*
X81189982Y-48747564D01*
X76496204Y-43827514D02*
X81189982Y-48521292D01*
X67767014Y-43827514D02*
X76496204Y-43827514D01*
X64516000Y-40576500D02*
X67767014Y-43827514D01*
X86423500Y-73406000D02*
X86676938Y-73406000D01*
X109400000Y-87650000D02*
X109400000Y-90374580D01*
X109400000Y-90374580D02*
X110038400Y-91012980D01*
X107830034Y-86080034D02*
X109400000Y-87650000D01*
X99350972Y-86080034D02*
X107830034Y-86080034D01*
X86676938Y-73406000D02*
X99350972Y-86080034D01*
X108690032Y-85670032D02*
X110680000Y-87660000D01*
X86494768Y-72644000D02*
X99520800Y-85670032D01*
X99520800Y-85670032D02*
X108690032Y-85670032D01*
X110680000Y-90384580D02*
X111308400Y-91012980D01*
X110680000Y-87660000D02*
X110680000Y-90384580D01*
X86233000Y-72644000D02*
X86494768Y-72644000D01*
X99181144Y-86490036D02*
X106810036Y-86490036D01*
X108130000Y-90374580D02*
X108768400Y-91012980D01*
X86550500Y-74168000D02*
X86859108Y-74168000D01*
X86859108Y-74168000D02*
X99181144Y-86490036D01*
X108130000Y-87810000D02*
X108130000Y-90374580D01*
X106810036Y-86490036D02*
X108130000Y-87810000D01*
X86741000Y-74930000D02*
X87041278Y-74930000D01*
X107498400Y-89527900D02*
X107498400Y-91012980D01*
X104870538Y-86900038D02*
X107498400Y-89527900D01*
X99011316Y-86900038D02*
X104870538Y-86900038D01*
X87041278Y-74930000D02*
X99011316Y-86900038D01*
X99690628Y-85260030D02*
X86312598Y-71882000D01*
X86312598Y-71882000D02*
X86042500Y-71882000D01*
X99695000Y-85260030D02*
X99690628Y-85260030D01*
X99695000Y-85260030D02*
X109550030Y-85260030D01*
X109550030Y-85260030D02*
X111940000Y-87650000D01*
X111940000Y-87650000D02*
X111940000Y-90374580D01*
X111940000Y-90374580D02*
X112578400Y-91012980D01*
X58166000Y-39878000D02*
X58166000Y-40576500D01*
X78939972Y-49679544D02*
X78939972Y-63929544D01*
X78939972Y-63929544D02*
X99820456Y-84810028D01*
X99820456Y-84810028D02*
X110380028Y-84810028D01*
X110380028Y-84810028D02*
X113210000Y-87640000D01*
X113210000Y-87640000D02*
X113210000Y-90374580D01*
X113210000Y-90374580D02*
X113848400Y-91012980D01*
X78939972Y-49170432D02*
X78939972Y-49679544D01*
X75647064Y-45877524D02*
X78939972Y-49170432D01*
X63467024Y-45877524D02*
X75647064Y-45877524D01*
X58166000Y-40576500D02*
X63467024Y-45877524D01*
X60706000Y-39878000D02*
X60706000Y-40576500D01*
X79839976Y-49306752D02*
X79839976Y-63556752D01*
X79839976Y-63556752D02*
X100193248Y-83910024D01*
X100193248Y-83910024D02*
X112000024Y-83910024D01*
X112000024Y-83910024D02*
X115760000Y-87670000D01*
X115760000Y-87670000D02*
X115760000Y-90384580D01*
X115760000Y-90384580D02*
X116388400Y-91012980D01*
X79839976Y-48910776D02*
X79839976Y-49306752D01*
X75986720Y-45057520D02*
X79839976Y-48910776D01*
X65187020Y-45057520D02*
X75986720Y-45057520D01*
X60706000Y-40576500D02*
X65187020Y-45057520D01*
X59436000Y-39878000D02*
X59436000Y-40576500D01*
X79389974Y-49493148D02*
X79389974Y-63743148D01*
X79389974Y-63743148D02*
X100006852Y-84360026D01*
X100006852Y-84360026D02*
X111200026Y-84360026D01*
X111200026Y-84360026D02*
X114480000Y-87640000D01*
X114480000Y-87640000D02*
X114480000Y-90374580D01*
X114480000Y-90374580D02*
X115118400Y-91012980D01*
X79389974Y-49040604D02*
X79389974Y-49493148D01*
X75816892Y-45467522D02*
X79389974Y-49040604D01*
X64327022Y-45467522D02*
X75816892Y-45467522D01*
X59436000Y-40576500D02*
X64327022Y-45467522D01*
X107480000Y-88280000D02*
X107493380Y-88280000D01*
X107493380Y-88280000D02*
X107498400Y-88285020D01*
X52476600Y-40296900D02*
X52451000Y-40322500D01*
X52476600Y-39131800D02*
X52476600Y-40296900D01*
X108773420Y-88280000D02*
X108780000Y-88280000D01*
X108773420Y-88280000D02*
X108768400Y-88285020D01*
X67056000Y-39878000D02*
X67056000Y-40576500D01*
X82089986Y-48374772D02*
X82089986Y-62624772D01*
X82089986Y-62624772D02*
X101125228Y-81660014D01*
X101125228Y-81660014D02*
X116110014Y-81660014D01*
X116110014Y-81660014D02*
X122110000Y-87660000D01*
X122110000Y-87660000D02*
X122110000Y-90384580D01*
X122110000Y-90384580D02*
X122738400Y-91012980D01*
X82089986Y-48261636D02*
X82089986Y-48374772D01*
X76835860Y-43007510D02*
X82089986Y-48261636D01*
X69487010Y-43007510D02*
X76835860Y-43007510D01*
X67056000Y-40576500D02*
X69487010Y-43007510D01*
X82539988Y-48145950D02*
X82539988Y-48131808D01*
X82539988Y-48145950D02*
X82539988Y-62438376D01*
X82539988Y-62438376D02*
X101311624Y-81210012D01*
X101311624Y-81210012D02*
X116930012Y-81210012D01*
X116930012Y-81210012D02*
X123370000Y-87650000D01*
X123370000Y-87650000D02*
X123370000Y-90374580D01*
X123370000Y-90374580D02*
X124008400Y-91012980D01*
X68326000Y-39878000D02*
X68326000Y-40576500D01*
X70347008Y-42597508D02*
X77005688Y-42597508D01*
X68326000Y-40576500D02*
X70347008Y-42597508D01*
X82539988Y-48131808D02*
X77005688Y-42597508D01*
X70866000Y-39878000D02*
X70866000Y-40576500D01*
X83439992Y-47815584D02*
X83439992Y-62065584D01*
X83439992Y-62065584D02*
X101684416Y-80310008D01*
X101684416Y-80310008D02*
X118560008Y-80310008D01*
X118560008Y-80310008D02*
X125910000Y-87660000D01*
X125910000Y-87660000D02*
X125910000Y-90374580D01*
X125910000Y-90374580D02*
X126548400Y-91012980D01*
X77401912Y-41777504D02*
X83439992Y-47815584D01*
X72067004Y-41777504D02*
X77401912Y-41777504D01*
X70866000Y-40576500D02*
X72067004Y-41777504D01*
X69596000Y-39878000D02*
X69596000Y-40576500D01*
X82989990Y-48001980D02*
X82989990Y-62251980D01*
X82989990Y-62251980D02*
X101498020Y-80760010D01*
X101498020Y-80760010D02*
X117760010Y-80760010D01*
X117760010Y-80760010D02*
X124640000Y-87640000D01*
X124640000Y-87640000D02*
X124640000Y-90374580D01*
X124640000Y-90374580D02*
X125278400Y-91012980D01*
X77175516Y-42187506D02*
X82989990Y-48001980D01*
X71207006Y-42187506D02*
X77175516Y-42187506D01*
X69596000Y-40576500D02*
X71207006Y-42187506D01*
X125278400Y-74685020D02*
X125278400Y-74224400D01*
X125285500Y-74677920D02*
X125278400Y-74685020D01*
X125285500Y-74676000D02*
X125285500Y-74677920D01*
X102540000Y-39763500D02*
X102540000Y-39131800D01*
X101409934Y-40893566D02*
X102540000Y-39763500D01*
X101409934Y-64152574D02*
X101409934Y-40893566D01*
X104547360Y-67290000D02*
X101409934Y-64152574D01*
X118344000Y-67290000D02*
X104547360Y-67290000D01*
X125278400Y-74224400D02*
X118344000Y-67290000D01*
X126548400Y-74685020D02*
X126564520Y-74685020D01*
X126555500Y-74677920D02*
X126548400Y-74685020D01*
X126555500Y-74676000D02*
X126555500Y-74677920D01*
X101819936Y-41436064D02*
X103967100Y-39288900D01*
X101819936Y-63982746D02*
X101819936Y-41436064D01*
X104717188Y-66879998D02*
X101819936Y-63982746D01*
X118759498Y-66879998D02*
X104717188Y-66879998D01*
X126564520Y-74685020D02*
X118759498Y-66879998D01*
X129088400Y-74685020D02*
X128850520Y-74685020D01*
X129095500Y-74677920D02*
X129088400Y-74685020D01*
X129095500Y-74676000D02*
X129095500Y-74677920D01*
X102639940Y-42841860D02*
X106350000Y-39131800D01*
X102639940Y-63642610D02*
X102639940Y-42841860D01*
X105057324Y-66059994D02*
X102639940Y-63642610D01*
X120225494Y-66059994D02*
X105057324Y-66059994D01*
X128850520Y-74685020D02*
X120225494Y-66059994D01*
X127818400Y-74685020D02*
X127580520Y-74685020D01*
X127825500Y-74692120D02*
X127818400Y-74685020D01*
X127825500Y-74739500D02*
X127825500Y-74692120D01*
X102229938Y-41981862D02*
X105080000Y-39131800D01*
X102229938Y-63812438D02*
X102229938Y-41981862D01*
X104887496Y-66469996D02*
X102229938Y-63812438D01*
X119365496Y-66469996D02*
X104887496Y-66469996D01*
X127580520Y-74685020D02*
X119365496Y-66469996D01*
X131628400Y-74685020D02*
X131390520Y-74685020D01*
X131635500Y-74677920D02*
X131628400Y-74685020D01*
X131635500Y-74676000D02*
X131635500Y-74677920D01*
X103459944Y-44561856D02*
X108890000Y-39131800D01*
X103459944Y-63302954D02*
X103459944Y-44561856D01*
X105396980Y-65239990D02*
X103459944Y-63302954D01*
X121945490Y-65239990D02*
X105396980Y-65239990D01*
X131390520Y-74685020D02*
X121945490Y-65239990D01*
X130358400Y-74685020D02*
X130120520Y-74685020D01*
X130365500Y-74677920D02*
X130358400Y-74685020D01*
X130365500Y-74676000D02*
X130365500Y-74677920D01*
X103049942Y-43701858D02*
X107620000Y-39131800D01*
X103049942Y-63472782D02*
X103049942Y-43701858D01*
X105227152Y-65649992D02*
X103049942Y-63472782D01*
X121085492Y-65649992D02*
X105227152Y-65649992D01*
X130120520Y-74685020D02*
X121085492Y-65649992D01*
X125284880Y-77406500D02*
X125278400Y-77412980D01*
X125285500Y-77406500D02*
X125284880Y-77406500D01*
X126554880Y-77406500D02*
X126548400Y-77412980D01*
X126555500Y-77406500D02*
X126554880Y-77406500D01*
X129095500Y-77406500D02*
X129094880Y-77406500D01*
X129094880Y-77406500D02*
X129088400Y-77412980D01*
X127824880Y-77406500D02*
X127818400Y-77412980D01*
X127825500Y-77406500D02*
X127824880Y-77406500D01*
X131634880Y-77406500D02*
X131628400Y-77412980D01*
X131635500Y-77406500D02*
X131634880Y-77406500D01*
X130364880Y-77406500D02*
X130358400Y-77412980D01*
X130365500Y-77406500D02*
X130364880Y-77406500D01*
X120204880Y-77406500D02*
X120198400Y-77412980D01*
X120205500Y-77406500D02*
X120204880Y-77406500D01*
X121474880Y-77406500D02*
X121468400Y-77412980D01*
X121475500Y-77406500D02*
X121474880Y-77406500D01*
X124014880Y-77406500D02*
X124008400Y-77412980D01*
X124015500Y-77406500D02*
X124014880Y-77406500D01*
X122744880Y-77406500D02*
X122738400Y-77412980D01*
X122745500Y-77406500D02*
X122744880Y-77406500D01*
X120198400Y-74685020D02*
X120198400Y-73970400D01*
X120205500Y-74677920D02*
X120198400Y-74685020D01*
X120205500Y-74676000D02*
X120205500Y-74677920D01*
X97460000Y-40310000D02*
X97460000Y-39131800D01*
X99769926Y-42619926D02*
X97460000Y-40310000D01*
X99769926Y-64831886D02*
X99769926Y-42619926D01*
X103868048Y-68930008D02*
X99769926Y-64831886D01*
X115158008Y-68930008D02*
X103868048Y-68930008D01*
X120198400Y-73970400D02*
X115158008Y-68930008D01*
X121468400Y-74685020D02*
X121468400Y-74097400D01*
X121475500Y-74676000D02*
X121475500Y-74677920D01*
X121475500Y-74677920D02*
X121468400Y-74685020D01*
X98730000Y-40246500D02*
X98730000Y-39131800D01*
X100179928Y-41696428D02*
X98730000Y-40246500D01*
X100179928Y-64662058D02*
X100179928Y-41696428D01*
X104037876Y-68520006D02*
X100179928Y-64662058D01*
X115891006Y-68520006D02*
X104037876Y-68520006D01*
X121468400Y-74097400D02*
X115891006Y-68520006D01*
X124008400Y-74685020D02*
X124008400Y-73906900D01*
X124015500Y-74677920D02*
X124008400Y-74685020D01*
X124015500Y-74676000D02*
X124015500Y-74677920D01*
X101270000Y-40335000D02*
X101270000Y-39131800D01*
X100999932Y-40605068D02*
X101270000Y-40335000D01*
X100999932Y-64322402D02*
X100999932Y-40605068D01*
X104377532Y-67700002D02*
X100999932Y-64322402D01*
X117801502Y-67700002D02*
X104377532Y-67700002D01*
X124008400Y-73906900D02*
X117801502Y-67700002D01*
X122738400Y-74685020D02*
X122738400Y-73906900D01*
X122745500Y-74677920D02*
X122738400Y-74685020D01*
X122745500Y-74676000D02*
X122745500Y-74677920D01*
X100000000Y-40183000D02*
X100000000Y-39131800D01*
X100589930Y-40772930D02*
X100000000Y-40183000D01*
X100589930Y-64492230D02*
X100589930Y-40772930D01*
X104207704Y-68110004D02*
X100589930Y-64492230D01*
X116941504Y-68110004D02*
X104207704Y-68110004D01*
X122738400Y-73906900D02*
X116941504Y-68110004D01*
X117658400Y-74685020D02*
X117658400Y-74160900D01*
X117665500Y-74677920D02*
X117658400Y-74685020D01*
X117665500Y-74676000D02*
X117665500Y-74677920D01*
X94920000Y-40564000D02*
X94920000Y-39131800D01*
X98949922Y-44593922D02*
X94920000Y-40564000D01*
X98949922Y-65171542D02*
X98949922Y-44593922D01*
X103528392Y-69750012D02*
X98949922Y-65171542D01*
X113247512Y-69750012D02*
X103528392Y-69750012D01*
X117658400Y-74160900D02*
X113247512Y-69750012D01*
X118928400Y-74685020D02*
X118928400Y-73970400D01*
X118935500Y-74677920D02*
X118928400Y-74685020D01*
X118935500Y-74676000D02*
X118935500Y-74677920D01*
X96190000Y-40500500D02*
X96190000Y-39131800D01*
X99359924Y-43670424D02*
X96190000Y-40500500D01*
X99359924Y-65001714D02*
X99359924Y-43670424D01*
X103698220Y-69340010D02*
X99359924Y-65001714D01*
X114298010Y-69340010D02*
X103698220Y-69340010D01*
X118928400Y-73970400D02*
X114298010Y-69340010D01*
X110038400Y-74685020D02*
X110038400Y-73998230D01*
X110030000Y-74690000D02*
X110033420Y-74690000D01*
X110033420Y-74690000D02*
X110038400Y-74685020D01*
X87300000Y-40373500D02*
X87300000Y-39131800D01*
X96489910Y-49563410D02*
X87300000Y-40373500D01*
X96489910Y-66190510D02*
X96489910Y-49563410D01*
X102509424Y-72210024D02*
X96489910Y-66190510D01*
X108250194Y-72210024D02*
X102509424Y-72210024D01*
X110038400Y-73998230D02*
X108250194Y-72210024D01*
X111308400Y-74685020D02*
X111308400Y-73843400D01*
X111315500Y-74677920D02*
X111308400Y-74685020D01*
X111315500Y-74676000D02*
X111315500Y-74677920D01*
X88570000Y-40564000D02*
X88570000Y-39131800D01*
X96899912Y-48893912D02*
X88570000Y-40564000D01*
X96899912Y-66020682D02*
X96899912Y-48893912D01*
X102679252Y-71800022D02*
X96899912Y-66020682D01*
X109265022Y-71800022D02*
X102679252Y-71800022D01*
X111308400Y-73843400D02*
X109265022Y-71800022D01*
X108768400Y-74685020D02*
X108768400Y-74351400D01*
X108775500Y-74677920D02*
X108768400Y-74685020D01*
X108775500Y-74676000D02*
X108775500Y-74677920D01*
X86030000Y-40437000D02*
X86030000Y-39131800D01*
X96079908Y-50486908D02*
X86030000Y-40437000D01*
X96079908Y-66360338D02*
X96079908Y-50486908D01*
X102339596Y-72620026D02*
X96079908Y-66360338D01*
X107037026Y-72620026D02*
X102339596Y-72620026D01*
X108768400Y-74351400D02*
X107037026Y-72620026D01*
X112578400Y-74685020D02*
X112578400Y-73970400D01*
X112585500Y-74676000D02*
X112585500Y-74677920D01*
X112585500Y-74677920D02*
X112578400Y-74685020D01*
X89840000Y-40500500D02*
X89840000Y-39131800D01*
X97309914Y-47970414D02*
X89840000Y-40500500D01*
X97309914Y-65850854D02*
X97309914Y-47970414D01*
X102849080Y-71390020D02*
X97309914Y-65850854D01*
X109998020Y-71390020D02*
X102849080Y-71390020D01*
X112578400Y-73970400D02*
X109998020Y-71390020D01*
X113848400Y-74685020D02*
X113848400Y-74033900D01*
X113855500Y-74677920D02*
X113848400Y-74685020D01*
X113855500Y-74676000D02*
X113855500Y-74677920D01*
X91110000Y-40500500D02*
X91110000Y-39131800D01*
X97719916Y-47110416D02*
X91110000Y-40500500D01*
X97719916Y-65681026D02*
X97719916Y-47110416D01*
X103018908Y-70980018D02*
X97719916Y-65681026D01*
X110794518Y-70980018D02*
X103018908Y-70980018D01*
X113848400Y-74033900D02*
X110794518Y-70980018D01*
X116388400Y-74685020D02*
X116388400Y-74033900D01*
X116395500Y-74677920D02*
X116388400Y-74685020D01*
X116395500Y-74676000D02*
X116395500Y-74677920D01*
X93650000Y-40627500D02*
X93650000Y-39131800D01*
X98539920Y-45517420D02*
X93650000Y-40627500D01*
X98539920Y-65341370D02*
X98539920Y-45517420D01*
X103358564Y-70160014D02*
X98539920Y-65341370D01*
X112514514Y-70160014D02*
X103358564Y-70160014D01*
X116388400Y-74033900D02*
X112514514Y-70160014D01*
X115118400Y-74685020D02*
X115118400Y-74097400D01*
X115125500Y-74677920D02*
X115118400Y-74685020D01*
X115125500Y-74676000D02*
X115125500Y-74677920D01*
X92380000Y-40691000D02*
X92380000Y-39131800D01*
X98129918Y-46440918D02*
X92380000Y-40691000D01*
X98129918Y-65511198D02*
X98129918Y-46440918D01*
X103188736Y-70570016D02*
X98129918Y-65511198D01*
X111591016Y-70570016D02*
X103188736Y-70570016D01*
X115118400Y-74097400D02*
X111591016Y-70570016D01*
X117664880Y-77406500D02*
X117658400Y-77412980D01*
X117665500Y-77406500D02*
X117664880Y-77406500D01*
X118934880Y-77406500D02*
X118928400Y-77412980D01*
X118935500Y-77406500D02*
X118934880Y-77406500D01*
X110045500Y-77406500D02*
X110044880Y-77406500D01*
X110044880Y-77406500D02*
X110038400Y-77412980D01*
X111314880Y-77406500D02*
X111308400Y-77412980D01*
X111315500Y-77406500D02*
X111314880Y-77406500D01*
X108774880Y-77406500D02*
X108768400Y-77412980D01*
X108775500Y-77406500D02*
X108774880Y-77406500D01*
X107505500Y-77406500D02*
X107504880Y-77406500D01*
X107504880Y-77406500D02*
X107498400Y-77412980D01*
X112584880Y-77406500D02*
X112578400Y-77412980D01*
X112585500Y-77406500D02*
X112584880Y-77406500D01*
X113855500Y-77406500D02*
X113854880Y-77406500D01*
X113854880Y-77406500D02*
X113848400Y-77412980D01*
X116394880Y-77406500D02*
X116388400Y-77412980D01*
X116395500Y-77406500D02*
X116394880Y-77406500D01*
X115124880Y-77406500D02*
X115118400Y-77412980D01*
X115125500Y-77406500D02*
X115124880Y-77406500D01*
X107498400Y-74685020D02*
X107498400Y-74292928D01*
X107505500Y-74677920D02*
X107498400Y-74685020D01*
X107505500Y-74676000D02*
X107505500Y-74677920D01*
X84760000Y-40373500D02*
X84760000Y-39131800D01*
X95669906Y-51283406D02*
X84760000Y-40373500D01*
X95669906Y-66530166D02*
X95669906Y-51283406D01*
X102169768Y-73030028D02*
X95669906Y-66530166D01*
X106235500Y-73030028D02*
X102169768Y-73030028D01*
X107498400Y-74292928D02*
X106235500Y-73030028D01*
X125278400Y-61085020D02*
X125278400Y-56395100D01*
X125280380Y-61087000D02*
X125278400Y-61085020D01*
X125285500Y-61087000D02*
X125280380Y-61087000D01*
X125278400Y-56395100D02*
X142443400Y-39230100D01*
X142443400Y-39230100D02*
X142443400Y-39131800D01*
X126548400Y-61085020D02*
X126548400Y-55704930D01*
X126550380Y-61087000D02*
X126548400Y-61085020D01*
X126555500Y-61087000D02*
X126550380Y-61087000D01*
X142840200Y-40005000D02*
X143713400Y-39131800D01*
X142248330Y-40005000D02*
X142840200Y-40005000D01*
X126548400Y-55704930D02*
X142248330Y-40005000D01*
X129088400Y-61085020D02*
X129088400Y-54324590D01*
X129090380Y-61087000D02*
X129088400Y-61085020D01*
X129095500Y-61087000D02*
X129090380Y-61087000D01*
X144462198Y-40923002D02*
X146253400Y-39131800D01*
X142489988Y-40923002D02*
X144462198Y-40923002D01*
X129088400Y-54324590D02*
X142489988Y-40923002D01*
X127818400Y-61085020D02*
X127818400Y-55014760D01*
X127820380Y-61087000D02*
X127818400Y-61085020D01*
X127825500Y-61087000D02*
X127820380Y-61087000D01*
X143602200Y-40513000D02*
X144983400Y-39131800D01*
X142320160Y-40513000D02*
X143602200Y-40513000D01*
X127818400Y-55014760D02*
X142320160Y-40513000D01*
X131628400Y-61085020D02*
X131628400Y-55760100D01*
X131630380Y-61087000D02*
X131628400Y-61085020D01*
X131635500Y-61087000D02*
X131630380Y-61087000D01*
X147920200Y-40005000D02*
X148793400Y-39131800D01*
X147383500Y-40005000D02*
X147920200Y-40005000D01*
X131628400Y-55760100D02*
X147383500Y-40005000D01*
X130358400Y-61085020D02*
X130358400Y-53634420D01*
X130360380Y-61087000D02*
X130358400Y-61085020D01*
X130365500Y-61087000D02*
X130360380Y-61087000D01*
X145322196Y-41333004D02*
X147523400Y-39131800D01*
X142659816Y-41333004D02*
X145322196Y-41333004D01*
X130358400Y-53634420D02*
X142659816Y-41333004D01*
X125282920Y-63817500D02*
X125278400Y-63812980D01*
X125285500Y-63817500D02*
X125282920Y-63817500D01*
X126552920Y-63817500D02*
X126548400Y-63812980D01*
X126555500Y-63817500D02*
X126552920Y-63817500D01*
X129092920Y-63817500D02*
X129095500Y-63817500D01*
X129088400Y-63812980D02*
X129092920Y-63817500D01*
X127813880Y-63817500D02*
X127818400Y-63812980D01*
X127762000Y-63817500D02*
X127813880Y-63817500D01*
X131635500Y-63805880D02*
X131628400Y-63812980D01*
X131635500Y-63754000D02*
X131635500Y-63805880D01*
X130362920Y-63817500D02*
X130358400Y-63812980D01*
X130365500Y-63817500D02*
X130362920Y-63817500D01*
X120202920Y-63817500D02*
X120198400Y-63812980D01*
X120205500Y-63817500D02*
X120202920Y-63817500D01*
X121472920Y-63817500D02*
X121468400Y-63812980D01*
X121475500Y-63817500D02*
X121472920Y-63817500D01*
X124012920Y-63817500D02*
X124008400Y-63812980D01*
X124015500Y-63817500D02*
X124012920Y-63817500D01*
X122742920Y-63820080D02*
X122682000Y-63881000D01*
X122742920Y-63817500D02*
X122742920Y-63820080D01*
X122738400Y-63812980D02*
X122742920Y-63817500D01*
X120198400Y-61085020D02*
X120198400Y-58998600D01*
X120200380Y-61087000D02*
X120198400Y-61085020D01*
X120205500Y-61087000D02*
X120200380Y-61087000D01*
X137363400Y-39801600D02*
X137363400Y-39131800D01*
X130429000Y-46736000D02*
X137363400Y-39801600D01*
X130429000Y-48768000D02*
X130429000Y-46736000D01*
X120198400Y-58998600D02*
X130429000Y-48768000D01*
X121468400Y-61085020D02*
X121468400Y-58308430D01*
X121470380Y-61087000D02*
X121468400Y-61085020D01*
X121475500Y-61087000D02*
X121470380Y-61087000D01*
X138633400Y-41143430D02*
X138633400Y-39131800D01*
X121468400Y-58308430D02*
X138633400Y-41143430D01*
X124008400Y-61085020D02*
X124008400Y-56928090D01*
X124010380Y-61087000D02*
X124008400Y-61085020D01*
X124015500Y-61087000D02*
X124010380Y-61087000D01*
X141173400Y-39763090D02*
X141173400Y-39131800D01*
X124008400Y-56928090D02*
X141173400Y-39763090D01*
X122738400Y-61085020D02*
X122738400Y-57618260D01*
X122740380Y-61087000D02*
X122738400Y-61085020D01*
X122745500Y-61087000D02*
X122740380Y-61087000D01*
X139903400Y-40453260D02*
X139903400Y-39131800D01*
X122738400Y-57618260D02*
X139903400Y-40453260D01*
X117658400Y-61085020D02*
X117658400Y-56204600D01*
X117660380Y-61087000D02*
X117658400Y-61085020D01*
X117602000Y-61087000D02*
X117660380Y-61087000D01*
X117658400Y-56204600D02*
X134731200Y-39131800D01*
X134731200Y-39131800D02*
X134823400Y-39131800D01*
X118928400Y-61085020D02*
X118928400Y-56204600D01*
X118930380Y-61087000D02*
X118928400Y-61085020D01*
X118935500Y-61087000D02*
X118930380Y-61087000D01*
X118928400Y-56204600D02*
X136001200Y-39131800D01*
X136001200Y-39131800D02*
X136093400Y-39131800D01*
X110038400Y-61085020D02*
X110038400Y-56204600D01*
X110040380Y-61087000D02*
X110038400Y-61085020D01*
X110045500Y-61087000D02*
X110040380Y-61087000D01*
X127203400Y-39039600D02*
X127203400Y-39131800D01*
X110038400Y-56204600D02*
X127203400Y-39039600D01*
X128473400Y-39131800D02*
X128444700Y-39131800D01*
X128444700Y-39131800D02*
X111308400Y-56268100D01*
X111315500Y-61087000D02*
X111310380Y-61087000D01*
X111310380Y-61087000D02*
X111308400Y-61085020D01*
X111308400Y-61085020D02*
X111308400Y-56268100D01*
X128473400Y-39103100D02*
X128473400Y-39131800D01*
X108768400Y-61085020D02*
X108768400Y-56585600D01*
X108770380Y-61087000D02*
X108768400Y-61085020D01*
X108775500Y-61087000D02*
X108770380Y-61087000D01*
X125933400Y-39420600D02*
X125933400Y-39131800D01*
X108768400Y-56585600D02*
X125933400Y-39420600D01*
X112578400Y-61085020D02*
X112578400Y-56204600D01*
X112580380Y-61087000D02*
X112578400Y-61085020D01*
X112585500Y-61087000D02*
X112580380Y-61087000D01*
X129743400Y-39039600D02*
X129743400Y-39131800D01*
X112578400Y-56204600D02*
X129743400Y-39039600D01*
X113848400Y-61085020D02*
X113848400Y-56204600D01*
X113850380Y-61087000D02*
X113848400Y-61085020D01*
X113855500Y-61087000D02*
X113850380Y-61087000D01*
X131013400Y-39039600D02*
X131013400Y-39131800D01*
X113848400Y-56204600D02*
X131013400Y-39039600D01*
X116388400Y-61085020D02*
X116388400Y-56204600D01*
X116390380Y-61087000D02*
X116388400Y-61085020D01*
X116390380Y-61087000D02*
X116395500Y-61087000D01*
X116395500Y-61150500D02*
X116395500Y-61087000D01*
X133553400Y-39039600D02*
X133553400Y-39131800D01*
X116388400Y-56204600D02*
X131730750Y-40862250D01*
X131730750Y-40862250D02*
X133553400Y-39039600D01*
X115118400Y-61085020D02*
X115118400Y-56268100D01*
X115120380Y-61087000D02*
X115118400Y-61085020D01*
X115125500Y-61087000D02*
X115120380Y-61087000D01*
X132283400Y-39103100D02*
X132283400Y-39131800D01*
X115118400Y-56268100D02*
X132283400Y-39103100D01*
X117662920Y-63817500D02*
X117658400Y-63812980D01*
X117665500Y-63817500D02*
X117662920Y-63817500D01*
X118932920Y-63817500D02*
X118928400Y-63812980D01*
X118935500Y-63817500D02*
X118932920Y-63817500D01*
X110042920Y-63817500D02*
X110038400Y-63812980D01*
X110045500Y-63817500D02*
X110042920Y-63817500D01*
X111312920Y-63817500D02*
X111308400Y-63812980D01*
X111315500Y-63817500D02*
X111312920Y-63817500D01*
X108772920Y-63817500D02*
X108768400Y-63812980D01*
X108775500Y-63817500D02*
X108772920Y-63817500D01*
X107502920Y-63817500D02*
X107498400Y-63812980D01*
X107505500Y-63817500D02*
X107502920Y-63817500D01*
X112582920Y-63817500D02*
X112578400Y-63812980D01*
X112585500Y-63817500D02*
X112582920Y-63817500D01*
X113852920Y-63817500D02*
X113848400Y-63812980D01*
X113855500Y-63817500D02*
X113852920Y-63817500D01*
X116392920Y-63817500D02*
X116388400Y-63812980D01*
X116395500Y-63817500D02*
X116392920Y-63817500D01*
X115122920Y-63817500D02*
X115118400Y-63812980D01*
X115125500Y-63817500D02*
X115122920Y-63817500D01*
X107498400Y-61085020D02*
X107498400Y-57220600D01*
X107505500Y-61077920D02*
X107498400Y-61085020D01*
X107505500Y-61023500D02*
X107505500Y-61077920D01*
X124663400Y-40055600D02*
X124663400Y-39131800D01*
X107498400Y-57220600D02*
X124663400Y-40055600D01*
X113970000Y-39131800D02*
X113970000Y-40570000D01*
X119000000Y-41000000D02*
X118900000Y-41100000D01*
X118900000Y-41100000D02*
X114500000Y-41100000D01*
X114500000Y-41100000D02*
X113970000Y-40570000D01*
X135000000Y-41300000D02*
X132200000Y-44100000D01*
X132200000Y-44100000D02*
X132200000Y-44000000D01*
X151800000Y-58536398D02*
X151800000Y-57000000D01*
X148550002Y-61786396D02*
X151800000Y-58536398D01*
X148550002Y-71749998D02*
X148550002Y-61786396D01*
X147200000Y-73100000D02*
X148550002Y-71749998D01*
X147200000Y-85500000D02*
X147200000Y-73100000D01*
X147300000Y-85600000D02*
X147200000Y-85500000D01*
X150400000Y-55860000D02*
X151800000Y-54460000D01*
X150400000Y-59300000D02*
X150400000Y-55860000D01*
X148100000Y-61600000D02*
X150400000Y-59300000D01*
X148100000Y-71300000D02*
X148100000Y-61600000D01*
X147300000Y-72100000D02*
X148100000Y-71300000D01*
X149949998Y-53750002D02*
X151800000Y-51900000D01*
X149949998Y-58850002D02*
X149949998Y-53750002D01*
X149700000Y-59100000D02*
X149949998Y-58850002D01*
D21*
X145400000Y-54700000D02*
X145275002Y-54700000D01*
X145275002Y-65775002D02*
X145700000Y-66200000D01*
X145275002Y-54700000D02*
X145275002Y-65775002D01*
X145700000Y-93500000D02*
X145700000Y-79700000D01*
X145700000Y-79700000D02*
X145700000Y-66200000D01*
X145600000Y-93600000D02*
X145700000Y-93500000D01*
D20*
X62850000Y-48300000D02*
X62900000Y-48300000D01*
D22*
X153275000Y-41950000D02*
X151743189Y-41950000D01*
X151521214Y-41727637D01*
X150535823Y-41318467D01*
X149468858Y-41317536D01*
X148482754Y-41724986D01*
X148257347Y-41950000D01*
X146500000Y-41950000D01*
X146480547Y-41953939D01*
X146464160Y-41965136D01*
X146453419Y-41981827D01*
X146450000Y-42000000D01*
X146450000Y-44158211D01*
X146189796Y-44050165D01*
X145811862Y-44049835D01*
X145462571Y-44194159D01*
X145195098Y-44461165D01*
X145050165Y-44810204D01*
X145049835Y-45188138D01*
X145194159Y-45537429D01*
X145461165Y-45804902D01*
X145810204Y-45949835D01*
X145924630Y-45949935D01*
X146175000Y-46200305D01*
X146175000Y-51931501D01*
X146038835Y-51795098D01*
X145689796Y-51650165D01*
X145311862Y-51649835D01*
X144962571Y-51794159D01*
X144725000Y-52031315D01*
X144725000Y-48118580D01*
X144814902Y-48028835D01*
X144959835Y-47679796D01*
X144960165Y-47301862D01*
X144815841Y-46952571D01*
X144548835Y-46685098D01*
X144199796Y-46540165D01*
X143821862Y-46539835D01*
X143472571Y-46684159D01*
X143205098Y-46951165D01*
X143060165Y-47300204D01*
X143059835Y-47678138D01*
X143204159Y-48027429D01*
X143275000Y-48098394D01*
X143275000Y-49531484D01*
X143148835Y-49405098D01*
X142799796Y-49260165D01*
X142421862Y-49259835D01*
X142072571Y-49404159D01*
X141805098Y-49671165D01*
X141660165Y-50020204D01*
X141659835Y-50398138D01*
X141804159Y-50747429D01*
X141875000Y-50818394D01*
X141875000Y-52631501D01*
X141738835Y-52495098D01*
X141389796Y-52350165D01*
X141011862Y-52349835D01*
X140662571Y-52494159D01*
X140437972Y-52718366D01*
X140449835Y-52689796D01*
X140450165Y-52311862D01*
X140305841Y-51962571D01*
X140038835Y-51695098D01*
X139689796Y-51550165D01*
X139311862Y-51549835D01*
X138962571Y-51694159D01*
X138695098Y-51961165D01*
X138550165Y-52310204D01*
X138549835Y-52688138D01*
X138694159Y-53037429D01*
X138961165Y-53304902D01*
X139310204Y-53449835D01*
X139688138Y-53450165D01*
X140037429Y-53305841D01*
X140262028Y-53081634D01*
X140250165Y-53110204D01*
X140249835Y-53488138D01*
X140394159Y-53837429D01*
X140475000Y-53918411D01*
X140475000Y-56301385D01*
X140405098Y-56371165D01*
X140260165Y-56720204D01*
X140259835Y-57098138D01*
X140404159Y-57447429D01*
X140671165Y-57714902D01*
X141020204Y-57859835D01*
X141398138Y-57860165D01*
X141747429Y-57715841D01*
X141875000Y-57588493D01*
X141875000Y-63181403D01*
X141795098Y-63261165D01*
X141650165Y-63610204D01*
X141649835Y-63988138D01*
X141794159Y-64337429D01*
X141875000Y-64418411D01*
X141875000Y-73371536D01*
X141718835Y-73215098D01*
X141369796Y-73070165D01*
X140991862Y-73069835D01*
X140642571Y-73214159D01*
X140375098Y-73481165D01*
X140230165Y-73830204D01*
X140229835Y-74208138D01*
X140374159Y-74557429D01*
X140641165Y-74824902D01*
X140990204Y-74969835D01*
X141368138Y-74970165D01*
X141717429Y-74825841D01*
X141875000Y-74668545D01*
X141875000Y-76781403D01*
X141795098Y-76861165D01*
X141650165Y-77210204D01*
X141649835Y-77588138D01*
X141794159Y-77937429D01*
X141875000Y-78018411D01*
X141875000Y-87121484D01*
X141748835Y-86995098D01*
X141399796Y-86850165D01*
X141021862Y-86849835D01*
X140672571Y-86994159D01*
X140405098Y-87261165D01*
X140260165Y-87610204D01*
X140259835Y-87988138D01*
X140404159Y-88337429D01*
X140418481Y-88351776D01*
X139870572Y-88124265D01*
X139263889Y-88123735D01*
X138703185Y-88355414D01*
X138273821Y-88784029D01*
X138041165Y-89344328D01*
X138040635Y-89951011D01*
X138272314Y-90511715D01*
X138700929Y-90941079D01*
X139261228Y-91173735D01*
X139867911Y-91174265D01*
X140428615Y-90942586D01*
X140857979Y-90513971D01*
X141090635Y-89953672D01*
X141091165Y-89346989D01*
X140859486Y-88786285D01*
X140683555Y-88610047D01*
X141020204Y-88749835D01*
X141398138Y-88750165D01*
X141747429Y-88605841D01*
X141875000Y-88478493D01*
X141875000Y-90281577D01*
X141695098Y-90461165D01*
X141550165Y-90810204D01*
X141549835Y-91188138D01*
X141694159Y-91537429D01*
X141961165Y-91804902D01*
X142310204Y-91949835D01*
X142688138Y-91950165D01*
X143037429Y-91805841D01*
X143304902Y-91538835D01*
X143449835Y-91189796D01*
X143450165Y-90811862D01*
X143325000Y-90508939D01*
X143325000Y-87568499D01*
X143461165Y-87704902D01*
X143810204Y-87849835D01*
X144188138Y-87850165D01*
X144537429Y-87705841D01*
X144800000Y-87443728D01*
X144800000Y-93056272D01*
X144795098Y-93061165D01*
X144650165Y-93410204D01*
X144649835Y-93788138D01*
X144794159Y-94137429D01*
X145061165Y-94404902D01*
X145410204Y-94549835D01*
X145788138Y-94550165D01*
X146137429Y-94405841D01*
X146404902Y-94138835D01*
X146450000Y-94030226D01*
X146450000Y-96450033D01*
X71050000Y-96499967D01*
X71050000Y-59595809D01*
X71599934Y-59596289D01*
X72212480Y-59343190D01*
X72472094Y-59084028D01*
X72494159Y-59137429D01*
X72761165Y-59404902D01*
X73110204Y-59549835D01*
X73488138Y-59550165D01*
X73837429Y-59405841D01*
X74104902Y-59138835D01*
X74249835Y-58789796D01*
X74250165Y-58411862D01*
X74183299Y-58250034D01*
X74249835Y-58089796D01*
X74250165Y-57711862D01*
X74162588Y-57499910D01*
X74249835Y-57289796D01*
X74250165Y-56911862D01*
X74105841Y-56562571D01*
X73838835Y-56295098D01*
X73489796Y-56150165D01*
X73111862Y-56149835D01*
X72762571Y-56294159D01*
X72495098Y-56561165D01*
X72425323Y-56729203D01*
X72214945Y-56518457D01*
X71602842Y-56264290D01*
X71507811Y-56264207D01*
X71270000Y-56026396D01*
X71255858Y-56040539D01*
X71050000Y-55834681D01*
X71050000Y-55390000D01*
X71906396Y-55390000D01*
X72574278Y-56057882D01*
X72780757Y-55931398D01*
X72872942Y-55312046D01*
X72780757Y-54848602D01*
X72574278Y-54722118D01*
X71906396Y-55390000D01*
X71050000Y-55390000D01*
X71050000Y-54945319D01*
X71255858Y-54739462D01*
X71270000Y-54753604D01*
X71507396Y-54516208D01*
X71599934Y-54516289D01*
X72212480Y-54263190D01*
X72681543Y-53794945D01*
X72935710Y-53182842D01*
X72936289Y-52520066D01*
X72683190Y-51907520D01*
X72356081Y-51579839D01*
X72681543Y-51254945D01*
X72935710Y-50642842D01*
X72936289Y-49980066D01*
X72683190Y-49367520D01*
X72356081Y-49039839D01*
X72681543Y-48714945D01*
X72935710Y-48102842D01*
X72936289Y-47440066D01*
X72683190Y-46827520D01*
X72458586Y-46602524D01*
X75346760Y-46602524D01*
X78214972Y-49470737D01*
X78214972Y-63929544D01*
X78248386Y-64097526D01*
X78270159Y-64206990D01*
X78427320Y-64442196D01*
X85282983Y-71297859D01*
X85237598Y-71343165D01*
X85092665Y-71692204D01*
X85092335Y-72070138D01*
X85236659Y-72419429D01*
X85283155Y-72466006D01*
X85282835Y-72832138D01*
X85427159Y-73181429D01*
X85473655Y-73228006D01*
X85473335Y-73594138D01*
X85616385Y-73940346D01*
X85600665Y-73978204D01*
X85600335Y-74356138D01*
X85744659Y-74705429D01*
X85791155Y-74752006D01*
X85790835Y-75118138D01*
X85935159Y-75467429D01*
X86202165Y-75734902D01*
X86551204Y-75879835D01*
X86929138Y-75880165D01*
X86955321Y-75869347D01*
X98498664Y-87412690D01*
X98733871Y-87569851D01*
X99011316Y-87625038D01*
X104570234Y-87625038D01*
X105226805Y-88281609D01*
X105048185Y-88355414D01*
X104618821Y-88784029D01*
X104386165Y-89344328D01*
X104385635Y-89951011D01*
X104617314Y-90511715D01*
X105045929Y-90941079D01*
X105606228Y-91173735D01*
X106212911Y-91174265D01*
X106548379Y-91035652D01*
X106548235Y-91201118D01*
X106692559Y-91550409D01*
X106959565Y-91817882D01*
X107308604Y-91962815D01*
X107686538Y-91963145D01*
X108035829Y-91818821D01*
X108133336Y-91721484D01*
X108229565Y-91817882D01*
X108578604Y-91962815D01*
X108956538Y-91963145D01*
X109305829Y-91818821D01*
X109403336Y-91721484D01*
X109499565Y-91817882D01*
X109848604Y-91962815D01*
X110226538Y-91963145D01*
X110575829Y-91818821D01*
X110673336Y-91721484D01*
X110769565Y-91817882D01*
X111118604Y-91962815D01*
X111496538Y-91963145D01*
X111845829Y-91818821D01*
X111943336Y-91721484D01*
X112039565Y-91817882D01*
X112388604Y-91962815D01*
X112766538Y-91963145D01*
X113115829Y-91818821D01*
X113213336Y-91721484D01*
X113309565Y-91817882D01*
X113658604Y-91962815D01*
X114036538Y-91963145D01*
X114385829Y-91818821D01*
X114483336Y-91721484D01*
X114579565Y-91817882D01*
X114928604Y-91962815D01*
X115306538Y-91963145D01*
X115655829Y-91818821D01*
X115753336Y-91721484D01*
X115849565Y-91817882D01*
X116198604Y-91962815D01*
X116576538Y-91963145D01*
X116925829Y-91818821D01*
X117023336Y-91721484D01*
X117119565Y-91817882D01*
X117468604Y-91962815D01*
X117846538Y-91963145D01*
X118195829Y-91818821D01*
X118293336Y-91721484D01*
X118389565Y-91817882D01*
X118738604Y-91962815D01*
X119116538Y-91963145D01*
X119465829Y-91818821D01*
X119563336Y-91721484D01*
X119659565Y-91817882D01*
X120008604Y-91962815D01*
X120386538Y-91963145D01*
X120735829Y-91818821D01*
X120833336Y-91721484D01*
X120929565Y-91817882D01*
X121278604Y-91962815D01*
X121656538Y-91963145D01*
X122005829Y-91818821D01*
X122103336Y-91721484D01*
X122199565Y-91817882D01*
X122548604Y-91962815D01*
X122926538Y-91963145D01*
X123275829Y-91818821D01*
X123373336Y-91721484D01*
X123469565Y-91817882D01*
X123818604Y-91962815D01*
X124196538Y-91963145D01*
X124545829Y-91818821D01*
X124643336Y-91721484D01*
X124739565Y-91817882D01*
X125088604Y-91962815D01*
X125466538Y-91963145D01*
X125815829Y-91818821D01*
X125913336Y-91721484D01*
X126009565Y-91817882D01*
X126358604Y-91962815D01*
X126736538Y-91963145D01*
X127085829Y-91818821D01*
X127183336Y-91721484D01*
X127279565Y-91817882D01*
X127628604Y-91962815D01*
X128006538Y-91963145D01*
X128355829Y-91818821D01*
X128453336Y-91721484D01*
X128549565Y-91817882D01*
X128898604Y-91962815D01*
X129276538Y-91963145D01*
X129625829Y-91818821D01*
X129723336Y-91721484D01*
X129819565Y-91817882D01*
X130168604Y-91962815D01*
X130546538Y-91963145D01*
X130895829Y-91818821D01*
X131025627Y-91689249D01*
X131091165Y-91754902D01*
X131440204Y-91899835D01*
X131818138Y-91900165D01*
X132167429Y-91755841D01*
X132434902Y-91488835D01*
X132579835Y-91139796D01*
X132580165Y-90761862D01*
X132435841Y-90412571D01*
X132168835Y-90145098D01*
X131819796Y-90000165D01*
X131715000Y-90000073D01*
X131715000Y-89270075D01*
X131818138Y-89270165D01*
X132167429Y-89125841D01*
X132434902Y-88858835D01*
X132579835Y-88509796D01*
X132580165Y-88131862D01*
X132435841Y-87782571D01*
X132168835Y-87515098D01*
X131819796Y-87370165D01*
X131651436Y-87370018D01*
X131502652Y-87147348D01*
X122718267Y-78362963D01*
X122926538Y-78363145D01*
X123275829Y-78218821D01*
X123373336Y-78121484D01*
X123469565Y-78217882D01*
X123818604Y-78362815D01*
X124196538Y-78363145D01*
X124545829Y-78218821D01*
X124643336Y-78121484D01*
X124739565Y-78217882D01*
X125088604Y-78362815D01*
X125466538Y-78363145D01*
X125815829Y-78218821D01*
X125913336Y-78121484D01*
X126009565Y-78217882D01*
X126358604Y-78362815D01*
X126736538Y-78363145D01*
X127085829Y-78218821D01*
X127183336Y-78121484D01*
X127279565Y-78217882D01*
X127628604Y-78362815D01*
X128006538Y-78363145D01*
X128355829Y-78218821D01*
X128453336Y-78121484D01*
X128549565Y-78217882D01*
X128898604Y-78362815D01*
X129276538Y-78363145D01*
X129625829Y-78218821D01*
X129723336Y-78121484D01*
X129819565Y-78217882D01*
X130168604Y-78362815D01*
X130546538Y-78363145D01*
X130895829Y-78218821D01*
X130993336Y-78121484D01*
X131089565Y-78217882D01*
X131438604Y-78362815D01*
X131816538Y-78363145D01*
X132165829Y-78218821D01*
X132433302Y-77951815D01*
X132578235Y-77602776D01*
X132578565Y-77224842D01*
X132434241Y-76875551D01*
X132167235Y-76608078D01*
X131818196Y-76463145D01*
X131440262Y-76462815D01*
X131090971Y-76607139D01*
X130993464Y-76704476D01*
X130897235Y-76608078D01*
X130548196Y-76463145D01*
X130170262Y-76462815D01*
X129820971Y-76607139D01*
X129723464Y-76704476D01*
X129627235Y-76608078D01*
X129278196Y-76463145D01*
X128900262Y-76462815D01*
X128550971Y-76607139D01*
X128453464Y-76704476D01*
X128357235Y-76608078D01*
X128008196Y-76463145D01*
X127630262Y-76462815D01*
X127280971Y-76607139D01*
X127183464Y-76704476D01*
X127087235Y-76608078D01*
X126738196Y-76463145D01*
X126360262Y-76462815D01*
X126010971Y-76607139D01*
X125913464Y-76704476D01*
X125817235Y-76608078D01*
X125468196Y-76463145D01*
X125090262Y-76462815D01*
X124740971Y-76607139D01*
X124643464Y-76704476D01*
X124547235Y-76608078D01*
X124198196Y-76463145D01*
X123820262Y-76462815D01*
X123470971Y-76607139D01*
X123373464Y-76704476D01*
X123277235Y-76608078D01*
X122928196Y-76463145D01*
X122550262Y-76462815D01*
X122200971Y-76607139D01*
X122103464Y-76704476D01*
X122007235Y-76608078D01*
X121658196Y-76463145D01*
X121280262Y-76462815D01*
X120930971Y-76607139D01*
X120833464Y-76704476D01*
X120737235Y-76608078D01*
X120388196Y-76463145D01*
X120010262Y-76462815D01*
X119660971Y-76607139D01*
X119563464Y-76704476D01*
X119467235Y-76608078D01*
X119118196Y-76463145D01*
X118740262Y-76462815D01*
X118390971Y-76607139D01*
X118293464Y-76704476D01*
X118197235Y-76608078D01*
X117848196Y-76463145D01*
X117470262Y-76462815D01*
X117120971Y-76607139D01*
X117023464Y-76704476D01*
X116927235Y-76608078D01*
X116578196Y-76463145D01*
X116200262Y-76462815D01*
X115850971Y-76607139D01*
X115753464Y-76704476D01*
X115657235Y-76608078D01*
X115308196Y-76463145D01*
X114930262Y-76462815D01*
X114580971Y-76607139D01*
X114483464Y-76704476D01*
X114387235Y-76608078D01*
X114038196Y-76463145D01*
X113660262Y-76462815D01*
X113310971Y-76607139D01*
X113213464Y-76704476D01*
X113117235Y-76608078D01*
X112768196Y-76463145D01*
X112390262Y-76462815D01*
X112040971Y-76607139D01*
X111943464Y-76704476D01*
X111847235Y-76608078D01*
X111498196Y-76463145D01*
X111120262Y-76462815D01*
X110770971Y-76607139D01*
X110673464Y-76704476D01*
X110577235Y-76608078D01*
X110228196Y-76463145D01*
X109850262Y-76462815D01*
X109500971Y-76607139D01*
X109403464Y-76704476D01*
X109307235Y-76608078D01*
X108958196Y-76463145D01*
X108580262Y-76462815D01*
X108230971Y-76607139D01*
X108133464Y-76704476D01*
X108037235Y-76608078D01*
X107688196Y-76463145D01*
X107390286Y-76462885D01*
X107435635Y-76353672D01*
X107435637Y-76351011D01*
X138040635Y-76351011D01*
X138272314Y-76911715D01*
X138700929Y-77341079D01*
X139261228Y-77573735D01*
X139867911Y-77574265D01*
X140428615Y-77342586D01*
X140857979Y-76913971D01*
X141090635Y-76353672D01*
X141091165Y-75746989D01*
X140859486Y-75186285D01*
X140430871Y-74756921D01*
X139870572Y-74524265D01*
X139263889Y-74523735D01*
X138703185Y-74755414D01*
X138273821Y-75184029D01*
X138041165Y-75744328D01*
X138040635Y-76351011D01*
X107435637Y-76351011D01*
X107436165Y-75746989D01*
X107389861Y-75634926D01*
X107686538Y-75635185D01*
X108035829Y-75490861D01*
X108133336Y-75393524D01*
X108229565Y-75489922D01*
X108578604Y-75634855D01*
X108956538Y-75635185D01*
X109305829Y-75490861D01*
X109403336Y-75393524D01*
X109499565Y-75489922D01*
X109848604Y-75634855D01*
X110226538Y-75635185D01*
X110575829Y-75490861D01*
X110673336Y-75393524D01*
X110769565Y-75489922D01*
X111118604Y-75634855D01*
X111496538Y-75635185D01*
X111845829Y-75490861D01*
X111943336Y-75393524D01*
X112039565Y-75489922D01*
X112388604Y-75634855D01*
X112766538Y-75635185D01*
X113115829Y-75490861D01*
X113213336Y-75393524D01*
X113309565Y-75489922D01*
X113658604Y-75634855D01*
X114036538Y-75635185D01*
X114385829Y-75490861D01*
X114483336Y-75393524D01*
X114579565Y-75489922D01*
X114928604Y-75634855D01*
X115306538Y-75635185D01*
X115655829Y-75490861D01*
X115753336Y-75393524D01*
X115849565Y-75489922D01*
X116198604Y-75634855D01*
X116576538Y-75635185D01*
X116925829Y-75490861D01*
X117023336Y-75393524D01*
X117119565Y-75489922D01*
X117468604Y-75634855D01*
X117846538Y-75635185D01*
X118195829Y-75490861D01*
X118293336Y-75393524D01*
X118389565Y-75489922D01*
X118738604Y-75634855D01*
X119116538Y-75635185D01*
X119465829Y-75490861D01*
X119563336Y-75393524D01*
X119659565Y-75489922D01*
X120008604Y-75634855D01*
X120386538Y-75635185D01*
X120735829Y-75490861D01*
X120833336Y-75393524D01*
X120929565Y-75489922D01*
X121278604Y-75634855D01*
X121656538Y-75635185D01*
X122005829Y-75490861D01*
X122103336Y-75393524D01*
X122199565Y-75489922D01*
X122548604Y-75634855D01*
X122926538Y-75635185D01*
X123275829Y-75490861D01*
X123373336Y-75393524D01*
X123469565Y-75489922D01*
X123818604Y-75634855D01*
X124196538Y-75635185D01*
X124545829Y-75490861D01*
X124643336Y-75393524D01*
X124739565Y-75489922D01*
X125088604Y-75634855D01*
X125466538Y-75635185D01*
X125815829Y-75490861D01*
X125913336Y-75393524D01*
X126009565Y-75489922D01*
X126358604Y-75634855D01*
X126736538Y-75635185D01*
X127085829Y-75490861D01*
X127183336Y-75393524D01*
X127279565Y-75489922D01*
X127628604Y-75634855D01*
X128006538Y-75635185D01*
X128355829Y-75490861D01*
X128453336Y-75393524D01*
X128549565Y-75489922D01*
X128898604Y-75634855D01*
X129276538Y-75635185D01*
X129625829Y-75490861D01*
X129723336Y-75393524D01*
X129819565Y-75489922D01*
X130168604Y-75634855D01*
X130546538Y-75635185D01*
X130895829Y-75490861D01*
X130993336Y-75393524D01*
X131089565Y-75489922D01*
X131438604Y-75634855D01*
X131816538Y-75635185D01*
X132165829Y-75490861D01*
X132433302Y-75223855D01*
X132578235Y-74874816D01*
X132578565Y-74496882D01*
X132434241Y-74147591D01*
X132167235Y-73880118D01*
X131818196Y-73735185D01*
X131465682Y-73734877D01*
X122458142Y-64727338D01*
X122449896Y-64721828D01*
X122548604Y-64762815D01*
X122926538Y-64763145D01*
X123275829Y-64618821D01*
X123373336Y-64521484D01*
X123469565Y-64617882D01*
X123818604Y-64762815D01*
X124196538Y-64763145D01*
X124545829Y-64618821D01*
X124643336Y-64521484D01*
X124739565Y-64617882D01*
X125088604Y-64762815D01*
X125466538Y-64763145D01*
X125815829Y-64618821D01*
X125913336Y-64521484D01*
X126009565Y-64617882D01*
X126358604Y-64762815D01*
X126736538Y-64763145D01*
X127085829Y-64618821D01*
X127183336Y-64521484D01*
X127279565Y-64617882D01*
X127628604Y-64762815D01*
X128006538Y-64763145D01*
X128355829Y-64618821D01*
X128453336Y-64521484D01*
X128549565Y-64617882D01*
X128898604Y-64762815D01*
X129276538Y-64763145D01*
X129625829Y-64618821D01*
X129723336Y-64521484D01*
X129819565Y-64617882D01*
X130168604Y-64762815D01*
X130546538Y-64763145D01*
X130895829Y-64618821D01*
X130993336Y-64521484D01*
X131089565Y-64617882D01*
X131438604Y-64762815D01*
X131816538Y-64763145D01*
X132165829Y-64618821D01*
X132433302Y-64351815D01*
X132578235Y-64002776D01*
X132578565Y-63624842D01*
X132434241Y-63275551D01*
X132167235Y-63008078D01*
X131818196Y-62863145D01*
X131440262Y-62862815D01*
X131090971Y-63007139D01*
X130993464Y-63104476D01*
X130897235Y-63008078D01*
X130548196Y-62863145D01*
X130170262Y-62862815D01*
X129820971Y-63007139D01*
X129723464Y-63104476D01*
X129627235Y-63008078D01*
X129278196Y-62863145D01*
X128900262Y-62862815D01*
X128550971Y-63007139D01*
X128453464Y-63104476D01*
X128357235Y-63008078D01*
X128008196Y-62863145D01*
X127630262Y-62862815D01*
X127280971Y-63007139D01*
X127183464Y-63104476D01*
X127087235Y-63008078D01*
X126738196Y-62863145D01*
X126360262Y-62862815D01*
X126010971Y-63007139D01*
X125913464Y-63104476D01*
X125817235Y-63008078D01*
X125468196Y-62863145D01*
X125090262Y-62862815D01*
X124740971Y-63007139D01*
X124643464Y-63104476D01*
X124547235Y-63008078D01*
X124198196Y-62863145D01*
X123820262Y-62862815D01*
X123470971Y-63007139D01*
X123373464Y-63104476D01*
X123277235Y-63008078D01*
X122928196Y-62863145D01*
X122550262Y-62862815D01*
X122200971Y-63007139D01*
X122103464Y-63104476D01*
X122007235Y-63008078D01*
X121658196Y-62863145D01*
X121280262Y-62862815D01*
X120930971Y-63007139D01*
X120833464Y-63104476D01*
X120737235Y-63008078D01*
X120388196Y-62863145D01*
X120010262Y-62862815D01*
X119660971Y-63007139D01*
X119563464Y-63104476D01*
X119467235Y-63008078D01*
X119118196Y-62863145D01*
X118740262Y-62862815D01*
X118390971Y-63007139D01*
X118293464Y-63104476D01*
X118197235Y-63008078D01*
X117848196Y-62863145D01*
X117470262Y-62862815D01*
X117120971Y-63007139D01*
X117023464Y-63104476D01*
X116927235Y-63008078D01*
X116578196Y-62863145D01*
X116200262Y-62862815D01*
X115850971Y-63007139D01*
X115753464Y-63104476D01*
X115657235Y-63008078D01*
X115308196Y-62863145D01*
X114930262Y-62862815D01*
X114580971Y-63007139D01*
X114483464Y-63104476D01*
X114387235Y-63008078D01*
X114038196Y-62863145D01*
X113660262Y-62862815D01*
X113310971Y-63007139D01*
X113213464Y-63104476D01*
X113117235Y-63008078D01*
X112768196Y-62863145D01*
X112390262Y-62862815D01*
X112040971Y-63007139D01*
X111943464Y-63104476D01*
X111847235Y-63008078D01*
X111498196Y-62863145D01*
X111120262Y-62862815D01*
X110770971Y-63007139D01*
X110673464Y-63104476D01*
X110577235Y-63008078D01*
X110228196Y-62863145D01*
X109850262Y-62862815D01*
X109500971Y-63007139D01*
X109403464Y-63104476D01*
X109307235Y-63008078D01*
X108958196Y-62863145D01*
X108580262Y-62862815D01*
X108230971Y-63007139D01*
X108133464Y-63104476D01*
X108037235Y-63008078D01*
X107688196Y-62863145D01*
X107390286Y-62862885D01*
X107435635Y-62753672D01*
X107435637Y-62751011D01*
X138040635Y-62751011D01*
X138272314Y-63311715D01*
X138700929Y-63741079D01*
X139261228Y-63973735D01*
X139867911Y-63974265D01*
X140428615Y-63742586D01*
X140857979Y-63313971D01*
X141090635Y-62753672D01*
X141091165Y-62146989D01*
X140859486Y-61586285D01*
X140430871Y-61156921D01*
X139870572Y-60924265D01*
X139263889Y-60923735D01*
X138703185Y-61155414D01*
X138273821Y-61584029D01*
X138041165Y-62144328D01*
X138040635Y-62751011D01*
X107435637Y-62751011D01*
X107436165Y-62146989D01*
X107389861Y-62034926D01*
X107686538Y-62035185D01*
X108035829Y-61890861D01*
X108133336Y-61793524D01*
X108229565Y-61889922D01*
X108578604Y-62034855D01*
X108956538Y-62035185D01*
X109305829Y-61890861D01*
X109403336Y-61793524D01*
X109499565Y-61889922D01*
X109848604Y-62034855D01*
X110226538Y-62035185D01*
X110575829Y-61890861D01*
X110673336Y-61793524D01*
X110769565Y-61889922D01*
X111118604Y-62034855D01*
X111496538Y-62035185D01*
X111845829Y-61890861D01*
X111943336Y-61793524D01*
X112039565Y-61889922D01*
X112388604Y-62034855D01*
X112766538Y-62035185D01*
X113115829Y-61890861D01*
X113213336Y-61793524D01*
X113309565Y-61889922D01*
X113658604Y-62034855D01*
X114036538Y-62035185D01*
X114385829Y-61890861D01*
X114483336Y-61793524D01*
X114579565Y-61889922D01*
X114928604Y-62034855D01*
X115306538Y-62035185D01*
X115655829Y-61890861D01*
X115753336Y-61793524D01*
X115849565Y-61889922D01*
X116198604Y-62034855D01*
X116576538Y-62035185D01*
X116925829Y-61890861D01*
X117023336Y-61793524D01*
X117119565Y-61889922D01*
X117468604Y-62034855D01*
X117846538Y-62035185D01*
X118195829Y-61890861D01*
X118293336Y-61793524D01*
X118389565Y-61889922D01*
X118738604Y-62034855D01*
X119116538Y-62035185D01*
X119465829Y-61890861D01*
X119563336Y-61793524D01*
X119659565Y-61889922D01*
X120008604Y-62034855D01*
X120386538Y-62035185D01*
X120735829Y-61890861D01*
X120833336Y-61793524D01*
X120929565Y-61889922D01*
X121278604Y-62034855D01*
X121656538Y-62035185D01*
X122005829Y-61890861D01*
X122103336Y-61793524D01*
X122199565Y-61889922D01*
X122548604Y-62034855D01*
X122926538Y-62035185D01*
X123275829Y-61890861D01*
X123373336Y-61793524D01*
X123469565Y-61889922D01*
X123818604Y-62034855D01*
X124196538Y-62035185D01*
X124545829Y-61890861D01*
X124643336Y-61793524D01*
X124739565Y-61889922D01*
X125088604Y-62034855D01*
X125466538Y-62035185D01*
X125815829Y-61890861D01*
X125913336Y-61793524D01*
X126009565Y-61889922D01*
X126358604Y-62034855D01*
X126736538Y-62035185D01*
X127085829Y-61890861D01*
X127183336Y-61793524D01*
X127279565Y-61889922D01*
X127628604Y-62034855D01*
X128006538Y-62035185D01*
X128355829Y-61890861D01*
X128453336Y-61793524D01*
X128549565Y-61889922D01*
X128898604Y-62034855D01*
X129276538Y-62035185D01*
X129625829Y-61890861D01*
X129723336Y-61793524D01*
X129819565Y-61889922D01*
X130168604Y-62034855D01*
X130546538Y-62035185D01*
X130895829Y-61890861D01*
X130993336Y-61793524D01*
X131089565Y-61889922D01*
X131438604Y-62034855D01*
X131816538Y-62035185D01*
X132165829Y-61890861D01*
X132433302Y-61623855D01*
X132578235Y-61274816D01*
X132578565Y-60896882D01*
X132434241Y-60547591D01*
X132353400Y-60466609D01*
X132353400Y-59417053D01*
X132401165Y-59464902D01*
X132750204Y-59609835D01*
X133128138Y-59610165D01*
X133477429Y-59465841D01*
X133744902Y-59198835D01*
X133889835Y-58849796D01*
X133890165Y-58471862D01*
X133745841Y-58122571D01*
X133478835Y-57855098D01*
X133129796Y-57710165D01*
X132751862Y-57709835D01*
X132402571Y-57854159D01*
X132353400Y-57903244D01*
X132353400Y-56060404D01*
X147683804Y-40730000D01*
X147920200Y-40730000D01*
X148171297Y-40680054D01*
X148197646Y-40674813D01*
X148432852Y-40517652D01*
X148761732Y-40188773D01*
X149002728Y-40188983D01*
X149391360Y-40028404D01*
X149688959Y-39731324D01*
X149850216Y-39342973D01*
X149850583Y-38922472D01*
X149690004Y-38533840D01*
X149653224Y-38496996D01*
X149688959Y-38461324D01*
X149850216Y-38072973D01*
X149850583Y-37652472D01*
X149690004Y-37263840D01*
X149392924Y-36966241D01*
X149004573Y-36804984D01*
X148584072Y-36804617D01*
X148195440Y-36965196D01*
X148158596Y-37001976D01*
X148122924Y-36966241D01*
X147734573Y-36804984D01*
X147314072Y-36804617D01*
X146925440Y-36965196D01*
X146888596Y-37001976D01*
X146852924Y-36966241D01*
X146464573Y-36804984D01*
X146044072Y-36804617D01*
X145655440Y-36965196D01*
X145618596Y-37001976D01*
X145582924Y-36966241D01*
X145194573Y-36804984D01*
X144774072Y-36804617D01*
X144385440Y-36965196D01*
X144348596Y-37001976D01*
X144312924Y-36966241D01*
X143924573Y-36804984D01*
X143504072Y-36804617D01*
X143115440Y-36965196D01*
X143078596Y-37001976D01*
X143042924Y-36966241D01*
X142654573Y-36804984D01*
X142234072Y-36804617D01*
X141845440Y-36965196D01*
X141808596Y-37001976D01*
X141772924Y-36966241D01*
X141384573Y-36804984D01*
X140964072Y-36804617D01*
X140575440Y-36965196D01*
X140538596Y-37001976D01*
X140502924Y-36966241D01*
X140114573Y-36804984D01*
X139694072Y-36804617D01*
X139305440Y-36965196D01*
X139268596Y-37001976D01*
X139232924Y-36966241D01*
X138844573Y-36804984D01*
X138424072Y-36804617D01*
X138035440Y-36965196D01*
X137998596Y-37001976D01*
X137962924Y-36966241D01*
X137574573Y-36804984D01*
X137154072Y-36804617D01*
X136765440Y-36965196D01*
X136728596Y-37001976D01*
X136692924Y-36966241D01*
X136304573Y-36804984D01*
X135884072Y-36804617D01*
X135495440Y-36965196D01*
X135458596Y-37001976D01*
X135422924Y-36966241D01*
X135034573Y-36804984D01*
X134614072Y-36804617D01*
X134225440Y-36965196D01*
X134188596Y-37001976D01*
X134152924Y-36966241D01*
X133764573Y-36804984D01*
X133344072Y-36804617D01*
X132955440Y-36965196D01*
X132918596Y-37001976D01*
X132882924Y-36966241D01*
X132494573Y-36804984D01*
X132074072Y-36804617D01*
X131685440Y-36965196D01*
X131648596Y-37001976D01*
X131612924Y-36966241D01*
X131224573Y-36804984D01*
X130804072Y-36804617D01*
X130415440Y-36965196D01*
X130378596Y-37001976D01*
X130342924Y-36966241D01*
X129954573Y-36804984D01*
X129534072Y-36804617D01*
X129145440Y-36965196D01*
X129108596Y-37001976D01*
X129072924Y-36966241D01*
X128684573Y-36804984D01*
X128264072Y-36804617D01*
X127875440Y-36965196D01*
X127838596Y-37001976D01*
X127802924Y-36966241D01*
X127414573Y-36804984D01*
X126994072Y-36804617D01*
X126605440Y-36965196D01*
X126568596Y-37001976D01*
X126532924Y-36966241D01*
X126144573Y-36804984D01*
X125724072Y-36804617D01*
X125335440Y-36965196D01*
X125298596Y-37001976D01*
X125262924Y-36966241D01*
X124874573Y-36804984D01*
X124454072Y-36804617D01*
X124065440Y-36965196D01*
X123767841Y-37262276D01*
X123606584Y-37650627D01*
X123606217Y-38071128D01*
X123766796Y-38459760D01*
X123803576Y-38496604D01*
X123767841Y-38532276D01*
X123606584Y-38920627D01*
X123606217Y-39341128D01*
X123766796Y-39729760D01*
X123865279Y-39828416D01*
X121518559Y-42175136D01*
X121338835Y-41995098D01*
X120989796Y-41850165D01*
X120881379Y-41850070D01*
X120750034Y-41762308D01*
X120750165Y-41611862D01*
X120605841Y-41262571D01*
X120338835Y-40995098D01*
X119989796Y-40850165D01*
X119950132Y-40850130D01*
X119950165Y-40811862D01*
X119805841Y-40462571D01*
X119538835Y-40195098D01*
X119189796Y-40050165D01*
X118811862Y-40049835D01*
X118462571Y-40194159D01*
X118281414Y-40375000D01*
X114800305Y-40375000D01*
X114695000Y-40269696D01*
X114695000Y-40049999D01*
X115028827Y-40188616D01*
X115449328Y-40188983D01*
X115837960Y-40028404D01*
X116135559Y-39731324D01*
X116296816Y-39342973D01*
X116297183Y-38922472D01*
X116136604Y-38533840D01*
X116099824Y-38496996D01*
X116135559Y-38461324D01*
X116296816Y-38072973D01*
X116297183Y-37652472D01*
X116136604Y-37263840D01*
X115839524Y-36966241D01*
X115451173Y-36804984D01*
X115030672Y-36804617D01*
X114642040Y-36965196D01*
X114605196Y-37001976D01*
X114569524Y-36966241D01*
X114181173Y-36804984D01*
X113760672Y-36804617D01*
X113372040Y-36965196D01*
X113282674Y-37054407D01*
X113076834Y-36848567D01*
X112987790Y-36937611D01*
X112726845Y-36878261D01*
X112407389Y-36932790D01*
X112323166Y-36848567D01*
X112117431Y-37054302D01*
X112029524Y-36966241D01*
X111641173Y-36804984D01*
X111220672Y-36804617D01*
X110832040Y-36965196D01*
X110742674Y-37054407D01*
X110536834Y-36848567D01*
X110447790Y-36937611D01*
X110186845Y-36878261D01*
X109867389Y-36932790D01*
X109783166Y-36848567D01*
X109577431Y-37054302D01*
X109489524Y-36966241D01*
X109101173Y-36804984D01*
X108680672Y-36804617D01*
X108292040Y-36965196D01*
X108255196Y-37001976D01*
X108219524Y-36966241D01*
X107831173Y-36804984D01*
X107410672Y-36804617D01*
X107022040Y-36965196D01*
X106985196Y-37001976D01*
X106949524Y-36966241D01*
X106561173Y-36804984D01*
X106140672Y-36804617D01*
X105752040Y-36965196D01*
X105715196Y-37001976D01*
X105679524Y-36966241D01*
X105291173Y-36804984D01*
X104870672Y-36804617D01*
X104482040Y-36965196D01*
X104445196Y-37001976D01*
X104409524Y-36966241D01*
X104021173Y-36804984D01*
X103600672Y-36804617D01*
X103212040Y-36965196D01*
X103175196Y-37001976D01*
X103139524Y-36966241D01*
X102751173Y-36804984D01*
X102330672Y-36804617D01*
X101942040Y-36965196D01*
X101905196Y-37001976D01*
X101869524Y-36966241D01*
X101481173Y-36804984D01*
X101060672Y-36804617D01*
X100672040Y-36965196D01*
X100635196Y-37001976D01*
X100599524Y-36966241D01*
X100211173Y-36804984D01*
X99790672Y-36804617D01*
X99402040Y-36965196D01*
X99365196Y-37001976D01*
X99329524Y-36966241D01*
X98941173Y-36804984D01*
X98520672Y-36804617D01*
X98132040Y-36965196D01*
X98095196Y-37001976D01*
X98059524Y-36966241D01*
X97671173Y-36804984D01*
X97250672Y-36804617D01*
X96862040Y-36965196D01*
X96825196Y-37001976D01*
X96789524Y-36966241D01*
X96401173Y-36804984D01*
X95980672Y-36804617D01*
X95592040Y-36965196D01*
X95555196Y-37001976D01*
X95519524Y-36966241D01*
X95131173Y-36804984D01*
X94710672Y-36804617D01*
X94322040Y-36965196D01*
X94285196Y-37001976D01*
X94249524Y-36966241D01*
X93861173Y-36804984D01*
X93440672Y-36804617D01*
X93052040Y-36965196D01*
X93015196Y-37001976D01*
X92979524Y-36966241D01*
X92591173Y-36804984D01*
X92170672Y-36804617D01*
X91782040Y-36965196D01*
X91745196Y-37001976D01*
X91709524Y-36966241D01*
X91321173Y-36804984D01*
X90900672Y-36804617D01*
X90512040Y-36965196D01*
X90475196Y-37001976D01*
X90439524Y-36966241D01*
X90051173Y-36804984D01*
X89630672Y-36804617D01*
X89242040Y-36965196D01*
X89205196Y-37001976D01*
X89169524Y-36966241D01*
X88781173Y-36804984D01*
X88360672Y-36804617D01*
X87972040Y-36965196D01*
X87935196Y-37001976D01*
X87899524Y-36966241D01*
X87511173Y-36804984D01*
X87090672Y-36804617D01*
X86702040Y-36965196D01*
X86665196Y-37001976D01*
X86629524Y-36966241D01*
X86241173Y-36804984D01*
X85820672Y-36804617D01*
X85432040Y-36965196D01*
X85395196Y-37001976D01*
X85359524Y-36966241D01*
X84971173Y-36804984D01*
X84550672Y-36804617D01*
X84162040Y-36965196D01*
X83864441Y-37262276D01*
X83703184Y-37650627D01*
X83702817Y-38071128D01*
X83863396Y-38459760D01*
X83900176Y-38496604D01*
X83864441Y-38532276D01*
X83703184Y-38920627D01*
X83702817Y-39341128D01*
X83863396Y-39729760D01*
X84035000Y-39901664D01*
X84035000Y-40373500D01*
X84074951Y-40574346D01*
X84090187Y-40650946D01*
X84247348Y-40886152D01*
X94944906Y-51583710D01*
X94944906Y-66530166D01*
X94988125Y-66747442D01*
X95000093Y-66807612D01*
X95157254Y-67042818D01*
X101657116Y-73542680D01*
X101892322Y-73699841D01*
X101938353Y-73708997D01*
X102169768Y-73755028D01*
X105935196Y-73755028D01*
X106585776Y-74405609D01*
X106548565Y-74495224D01*
X106548419Y-74662475D01*
X106215572Y-74524265D01*
X105608889Y-74523735D01*
X105048185Y-74755414D01*
X104618821Y-75184029D01*
X104386165Y-75744328D01*
X104385635Y-76351011D01*
X104617314Y-76911715D01*
X105045929Y-77341079D01*
X105606228Y-77573735D01*
X106212911Y-77574265D01*
X106548379Y-77435652D01*
X106548235Y-77601118D01*
X106624213Y-77785000D01*
X102730305Y-77785000D01*
X85965000Y-61019696D01*
X85965000Y-60565392D01*
X86297204Y-60703335D01*
X86474554Y-60703490D01*
X86646665Y-60875902D01*
X86995704Y-61020835D01*
X87373638Y-61021165D01*
X87722929Y-60876841D01*
X87990402Y-60609835D01*
X88135335Y-60260796D01*
X88135558Y-60005165D01*
X88135638Y-60005165D01*
X88484929Y-59860841D01*
X88752402Y-59593835D01*
X88797079Y-59486240D01*
X89119929Y-59352841D01*
X89387402Y-59085835D01*
X89532335Y-58736796D01*
X89532665Y-58358862D01*
X89388341Y-58009571D01*
X89121335Y-57742098D01*
X88772296Y-57597165D01*
X88394362Y-57596835D01*
X88045071Y-57741159D01*
X87852259Y-57933635D01*
X87787835Y-57869098D01*
X87438796Y-57724165D01*
X87060862Y-57723835D01*
X86711571Y-57868159D01*
X86444098Y-58135165D01*
X86299165Y-58484204D01*
X86298886Y-58803335D01*
X85965000Y-58941284D01*
X85965000Y-47070000D01*
X85909813Y-46792555D01*
X85806161Y-46637429D01*
X85752652Y-46557347D01*
X77025052Y-37829748D01*
X76544452Y-37349148D01*
X76309246Y-37191987D01*
X76263215Y-37182831D01*
X76124865Y-37155312D01*
X75936124Y-36966241D01*
X75547773Y-36804984D01*
X75127272Y-36804617D01*
X74738640Y-36965196D01*
X74701796Y-37001976D01*
X74666124Y-36966241D01*
X74277773Y-36804984D01*
X73857272Y-36804617D01*
X73468640Y-36965196D01*
X73431796Y-37001976D01*
X73396124Y-36966241D01*
X73007773Y-36804984D01*
X72587272Y-36804617D01*
X72198640Y-36965196D01*
X72161796Y-37001976D01*
X72126124Y-36966241D01*
X71737773Y-36804984D01*
X71317272Y-36804617D01*
X70928640Y-36965196D01*
X70891796Y-37001976D01*
X70856124Y-36966241D01*
X70467773Y-36804984D01*
X70047272Y-36804617D01*
X69658640Y-36965196D01*
X69621796Y-37001976D01*
X69586124Y-36966241D01*
X69197773Y-36804984D01*
X68777272Y-36804617D01*
X68388640Y-36965196D01*
X68351796Y-37001976D01*
X68316124Y-36966241D01*
X67927773Y-36804984D01*
X67507272Y-36804617D01*
X67118640Y-36965196D01*
X67081796Y-37001976D01*
X67046124Y-36966241D01*
X66657773Y-36804984D01*
X66237272Y-36804617D01*
X65848640Y-36965196D01*
X65811796Y-37001976D01*
X65776124Y-36966241D01*
X65387773Y-36804984D01*
X64967272Y-36804617D01*
X64578640Y-36965196D01*
X64541796Y-37001976D01*
X64506124Y-36966241D01*
X64117773Y-36804984D01*
X63697272Y-36804617D01*
X63308640Y-36965196D01*
X63271796Y-37001976D01*
X63236124Y-36966241D01*
X62847773Y-36804984D01*
X62427272Y-36804617D01*
X62038640Y-36965196D01*
X62001796Y-37001976D01*
X61966124Y-36966241D01*
X61577773Y-36804984D01*
X61157272Y-36804617D01*
X60768640Y-36965196D01*
X60731796Y-37001976D01*
X60696124Y-36966241D01*
X60307773Y-36804984D01*
X59887272Y-36804617D01*
X59498640Y-36965196D01*
X59461796Y-37001976D01*
X59426124Y-36966241D01*
X59037773Y-36804984D01*
X58617272Y-36804617D01*
X58228640Y-36965196D01*
X58191796Y-37001976D01*
X58156124Y-36966241D01*
X57767773Y-36804984D01*
X57347272Y-36804617D01*
X56958640Y-36965196D01*
X56921796Y-37001976D01*
X56886124Y-36966241D01*
X56497773Y-36804984D01*
X56077272Y-36804617D01*
X55688640Y-36965196D01*
X55651796Y-37001976D01*
X55616124Y-36966241D01*
X55227773Y-36804984D01*
X54807272Y-36804617D01*
X54418640Y-36965196D01*
X54381796Y-37001976D01*
X54346124Y-36966241D01*
X53957773Y-36804984D01*
X53537272Y-36804617D01*
X53148640Y-36965196D01*
X53111796Y-37001976D01*
X53076124Y-36966241D01*
X52687773Y-36804984D01*
X52267272Y-36804617D01*
X51878640Y-36965196D01*
X51841796Y-37001976D01*
X51806124Y-36966241D01*
X51417773Y-36804984D01*
X50997272Y-36804617D01*
X50608640Y-36965196D01*
X50311041Y-37262276D01*
X50149784Y-37650627D01*
X50149417Y-38071128D01*
X50309996Y-38459760D01*
X50346776Y-38496604D01*
X50311041Y-38532276D01*
X50149784Y-38920627D01*
X50149417Y-39341128D01*
X50309996Y-39729760D01*
X50607076Y-40027359D01*
X50995427Y-40188616D01*
X51415928Y-40188983D01*
X51501147Y-40153771D01*
X51500835Y-40510638D01*
X51645159Y-40859929D01*
X51912165Y-41127402D01*
X52261204Y-41272335D01*
X52639138Y-41272665D01*
X52988429Y-41128341D01*
X53085936Y-41031004D01*
X53182165Y-41127402D01*
X53531204Y-41272335D01*
X53909138Y-41272665D01*
X54258429Y-41128341D01*
X54355936Y-41031004D01*
X54452165Y-41127402D01*
X54801204Y-41272335D01*
X55179138Y-41272665D01*
X55528429Y-41128341D01*
X55625936Y-41031004D01*
X55722165Y-41127402D01*
X56071204Y-41272335D01*
X56449138Y-41272665D01*
X56798429Y-41128341D01*
X56895936Y-41031004D01*
X56992165Y-41127402D01*
X57341204Y-41272335D01*
X57719138Y-41272665D01*
X57802441Y-41238245D01*
X62014196Y-45450000D01*
X53341789Y-45450000D01*
X53449835Y-45189796D01*
X53450165Y-44811862D01*
X53305841Y-44462571D01*
X53038835Y-44195098D01*
X52689796Y-44050165D01*
X52681957Y-44050158D01*
X52682464Y-43468858D01*
X52275014Y-42482754D01*
X51521214Y-41727637D01*
X50535823Y-41318467D01*
X49468858Y-41317536D01*
X48482754Y-41724986D01*
X47727637Y-42478786D01*
X47318467Y-43464177D01*
X47318207Y-43761962D01*
X47289796Y-43750165D01*
X46911862Y-43749835D01*
X46725000Y-43827045D01*
X46725000Y-31975000D01*
X153275000Y-31975000D01*
X153275000Y-41950000D01*
G04 #@! TA.AperFunction,Conductor*
G36*
X153275000Y-41950000D02*
G01*
X151743189Y-41950000D01*
X151521214Y-41727637D01*
X150535823Y-41318467D01*
X149468858Y-41317536D01*
X148482754Y-41724986D01*
X148257347Y-41950000D01*
X146500000Y-41950000D01*
X146480547Y-41953939D01*
X146464160Y-41965136D01*
X146453419Y-41981827D01*
X146450000Y-42000000D01*
X146450000Y-44158211D01*
X146189796Y-44050165D01*
X145811862Y-44049835D01*
X145462571Y-44194159D01*
X145195098Y-44461165D01*
X145050165Y-44810204D01*
X145049835Y-45188138D01*
X145194159Y-45537429D01*
X145461165Y-45804902D01*
X145810204Y-45949835D01*
X145924630Y-45949935D01*
X146175000Y-46200305D01*
X146175000Y-51931501D01*
X146038835Y-51795098D01*
X145689796Y-51650165D01*
X145311862Y-51649835D01*
X144962571Y-51794159D01*
X144725000Y-52031315D01*
X144725000Y-48118580D01*
X144814902Y-48028835D01*
X144959835Y-47679796D01*
X144960165Y-47301862D01*
X144815841Y-46952571D01*
X144548835Y-46685098D01*
X144199796Y-46540165D01*
X143821862Y-46539835D01*
X143472571Y-46684159D01*
X143205098Y-46951165D01*
X143060165Y-47300204D01*
X143059835Y-47678138D01*
X143204159Y-48027429D01*
X143275000Y-48098394D01*
X143275000Y-49531484D01*
X143148835Y-49405098D01*
X142799796Y-49260165D01*
X142421862Y-49259835D01*
X142072571Y-49404159D01*
X141805098Y-49671165D01*
X141660165Y-50020204D01*
X141659835Y-50398138D01*
X141804159Y-50747429D01*
X141875000Y-50818394D01*
X141875000Y-52631501D01*
X141738835Y-52495098D01*
X141389796Y-52350165D01*
X141011862Y-52349835D01*
X140662571Y-52494159D01*
X140437972Y-52718366D01*
X140449835Y-52689796D01*
X140450165Y-52311862D01*
X140305841Y-51962571D01*
X140038835Y-51695098D01*
X139689796Y-51550165D01*
X139311862Y-51549835D01*
X138962571Y-51694159D01*
X138695098Y-51961165D01*
X138550165Y-52310204D01*
X138549835Y-52688138D01*
X138694159Y-53037429D01*
X138961165Y-53304902D01*
X139310204Y-53449835D01*
X139688138Y-53450165D01*
X140037429Y-53305841D01*
X140262028Y-53081634D01*
X140250165Y-53110204D01*
X140249835Y-53488138D01*
X140394159Y-53837429D01*
X140475000Y-53918411D01*
X140475000Y-56301385D01*
X140405098Y-56371165D01*
X140260165Y-56720204D01*
X140259835Y-57098138D01*
X140404159Y-57447429D01*
X140671165Y-57714902D01*
X141020204Y-57859835D01*
X141398138Y-57860165D01*
X141747429Y-57715841D01*
X141875000Y-57588493D01*
X141875000Y-63181403D01*
X141795098Y-63261165D01*
X141650165Y-63610204D01*
X141649835Y-63988138D01*
X141794159Y-64337429D01*
X141875000Y-64418411D01*
X141875000Y-73371536D01*
X141718835Y-73215098D01*
X141369796Y-73070165D01*
X140991862Y-73069835D01*
X140642571Y-73214159D01*
X140375098Y-73481165D01*
X140230165Y-73830204D01*
X140229835Y-74208138D01*
X140374159Y-74557429D01*
X140641165Y-74824902D01*
X140990204Y-74969835D01*
X141368138Y-74970165D01*
X141717429Y-74825841D01*
X141875000Y-74668545D01*
X141875000Y-76781403D01*
X141795098Y-76861165D01*
X141650165Y-77210204D01*
X141649835Y-77588138D01*
X141794159Y-77937429D01*
X141875000Y-78018411D01*
X141875000Y-87121484D01*
X141748835Y-86995098D01*
X141399796Y-86850165D01*
X141021862Y-86849835D01*
X140672571Y-86994159D01*
X140405098Y-87261165D01*
X140260165Y-87610204D01*
X140259835Y-87988138D01*
X140404159Y-88337429D01*
X140418481Y-88351776D01*
X139870572Y-88124265D01*
X139263889Y-88123735D01*
X138703185Y-88355414D01*
X138273821Y-88784029D01*
X138041165Y-89344328D01*
X138040635Y-89951011D01*
X138272314Y-90511715D01*
X138700929Y-90941079D01*
X139261228Y-91173735D01*
X139867911Y-91174265D01*
X140428615Y-90942586D01*
X140857979Y-90513971D01*
X141090635Y-89953672D01*
X141091165Y-89346989D01*
X140859486Y-88786285D01*
X140683555Y-88610047D01*
X141020204Y-88749835D01*
X141398138Y-88750165D01*
X141747429Y-88605841D01*
X141875000Y-88478493D01*
X141875000Y-90281577D01*
X141695098Y-90461165D01*
X141550165Y-90810204D01*
X141549835Y-91188138D01*
X141694159Y-91537429D01*
X141961165Y-91804902D01*
X142310204Y-91949835D01*
X142688138Y-91950165D01*
X143037429Y-91805841D01*
X143304902Y-91538835D01*
X143449835Y-91189796D01*
X143450165Y-90811862D01*
X143325000Y-90508939D01*
X143325000Y-87568499D01*
X143461165Y-87704902D01*
X143810204Y-87849835D01*
X144188138Y-87850165D01*
X144537429Y-87705841D01*
X144800000Y-87443728D01*
X144800000Y-93056272D01*
X144795098Y-93061165D01*
X144650165Y-93410204D01*
X144649835Y-93788138D01*
X144794159Y-94137429D01*
X145061165Y-94404902D01*
X145410204Y-94549835D01*
X145788138Y-94550165D01*
X146137429Y-94405841D01*
X146404902Y-94138835D01*
X146450000Y-94030226D01*
X146450000Y-96450033D01*
X71050000Y-96499967D01*
X71050000Y-59595809D01*
X71599934Y-59596289D01*
X72212480Y-59343190D01*
X72472094Y-59084028D01*
X72494159Y-59137429D01*
X72761165Y-59404902D01*
X73110204Y-59549835D01*
X73488138Y-59550165D01*
X73837429Y-59405841D01*
X74104902Y-59138835D01*
X74249835Y-58789796D01*
X74250165Y-58411862D01*
X74183299Y-58250034D01*
X74249835Y-58089796D01*
X74250165Y-57711862D01*
X74162588Y-57499910D01*
X74249835Y-57289796D01*
X74250165Y-56911862D01*
X74105841Y-56562571D01*
X73838835Y-56295098D01*
X73489796Y-56150165D01*
X73111862Y-56149835D01*
X72762571Y-56294159D01*
X72495098Y-56561165D01*
X72425323Y-56729203D01*
X72214945Y-56518457D01*
X71602842Y-56264290D01*
X71507811Y-56264207D01*
X71270000Y-56026396D01*
X71255858Y-56040539D01*
X71050000Y-55834681D01*
X71050000Y-55390000D01*
X71906396Y-55390000D01*
X72574278Y-56057882D01*
X72780757Y-55931398D01*
X72872942Y-55312046D01*
X72780757Y-54848602D01*
X72574278Y-54722118D01*
X71906396Y-55390000D01*
X71050000Y-55390000D01*
X71050000Y-54945319D01*
X71255858Y-54739462D01*
X71270000Y-54753604D01*
X71507396Y-54516208D01*
X71599934Y-54516289D01*
X72212480Y-54263190D01*
X72681543Y-53794945D01*
X72935710Y-53182842D01*
X72936289Y-52520066D01*
X72683190Y-51907520D01*
X72356081Y-51579839D01*
X72681543Y-51254945D01*
X72935710Y-50642842D01*
X72936289Y-49980066D01*
X72683190Y-49367520D01*
X72356081Y-49039839D01*
X72681543Y-48714945D01*
X72935710Y-48102842D01*
X72936289Y-47440066D01*
X72683190Y-46827520D01*
X72458586Y-46602524D01*
X75346760Y-46602524D01*
X78214972Y-49470737D01*
X78214972Y-63929544D01*
X78248386Y-64097526D01*
X78270159Y-64206990D01*
X78427320Y-64442196D01*
X85282983Y-71297859D01*
X85237598Y-71343165D01*
X85092665Y-71692204D01*
X85092335Y-72070138D01*
X85236659Y-72419429D01*
X85283155Y-72466006D01*
X85282835Y-72832138D01*
X85427159Y-73181429D01*
X85473655Y-73228006D01*
X85473335Y-73594138D01*
X85616385Y-73940346D01*
X85600665Y-73978204D01*
X85600335Y-74356138D01*
X85744659Y-74705429D01*
X85791155Y-74752006D01*
X85790835Y-75118138D01*
X85935159Y-75467429D01*
X86202165Y-75734902D01*
X86551204Y-75879835D01*
X86929138Y-75880165D01*
X86955321Y-75869347D01*
X98498664Y-87412690D01*
X98733871Y-87569851D01*
X99011316Y-87625038D01*
X104570234Y-87625038D01*
X105226805Y-88281609D01*
X105048185Y-88355414D01*
X104618821Y-88784029D01*
X104386165Y-89344328D01*
X104385635Y-89951011D01*
X104617314Y-90511715D01*
X105045929Y-90941079D01*
X105606228Y-91173735D01*
X106212911Y-91174265D01*
X106548379Y-91035652D01*
X106548235Y-91201118D01*
X106692559Y-91550409D01*
X106959565Y-91817882D01*
X107308604Y-91962815D01*
X107686538Y-91963145D01*
X108035829Y-91818821D01*
X108133336Y-91721484D01*
X108229565Y-91817882D01*
X108578604Y-91962815D01*
X108956538Y-91963145D01*
X109305829Y-91818821D01*
X109403336Y-91721484D01*
X109499565Y-91817882D01*
X109848604Y-91962815D01*
X110226538Y-91963145D01*
X110575829Y-91818821D01*
X110673336Y-91721484D01*
X110769565Y-91817882D01*
X111118604Y-91962815D01*
X111496538Y-91963145D01*
X111845829Y-91818821D01*
X111943336Y-91721484D01*
X112039565Y-91817882D01*
X112388604Y-91962815D01*
X112766538Y-91963145D01*
X113115829Y-91818821D01*
X113213336Y-91721484D01*
X113309565Y-91817882D01*
X113658604Y-91962815D01*
X114036538Y-91963145D01*
X114385829Y-91818821D01*
X114483336Y-91721484D01*
X114579565Y-91817882D01*
X114928604Y-91962815D01*
X115306538Y-91963145D01*
X115655829Y-91818821D01*
X115753336Y-91721484D01*
X115849565Y-91817882D01*
X116198604Y-91962815D01*
X116576538Y-91963145D01*
X116925829Y-91818821D01*
X117023336Y-91721484D01*
X117119565Y-91817882D01*
X117468604Y-91962815D01*
X117846538Y-91963145D01*
X118195829Y-91818821D01*
X118293336Y-91721484D01*
X118389565Y-91817882D01*
X118738604Y-91962815D01*
X119116538Y-91963145D01*
X119465829Y-91818821D01*
X119563336Y-91721484D01*
X119659565Y-91817882D01*
X120008604Y-91962815D01*
X120386538Y-91963145D01*
X120735829Y-91818821D01*
X120833336Y-91721484D01*
X120929565Y-91817882D01*
X121278604Y-91962815D01*
X121656538Y-91963145D01*
X122005829Y-91818821D01*
X122103336Y-91721484D01*
X122199565Y-91817882D01*
X122548604Y-91962815D01*
X122926538Y-91963145D01*
X123275829Y-91818821D01*
X123373336Y-91721484D01*
X123469565Y-91817882D01*
X123818604Y-91962815D01*
X124196538Y-91963145D01*
X124545829Y-91818821D01*
X124643336Y-91721484D01*
X124739565Y-91817882D01*
X125088604Y-91962815D01*
X125466538Y-91963145D01*
X125815829Y-91818821D01*
X125913336Y-91721484D01*
X126009565Y-91817882D01*
X126358604Y-91962815D01*
X126736538Y-91963145D01*
X127085829Y-91818821D01*
X127183336Y-91721484D01*
X127279565Y-91817882D01*
X127628604Y-91962815D01*
X128006538Y-91963145D01*
X128355829Y-91818821D01*
X128453336Y-91721484D01*
X128549565Y-91817882D01*
X128898604Y-91962815D01*
X129276538Y-91963145D01*
X129625829Y-91818821D01*
X129723336Y-91721484D01*
X129819565Y-91817882D01*
X130168604Y-91962815D01*
X130546538Y-91963145D01*
X130895829Y-91818821D01*
X131025627Y-91689249D01*
X131091165Y-91754902D01*
X131440204Y-91899835D01*
X131818138Y-91900165D01*
X132167429Y-91755841D01*
X132434902Y-91488835D01*
X132579835Y-91139796D01*
X132580165Y-90761862D01*
X132435841Y-90412571D01*
X132168835Y-90145098D01*
X131819796Y-90000165D01*
X131715000Y-90000073D01*
X131715000Y-89270075D01*
X131818138Y-89270165D01*
X132167429Y-89125841D01*
X132434902Y-88858835D01*
X132579835Y-88509796D01*
X132580165Y-88131862D01*
X132435841Y-87782571D01*
X132168835Y-87515098D01*
X131819796Y-87370165D01*
X131651436Y-87370018D01*
X131502652Y-87147348D01*
X122718267Y-78362963D01*
X122926538Y-78363145D01*
X123275829Y-78218821D01*
X123373336Y-78121484D01*
X123469565Y-78217882D01*
X123818604Y-78362815D01*
X124196538Y-78363145D01*
X124545829Y-78218821D01*
X124643336Y-78121484D01*
X124739565Y-78217882D01*
X125088604Y-78362815D01*
X125466538Y-78363145D01*
X125815829Y-78218821D01*
X125913336Y-78121484D01*
X126009565Y-78217882D01*
X126358604Y-78362815D01*
X126736538Y-78363145D01*
X127085829Y-78218821D01*
X127183336Y-78121484D01*
X127279565Y-78217882D01*
X127628604Y-78362815D01*
X128006538Y-78363145D01*
X128355829Y-78218821D01*
X128453336Y-78121484D01*
X128549565Y-78217882D01*
X128898604Y-78362815D01*
X129276538Y-78363145D01*
X129625829Y-78218821D01*
X129723336Y-78121484D01*
X129819565Y-78217882D01*
X130168604Y-78362815D01*
X130546538Y-78363145D01*
X130895829Y-78218821D01*
X130993336Y-78121484D01*
X131089565Y-78217882D01*
X131438604Y-78362815D01*
X131816538Y-78363145D01*
X132165829Y-78218821D01*
X132433302Y-77951815D01*
X132578235Y-77602776D01*
X132578565Y-77224842D01*
X132434241Y-76875551D01*
X132167235Y-76608078D01*
X131818196Y-76463145D01*
X131440262Y-76462815D01*
X131090971Y-76607139D01*
X130993464Y-76704476D01*
X130897235Y-76608078D01*
X130548196Y-76463145D01*
X130170262Y-76462815D01*
X129820971Y-76607139D01*
X129723464Y-76704476D01*
X129627235Y-76608078D01*
X129278196Y-76463145D01*
X128900262Y-76462815D01*
X128550971Y-76607139D01*
X128453464Y-76704476D01*
X128357235Y-76608078D01*
X128008196Y-76463145D01*
X127630262Y-76462815D01*
X127280971Y-76607139D01*
X127183464Y-76704476D01*
X127087235Y-76608078D01*
X126738196Y-76463145D01*
X126360262Y-76462815D01*
X126010971Y-76607139D01*
X125913464Y-76704476D01*
X125817235Y-76608078D01*
X125468196Y-76463145D01*
X125090262Y-76462815D01*
X124740971Y-76607139D01*
X124643464Y-76704476D01*
X124547235Y-76608078D01*
X124198196Y-76463145D01*
X123820262Y-76462815D01*
X123470971Y-76607139D01*
X123373464Y-76704476D01*
X123277235Y-76608078D01*
X122928196Y-76463145D01*
X122550262Y-76462815D01*
X122200971Y-76607139D01*
X122103464Y-76704476D01*
X122007235Y-76608078D01*
X121658196Y-76463145D01*
X121280262Y-76462815D01*
X120930971Y-76607139D01*
X120833464Y-76704476D01*
X120737235Y-76608078D01*
X120388196Y-76463145D01*
X120010262Y-76462815D01*
X119660971Y-76607139D01*
X119563464Y-76704476D01*
X119467235Y-76608078D01*
X119118196Y-76463145D01*
X118740262Y-76462815D01*
X118390971Y-76607139D01*
X118293464Y-76704476D01*
X118197235Y-76608078D01*
X117848196Y-76463145D01*
X117470262Y-76462815D01*
X117120971Y-76607139D01*
X117023464Y-76704476D01*
X116927235Y-76608078D01*
X116578196Y-76463145D01*
X116200262Y-76462815D01*
X115850971Y-76607139D01*
X115753464Y-76704476D01*
X115657235Y-76608078D01*
X115308196Y-76463145D01*
X114930262Y-76462815D01*
X114580971Y-76607139D01*
X114483464Y-76704476D01*
X114387235Y-76608078D01*
X114038196Y-76463145D01*
X113660262Y-76462815D01*
X113310971Y-76607139D01*
X113213464Y-76704476D01*
X113117235Y-76608078D01*
X112768196Y-76463145D01*
X112390262Y-76462815D01*
X112040971Y-76607139D01*
X111943464Y-76704476D01*
X111847235Y-76608078D01*
X111498196Y-76463145D01*
X111120262Y-76462815D01*
X110770971Y-76607139D01*
X110673464Y-76704476D01*
X110577235Y-76608078D01*
X110228196Y-76463145D01*
X109850262Y-76462815D01*
X109500971Y-76607139D01*
X109403464Y-76704476D01*
X109307235Y-76608078D01*
X108958196Y-76463145D01*
X108580262Y-76462815D01*
X108230971Y-76607139D01*
X108133464Y-76704476D01*
X108037235Y-76608078D01*
X107688196Y-76463145D01*
X107390286Y-76462885D01*
X107435635Y-76353672D01*
X107435637Y-76351011D01*
X138040635Y-76351011D01*
X138272314Y-76911715D01*
X138700929Y-77341079D01*
X139261228Y-77573735D01*
X139867911Y-77574265D01*
X140428615Y-77342586D01*
X140857979Y-76913971D01*
X141090635Y-76353672D01*
X141091165Y-75746989D01*
X140859486Y-75186285D01*
X140430871Y-74756921D01*
X139870572Y-74524265D01*
X139263889Y-74523735D01*
X138703185Y-74755414D01*
X138273821Y-75184029D01*
X138041165Y-75744328D01*
X138040635Y-76351011D01*
X107435637Y-76351011D01*
X107436165Y-75746989D01*
X107389861Y-75634926D01*
X107686538Y-75635185D01*
X108035829Y-75490861D01*
X108133336Y-75393524D01*
X108229565Y-75489922D01*
X108578604Y-75634855D01*
X108956538Y-75635185D01*
X109305829Y-75490861D01*
X109403336Y-75393524D01*
X109499565Y-75489922D01*
X109848604Y-75634855D01*
X110226538Y-75635185D01*
X110575829Y-75490861D01*
X110673336Y-75393524D01*
X110769565Y-75489922D01*
X111118604Y-75634855D01*
X111496538Y-75635185D01*
X111845829Y-75490861D01*
X111943336Y-75393524D01*
X112039565Y-75489922D01*
X112388604Y-75634855D01*
X112766538Y-75635185D01*
X113115829Y-75490861D01*
X113213336Y-75393524D01*
X113309565Y-75489922D01*
X113658604Y-75634855D01*
X114036538Y-75635185D01*
X114385829Y-75490861D01*
X114483336Y-75393524D01*
X114579565Y-75489922D01*
X114928604Y-75634855D01*
X115306538Y-75635185D01*
X115655829Y-75490861D01*
X115753336Y-75393524D01*
X115849565Y-75489922D01*
X116198604Y-75634855D01*
X116576538Y-75635185D01*
X116925829Y-75490861D01*
X117023336Y-75393524D01*
X117119565Y-75489922D01*
X117468604Y-75634855D01*
X117846538Y-75635185D01*
X118195829Y-75490861D01*
X118293336Y-75393524D01*
X118389565Y-75489922D01*
X118738604Y-75634855D01*
X119116538Y-75635185D01*
X119465829Y-75490861D01*
X119563336Y-75393524D01*
X119659565Y-75489922D01*
X120008604Y-75634855D01*
X120386538Y-75635185D01*
X120735829Y-75490861D01*
X120833336Y-75393524D01*
X120929565Y-75489922D01*
X121278604Y-75634855D01*
X121656538Y-75635185D01*
X122005829Y-75490861D01*
X122103336Y-75393524D01*
X122199565Y-75489922D01*
X122548604Y-75634855D01*
X122926538Y-75635185D01*
X123275829Y-75490861D01*
X123373336Y-75393524D01*
X123469565Y-75489922D01*
X123818604Y-75634855D01*
X124196538Y-75635185D01*
X124545829Y-75490861D01*
X124643336Y-75393524D01*
X124739565Y-75489922D01*
X125088604Y-75634855D01*
X125466538Y-75635185D01*
X125815829Y-75490861D01*
X125913336Y-75393524D01*
X126009565Y-75489922D01*
X126358604Y-75634855D01*
X126736538Y-75635185D01*
X127085829Y-75490861D01*
X127183336Y-75393524D01*
X127279565Y-75489922D01*
X127628604Y-75634855D01*
X128006538Y-75635185D01*
X128355829Y-75490861D01*
X128453336Y-75393524D01*
X128549565Y-75489922D01*
X128898604Y-75634855D01*
X129276538Y-75635185D01*
X129625829Y-75490861D01*
X129723336Y-75393524D01*
X129819565Y-75489922D01*
X130168604Y-75634855D01*
X130546538Y-75635185D01*
X130895829Y-75490861D01*
X130993336Y-75393524D01*
X131089565Y-75489922D01*
X131438604Y-75634855D01*
X131816538Y-75635185D01*
X132165829Y-75490861D01*
X132433302Y-75223855D01*
X132578235Y-74874816D01*
X132578565Y-74496882D01*
X132434241Y-74147591D01*
X132167235Y-73880118D01*
X131818196Y-73735185D01*
X131465682Y-73734877D01*
X122458142Y-64727338D01*
X122449896Y-64721828D01*
X122548604Y-64762815D01*
X122926538Y-64763145D01*
X123275829Y-64618821D01*
X123373336Y-64521484D01*
X123469565Y-64617882D01*
X123818604Y-64762815D01*
X124196538Y-64763145D01*
X124545829Y-64618821D01*
X124643336Y-64521484D01*
X124739565Y-64617882D01*
X125088604Y-64762815D01*
X125466538Y-64763145D01*
X125815829Y-64618821D01*
X125913336Y-64521484D01*
X126009565Y-64617882D01*
X126358604Y-64762815D01*
X126736538Y-64763145D01*
X127085829Y-64618821D01*
X127183336Y-64521484D01*
X127279565Y-64617882D01*
X127628604Y-64762815D01*
X128006538Y-64763145D01*
X128355829Y-64618821D01*
X128453336Y-64521484D01*
X128549565Y-64617882D01*
X128898604Y-64762815D01*
X129276538Y-64763145D01*
X129625829Y-64618821D01*
X129723336Y-64521484D01*
X129819565Y-64617882D01*
X130168604Y-64762815D01*
X130546538Y-64763145D01*
X130895829Y-64618821D01*
X130993336Y-64521484D01*
X131089565Y-64617882D01*
X131438604Y-64762815D01*
X131816538Y-64763145D01*
X132165829Y-64618821D01*
X132433302Y-64351815D01*
X132578235Y-64002776D01*
X132578565Y-63624842D01*
X132434241Y-63275551D01*
X132167235Y-63008078D01*
X131818196Y-62863145D01*
X131440262Y-62862815D01*
X131090971Y-63007139D01*
X130993464Y-63104476D01*
X130897235Y-63008078D01*
X130548196Y-62863145D01*
X130170262Y-62862815D01*
X129820971Y-63007139D01*
X129723464Y-63104476D01*
X129627235Y-63008078D01*
X129278196Y-62863145D01*
X128900262Y-62862815D01*
X128550971Y-63007139D01*
X128453464Y-63104476D01*
X128357235Y-63008078D01*
X128008196Y-62863145D01*
X127630262Y-62862815D01*
X127280971Y-63007139D01*
X127183464Y-63104476D01*
X127087235Y-63008078D01*
X126738196Y-62863145D01*
X126360262Y-62862815D01*
X126010971Y-63007139D01*
X125913464Y-63104476D01*
X125817235Y-63008078D01*
X125468196Y-62863145D01*
X125090262Y-62862815D01*
X124740971Y-63007139D01*
X124643464Y-63104476D01*
X124547235Y-63008078D01*
X124198196Y-62863145D01*
X123820262Y-62862815D01*
X123470971Y-63007139D01*
X123373464Y-63104476D01*
X123277235Y-63008078D01*
X122928196Y-62863145D01*
X122550262Y-62862815D01*
X122200971Y-63007139D01*
X122103464Y-63104476D01*
X122007235Y-63008078D01*
X121658196Y-62863145D01*
X121280262Y-62862815D01*
X120930971Y-63007139D01*
X120833464Y-63104476D01*
X120737235Y-63008078D01*
X120388196Y-62863145D01*
X120010262Y-62862815D01*
X119660971Y-63007139D01*
X119563464Y-63104476D01*
X119467235Y-63008078D01*
X119118196Y-62863145D01*
X118740262Y-62862815D01*
X118390971Y-63007139D01*
X118293464Y-63104476D01*
X118197235Y-63008078D01*
X117848196Y-62863145D01*
X117470262Y-62862815D01*
X117120971Y-63007139D01*
X117023464Y-63104476D01*
X116927235Y-63008078D01*
X116578196Y-62863145D01*
X116200262Y-62862815D01*
X115850971Y-63007139D01*
X115753464Y-63104476D01*
X115657235Y-63008078D01*
X115308196Y-62863145D01*
X114930262Y-62862815D01*
X114580971Y-63007139D01*
X114483464Y-63104476D01*
X114387235Y-63008078D01*
X114038196Y-62863145D01*
X113660262Y-62862815D01*
X113310971Y-63007139D01*
X113213464Y-63104476D01*
X113117235Y-63008078D01*
X112768196Y-62863145D01*
X112390262Y-62862815D01*
X112040971Y-63007139D01*
X111943464Y-63104476D01*
X111847235Y-63008078D01*
X111498196Y-62863145D01*
X111120262Y-62862815D01*
X110770971Y-63007139D01*
X110673464Y-63104476D01*
X110577235Y-63008078D01*
X110228196Y-62863145D01*
X109850262Y-62862815D01*
X109500971Y-63007139D01*
X109403464Y-63104476D01*
X109307235Y-63008078D01*
X108958196Y-62863145D01*
X108580262Y-62862815D01*
X108230971Y-63007139D01*
X108133464Y-63104476D01*
X108037235Y-63008078D01*
X107688196Y-62863145D01*
X107390286Y-62862885D01*
X107435635Y-62753672D01*
X107435637Y-62751011D01*
X138040635Y-62751011D01*
X138272314Y-63311715D01*
X138700929Y-63741079D01*
X139261228Y-63973735D01*
X139867911Y-63974265D01*
X140428615Y-63742586D01*
X140857979Y-63313971D01*
X141090635Y-62753672D01*
X141091165Y-62146989D01*
X140859486Y-61586285D01*
X140430871Y-61156921D01*
X139870572Y-60924265D01*
X139263889Y-60923735D01*
X138703185Y-61155414D01*
X138273821Y-61584029D01*
X138041165Y-62144328D01*
X138040635Y-62751011D01*
X107435637Y-62751011D01*
X107436165Y-62146989D01*
X107389861Y-62034926D01*
X107686538Y-62035185D01*
X108035829Y-61890861D01*
X108133336Y-61793524D01*
X108229565Y-61889922D01*
X108578604Y-62034855D01*
X108956538Y-62035185D01*
X109305829Y-61890861D01*
X109403336Y-61793524D01*
X109499565Y-61889922D01*
X109848604Y-62034855D01*
X110226538Y-62035185D01*
X110575829Y-61890861D01*
X110673336Y-61793524D01*
X110769565Y-61889922D01*
X111118604Y-62034855D01*
X111496538Y-62035185D01*
X111845829Y-61890861D01*
X111943336Y-61793524D01*
X112039565Y-61889922D01*
X112388604Y-62034855D01*
X112766538Y-62035185D01*
X113115829Y-61890861D01*
X113213336Y-61793524D01*
X113309565Y-61889922D01*
X113658604Y-62034855D01*
X114036538Y-62035185D01*
X114385829Y-61890861D01*
X114483336Y-61793524D01*
X114579565Y-61889922D01*
X114928604Y-62034855D01*
X115306538Y-62035185D01*
X115655829Y-61890861D01*
X115753336Y-61793524D01*
X115849565Y-61889922D01*
X116198604Y-62034855D01*
X116576538Y-62035185D01*
X116925829Y-61890861D01*
X117023336Y-61793524D01*
X117119565Y-61889922D01*
X117468604Y-62034855D01*
X117846538Y-62035185D01*
X118195829Y-61890861D01*
X118293336Y-61793524D01*
X118389565Y-61889922D01*
X118738604Y-62034855D01*
X119116538Y-62035185D01*
X119465829Y-61890861D01*
X119563336Y-61793524D01*
X119659565Y-61889922D01*
X120008604Y-62034855D01*
X120386538Y-62035185D01*
X120735829Y-61890861D01*
X120833336Y-61793524D01*
X120929565Y-61889922D01*
X121278604Y-62034855D01*
X121656538Y-62035185D01*
X122005829Y-61890861D01*
X122103336Y-61793524D01*
X122199565Y-61889922D01*
X122548604Y-62034855D01*
X122926538Y-62035185D01*
X123275829Y-61890861D01*
X123373336Y-61793524D01*
X123469565Y-61889922D01*
X123818604Y-62034855D01*
X124196538Y-62035185D01*
X124545829Y-61890861D01*
X124643336Y-61793524D01*
X124739565Y-61889922D01*
X125088604Y-62034855D01*
X125466538Y-62035185D01*
X125815829Y-61890861D01*
X125913336Y-61793524D01*
X126009565Y-61889922D01*
X126358604Y-62034855D01*
X126736538Y-62035185D01*
X127085829Y-61890861D01*
X127183336Y-61793524D01*
X127279565Y-61889922D01*
X127628604Y-62034855D01*
X128006538Y-62035185D01*
X128355829Y-61890861D01*
X128453336Y-61793524D01*
X128549565Y-61889922D01*
X128898604Y-62034855D01*
X129276538Y-62035185D01*
X129625829Y-61890861D01*
X129723336Y-61793524D01*
X129819565Y-61889922D01*
X130168604Y-62034855D01*
X130546538Y-62035185D01*
X130895829Y-61890861D01*
X130993336Y-61793524D01*
X131089565Y-61889922D01*
X131438604Y-62034855D01*
X131816538Y-62035185D01*
X132165829Y-61890861D01*
X132433302Y-61623855D01*
X132578235Y-61274816D01*
X132578565Y-60896882D01*
X132434241Y-60547591D01*
X132353400Y-60466609D01*
X132353400Y-59417053D01*
X132401165Y-59464902D01*
X132750204Y-59609835D01*
X133128138Y-59610165D01*
X133477429Y-59465841D01*
X133744902Y-59198835D01*
X133889835Y-58849796D01*
X133890165Y-58471862D01*
X133745841Y-58122571D01*
X133478835Y-57855098D01*
X133129796Y-57710165D01*
X132751862Y-57709835D01*
X132402571Y-57854159D01*
X132353400Y-57903244D01*
X132353400Y-56060404D01*
X147683804Y-40730000D01*
X147920200Y-40730000D01*
X148171297Y-40680054D01*
X148197646Y-40674813D01*
X148432852Y-40517652D01*
X148761732Y-40188773D01*
X149002728Y-40188983D01*
X149391360Y-40028404D01*
X149688959Y-39731324D01*
X149850216Y-39342973D01*
X149850583Y-38922472D01*
X149690004Y-38533840D01*
X149653224Y-38496996D01*
X149688959Y-38461324D01*
X149850216Y-38072973D01*
X149850583Y-37652472D01*
X149690004Y-37263840D01*
X149392924Y-36966241D01*
X149004573Y-36804984D01*
X148584072Y-36804617D01*
X148195440Y-36965196D01*
X148158596Y-37001976D01*
X148122924Y-36966241D01*
X147734573Y-36804984D01*
X147314072Y-36804617D01*
X146925440Y-36965196D01*
X146888596Y-37001976D01*
X146852924Y-36966241D01*
X146464573Y-36804984D01*
X146044072Y-36804617D01*
X145655440Y-36965196D01*
X145618596Y-37001976D01*
X145582924Y-36966241D01*
X145194573Y-36804984D01*
X144774072Y-36804617D01*
X144385440Y-36965196D01*
X144348596Y-37001976D01*
X144312924Y-36966241D01*
X143924573Y-36804984D01*
X143504072Y-36804617D01*
X143115440Y-36965196D01*
X143078596Y-37001976D01*
X143042924Y-36966241D01*
X142654573Y-36804984D01*
X142234072Y-36804617D01*
X141845440Y-36965196D01*
X141808596Y-37001976D01*
X141772924Y-36966241D01*
X141384573Y-36804984D01*
X140964072Y-36804617D01*
X140575440Y-36965196D01*
X140538596Y-37001976D01*
X140502924Y-36966241D01*
X140114573Y-36804984D01*
X139694072Y-36804617D01*
X139305440Y-36965196D01*
X139268596Y-37001976D01*
X139232924Y-36966241D01*
X138844573Y-36804984D01*
X138424072Y-36804617D01*
X138035440Y-36965196D01*
X137998596Y-37001976D01*
X137962924Y-36966241D01*
X137574573Y-36804984D01*
X137154072Y-36804617D01*
X136765440Y-36965196D01*
X136728596Y-37001976D01*
X136692924Y-36966241D01*
X136304573Y-36804984D01*
X135884072Y-36804617D01*
X135495440Y-36965196D01*
X135458596Y-37001976D01*
X135422924Y-36966241D01*
X135034573Y-36804984D01*
X134614072Y-36804617D01*
X134225440Y-36965196D01*
X134188596Y-37001976D01*
X134152924Y-36966241D01*
X133764573Y-36804984D01*
X133344072Y-36804617D01*
X132955440Y-36965196D01*
X132918596Y-37001976D01*
X132882924Y-36966241D01*
X132494573Y-36804984D01*
X132074072Y-36804617D01*
X131685440Y-36965196D01*
X131648596Y-37001976D01*
X131612924Y-36966241D01*
X131224573Y-36804984D01*
X130804072Y-36804617D01*
X130415440Y-36965196D01*
X130378596Y-37001976D01*
X130342924Y-36966241D01*
X129954573Y-36804984D01*
X129534072Y-36804617D01*
X129145440Y-36965196D01*
X129108596Y-37001976D01*
X129072924Y-36966241D01*
X128684573Y-36804984D01*
X128264072Y-36804617D01*
X127875440Y-36965196D01*
X127838596Y-37001976D01*
X127802924Y-36966241D01*
X127414573Y-36804984D01*
X126994072Y-36804617D01*
X126605440Y-36965196D01*
X126568596Y-37001976D01*
X126532924Y-36966241D01*
X126144573Y-36804984D01*
X125724072Y-36804617D01*
X125335440Y-36965196D01*
X125298596Y-37001976D01*
X125262924Y-36966241D01*
X124874573Y-36804984D01*
X124454072Y-36804617D01*
X124065440Y-36965196D01*
X123767841Y-37262276D01*
X123606584Y-37650627D01*
X123606217Y-38071128D01*
X123766796Y-38459760D01*
X123803576Y-38496604D01*
X123767841Y-38532276D01*
X123606584Y-38920627D01*
X123606217Y-39341128D01*
X123766796Y-39729760D01*
X123865279Y-39828416D01*
X121518559Y-42175136D01*
X121338835Y-41995098D01*
X120989796Y-41850165D01*
X120881379Y-41850070D01*
X120750034Y-41762308D01*
X120750165Y-41611862D01*
X120605841Y-41262571D01*
X120338835Y-40995098D01*
X119989796Y-40850165D01*
X119950132Y-40850130D01*
X119950165Y-40811862D01*
X119805841Y-40462571D01*
X119538835Y-40195098D01*
X119189796Y-40050165D01*
X118811862Y-40049835D01*
X118462571Y-40194159D01*
X118281414Y-40375000D01*
X114800305Y-40375000D01*
X114695000Y-40269696D01*
X114695000Y-40049999D01*
X115028827Y-40188616D01*
X115449328Y-40188983D01*
X115837960Y-40028404D01*
X116135559Y-39731324D01*
X116296816Y-39342973D01*
X116297183Y-38922472D01*
X116136604Y-38533840D01*
X116099824Y-38496996D01*
X116135559Y-38461324D01*
X116296816Y-38072973D01*
X116297183Y-37652472D01*
X116136604Y-37263840D01*
X115839524Y-36966241D01*
X115451173Y-36804984D01*
X115030672Y-36804617D01*
X114642040Y-36965196D01*
X114605196Y-37001976D01*
X114569524Y-36966241D01*
X114181173Y-36804984D01*
X113760672Y-36804617D01*
X113372040Y-36965196D01*
X113282674Y-37054407D01*
X113076834Y-36848567D01*
X112987790Y-36937611D01*
X112726845Y-36878261D01*
X112407389Y-36932790D01*
X112323166Y-36848567D01*
X112117431Y-37054302D01*
X112029524Y-36966241D01*
X111641173Y-36804984D01*
X111220672Y-36804617D01*
X110832040Y-36965196D01*
X110742674Y-37054407D01*
X110536834Y-36848567D01*
X110447790Y-36937611D01*
X110186845Y-36878261D01*
X109867389Y-36932790D01*
X109783166Y-36848567D01*
X109577431Y-37054302D01*
X109489524Y-36966241D01*
X109101173Y-36804984D01*
X108680672Y-36804617D01*
X108292040Y-36965196D01*
X108255196Y-37001976D01*
X108219524Y-36966241D01*
X107831173Y-36804984D01*
X107410672Y-36804617D01*
X107022040Y-36965196D01*
X106985196Y-37001976D01*
X106949524Y-36966241D01*
X106561173Y-36804984D01*
X106140672Y-36804617D01*
X105752040Y-36965196D01*
X105715196Y-37001976D01*
X105679524Y-36966241D01*
X105291173Y-36804984D01*
X104870672Y-36804617D01*
X104482040Y-36965196D01*
X104445196Y-37001976D01*
X104409524Y-36966241D01*
X104021173Y-36804984D01*
X103600672Y-36804617D01*
X103212040Y-36965196D01*
X103175196Y-37001976D01*
X103139524Y-36966241D01*
X102751173Y-36804984D01*
X102330672Y-36804617D01*
X101942040Y-36965196D01*
X101905196Y-37001976D01*
X101869524Y-36966241D01*
X101481173Y-36804984D01*
X101060672Y-36804617D01*
X100672040Y-36965196D01*
X100635196Y-37001976D01*
X100599524Y-36966241D01*
X100211173Y-36804984D01*
X99790672Y-36804617D01*
X99402040Y-36965196D01*
X99365196Y-37001976D01*
X99329524Y-36966241D01*
X98941173Y-36804984D01*
X98520672Y-36804617D01*
X98132040Y-36965196D01*
X98095196Y-37001976D01*
X98059524Y-36966241D01*
X97671173Y-36804984D01*
X97250672Y-36804617D01*
X96862040Y-36965196D01*
X96825196Y-37001976D01*
X96789524Y-36966241D01*
X96401173Y-36804984D01*
X95980672Y-36804617D01*
X95592040Y-36965196D01*
X95555196Y-37001976D01*
X95519524Y-36966241D01*
X95131173Y-36804984D01*
X94710672Y-36804617D01*
X94322040Y-36965196D01*
X94285196Y-37001976D01*
X94249524Y-36966241D01*
X93861173Y-36804984D01*
X93440672Y-36804617D01*
X93052040Y-36965196D01*
X93015196Y-37001976D01*
X92979524Y-36966241D01*
X92591173Y-36804984D01*
X92170672Y-36804617D01*
X91782040Y-36965196D01*
X91745196Y-37001976D01*
X91709524Y-36966241D01*
X91321173Y-36804984D01*
X90900672Y-36804617D01*
X90512040Y-36965196D01*
X90475196Y-37001976D01*
X90439524Y-36966241D01*
X90051173Y-36804984D01*
X89630672Y-36804617D01*
X89242040Y-36965196D01*
X89205196Y-37001976D01*
X89169524Y-36966241D01*
X88781173Y-36804984D01*
X88360672Y-36804617D01*
X87972040Y-36965196D01*
X87935196Y-37001976D01*
X87899524Y-36966241D01*
X87511173Y-36804984D01*
X87090672Y-36804617D01*
X86702040Y-36965196D01*
X86665196Y-37001976D01*
X86629524Y-36966241D01*
X86241173Y-36804984D01*
X85820672Y-36804617D01*
X85432040Y-36965196D01*
X85395196Y-37001976D01*
X85359524Y-36966241D01*
X84971173Y-36804984D01*
X84550672Y-36804617D01*
X84162040Y-36965196D01*
X83864441Y-37262276D01*
X83703184Y-37650627D01*
X83702817Y-38071128D01*
X83863396Y-38459760D01*
X83900176Y-38496604D01*
X83864441Y-38532276D01*
X83703184Y-38920627D01*
X83702817Y-39341128D01*
X83863396Y-39729760D01*
X84035000Y-39901664D01*
X84035000Y-40373500D01*
X84074951Y-40574346D01*
X84090187Y-40650946D01*
X84247348Y-40886152D01*
X94944906Y-51583710D01*
X94944906Y-66530166D01*
X94988125Y-66747442D01*
X95000093Y-66807612D01*
X95157254Y-67042818D01*
X101657116Y-73542680D01*
X101892322Y-73699841D01*
X101938353Y-73708997D01*
X102169768Y-73755028D01*
X105935196Y-73755028D01*
X106585776Y-74405609D01*
X106548565Y-74495224D01*
X106548419Y-74662475D01*
X106215572Y-74524265D01*
X105608889Y-74523735D01*
X105048185Y-74755414D01*
X104618821Y-75184029D01*
X104386165Y-75744328D01*
X104385635Y-76351011D01*
X104617314Y-76911715D01*
X105045929Y-77341079D01*
X105606228Y-77573735D01*
X106212911Y-77574265D01*
X106548379Y-77435652D01*
X106548235Y-77601118D01*
X106624213Y-77785000D01*
X102730305Y-77785000D01*
X85965000Y-61019696D01*
X85965000Y-60565392D01*
X86297204Y-60703335D01*
X86474554Y-60703490D01*
X86646665Y-60875902D01*
X86995704Y-61020835D01*
X87373638Y-61021165D01*
X87722929Y-60876841D01*
X87990402Y-60609835D01*
X88135335Y-60260796D01*
X88135558Y-60005165D01*
X88135638Y-60005165D01*
X88484929Y-59860841D01*
X88752402Y-59593835D01*
X88797079Y-59486240D01*
X89119929Y-59352841D01*
X89387402Y-59085835D01*
X89532335Y-58736796D01*
X89532665Y-58358862D01*
X89388341Y-58009571D01*
X89121335Y-57742098D01*
X88772296Y-57597165D01*
X88394362Y-57596835D01*
X88045071Y-57741159D01*
X87852259Y-57933635D01*
X87787835Y-57869098D01*
X87438796Y-57724165D01*
X87060862Y-57723835D01*
X86711571Y-57868159D01*
X86444098Y-58135165D01*
X86299165Y-58484204D01*
X86298886Y-58803335D01*
X85965000Y-58941284D01*
X85965000Y-47070000D01*
X85909813Y-46792555D01*
X85806161Y-46637429D01*
X85752652Y-46557347D01*
X77025052Y-37829748D01*
X76544452Y-37349148D01*
X76309246Y-37191987D01*
X76263215Y-37182831D01*
X76124865Y-37155312D01*
X75936124Y-36966241D01*
X75547773Y-36804984D01*
X75127272Y-36804617D01*
X74738640Y-36965196D01*
X74701796Y-37001976D01*
X74666124Y-36966241D01*
X74277773Y-36804984D01*
X73857272Y-36804617D01*
X73468640Y-36965196D01*
X73431796Y-37001976D01*
X73396124Y-36966241D01*
X73007773Y-36804984D01*
X72587272Y-36804617D01*
X72198640Y-36965196D01*
X72161796Y-37001976D01*
X72126124Y-36966241D01*
X71737773Y-36804984D01*
X71317272Y-36804617D01*
X70928640Y-36965196D01*
X70891796Y-37001976D01*
X70856124Y-36966241D01*
X70467773Y-36804984D01*
X70047272Y-36804617D01*
X69658640Y-36965196D01*
X69621796Y-37001976D01*
X69586124Y-36966241D01*
X69197773Y-36804984D01*
X68777272Y-36804617D01*
X68388640Y-36965196D01*
X68351796Y-37001976D01*
X68316124Y-36966241D01*
X67927773Y-36804984D01*
X67507272Y-36804617D01*
X67118640Y-36965196D01*
X67081796Y-37001976D01*
X67046124Y-36966241D01*
X66657773Y-36804984D01*
X66237272Y-36804617D01*
X65848640Y-36965196D01*
X65811796Y-37001976D01*
X65776124Y-36966241D01*
X65387773Y-36804984D01*
X64967272Y-36804617D01*
X64578640Y-36965196D01*
X64541796Y-37001976D01*
X64506124Y-36966241D01*
X64117773Y-36804984D01*
X63697272Y-36804617D01*
X63308640Y-36965196D01*
X63271796Y-37001976D01*
X63236124Y-36966241D01*
X62847773Y-36804984D01*
X62427272Y-36804617D01*
X62038640Y-36965196D01*
X62001796Y-37001976D01*
X61966124Y-36966241D01*
X61577773Y-36804984D01*
X61157272Y-36804617D01*
X60768640Y-36965196D01*
X60731796Y-37001976D01*
X60696124Y-36966241D01*
X60307773Y-36804984D01*
X59887272Y-36804617D01*
X59498640Y-36965196D01*
X59461796Y-37001976D01*
X59426124Y-36966241D01*
X59037773Y-36804984D01*
X58617272Y-36804617D01*
X58228640Y-36965196D01*
X58191796Y-37001976D01*
X58156124Y-36966241D01*
X57767773Y-36804984D01*
X57347272Y-36804617D01*
X56958640Y-36965196D01*
X56921796Y-37001976D01*
X56886124Y-36966241D01*
X56497773Y-36804984D01*
X56077272Y-36804617D01*
X55688640Y-36965196D01*
X55651796Y-37001976D01*
X55616124Y-36966241D01*
X55227773Y-36804984D01*
X54807272Y-36804617D01*
X54418640Y-36965196D01*
X54381796Y-37001976D01*
X54346124Y-36966241D01*
X53957773Y-36804984D01*
X53537272Y-36804617D01*
X53148640Y-36965196D01*
X53111796Y-37001976D01*
X53076124Y-36966241D01*
X52687773Y-36804984D01*
X52267272Y-36804617D01*
X51878640Y-36965196D01*
X51841796Y-37001976D01*
X51806124Y-36966241D01*
X51417773Y-36804984D01*
X50997272Y-36804617D01*
X50608640Y-36965196D01*
X50311041Y-37262276D01*
X50149784Y-37650627D01*
X50149417Y-38071128D01*
X50309996Y-38459760D01*
X50346776Y-38496604D01*
X50311041Y-38532276D01*
X50149784Y-38920627D01*
X50149417Y-39341128D01*
X50309996Y-39729760D01*
X50607076Y-40027359D01*
X50995427Y-40188616D01*
X51415928Y-40188983D01*
X51501147Y-40153771D01*
X51500835Y-40510638D01*
X51645159Y-40859929D01*
X51912165Y-41127402D01*
X52261204Y-41272335D01*
X52639138Y-41272665D01*
X52988429Y-41128341D01*
X53085936Y-41031004D01*
X53182165Y-41127402D01*
X53531204Y-41272335D01*
X53909138Y-41272665D01*
X54258429Y-41128341D01*
X54355936Y-41031004D01*
X54452165Y-41127402D01*
X54801204Y-41272335D01*
X55179138Y-41272665D01*
X55528429Y-41128341D01*
X55625936Y-41031004D01*
X55722165Y-41127402D01*
X56071204Y-41272335D01*
X56449138Y-41272665D01*
X56798429Y-41128341D01*
X56895936Y-41031004D01*
X56992165Y-41127402D01*
X57341204Y-41272335D01*
X57719138Y-41272665D01*
X57802441Y-41238245D01*
X62014196Y-45450000D01*
X53341789Y-45450000D01*
X53449835Y-45189796D01*
X53450165Y-44811862D01*
X53305841Y-44462571D01*
X53038835Y-44195098D01*
X52689796Y-44050165D01*
X52681957Y-44050158D01*
X52682464Y-43468858D01*
X52275014Y-42482754D01*
X51521214Y-41727637D01*
X50535823Y-41318467D01*
X49468858Y-41317536D01*
X48482754Y-41724986D01*
X47727637Y-42478786D01*
X47318467Y-43464177D01*
X47318207Y-43761962D01*
X47289796Y-43750165D01*
X46911862Y-43749835D01*
X46725000Y-43827045D01*
X46725000Y-31975000D01*
X153275000Y-31975000D01*
X153275000Y-41950000D01*
G37*
G04 #@! TD.AperFunction*
X109260000Y-40260000D02*
X109328508Y-40604415D01*
X109523604Y-40896396D01*
X111773330Y-43146122D01*
X111813604Y-43206396D01*
X112105585Y-43401492D01*
X112450000Y-43470000D01*
X114262707Y-43470000D01*
X114250165Y-43500204D01*
X114249835Y-43878138D01*
X114394159Y-44227429D01*
X114661165Y-44494902D01*
X115010204Y-44639835D01*
X115388138Y-44640165D01*
X115737429Y-44495841D01*
X116004902Y-44228835D01*
X116149835Y-43879796D01*
X116150165Y-43501862D01*
X116137000Y-43470000D01*
X120013896Y-43470000D01*
X120139661Y-43554034D01*
X106985748Y-56707948D01*
X106828587Y-56943154D01*
X106820253Y-56985055D01*
X106773400Y-57220600D01*
X106773400Y-60466423D01*
X106693498Y-60546185D01*
X106548565Y-60895224D01*
X106548419Y-61062475D01*
X106215572Y-60924265D01*
X105608889Y-60923735D01*
X105048185Y-61155414D01*
X104618821Y-61584029D01*
X104386165Y-62144328D01*
X104385635Y-62751011D01*
X104617314Y-63311715D01*
X105045929Y-63741079D01*
X105606228Y-63973735D01*
X106212911Y-63974265D01*
X106548379Y-63835652D01*
X106548235Y-64001118D01*
X106692559Y-64350409D01*
X106856853Y-64514990D01*
X105697285Y-64514990D01*
X104184944Y-63002650D01*
X104184944Y-44862160D01*
X108858332Y-40188773D01*
X109099328Y-40188983D01*
X109260000Y-40122595D01*
X109260000Y-40260000D01*
G04 #@! TA.AperFunction,Conductor*
G36*
X109260000Y-40260000D02*
G01*
X109328508Y-40604415D01*
X109523604Y-40896396D01*
X111773330Y-43146122D01*
X111813604Y-43206396D01*
X112105585Y-43401492D01*
X112450000Y-43470000D01*
X114262707Y-43470000D01*
X114250165Y-43500204D01*
X114249835Y-43878138D01*
X114394159Y-44227429D01*
X114661165Y-44494902D01*
X115010204Y-44639835D01*
X115388138Y-44640165D01*
X115737429Y-44495841D01*
X116004902Y-44228835D01*
X116149835Y-43879796D01*
X116150165Y-43501862D01*
X116137000Y-43470000D01*
X120013896Y-43470000D01*
X120139661Y-43554034D01*
X106985748Y-56707948D01*
X106828587Y-56943154D01*
X106820253Y-56985055D01*
X106773400Y-57220600D01*
X106773400Y-60466423D01*
X106693498Y-60546185D01*
X106548565Y-60895224D01*
X106548419Y-61062475D01*
X106215572Y-60924265D01*
X105608889Y-60923735D01*
X105048185Y-61155414D01*
X104618821Y-61584029D01*
X104386165Y-62144328D01*
X104385635Y-62751011D01*
X104617314Y-63311715D01*
X105045929Y-63741079D01*
X105606228Y-63973735D01*
X106212911Y-63974265D01*
X106548379Y-63835652D01*
X106548235Y-64001118D01*
X106692559Y-64350409D01*
X106856853Y-64514990D01*
X105697285Y-64514990D01*
X104184944Y-63002650D01*
X104184944Y-44862160D01*
X108858332Y-40188773D01*
X109099328Y-40188983D01*
X109260000Y-40122595D01*
X109260000Y-40260000D01*
G37*
G04 #@! TD.AperFunction*
X110417555Y-37543770D02*
X110373184Y-37650627D01*
X110372817Y-38071128D01*
X110375081Y-38076607D01*
X110371173Y-38074984D01*
X109950672Y-38074617D01*
X109945193Y-38076881D01*
X109946816Y-38072973D01*
X109947183Y-37652472D01*
X109902320Y-37543895D01*
X110016104Y-37430112D01*
X110160000Y-37574008D01*
X110303897Y-37430112D01*
X110417555Y-37543770D01*
G04 #@! TA.AperFunction,Conductor*
G36*
X110417555Y-37543770D02*
G01*
X110373184Y-37650627D01*
X110372817Y-38071128D01*
X110375081Y-38076607D01*
X110371173Y-38074984D01*
X109950672Y-38074617D01*
X109945193Y-38076881D01*
X109946816Y-38072973D01*
X109947183Y-37652472D01*
X109902320Y-37543895D01*
X110016104Y-37430112D01*
X110160000Y-37574008D01*
X110303897Y-37430112D01*
X110417555Y-37543770D01*
G37*
G04 #@! TD.AperFunction*
X112957555Y-37543770D02*
X112913184Y-37650627D01*
X112912817Y-38071128D01*
X112915081Y-38076607D01*
X112911173Y-38074984D01*
X112490672Y-38074617D01*
X112485193Y-38076881D01*
X112486816Y-38072973D01*
X112487183Y-37652472D01*
X112442320Y-37543895D01*
X112556104Y-37430112D01*
X112700000Y-37574008D01*
X112843897Y-37430112D01*
X112957555Y-37543770D01*
G04 #@! TA.AperFunction,Conductor*
G36*
X112957555Y-37543770D02*
G01*
X112913184Y-37650627D01*
X112912817Y-38071128D01*
X112915081Y-38076607D01*
X112911173Y-38074984D01*
X112490672Y-38074617D01*
X112485193Y-38076881D01*
X112486816Y-38072973D01*
X112487183Y-37652472D01*
X112442320Y-37543895D01*
X112556104Y-37430112D01*
X112700000Y-37574008D01*
X112843897Y-37430112D01*
X112957555Y-37543770D01*
G37*
G04 #@! TD.AperFunction*
M02*
