G04 #@! TF.FileFunction,Other,Fab,Top*
%FSLAX46Y46*%
G04 Gerber Fmt 4.6, Leading zero omitted, Abs format (unit mm)*
G04 Created by KiCad (PCBNEW 4.0.1-stable) date 2017-04-28 7:38:59 AM*
%MOMM*%
G01*
G04 APERTURE LIST*
%ADD10C,0.100000*%
%ADD11C,0.101600*%
%ADD12C,0.150000*%
G04 APERTURE END LIST*
D10*
X55450000Y-45590000D02*
X55450000Y-55490000D01*
X61750000Y-45540000D02*
X54250000Y-45540000D01*
X54250000Y-45540000D02*
X54250000Y-55540000D01*
X54250000Y-55540000D02*
X61750000Y-55540000D01*
X61750000Y-55540000D02*
X61750000Y-45540000D01*
X144500000Y-65220000D02*
X144500000Y-63980000D01*
X146500000Y-65220000D02*
X144500000Y-65220000D01*
X146500000Y-63980000D02*
X146500000Y-65220000D01*
X144500000Y-63980000D02*
X146500000Y-63980000D01*
X133200000Y-44380000D02*
X133200000Y-45620000D01*
X131200000Y-44380000D02*
X133200000Y-44380000D01*
X131200000Y-45620000D02*
X131200000Y-44380000D01*
X133200000Y-45620000D02*
X131200000Y-45620000D01*
X49220000Y-59600000D02*
X47980000Y-59600000D01*
X49220000Y-57600000D02*
X49220000Y-59600000D01*
X47980000Y-57600000D02*
X49220000Y-57600000D01*
X47980000Y-59600000D02*
X47980000Y-57600000D01*
X65880000Y-78500000D02*
X67120000Y-78500000D01*
X65880000Y-80500000D02*
X65880000Y-78500000D01*
X67120000Y-80500000D02*
X65880000Y-80500000D01*
X67120000Y-78500000D02*
X67120000Y-80500000D01*
X68380000Y-78500000D02*
X69620000Y-78500000D01*
X68380000Y-80500000D02*
X68380000Y-78500000D01*
X69620000Y-80500000D02*
X68380000Y-80500000D01*
X69620000Y-78500000D02*
X69620000Y-80500000D01*
X52154066Y-44000000D02*
G75*
G03X52154066Y-44000000I-2154066J0D01*
G01*
X152154066Y-44000000D02*
G75*
G03X152154066Y-44000000I-2154066J0D01*
G01*
X152154066Y-84000000D02*
G75*
G03X152154066Y-84000000I-2154066J0D01*
G01*
X70154066Y-86000000D02*
G75*
G03X70154066Y-86000000I-2154066J0D01*
G01*
D11*
X120425448Y-45426548D02*
X120606876Y-45487024D01*
X120909257Y-45487024D01*
X121030210Y-45426548D01*
X121090686Y-45366071D01*
X121151162Y-45245119D01*
X121151162Y-45124167D01*
X121090686Y-45003214D01*
X121030210Y-44942738D01*
X120909257Y-44882262D01*
X120667353Y-44821786D01*
X120546400Y-44761310D01*
X120485924Y-44700833D01*
X120425448Y-44579881D01*
X120425448Y-44458929D01*
X120485924Y-44337976D01*
X120546400Y-44277500D01*
X120667353Y-44217024D01*
X120969733Y-44217024D01*
X121151162Y-44277500D01*
X122118781Y-44821786D02*
X121695448Y-44821786D01*
X121695448Y-45487024D02*
X121695448Y-44217024D01*
X122300210Y-44217024D01*
X122784019Y-45487024D02*
X122784019Y-44217024D01*
X123207352Y-45124167D01*
X123630686Y-44217024D01*
X123630686Y-45487024D01*
X124235448Y-45003214D02*
X125203067Y-45003214D01*
X126473067Y-45487024D02*
X125747353Y-45487024D01*
X126110210Y-45487024D02*
X126110210Y-44217024D01*
X125989258Y-44398452D01*
X125868305Y-44519405D01*
X125747353Y-44579881D01*
X127259258Y-44217024D02*
X127380210Y-44217024D01*
X127501162Y-44277500D01*
X127561639Y-44337976D01*
X127622115Y-44458929D01*
X127682591Y-44700833D01*
X127682591Y-45003214D01*
X127622115Y-45245119D01*
X127561639Y-45366071D01*
X127501162Y-45426548D01*
X127380210Y-45487024D01*
X127259258Y-45487024D01*
X127138305Y-45426548D01*
X127077829Y-45366071D01*
X127017353Y-45245119D01*
X126956877Y-45003214D01*
X126956877Y-44700833D01*
X127017353Y-44458929D01*
X127077829Y-44337976D01*
X127138305Y-44277500D01*
X127259258Y-44217024D01*
X128831639Y-44217024D02*
X128226877Y-44217024D01*
X128166401Y-44821786D01*
X128226877Y-44761310D01*
X128347829Y-44700833D01*
X128650210Y-44700833D01*
X128771163Y-44761310D01*
X128831639Y-44821786D01*
X128892115Y-44942738D01*
X128892115Y-45245119D01*
X128831639Y-45366071D01*
X128771163Y-45426548D01*
X128650210Y-45487024D01*
X128347829Y-45487024D01*
X128226877Y-45426548D01*
X128166401Y-45366071D01*
X129436401Y-45003214D02*
X130404020Y-45003214D01*
X131250687Y-44217024D02*
X131371639Y-44217024D01*
X131492591Y-44277500D01*
X131553068Y-44337976D01*
X131613544Y-44458929D01*
X131674020Y-44700833D01*
X131674020Y-45003214D01*
X131613544Y-45245119D01*
X131553068Y-45366071D01*
X131492591Y-45426548D01*
X131371639Y-45487024D01*
X131250687Y-45487024D01*
X131129734Y-45426548D01*
X131069258Y-45366071D01*
X131008782Y-45245119D01*
X130948306Y-45003214D01*
X130948306Y-44700833D01*
X131008782Y-44458929D01*
X131069258Y-44337976D01*
X131129734Y-44277500D01*
X131250687Y-44217024D01*
X132157830Y-44337976D02*
X132218306Y-44277500D01*
X132339258Y-44217024D01*
X132641639Y-44217024D01*
X132762592Y-44277500D01*
X132823068Y-44337976D01*
X132883544Y-44458929D01*
X132883544Y-44579881D01*
X132823068Y-44761310D01*
X132097354Y-45487024D01*
X132883544Y-45487024D01*
X133427830Y-45003214D02*
X134395449Y-45003214D01*
X135604973Y-45487024D02*
X135000211Y-45487024D01*
X135000211Y-44217024D01*
X136028306Y-45003214D02*
X136995925Y-45003214D01*
X137600687Y-45487024D02*
X137600687Y-44217024D01*
X137903068Y-44217024D01*
X138084496Y-44277500D01*
X138205449Y-44398452D01*
X138265925Y-44519405D01*
X138326401Y-44761310D01*
X138326401Y-44942738D01*
X138265925Y-45184643D01*
X138205449Y-45305595D01*
X138084496Y-45426548D01*
X137903068Y-45487024D01*
X137600687Y-45487024D01*
X138870687Y-45003214D02*
X139838306Y-45003214D01*
X140382592Y-45124167D02*
X140987354Y-45124167D01*
X140261639Y-45487024D02*
X140684973Y-44217024D01*
X141108306Y-45487024D01*
D12*
X54180953Y-89235381D02*
X53609524Y-89235381D01*
X53895238Y-89235381D02*
X53895238Y-88235381D01*
X53800000Y-88378238D01*
X53704762Y-88473476D01*
X53609524Y-88521095D01*
X54609524Y-89140143D02*
X54657143Y-89187762D01*
X54609524Y-89235381D01*
X54561905Y-89187762D01*
X54609524Y-89140143D01*
X54609524Y-89235381D01*
X55228571Y-88663952D02*
X55133333Y-88616333D01*
X55085714Y-88568714D01*
X55038095Y-88473476D01*
X55038095Y-88425857D01*
X55085714Y-88330619D01*
X55133333Y-88283000D01*
X55228571Y-88235381D01*
X55419048Y-88235381D01*
X55514286Y-88283000D01*
X55561905Y-88330619D01*
X55609524Y-88425857D01*
X55609524Y-88473476D01*
X55561905Y-88568714D01*
X55514286Y-88616333D01*
X55419048Y-88663952D01*
X55228571Y-88663952D01*
X55133333Y-88711571D01*
X55085714Y-88759190D01*
X55038095Y-88854429D01*
X55038095Y-89044905D01*
X55085714Y-89140143D01*
X55133333Y-89187762D01*
X55228571Y-89235381D01*
X55419048Y-89235381D01*
X55514286Y-89187762D01*
X55561905Y-89140143D01*
X55609524Y-89044905D01*
X55609524Y-88854429D01*
X55561905Y-88759190D01*
X55514286Y-88711571D01*
X55419048Y-88663952D01*
X56038095Y-89235381D02*
X56038095Y-88568714D01*
X56038095Y-88663952D02*
X56085714Y-88616333D01*
X56180952Y-88568714D01*
X56323810Y-88568714D01*
X56419048Y-88616333D01*
X56466667Y-88711571D01*
X56466667Y-89235381D01*
X56466667Y-88711571D02*
X56514286Y-88616333D01*
X56609524Y-88568714D01*
X56752381Y-88568714D01*
X56847619Y-88616333D01*
X56895238Y-88711571D01*
X56895238Y-89235381D01*
X57371428Y-89235381D02*
X57371428Y-88235381D01*
X57371428Y-88711571D02*
X57942857Y-88711571D01*
X57942857Y-89235381D02*
X57942857Y-88235381D01*
D11*
X54671885Y-40974324D02*
X55397600Y-40974324D01*
X55034743Y-42244324D02*
X55034743Y-40974324D01*
X56244266Y-41579086D02*
X55820933Y-41579086D01*
X55820933Y-42244324D02*
X55820933Y-40974324D01*
X56425695Y-40974324D01*
X56909504Y-42244324D02*
X56909504Y-40974324D01*
X57332837Y-41881467D01*
X57756171Y-40974324D01*
X57756171Y-42244324D01*
X58360933Y-41760514D02*
X59328552Y-41760514D01*
X60598552Y-42244324D02*
X59872838Y-42244324D01*
X60235695Y-42244324D02*
X60235695Y-40974324D01*
X60114743Y-41155752D01*
X59993790Y-41276705D01*
X59872838Y-41337181D01*
X61082362Y-41095276D02*
X61142838Y-41034800D01*
X61263790Y-40974324D01*
X61566171Y-40974324D01*
X61687124Y-41034800D01*
X61747600Y-41095276D01*
X61808076Y-41216229D01*
X61808076Y-41337181D01*
X61747600Y-41518610D01*
X61021886Y-42244324D01*
X61808076Y-42244324D01*
X62957124Y-40974324D02*
X62352362Y-40974324D01*
X62291886Y-41579086D01*
X62352362Y-41518610D01*
X62473314Y-41458133D01*
X62775695Y-41458133D01*
X62896648Y-41518610D01*
X62957124Y-41579086D01*
X63017600Y-41700038D01*
X63017600Y-42002419D01*
X62957124Y-42123371D01*
X62896648Y-42183848D01*
X62775695Y-42244324D01*
X62473314Y-42244324D01*
X62352362Y-42183848D01*
X62291886Y-42123371D01*
X63561886Y-41760514D02*
X64529505Y-41760514D01*
X65376172Y-40974324D02*
X65497124Y-40974324D01*
X65618076Y-41034800D01*
X65678553Y-41095276D01*
X65739029Y-41216229D01*
X65799505Y-41458133D01*
X65799505Y-41760514D01*
X65739029Y-42002419D01*
X65678553Y-42123371D01*
X65618076Y-42183848D01*
X65497124Y-42244324D01*
X65376172Y-42244324D01*
X65255219Y-42183848D01*
X65194743Y-42123371D01*
X65134267Y-42002419D01*
X65073791Y-41760514D01*
X65073791Y-41458133D01*
X65134267Y-41216229D01*
X65194743Y-41095276D01*
X65255219Y-41034800D01*
X65376172Y-40974324D01*
X66283315Y-41095276D02*
X66343791Y-41034800D01*
X66464743Y-40974324D01*
X66767124Y-40974324D01*
X66888077Y-41034800D01*
X66948553Y-41095276D01*
X67009029Y-41216229D01*
X67009029Y-41337181D01*
X66948553Y-41518610D01*
X66222839Y-42244324D01*
X67009029Y-42244324D01*
X67553315Y-41760514D02*
X68520934Y-41760514D01*
X69730458Y-42244324D02*
X69125696Y-42244324D01*
X69125696Y-40974324D01*
X70153791Y-41760514D02*
X71121410Y-41760514D01*
X71726172Y-42244324D02*
X71726172Y-40974324D01*
X72028553Y-40974324D01*
X72209981Y-41034800D01*
X72330934Y-41155752D01*
X72391410Y-41276705D01*
X72451886Y-41518610D01*
X72451886Y-41700038D01*
X72391410Y-41941943D01*
X72330934Y-42062895D01*
X72209981Y-42183848D01*
X72028553Y-42244324D01*
X71726172Y-42244324D01*
X72996172Y-42244324D02*
X72996172Y-40974324D01*
X72996172Y-41579086D02*
X73721886Y-41579086D01*
X73721886Y-42244324D02*
X73721886Y-40974324D01*
X128128685Y-40974324D02*
X128854400Y-40974324D01*
X128491543Y-42244324D02*
X128491543Y-40974324D01*
X129701066Y-41579086D02*
X129277733Y-41579086D01*
X129277733Y-42244324D02*
X129277733Y-40974324D01*
X129882495Y-40974324D01*
X130366304Y-42244324D02*
X130366304Y-40974324D01*
X130789637Y-41881467D01*
X131212971Y-40974324D01*
X131212971Y-42244324D01*
X131817733Y-41760514D02*
X132785352Y-41760514D01*
X134055352Y-42244324D02*
X133329638Y-42244324D01*
X133692495Y-42244324D02*
X133692495Y-40974324D01*
X133571543Y-41155752D01*
X133450590Y-41276705D01*
X133329638Y-41337181D01*
X134539162Y-41095276D02*
X134599638Y-41034800D01*
X134720590Y-40974324D01*
X135022971Y-40974324D01*
X135143924Y-41034800D01*
X135204400Y-41095276D01*
X135264876Y-41216229D01*
X135264876Y-41337181D01*
X135204400Y-41518610D01*
X134478686Y-42244324D01*
X135264876Y-42244324D01*
X136413924Y-40974324D02*
X135809162Y-40974324D01*
X135748686Y-41579086D01*
X135809162Y-41518610D01*
X135930114Y-41458133D01*
X136232495Y-41458133D01*
X136353448Y-41518610D01*
X136413924Y-41579086D01*
X136474400Y-41700038D01*
X136474400Y-42002419D01*
X136413924Y-42123371D01*
X136353448Y-42183848D01*
X136232495Y-42244324D01*
X135930114Y-42244324D01*
X135809162Y-42183848D01*
X135748686Y-42123371D01*
X137018686Y-41760514D02*
X137986305Y-41760514D01*
X138832972Y-40974324D02*
X138953924Y-40974324D01*
X139074876Y-41034800D01*
X139135353Y-41095276D01*
X139195829Y-41216229D01*
X139256305Y-41458133D01*
X139256305Y-41760514D01*
X139195829Y-42002419D01*
X139135353Y-42123371D01*
X139074876Y-42183848D01*
X138953924Y-42244324D01*
X138832972Y-42244324D01*
X138712019Y-42183848D01*
X138651543Y-42123371D01*
X138591067Y-42002419D01*
X138530591Y-41760514D01*
X138530591Y-41458133D01*
X138591067Y-41216229D01*
X138651543Y-41095276D01*
X138712019Y-41034800D01*
X138832972Y-40974324D01*
X139740115Y-41095276D02*
X139800591Y-41034800D01*
X139921543Y-40974324D01*
X140223924Y-40974324D01*
X140344877Y-41034800D01*
X140405353Y-41095276D01*
X140465829Y-41216229D01*
X140465829Y-41337181D01*
X140405353Y-41518610D01*
X139679639Y-42244324D01*
X140465829Y-42244324D01*
X141010115Y-41760514D02*
X141977734Y-41760514D01*
X143187258Y-42244324D02*
X142582496Y-42244324D01*
X142582496Y-40974324D01*
X143610591Y-41760514D02*
X144578210Y-41760514D01*
X145182972Y-42244324D02*
X145182972Y-40974324D01*
X145485353Y-40974324D01*
X145666781Y-41034800D01*
X145787734Y-41155752D01*
X145848210Y-41276705D01*
X145908686Y-41518610D01*
X145908686Y-41700038D01*
X145848210Y-41941943D01*
X145787734Y-42062895D01*
X145666781Y-42183848D01*
X145485353Y-42244324D01*
X145182972Y-42244324D01*
X146452972Y-42244324D02*
X146452972Y-40974324D01*
X146452972Y-41579086D02*
X147178686Y-41579086D01*
X147178686Y-42244324D02*
X147178686Y-40974324D01*
D12*
X143095239Y-65802381D02*
X143095239Y-66516667D01*
X143047619Y-66659524D01*
X142952381Y-66754762D01*
X142809524Y-66802381D01*
X142714286Y-66802381D01*
X143571429Y-65802381D02*
X143571429Y-66611905D01*
X143619048Y-66707143D01*
X143666667Y-66754762D01*
X143761905Y-66802381D01*
X143952382Y-66802381D01*
X144047620Y-66754762D01*
X144095239Y-66707143D01*
X144142858Y-66611905D01*
X144142858Y-65802381D01*
X144619048Y-66802381D02*
X144619048Y-65802381D01*
X144952382Y-66516667D01*
X145285715Y-65802381D01*
X145285715Y-66802381D01*
X145761905Y-66802381D02*
X145761905Y-65802381D01*
X146142858Y-65802381D01*
X146238096Y-65850000D01*
X146285715Y-65897619D01*
X146333334Y-65992857D01*
X146333334Y-66135714D01*
X146285715Y-66230952D01*
X146238096Y-66278571D01*
X146142858Y-66326190D01*
X145761905Y-66326190D01*
X146761905Y-66278571D02*
X147095239Y-66278571D01*
X147238096Y-66802381D02*
X146761905Y-66802381D01*
X146761905Y-65802381D01*
X147238096Y-65802381D01*
X148238096Y-66802381D02*
X147904762Y-66326190D01*
X147666667Y-66802381D02*
X147666667Y-65802381D01*
X148047620Y-65802381D01*
X148142858Y-65850000D01*
X148190477Y-65897619D01*
X148238096Y-65992857D01*
X148238096Y-66135714D01*
X148190477Y-66230952D01*
X148142858Y-66278571D01*
X148047620Y-66326190D01*
X147666667Y-66326190D01*
X147566667Y-64002381D02*
X147566667Y-64716667D01*
X147519047Y-64859524D01*
X147423809Y-64954762D01*
X147280952Y-65002381D01*
X147185714Y-65002381D01*
X148042857Y-65002381D02*
X148042857Y-64002381D01*
X148423810Y-64002381D01*
X148519048Y-64050000D01*
X148566667Y-64097619D01*
X148614286Y-64192857D01*
X148614286Y-64335714D01*
X148566667Y-64430952D01*
X148519048Y-64478571D01*
X148423810Y-64526190D01*
X148042857Y-64526190D01*
X149566667Y-65002381D02*
X148995238Y-65002381D01*
X149280952Y-65002381D02*
X149280952Y-64002381D01*
X149185714Y-64145238D01*
X149090476Y-64240476D01*
X148995238Y-64288095D01*
X129795239Y-42702381D02*
X129795239Y-43416667D01*
X129747619Y-43559524D01*
X129652381Y-43654762D01*
X129509524Y-43702381D01*
X129414286Y-43702381D01*
X130271429Y-42702381D02*
X130271429Y-43511905D01*
X130319048Y-43607143D01*
X130366667Y-43654762D01*
X130461905Y-43702381D01*
X130652382Y-43702381D01*
X130747620Y-43654762D01*
X130795239Y-43607143D01*
X130842858Y-43511905D01*
X130842858Y-42702381D01*
X131319048Y-43702381D02*
X131319048Y-42702381D01*
X131652382Y-43416667D01*
X131985715Y-42702381D01*
X131985715Y-43702381D01*
X132461905Y-43702381D02*
X132461905Y-42702381D01*
X132842858Y-42702381D01*
X132938096Y-42750000D01*
X132985715Y-42797619D01*
X133033334Y-42892857D01*
X133033334Y-43035714D01*
X132985715Y-43130952D01*
X132938096Y-43178571D01*
X132842858Y-43226190D01*
X132461905Y-43226190D01*
X133461905Y-43178571D02*
X133795239Y-43178571D01*
X133938096Y-43702381D02*
X133461905Y-43702381D01*
X133461905Y-42702381D01*
X133938096Y-42702381D01*
X134938096Y-43702381D02*
X134604762Y-43226190D01*
X134366667Y-43702381D02*
X134366667Y-42702381D01*
X134747620Y-42702381D01*
X134842858Y-42750000D01*
X134890477Y-42797619D01*
X134938096Y-42892857D01*
X134938096Y-43035714D01*
X134890477Y-43130952D01*
X134842858Y-43178571D01*
X134747620Y-43226190D01*
X134366667Y-43226190D01*
X128316667Y-44452381D02*
X128316667Y-45166667D01*
X128269047Y-45309524D01*
X128173809Y-45404762D01*
X128030952Y-45452381D01*
X127935714Y-45452381D01*
X128792857Y-45452381D02*
X128792857Y-44452381D01*
X129173810Y-44452381D01*
X129269048Y-44500000D01*
X129316667Y-44547619D01*
X129364286Y-44642857D01*
X129364286Y-44785714D01*
X129316667Y-44880952D01*
X129269048Y-44928571D01*
X129173810Y-44976190D01*
X128792857Y-44976190D01*
X129745238Y-44547619D02*
X129792857Y-44500000D01*
X129888095Y-44452381D01*
X130126191Y-44452381D01*
X130221429Y-44500000D01*
X130269048Y-44547619D01*
X130316667Y-44642857D01*
X130316667Y-44738095D01*
X130269048Y-44880952D01*
X129697619Y-45452381D01*
X130316667Y-45452381D01*
D11*
X90638285Y-41355324D02*
X91364000Y-41355324D01*
X91001143Y-42625324D02*
X91001143Y-41355324D01*
X92210666Y-41960086D02*
X91787333Y-41960086D01*
X91787333Y-42625324D02*
X91787333Y-41355324D01*
X92392095Y-41355324D01*
X92875904Y-42625324D02*
X92875904Y-41355324D01*
X93299237Y-42262467D01*
X93722571Y-41355324D01*
X93722571Y-42625324D01*
X94327333Y-42141514D02*
X95294952Y-42141514D01*
X96564952Y-42625324D02*
X95839238Y-42625324D01*
X96202095Y-42625324D02*
X96202095Y-41355324D01*
X96081143Y-41536752D01*
X95960190Y-41657705D01*
X95839238Y-41718181D01*
X97048762Y-41476276D02*
X97109238Y-41415800D01*
X97230190Y-41355324D01*
X97532571Y-41355324D01*
X97653524Y-41415800D01*
X97714000Y-41476276D01*
X97774476Y-41597229D01*
X97774476Y-41718181D01*
X97714000Y-41899610D01*
X96988286Y-42625324D01*
X97774476Y-42625324D01*
X98923524Y-41355324D02*
X98318762Y-41355324D01*
X98258286Y-41960086D01*
X98318762Y-41899610D01*
X98439714Y-41839133D01*
X98742095Y-41839133D01*
X98863048Y-41899610D01*
X98923524Y-41960086D01*
X98984000Y-42081038D01*
X98984000Y-42383419D01*
X98923524Y-42504371D01*
X98863048Y-42564848D01*
X98742095Y-42625324D01*
X98439714Y-42625324D01*
X98318762Y-42564848D01*
X98258286Y-42504371D01*
X99528286Y-42141514D02*
X100495905Y-42141514D01*
X101342572Y-41355324D02*
X101463524Y-41355324D01*
X101584476Y-41415800D01*
X101644953Y-41476276D01*
X101705429Y-41597229D01*
X101765905Y-41839133D01*
X101765905Y-42141514D01*
X101705429Y-42383419D01*
X101644953Y-42504371D01*
X101584476Y-42564848D01*
X101463524Y-42625324D01*
X101342572Y-42625324D01*
X101221619Y-42564848D01*
X101161143Y-42504371D01*
X101100667Y-42383419D01*
X101040191Y-42141514D01*
X101040191Y-41839133D01*
X101100667Y-41597229D01*
X101161143Y-41476276D01*
X101221619Y-41415800D01*
X101342572Y-41355324D01*
X102249715Y-41476276D02*
X102310191Y-41415800D01*
X102431143Y-41355324D01*
X102733524Y-41355324D01*
X102854477Y-41415800D01*
X102914953Y-41476276D01*
X102975429Y-41597229D01*
X102975429Y-41718181D01*
X102914953Y-41899610D01*
X102189239Y-42625324D01*
X102975429Y-42625324D01*
X103519715Y-42141514D02*
X104487334Y-42141514D01*
X105696858Y-42625324D02*
X105092096Y-42625324D01*
X105092096Y-41355324D01*
X106120191Y-42141514D02*
X107087810Y-42141514D01*
X107692572Y-42625324D02*
X107692572Y-41355324D01*
X107994953Y-41355324D01*
X108176381Y-41415800D01*
X108297334Y-41536752D01*
X108357810Y-41657705D01*
X108418286Y-41899610D01*
X108418286Y-42081038D01*
X108357810Y-42322943D01*
X108297334Y-42443895D01*
X108176381Y-42564848D01*
X107994953Y-42625324D01*
X107692572Y-42625324D01*
X108962572Y-42625324D02*
X108962572Y-41355324D01*
X108962572Y-41960086D02*
X109688286Y-41960086D01*
X109688286Y-42625324D02*
X109688286Y-41355324D01*
D12*
X49057143Y-56066666D02*
X49104762Y-56114285D01*
X49152381Y-56257142D01*
X49152381Y-56352380D01*
X49104762Y-56495238D01*
X49009524Y-56590476D01*
X48914286Y-56638095D01*
X48723810Y-56685714D01*
X48580952Y-56685714D01*
X48390476Y-56638095D01*
X48295238Y-56590476D01*
X48200000Y-56495238D01*
X48152381Y-56352380D01*
X48152381Y-56257142D01*
X48200000Y-56114285D01*
X48247619Y-56066666D01*
X49152381Y-55114285D02*
X49152381Y-55685714D01*
X49152381Y-55400000D02*
X48152381Y-55400000D01*
X48295238Y-55495238D01*
X48390476Y-55590476D01*
X48438095Y-55685714D01*
X64952381Y-81142857D02*
X64952381Y-81047618D01*
X65000000Y-80952380D01*
X65047619Y-80904761D01*
X65142857Y-80857142D01*
X65333333Y-80809523D01*
X65571429Y-80809523D01*
X65761905Y-80857142D01*
X65857143Y-80904761D01*
X65904762Y-80952380D01*
X65952381Y-81047618D01*
X65952381Y-81142857D01*
X65904762Y-81238095D01*
X65857143Y-81285714D01*
X65761905Y-81333333D01*
X65571429Y-81380952D01*
X65333333Y-81380952D01*
X65142857Y-81333333D01*
X65047619Y-81285714D01*
X65000000Y-81238095D01*
X64952381Y-81142857D01*
X65857143Y-80380952D02*
X65904762Y-80333333D01*
X65952381Y-80380952D01*
X65904762Y-80428571D01*
X65857143Y-80380952D01*
X65952381Y-80380952D01*
X65952381Y-79380952D02*
X65952381Y-79952381D01*
X65952381Y-79666667D02*
X64952381Y-79666667D01*
X65095238Y-79761905D01*
X65190476Y-79857143D01*
X65238095Y-79952381D01*
X65285714Y-78523809D02*
X65952381Y-78523809D01*
X65285714Y-78952381D02*
X65809524Y-78952381D01*
X65904762Y-78904762D01*
X65952381Y-78809524D01*
X65952381Y-78666666D01*
X65904762Y-78571428D01*
X65857143Y-78523809D01*
X65428571Y-77714285D02*
X65428571Y-78047619D01*
X65952381Y-78047619D02*
X64952381Y-78047619D01*
X64952381Y-77571428D01*
X66857143Y-76666666D02*
X66904762Y-76714285D01*
X66952381Y-76857142D01*
X66952381Y-76952380D01*
X66904762Y-77095238D01*
X66809524Y-77190476D01*
X66714286Y-77238095D01*
X66523810Y-77285714D01*
X66380952Y-77285714D01*
X66190476Y-77238095D01*
X66095238Y-77190476D01*
X66000000Y-77095238D01*
X65952381Y-76952380D01*
X65952381Y-76857142D01*
X66000000Y-76714285D01*
X66047619Y-76666666D01*
X66047619Y-76285714D02*
X66000000Y-76238095D01*
X65952381Y-76142857D01*
X65952381Y-75904761D01*
X66000000Y-75809523D01*
X66047619Y-75761904D01*
X66142857Y-75714285D01*
X66238095Y-75714285D01*
X66380952Y-75761904D01*
X66952381Y-76333333D01*
X66952381Y-75714285D01*
X67052381Y-81142857D02*
X67052381Y-81047618D01*
X67100000Y-80952380D01*
X67147619Y-80904761D01*
X67242857Y-80857142D01*
X67433333Y-80809523D01*
X67671429Y-80809523D01*
X67861905Y-80857142D01*
X67957143Y-80904761D01*
X68004762Y-80952380D01*
X68052381Y-81047618D01*
X68052381Y-81142857D01*
X68004762Y-81238095D01*
X67957143Y-81285714D01*
X67861905Y-81333333D01*
X67671429Y-81380952D01*
X67433333Y-81380952D01*
X67242857Y-81333333D01*
X67147619Y-81285714D01*
X67100000Y-81238095D01*
X67052381Y-81142857D01*
X67957143Y-80380952D02*
X68004762Y-80333333D01*
X68052381Y-80380952D01*
X68004762Y-80428571D01*
X67957143Y-80380952D01*
X68052381Y-80380952D01*
X68052381Y-79380952D02*
X68052381Y-79952381D01*
X68052381Y-79666667D02*
X67052381Y-79666667D01*
X67195238Y-79761905D01*
X67290476Y-79857143D01*
X67338095Y-79952381D01*
X67385714Y-78523809D02*
X68052381Y-78523809D01*
X67385714Y-78952381D02*
X67909524Y-78952381D01*
X68004762Y-78904762D01*
X68052381Y-78809524D01*
X68052381Y-78666666D01*
X68004762Y-78571428D01*
X67957143Y-78523809D01*
X67528571Y-77714285D02*
X67528571Y-78047619D01*
X68052381Y-78047619D02*
X67052381Y-78047619D01*
X67052381Y-77571428D01*
X69357143Y-76666666D02*
X69404762Y-76714285D01*
X69452381Y-76857142D01*
X69452381Y-76952380D01*
X69404762Y-77095238D01*
X69309524Y-77190476D01*
X69214286Y-77238095D01*
X69023810Y-77285714D01*
X68880952Y-77285714D01*
X68690476Y-77238095D01*
X68595238Y-77190476D01*
X68500000Y-77095238D01*
X68452381Y-76952380D01*
X68452381Y-76857142D01*
X68500000Y-76714285D01*
X68547619Y-76666666D01*
X68452381Y-76333333D02*
X68452381Y-75714285D01*
X68833333Y-76047619D01*
X68833333Y-75904761D01*
X68880952Y-75809523D01*
X68928571Y-75761904D01*
X69023810Y-75714285D01*
X69261905Y-75714285D01*
X69357143Y-75761904D01*
X69404762Y-75809523D01*
X69452381Y-75904761D01*
X69452381Y-76190476D01*
X69404762Y-76285714D01*
X69357143Y-76333333D01*
X89152381Y-59200000D02*
X88152381Y-59200000D01*
X88152381Y-58961905D01*
X88200000Y-58819047D01*
X88295238Y-58723809D01*
X88390476Y-58676190D01*
X88580952Y-58628571D01*
X88723810Y-58628571D01*
X88914286Y-58676190D01*
X89009524Y-58723809D01*
X89104762Y-58819047D01*
X89152381Y-58961905D01*
X89152381Y-59200000D01*
X88247619Y-58247619D02*
X88200000Y-58200000D01*
X88152381Y-58104762D01*
X88152381Y-57866666D01*
X88200000Y-57771428D01*
X88247619Y-57723809D01*
X88342857Y-57676190D01*
X88438095Y-57676190D01*
X88580952Y-57723809D01*
X89152381Y-58295238D01*
X89152381Y-57676190D01*
X88485714Y-56819047D02*
X89152381Y-56819047D01*
X88104762Y-57057143D02*
X88819048Y-57295238D01*
X88819048Y-56676190D01*
X88152381Y-56438095D02*
X89152381Y-56104762D01*
X88152381Y-55771428D01*
X88247619Y-55485714D02*
X88200000Y-55438095D01*
X88152381Y-55342857D01*
X88152381Y-55104761D01*
X88200000Y-55009523D01*
X88247619Y-54961904D01*
X88342857Y-54914285D01*
X88438095Y-54914285D01*
X88580952Y-54961904D01*
X89152381Y-55533333D01*
X89152381Y-54914285D01*
X88247619Y-54533333D02*
X88200000Y-54485714D01*
X88152381Y-54390476D01*
X88152381Y-54152380D01*
X88200000Y-54057142D01*
X88247619Y-54009523D01*
X88342857Y-53961904D01*
X88438095Y-53961904D01*
X88580952Y-54009523D01*
X89152381Y-54580952D01*
X89152381Y-53961904D01*
X88628571Y-53199999D02*
X88628571Y-53533333D01*
X89152381Y-53533333D02*
X88152381Y-53533333D01*
X88152381Y-53057142D01*
X88152381Y-52771428D02*
X88152381Y-52152380D01*
X88533333Y-52485714D01*
X88533333Y-52342856D01*
X88580952Y-52247618D01*
X88628571Y-52199999D01*
X88723810Y-52152380D01*
X88961905Y-52152380D01*
X89057143Y-52199999D01*
X89104762Y-52247618D01*
X89152381Y-52342856D01*
X89152381Y-52628571D01*
X89104762Y-52723809D01*
X89057143Y-52771428D01*
D11*
X112457448Y-59026048D02*
X112638876Y-59086524D01*
X112941257Y-59086524D01*
X113062210Y-59026048D01*
X113122686Y-58965571D01*
X113183162Y-58844619D01*
X113183162Y-58723667D01*
X113122686Y-58602714D01*
X113062210Y-58542238D01*
X112941257Y-58481762D01*
X112699353Y-58421286D01*
X112578400Y-58360810D01*
X112517924Y-58300333D01*
X112457448Y-58179381D01*
X112457448Y-58058429D01*
X112517924Y-57937476D01*
X112578400Y-57877000D01*
X112699353Y-57816524D01*
X113001733Y-57816524D01*
X113183162Y-57877000D01*
X114150781Y-58421286D02*
X113727448Y-58421286D01*
X113727448Y-59086524D02*
X113727448Y-57816524D01*
X114332210Y-57816524D01*
X114816019Y-59086524D02*
X114816019Y-57816524D01*
X115239352Y-58723667D01*
X115662686Y-57816524D01*
X115662686Y-59086524D01*
X116267448Y-58602714D02*
X117235067Y-58602714D01*
X118505067Y-59086524D02*
X117779353Y-59086524D01*
X118142210Y-59086524D02*
X118142210Y-57816524D01*
X118021258Y-57997952D01*
X117900305Y-58118905D01*
X117779353Y-58179381D01*
X118988877Y-57937476D02*
X119049353Y-57877000D01*
X119170305Y-57816524D01*
X119472686Y-57816524D01*
X119593639Y-57877000D01*
X119654115Y-57937476D01*
X119714591Y-58058429D01*
X119714591Y-58179381D01*
X119654115Y-58360810D01*
X118928401Y-59086524D01*
X119714591Y-59086524D01*
X120863639Y-57816524D02*
X120258877Y-57816524D01*
X120198401Y-58421286D01*
X120258877Y-58360810D01*
X120379829Y-58300333D01*
X120682210Y-58300333D01*
X120803163Y-58360810D01*
X120863639Y-58421286D01*
X120924115Y-58542238D01*
X120924115Y-58844619D01*
X120863639Y-58965571D01*
X120803163Y-59026048D01*
X120682210Y-59086524D01*
X120379829Y-59086524D01*
X120258877Y-59026048D01*
X120198401Y-58965571D01*
X121468401Y-58602714D02*
X122436020Y-58602714D01*
X123282687Y-57816524D02*
X123403639Y-57816524D01*
X123524591Y-57877000D01*
X123585068Y-57937476D01*
X123645544Y-58058429D01*
X123706020Y-58300333D01*
X123706020Y-58602714D01*
X123645544Y-58844619D01*
X123585068Y-58965571D01*
X123524591Y-59026048D01*
X123403639Y-59086524D01*
X123282687Y-59086524D01*
X123161734Y-59026048D01*
X123101258Y-58965571D01*
X123040782Y-58844619D01*
X122980306Y-58602714D01*
X122980306Y-58300333D01*
X123040782Y-58058429D01*
X123101258Y-57937476D01*
X123161734Y-57877000D01*
X123282687Y-57816524D01*
X124189830Y-57937476D02*
X124250306Y-57877000D01*
X124371258Y-57816524D01*
X124673639Y-57816524D01*
X124794592Y-57877000D01*
X124855068Y-57937476D01*
X124915544Y-58058429D01*
X124915544Y-58179381D01*
X124855068Y-58360810D01*
X124129354Y-59086524D01*
X124915544Y-59086524D01*
X125459830Y-58602714D02*
X126427449Y-58602714D01*
X127636973Y-59086524D02*
X127032211Y-59086524D01*
X127032211Y-57816524D01*
X128060306Y-58602714D02*
X129027925Y-58602714D01*
X129632687Y-59086524D02*
X129632687Y-57816524D01*
X129935068Y-57816524D01*
X130116496Y-57877000D01*
X130237449Y-57997952D01*
X130297925Y-58118905D01*
X130358401Y-58360810D01*
X130358401Y-58542238D01*
X130297925Y-58784143D01*
X130237449Y-58905095D01*
X130116496Y-59026048D01*
X129935068Y-59086524D01*
X129632687Y-59086524D01*
X130902687Y-58602714D02*
X131870306Y-58602714D01*
X132414592Y-58723667D02*
X133019354Y-58723667D01*
X132293639Y-59086524D02*
X132716973Y-57816524D01*
X133140306Y-59086524D01*
X112457448Y-72626048D02*
X112638876Y-72686524D01*
X112941257Y-72686524D01*
X113062210Y-72626048D01*
X113122686Y-72565571D01*
X113183162Y-72444619D01*
X113183162Y-72323667D01*
X113122686Y-72202714D01*
X113062210Y-72142238D01*
X112941257Y-72081762D01*
X112699353Y-72021286D01*
X112578400Y-71960810D01*
X112517924Y-71900333D01*
X112457448Y-71779381D01*
X112457448Y-71658429D01*
X112517924Y-71537476D01*
X112578400Y-71477000D01*
X112699353Y-71416524D01*
X113001733Y-71416524D01*
X113183162Y-71477000D01*
X114150781Y-72021286D02*
X113727448Y-72021286D01*
X113727448Y-72686524D02*
X113727448Y-71416524D01*
X114332210Y-71416524D01*
X114816019Y-72686524D02*
X114816019Y-71416524D01*
X115239352Y-72323667D01*
X115662686Y-71416524D01*
X115662686Y-72686524D01*
X116267448Y-72202714D02*
X117235067Y-72202714D01*
X118505067Y-72686524D02*
X117779353Y-72686524D01*
X118142210Y-72686524D02*
X118142210Y-71416524D01*
X118021258Y-71597952D01*
X117900305Y-71718905D01*
X117779353Y-71779381D01*
X118988877Y-71537476D02*
X119049353Y-71477000D01*
X119170305Y-71416524D01*
X119472686Y-71416524D01*
X119593639Y-71477000D01*
X119654115Y-71537476D01*
X119714591Y-71658429D01*
X119714591Y-71779381D01*
X119654115Y-71960810D01*
X118928401Y-72686524D01*
X119714591Y-72686524D01*
X120863639Y-71416524D02*
X120258877Y-71416524D01*
X120198401Y-72021286D01*
X120258877Y-71960810D01*
X120379829Y-71900333D01*
X120682210Y-71900333D01*
X120803163Y-71960810D01*
X120863639Y-72021286D01*
X120924115Y-72142238D01*
X120924115Y-72444619D01*
X120863639Y-72565571D01*
X120803163Y-72626048D01*
X120682210Y-72686524D01*
X120379829Y-72686524D01*
X120258877Y-72626048D01*
X120198401Y-72565571D01*
X121468401Y-72202714D02*
X122436020Y-72202714D01*
X123282687Y-71416524D02*
X123403639Y-71416524D01*
X123524591Y-71477000D01*
X123585068Y-71537476D01*
X123645544Y-71658429D01*
X123706020Y-71900333D01*
X123706020Y-72202714D01*
X123645544Y-72444619D01*
X123585068Y-72565571D01*
X123524591Y-72626048D01*
X123403639Y-72686524D01*
X123282687Y-72686524D01*
X123161734Y-72626048D01*
X123101258Y-72565571D01*
X123040782Y-72444619D01*
X122980306Y-72202714D01*
X122980306Y-71900333D01*
X123040782Y-71658429D01*
X123101258Y-71537476D01*
X123161734Y-71477000D01*
X123282687Y-71416524D01*
X124189830Y-71537476D02*
X124250306Y-71477000D01*
X124371258Y-71416524D01*
X124673639Y-71416524D01*
X124794592Y-71477000D01*
X124855068Y-71537476D01*
X124915544Y-71658429D01*
X124915544Y-71779381D01*
X124855068Y-71960810D01*
X124129354Y-72686524D01*
X124915544Y-72686524D01*
X125459830Y-72202714D02*
X126427449Y-72202714D01*
X127636973Y-72686524D02*
X127032211Y-72686524D01*
X127032211Y-71416524D01*
X128060306Y-72202714D02*
X129027925Y-72202714D01*
X129632687Y-72686524D02*
X129632687Y-71416524D01*
X129935068Y-71416524D01*
X130116496Y-71477000D01*
X130237449Y-71597952D01*
X130297925Y-71718905D01*
X130358401Y-71960810D01*
X130358401Y-72142238D01*
X130297925Y-72384143D01*
X130237449Y-72505095D01*
X130116496Y-72626048D01*
X129935068Y-72686524D01*
X129632687Y-72686524D01*
X130902687Y-72202714D02*
X131870306Y-72202714D01*
X132414592Y-72323667D02*
X133019354Y-72323667D01*
X132293639Y-72686524D02*
X132716973Y-71416524D01*
X133140306Y-72686524D01*
X112457448Y-86226048D02*
X112638876Y-86286524D01*
X112941257Y-86286524D01*
X113062210Y-86226048D01*
X113122686Y-86165571D01*
X113183162Y-86044619D01*
X113183162Y-85923667D01*
X113122686Y-85802714D01*
X113062210Y-85742238D01*
X112941257Y-85681762D01*
X112699353Y-85621286D01*
X112578400Y-85560810D01*
X112517924Y-85500333D01*
X112457448Y-85379381D01*
X112457448Y-85258429D01*
X112517924Y-85137476D01*
X112578400Y-85077000D01*
X112699353Y-85016524D01*
X113001733Y-85016524D01*
X113183162Y-85077000D01*
X114150781Y-85621286D02*
X113727448Y-85621286D01*
X113727448Y-86286524D02*
X113727448Y-85016524D01*
X114332210Y-85016524D01*
X114816019Y-86286524D02*
X114816019Y-85016524D01*
X115239352Y-85923667D01*
X115662686Y-85016524D01*
X115662686Y-86286524D01*
X116267448Y-85802714D02*
X117235067Y-85802714D01*
X118505067Y-86286524D02*
X117779353Y-86286524D01*
X118142210Y-86286524D02*
X118142210Y-85016524D01*
X118021258Y-85197952D01*
X117900305Y-85318905D01*
X117779353Y-85379381D01*
X118988877Y-85137476D02*
X119049353Y-85077000D01*
X119170305Y-85016524D01*
X119472686Y-85016524D01*
X119593639Y-85077000D01*
X119654115Y-85137476D01*
X119714591Y-85258429D01*
X119714591Y-85379381D01*
X119654115Y-85560810D01*
X118928401Y-86286524D01*
X119714591Y-86286524D01*
X120863639Y-85016524D02*
X120258877Y-85016524D01*
X120198401Y-85621286D01*
X120258877Y-85560810D01*
X120379829Y-85500333D01*
X120682210Y-85500333D01*
X120803163Y-85560810D01*
X120863639Y-85621286D01*
X120924115Y-85742238D01*
X120924115Y-86044619D01*
X120863639Y-86165571D01*
X120803163Y-86226048D01*
X120682210Y-86286524D01*
X120379829Y-86286524D01*
X120258877Y-86226048D01*
X120198401Y-86165571D01*
X121468401Y-85802714D02*
X122436020Y-85802714D01*
X123282687Y-85016524D02*
X123403639Y-85016524D01*
X123524591Y-85077000D01*
X123585068Y-85137476D01*
X123645544Y-85258429D01*
X123706020Y-85500333D01*
X123706020Y-85802714D01*
X123645544Y-86044619D01*
X123585068Y-86165571D01*
X123524591Y-86226048D01*
X123403639Y-86286524D01*
X123282687Y-86286524D01*
X123161734Y-86226048D01*
X123101258Y-86165571D01*
X123040782Y-86044619D01*
X122980306Y-85802714D01*
X122980306Y-85500333D01*
X123040782Y-85258429D01*
X123101258Y-85137476D01*
X123161734Y-85077000D01*
X123282687Y-85016524D01*
X124189830Y-85137476D02*
X124250306Y-85077000D01*
X124371258Y-85016524D01*
X124673639Y-85016524D01*
X124794592Y-85077000D01*
X124855068Y-85137476D01*
X124915544Y-85258429D01*
X124915544Y-85379381D01*
X124855068Y-85560810D01*
X124129354Y-86286524D01*
X124915544Y-86286524D01*
X125459830Y-85802714D02*
X126427449Y-85802714D01*
X127636973Y-86286524D02*
X127032211Y-86286524D01*
X127032211Y-85016524D01*
X128060306Y-85802714D02*
X129027925Y-85802714D01*
X129632687Y-86286524D02*
X129632687Y-85016524D01*
X129935068Y-85016524D01*
X130116496Y-85077000D01*
X130237449Y-85197952D01*
X130297925Y-85318905D01*
X130358401Y-85560810D01*
X130358401Y-85742238D01*
X130297925Y-85984143D01*
X130237449Y-86105095D01*
X130116496Y-86226048D01*
X129935068Y-86286524D01*
X129632687Y-86286524D01*
X130902687Y-85802714D02*
X131870306Y-85802714D01*
X132414592Y-85923667D02*
X133019354Y-85923667D01*
X132293639Y-86286524D02*
X132716973Y-85016524D01*
X133140306Y-86286524D01*
M02*
