G04 #@! TF.FileFunction,Legend,Top*
%FSLAX46Y46*%
G04 Gerber Fmt 4.6, Leading zero omitted, Abs format (unit mm)*
G04 Created by KiCad (PCBNEW 4.0.6) date 09/19/17 09:44:05*
%MOMM*%
%LPD*%
G01*
G04 APERTURE LIST*
%ADD10C,0.100000*%
%ADD11C,0.300000*%
%ADD12C,0.200000*%
%ADD13C,0.150000*%
%ADD14C,0.066040*%
%ADD15C,0.127000*%
%ADD16C,0.120000*%
%ADD17C,0.101600*%
G04 APERTURE END LIST*
D10*
D11*
X50357143Y-52500000D02*
X50214286Y-52428571D01*
X50000000Y-52428571D01*
X49785715Y-52500000D01*
X49642857Y-52642857D01*
X49571429Y-52785714D01*
X49500000Y-53071429D01*
X49500000Y-53285714D01*
X49571429Y-53571429D01*
X49642857Y-53714286D01*
X49785715Y-53857143D01*
X50000000Y-53928571D01*
X50142857Y-53928571D01*
X50357143Y-53857143D01*
X50428572Y-53785714D01*
X50428572Y-53285714D01*
X50142857Y-53285714D01*
X51071429Y-53928571D02*
X51071429Y-52428571D01*
X51928572Y-53928571D01*
X51928572Y-52428571D01*
X52642858Y-53928571D02*
X52642858Y-52428571D01*
X53000001Y-52428571D01*
X53214286Y-52500000D01*
X53357144Y-52642857D01*
X53428572Y-52785714D01*
X53500001Y-53071429D01*
X53500001Y-53285714D01*
X53428572Y-53571429D01*
X53357144Y-53714286D01*
X53214286Y-53857143D01*
X53000001Y-53928571D01*
X52642858Y-53928571D01*
X48207144Y-48307143D02*
X49350001Y-48307143D01*
X48778572Y-48878571D02*
X48778572Y-47735714D01*
X50850001Y-48878571D02*
X49992858Y-48878571D01*
X50421430Y-48878571D02*
X50421430Y-47378571D01*
X50278573Y-47592857D01*
X50135715Y-47735714D01*
X49992858Y-47807143D01*
X51421429Y-47521429D02*
X51492858Y-47450000D01*
X51635715Y-47378571D01*
X51992858Y-47378571D01*
X52135715Y-47450000D01*
X52207144Y-47521429D01*
X52278572Y-47664286D01*
X52278572Y-47807143D01*
X52207144Y-48021429D01*
X51350001Y-48878571D01*
X52278572Y-48878571D01*
X52707143Y-47378571D02*
X53207143Y-48878571D01*
X53707143Y-47378571D01*
X111307142Y-96603571D02*
X111307142Y-95103571D01*
X111949999Y-96603571D02*
X111949999Y-95817857D01*
X111878570Y-95675000D01*
X111735713Y-95603571D01*
X111521428Y-95603571D01*
X111378570Y-95675000D01*
X111307142Y-95746429D01*
X112449999Y-95603571D02*
X113021428Y-95603571D01*
X112664285Y-95103571D02*
X112664285Y-96389286D01*
X112735713Y-96532143D01*
X112878571Y-96603571D01*
X113021428Y-96603571D01*
X113307142Y-95603571D02*
X113878571Y-95603571D01*
X113521428Y-95103571D02*
X113521428Y-96389286D01*
X113592856Y-96532143D01*
X113735714Y-96603571D01*
X113878571Y-96603571D01*
X114378571Y-95603571D02*
X114378571Y-97103571D01*
X114378571Y-95675000D02*
X114521428Y-95603571D01*
X114807142Y-95603571D01*
X114949999Y-95675000D01*
X115021428Y-95746429D01*
X115092857Y-95889286D01*
X115092857Y-96317857D01*
X115021428Y-96460714D01*
X114949999Y-96532143D01*
X114807142Y-96603571D01*
X114521428Y-96603571D01*
X114378571Y-96532143D01*
X115735714Y-96460714D02*
X115807142Y-96532143D01*
X115735714Y-96603571D01*
X115664285Y-96532143D01*
X115735714Y-96460714D01*
X115735714Y-96603571D01*
X115735714Y-95675000D02*
X115807142Y-95746429D01*
X115735714Y-95817857D01*
X115664285Y-95746429D01*
X115735714Y-95675000D01*
X115735714Y-95817857D01*
X117521428Y-95032143D02*
X116235714Y-96960714D01*
X119092857Y-95032143D02*
X117807143Y-96960714D01*
X119521429Y-96532143D02*
X119664286Y-96603571D01*
X119950001Y-96603571D01*
X120092858Y-96532143D01*
X120164286Y-96389286D01*
X120164286Y-96317857D01*
X120092858Y-96175000D01*
X119950001Y-96103571D01*
X119735715Y-96103571D01*
X119592858Y-96032143D01*
X119521429Y-95889286D01*
X119521429Y-95817857D01*
X119592858Y-95675000D01*
X119735715Y-95603571D01*
X119950001Y-95603571D01*
X120092858Y-95675000D01*
X121450001Y-96532143D02*
X121307144Y-96603571D01*
X121021430Y-96603571D01*
X120878572Y-96532143D01*
X120807144Y-96460714D01*
X120735715Y-96317857D01*
X120735715Y-95889286D01*
X120807144Y-95746429D01*
X120878572Y-95675000D01*
X121021430Y-95603571D01*
X121307144Y-95603571D01*
X121450001Y-95675000D01*
X122092858Y-96603571D02*
X122092858Y-95603571D01*
X122092858Y-95103571D02*
X122021429Y-95175000D01*
X122092858Y-95246429D01*
X122164286Y-95175000D01*
X122092858Y-95103571D01*
X122092858Y-95246429D01*
X122807144Y-96032143D02*
X123950001Y-96032143D01*
X124664287Y-96603571D02*
X124664287Y-95103571D01*
X124664287Y-95675000D02*
X124807144Y-95603571D01*
X125092858Y-95603571D01*
X125235715Y-95675000D01*
X125307144Y-95746429D01*
X125378573Y-95889286D01*
X125378573Y-96317857D01*
X125307144Y-96460714D01*
X125235715Y-96532143D01*
X125092858Y-96603571D01*
X124807144Y-96603571D01*
X124664287Y-96532143D01*
X126235716Y-96603571D02*
X126092858Y-96532143D01*
X126021430Y-96460714D01*
X125950001Y-96317857D01*
X125950001Y-95889286D01*
X126021430Y-95746429D01*
X126092858Y-95675000D01*
X126235716Y-95603571D01*
X126450001Y-95603571D01*
X126592858Y-95675000D01*
X126664287Y-95746429D01*
X126735716Y-95889286D01*
X126735716Y-96317857D01*
X126664287Y-96460714D01*
X126592858Y-96532143D01*
X126450001Y-96603571D01*
X126235716Y-96603571D01*
X127164287Y-95603571D02*
X127735716Y-95603571D01*
X127378573Y-95103571D02*
X127378573Y-96389286D01*
X127450001Y-96532143D01*
X127592859Y-96603571D01*
X127735716Y-96603571D01*
X128164287Y-96532143D02*
X128307144Y-96603571D01*
X128592859Y-96603571D01*
X128735716Y-96532143D01*
X128807144Y-96389286D01*
X128807144Y-96317857D01*
X128735716Y-96175000D01*
X128592859Y-96103571D01*
X128378573Y-96103571D01*
X128235716Y-96032143D01*
X128164287Y-95889286D01*
X128164287Y-95817857D01*
X128235716Y-95675000D01*
X128378573Y-95603571D01*
X128592859Y-95603571D01*
X128735716Y-95675000D01*
X129450002Y-96460714D02*
X129521430Y-96532143D01*
X129450002Y-96603571D01*
X129378573Y-96532143D01*
X129450002Y-96460714D01*
X129450002Y-96603571D01*
X130807145Y-96532143D02*
X130664288Y-96603571D01*
X130378574Y-96603571D01*
X130235716Y-96532143D01*
X130164288Y-96460714D01*
X130092859Y-96317857D01*
X130092859Y-95889286D01*
X130164288Y-95746429D01*
X130235716Y-95675000D01*
X130378574Y-95603571D01*
X130664288Y-95603571D01*
X130807145Y-95675000D01*
X131664288Y-96603571D02*
X131521430Y-96532143D01*
X131450002Y-96460714D01*
X131378573Y-96317857D01*
X131378573Y-95889286D01*
X131450002Y-95746429D01*
X131521430Y-95675000D01*
X131664288Y-95603571D01*
X131878573Y-95603571D01*
X132021430Y-95675000D01*
X132092859Y-95746429D01*
X132164288Y-95889286D01*
X132164288Y-96317857D01*
X132092859Y-96460714D01*
X132021430Y-96532143D01*
X131878573Y-96603571D01*
X131664288Y-96603571D01*
X132807145Y-96603571D02*
X132807145Y-95603571D01*
X132807145Y-95746429D02*
X132878573Y-95675000D01*
X133021431Y-95603571D01*
X133235716Y-95603571D01*
X133378573Y-95675000D01*
X133450002Y-95817857D01*
X133450002Y-96603571D01*
X133450002Y-95817857D02*
X133521431Y-95675000D01*
X133664288Y-95603571D01*
X133878573Y-95603571D01*
X134021431Y-95675000D01*
X134092859Y-95817857D01*
X134092859Y-96603571D01*
X111485715Y-99082143D02*
X111700001Y-99153571D01*
X112057144Y-99153571D01*
X112200001Y-99082143D01*
X112271430Y-99010714D01*
X112342858Y-98867857D01*
X112342858Y-98725000D01*
X112271430Y-98582143D01*
X112200001Y-98510714D01*
X112057144Y-98439286D01*
X111771430Y-98367857D01*
X111628572Y-98296429D01*
X111557144Y-98225000D01*
X111485715Y-98082143D01*
X111485715Y-97939286D01*
X111557144Y-97796429D01*
X111628572Y-97725000D01*
X111771430Y-97653571D01*
X112128572Y-97653571D01*
X112342858Y-97725000D01*
X113628572Y-99082143D02*
X113485715Y-99153571D01*
X113200001Y-99153571D01*
X113057143Y-99082143D01*
X112985715Y-99010714D01*
X112914286Y-98867857D01*
X112914286Y-98439286D01*
X112985715Y-98296429D01*
X113057143Y-98225000D01*
X113200001Y-98153571D01*
X113485715Y-98153571D01*
X113628572Y-98225000D01*
X114271429Y-99153571D02*
X114271429Y-98153571D01*
X114271429Y-97653571D02*
X114200000Y-97725000D01*
X114271429Y-97796429D01*
X114342857Y-97725000D01*
X114271429Y-97653571D01*
X114271429Y-97796429D01*
X114985715Y-98582143D02*
X116128572Y-98582143D01*
X117342858Y-98367857D02*
X117557144Y-98439286D01*
X117628572Y-98510714D01*
X117700001Y-98653571D01*
X117700001Y-98867857D01*
X117628572Y-99010714D01*
X117557144Y-99082143D01*
X117414286Y-99153571D01*
X116842858Y-99153571D01*
X116842858Y-97653571D01*
X117342858Y-97653571D01*
X117485715Y-97725000D01*
X117557144Y-97796429D01*
X117628572Y-97939286D01*
X117628572Y-98082143D01*
X117557144Y-98225000D01*
X117485715Y-98296429D01*
X117342858Y-98367857D01*
X116842858Y-98367857D01*
X118557144Y-99153571D02*
X118414286Y-99082143D01*
X118342858Y-99010714D01*
X118271429Y-98867857D01*
X118271429Y-98439286D01*
X118342858Y-98296429D01*
X118414286Y-98225000D01*
X118557144Y-98153571D01*
X118771429Y-98153571D01*
X118914286Y-98225000D01*
X118985715Y-98296429D01*
X119057144Y-98439286D01*
X119057144Y-98867857D01*
X118985715Y-99010714D01*
X118914286Y-99082143D01*
X118771429Y-99153571D01*
X118557144Y-99153571D01*
X119485715Y-98153571D02*
X120057144Y-98153571D01*
X119700001Y-97653571D02*
X119700001Y-98939286D01*
X119771429Y-99082143D01*
X119914287Y-99153571D01*
X120057144Y-99153571D01*
X120485715Y-99082143D02*
X120628572Y-99153571D01*
X120914287Y-99153571D01*
X121057144Y-99082143D01*
X121128572Y-98939286D01*
X121128572Y-98867857D01*
X121057144Y-98725000D01*
X120914287Y-98653571D01*
X120700001Y-98653571D01*
X120557144Y-98582143D01*
X120485715Y-98439286D01*
X120485715Y-98367857D01*
X120557144Y-98225000D01*
X120700001Y-98153571D01*
X120914287Y-98153571D01*
X121057144Y-98225000D01*
X122914287Y-99153571D02*
X122914287Y-97653571D01*
X123628573Y-98153571D02*
X123628573Y-99153571D01*
X123628573Y-98296429D02*
X123700001Y-98225000D01*
X123842859Y-98153571D01*
X124057144Y-98153571D01*
X124200001Y-98225000D01*
X124271430Y-98367857D01*
X124271430Y-99153571D01*
X125628573Y-99082143D02*
X125485716Y-99153571D01*
X125200002Y-99153571D01*
X125057144Y-99082143D01*
X124985716Y-99010714D01*
X124914287Y-98867857D01*
X124914287Y-98439286D01*
X124985716Y-98296429D01*
X125057144Y-98225000D01*
X125200002Y-98153571D01*
X125485716Y-98153571D01*
X125628573Y-98225000D01*
X126271430Y-99010714D02*
X126342858Y-99082143D01*
X126271430Y-99153571D01*
X126200001Y-99082143D01*
X126271430Y-99010714D01*
X126271430Y-99153571D01*
X127057144Y-99082143D02*
X127057144Y-99153571D01*
X126985716Y-99296429D01*
X126914287Y-99367857D01*
X128771430Y-97796429D02*
X128842859Y-97725000D01*
X128985716Y-97653571D01*
X129342859Y-97653571D01*
X129485716Y-97725000D01*
X129557145Y-97796429D01*
X129628573Y-97939286D01*
X129628573Y-98082143D01*
X129557145Y-98296429D01*
X128700002Y-99153571D01*
X129628573Y-99153571D01*
X130557144Y-97653571D02*
X130700001Y-97653571D01*
X130842858Y-97725000D01*
X130914287Y-97796429D01*
X130985716Y-97939286D01*
X131057144Y-98225000D01*
X131057144Y-98582143D01*
X130985716Y-98867857D01*
X130914287Y-99010714D01*
X130842858Y-99082143D01*
X130700001Y-99153571D01*
X130557144Y-99153571D01*
X130414287Y-99082143D01*
X130342858Y-99010714D01*
X130271430Y-98867857D01*
X130200001Y-98582143D01*
X130200001Y-98225000D01*
X130271430Y-97939286D01*
X130342858Y-97796429D01*
X130414287Y-97725000D01*
X130557144Y-97653571D01*
X132485715Y-99153571D02*
X131628572Y-99153571D01*
X132057144Y-99153571D02*
X132057144Y-97653571D01*
X131914287Y-97867857D01*
X131771429Y-98010714D01*
X131628572Y-98082143D01*
X132985715Y-97653571D02*
X133985715Y-97653571D01*
X133342858Y-99153571D01*
X71585714Y-91907643D02*
X71800000Y-91979071D01*
X72157143Y-91979071D01*
X72300000Y-91907643D01*
X72371429Y-91836214D01*
X72442857Y-91693357D01*
X72442857Y-91550500D01*
X72371429Y-91407643D01*
X72300000Y-91336214D01*
X72157143Y-91264786D01*
X71871429Y-91193357D01*
X71728571Y-91121929D01*
X71657143Y-91050500D01*
X71585714Y-90907643D01*
X71585714Y-90764786D01*
X71657143Y-90621929D01*
X71728571Y-90550500D01*
X71871429Y-90479071D01*
X72228571Y-90479071D01*
X72442857Y-90550500D01*
X72942857Y-90979071D02*
X73228571Y-91979071D01*
X73514285Y-91264786D01*
X73800000Y-91979071D01*
X74085714Y-90979071D01*
X74657143Y-91979071D02*
X74657143Y-90979071D01*
X74657143Y-90479071D02*
X74585714Y-90550500D01*
X74657143Y-90621929D01*
X74728571Y-90550500D01*
X74657143Y-90479071D01*
X74657143Y-90621929D01*
X75157143Y-90979071D02*
X75728572Y-90979071D01*
X75371429Y-90479071D02*
X75371429Y-91764786D01*
X75442857Y-91907643D01*
X75585715Y-91979071D01*
X75728572Y-91979071D01*
X76871429Y-91907643D02*
X76728572Y-91979071D01*
X76442858Y-91979071D01*
X76300000Y-91907643D01*
X76228572Y-91836214D01*
X76157143Y-91693357D01*
X76157143Y-91264786D01*
X76228572Y-91121929D01*
X76300000Y-91050500D01*
X76442858Y-90979071D01*
X76728572Y-90979071D01*
X76871429Y-91050500D01*
X77514286Y-91979071D02*
X77514286Y-90479071D01*
X78157143Y-91979071D02*
X78157143Y-91193357D01*
X78085714Y-91050500D01*
X77942857Y-90979071D01*
X77728572Y-90979071D01*
X77585714Y-91050500D01*
X77514286Y-91121929D01*
X78871429Y-91979071D02*
X78871429Y-90979071D01*
X78871429Y-90479071D02*
X78800000Y-90550500D01*
X78871429Y-90621929D01*
X78942857Y-90550500D01*
X78871429Y-90479071D01*
X78871429Y-90621929D01*
X79585715Y-90979071D02*
X79585715Y-91979071D01*
X79585715Y-91121929D02*
X79657143Y-91050500D01*
X79800001Y-90979071D01*
X80014286Y-90979071D01*
X80157143Y-91050500D01*
X80228572Y-91193357D01*
X80228572Y-91979071D01*
X81585715Y-90979071D02*
X81585715Y-92193357D01*
X81514286Y-92336214D01*
X81442858Y-92407643D01*
X81300001Y-92479071D01*
X81085715Y-92479071D01*
X80942858Y-92407643D01*
X81585715Y-91907643D02*
X81442858Y-91979071D01*
X81157144Y-91979071D01*
X81014286Y-91907643D01*
X80942858Y-91836214D01*
X80871429Y-91693357D01*
X80871429Y-91264786D01*
X80942858Y-91121929D01*
X81014286Y-91050500D01*
X81157144Y-90979071D01*
X81442858Y-90979071D01*
X81585715Y-91050500D01*
X83442858Y-91979071D02*
X83442858Y-90479071D01*
X83442858Y-91050500D02*
X83585715Y-90979071D01*
X83871429Y-90979071D01*
X84014286Y-91050500D01*
X84085715Y-91121929D01*
X84157144Y-91264786D01*
X84157144Y-91693357D01*
X84085715Y-91836214D01*
X84014286Y-91907643D01*
X83871429Y-91979071D01*
X83585715Y-91979071D01*
X83442858Y-91907643D01*
X85014287Y-91979071D02*
X84871429Y-91907643D01*
X84800001Y-91836214D01*
X84728572Y-91693357D01*
X84728572Y-91264786D01*
X84800001Y-91121929D01*
X84871429Y-91050500D01*
X85014287Y-90979071D01*
X85228572Y-90979071D01*
X85371429Y-91050500D01*
X85442858Y-91121929D01*
X85514287Y-91264786D01*
X85514287Y-91693357D01*
X85442858Y-91836214D01*
X85371429Y-91907643D01*
X85228572Y-91979071D01*
X85014287Y-91979071D01*
X86800001Y-91979071D02*
X86800001Y-91193357D01*
X86728572Y-91050500D01*
X86585715Y-90979071D01*
X86300001Y-90979071D01*
X86157144Y-91050500D01*
X86800001Y-91907643D02*
X86657144Y-91979071D01*
X86300001Y-91979071D01*
X86157144Y-91907643D01*
X86085715Y-91764786D01*
X86085715Y-91621929D01*
X86157144Y-91479071D01*
X86300001Y-91407643D01*
X86657144Y-91407643D01*
X86800001Y-91336214D01*
X87514287Y-91979071D02*
X87514287Y-90979071D01*
X87514287Y-91264786D02*
X87585715Y-91121929D01*
X87657144Y-91050500D01*
X87800001Y-90979071D01*
X87942858Y-90979071D01*
X89085715Y-91979071D02*
X89085715Y-90479071D01*
X89085715Y-91907643D02*
X88942858Y-91979071D01*
X88657144Y-91979071D01*
X88514286Y-91907643D01*
X88442858Y-91836214D01*
X88371429Y-91693357D01*
X88371429Y-91264786D01*
X88442858Y-91121929D01*
X88514286Y-91050500D01*
X88657144Y-90979071D01*
X88942858Y-90979071D01*
X89085715Y-91050500D01*
X91228572Y-90479071D02*
X91371429Y-90479071D01*
X91514286Y-90550500D01*
X91585715Y-90621929D01*
X91657144Y-90764786D01*
X91728572Y-91050500D01*
X91728572Y-91407643D01*
X91657144Y-91693357D01*
X91585715Y-91836214D01*
X91514286Y-91907643D01*
X91371429Y-91979071D01*
X91228572Y-91979071D01*
X91085715Y-91907643D01*
X91014286Y-91836214D01*
X90942858Y-91693357D01*
X90871429Y-91407643D01*
X90871429Y-91050500D01*
X90942858Y-90764786D01*
X91014286Y-90621929D01*
X91085715Y-90550500D01*
X91228572Y-90479071D01*
X92371429Y-91407643D02*
X93514286Y-91407643D01*
X94085715Y-90479071D02*
X95014286Y-90479071D01*
X94514286Y-91050500D01*
X94728572Y-91050500D01*
X94871429Y-91121929D01*
X94942858Y-91193357D01*
X95014286Y-91336214D01*
X95014286Y-91693357D01*
X94942858Y-91836214D01*
X94871429Y-91907643D01*
X94728572Y-91979071D01*
X94300000Y-91979071D01*
X94157143Y-91907643D01*
X94085715Y-91836214D01*
X95728571Y-91979071D02*
X96014286Y-91979071D01*
X96157143Y-91907643D01*
X96228571Y-91836214D01*
X96371429Y-91621929D01*
X96442857Y-91336214D01*
X96442857Y-90764786D01*
X96371429Y-90621929D01*
X96300000Y-90550500D01*
X96157143Y-90479071D01*
X95871429Y-90479071D01*
X95728571Y-90550500D01*
X95657143Y-90621929D01*
X95585714Y-90764786D01*
X95585714Y-91121929D01*
X95657143Y-91264786D01*
X95728571Y-91336214D01*
X95871429Y-91407643D01*
X96157143Y-91407643D01*
X96300000Y-91336214D01*
X96371429Y-91264786D01*
X96442857Y-91121929D01*
X71585714Y-78382143D02*
X71800000Y-78453571D01*
X72157143Y-78453571D01*
X72300000Y-78382143D01*
X72371429Y-78310714D01*
X72442857Y-78167857D01*
X72442857Y-78025000D01*
X72371429Y-77882143D01*
X72300000Y-77810714D01*
X72157143Y-77739286D01*
X71871429Y-77667857D01*
X71728571Y-77596429D01*
X71657143Y-77525000D01*
X71585714Y-77382143D01*
X71585714Y-77239286D01*
X71657143Y-77096429D01*
X71728571Y-77025000D01*
X71871429Y-76953571D01*
X72228571Y-76953571D01*
X72442857Y-77025000D01*
X72942857Y-77453571D02*
X73228571Y-78453571D01*
X73514285Y-77739286D01*
X73800000Y-78453571D01*
X74085714Y-77453571D01*
X74657143Y-78453571D02*
X74657143Y-77453571D01*
X74657143Y-76953571D02*
X74585714Y-77025000D01*
X74657143Y-77096429D01*
X74728571Y-77025000D01*
X74657143Y-76953571D01*
X74657143Y-77096429D01*
X75157143Y-77453571D02*
X75728572Y-77453571D01*
X75371429Y-76953571D02*
X75371429Y-78239286D01*
X75442857Y-78382143D01*
X75585715Y-78453571D01*
X75728572Y-78453571D01*
X76871429Y-78382143D02*
X76728572Y-78453571D01*
X76442858Y-78453571D01*
X76300000Y-78382143D01*
X76228572Y-78310714D01*
X76157143Y-78167857D01*
X76157143Y-77739286D01*
X76228572Y-77596429D01*
X76300000Y-77525000D01*
X76442858Y-77453571D01*
X76728572Y-77453571D01*
X76871429Y-77525000D01*
X77514286Y-78453571D02*
X77514286Y-76953571D01*
X78157143Y-78453571D02*
X78157143Y-77667857D01*
X78085714Y-77525000D01*
X77942857Y-77453571D01*
X77728572Y-77453571D01*
X77585714Y-77525000D01*
X77514286Y-77596429D01*
X78871429Y-78453571D02*
X78871429Y-77453571D01*
X78871429Y-76953571D02*
X78800000Y-77025000D01*
X78871429Y-77096429D01*
X78942857Y-77025000D01*
X78871429Y-76953571D01*
X78871429Y-77096429D01*
X79585715Y-77453571D02*
X79585715Y-78453571D01*
X79585715Y-77596429D02*
X79657143Y-77525000D01*
X79800001Y-77453571D01*
X80014286Y-77453571D01*
X80157143Y-77525000D01*
X80228572Y-77667857D01*
X80228572Y-78453571D01*
X81585715Y-77453571D02*
X81585715Y-78667857D01*
X81514286Y-78810714D01*
X81442858Y-78882143D01*
X81300001Y-78953571D01*
X81085715Y-78953571D01*
X80942858Y-78882143D01*
X81585715Y-78382143D02*
X81442858Y-78453571D01*
X81157144Y-78453571D01*
X81014286Y-78382143D01*
X80942858Y-78310714D01*
X80871429Y-78167857D01*
X80871429Y-77739286D01*
X80942858Y-77596429D01*
X81014286Y-77525000D01*
X81157144Y-77453571D01*
X81442858Y-77453571D01*
X81585715Y-77525000D01*
X83442858Y-78453571D02*
X83442858Y-76953571D01*
X83442858Y-77525000D02*
X83585715Y-77453571D01*
X83871429Y-77453571D01*
X84014286Y-77525000D01*
X84085715Y-77596429D01*
X84157144Y-77739286D01*
X84157144Y-78167857D01*
X84085715Y-78310714D01*
X84014286Y-78382143D01*
X83871429Y-78453571D01*
X83585715Y-78453571D01*
X83442858Y-78382143D01*
X85014287Y-78453571D02*
X84871429Y-78382143D01*
X84800001Y-78310714D01*
X84728572Y-78167857D01*
X84728572Y-77739286D01*
X84800001Y-77596429D01*
X84871429Y-77525000D01*
X85014287Y-77453571D01*
X85228572Y-77453571D01*
X85371429Y-77525000D01*
X85442858Y-77596429D01*
X85514287Y-77739286D01*
X85514287Y-78167857D01*
X85442858Y-78310714D01*
X85371429Y-78382143D01*
X85228572Y-78453571D01*
X85014287Y-78453571D01*
X86800001Y-78453571D02*
X86800001Y-77667857D01*
X86728572Y-77525000D01*
X86585715Y-77453571D01*
X86300001Y-77453571D01*
X86157144Y-77525000D01*
X86800001Y-78382143D02*
X86657144Y-78453571D01*
X86300001Y-78453571D01*
X86157144Y-78382143D01*
X86085715Y-78239286D01*
X86085715Y-78096429D01*
X86157144Y-77953571D01*
X86300001Y-77882143D01*
X86657144Y-77882143D01*
X86800001Y-77810714D01*
X87514287Y-78453571D02*
X87514287Y-77453571D01*
X87514287Y-77739286D02*
X87585715Y-77596429D01*
X87657144Y-77525000D01*
X87800001Y-77453571D01*
X87942858Y-77453571D01*
X89085715Y-78453571D02*
X89085715Y-76953571D01*
X89085715Y-78382143D02*
X88942858Y-78453571D01*
X88657144Y-78453571D01*
X88514286Y-78382143D01*
X88442858Y-78310714D01*
X88371429Y-78167857D01*
X88371429Y-77739286D01*
X88442858Y-77596429D01*
X88514286Y-77525000D01*
X88657144Y-77453571D01*
X88942858Y-77453571D01*
X89085715Y-77525000D01*
X91585715Y-77453571D02*
X91585715Y-78453571D01*
X91228572Y-76882143D02*
X90871429Y-77953571D01*
X91800001Y-77953571D01*
X92657143Y-76953571D02*
X92800000Y-76953571D01*
X92942857Y-77025000D01*
X93014286Y-77096429D01*
X93085715Y-77239286D01*
X93157143Y-77525000D01*
X93157143Y-77882143D01*
X93085715Y-78167857D01*
X93014286Y-78310714D01*
X92942857Y-78382143D01*
X92800000Y-78453571D01*
X92657143Y-78453571D01*
X92514286Y-78382143D01*
X92442857Y-78310714D01*
X92371429Y-78167857D01*
X92300000Y-77882143D01*
X92300000Y-77525000D01*
X92371429Y-77239286D01*
X92442857Y-77096429D01*
X92514286Y-77025000D01*
X92657143Y-76953571D01*
X93800000Y-77882143D02*
X94942857Y-77882143D01*
X95514286Y-76953571D02*
X96514286Y-76953571D01*
X95871429Y-78453571D01*
X97157142Y-78453571D02*
X97442857Y-78453571D01*
X97585714Y-78382143D01*
X97657142Y-78310714D01*
X97800000Y-78096429D01*
X97871428Y-77810714D01*
X97871428Y-77239286D01*
X97800000Y-77096429D01*
X97728571Y-77025000D01*
X97585714Y-76953571D01*
X97300000Y-76953571D01*
X97157142Y-77025000D01*
X97085714Y-77096429D01*
X97014285Y-77239286D01*
X97014285Y-77596429D01*
X97085714Y-77739286D01*
X97157142Y-77810714D01*
X97300000Y-77882143D01*
X97585714Y-77882143D01*
X97728571Y-77810714D01*
X97800000Y-77739286D01*
X97871428Y-77596429D01*
X71585714Y-64907143D02*
X71800000Y-64978571D01*
X72157143Y-64978571D01*
X72300000Y-64907143D01*
X72371429Y-64835714D01*
X72442857Y-64692857D01*
X72442857Y-64550000D01*
X72371429Y-64407143D01*
X72300000Y-64335714D01*
X72157143Y-64264286D01*
X71871429Y-64192857D01*
X71728571Y-64121429D01*
X71657143Y-64050000D01*
X71585714Y-63907143D01*
X71585714Y-63764286D01*
X71657143Y-63621429D01*
X71728571Y-63550000D01*
X71871429Y-63478571D01*
X72228571Y-63478571D01*
X72442857Y-63550000D01*
X72942857Y-63978571D02*
X73228571Y-64978571D01*
X73514285Y-64264286D01*
X73800000Y-64978571D01*
X74085714Y-63978571D01*
X74657143Y-64978571D02*
X74657143Y-63978571D01*
X74657143Y-63478571D02*
X74585714Y-63550000D01*
X74657143Y-63621429D01*
X74728571Y-63550000D01*
X74657143Y-63478571D01*
X74657143Y-63621429D01*
X75157143Y-63978571D02*
X75728572Y-63978571D01*
X75371429Y-63478571D02*
X75371429Y-64764286D01*
X75442857Y-64907143D01*
X75585715Y-64978571D01*
X75728572Y-64978571D01*
X76871429Y-64907143D02*
X76728572Y-64978571D01*
X76442858Y-64978571D01*
X76300000Y-64907143D01*
X76228572Y-64835714D01*
X76157143Y-64692857D01*
X76157143Y-64264286D01*
X76228572Y-64121429D01*
X76300000Y-64050000D01*
X76442858Y-63978571D01*
X76728572Y-63978571D01*
X76871429Y-64050000D01*
X77514286Y-64978571D02*
X77514286Y-63478571D01*
X78157143Y-64978571D02*
X78157143Y-64192857D01*
X78085714Y-64050000D01*
X77942857Y-63978571D01*
X77728572Y-63978571D01*
X77585714Y-64050000D01*
X77514286Y-64121429D01*
X78871429Y-64978571D02*
X78871429Y-63978571D01*
X78871429Y-63478571D02*
X78800000Y-63550000D01*
X78871429Y-63621429D01*
X78942857Y-63550000D01*
X78871429Y-63478571D01*
X78871429Y-63621429D01*
X79585715Y-63978571D02*
X79585715Y-64978571D01*
X79585715Y-64121429D02*
X79657143Y-64050000D01*
X79800001Y-63978571D01*
X80014286Y-63978571D01*
X80157143Y-64050000D01*
X80228572Y-64192857D01*
X80228572Y-64978571D01*
X81585715Y-63978571D02*
X81585715Y-65192857D01*
X81514286Y-65335714D01*
X81442858Y-65407143D01*
X81300001Y-65478571D01*
X81085715Y-65478571D01*
X80942858Y-65407143D01*
X81585715Y-64907143D02*
X81442858Y-64978571D01*
X81157144Y-64978571D01*
X81014286Y-64907143D01*
X80942858Y-64835714D01*
X80871429Y-64692857D01*
X80871429Y-64264286D01*
X80942858Y-64121429D01*
X81014286Y-64050000D01*
X81157144Y-63978571D01*
X81442858Y-63978571D01*
X81585715Y-64050000D01*
X83442858Y-64978571D02*
X83442858Y-63478571D01*
X83442858Y-64050000D02*
X83585715Y-63978571D01*
X83871429Y-63978571D01*
X84014286Y-64050000D01*
X84085715Y-64121429D01*
X84157144Y-64264286D01*
X84157144Y-64692857D01*
X84085715Y-64835714D01*
X84014286Y-64907143D01*
X83871429Y-64978571D01*
X83585715Y-64978571D01*
X83442858Y-64907143D01*
X85014287Y-64978571D02*
X84871429Y-64907143D01*
X84800001Y-64835714D01*
X84728572Y-64692857D01*
X84728572Y-64264286D01*
X84800001Y-64121429D01*
X84871429Y-64050000D01*
X85014287Y-63978571D01*
X85228572Y-63978571D01*
X85371429Y-64050000D01*
X85442858Y-64121429D01*
X85514287Y-64264286D01*
X85514287Y-64692857D01*
X85442858Y-64835714D01*
X85371429Y-64907143D01*
X85228572Y-64978571D01*
X85014287Y-64978571D01*
X86800001Y-64978571D02*
X86800001Y-64192857D01*
X86728572Y-64050000D01*
X86585715Y-63978571D01*
X86300001Y-63978571D01*
X86157144Y-64050000D01*
X86800001Y-64907143D02*
X86657144Y-64978571D01*
X86300001Y-64978571D01*
X86157144Y-64907143D01*
X86085715Y-64764286D01*
X86085715Y-64621429D01*
X86157144Y-64478571D01*
X86300001Y-64407143D01*
X86657144Y-64407143D01*
X86800001Y-64335714D01*
X87514287Y-64978571D02*
X87514287Y-63978571D01*
X87514287Y-64264286D02*
X87585715Y-64121429D01*
X87657144Y-64050000D01*
X87800001Y-63978571D01*
X87942858Y-63978571D01*
X89085715Y-64978571D02*
X89085715Y-63478571D01*
X89085715Y-64907143D02*
X88942858Y-64978571D01*
X88657144Y-64978571D01*
X88514286Y-64907143D01*
X88442858Y-64835714D01*
X88371429Y-64692857D01*
X88371429Y-64264286D01*
X88442858Y-64121429D01*
X88514286Y-64050000D01*
X88657144Y-63978571D01*
X88942858Y-63978571D01*
X89085715Y-64050000D01*
X91157144Y-64121429D02*
X91014286Y-64050000D01*
X90942858Y-63978571D01*
X90871429Y-63835714D01*
X90871429Y-63764286D01*
X90942858Y-63621429D01*
X91014286Y-63550000D01*
X91157144Y-63478571D01*
X91442858Y-63478571D01*
X91585715Y-63550000D01*
X91657144Y-63621429D01*
X91728572Y-63764286D01*
X91728572Y-63835714D01*
X91657144Y-63978571D01*
X91585715Y-64050000D01*
X91442858Y-64121429D01*
X91157144Y-64121429D01*
X91014286Y-64192857D01*
X90942858Y-64264286D01*
X90871429Y-64407143D01*
X90871429Y-64692857D01*
X90942858Y-64835714D01*
X91014286Y-64907143D01*
X91157144Y-64978571D01*
X91442858Y-64978571D01*
X91585715Y-64907143D01*
X91657144Y-64835714D01*
X91728572Y-64692857D01*
X91728572Y-64407143D01*
X91657144Y-64264286D01*
X91585715Y-64192857D01*
X91442858Y-64121429D01*
X92657143Y-63478571D02*
X92800000Y-63478571D01*
X92942857Y-63550000D01*
X93014286Y-63621429D01*
X93085715Y-63764286D01*
X93157143Y-64050000D01*
X93157143Y-64407143D01*
X93085715Y-64692857D01*
X93014286Y-64835714D01*
X92942857Y-64907143D01*
X92800000Y-64978571D01*
X92657143Y-64978571D01*
X92514286Y-64907143D01*
X92442857Y-64835714D01*
X92371429Y-64692857D01*
X92300000Y-64407143D01*
X92300000Y-64050000D01*
X92371429Y-63764286D01*
X92442857Y-63621429D01*
X92514286Y-63550000D01*
X92657143Y-63478571D01*
X93800000Y-64407143D02*
X94942857Y-64407143D01*
X96442857Y-64978571D02*
X95585714Y-64978571D01*
X96014286Y-64978571D02*
X96014286Y-63478571D01*
X95871429Y-63692857D01*
X95728571Y-63835714D01*
X95585714Y-63907143D01*
X97871428Y-64978571D02*
X97014285Y-64978571D01*
X97442857Y-64978571D02*
X97442857Y-63478571D01*
X97300000Y-63692857D01*
X97157142Y-63835714D01*
X97014285Y-63907143D01*
X98585713Y-64978571D02*
X98871428Y-64978571D01*
X99014285Y-64907143D01*
X99085713Y-64835714D01*
X99228571Y-64621429D01*
X99299999Y-64335714D01*
X99299999Y-63764286D01*
X99228571Y-63621429D01*
X99157142Y-63550000D01*
X99014285Y-63478571D01*
X98728571Y-63478571D01*
X98585713Y-63550000D01*
X98514285Y-63621429D01*
X98442856Y-63764286D01*
X98442856Y-64121429D01*
X98514285Y-64264286D01*
X98585713Y-64335714D01*
X98728571Y-64407143D01*
X99014285Y-64407143D01*
X99157142Y-64335714D01*
X99228571Y-64264286D01*
X99299999Y-64121429D01*
X89492858Y-51035714D02*
X89421429Y-51107143D01*
X89207143Y-51178571D01*
X89064286Y-51178571D01*
X88850001Y-51107143D01*
X88707143Y-50964286D01*
X88635715Y-50821429D01*
X88564286Y-50535714D01*
X88564286Y-50321429D01*
X88635715Y-50035714D01*
X88707143Y-49892857D01*
X88850001Y-49750000D01*
X89064286Y-49678571D01*
X89207143Y-49678571D01*
X89421429Y-49750000D01*
X89492858Y-49821429D01*
X90350001Y-51178571D02*
X90207143Y-51107143D01*
X90135715Y-51035714D01*
X90064286Y-50892857D01*
X90064286Y-50464286D01*
X90135715Y-50321429D01*
X90207143Y-50250000D01*
X90350001Y-50178571D01*
X90564286Y-50178571D01*
X90707143Y-50250000D01*
X90778572Y-50321429D01*
X90850001Y-50464286D01*
X90850001Y-50892857D01*
X90778572Y-51035714D01*
X90707143Y-51107143D01*
X90564286Y-51178571D01*
X90350001Y-51178571D01*
X91492858Y-50178571D02*
X91492858Y-51178571D01*
X91492858Y-50321429D02*
X91564286Y-50250000D01*
X91707144Y-50178571D01*
X91921429Y-50178571D01*
X92064286Y-50250000D01*
X92135715Y-50392857D01*
X92135715Y-51178571D01*
X92635715Y-50178571D02*
X93207144Y-50178571D01*
X92850001Y-49678571D02*
X92850001Y-50964286D01*
X92921429Y-51107143D01*
X93064287Y-51178571D01*
X93207144Y-51178571D01*
X93707144Y-51178571D02*
X93707144Y-50178571D01*
X93707144Y-50464286D02*
X93778572Y-50321429D01*
X93850001Y-50250000D01*
X93992858Y-50178571D01*
X94135715Y-50178571D01*
X94850001Y-51178571D02*
X94707143Y-51107143D01*
X94635715Y-51035714D01*
X94564286Y-50892857D01*
X94564286Y-50464286D01*
X94635715Y-50321429D01*
X94707143Y-50250000D01*
X94850001Y-50178571D01*
X95064286Y-50178571D01*
X95207143Y-50250000D01*
X95278572Y-50321429D01*
X95350001Y-50464286D01*
X95350001Y-50892857D01*
X95278572Y-51035714D01*
X95207143Y-51107143D01*
X95064286Y-51178571D01*
X94850001Y-51178571D01*
X96207144Y-51178571D02*
X96064286Y-51107143D01*
X95992858Y-50964286D01*
X95992858Y-49678571D01*
X97921429Y-51178571D02*
X97921429Y-49678571D01*
X97921429Y-50250000D02*
X98064286Y-50178571D01*
X98350000Y-50178571D01*
X98492857Y-50250000D01*
X98564286Y-50321429D01*
X98635715Y-50464286D01*
X98635715Y-50892857D01*
X98564286Y-51035714D01*
X98492857Y-51107143D01*
X98350000Y-51178571D01*
X98064286Y-51178571D01*
X97921429Y-51107143D01*
X99492858Y-51178571D02*
X99350000Y-51107143D01*
X99278572Y-51035714D01*
X99207143Y-50892857D01*
X99207143Y-50464286D01*
X99278572Y-50321429D01*
X99350000Y-50250000D01*
X99492858Y-50178571D01*
X99707143Y-50178571D01*
X99850000Y-50250000D01*
X99921429Y-50321429D01*
X99992858Y-50464286D01*
X99992858Y-50892857D01*
X99921429Y-51035714D01*
X99850000Y-51107143D01*
X99707143Y-51178571D01*
X99492858Y-51178571D01*
X101278572Y-51178571D02*
X101278572Y-50392857D01*
X101207143Y-50250000D01*
X101064286Y-50178571D01*
X100778572Y-50178571D01*
X100635715Y-50250000D01*
X101278572Y-51107143D02*
X101135715Y-51178571D01*
X100778572Y-51178571D01*
X100635715Y-51107143D01*
X100564286Y-50964286D01*
X100564286Y-50821429D01*
X100635715Y-50678571D01*
X100778572Y-50607143D01*
X101135715Y-50607143D01*
X101278572Y-50535714D01*
X101992858Y-51178571D02*
X101992858Y-50178571D01*
X101992858Y-50464286D02*
X102064286Y-50321429D01*
X102135715Y-50250000D01*
X102278572Y-50178571D01*
X102421429Y-50178571D01*
X103564286Y-51178571D02*
X103564286Y-49678571D01*
X103564286Y-51107143D02*
X103421429Y-51178571D01*
X103135715Y-51178571D01*
X102992857Y-51107143D01*
X102921429Y-51035714D01*
X102850000Y-50892857D01*
X102850000Y-50464286D01*
X102921429Y-50321429D01*
X102992857Y-50250000D01*
X103135715Y-50178571D01*
X103421429Y-50178571D01*
X103564286Y-50250000D01*
D12*
X65837000Y-65561000D02*
X65837000Y-67161000D01*
X65837000Y-80761000D02*
X65837000Y-79161000D01*
X65837000Y-94361000D02*
X65837000Y-92761000D01*
X149738400Y-94361000D02*
X149738400Y-92761000D01*
X149738400Y-80761000D02*
X149738400Y-79161000D01*
X149738400Y-67161000D02*
X149738400Y-65561000D01*
X65838400Y-65561000D02*
X149738400Y-65561000D01*
X65838400Y-94361000D02*
X149738400Y-94361000D01*
X65838400Y-92761000D02*
X149738400Y-92761000D01*
X65838400Y-80761000D02*
X149738400Y-80761000D01*
X65838400Y-79161000D02*
X149738400Y-79161000D01*
X65838400Y-67161000D02*
X149738400Y-67161000D01*
X149738400Y-53561000D02*
X149738400Y-51961000D01*
X65838400Y-53561000D02*
X149738400Y-53561000D01*
X70838400Y-53561000D02*
X70838400Y-51961000D01*
X149738400Y-51961000D02*
X65838400Y-51961000D01*
D11*
X76607144Y-99178571D02*
X76607144Y-97678571D01*
X76964287Y-97678571D01*
X77178572Y-97750000D01*
X77321430Y-97892857D01*
X77392858Y-98035714D01*
X77464287Y-98321429D01*
X77464287Y-98535714D01*
X77392858Y-98821429D01*
X77321430Y-98964286D01*
X77178572Y-99107143D01*
X76964287Y-99178571D01*
X76607144Y-99178571D01*
X78107144Y-99178571D02*
X78107144Y-98178571D01*
X78107144Y-98464286D02*
X78178572Y-98321429D01*
X78250001Y-98250000D01*
X78392858Y-98178571D01*
X78535715Y-98178571D01*
X79250001Y-99178571D02*
X79107143Y-99107143D01*
X79035715Y-99035714D01*
X78964286Y-98892857D01*
X78964286Y-98464286D01*
X79035715Y-98321429D01*
X79107143Y-98250000D01*
X79250001Y-98178571D01*
X79464286Y-98178571D01*
X79607143Y-98250000D01*
X79678572Y-98321429D01*
X79750001Y-98464286D01*
X79750001Y-98892857D01*
X79678572Y-99035714D01*
X79607143Y-99107143D01*
X79464286Y-99178571D01*
X79250001Y-99178571D01*
X80392858Y-98178571D02*
X80392858Y-99678571D01*
X80392858Y-98250000D02*
X80535715Y-98178571D01*
X80821429Y-98178571D01*
X80964286Y-98250000D01*
X81035715Y-98321429D01*
X81107144Y-98464286D01*
X81107144Y-98892857D01*
X81035715Y-99035714D01*
X80964286Y-99107143D01*
X80821429Y-99178571D01*
X80535715Y-99178571D01*
X80392858Y-99107143D01*
X82250001Y-98392857D02*
X82464287Y-98464286D01*
X82535715Y-98535714D01*
X82607144Y-98678571D01*
X82607144Y-98892857D01*
X82535715Y-99035714D01*
X82464287Y-99107143D01*
X82321429Y-99178571D01*
X81750001Y-99178571D01*
X81750001Y-97678571D01*
X82250001Y-97678571D01*
X82392858Y-97750000D01*
X82464287Y-97821429D01*
X82535715Y-97964286D01*
X82535715Y-98107143D01*
X82464287Y-98250000D01*
X82392858Y-98321429D01*
X82250001Y-98392857D01*
X81750001Y-98392857D01*
X83464287Y-99178571D02*
X83321429Y-99107143D01*
X83250001Y-99035714D01*
X83178572Y-98892857D01*
X83178572Y-98464286D01*
X83250001Y-98321429D01*
X83321429Y-98250000D01*
X83464287Y-98178571D01*
X83678572Y-98178571D01*
X83821429Y-98250000D01*
X83892858Y-98321429D01*
X83964287Y-98464286D01*
X83964287Y-98892857D01*
X83892858Y-99035714D01*
X83821429Y-99107143D01*
X83678572Y-99178571D01*
X83464287Y-99178571D01*
X84392858Y-98178571D02*
X84964287Y-98178571D01*
X84607144Y-97678571D02*
X84607144Y-98964286D01*
X84678572Y-99107143D01*
X84821430Y-99178571D01*
X84964287Y-99178571D01*
X86392858Y-98178571D02*
X86964287Y-98178571D01*
X86607144Y-99178571D02*
X86607144Y-97892857D01*
X86678572Y-97750000D01*
X86821430Y-97678571D01*
X86964287Y-97678571D01*
X87464287Y-99178571D02*
X87464287Y-98178571D01*
X87464287Y-98464286D02*
X87535715Y-98321429D01*
X87607144Y-98250000D01*
X87750001Y-98178571D01*
X87892858Y-98178571D01*
X88607144Y-99178571D02*
X88464286Y-99107143D01*
X88392858Y-99035714D01*
X88321429Y-98892857D01*
X88321429Y-98464286D01*
X88392858Y-98321429D01*
X88464286Y-98250000D01*
X88607144Y-98178571D01*
X88821429Y-98178571D01*
X88964286Y-98250000D01*
X89035715Y-98321429D01*
X89107144Y-98464286D01*
X89107144Y-98892857D01*
X89035715Y-99035714D01*
X88964286Y-99107143D01*
X88821429Y-99178571D01*
X88607144Y-99178571D01*
X89750001Y-98178571D02*
X89750001Y-99178571D01*
X89750001Y-98321429D02*
X89821429Y-98250000D01*
X89964287Y-98178571D01*
X90178572Y-98178571D01*
X90321429Y-98250000D01*
X90392858Y-98392857D01*
X90392858Y-99178571D01*
X90892858Y-98178571D02*
X91464287Y-98178571D01*
X91107144Y-97678571D02*
X91107144Y-98964286D01*
X91178572Y-99107143D01*
X91321430Y-99178571D01*
X91464287Y-99178571D01*
X93107144Y-98178571D02*
X93107144Y-99678571D01*
X93107144Y-98250000D02*
X93250001Y-98178571D01*
X93535715Y-98178571D01*
X93678572Y-98250000D01*
X93750001Y-98321429D01*
X93821430Y-98464286D01*
X93821430Y-98892857D01*
X93750001Y-99035714D01*
X93678572Y-99107143D01*
X93535715Y-99178571D01*
X93250001Y-99178571D01*
X93107144Y-99107143D01*
X95107144Y-99178571D02*
X95107144Y-98392857D01*
X95035715Y-98250000D01*
X94892858Y-98178571D01*
X94607144Y-98178571D01*
X94464287Y-98250000D01*
X95107144Y-99107143D02*
X94964287Y-99178571D01*
X94607144Y-99178571D01*
X94464287Y-99107143D01*
X94392858Y-98964286D01*
X94392858Y-98821429D01*
X94464287Y-98678571D01*
X94607144Y-98607143D01*
X94964287Y-98607143D01*
X95107144Y-98535714D01*
X95821430Y-98178571D02*
X95821430Y-99178571D01*
X95821430Y-98321429D02*
X95892858Y-98250000D01*
X96035716Y-98178571D01*
X96250001Y-98178571D01*
X96392858Y-98250000D01*
X96464287Y-98392857D01*
X96464287Y-99178571D01*
X97750001Y-99107143D02*
X97607144Y-99178571D01*
X97321430Y-99178571D01*
X97178573Y-99107143D01*
X97107144Y-98964286D01*
X97107144Y-98392857D01*
X97178573Y-98250000D01*
X97321430Y-98178571D01*
X97607144Y-98178571D01*
X97750001Y-98250000D01*
X97821430Y-98392857D01*
X97821430Y-98535714D01*
X97107144Y-98678571D01*
X98678573Y-99178571D02*
X98535715Y-99107143D01*
X98464287Y-98964286D01*
X98464287Y-97678571D01*
X100250001Y-98178571D02*
X100607144Y-99178571D01*
X100964286Y-98178571D01*
X101392858Y-97678571D02*
X102321429Y-97678571D01*
X101821429Y-98250000D01*
X102035715Y-98250000D01*
X102178572Y-98321429D01*
X102250001Y-98392857D01*
X102321429Y-98535714D01*
X102321429Y-98892857D01*
X102250001Y-99035714D01*
X102178572Y-99107143D01*
X102035715Y-99178571D01*
X101607143Y-99178571D01*
X101464286Y-99107143D01*
X101392858Y-99035714D01*
X102964286Y-99035714D02*
X103035714Y-99107143D01*
X102964286Y-99178571D01*
X102892857Y-99107143D01*
X102964286Y-99035714D01*
X102964286Y-99178571D01*
X104464286Y-99178571D02*
X103607143Y-99178571D01*
X104035715Y-99178571D02*
X104035715Y-97678571D01*
X103892858Y-97892857D01*
X103750000Y-98035714D01*
X103607143Y-98107143D01*
D10*
X64800000Y-87900000D02*
X64800000Y-56900000D01*
X46800000Y-87900000D02*
X64800000Y-87900000D01*
X46800000Y-87900000D02*
X46800000Y-56900000D01*
X46800000Y-56900000D02*
X64800000Y-56900000D01*
D13*
X153070000Y-55730000D02*
X153070000Y-50650000D01*
X153070000Y-50650000D02*
X150530000Y-50650000D01*
X150530000Y-50650000D02*
X150530000Y-55730000D01*
X150250000Y-58550000D02*
X150250000Y-57000000D01*
X150530000Y-55730000D02*
X153070000Y-55730000D01*
X153350000Y-57000000D02*
X153350000Y-58550000D01*
X153350000Y-58550000D02*
X150250000Y-58550000D01*
D14*
X47218800Y-34176800D02*
X49682600Y-34176800D01*
X49682600Y-34176800D02*
X49682600Y-31890800D01*
X47218800Y-31890800D02*
X49682600Y-31890800D01*
X47218800Y-34176800D02*
X47218800Y-31890800D01*
X47218800Y-37021600D02*
X49682600Y-37021600D01*
X49682600Y-37021600D02*
X49682600Y-34557800D01*
X47218800Y-34557800D02*
X49682600Y-34557800D01*
X47218800Y-37021600D02*
X47218800Y-34557800D01*
X76860600Y-34176800D02*
X79324400Y-34176800D01*
X79324400Y-34176800D02*
X79324400Y-31890800D01*
X76860600Y-31890800D02*
X79324400Y-31890800D01*
X76860600Y-34176800D02*
X76860600Y-31890800D01*
X76860600Y-37021600D02*
X79324400Y-37021600D01*
X79324400Y-37021600D02*
X79324400Y-34557800D01*
X76860600Y-34557800D02*
X79324400Y-34557800D01*
X76860600Y-37021600D02*
X76860600Y-34557800D01*
D15*
X46621900Y-32271800D02*
X46621900Y-38469400D01*
X46621900Y-38469400D02*
X49720700Y-38469400D01*
X49720700Y-38469400D02*
X49720700Y-40691900D01*
X49720700Y-40691900D02*
X76822500Y-40691900D01*
X76822500Y-40691900D02*
X76822500Y-38469400D01*
X76822500Y-38469400D02*
X79921300Y-38469400D01*
X79921300Y-38469400D02*
X79921300Y-32271800D01*
D14*
X120675600Y-34176800D02*
X123139400Y-34176800D01*
X123139400Y-34176800D02*
X123139400Y-31890800D01*
X120675600Y-31890800D02*
X123139400Y-31890800D01*
X120675600Y-34176800D02*
X120675600Y-31890800D01*
X120675600Y-37021600D02*
X123139400Y-37021600D01*
X123139400Y-37021600D02*
X123139400Y-34557800D01*
X120675600Y-34557800D02*
X123139400Y-34557800D01*
X120675600Y-37021600D02*
X120675600Y-34557800D01*
X150317400Y-34176800D02*
X152781200Y-34176800D01*
X152781200Y-34176800D02*
X152781200Y-31890800D01*
X150317400Y-31890800D02*
X152781200Y-31890800D01*
X150317400Y-34176800D02*
X150317400Y-31890800D01*
X150317400Y-37021600D02*
X152781200Y-37021600D01*
X152781200Y-37021600D02*
X152781200Y-34557800D01*
X150317400Y-34557800D02*
X152781200Y-34557800D01*
X150317400Y-37021600D02*
X150317400Y-34557800D01*
D15*
X120078700Y-32271800D02*
X120078700Y-38469400D01*
X120078700Y-38469400D02*
X123177500Y-38469400D01*
X123177500Y-38469400D02*
X123177500Y-40691900D01*
X123177500Y-40691900D02*
X150279300Y-40691900D01*
X150279300Y-40691900D02*
X150279300Y-38469400D01*
X150279300Y-38469400D02*
X153378100Y-38469400D01*
X153378100Y-38469400D02*
X153378100Y-32271800D01*
D16*
X55460000Y-55620000D02*
X55460000Y-45460000D01*
X54190000Y-55620000D02*
X61810000Y-55620000D01*
X61810000Y-55620000D02*
X61810000Y-45460000D01*
X61810000Y-45460000D02*
X54190000Y-45460000D01*
X54190000Y-45460000D02*
X54190000Y-55620000D01*
D13*
X66689000Y-54005000D02*
G75*
G03X66689000Y-54005000I-127000J0D01*
G01*
X67197000Y-54640000D02*
X67197000Y-49560000D01*
X63895000Y-54640000D02*
X63895000Y-49560000D01*
X67705000Y-54640000D02*
X67705000Y-49560000D01*
X67705000Y-54640000D02*
X63895000Y-54640000D01*
X67705000Y-49560000D02*
X63895000Y-49560000D01*
D16*
X146100000Y-65480000D02*
X144900000Y-65480000D01*
X144900000Y-63720000D02*
X146100000Y-63720000D01*
X131600000Y-44120000D02*
X132800000Y-44120000D01*
X132800000Y-45880000D02*
X131600000Y-45880000D01*
D15*
X80175300Y-32271800D02*
X80175300Y-38469400D01*
X80175300Y-38469400D02*
X83274100Y-38469400D01*
X83274100Y-38469400D02*
X83274100Y-41085600D01*
X83274100Y-41085600D02*
X116725900Y-41085600D01*
X116725900Y-41085600D02*
X116725900Y-38469400D01*
X116725900Y-38469400D02*
X119824700Y-38469400D01*
X119824700Y-38469400D02*
X119824700Y-32271800D01*
D16*
X47750000Y-58100000D02*
X47750000Y-59100000D01*
X49450000Y-59100000D02*
X49450000Y-58100000D01*
X67550000Y-77000000D02*
X67550000Y-76000000D01*
X65850000Y-76000000D02*
X65850000Y-77000000D01*
X69850000Y-77000000D02*
X69850000Y-76000000D01*
X68150000Y-76000000D02*
X68150000Y-77000000D01*
D10*
X87800000Y-64300000D02*
X70000000Y-64300000D01*
X87800000Y-46500000D02*
X87800000Y-64300000D01*
X70000000Y-46500000D02*
X70000000Y-64300000D01*
X87800000Y-46500000D02*
X70000000Y-46500000D01*
D16*
X52286000Y-44000000D02*
G75*
G03X52286000Y-44000000I-2286000J0D01*
G01*
X152286000Y-44000000D02*
G75*
G03X152286000Y-44000000I-2286000J0D01*
G01*
X152286000Y-84000000D02*
G75*
G03X152286000Y-84000000I-2286000J0D01*
G01*
X70286000Y-86000000D02*
G75*
G03X70286000Y-86000000I-2286000J0D01*
G01*
D15*
X105910900Y-63160200D02*
X105910900Y-61737800D01*
X105199700Y-62449000D02*
X106622100Y-62449000D01*
X106413794Y-62449000D02*
G75*
G03X106413794Y-62449000I-502894J0D01*
G01*
X104389440Y-63592000D02*
X104389440Y-61306000D01*
X106164900Y-63592000D02*
X104389440Y-63592000D01*
X106164900Y-65306500D02*
X106164900Y-63592000D01*
X106672900Y-60417000D02*
X106672900Y-59591500D01*
X106164900Y-60417000D02*
X106672900Y-60417000D01*
X106164900Y-61306000D02*
X106164900Y-60417000D01*
X104389440Y-61306000D02*
X106164900Y-61306000D01*
X106672900Y-59591500D02*
X139311900Y-59591500D01*
X139311900Y-59591500D02*
X139311900Y-61306000D01*
X139311900Y-61306000D02*
X141087360Y-61306000D01*
X141087360Y-61306000D02*
X141087360Y-63592000D01*
X141087360Y-63592000D02*
X139311900Y-63592000D01*
X139311900Y-63592000D02*
X139311900Y-65306500D01*
X139311900Y-65306500D02*
X106164900Y-65306500D01*
X140068794Y-62449000D02*
G75*
G03X140068794Y-62449000I-502894J0D01*
G01*
X138854700Y-62449000D02*
X140277100Y-62449000D01*
X139565900Y-63160200D02*
X139565900Y-61737800D01*
X105910900Y-76760200D02*
X105910900Y-75337800D01*
X105199700Y-76049000D02*
X106622100Y-76049000D01*
X106413794Y-76049000D02*
G75*
G03X106413794Y-76049000I-502894J0D01*
G01*
X104389440Y-77192000D02*
X104389440Y-74906000D01*
X106164900Y-77192000D02*
X104389440Y-77192000D01*
X106164900Y-78906500D02*
X106164900Y-77192000D01*
X106672900Y-74017000D02*
X106672900Y-73191500D01*
X106164900Y-74017000D02*
X106672900Y-74017000D01*
X106164900Y-74906000D02*
X106164900Y-74017000D01*
X104389440Y-74906000D02*
X106164900Y-74906000D01*
X106672900Y-73191500D02*
X139311900Y-73191500D01*
X139311900Y-73191500D02*
X139311900Y-74906000D01*
X139311900Y-74906000D02*
X141087360Y-74906000D01*
X141087360Y-74906000D02*
X141087360Y-77192000D01*
X141087360Y-77192000D02*
X139311900Y-77192000D01*
X139311900Y-77192000D02*
X139311900Y-78906500D01*
X139311900Y-78906500D02*
X106164900Y-78906500D01*
X140068794Y-76049000D02*
G75*
G03X140068794Y-76049000I-502894J0D01*
G01*
X138854700Y-76049000D02*
X140277100Y-76049000D01*
X139565900Y-76760200D02*
X139565900Y-75337800D01*
X105910900Y-90360200D02*
X105910900Y-88937800D01*
X105199700Y-89649000D02*
X106622100Y-89649000D01*
X106413794Y-89649000D02*
G75*
G03X106413794Y-89649000I-502894J0D01*
G01*
X104389440Y-90792000D02*
X104389440Y-88506000D01*
X106164900Y-90792000D02*
X104389440Y-90792000D01*
X106164900Y-92506500D02*
X106164900Y-90792000D01*
X106672900Y-87617000D02*
X106672900Y-86791500D01*
X106164900Y-87617000D02*
X106672900Y-87617000D01*
X106164900Y-88506000D02*
X106164900Y-87617000D01*
X104389440Y-88506000D02*
X106164900Y-88506000D01*
X106672900Y-86791500D02*
X139311900Y-86791500D01*
X139311900Y-86791500D02*
X139311900Y-88506000D01*
X139311900Y-88506000D02*
X141087360Y-88506000D01*
X141087360Y-88506000D02*
X141087360Y-90792000D01*
X141087360Y-90792000D02*
X139311900Y-90792000D01*
X139311900Y-90792000D02*
X139311900Y-92506500D01*
X139311900Y-92506500D02*
X106164900Y-92506500D01*
X140068794Y-89649000D02*
G75*
G03X140068794Y-89649000I-502894J0D01*
G01*
X138854700Y-89649000D02*
X140277100Y-89649000D01*
X139565900Y-90360200D02*
X139565900Y-88937800D01*
D16*
X68600000Y-49150000D02*
X68600000Y-47450000D01*
X68600000Y-47450000D02*
X66050000Y-47450000D01*
X68600000Y-49150000D02*
X66050000Y-49150000D01*
X63200000Y-47420000D02*
X64400000Y-47420000D01*
X64400000Y-49180000D02*
X63200000Y-49180000D01*
X147620000Y-69700000D02*
X147620000Y-68500000D01*
X149380000Y-68500000D02*
X149380000Y-69700000D01*
D13*
X149775000Y-73825000D02*
X149875000Y-73825000D01*
X149775000Y-69175000D02*
X149975000Y-69175000D01*
X153025000Y-69175000D02*
X152825000Y-69175000D01*
X153025000Y-73825000D02*
X152825000Y-73825000D01*
X149775000Y-73825000D02*
X149775000Y-69175000D01*
X153025000Y-73825000D02*
X153025000Y-69175000D01*
X149875000Y-73825000D02*
X149875000Y-75175000D01*
D16*
X150780000Y-76500000D02*
X150780000Y-77500000D01*
X149420000Y-77500000D02*
X149420000Y-76500000D01*
X152080000Y-76500000D02*
X152080000Y-77500000D01*
X150720000Y-77500000D02*
X150720000Y-76500000D01*
X153380000Y-76500000D02*
X153380000Y-77500000D01*
X152020000Y-77500000D02*
X152020000Y-76500000D01*
D15*
X128610900Y-49560700D02*
X128610900Y-48138300D01*
X127899700Y-48849500D02*
X129322100Y-48849500D01*
X129113794Y-48849500D02*
G75*
G03X129113794Y-48849500I-502894J0D01*
G01*
X127089440Y-49992500D02*
X127089440Y-47706500D01*
X128864900Y-49992500D02*
X127089440Y-49992500D01*
X128864900Y-51707000D02*
X128864900Y-49992500D01*
X129372900Y-46817500D02*
X129372900Y-45992000D01*
X128864900Y-46817500D02*
X129372900Y-46817500D01*
X128864900Y-47706500D02*
X128864900Y-46817500D01*
X127089440Y-47706500D02*
X128864900Y-47706500D01*
X129372900Y-45992000D02*
X136611900Y-45992000D01*
X136611900Y-45992000D02*
X136611900Y-47706500D01*
X136611900Y-47706500D02*
X138387360Y-47706500D01*
X138387360Y-47706500D02*
X138387360Y-49992500D01*
X138387360Y-49992500D02*
X136611900Y-49992500D01*
X136611900Y-49992500D02*
X136611900Y-51707000D01*
X136611900Y-51707000D02*
X128864900Y-51707000D01*
X137368794Y-48849500D02*
G75*
G03X137368794Y-48849500I-502894J0D01*
G01*
X136154700Y-48849500D02*
X137577100Y-48849500D01*
X136865900Y-49560700D02*
X136865900Y-48138300D01*
D16*
X149950000Y-65300000D02*
X149950000Y-66300000D01*
X151650000Y-66300000D02*
X151650000Y-65300000D01*
D13*
X51133334Y-56652381D02*
X50657143Y-56652381D01*
X50657143Y-55652381D01*
X51419048Y-55747619D02*
X51466667Y-55700000D01*
X51561905Y-55652381D01*
X51800001Y-55652381D01*
X51895239Y-55700000D01*
X51942858Y-55747619D01*
X51990477Y-55842857D01*
X51990477Y-55938095D01*
X51942858Y-56080952D01*
X51371429Y-56652381D01*
X51990477Y-56652381D01*
X151061905Y-60152381D02*
X151061905Y-59152381D01*
X151442858Y-59152381D01*
X151538096Y-59200000D01*
X151585715Y-59247619D01*
X151633334Y-59342857D01*
X151633334Y-59485714D01*
X151585715Y-59580952D01*
X151538096Y-59628571D01*
X151442858Y-59676190D01*
X151061905Y-59676190D01*
X152109524Y-60152381D02*
X152300000Y-60152381D01*
X152395239Y-60104762D01*
X152442858Y-60057143D01*
X152538096Y-59914286D01*
X152585715Y-59723810D01*
X152585715Y-59342857D01*
X152538096Y-59247619D01*
X152490477Y-59200000D01*
X152395239Y-59152381D01*
X152204762Y-59152381D01*
X152109524Y-59200000D01*
X152061905Y-59247619D01*
X152014286Y-59342857D01*
X152014286Y-59580952D01*
X152061905Y-59676190D01*
X152109524Y-59723810D01*
X152204762Y-59771429D01*
X152395239Y-59771429D01*
X152490477Y-59723810D01*
X152538096Y-59676190D01*
X152585715Y-59580952D01*
D17*
X77262619Y-40074524D02*
X77262619Y-38804524D01*
X77746428Y-38804524D01*
X77867381Y-38865000D01*
X77927857Y-38925476D01*
X77988333Y-39046429D01*
X77988333Y-39227857D01*
X77927857Y-39348810D01*
X77867381Y-39409286D01*
X77746428Y-39469762D01*
X77262619Y-39469762D01*
X78411667Y-38804524D02*
X79258333Y-38804524D01*
X78714048Y-40074524D01*
X74435505Y-40974324D02*
X75221695Y-40974324D01*
X74798362Y-41458133D01*
X74979790Y-41458133D01*
X75100743Y-41518610D01*
X75161219Y-41579086D01*
X75221695Y-41700038D01*
X75221695Y-42002419D01*
X75161219Y-42123371D01*
X75100743Y-42183848D01*
X74979790Y-42244324D01*
X74616933Y-42244324D01*
X74495981Y-42183848D01*
X74435505Y-42123371D01*
X75947410Y-41518610D02*
X75826457Y-41458133D01*
X75765981Y-41397657D01*
X75705505Y-41276705D01*
X75705505Y-41216229D01*
X75765981Y-41095276D01*
X75826457Y-41034800D01*
X75947410Y-40974324D01*
X76189314Y-40974324D01*
X76310267Y-41034800D01*
X76370743Y-41095276D01*
X76431219Y-41216229D01*
X76431219Y-41276705D01*
X76370743Y-41397657D01*
X76310267Y-41458133D01*
X76189314Y-41518610D01*
X75947410Y-41518610D01*
X75826457Y-41579086D01*
X75765981Y-41639562D01*
X75705505Y-41760514D01*
X75705505Y-42002419D01*
X75765981Y-42123371D01*
X75826457Y-42183848D01*
X75947410Y-42244324D01*
X76189314Y-42244324D01*
X76310267Y-42183848D01*
X76370743Y-42123371D01*
X76431219Y-42002419D01*
X76431219Y-41760514D01*
X76370743Y-41639562D01*
X76310267Y-41579086D01*
X76189314Y-41518610D01*
X48939524Y-39279524D02*
X49060476Y-39279524D01*
X49181428Y-39340000D01*
X49241905Y-39400476D01*
X49302381Y-39521429D01*
X49362857Y-39763333D01*
X49362857Y-40065714D01*
X49302381Y-40307619D01*
X49241905Y-40428571D01*
X49181428Y-40489048D01*
X49060476Y-40549524D01*
X48939524Y-40549524D01*
X48818571Y-40489048D01*
X48758095Y-40428571D01*
X48697619Y-40307619D01*
X48637143Y-40065714D01*
X48637143Y-39763333D01*
X48697619Y-39521429D01*
X48758095Y-39400476D01*
X48818571Y-39340000D01*
X48939524Y-39279524D01*
X121037619Y-40074524D02*
X121037619Y-38804524D01*
X121521428Y-38804524D01*
X121642381Y-38865000D01*
X121702857Y-38925476D01*
X121763333Y-39046429D01*
X121763333Y-39227857D01*
X121702857Y-39348810D01*
X121642381Y-39409286D01*
X121521428Y-39469762D01*
X121037619Y-39469762D01*
X122186667Y-38804524D02*
X122972857Y-38804524D01*
X122549524Y-39288333D01*
X122730952Y-39288333D01*
X122851905Y-39348810D01*
X122912381Y-39409286D01*
X122972857Y-39530238D01*
X122972857Y-39832619D01*
X122912381Y-39953571D01*
X122851905Y-40014048D01*
X122730952Y-40074524D01*
X122368095Y-40074524D01*
X122247143Y-40014048D01*
X122186667Y-39953571D01*
X151203333Y-40674524D02*
X150477619Y-40674524D01*
X150840476Y-40674524D02*
X150840476Y-39404524D01*
X150719524Y-39585952D01*
X150598571Y-39706905D01*
X150477619Y-39767381D01*
X152412857Y-40674524D02*
X151687143Y-40674524D01*
X152050000Y-40674524D02*
X152050000Y-39404524D01*
X151929048Y-39585952D01*
X151808095Y-39706905D01*
X151687143Y-39767381D01*
X153138572Y-39948810D02*
X153017619Y-39888333D01*
X152957143Y-39827857D01*
X152896667Y-39706905D01*
X152896667Y-39646429D01*
X152957143Y-39525476D01*
X153017619Y-39465000D01*
X153138572Y-39404524D01*
X153380476Y-39404524D01*
X153501429Y-39465000D01*
X153561905Y-39525476D01*
X153622381Y-39646429D01*
X153622381Y-39706905D01*
X153561905Y-39827857D01*
X153501429Y-39888333D01*
X153380476Y-39948810D01*
X153138572Y-39948810D01*
X153017619Y-40009286D01*
X152957143Y-40069762D01*
X152896667Y-40190714D01*
X152896667Y-40432619D01*
X152957143Y-40553571D01*
X153017619Y-40614048D01*
X153138572Y-40674524D01*
X153380476Y-40674524D01*
X153501429Y-40614048D01*
X153561905Y-40553571D01*
X153622381Y-40432619D01*
X153622381Y-40190714D01*
X153561905Y-40069762D01*
X153501429Y-40009286D01*
X153380476Y-39948810D01*
X123924286Y-41523810D02*
X123803333Y-41463333D01*
X123742857Y-41402857D01*
X123682381Y-41281905D01*
X123682381Y-41221429D01*
X123742857Y-41100476D01*
X123803333Y-41040000D01*
X123924286Y-40979524D01*
X124166190Y-40979524D01*
X124287143Y-41040000D01*
X124347619Y-41100476D01*
X124408095Y-41221429D01*
X124408095Y-41281905D01*
X124347619Y-41402857D01*
X124287143Y-41463333D01*
X124166190Y-41523810D01*
X123924286Y-41523810D01*
X123803333Y-41584286D01*
X123742857Y-41644762D01*
X123682381Y-41765714D01*
X123682381Y-42007619D01*
X123742857Y-42128571D01*
X123803333Y-42189048D01*
X123924286Y-42249524D01*
X124166190Y-42249524D01*
X124287143Y-42189048D01*
X124347619Y-42128571D01*
X124408095Y-42007619D01*
X124408095Y-41765714D01*
X124347619Y-41644762D01*
X124287143Y-41584286D01*
X124166190Y-41523810D01*
X125194286Y-40979524D02*
X125315238Y-40979524D01*
X125436190Y-41040000D01*
X125496667Y-41100476D01*
X125557143Y-41221429D01*
X125617619Y-41463333D01*
X125617619Y-41765714D01*
X125557143Y-42007619D01*
X125496667Y-42128571D01*
X125436190Y-42189048D01*
X125315238Y-42249524D01*
X125194286Y-42249524D01*
X125073333Y-42189048D01*
X125012857Y-42128571D01*
X124952381Y-42007619D01*
X124891905Y-41765714D01*
X124891905Y-41463333D01*
X124952381Y-41221429D01*
X125012857Y-41100476D01*
X125073333Y-41040000D01*
X125194286Y-40979524D01*
D13*
X56785714Y-45152381D02*
X56785714Y-44152381D01*
X57166667Y-44152381D01*
X57261905Y-44200000D01*
X57309524Y-44247619D01*
X57357143Y-44342857D01*
X57357143Y-44485714D01*
X57309524Y-44580952D01*
X57261905Y-44628571D01*
X57166667Y-44676190D01*
X56785714Y-44676190D01*
X58309524Y-45152381D02*
X57738095Y-45152381D01*
X58023809Y-45152381D02*
X58023809Y-44152381D01*
X57928571Y-44295238D01*
X57833333Y-44390476D01*
X57738095Y-44438095D01*
X58928571Y-44152381D02*
X59023810Y-44152381D01*
X59119048Y-44200000D01*
X59166667Y-44247619D01*
X59214286Y-44342857D01*
X59261905Y-44533333D01*
X59261905Y-44771429D01*
X59214286Y-44961905D01*
X59166667Y-45057143D01*
X59119048Y-45104762D01*
X59023810Y-45152381D01*
X58928571Y-45152381D01*
X58833333Y-45104762D01*
X58785714Y-45057143D01*
X58738095Y-44961905D01*
X58690476Y-44771429D01*
X58690476Y-44533333D01*
X58738095Y-44342857D01*
X58785714Y-44247619D01*
X58833333Y-44200000D01*
X58928571Y-44152381D01*
X65704762Y-56047619D02*
X65609524Y-56000000D01*
X65514286Y-55904762D01*
X65371429Y-55761905D01*
X65276190Y-55714286D01*
X65180952Y-55714286D01*
X65228571Y-55952381D02*
X65133333Y-55904762D01*
X65038095Y-55809524D01*
X64990476Y-55619048D01*
X64990476Y-55285714D01*
X65038095Y-55095238D01*
X65133333Y-55000000D01*
X65228571Y-54952381D01*
X65419048Y-54952381D01*
X65514286Y-55000000D01*
X65609524Y-55095238D01*
X65657143Y-55285714D01*
X65657143Y-55619048D01*
X65609524Y-55809524D01*
X65514286Y-55904762D01*
X65419048Y-55952381D01*
X65228571Y-55952381D01*
X66609524Y-55952381D02*
X66038095Y-55952381D01*
X66323809Y-55952381D02*
X66323809Y-54952381D01*
X66228571Y-55095238D01*
X66133333Y-55190476D01*
X66038095Y-55238095D01*
X147566667Y-64002381D02*
X147566667Y-64716667D01*
X147519047Y-64859524D01*
X147423809Y-64954762D01*
X147280952Y-65002381D01*
X147185714Y-65002381D01*
X148042857Y-65002381D02*
X148042857Y-64002381D01*
X148423810Y-64002381D01*
X148519048Y-64050000D01*
X148566667Y-64097619D01*
X148614286Y-64192857D01*
X148614286Y-64335714D01*
X148566667Y-64430952D01*
X148519048Y-64478571D01*
X148423810Y-64526190D01*
X148042857Y-64526190D01*
X149566667Y-65002381D02*
X148995238Y-65002381D01*
X149280952Y-65002381D02*
X149280952Y-64002381D01*
X149185714Y-64145238D01*
X149090476Y-64240476D01*
X148995238Y-64288095D01*
X128316667Y-44452381D02*
X128316667Y-45166667D01*
X128269047Y-45309524D01*
X128173809Y-45404762D01*
X128030952Y-45452381D01*
X127935714Y-45452381D01*
X128792857Y-45452381D02*
X128792857Y-44452381D01*
X129173810Y-44452381D01*
X129269048Y-44500000D01*
X129316667Y-44547619D01*
X129364286Y-44642857D01*
X129364286Y-44785714D01*
X129316667Y-44880952D01*
X129269048Y-44928571D01*
X129173810Y-44976190D01*
X128792857Y-44976190D01*
X129745238Y-44547619D02*
X129792857Y-44500000D01*
X129888095Y-44452381D01*
X130126191Y-44452381D01*
X130221429Y-44500000D01*
X130269048Y-44547619D01*
X130316667Y-44642857D01*
X130316667Y-44738095D01*
X130269048Y-44880952D01*
X129697619Y-45452381D01*
X130316667Y-45452381D01*
D17*
X117062619Y-40074524D02*
X117062619Y-38804524D01*
X117546428Y-38804524D01*
X117667381Y-38865000D01*
X117727857Y-38925476D01*
X117788333Y-39046429D01*
X117788333Y-39227857D01*
X117727857Y-39348810D01*
X117667381Y-39409286D01*
X117546428Y-39469762D01*
X117062619Y-39469762D01*
X118937381Y-38804524D02*
X118332619Y-38804524D01*
X118272143Y-39409286D01*
X118332619Y-39348810D01*
X118453571Y-39288333D01*
X118755952Y-39288333D01*
X118876905Y-39348810D01*
X118937381Y-39409286D01*
X118997857Y-39530238D01*
X118997857Y-39832619D01*
X118937381Y-39953571D01*
X118876905Y-40014048D01*
X118755952Y-40074524D01*
X118453571Y-40074524D01*
X118332619Y-40014048D01*
X118272143Y-39953571D01*
X107896905Y-41279524D02*
X108743571Y-41279524D01*
X108199286Y-42549524D01*
X109408810Y-41823810D02*
X109287857Y-41763333D01*
X109227381Y-41702857D01*
X109166905Y-41581905D01*
X109166905Y-41521429D01*
X109227381Y-41400476D01*
X109287857Y-41340000D01*
X109408810Y-41279524D01*
X109650714Y-41279524D01*
X109771667Y-41340000D01*
X109832143Y-41400476D01*
X109892619Y-41521429D01*
X109892619Y-41581905D01*
X109832143Y-41702857D01*
X109771667Y-41763333D01*
X109650714Y-41823810D01*
X109408810Y-41823810D01*
X109287857Y-41884286D01*
X109227381Y-41944762D01*
X109166905Y-42065714D01*
X109166905Y-42307619D01*
X109227381Y-42428571D01*
X109287857Y-42489048D01*
X109408810Y-42549524D01*
X109650714Y-42549524D01*
X109771667Y-42489048D01*
X109832143Y-42428571D01*
X109892619Y-42307619D01*
X109892619Y-42065714D01*
X109832143Y-41944762D01*
X109771667Y-41884286D01*
X109650714Y-41823810D01*
X84462143Y-41702857D02*
X84462143Y-42549524D01*
X84159762Y-41219048D02*
X83857381Y-42126190D01*
X84643571Y-42126190D01*
X85369286Y-41279524D02*
X85490238Y-41279524D01*
X85611190Y-41340000D01*
X85671667Y-41400476D01*
X85732143Y-41521429D01*
X85792619Y-41763333D01*
X85792619Y-42065714D01*
X85732143Y-42307619D01*
X85671667Y-42428571D01*
X85611190Y-42489048D01*
X85490238Y-42549524D01*
X85369286Y-42549524D01*
X85248333Y-42489048D01*
X85187857Y-42428571D01*
X85127381Y-42307619D01*
X85066905Y-42065714D01*
X85066905Y-41763333D01*
X85127381Y-41521429D01*
X85187857Y-41400476D01*
X85248333Y-41340000D01*
X85369286Y-41279524D01*
D13*
X49057143Y-56066666D02*
X49104762Y-56114285D01*
X49152381Y-56257142D01*
X49152381Y-56352380D01*
X49104762Y-56495238D01*
X49009524Y-56590476D01*
X48914286Y-56638095D01*
X48723810Y-56685714D01*
X48580952Y-56685714D01*
X48390476Y-56638095D01*
X48295238Y-56590476D01*
X48200000Y-56495238D01*
X48152381Y-56352380D01*
X48152381Y-56257142D01*
X48200000Y-56114285D01*
X48247619Y-56066666D01*
X49152381Y-55114285D02*
X49152381Y-55685714D01*
X49152381Y-55400000D02*
X48152381Y-55400000D01*
X48295238Y-55495238D01*
X48390476Y-55590476D01*
X48438095Y-55685714D01*
X67057143Y-73666666D02*
X67104762Y-73714285D01*
X67152381Y-73857142D01*
X67152381Y-73952380D01*
X67104762Y-74095238D01*
X67009524Y-74190476D01*
X66914286Y-74238095D01*
X66723810Y-74285714D01*
X66580952Y-74285714D01*
X66390476Y-74238095D01*
X66295238Y-74190476D01*
X66200000Y-74095238D01*
X66152381Y-73952380D01*
X66152381Y-73857142D01*
X66200000Y-73714285D01*
X66247619Y-73666666D01*
X66247619Y-73285714D02*
X66200000Y-73238095D01*
X66152381Y-73142857D01*
X66152381Y-72904761D01*
X66200000Y-72809523D01*
X66247619Y-72761904D01*
X66342857Y-72714285D01*
X66438095Y-72714285D01*
X66580952Y-72761904D01*
X67152381Y-73333333D01*
X67152381Y-72714285D01*
X69357143Y-73666666D02*
X69404762Y-73714285D01*
X69452381Y-73857142D01*
X69452381Y-73952380D01*
X69404762Y-74095238D01*
X69309524Y-74190476D01*
X69214286Y-74238095D01*
X69023810Y-74285714D01*
X68880952Y-74285714D01*
X68690476Y-74238095D01*
X68595238Y-74190476D01*
X68500000Y-74095238D01*
X68452381Y-73952380D01*
X68452381Y-73857142D01*
X68500000Y-73714285D01*
X68547619Y-73666666D01*
X68452381Y-73333333D02*
X68452381Y-72714285D01*
X68833333Y-73047619D01*
X68833333Y-72904761D01*
X68880952Y-72809523D01*
X68928571Y-72761904D01*
X69023810Y-72714285D01*
X69261905Y-72714285D01*
X69357143Y-72761904D01*
X69404762Y-72809523D01*
X69452381Y-72904761D01*
X69452381Y-73190476D01*
X69404762Y-73285714D01*
X69357143Y-73333333D01*
X68752381Y-62361905D02*
X69561905Y-62361905D01*
X69657143Y-62314286D01*
X69704762Y-62266667D01*
X69752381Y-62171429D01*
X69752381Y-61980952D01*
X69704762Y-61885714D01*
X69657143Y-61838095D01*
X69561905Y-61790476D01*
X68752381Y-61790476D01*
X68847619Y-61361905D02*
X68800000Y-61314286D01*
X68752381Y-61219048D01*
X68752381Y-60980952D01*
X68800000Y-60885714D01*
X68847619Y-60838095D01*
X68942857Y-60790476D01*
X69038095Y-60790476D01*
X69180952Y-60838095D01*
X69752381Y-61409524D01*
X69752381Y-60790476D01*
X72538095Y-57352381D02*
X72871428Y-58352381D01*
X73204762Y-57352381D01*
X73728571Y-57352381D02*
X73919048Y-57352381D01*
X74014286Y-57400000D01*
X74109524Y-57495238D01*
X74157143Y-57685714D01*
X74157143Y-58019048D01*
X74109524Y-58209524D01*
X74014286Y-58304762D01*
X73919048Y-58352381D01*
X73728571Y-58352381D01*
X73633333Y-58304762D01*
X73538095Y-58209524D01*
X73490476Y-58019048D01*
X73490476Y-57685714D01*
X73538095Y-57495238D01*
X73633333Y-57400000D01*
X73728571Y-57352381D01*
X74585714Y-57352381D02*
X74585714Y-58161905D01*
X74633333Y-58257143D01*
X74680952Y-58304762D01*
X74776190Y-58352381D01*
X74966667Y-58352381D01*
X75061905Y-58304762D01*
X75109524Y-58257143D01*
X75157143Y-58161905D01*
X75157143Y-57352381D01*
X75490476Y-57352381D02*
X76061905Y-57352381D01*
X75776190Y-58352381D02*
X75776190Y-57352381D01*
X72604762Y-52352381D02*
X72938095Y-53352381D01*
X73271429Y-52352381D01*
X73604762Y-53352381D02*
X73604762Y-52352381D01*
X74080952Y-53352381D02*
X74080952Y-52352381D01*
X74652381Y-53352381D01*
X74652381Y-52352381D01*
X73238096Y-54900000D02*
X73142858Y-54852381D01*
X73000001Y-54852381D01*
X72857143Y-54900000D01*
X72761905Y-54995238D01*
X72714286Y-55090476D01*
X72666667Y-55280952D01*
X72666667Y-55423810D01*
X72714286Y-55614286D01*
X72761905Y-55709524D01*
X72857143Y-55804762D01*
X73000001Y-55852381D01*
X73095239Y-55852381D01*
X73238096Y-55804762D01*
X73285715Y-55757143D01*
X73285715Y-55423810D01*
X73095239Y-55423810D01*
X73714286Y-55852381D02*
X73714286Y-54852381D01*
X74285715Y-55852381D01*
X74285715Y-54852381D01*
X74761905Y-55852381D02*
X74761905Y-54852381D01*
X75000000Y-54852381D01*
X75142858Y-54900000D01*
X75238096Y-54995238D01*
X75285715Y-55090476D01*
X75333334Y-55280952D01*
X75333334Y-55423810D01*
X75285715Y-55614286D01*
X75238096Y-55709524D01*
X75142858Y-55804762D01*
X75000000Y-55852381D01*
X74761905Y-55852381D01*
X72661905Y-50228571D02*
X72995239Y-50228571D01*
X73138096Y-50752381D02*
X72661905Y-50752381D01*
X72661905Y-49752381D01*
X73138096Y-49752381D01*
X73566667Y-50752381D02*
X73566667Y-49752381D01*
X74138096Y-50752381D01*
X74138096Y-49752381D01*
X72638095Y-48252381D02*
X72638095Y-47252381D01*
X73019048Y-47252381D01*
X73114286Y-47300000D01*
X73161905Y-47347619D01*
X73209524Y-47442857D01*
X73209524Y-47585714D01*
X73161905Y-47680952D01*
X73114286Y-47728571D01*
X73019048Y-47776190D01*
X72638095Y-47776190D01*
X74161905Y-47300000D02*
X74066667Y-47252381D01*
X73923810Y-47252381D01*
X73780952Y-47300000D01*
X73685714Y-47395238D01*
X73638095Y-47490476D01*
X73590476Y-47680952D01*
X73590476Y-47823810D01*
X73638095Y-48014286D01*
X73685714Y-48109524D01*
X73780952Y-48204762D01*
X73923810Y-48252381D01*
X74019048Y-48252381D01*
X74161905Y-48204762D01*
X74209524Y-48157143D01*
X74209524Y-47823810D01*
X74019048Y-47823810D01*
D17*
X121801019Y-66960524D02*
X121801019Y-65690524D01*
X122284828Y-65690524D01*
X122405781Y-65751000D01*
X122466257Y-65811476D01*
X122526733Y-65932429D01*
X122526733Y-66113857D01*
X122466257Y-66234810D01*
X122405781Y-66295286D01*
X122284828Y-66355762D01*
X121801019Y-66355762D01*
X123010543Y-65811476D02*
X123071019Y-65751000D01*
X123191971Y-65690524D01*
X123494352Y-65690524D01*
X123615305Y-65751000D01*
X123675781Y-65811476D01*
X123736257Y-65932429D01*
X123736257Y-66053381D01*
X123675781Y-66234810D01*
X122950067Y-66960524D01*
X123736257Y-66960524D01*
X106674286Y-66223810D02*
X106553333Y-66163333D01*
X106492857Y-66102857D01*
X106432381Y-65981905D01*
X106432381Y-65921429D01*
X106492857Y-65800476D01*
X106553333Y-65740000D01*
X106674286Y-65679524D01*
X106916190Y-65679524D01*
X107037143Y-65740000D01*
X107097619Y-65800476D01*
X107158095Y-65921429D01*
X107158095Y-65981905D01*
X107097619Y-66102857D01*
X107037143Y-66163333D01*
X106916190Y-66223810D01*
X106674286Y-66223810D01*
X106553333Y-66284286D01*
X106492857Y-66344762D01*
X106432381Y-66465714D01*
X106432381Y-66707619D01*
X106492857Y-66828571D01*
X106553333Y-66889048D01*
X106674286Y-66949524D01*
X106916190Y-66949524D01*
X107037143Y-66889048D01*
X107097619Y-66828571D01*
X107158095Y-66707619D01*
X107158095Y-66465714D01*
X107097619Y-66344762D01*
X107037143Y-66284286D01*
X106916190Y-66223810D01*
X108367619Y-66949524D02*
X107641905Y-66949524D01*
X108004762Y-66949524D02*
X108004762Y-65679524D01*
X107883810Y-65860952D01*
X107762857Y-65981905D01*
X107641905Y-66042381D01*
X106799286Y-58673810D02*
X106678333Y-58613333D01*
X106617857Y-58552857D01*
X106557381Y-58431905D01*
X106557381Y-58371429D01*
X106617857Y-58250476D01*
X106678333Y-58190000D01*
X106799286Y-58129524D01*
X107041190Y-58129524D01*
X107162143Y-58190000D01*
X107222619Y-58250476D01*
X107283095Y-58371429D01*
X107283095Y-58431905D01*
X107222619Y-58552857D01*
X107162143Y-58613333D01*
X107041190Y-58673810D01*
X106799286Y-58673810D01*
X106678333Y-58734286D01*
X106617857Y-58794762D01*
X106557381Y-58915714D01*
X106557381Y-59157619D01*
X106617857Y-59278571D01*
X106678333Y-59339048D01*
X106799286Y-59399524D01*
X107041190Y-59399524D01*
X107162143Y-59339048D01*
X107222619Y-59278571D01*
X107283095Y-59157619D01*
X107283095Y-58915714D01*
X107222619Y-58794762D01*
X107162143Y-58734286D01*
X107041190Y-58673810D01*
X108069286Y-58129524D02*
X108190238Y-58129524D01*
X108311190Y-58190000D01*
X108371667Y-58250476D01*
X108432143Y-58371429D01*
X108492619Y-58613333D01*
X108492619Y-58915714D01*
X108432143Y-59157619D01*
X108371667Y-59278571D01*
X108311190Y-59339048D01*
X108190238Y-59399524D01*
X108069286Y-59399524D01*
X107948333Y-59339048D01*
X107887857Y-59278571D01*
X107827381Y-59157619D01*
X107766905Y-58915714D01*
X107766905Y-58613333D01*
X107827381Y-58371429D01*
X107887857Y-58250476D01*
X107948333Y-58190000D01*
X108069286Y-58129524D01*
X121801019Y-80560524D02*
X121801019Y-79290524D01*
X122284828Y-79290524D01*
X122405781Y-79351000D01*
X122466257Y-79411476D01*
X122526733Y-79532429D01*
X122526733Y-79713857D01*
X122466257Y-79834810D01*
X122405781Y-79895286D01*
X122284828Y-79955762D01*
X121801019Y-79955762D01*
X123615305Y-79713857D02*
X123615305Y-80560524D01*
X123312924Y-79230048D02*
X123010543Y-80137190D01*
X123796733Y-80137190D01*
X107087143Y-79677857D02*
X107087143Y-80524524D01*
X106784762Y-79194048D02*
X106482381Y-80101190D01*
X107268571Y-80101190D01*
X108417619Y-80524524D02*
X107691905Y-80524524D01*
X108054762Y-80524524D02*
X108054762Y-79254524D01*
X107933810Y-79435952D01*
X107812857Y-79556905D01*
X107691905Y-79617381D01*
X107037143Y-72127857D02*
X107037143Y-72974524D01*
X106734762Y-71644048D02*
X106432381Y-72551190D01*
X107218571Y-72551190D01*
X107944286Y-71704524D02*
X108065238Y-71704524D01*
X108186190Y-71765000D01*
X108246667Y-71825476D01*
X108307143Y-71946429D01*
X108367619Y-72188333D01*
X108367619Y-72490714D01*
X108307143Y-72732619D01*
X108246667Y-72853571D01*
X108186190Y-72914048D01*
X108065238Y-72974524D01*
X107944286Y-72974524D01*
X107823333Y-72914048D01*
X107762857Y-72853571D01*
X107702381Y-72732619D01*
X107641905Y-72490714D01*
X107641905Y-72188333D01*
X107702381Y-71946429D01*
X107762857Y-71825476D01*
X107823333Y-71765000D01*
X107944286Y-71704524D01*
X121801019Y-94160524D02*
X121801019Y-92890524D01*
X122284828Y-92890524D01*
X122405781Y-92951000D01*
X122466257Y-93011476D01*
X122526733Y-93132429D01*
X122526733Y-93313857D01*
X122466257Y-93434810D01*
X122405781Y-93495286D01*
X122284828Y-93555762D01*
X121801019Y-93555762D01*
X123615305Y-92890524D02*
X123373400Y-92890524D01*
X123252448Y-92951000D01*
X123191971Y-93011476D01*
X123071019Y-93192905D01*
X123010543Y-93434810D01*
X123010543Y-93918619D01*
X123071019Y-94039571D01*
X123131495Y-94100048D01*
X123252448Y-94160524D01*
X123494352Y-94160524D01*
X123615305Y-94100048D01*
X123675781Y-94039571D01*
X123736257Y-93918619D01*
X123736257Y-93616238D01*
X123675781Y-93495286D01*
X123615305Y-93434810D01*
X123494352Y-93374333D01*
X123252448Y-93374333D01*
X123131495Y-93434810D01*
X123071019Y-93495286D01*
X123010543Y-93616238D01*
X107912857Y-94224524D02*
X107187143Y-94224524D01*
X107550000Y-94224524D02*
X107550000Y-92954524D01*
X107429048Y-93135952D01*
X107308095Y-93256905D01*
X107187143Y-93317381D01*
X107539524Y-85304524D02*
X107660476Y-85304524D01*
X107781428Y-85365000D01*
X107841905Y-85425476D01*
X107902381Y-85546429D01*
X107962857Y-85788333D01*
X107962857Y-86090714D01*
X107902381Y-86332619D01*
X107841905Y-86453571D01*
X107781428Y-86514048D01*
X107660476Y-86574524D01*
X107539524Y-86574524D01*
X107418571Y-86514048D01*
X107358095Y-86453571D01*
X107297619Y-86332619D01*
X107237143Y-86090714D01*
X107237143Y-85788333D01*
X107297619Y-85546429D01*
X107358095Y-85425476D01*
X107418571Y-85365000D01*
X107539524Y-85304524D01*
D13*
X66361905Y-47152381D02*
X66361905Y-46152381D01*
X66600000Y-46152381D01*
X66742858Y-46200000D01*
X66838096Y-46295238D01*
X66885715Y-46390476D01*
X66933334Y-46580952D01*
X66933334Y-46723810D01*
X66885715Y-46914286D01*
X66838096Y-47009524D01*
X66742858Y-47104762D01*
X66600000Y-47152381D01*
X66361905Y-47152381D01*
X67885715Y-47152381D02*
X67314286Y-47152381D01*
X67600000Y-47152381D02*
X67600000Y-46152381D01*
X67504762Y-46295238D01*
X67409524Y-46390476D01*
X67314286Y-46438095D01*
X63633334Y-47252381D02*
X63300000Y-46776190D01*
X63061905Y-47252381D02*
X63061905Y-46252381D01*
X63442858Y-46252381D01*
X63538096Y-46300000D01*
X63585715Y-46347619D01*
X63633334Y-46442857D01*
X63633334Y-46585714D01*
X63585715Y-46680952D01*
X63538096Y-46728571D01*
X63442858Y-46776190D01*
X63061905Y-46776190D01*
X64585715Y-47252381D02*
X64014286Y-47252381D01*
X64300000Y-47252381D02*
X64300000Y-46252381D01*
X64204762Y-46395238D01*
X64109524Y-46490476D01*
X64014286Y-46538095D01*
X147352381Y-69366666D02*
X146876190Y-69700000D01*
X147352381Y-69938095D02*
X146352381Y-69938095D01*
X146352381Y-69557142D01*
X146400000Y-69461904D01*
X146447619Y-69414285D01*
X146542857Y-69366666D01*
X146685714Y-69366666D01*
X146780952Y-69414285D01*
X146828571Y-69461904D01*
X146876190Y-69557142D01*
X146876190Y-69938095D01*
X146352381Y-69033333D02*
X146352381Y-68366666D01*
X147352381Y-68795238D01*
X148302381Y-72261905D02*
X149111905Y-72261905D01*
X149207143Y-72214286D01*
X149254762Y-72166667D01*
X149302381Y-72071429D01*
X149302381Y-71880952D01*
X149254762Y-71785714D01*
X149207143Y-71738095D01*
X149111905Y-71690476D01*
X148302381Y-71690476D01*
X149302381Y-70690476D02*
X149302381Y-71261905D01*
X149302381Y-70976191D02*
X148302381Y-70976191D01*
X148445238Y-71071429D01*
X148540476Y-71166667D01*
X148588095Y-71261905D01*
X150466667Y-79914286D02*
X150466667Y-79438095D01*
X150752381Y-80009524D02*
X149752381Y-79676191D01*
X150752381Y-79342857D01*
X149752381Y-78819048D02*
X149752381Y-78723809D01*
X149800000Y-78628571D01*
X149847619Y-78580952D01*
X149942857Y-78533333D01*
X150133333Y-78485714D01*
X150371429Y-78485714D01*
X150561905Y-78533333D01*
X150657143Y-78580952D01*
X150704762Y-78628571D01*
X150752381Y-78723809D01*
X150752381Y-78819048D01*
X150704762Y-78914286D01*
X150657143Y-78961905D01*
X150561905Y-79009524D01*
X150371429Y-79057143D01*
X150133333Y-79057143D01*
X149942857Y-79009524D01*
X149847619Y-78961905D01*
X149800000Y-78914286D01*
X149752381Y-78819048D01*
X151766667Y-79914286D02*
X151766667Y-79438095D01*
X152052381Y-80009524D02*
X151052381Y-79676191D01*
X152052381Y-79342857D01*
X152052381Y-78485714D02*
X152052381Y-79057143D01*
X152052381Y-78771429D02*
X151052381Y-78771429D01*
X151195238Y-78866667D01*
X151290476Y-78961905D01*
X151338095Y-79057143D01*
X153066667Y-79914286D02*
X153066667Y-79438095D01*
X153352381Y-80009524D02*
X152352381Y-79676191D01*
X153352381Y-79342857D01*
X152447619Y-79057143D02*
X152400000Y-79009524D01*
X152352381Y-78914286D01*
X152352381Y-78676190D01*
X152400000Y-78580952D01*
X152447619Y-78533333D01*
X152542857Y-78485714D01*
X152638095Y-78485714D01*
X152780952Y-78533333D01*
X153352381Y-79104762D01*
X153352381Y-78485714D01*
D17*
X130150019Y-53361024D02*
X130150019Y-52091024D01*
X130633828Y-52091024D01*
X130754781Y-52151500D01*
X130815257Y-52211976D01*
X130875733Y-52332929D01*
X130875733Y-52514357D01*
X130815257Y-52635310D01*
X130754781Y-52695786D01*
X130633828Y-52756262D01*
X130150019Y-52756262D01*
X132085257Y-53361024D02*
X131359543Y-53361024D01*
X131722400Y-53361024D02*
X131722400Y-52091024D01*
X131601448Y-52272452D01*
X131480495Y-52393405D01*
X131359543Y-52453881D01*
X120425448Y-45426548D02*
X120606876Y-45487024D01*
X120909257Y-45487024D01*
X121030210Y-45426548D01*
X121090686Y-45366071D01*
X121151162Y-45245119D01*
X121151162Y-45124167D01*
X121090686Y-45003214D01*
X121030210Y-44942738D01*
X120909257Y-44882262D01*
X120667353Y-44821786D01*
X120546400Y-44761310D01*
X120485924Y-44700833D01*
X120425448Y-44579881D01*
X120425448Y-44458929D01*
X120485924Y-44337976D01*
X120546400Y-44277500D01*
X120667353Y-44217024D01*
X120969733Y-44217024D01*
X121151162Y-44277500D01*
X122118781Y-44821786D02*
X121695448Y-44821786D01*
X121695448Y-45487024D02*
X121695448Y-44217024D01*
X122300210Y-44217024D01*
X122784019Y-45487024D02*
X122784019Y-44217024D01*
X123207352Y-45124167D01*
X123630686Y-44217024D01*
X123630686Y-45487024D01*
X124235448Y-45003214D02*
X125203067Y-45003214D01*
X126473067Y-45487024D02*
X125747353Y-45487024D01*
X126110210Y-45487024D02*
X126110210Y-44217024D01*
X125989258Y-44398452D01*
X125868305Y-44519405D01*
X125747353Y-44579881D01*
X127259258Y-44217024D02*
X127380210Y-44217024D01*
X127501162Y-44277500D01*
X127561639Y-44337976D01*
X127622115Y-44458929D01*
X127682591Y-44700833D01*
X127682591Y-45003214D01*
X127622115Y-45245119D01*
X127561639Y-45366071D01*
X127501162Y-45426548D01*
X127380210Y-45487024D01*
X127259258Y-45487024D01*
X127138305Y-45426548D01*
X127077829Y-45366071D01*
X127017353Y-45245119D01*
X126956877Y-45003214D01*
X126956877Y-44700833D01*
X127017353Y-44458929D01*
X127077829Y-44337976D01*
X127138305Y-44277500D01*
X127259258Y-44217024D01*
X128831639Y-44217024D02*
X128226877Y-44217024D01*
X128166401Y-44821786D01*
X128226877Y-44761310D01*
X128347829Y-44700833D01*
X128650210Y-44700833D01*
X128771163Y-44761310D01*
X128831639Y-44821786D01*
X128892115Y-44942738D01*
X128892115Y-45245119D01*
X128831639Y-45366071D01*
X128771163Y-45426548D01*
X128650210Y-45487024D01*
X128347829Y-45487024D01*
X128226877Y-45426548D01*
X128166401Y-45366071D01*
X129436401Y-45003214D02*
X130404020Y-45003214D01*
X131250687Y-44217024D02*
X131371639Y-44217024D01*
X131492591Y-44277500D01*
X131553068Y-44337976D01*
X131613544Y-44458929D01*
X131674020Y-44700833D01*
X131674020Y-45003214D01*
X131613544Y-45245119D01*
X131553068Y-45366071D01*
X131492591Y-45426548D01*
X131371639Y-45487024D01*
X131250687Y-45487024D01*
X131129734Y-45426548D01*
X131069258Y-45366071D01*
X131008782Y-45245119D01*
X130948306Y-45003214D01*
X130948306Y-44700833D01*
X131008782Y-44458929D01*
X131069258Y-44337976D01*
X131129734Y-44277500D01*
X131250687Y-44217024D01*
X132157830Y-44337976D02*
X132218306Y-44277500D01*
X132339258Y-44217024D01*
X132641639Y-44217024D01*
X132762592Y-44277500D01*
X132823068Y-44337976D01*
X132883544Y-44458929D01*
X132883544Y-44579881D01*
X132823068Y-44761310D01*
X132097354Y-45487024D01*
X132883544Y-45487024D01*
X133427830Y-45003214D02*
X134395449Y-45003214D01*
X135604973Y-45487024D02*
X135000211Y-45487024D01*
X135000211Y-44217024D01*
X136028306Y-45003214D02*
X136995925Y-45003214D01*
X137600687Y-45487024D02*
X137600687Y-44217024D01*
X137903068Y-44217024D01*
X138084496Y-44277500D01*
X138205449Y-44398452D01*
X138265925Y-44519405D01*
X138326401Y-44761310D01*
X138326401Y-44942738D01*
X138265925Y-45184643D01*
X138205449Y-45305595D01*
X138084496Y-45426548D01*
X137903068Y-45487024D01*
X137600687Y-45487024D01*
X138870687Y-45003214D02*
X139838306Y-45003214D01*
X140382592Y-45124167D02*
X140987354Y-45124167D01*
X140261639Y-45487024D02*
X140684973Y-44217024D01*
X141108306Y-45487024D01*
X135768257Y-53361024D02*
X135042543Y-53361024D01*
X135405400Y-53361024D02*
X135405400Y-52091024D01*
X135284448Y-52272452D01*
X135163495Y-52393405D01*
X135042543Y-52453881D01*
X134915543Y-44337976D02*
X134976019Y-44277500D01*
X135096971Y-44217024D01*
X135399352Y-44217024D01*
X135520305Y-44277500D01*
X135580781Y-44337976D01*
X135641257Y-44458929D01*
X135641257Y-44579881D01*
X135580781Y-44761310D01*
X134855067Y-45487024D01*
X135641257Y-45487024D01*
D13*
X152857143Y-65966666D02*
X152904762Y-66014285D01*
X152952381Y-66157142D01*
X152952381Y-66252380D01*
X152904762Y-66395238D01*
X152809524Y-66490476D01*
X152714286Y-66538095D01*
X152523810Y-66585714D01*
X152380952Y-66585714D01*
X152190476Y-66538095D01*
X152095238Y-66490476D01*
X152000000Y-66395238D01*
X151952381Y-66252380D01*
X151952381Y-66157142D01*
X152000000Y-66014285D01*
X152047619Y-65966666D01*
X152285714Y-65109523D02*
X152952381Y-65109523D01*
X151904762Y-65347619D02*
X152619048Y-65585714D01*
X152619048Y-64966666D01*
M02*
