G04 #@! TF.FileFunction,Other,Fab,Top*
%FSLAX46Y46*%
G04 Gerber Fmt 4.6, Leading zero omitted, Abs format (unit mm)*
G04 Created by KiCad (PCBNEW 4.0.6) date 05/10/18 12:45:15*
%MOMM*%
%LPD*%
G01*
G04 APERTURE LIST*
%ADD10C,0.100000*%
%ADD11C,0.150000*%
%ADD12C,0.101600*%
%ADD13C,0.075000*%
G04 APERTURE END LIST*
D10*
X55450000Y-45590000D02*
X55450000Y-55490000D01*
X61750000Y-45540000D02*
X54250000Y-45540000D01*
X54250000Y-45540000D02*
X54250000Y-55540000D01*
X54250000Y-55540000D02*
X61750000Y-55540000D01*
X61750000Y-55540000D02*
X61750000Y-45540000D01*
X144500000Y-65220000D02*
X144500000Y-63980000D01*
X146500000Y-65220000D02*
X144500000Y-65220000D01*
X146500000Y-63980000D02*
X146500000Y-65220000D01*
X144500000Y-63980000D02*
X146500000Y-63980000D01*
X133200000Y-44380000D02*
X133200000Y-45620000D01*
X131200000Y-44380000D02*
X133200000Y-44380000D01*
X131200000Y-45620000D02*
X131200000Y-44380000D01*
X133200000Y-45620000D02*
X131200000Y-45620000D01*
X49220000Y-59600000D02*
X47980000Y-59600000D01*
X49220000Y-57600000D02*
X49220000Y-59600000D01*
X47980000Y-57600000D02*
X49220000Y-57600000D01*
X47980000Y-59600000D02*
X47980000Y-57600000D01*
X66080000Y-75500000D02*
X67320000Y-75500000D01*
X66080000Y-77500000D02*
X66080000Y-75500000D01*
X67320000Y-77500000D02*
X66080000Y-77500000D01*
X67320000Y-75500000D02*
X67320000Y-77500000D01*
X68380000Y-75500000D02*
X69620000Y-75500000D01*
X68380000Y-77500000D02*
X68380000Y-75500000D01*
X69620000Y-77500000D02*
X68380000Y-77500000D01*
X69620000Y-75500000D02*
X69620000Y-77500000D01*
X52154066Y-44000000D02*
G75*
G03X52154066Y-44000000I-2154066J0D01*
G01*
X152154066Y-44000000D02*
G75*
G03X152154066Y-44000000I-2154066J0D01*
G01*
X152154066Y-84000000D02*
G75*
G03X152154066Y-84000000I-2154066J0D01*
G01*
X70154066Y-86000000D02*
G75*
G03X70154066Y-86000000I-2154066J0D01*
G01*
X66900000Y-48300000D02*
X66650000Y-48300000D01*
X66900000Y-47950000D02*
X67400000Y-48300000D01*
X66900000Y-48650000D02*
X66900000Y-47950000D01*
X67400000Y-48300000D02*
X66900000Y-48650000D01*
X67400000Y-48300000D02*
X67600000Y-48300000D01*
X67400000Y-48650000D02*
X67400000Y-47950000D01*
X68000000Y-47600000D02*
X68000000Y-49000000D01*
X66200000Y-47600000D02*
X68000000Y-47600000D01*
X66200000Y-49000000D02*
X66200000Y-47600000D01*
X68000000Y-49000000D02*
X66200000Y-49000000D01*
X64800000Y-47680000D02*
X64800000Y-48920000D01*
X62800000Y-47680000D02*
X64800000Y-47680000D01*
X62800000Y-48920000D02*
X62800000Y-47680000D01*
X64800000Y-48920000D02*
X62800000Y-48920000D01*
X147880000Y-68100000D02*
X149120000Y-68100000D01*
X147880000Y-70100000D02*
X147880000Y-68100000D01*
X149120000Y-70100000D02*
X147880000Y-70100000D01*
X149120000Y-68100000D02*
X149120000Y-70100000D01*
D11*
X149900000Y-72700000D02*
X149900000Y-69300000D01*
X149900000Y-69300000D02*
X152900000Y-69300000D01*
X152900000Y-69300000D02*
X152900000Y-73700000D01*
X152900000Y-73700000D02*
X150900000Y-73700000D01*
X150900000Y-73700000D02*
X149900000Y-72700000D01*
D10*
X150500000Y-77800000D02*
X149700000Y-77800000D01*
X150500000Y-76200000D02*
X150500000Y-77800000D01*
X149700000Y-76200000D02*
X150500000Y-76200000D01*
X149700000Y-77800000D02*
X149700000Y-76200000D01*
X151800000Y-77800000D02*
X151000000Y-77800000D01*
X151800000Y-76200000D02*
X151800000Y-77800000D01*
X151000000Y-76200000D02*
X151800000Y-76200000D01*
X151000000Y-77800000D02*
X151000000Y-76200000D01*
X153100000Y-77800000D02*
X152300000Y-77800000D01*
X153100000Y-76200000D02*
X153100000Y-77800000D01*
X152300000Y-76200000D02*
X153100000Y-76200000D01*
X152300000Y-77800000D02*
X152300000Y-76200000D01*
X151420000Y-66800000D02*
X150180000Y-66800000D01*
X151420000Y-64800000D02*
X151420000Y-66800000D01*
X150180000Y-64800000D02*
X151420000Y-64800000D01*
X150180000Y-66800000D02*
X150180000Y-64800000D01*
D11*
X54180953Y-89235381D02*
X53609524Y-89235381D01*
X53895238Y-89235381D02*
X53895238Y-88235381D01*
X53800000Y-88378238D01*
X53704762Y-88473476D01*
X53609524Y-88521095D01*
X54609524Y-89140143D02*
X54657143Y-89187762D01*
X54609524Y-89235381D01*
X54561905Y-89187762D01*
X54609524Y-89140143D01*
X54609524Y-89235381D01*
X55228571Y-88663952D02*
X55133333Y-88616333D01*
X55085714Y-88568714D01*
X55038095Y-88473476D01*
X55038095Y-88425857D01*
X55085714Y-88330619D01*
X55133333Y-88283000D01*
X55228571Y-88235381D01*
X55419048Y-88235381D01*
X55514286Y-88283000D01*
X55561905Y-88330619D01*
X55609524Y-88425857D01*
X55609524Y-88473476D01*
X55561905Y-88568714D01*
X55514286Y-88616333D01*
X55419048Y-88663952D01*
X55228571Y-88663952D01*
X55133333Y-88711571D01*
X55085714Y-88759190D01*
X55038095Y-88854429D01*
X55038095Y-89044905D01*
X55085714Y-89140143D01*
X55133333Y-89187762D01*
X55228571Y-89235381D01*
X55419048Y-89235381D01*
X55514286Y-89187762D01*
X55561905Y-89140143D01*
X55609524Y-89044905D01*
X55609524Y-88854429D01*
X55561905Y-88759190D01*
X55514286Y-88711571D01*
X55419048Y-88663952D01*
X56038095Y-89235381D02*
X56038095Y-88568714D01*
X56038095Y-88663952D02*
X56085714Y-88616333D01*
X56180952Y-88568714D01*
X56323810Y-88568714D01*
X56419048Y-88616333D01*
X56466667Y-88711571D01*
X56466667Y-89235381D01*
X56466667Y-88711571D02*
X56514286Y-88616333D01*
X56609524Y-88568714D01*
X56752381Y-88568714D01*
X56847619Y-88616333D01*
X56895238Y-88711571D01*
X56895238Y-89235381D01*
X57371428Y-89235381D02*
X57371428Y-88235381D01*
X57371428Y-88711571D02*
X57942857Y-88711571D01*
X57942857Y-89235381D02*
X57942857Y-88235381D01*
X143095239Y-65802381D02*
X143095239Y-66516667D01*
X143047619Y-66659524D01*
X142952381Y-66754762D01*
X142809524Y-66802381D01*
X142714286Y-66802381D01*
X143571429Y-65802381D02*
X143571429Y-66611905D01*
X143619048Y-66707143D01*
X143666667Y-66754762D01*
X143761905Y-66802381D01*
X143952382Y-66802381D01*
X144047620Y-66754762D01*
X144095239Y-66707143D01*
X144142858Y-66611905D01*
X144142858Y-65802381D01*
X144619048Y-66802381D02*
X144619048Y-65802381D01*
X144952382Y-66516667D01*
X145285715Y-65802381D01*
X145285715Y-66802381D01*
X145761905Y-66802381D02*
X145761905Y-65802381D01*
X146142858Y-65802381D01*
X146238096Y-65850000D01*
X146285715Y-65897619D01*
X146333334Y-65992857D01*
X146333334Y-66135714D01*
X146285715Y-66230952D01*
X146238096Y-66278571D01*
X146142858Y-66326190D01*
X145761905Y-66326190D01*
X146761905Y-66278571D02*
X147095239Y-66278571D01*
X147238096Y-66802381D02*
X146761905Y-66802381D01*
X146761905Y-65802381D01*
X147238096Y-65802381D01*
X148238096Y-66802381D02*
X147904762Y-66326190D01*
X147666667Y-66802381D02*
X147666667Y-65802381D01*
X148047620Y-65802381D01*
X148142858Y-65850000D01*
X148190477Y-65897619D01*
X148238096Y-65992857D01*
X148238096Y-66135714D01*
X148190477Y-66230952D01*
X148142858Y-66278571D01*
X148047620Y-66326190D01*
X147666667Y-66326190D01*
X147566667Y-64002381D02*
X147566667Y-64716667D01*
X147519047Y-64859524D01*
X147423809Y-64954762D01*
X147280952Y-65002381D01*
X147185714Y-65002381D01*
X148042857Y-65002381D02*
X148042857Y-64002381D01*
X148423810Y-64002381D01*
X148519048Y-64050000D01*
X148566667Y-64097619D01*
X148614286Y-64192857D01*
X148614286Y-64335714D01*
X148566667Y-64430952D01*
X148519048Y-64478571D01*
X148423810Y-64526190D01*
X148042857Y-64526190D01*
X149566667Y-65002381D02*
X148995238Y-65002381D01*
X149280952Y-65002381D02*
X149280952Y-64002381D01*
X149185714Y-64145238D01*
X149090476Y-64240476D01*
X148995238Y-64288095D01*
X129795239Y-42702381D02*
X129795239Y-43416667D01*
X129747619Y-43559524D01*
X129652381Y-43654762D01*
X129509524Y-43702381D01*
X129414286Y-43702381D01*
X130271429Y-42702381D02*
X130271429Y-43511905D01*
X130319048Y-43607143D01*
X130366667Y-43654762D01*
X130461905Y-43702381D01*
X130652382Y-43702381D01*
X130747620Y-43654762D01*
X130795239Y-43607143D01*
X130842858Y-43511905D01*
X130842858Y-42702381D01*
X131319048Y-43702381D02*
X131319048Y-42702381D01*
X131652382Y-43416667D01*
X131985715Y-42702381D01*
X131985715Y-43702381D01*
X132461905Y-43702381D02*
X132461905Y-42702381D01*
X132842858Y-42702381D01*
X132938096Y-42750000D01*
X132985715Y-42797619D01*
X133033334Y-42892857D01*
X133033334Y-43035714D01*
X132985715Y-43130952D01*
X132938096Y-43178571D01*
X132842858Y-43226190D01*
X132461905Y-43226190D01*
X133461905Y-43178571D02*
X133795239Y-43178571D01*
X133938096Y-43702381D02*
X133461905Y-43702381D01*
X133461905Y-42702381D01*
X133938096Y-42702381D01*
X134938096Y-43702381D02*
X134604762Y-43226190D01*
X134366667Y-43702381D02*
X134366667Y-42702381D01*
X134747620Y-42702381D01*
X134842858Y-42750000D01*
X134890477Y-42797619D01*
X134938096Y-42892857D01*
X134938096Y-43035714D01*
X134890477Y-43130952D01*
X134842858Y-43178571D01*
X134747620Y-43226190D01*
X134366667Y-43226190D01*
X128316667Y-44452381D02*
X128316667Y-45166667D01*
X128269047Y-45309524D01*
X128173809Y-45404762D01*
X128030952Y-45452381D01*
X127935714Y-45452381D01*
X128792857Y-45452381D02*
X128792857Y-44452381D01*
X129173810Y-44452381D01*
X129269048Y-44500000D01*
X129316667Y-44547619D01*
X129364286Y-44642857D01*
X129364286Y-44785714D01*
X129316667Y-44880952D01*
X129269048Y-44928571D01*
X129173810Y-44976190D01*
X128792857Y-44976190D01*
X129745238Y-44547619D02*
X129792857Y-44500000D01*
X129888095Y-44452381D01*
X130126191Y-44452381D01*
X130221429Y-44500000D01*
X130269048Y-44547619D01*
X130316667Y-44642857D01*
X130316667Y-44738095D01*
X130269048Y-44880952D01*
X129697619Y-45452381D01*
X130316667Y-45452381D01*
X49057143Y-56066666D02*
X49104762Y-56114285D01*
X49152381Y-56257142D01*
X49152381Y-56352380D01*
X49104762Y-56495238D01*
X49009524Y-56590476D01*
X48914286Y-56638095D01*
X48723810Y-56685714D01*
X48580952Y-56685714D01*
X48390476Y-56638095D01*
X48295238Y-56590476D01*
X48200000Y-56495238D01*
X48152381Y-56352380D01*
X48152381Y-56257142D01*
X48200000Y-56114285D01*
X48247619Y-56066666D01*
X49152381Y-55114285D02*
X49152381Y-55685714D01*
X49152381Y-55400000D02*
X48152381Y-55400000D01*
X48295238Y-55495238D01*
X48390476Y-55590476D01*
X48438095Y-55685714D01*
X65152381Y-78142857D02*
X65152381Y-78047618D01*
X65200000Y-77952380D01*
X65247619Y-77904761D01*
X65342857Y-77857142D01*
X65533333Y-77809523D01*
X65771429Y-77809523D01*
X65961905Y-77857142D01*
X66057143Y-77904761D01*
X66104762Y-77952380D01*
X66152381Y-78047618D01*
X66152381Y-78142857D01*
X66104762Y-78238095D01*
X66057143Y-78285714D01*
X65961905Y-78333333D01*
X65771429Y-78380952D01*
X65533333Y-78380952D01*
X65342857Y-78333333D01*
X65247619Y-78285714D01*
X65200000Y-78238095D01*
X65152381Y-78142857D01*
X66057143Y-77380952D02*
X66104762Y-77333333D01*
X66152381Y-77380952D01*
X66104762Y-77428571D01*
X66057143Y-77380952D01*
X66152381Y-77380952D01*
X66152381Y-76380952D02*
X66152381Y-76952381D01*
X66152381Y-76666667D02*
X65152381Y-76666667D01*
X65295238Y-76761905D01*
X65390476Y-76857143D01*
X65438095Y-76952381D01*
X65485714Y-75523809D02*
X66152381Y-75523809D01*
X65485714Y-75952381D02*
X66009524Y-75952381D01*
X66104762Y-75904762D01*
X66152381Y-75809524D01*
X66152381Y-75666666D01*
X66104762Y-75571428D01*
X66057143Y-75523809D01*
X65628571Y-74714285D02*
X65628571Y-75047619D01*
X66152381Y-75047619D02*
X65152381Y-75047619D01*
X65152381Y-74571428D01*
X67057143Y-73666666D02*
X67104762Y-73714285D01*
X67152381Y-73857142D01*
X67152381Y-73952380D01*
X67104762Y-74095238D01*
X67009524Y-74190476D01*
X66914286Y-74238095D01*
X66723810Y-74285714D01*
X66580952Y-74285714D01*
X66390476Y-74238095D01*
X66295238Y-74190476D01*
X66200000Y-74095238D01*
X66152381Y-73952380D01*
X66152381Y-73857142D01*
X66200000Y-73714285D01*
X66247619Y-73666666D01*
X66247619Y-73285714D02*
X66200000Y-73238095D01*
X66152381Y-73142857D01*
X66152381Y-72904761D01*
X66200000Y-72809523D01*
X66247619Y-72761904D01*
X66342857Y-72714285D01*
X66438095Y-72714285D01*
X66580952Y-72761904D01*
X67152381Y-73333333D01*
X67152381Y-72714285D01*
X67052381Y-78142857D02*
X67052381Y-78047618D01*
X67100000Y-77952380D01*
X67147619Y-77904761D01*
X67242857Y-77857142D01*
X67433333Y-77809523D01*
X67671429Y-77809523D01*
X67861905Y-77857142D01*
X67957143Y-77904761D01*
X68004762Y-77952380D01*
X68052381Y-78047618D01*
X68052381Y-78142857D01*
X68004762Y-78238095D01*
X67957143Y-78285714D01*
X67861905Y-78333333D01*
X67671429Y-78380952D01*
X67433333Y-78380952D01*
X67242857Y-78333333D01*
X67147619Y-78285714D01*
X67100000Y-78238095D01*
X67052381Y-78142857D01*
X67957143Y-77380952D02*
X68004762Y-77333333D01*
X68052381Y-77380952D01*
X68004762Y-77428571D01*
X67957143Y-77380952D01*
X68052381Y-77380952D01*
X68052381Y-76380952D02*
X68052381Y-76952381D01*
X68052381Y-76666667D02*
X67052381Y-76666667D01*
X67195238Y-76761905D01*
X67290476Y-76857143D01*
X67338095Y-76952381D01*
X67385714Y-75523809D02*
X68052381Y-75523809D01*
X67385714Y-75952381D02*
X67909524Y-75952381D01*
X68004762Y-75904762D01*
X68052381Y-75809524D01*
X68052381Y-75666666D01*
X68004762Y-75571428D01*
X67957143Y-75523809D01*
X67528571Y-74714285D02*
X67528571Y-75047619D01*
X68052381Y-75047619D02*
X67052381Y-75047619D01*
X67052381Y-74571428D01*
X69357143Y-73666666D02*
X69404762Y-73714285D01*
X69452381Y-73857142D01*
X69452381Y-73952380D01*
X69404762Y-74095238D01*
X69309524Y-74190476D01*
X69214286Y-74238095D01*
X69023810Y-74285714D01*
X68880952Y-74285714D01*
X68690476Y-74238095D01*
X68595238Y-74190476D01*
X68500000Y-74095238D01*
X68452381Y-73952380D01*
X68452381Y-73857142D01*
X68500000Y-73714285D01*
X68547619Y-73666666D01*
X68452381Y-73333333D02*
X68452381Y-72714285D01*
X68833333Y-73047619D01*
X68833333Y-72904761D01*
X68880952Y-72809523D01*
X68928571Y-72761904D01*
X69023810Y-72714285D01*
X69261905Y-72714285D01*
X69357143Y-72761904D01*
X69404762Y-72809523D01*
X69452381Y-72904761D01*
X69452381Y-73190476D01*
X69404762Y-73285714D01*
X69357143Y-73333333D01*
X89152381Y-59200000D02*
X88152381Y-59200000D01*
X88152381Y-58961905D01*
X88200000Y-58819047D01*
X88295238Y-58723809D01*
X88390476Y-58676190D01*
X88580952Y-58628571D01*
X88723810Y-58628571D01*
X88914286Y-58676190D01*
X89009524Y-58723809D01*
X89104762Y-58819047D01*
X89152381Y-58961905D01*
X89152381Y-59200000D01*
X88247619Y-58247619D02*
X88200000Y-58200000D01*
X88152381Y-58104762D01*
X88152381Y-57866666D01*
X88200000Y-57771428D01*
X88247619Y-57723809D01*
X88342857Y-57676190D01*
X88438095Y-57676190D01*
X88580952Y-57723809D01*
X89152381Y-58295238D01*
X89152381Y-57676190D01*
X88485714Y-56819047D02*
X89152381Y-56819047D01*
X88104762Y-57057143D02*
X88819048Y-57295238D01*
X88819048Y-56676190D01*
X88152381Y-56438095D02*
X89152381Y-56104762D01*
X88152381Y-55771428D01*
X88247619Y-55485714D02*
X88200000Y-55438095D01*
X88152381Y-55342857D01*
X88152381Y-55104761D01*
X88200000Y-55009523D01*
X88247619Y-54961904D01*
X88342857Y-54914285D01*
X88438095Y-54914285D01*
X88580952Y-54961904D01*
X89152381Y-55533333D01*
X89152381Y-54914285D01*
X88247619Y-54533333D02*
X88200000Y-54485714D01*
X88152381Y-54390476D01*
X88152381Y-54152380D01*
X88200000Y-54057142D01*
X88247619Y-54009523D01*
X88342857Y-53961904D01*
X88438095Y-53961904D01*
X88580952Y-54009523D01*
X89152381Y-54580952D01*
X89152381Y-53961904D01*
X88628571Y-53199999D02*
X88628571Y-53533333D01*
X89152381Y-53533333D02*
X88152381Y-53533333D01*
X88152381Y-53057142D01*
X88152381Y-52771428D02*
X88152381Y-52152380D01*
X88533333Y-52485714D01*
X88533333Y-52342856D01*
X88580952Y-52247618D01*
X88628571Y-52199999D01*
X88723810Y-52152380D01*
X88961905Y-52152380D01*
X89057143Y-52199999D01*
X89104762Y-52247618D01*
X89152381Y-52342856D01*
X89152381Y-52628571D01*
X89104762Y-52723809D01*
X89057143Y-52771428D01*
D12*
X112457448Y-72626048D02*
X112638876Y-72686524D01*
X112941257Y-72686524D01*
X113062210Y-72626048D01*
X113122686Y-72565571D01*
X113183162Y-72444619D01*
X113183162Y-72323667D01*
X113122686Y-72202714D01*
X113062210Y-72142238D01*
X112941257Y-72081762D01*
X112699353Y-72021286D01*
X112578400Y-71960810D01*
X112517924Y-71900333D01*
X112457448Y-71779381D01*
X112457448Y-71658429D01*
X112517924Y-71537476D01*
X112578400Y-71477000D01*
X112699353Y-71416524D01*
X113001733Y-71416524D01*
X113183162Y-71477000D01*
X114150781Y-72021286D02*
X113727448Y-72021286D01*
X113727448Y-72686524D02*
X113727448Y-71416524D01*
X114332210Y-71416524D01*
X114816019Y-72686524D02*
X114816019Y-71416524D01*
X115239352Y-72323667D01*
X115662686Y-71416524D01*
X115662686Y-72686524D01*
X116267448Y-72202714D02*
X117235067Y-72202714D01*
X118505067Y-72686524D02*
X117779353Y-72686524D01*
X118142210Y-72686524D02*
X118142210Y-71416524D01*
X118021258Y-71597952D01*
X117900305Y-71718905D01*
X117779353Y-71779381D01*
X118988877Y-71537476D02*
X119049353Y-71477000D01*
X119170305Y-71416524D01*
X119472686Y-71416524D01*
X119593639Y-71477000D01*
X119654115Y-71537476D01*
X119714591Y-71658429D01*
X119714591Y-71779381D01*
X119654115Y-71960810D01*
X118928401Y-72686524D01*
X119714591Y-72686524D01*
X120863639Y-71416524D02*
X120258877Y-71416524D01*
X120198401Y-72021286D01*
X120258877Y-71960810D01*
X120379829Y-71900333D01*
X120682210Y-71900333D01*
X120803163Y-71960810D01*
X120863639Y-72021286D01*
X120924115Y-72142238D01*
X120924115Y-72444619D01*
X120863639Y-72565571D01*
X120803163Y-72626048D01*
X120682210Y-72686524D01*
X120379829Y-72686524D01*
X120258877Y-72626048D01*
X120198401Y-72565571D01*
X121468401Y-72202714D02*
X122436020Y-72202714D01*
X123282687Y-71416524D02*
X123403639Y-71416524D01*
X123524591Y-71477000D01*
X123585068Y-71537476D01*
X123645544Y-71658429D01*
X123706020Y-71900333D01*
X123706020Y-72202714D01*
X123645544Y-72444619D01*
X123585068Y-72565571D01*
X123524591Y-72626048D01*
X123403639Y-72686524D01*
X123282687Y-72686524D01*
X123161734Y-72626048D01*
X123101258Y-72565571D01*
X123040782Y-72444619D01*
X122980306Y-72202714D01*
X122980306Y-71900333D01*
X123040782Y-71658429D01*
X123101258Y-71537476D01*
X123161734Y-71477000D01*
X123282687Y-71416524D01*
X124189830Y-71537476D02*
X124250306Y-71477000D01*
X124371258Y-71416524D01*
X124673639Y-71416524D01*
X124794592Y-71477000D01*
X124855068Y-71537476D01*
X124915544Y-71658429D01*
X124915544Y-71779381D01*
X124855068Y-71960810D01*
X124129354Y-72686524D01*
X124915544Y-72686524D01*
X125459830Y-72202714D02*
X126427449Y-72202714D01*
X127636973Y-72686524D02*
X127032211Y-72686524D01*
X127032211Y-71416524D01*
X128060306Y-72202714D02*
X129027925Y-72202714D01*
X129632687Y-72686524D02*
X129632687Y-71416524D01*
X129935068Y-71416524D01*
X130116496Y-71477000D01*
X130237449Y-71597952D01*
X130297925Y-71718905D01*
X130358401Y-71960810D01*
X130358401Y-72142238D01*
X130297925Y-72384143D01*
X130237449Y-72505095D01*
X130116496Y-72626048D01*
X129935068Y-72686524D01*
X129632687Y-72686524D01*
X130902687Y-72202714D02*
X131870306Y-72202714D01*
X132414592Y-72323667D02*
X133019354Y-72323667D01*
X132293639Y-72686524D02*
X132716973Y-71416524D01*
X133140306Y-72686524D01*
X112457448Y-86226048D02*
X112638876Y-86286524D01*
X112941257Y-86286524D01*
X113062210Y-86226048D01*
X113122686Y-86165571D01*
X113183162Y-86044619D01*
X113183162Y-85923667D01*
X113122686Y-85802714D01*
X113062210Y-85742238D01*
X112941257Y-85681762D01*
X112699353Y-85621286D01*
X112578400Y-85560810D01*
X112517924Y-85500333D01*
X112457448Y-85379381D01*
X112457448Y-85258429D01*
X112517924Y-85137476D01*
X112578400Y-85077000D01*
X112699353Y-85016524D01*
X113001733Y-85016524D01*
X113183162Y-85077000D01*
X114150781Y-85621286D02*
X113727448Y-85621286D01*
X113727448Y-86286524D02*
X113727448Y-85016524D01*
X114332210Y-85016524D01*
X114816019Y-86286524D02*
X114816019Y-85016524D01*
X115239352Y-85923667D01*
X115662686Y-85016524D01*
X115662686Y-86286524D01*
X116267448Y-85802714D02*
X117235067Y-85802714D01*
X118505067Y-86286524D02*
X117779353Y-86286524D01*
X118142210Y-86286524D02*
X118142210Y-85016524D01*
X118021258Y-85197952D01*
X117900305Y-85318905D01*
X117779353Y-85379381D01*
X118988877Y-85137476D02*
X119049353Y-85077000D01*
X119170305Y-85016524D01*
X119472686Y-85016524D01*
X119593639Y-85077000D01*
X119654115Y-85137476D01*
X119714591Y-85258429D01*
X119714591Y-85379381D01*
X119654115Y-85560810D01*
X118928401Y-86286524D01*
X119714591Y-86286524D01*
X120863639Y-85016524D02*
X120258877Y-85016524D01*
X120198401Y-85621286D01*
X120258877Y-85560810D01*
X120379829Y-85500333D01*
X120682210Y-85500333D01*
X120803163Y-85560810D01*
X120863639Y-85621286D01*
X120924115Y-85742238D01*
X120924115Y-86044619D01*
X120863639Y-86165571D01*
X120803163Y-86226048D01*
X120682210Y-86286524D01*
X120379829Y-86286524D01*
X120258877Y-86226048D01*
X120198401Y-86165571D01*
X121468401Y-85802714D02*
X122436020Y-85802714D01*
X123282687Y-85016524D02*
X123403639Y-85016524D01*
X123524591Y-85077000D01*
X123585068Y-85137476D01*
X123645544Y-85258429D01*
X123706020Y-85500333D01*
X123706020Y-85802714D01*
X123645544Y-86044619D01*
X123585068Y-86165571D01*
X123524591Y-86226048D01*
X123403639Y-86286524D01*
X123282687Y-86286524D01*
X123161734Y-86226048D01*
X123101258Y-86165571D01*
X123040782Y-86044619D01*
X122980306Y-85802714D01*
X122980306Y-85500333D01*
X123040782Y-85258429D01*
X123101258Y-85137476D01*
X123161734Y-85077000D01*
X123282687Y-85016524D01*
X124189830Y-85137476D02*
X124250306Y-85077000D01*
X124371258Y-85016524D01*
X124673639Y-85016524D01*
X124794592Y-85077000D01*
X124855068Y-85137476D01*
X124915544Y-85258429D01*
X124915544Y-85379381D01*
X124855068Y-85560810D01*
X124129354Y-86286524D01*
X124915544Y-86286524D01*
X125459830Y-85802714D02*
X126427449Y-85802714D01*
X127636973Y-86286524D02*
X127032211Y-86286524D01*
X127032211Y-85016524D01*
X128060306Y-85802714D02*
X129027925Y-85802714D01*
X129632687Y-86286524D02*
X129632687Y-85016524D01*
X129935068Y-85016524D01*
X130116496Y-85077000D01*
X130237449Y-85197952D01*
X130297925Y-85318905D01*
X130358401Y-85560810D01*
X130358401Y-85742238D01*
X130297925Y-85984143D01*
X130237449Y-86105095D01*
X130116496Y-86226048D01*
X129935068Y-86286524D01*
X129632687Y-86286524D01*
X130902687Y-85802714D02*
X131870306Y-85802714D01*
X132414592Y-85923667D02*
X133019354Y-85923667D01*
X132293639Y-86286524D02*
X132716973Y-85016524D01*
X133140306Y-86286524D01*
D11*
X66380953Y-46852381D02*
X65809524Y-46852381D01*
X66095238Y-46852381D02*
X66095238Y-45852381D01*
X66000000Y-45995238D01*
X65904762Y-46090476D01*
X65809524Y-46138095D01*
X67000000Y-45852381D02*
X67095239Y-45852381D01*
X67190477Y-45900000D01*
X67238096Y-45947619D01*
X67285715Y-46042857D01*
X67333334Y-46233333D01*
X67333334Y-46471429D01*
X67285715Y-46661905D01*
X67238096Y-46757143D01*
X67190477Y-46804762D01*
X67095239Y-46852381D01*
X67000000Y-46852381D01*
X66904762Y-46804762D01*
X66857143Y-46757143D01*
X66809524Y-46661905D01*
X66761905Y-46471429D01*
X66761905Y-46233333D01*
X66809524Y-46042857D01*
X66857143Y-45947619D01*
X66904762Y-45900000D01*
X67000000Y-45852381D01*
X67619048Y-45852381D02*
X67952381Y-46852381D01*
X68285715Y-45852381D01*
X66361905Y-47152381D02*
X66361905Y-46152381D01*
X66600000Y-46152381D01*
X66742858Y-46200000D01*
X66838096Y-46295238D01*
X66885715Y-46390476D01*
X66933334Y-46580952D01*
X66933334Y-46723810D01*
X66885715Y-46914286D01*
X66838096Y-47009524D01*
X66742858Y-47104762D01*
X66600000Y-47152381D01*
X66361905Y-47152381D01*
X67885715Y-47152381D02*
X67314286Y-47152381D01*
X67600000Y-47152381D02*
X67600000Y-46152381D01*
X67504762Y-46295238D01*
X67409524Y-46390476D01*
X67314286Y-46438095D01*
X63204762Y-47002381D02*
X62633333Y-47002381D01*
X62919047Y-47002381D02*
X62919047Y-46002381D01*
X62823809Y-46145238D01*
X62728571Y-46240476D01*
X62633333Y-46288095D01*
X63823809Y-46002381D02*
X63919048Y-46002381D01*
X64014286Y-46050000D01*
X64061905Y-46097619D01*
X64109524Y-46192857D01*
X64157143Y-46383333D01*
X64157143Y-46621429D01*
X64109524Y-46811905D01*
X64061905Y-46907143D01*
X64014286Y-46954762D01*
X63919048Y-47002381D01*
X63823809Y-47002381D01*
X63728571Y-46954762D01*
X63680952Y-46907143D01*
X63633333Y-46811905D01*
X63585714Y-46621429D01*
X63585714Y-46383333D01*
X63633333Y-46192857D01*
X63680952Y-46097619D01*
X63728571Y-46050000D01*
X63823809Y-46002381D01*
X64585714Y-47002381D02*
X64585714Y-46002381D01*
X64680952Y-46621429D02*
X64966667Y-47002381D01*
X64966667Y-46335714D02*
X64585714Y-46716667D01*
D13*
X63716667Y-48526190D02*
X63550000Y-48288095D01*
X63430953Y-48526190D02*
X63430953Y-48026190D01*
X63621429Y-48026190D01*
X63669048Y-48050000D01*
X63692857Y-48073810D01*
X63716667Y-48121429D01*
X63716667Y-48192857D01*
X63692857Y-48240476D01*
X63669048Y-48264286D01*
X63621429Y-48288095D01*
X63430953Y-48288095D01*
X64192857Y-48526190D02*
X63907143Y-48526190D01*
X64050000Y-48526190D02*
X64050000Y-48026190D01*
X64002381Y-48097619D01*
X63954762Y-48145238D01*
X63907143Y-48169048D01*
D11*
X147202381Y-69695238D02*
X147202381Y-70266667D01*
X147202381Y-69980953D02*
X146202381Y-69980953D01*
X146345238Y-70076191D01*
X146440476Y-70171429D01*
X146488095Y-70266667D01*
X146202381Y-69076191D02*
X146202381Y-68980952D01*
X146250000Y-68885714D01*
X146297619Y-68838095D01*
X146392857Y-68790476D01*
X146583333Y-68742857D01*
X146821429Y-68742857D01*
X147011905Y-68790476D01*
X147107143Y-68838095D01*
X147154762Y-68885714D01*
X147202381Y-68980952D01*
X147202381Y-69076191D01*
X147154762Y-69171429D01*
X147107143Y-69219048D01*
X147011905Y-69266667D01*
X146821429Y-69314286D01*
X146583333Y-69314286D01*
X146392857Y-69266667D01*
X146297619Y-69219048D01*
X146250000Y-69171429D01*
X146202381Y-69076191D01*
X147202381Y-68314286D02*
X146202381Y-68314286D01*
X146821429Y-68219048D02*
X147202381Y-67933333D01*
X146535714Y-67933333D02*
X146916667Y-68314286D01*
D13*
X148726190Y-69183333D02*
X148488095Y-69350000D01*
X148726190Y-69469047D02*
X148226190Y-69469047D01*
X148226190Y-69278571D01*
X148250000Y-69230952D01*
X148273810Y-69207143D01*
X148321429Y-69183333D01*
X148392857Y-69183333D01*
X148440476Y-69207143D01*
X148464286Y-69230952D01*
X148488095Y-69278571D01*
X148488095Y-69469047D01*
X148226190Y-69016666D02*
X148226190Y-68683333D01*
X148726190Y-68897619D01*
D11*
X153657143Y-74314286D02*
X153704762Y-74361905D01*
X153752381Y-74504762D01*
X153752381Y-74600000D01*
X153704762Y-74742858D01*
X153609524Y-74838096D01*
X153514286Y-74885715D01*
X153323810Y-74933334D01*
X153180952Y-74933334D01*
X152990476Y-74885715D01*
X152895238Y-74838096D01*
X152800000Y-74742858D01*
X152752381Y-74600000D01*
X152752381Y-74504762D01*
X152800000Y-74361905D01*
X152847619Y-74314286D01*
X153466667Y-73933334D02*
X153466667Y-73457143D01*
X153752381Y-74028572D02*
X152752381Y-73695239D01*
X153752381Y-73361905D01*
X152752381Y-73171429D02*
X152752381Y-72600000D01*
X153752381Y-72885715D02*
X152752381Y-72885715D01*
X152847619Y-72314286D02*
X152800000Y-72266667D01*
X152752381Y-72171429D01*
X152752381Y-71933333D01*
X152800000Y-71838095D01*
X152847619Y-71790476D01*
X152942857Y-71742857D01*
X153038095Y-71742857D01*
X153180952Y-71790476D01*
X153752381Y-72361905D01*
X153752381Y-71742857D01*
X153085714Y-70885714D02*
X153752381Y-70885714D01*
X152704762Y-71123810D02*
X153419048Y-71361905D01*
X153419048Y-70742857D01*
X153657143Y-69790476D02*
X153704762Y-69838095D01*
X153752381Y-69980952D01*
X153752381Y-70076190D01*
X153704762Y-70219048D01*
X153609524Y-70314286D01*
X153514286Y-70361905D01*
X153323810Y-70409524D01*
X153180952Y-70409524D01*
X152990476Y-70361905D01*
X152895238Y-70314286D01*
X152800000Y-70219048D01*
X152752381Y-70076190D01*
X152752381Y-69980952D01*
X152800000Y-69838095D01*
X152847619Y-69790476D01*
X153847619Y-69600000D02*
X153847619Y-68838095D01*
X153847619Y-68838095D02*
X153847619Y-68076190D01*
X151016667Y-72033333D02*
X151583333Y-72033333D01*
X151650000Y-72000000D01*
X151683333Y-71966667D01*
X151716667Y-71900000D01*
X151716667Y-71766667D01*
X151683333Y-71700000D01*
X151650000Y-71666667D01*
X151583333Y-71633333D01*
X151016667Y-71633333D01*
X151716667Y-70933334D02*
X151716667Y-71333334D01*
X151716667Y-71133334D02*
X151016667Y-71133334D01*
X151116667Y-71200000D01*
X151183333Y-71266667D01*
X151216667Y-71333334D01*
D13*
X149880952Y-77333333D02*
X150166667Y-77333333D01*
X150223810Y-77352381D01*
X150261905Y-77390476D01*
X150280952Y-77447619D01*
X150280952Y-77485714D01*
X150280952Y-77142857D02*
X149880952Y-77142857D01*
X149880952Y-76990476D01*
X149900000Y-76952381D01*
X149919048Y-76933333D01*
X149957143Y-76914285D01*
X150014286Y-76914285D01*
X150052381Y-76933333D01*
X150071429Y-76952381D01*
X150090476Y-76990476D01*
X150090476Y-77142857D01*
X149880952Y-76780952D02*
X149880952Y-76533333D01*
X150033333Y-76666666D01*
X150033333Y-76609524D01*
X150052381Y-76571428D01*
X150071429Y-76552381D01*
X150109524Y-76533333D01*
X150204762Y-76533333D01*
X150242857Y-76552381D01*
X150261905Y-76571428D01*
X150280952Y-76609524D01*
X150280952Y-76723809D01*
X150261905Y-76761905D01*
X150242857Y-76780952D01*
X151180952Y-77333333D02*
X151466667Y-77333333D01*
X151523810Y-77352381D01*
X151561905Y-77390476D01*
X151580952Y-77447619D01*
X151580952Y-77485714D01*
X151580952Y-77142857D02*
X151180952Y-77142857D01*
X151180952Y-76990476D01*
X151200000Y-76952381D01*
X151219048Y-76933333D01*
X151257143Y-76914285D01*
X151314286Y-76914285D01*
X151352381Y-76933333D01*
X151371429Y-76952381D01*
X151390476Y-76990476D01*
X151390476Y-77142857D01*
X151314286Y-76571428D02*
X151580952Y-76571428D01*
X151161905Y-76666666D02*
X151447619Y-76761905D01*
X151447619Y-76514285D01*
X152480952Y-77333333D02*
X152766667Y-77333333D01*
X152823810Y-77352381D01*
X152861905Y-77390476D01*
X152880952Y-77447619D01*
X152880952Y-77485714D01*
X152880952Y-77142857D02*
X152480952Y-77142857D01*
X152480952Y-76990476D01*
X152500000Y-76952381D01*
X152519048Y-76933333D01*
X152557143Y-76914285D01*
X152614286Y-76914285D01*
X152652381Y-76933333D01*
X152671429Y-76952381D01*
X152690476Y-76990476D01*
X152690476Y-77142857D01*
X152480952Y-76552381D02*
X152480952Y-76742857D01*
X152671429Y-76761905D01*
X152652381Y-76742857D01*
X152633333Y-76704762D01*
X152633333Y-76609524D01*
X152652381Y-76571428D01*
X152671429Y-76552381D01*
X152709524Y-76533333D01*
X152804762Y-76533333D01*
X152842857Y-76552381D01*
X152861905Y-76571428D01*
X152880952Y-76609524D01*
X152880952Y-76704762D01*
X152861905Y-76742857D01*
X152842857Y-76761905D01*
D11*
X152002381Y-67442857D02*
X152002381Y-67347618D01*
X152050000Y-67252380D01*
X152097619Y-67204761D01*
X152192857Y-67157142D01*
X152383333Y-67109523D01*
X152621429Y-67109523D01*
X152811905Y-67157142D01*
X152907143Y-67204761D01*
X152954762Y-67252380D01*
X153002381Y-67347618D01*
X153002381Y-67442857D01*
X152954762Y-67538095D01*
X152907143Y-67585714D01*
X152811905Y-67633333D01*
X152621429Y-67680952D01*
X152383333Y-67680952D01*
X152192857Y-67633333D01*
X152097619Y-67585714D01*
X152050000Y-67538095D01*
X152002381Y-67442857D01*
X152907143Y-66680952D02*
X152954762Y-66633333D01*
X153002381Y-66680952D01*
X152954762Y-66728571D01*
X152907143Y-66680952D01*
X153002381Y-66680952D01*
X153002381Y-65680952D02*
X153002381Y-66252381D01*
X153002381Y-65966667D02*
X152002381Y-65966667D01*
X152145238Y-66061905D01*
X152240476Y-66157143D01*
X152288095Y-66252381D01*
X152335714Y-64823809D02*
X153002381Y-64823809D01*
X152335714Y-65252381D02*
X152859524Y-65252381D01*
X152954762Y-65204762D01*
X153002381Y-65109524D01*
X153002381Y-64966666D01*
X152954762Y-64871428D01*
X152907143Y-64823809D01*
X152478571Y-64014285D02*
X152478571Y-64347619D01*
X153002381Y-64347619D02*
X152002381Y-64347619D01*
X152002381Y-63871428D01*
X152857143Y-65966666D02*
X152904762Y-66014285D01*
X152952381Y-66157142D01*
X152952381Y-66252380D01*
X152904762Y-66395238D01*
X152809524Y-66490476D01*
X152714286Y-66538095D01*
X152523810Y-66585714D01*
X152380952Y-66585714D01*
X152190476Y-66538095D01*
X152095238Y-66490476D01*
X152000000Y-66395238D01*
X151952381Y-66252380D01*
X151952381Y-66157142D01*
X152000000Y-66014285D01*
X152047619Y-65966666D01*
X152285714Y-65109523D02*
X152952381Y-65109523D01*
X151904762Y-65347619D02*
X152619048Y-65585714D01*
X152619048Y-64966666D01*
M02*
