G04 #@! TF.FileFunction,Other,Fab,Bot*
%FSLAX46Y46*%
G04 Gerber Fmt 4.6, Leading zero omitted, Abs format (unit mm)*
G04 Created by KiCad (PCBNEW 4.0.1-stable) date 2017-03-07 1:46:45 PM*
%MOMM*%
G01*
G04 APERTURE LIST*
%ADD10C,0.100000*%
%ADD11C,0.150000*%
G04 APERTURE END LIST*
D10*
X55200000Y-77320000D02*
X55200000Y-76080000D01*
X53200000Y-77320000D02*
X55200000Y-77320000D01*
X53200000Y-76080000D02*
X53200000Y-77320000D01*
X55200000Y-76080000D02*
X53200000Y-76080000D01*
X58050000Y-57120000D02*
X58050000Y-55880000D01*
X56050000Y-57120000D02*
X58050000Y-57120000D01*
X56050000Y-55880000D02*
X56050000Y-57120000D01*
X58050000Y-55880000D02*
X56050000Y-55880000D01*
X55430000Y-60100000D02*
X56670000Y-60100000D01*
X55430000Y-58100000D02*
X55430000Y-60100000D01*
X56670000Y-58100000D02*
X55430000Y-58100000D01*
X56670000Y-60100000D02*
X56670000Y-58100000D01*
X55480000Y-54850000D02*
X56720000Y-54850000D01*
X55480000Y-52850000D02*
X55480000Y-54850000D01*
X56720000Y-52850000D02*
X55480000Y-52850000D01*
X56720000Y-54850000D02*
X56720000Y-52850000D01*
D11*
X57066666Y-77057143D02*
X57114285Y-77104762D01*
X57257142Y-77152381D01*
X57352380Y-77152381D01*
X57495238Y-77104762D01*
X57590476Y-77009524D01*
X57638095Y-76914286D01*
X57685714Y-76723810D01*
X57685714Y-76580952D01*
X57638095Y-76390476D01*
X57590476Y-76295238D01*
X57495238Y-76200000D01*
X57352380Y-76152381D01*
X57257142Y-76152381D01*
X57114285Y-76200000D01*
X57066666Y-76247619D01*
X56114285Y-77152381D02*
X56685714Y-77152381D01*
X56400000Y-77152381D02*
X56400000Y-76152381D01*
X56495238Y-76295238D01*
X56590476Y-76390476D01*
X56685714Y-76438095D01*
X58016666Y-55257143D02*
X58064285Y-55304762D01*
X58207142Y-55352381D01*
X58302380Y-55352381D01*
X58445238Y-55304762D01*
X58540476Y-55209524D01*
X58588095Y-55114286D01*
X58635714Y-54923810D01*
X58635714Y-54780952D01*
X58588095Y-54590476D01*
X58540476Y-54495238D01*
X58445238Y-54400000D01*
X58302380Y-54352381D01*
X58207142Y-54352381D01*
X58064285Y-54400000D01*
X58016666Y-54447619D01*
X57159523Y-54685714D02*
X57159523Y-55352381D01*
X57397619Y-54304762D02*
X57635714Y-55019048D01*
X57016666Y-55019048D01*
X58683333Y-61328571D02*
X59016667Y-61328571D01*
X59016667Y-61852381D02*
X59016667Y-60852381D01*
X58540476Y-60852381D01*
X57826190Y-61328571D02*
X57683333Y-61376190D01*
X57635714Y-61423810D01*
X57588095Y-61519048D01*
X57588095Y-61661905D01*
X57635714Y-61757143D01*
X57683333Y-61804762D01*
X57778571Y-61852381D01*
X58159524Y-61852381D01*
X58159524Y-60852381D01*
X57826190Y-60852381D01*
X57730952Y-60900000D01*
X57683333Y-60947619D01*
X57635714Y-61042857D01*
X57635714Y-61138095D01*
X57683333Y-61233333D01*
X57730952Y-61280952D01*
X57826190Y-61328571D01*
X58159524Y-61328571D01*
X56635714Y-61852381D02*
X57207143Y-61852381D01*
X56921429Y-61852381D02*
X56921429Y-60852381D01*
X57016667Y-60995238D01*
X57111905Y-61090476D01*
X57207143Y-61138095D01*
X57528571Y-51716667D02*
X57528571Y-51383333D01*
X58052381Y-51383333D02*
X57052381Y-51383333D01*
X57052381Y-51859524D01*
X57528571Y-52573810D02*
X57576190Y-52716667D01*
X57623810Y-52764286D01*
X57719048Y-52811905D01*
X57861905Y-52811905D01*
X57957143Y-52764286D01*
X58004762Y-52716667D01*
X58052381Y-52621429D01*
X58052381Y-52240476D01*
X57052381Y-52240476D01*
X57052381Y-52573810D01*
X57100000Y-52669048D01*
X57147619Y-52716667D01*
X57242857Y-52764286D01*
X57338095Y-52764286D01*
X57433333Y-52716667D01*
X57480952Y-52669048D01*
X57528571Y-52573810D01*
X57528571Y-52240476D01*
X57147619Y-53192857D02*
X57100000Y-53240476D01*
X57052381Y-53335714D01*
X57052381Y-53573810D01*
X57100000Y-53669048D01*
X57147619Y-53716667D01*
X57242857Y-53764286D01*
X57338095Y-53764286D01*
X57480952Y-53716667D01*
X58052381Y-53145238D01*
X58052381Y-53764286D01*
M02*
