M48
;DRILL file {KiCad 4.0.1-stable} date 2017-04-28 7:39:01 AM
;FORMAT={2:4/ absolute / inch / suppress leading zeros}
FMAT,2
INCH,TZ
T1C0.016
T2C0.033
T3C0.039
T4C0.040
T5C0.050
T6C0.060
T7C0.120
%
G90
G05
M72
T1
X18543Y-17598
X19016Y-18150
X19134Y-22677
X20160Y-15095
X20160Y-15695
X20354Y-18150
X20413Y-14681
X20539Y-16142
X20660Y-15095
X20660Y-15695
X20669Y-17717
X20913Y-14657
X21067Y-16130
X21160Y-15095
X21160Y-15695
X21409Y-14571
X21409Y-16114
X21660Y-15095
X21660Y-15695
X21917Y-16161
X22160Y-15095
X22160Y-15695
X22409Y-16197
X22660Y-15095
X22660Y-15695
X23160Y-15095
X23160Y-15695
X23660Y-15095
X23660Y-15695
X24160Y-15095
X24160Y-15695
X24660Y-15095
X24660Y-15695
X24882Y-21142
X24882Y-21457
X24884Y-20829
X25160Y-15095
X25160Y-15695
X25660Y-15095
X25660Y-15695
X26160Y-15095
X26160Y-15695
X26181Y-30906
X26181Y-31693
X26660Y-15095
X26660Y-15695
X27160Y-15095
X27160Y-15695
X27165Y-30906
X27165Y-31693
X27660Y-15095
X27660Y-15695
X28160Y-15095
X28160Y-15695
X28660Y-15095
X28660Y-15695
X28858Y-22480
X28858Y-22795
X28858Y-23071
X29160Y-15095
X29160Y-15695
X29516Y-18346
X29575Y-18657
X29634Y-18969
X29660Y-15095
X29660Y-15695
X29693Y-19283
X29760Y-19594
X33370Y-15145
X33370Y-15745
X33819Y-23969
X33870Y-15145
X33870Y-15745
X33980Y-17138
X34071Y-23772
X34256Y-17386
X34319Y-23563
X34370Y-15145
X34370Y-15745
X34480Y-17634
X34571Y-23366
X34823Y-23161
X34870Y-15145
X34870Y-15745
X35075Y-22953
X35370Y-15145
X35370Y-15745
X35870Y-15145
X35870Y-15745
X36370Y-15145
X36370Y-15745
X36870Y-15145
X36870Y-15745
X37063Y-19185
X37063Y-19539
X37063Y-19894
X37063Y-20244
X37063Y-20598
X37063Y-20953
X37370Y-15145
X37370Y-15745
X37870Y-15145
X37870Y-15745
X38370Y-15145
X38370Y-15745
X38870Y-15145
X38870Y-15745
X39370Y-15145
X39370Y-15745
X39870Y-15145
X39870Y-15745
X40370Y-15145
X40370Y-15745
X40870Y-15145
X40870Y-15745
X41370Y-15145
X41370Y-15745
X41870Y-15145
X41870Y-15745
X42322Y-24049
X42322Y-25123
X42322Y-29404
X42322Y-30478
X42322Y-34758
X42322Y-35832
X42370Y-15145
X42370Y-15745
X42822Y-24049
X42822Y-25123
X42822Y-29404
X42822Y-30478
X42822Y-34758
X42822Y-35832
X42870Y-15145
X42870Y-15745
X43322Y-24049
X43322Y-25123
X43322Y-29404
X43322Y-30478
X43322Y-34758
X43322Y-35832
X43370Y-15145
X43370Y-15745
X43822Y-24049
X43822Y-25123
X43822Y-29404
X43822Y-30478
X43822Y-34758
X43822Y-35832
X43870Y-15145
X43870Y-15745
X44322Y-24049
X44322Y-25123
X44322Y-29404
X44322Y-30478
X44322Y-34758
X44322Y-35832
X44370Y-15145
X44370Y-15745
X44822Y-24049
X44822Y-25123
X44822Y-29404
X44822Y-30478
X44822Y-34758
X44822Y-35832
X44870Y-15145
X44870Y-15745
X45322Y-24049
X45322Y-25123
X45322Y-29404
X45322Y-30478
X45322Y-34758
X45322Y-35832
X45354Y-17201
X45370Y-15145
X45370Y-15745
X45822Y-24049
X45822Y-25123
X45822Y-29404
X45822Y-30478
X45822Y-34758
X45822Y-35832
X46083Y-17161
X46322Y-24049
X46322Y-25123
X46322Y-29404
X46322Y-30478
X46322Y-34758
X46322Y-35832
X46681Y-17240
X46822Y-24049
X46822Y-25123
X46822Y-29404
X46822Y-30478
X46822Y-34758
X46822Y-35832
X46850Y-16142
X47165Y-16457
X47268Y-17091
X47322Y-24049
X47322Y-25123
X47322Y-29404
X47322Y-30478
X47322Y-34758
X47322Y-35832
X47559Y-16850
X47822Y-24049
X47822Y-25123
X47822Y-29404
X47822Y-30478
X47822Y-34758
X47822Y-35832
X48322Y-24049
X48322Y-29404
X48322Y-30478
X48322Y-34758
X48322Y-35832
X48323Y-25122
X48822Y-24049
X48822Y-25123
X48822Y-29404
X48822Y-30478
X48822Y-34758
X48822Y-35832
X49080Y-15095
X49080Y-15695
X49322Y-24049
X49322Y-25123
X49322Y-29404
X49322Y-30478
X49322Y-34758
X49322Y-35832
X49580Y-15095
X49580Y-15695
X49822Y-24049
X49822Y-25123
X49822Y-29404
X49822Y-30478
X49822Y-34758
X49822Y-35832
X50080Y-15095
X50080Y-15695
X50322Y-24049
X50322Y-25123
X50322Y-29404
X50322Y-30478
X50322Y-34758
X50322Y-35832
X50580Y-15095
X50580Y-15695
X50822Y-24049
X50822Y-29404
X50822Y-30478
X50822Y-34758
X50822Y-35832
X50827Y-25110
X51080Y-15095
X51080Y-15695
X51322Y-24049
X51322Y-25123
X51322Y-29404
X51322Y-30478
X51322Y-34758
X51322Y-35832
X51580Y-15095
X51580Y-15695
X51822Y-24049
X51822Y-25123
X51822Y-29404
X51822Y-30478
X51823Y-34772
X51823Y-35807
X52047Y-17362
X52080Y-15095
X52080Y-15695
X52339Y-23094
X52580Y-15095
X52580Y-15695
X52822Y-25123
X53080Y-15095
X53080Y-15695
X53150Y-16260
X53322Y-25123
X53580Y-15095
X53580Y-15695
X53822Y-25123
X53822Y-30478
X54080Y-15095
X54080Y-15695
X54580Y-15095
X54580Y-15695
X54921Y-20669
X55080Y-15095
X55080Y-15695
X55580Y-15095
X55580Y-15695
X55583Y-29142
X55591Y-20984
X55594Y-22406
X55594Y-34567
X55886Y-20051
X55886Y-22587
X56080Y-15095
X56080Y-15695
X56102Y-35827
X56142Y-25118
X56142Y-30472
X56146Y-19768
X56146Y-22173
X56378Y-36063
X56417Y-18898
X56580Y-15095
X56580Y-15695
X56693Y-22402
X56693Y-23858
X56693Y-28740
X56693Y-34213
X56697Y-18697
X57080Y-15095
X57080Y-15695
X57244Y-21535
X57283Y-20709
X57323Y-36850
X57362Y-26063
X57362Y-31378
X57480Y-17717
X57580Y-15095
X57580Y-15695
X57657Y-25433
X57677Y-28189
X57677Y-33622
X57717Y-22913
X57831Y-21016
X58031Y-24173
X58080Y-15695
X58091Y-15089
X58580Y-15695
X58858Y-15197
X58937Y-23268
X59213Y-28465
X59764Y-31457
T2
X19140Y-13085
X19140Y-13975
X30680Y-13085
X30680Y-13975
X32350Y-13085
X32350Y-13975
X46390Y-13085
X46390Y-13975
X48060Y-13085
X48060Y-13975
X59600Y-13085
X59600Y-13975
T3
X19016Y-26043
X19016Y-30965
X24921Y-26043
X24921Y-30965
T4
X28059Y-18807
X28059Y-19807
X28059Y-20807
X28059Y-21807
X28059Y-22807
X59764Y-20441
X59764Y-21441
X59764Y-22441
T5
X41697Y-24586
X41697Y-29941
X41697Y-35295
X50634Y-19232
X53884Y-19232
X54947Y-24586
X54947Y-29941
X54947Y-35295
T6
X22835Y-18898
X22835Y-20898
T7
X19685Y-17323
X26772Y-33858
X59055Y-17323
X59055Y-33071
T0
M30
