G04 #@! TF.FileFunction,Soldermask,Top*
%FSLAX46Y46*%
G04 Gerber Fmt 4.6, Leading zero omitted, Abs format (unit mm)*
G04 Created by KiCad (PCBNEW 4.0.1-stable) date 2017-03-21 11:25:51 PM*
%MOMM*%
G01*
G04 APERTURE LIST*
%ADD10C,0.100000*%
%ADD11C,2.400000*%
%ADD12R,2.432000X2.127200*%
%ADD13O,2.432000X2.127200*%
%ADD14R,1.136600X1.543000*%
%ADD15C,1.670000*%
%ADD16R,3.400000X3.400000*%
%ADD17C,3.400000*%
%ADD18O,1.873200X1.009600*%
%ADD19R,1.100000X1.700000*%
%ADD20R,1.650000X1.400000*%
%ADD21C,2.432000*%
%ADD22C,4.464000*%
%ADD23C,2.150000*%
%ADD24R,1.136600X2.619960*%
G04 APERTURE END LIST*
D10*
D11*
X63300000Y-78650000D03*
X63300000Y-66150000D03*
X48300000Y-78650000D03*
X48300000Y-66150000D03*
D12*
X151800000Y-57000000D03*
D13*
X151800000Y-54460000D03*
X151800000Y-51920000D03*
D14*
X75336600Y-38342400D03*
X75336600Y-39866400D03*
X74066600Y-38342400D03*
X74066600Y-39866400D03*
X72796600Y-38342400D03*
X72796600Y-39866400D03*
X71526600Y-38342400D03*
X71526600Y-39866400D03*
X70256600Y-38342400D03*
X70256600Y-39866400D03*
X68986600Y-38342400D03*
X68986600Y-39866400D03*
X67716600Y-38342400D03*
X67716600Y-39866400D03*
X66446600Y-38342400D03*
X66446600Y-39866400D03*
X65176600Y-38342400D03*
X65176600Y-39866400D03*
X63906600Y-38342400D03*
X63906600Y-39866400D03*
X62636600Y-38342400D03*
X62636600Y-39866400D03*
X61366600Y-38342400D03*
X61366600Y-39866400D03*
X60096600Y-38342400D03*
X60096600Y-39866400D03*
X58826600Y-38342400D03*
X58826600Y-39866400D03*
X57556600Y-38342400D03*
X57556600Y-39866400D03*
X56286600Y-38342400D03*
X56286600Y-39866400D03*
X55016600Y-38342400D03*
X55016600Y-39866400D03*
X53746600Y-38342400D03*
X53746600Y-39866400D03*
X52476600Y-38342400D03*
X52476600Y-39866400D03*
X51206600Y-38342400D03*
X51206600Y-39866400D03*
D15*
X77927400Y-33237000D03*
X48615800Y-33237000D03*
X77927400Y-35497600D03*
X48615800Y-35497600D03*
D14*
X148793400Y-38342400D03*
X148793400Y-39866400D03*
X147523400Y-38342400D03*
X147523400Y-39866400D03*
X146253400Y-38342400D03*
X146253400Y-39866400D03*
X144983400Y-38342400D03*
X144983400Y-39866400D03*
X143713400Y-38342400D03*
X143713400Y-39866400D03*
X142443400Y-38342400D03*
X142443400Y-39866400D03*
X141173400Y-38342400D03*
X141173400Y-39866400D03*
X139903400Y-38342400D03*
X139903400Y-39866400D03*
X138633400Y-38342400D03*
X138633400Y-39866400D03*
X137363400Y-38342400D03*
X137363400Y-39866400D03*
X136093400Y-38342400D03*
X136093400Y-39866400D03*
X134823400Y-38342400D03*
X134823400Y-39866400D03*
X133553400Y-38342400D03*
X133553400Y-39866400D03*
X132283400Y-38342400D03*
X132283400Y-39866400D03*
X131013400Y-38342400D03*
X131013400Y-39866400D03*
X129743400Y-38342400D03*
X129743400Y-39866400D03*
X128473400Y-38342400D03*
X128473400Y-39866400D03*
X127203400Y-38342400D03*
X127203400Y-39866400D03*
X125933400Y-38342400D03*
X125933400Y-39866400D03*
X124663400Y-38342400D03*
X124663400Y-39866400D03*
D15*
X151384200Y-33237000D03*
X122072600Y-33237000D03*
X151384200Y-35497600D03*
X122072600Y-35497600D03*
D16*
X58000000Y-48000000D03*
D17*
X58000000Y-53080000D03*
D18*
X63206000Y-49095000D03*
X63206000Y-50365000D03*
X63206000Y-51635000D03*
X63206000Y-52905000D03*
X68794000Y-52905000D03*
X68794000Y-51635000D03*
X68794000Y-50365000D03*
X68794000Y-49095000D03*
D19*
X144550000Y-64600000D03*
X146450000Y-64600000D03*
X133150000Y-45000000D03*
X131250000Y-45000000D03*
D14*
X115240000Y-38469400D03*
X115240000Y-39993400D03*
X113970000Y-38469400D03*
X113970000Y-39993400D03*
X112700000Y-38469400D03*
X112700000Y-39993400D03*
X111430000Y-38469400D03*
X111430000Y-39993400D03*
X110160000Y-38469400D03*
X110160000Y-39993400D03*
X108890000Y-38469400D03*
X108890000Y-39993400D03*
X107620000Y-38469400D03*
X107620000Y-39993400D03*
X106350000Y-38469400D03*
X106350000Y-39993400D03*
X105080000Y-38469400D03*
X105080000Y-39993400D03*
X103810000Y-38469400D03*
X103810000Y-39993400D03*
X102540000Y-38469400D03*
X102540000Y-39993400D03*
X101270000Y-38469400D03*
X101270000Y-39993400D03*
X100000000Y-38469400D03*
X100000000Y-39993400D03*
X98730000Y-38469400D03*
X98730000Y-39993400D03*
X97460000Y-38469400D03*
X97460000Y-39993400D03*
X96190000Y-38469400D03*
X96190000Y-39993400D03*
X94920000Y-38469400D03*
X94920000Y-39993400D03*
X93650000Y-38469400D03*
X93650000Y-39993400D03*
X92380000Y-38469400D03*
X92380000Y-39993400D03*
X91110000Y-38469400D03*
X91110000Y-39993400D03*
X89840000Y-38469400D03*
X89840000Y-39993400D03*
X88570000Y-38469400D03*
X88570000Y-39993400D03*
X87300000Y-38469400D03*
X87300000Y-39993400D03*
X86030000Y-38469400D03*
X86030000Y-39993400D03*
X84760000Y-38469400D03*
X84760000Y-39993400D03*
D15*
X117830800Y-33237000D03*
X82169200Y-33237000D03*
X117830800Y-35497600D03*
X82169200Y-35497600D03*
D20*
X48600000Y-59600000D03*
X48600000Y-57600000D03*
X66500000Y-78500000D03*
X66500000Y-80500000D03*
X69000000Y-78500000D03*
X69000000Y-80500000D03*
D21*
X71270000Y-57930000D03*
X71270000Y-55390000D03*
X71270000Y-52850000D03*
X71270000Y-50310000D03*
X71270000Y-47770000D03*
D22*
X50000000Y-44000000D03*
X150000000Y-44000000D03*
X150000000Y-84000000D03*
X68000000Y-86000000D03*
D23*
X136865900Y-48849500D03*
D24*
X130198400Y-47485520D03*
X130198400Y-50213480D03*
X131468400Y-47485520D03*
X131468400Y-50213480D03*
X135278400Y-50213480D03*
X135278400Y-47485520D03*
X134008400Y-50213480D03*
X134008400Y-47485520D03*
X132738400Y-50213480D03*
X132738400Y-47485520D03*
D23*
X128610900Y-48849500D03*
D24*
X108768400Y-63812980D03*
X108768400Y-61085020D03*
X117658400Y-63812980D03*
X117658400Y-61085020D03*
X116388400Y-63812980D03*
X116388400Y-61085020D03*
X115118400Y-63812980D03*
X115118400Y-61085020D03*
X113848400Y-63812980D03*
X113848400Y-61085020D03*
X126548400Y-61085020D03*
X126548400Y-63812980D03*
X127818400Y-61085020D03*
X127818400Y-63812980D03*
X129088400Y-61085020D03*
X129088400Y-63812980D03*
X130358400Y-61085020D03*
X130358400Y-63812980D03*
X131628400Y-61085020D03*
X131628400Y-63812980D03*
X107498400Y-61085020D03*
X107498400Y-63812980D03*
X110038400Y-61085020D03*
X110038400Y-63812980D03*
X111308400Y-61085020D03*
X111308400Y-63812980D03*
X112578400Y-61085020D03*
X112578400Y-63812980D03*
X118928400Y-61085020D03*
X118928400Y-63812980D03*
X137978400Y-63812980D03*
X137978400Y-61085020D03*
X136708400Y-63812980D03*
X136708400Y-61085020D03*
X135438400Y-63812980D03*
X135438400Y-61085020D03*
X134168400Y-63812980D03*
X134168400Y-61085020D03*
X132898400Y-63812980D03*
X132898400Y-61085020D03*
X125278400Y-63812980D03*
X125278400Y-61085020D03*
X124008400Y-63812980D03*
X124008400Y-61085020D03*
X122738400Y-63812980D03*
X122738400Y-61085020D03*
X121468400Y-63812980D03*
X121468400Y-61085020D03*
X120198400Y-63812980D03*
X120198400Y-61085020D03*
D23*
X105910900Y-62449000D03*
X139565900Y-62449000D03*
D24*
X108768400Y-77412980D03*
X108768400Y-74685020D03*
X117658400Y-77412980D03*
X117658400Y-74685020D03*
X116388400Y-77412980D03*
X116388400Y-74685020D03*
X115118400Y-77412980D03*
X115118400Y-74685020D03*
X113848400Y-77412980D03*
X113848400Y-74685020D03*
X126548400Y-74685020D03*
X126548400Y-77412980D03*
X127818400Y-74685020D03*
X127818400Y-77412980D03*
X129088400Y-74685020D03*
X129088400Y-77412980D03*
X130358400Y-74685020D03*
X130358400Y-77412980D03*
X131628400Y-74685020D03*
X131628400Y-77412980D03*
X107498400Y-74685020D03*
X107498400Y-77412980D03*
X110038400Y-74685020D03*
X110038400Y-77412980D03*
X111308400Y-74685020D03*
X111308400Y-77412980D03*
X112578400Y-74685020D03*
X112578400Y-77412980D03*
X118928400Y-74685020D03*
X118928400Y-77412980D03*
X137978400Y-77412980D03*
X137978400Y-74685020D03*
X136708400Y-77412980D03*
X136708400Y-74685020D03*
X135438400Y-77412980D03*
X135438400Y-74685020D03*
X134168400Y-77412980D03*
X134168400Y-74685020D03*
X132898400Y-77412980D03*
X132898400Y-74685020D03*
X125278400Y-77412980D03*
X125278400Y-74685020D03*
X124008400Y-77412980D03*
X124008400Y-74685020D03*
X122738400Y-77412980D03*
X122738400Y-74685020D03*
X121468400Y-77412980D03*
X121468400Y-74685020D03*
X120198400Y-77412980D03*
X120198400Y-74685020D03*
D23*
X105910900Y-76049000D03*
X139565900Y-76049000D03*
D24*
X108768400Y-91012980D03*
X108768400Y-88285020D03*
X117658400Y-91012980D03*
X117658400Y-88285020D03*
X116388400Y-91012980D03*
X116388400Y-88285020D03*
X115118400Y-91012980D03*
X115118400Y-88285020D03*
X113848400Y-91012980D03*
X113848400Y-88285020D03*
X126548400Y-88285020D03*
X126548400Y-91012980D03*
X127818400Y-88285020D03*
X127818400Y-91012980D03*
X129088400Y-88285020D03*
X129088400Y-91012980D03*
X130358400Y-88285020D03*
X130358400Y-91012980D03*
X131628400Y-88285020D03*
X131628400Y-91012980D03*
X107498400Y-88285020D03*
X107498400Y-91012980D03*
X110038400Y-88285020D03*
X110038400Y-91012980D03*
X111308400Y-88285020D03*
X111308400Y-91012980D03*
X112578400Y-88285020D03*
X112578400Y-91012980D03*
X118928400Y-88285020D03*
X118928400Y-91012980D03*
X137978400Y-91012980D03*
X137978400Y-88285020D03*
X136708400Y-91012980D03*
X136708400Y-88285020D03*
X135438400Y-91012980D03*
X135438400Y-88285020D03*
X134168400Y-91012980D03*
X134168400Y-88285020D03*
X132898400Y-91012980D03*
X132898400Y-88285020D03*
X125278400Y-91012980D03*
X125278400Y-88285020D03*
X124008400Y-91012980D03*
X124008400Y-88285020D03*
X122738400Y-91012980D03*
X122738400Y-88285020D03*
X121468400Y-91012980D03*
X121468400Y-88285020D03*
X120198400Y-91012980D03*
X120198400Y-88285020D03*
D23*
X105910900Y-89649000D03*
X139565900Y-89649000D03*
M02*
