G04 #@! TF.FileFunction,Copper,L2,Inr,Plane*
%FSLAX46Y46*%
G04 Gerber Fmt 4.6, Leading zero omitted, Abs format (unit mm)*
G04 Created by KiCad (PCBNEW 4.0.1-stable) date 2017-03-21 11:25:51 PM*
%MOMM*%
G01*
G04 APERTURE LIST*
%ADD10C,0.100000*%
%ADD11C,2.000000*%
%ADD12R,2.032000X1.727200*%
%ADD13O,2.032000X1.727200*%
%ADD14C,1.270000*%
%ADD15R,3.000000X3.000000*%
%ADD16C,3.000000*%
%ADD17C,2.032000*%
%ADD18C,4.064000*%
%ADD19C,1.750000*%
%ADD20C,0.600000*%
%ADD21C,0.500000*%
%ADD22C,0.250000*%
%ADD23C,0.254000*%
G04 APERTURE END LIST*
D10*
D11*
X63300000Y-78650000D03*
X63300000Y-66150000D03*
X48300000Y-78650000D03*
X48300000Y-66150000D03*
D12*
X151800000Y-57000000D03*
D13*
X151800000Y-54460000D03*
X151800000Y-51920000D03*
D14*
X77927400Y-33237000D03*
X48615800Y-33237000D03*
X77927400Y-35497600D03*
X48615800Y-35497600D03*
X151384200Y-33237000D03*
X122072600Y-33237000D03*
X151384200Y-35497600D03*
X122072600Y-35497600D03*
D15*
X58000000Y-48000000D03*
D16*
X58000000Y-53080000D03*
D14*
X117830800Y-33237000D03*
X82169200Y-33237000D03*
X117830800Y-35497600D03*
X82169200Y-35497600D03*
D17*
X71270000Y-57930000D03*
X71270000Y-55390000D03*
X71270000Y-52850000D03*
X71270000Y-50310000D03*
X71270000Y-47770000D03*
D18*
X50000000Y-44000000D03*
X150000000Y-44000000D03*
X150000000Y-84000000D03*
X68000000Y-86000000D03*
D19*
X136865900Y-48849500D03*
X128610900Y-48849500D03*
X105910900Y-62449000D03*
X139565900Y-62449000D03*
X105910900Y-76049000D03*
X139565900Y-76049000D03*
X105910900Y-89649000D03*
X139565900Y-89649000D03*
D20*
X132940000Y-58660000D03*
X115200000Y-43690000D03*
X144000000Y-56900000D03*
X144010000Y-47490000D03*
X144000000Y-73000000D03*
X144000000Y-86900000D03*
X144000000Y-60600000D03*
X112700000Y-39993400D03*
X136708400Y-77412980D03*
X66500000Y-78500000D03*
X143300000Y-48000000D03*
X136708400Y-63812980D03*
X135438400Y-63812980D03*
X134168400Y-63812980D03*
X112700000Y-38469400D03*
X110160000Y-38469400D03*
X141950000Y-50930000D03*
X117050000Y-43590000D03*
X118570000Y-43790000D03*
X141950000Y-57370000D03*
X143200000Y-91600000D03*
X120060000Y-43410000D03*
X69000000Y-78500000D03*
X145500000Y-52600000D03*
X120800000Y-42800000D03*
X110160000Y-39993400D03*
X111430000Y-38469400D03*
X142610000Y-56320000D03*
X142610000Y-50210000D03*
X142600000Y-77400000D03*
X142600000Y-63800000D03*
X142500000Y-91000000D03*
X141180000Y-74020000D03*
X141210000Y-87800000D03*
X139500000Y-52500000D03*
X146890000Y-53380000D03*
X147400000Y-61400000D03*
X146000000Y-45000000D03*
X119800000Y-41800000D03*
X111430000Y-39993400D03*
X73300000Y-57900000D03*
X73300000Y-58600000D03*
X73300000Y-57100000D03*
X141200000Y-53300000D03*
X141210000Y-56910000D03*
X113970000Y-38469400D03*
X72796600Y-39866400D03*
X129088400Y-88285020D03*
X74066600Y-39866400D03*
X130358400Y-88285020D03*
X131630000Y-88320000D03*
X75336600Y-39866400D03*
X62636600Y-39866400D03*
X118928400Y-88285020D03*
X63906600Y-39866400D03*
X120198400Y-88285020D03*
X66446600Y-39866400D03*
X122738400Y-88285020D03*
X65176600Y-39866400D03*
X121468400Y-88285020D03*
X126548400Y-88285020D03*
X70256600Y-39866400D03*
X71526600Y-39866400D03*
X127818400Y-88285020D03*
X68986600Y-39866400D03*
X125278400Y-88285020D03*
X67716600Y-39866400D03*
X124008400Y-88285020D03*
X94140000Y-53220000D03*
X89090000Y-58300000D03*
X113848400Y-88285020D03*
X57556600Y-39866400D03*
X58826600Y-39866400D03*
X115118400Y-88285020D03*
X61366600Y-39866400D03*
X117658400Y-88285020D03*
X60096600Y-39866400D03*
X116388400Y-88285020D03*
X94140000Y-51420000D03*
X87810000Y-59350000D03*
X111308400Y-88285020D03*
X55016600Y-39866400D03*
X88450000Y-58830000D03*
X112578400Y-88285020D03*
X94140000Y-52320000D03*
X56286600Y-39866400D03*
X94140000Y-50530000D03*
X54380000Y-37010000D03*
X53746600Y-39866400D03*
X87170000Y-59850000D03*
X110038400Y-88285020D03*
X87580000Y-44790000D03*
X146450000Y-64600000D03*
X146600000Y-58200000D03*
X146500000Y-71600000D03*
X146500000Y-85400000D03*
X71526600Y-38342400D03*
X127818400Y-91012980D03*
X72796600Y-38342400D03*
X129088400Y-91012980D03*
X75336600Y-38342400D03*
X131630000Y-90950000D03*
X74066600Y-38342400D03*
X130358400Y-91012980D03*
X61366600Y-38342400D03*
X117658400Y-91012980D03*
X62636600Y-38342400D03*
X118928400Y-91012980D03*
X65176600Y-38342400D03*
X121468400Y-91012980D03*
X63906600Y-38342400D03*
X120198400Y-91012980D03*
X110038400Y-91012980D03*
X75270000Y-48180000D03*
X53746600Y-38342400D03*
X54380000Y-40930000D03*
X111308400Y-91012980D03*
X75120000Y-47390000D03*
X55016600Y-38342400D03*
X55670000Y-41050000D03*
X108768400Y-91012980D03*
X53510000Y-40970000D03*
X75420000Y-48980000D03*
X52476600Y-38342400D03*
X107498400Y-91012980D03*
X52170000Y-41000000D03*
X75590000Y-49770000D03*
X51206600Y-38342400D03*
X112578400Y-91012980D03*
X56920000Y-41140000D03*
X74970000Y-46600000D03*
X56286600Y-38342400D03*
X57556600Y-38342400D03*
X113848400Y-91012980D03*
X60096600Y-38342400D03*
X116388400Y-91012980D03*
X58826600Y-38342400D03*
X115118400Y-91012980D03*
X94140000Y-48730000D03*
X51850000Y-37290000D03*
X86310000Y-43530000D03*
X51206600Y-39866400D03*
X85900000Y-60880000D03*
X107498400Y-88285020D03*
X86540000Y-60380000D03*
X94140000Y-49630000D03*
X108768400Y-88285020D03*
X52476600Y-39866400D03*
X87010000Y-44160000D03*
X53120000Y-37230000D03*
X66446600Y-38342400D03*
X122738400Y-91012980D03*
X67716600Y-38342400D03*
X124008400Y-91012980D03*
X70256600Y-38342400D03*
X126548400Y-91012980D03*
X68986600Y-38342400D03*
X125278400Y-91012980D03*
X102540000Y-39993400D03*
X125278400Y-74685020D03*
X103810000Y-39993400D03*
X126548400Y-74685020D03*
X106350000Y-39993400D03*
X129088400Y-74685020D03*
X105080000Y-39993400D03*
X127818400Y-74685020D03*
X131628400Y-74685020D03*
X108890000Y-39993400D03*
X107620000Y-39993400D03*
X130358400Y-74685020D03*
X125278400Y-77412980D03*
X102540000Y-38469400D03*
X103810000Y-38469400D03*
X126548400Y-77412980D03*
X106350000Y-38469400D03*
X129088400Y-77412980D03*
X105080000Y-38469400D03*
X127818400Y-77412980D03*
X131628400Y-77412980D03*
X108890000Y-38469400D03*
X107620000Y-38469400D03*
X130358400Y-77412980D03*
X97460000Y-38469400D03*
X120198400Y-77412980D03*
X98730000Y-38469400D03*
X121468400Y-77412980D03*
X124008400Y-77412980D03*
X101270000Y-38469400D03*
X100000000Y-38469400D03*
X122738400Y-77412980D03*
X97460000Y-39993400D03*
X120198400Y-74685020D03*
X98730000Y-39993400D03*
X121468400Y-74685020D03*
X101270000Y-39993400D03*
X124008400Y-74685020D03*
X100000000Y-39993400D03*
X122738400Y-74685020D03*
X94920000Y-39993400D03*
X117658400Y-74685020D03*
X96190000Y-39993400D03*
X118928400Y-74685020D03*
X87300000Y-39993400D03*
X110038400Y-74685020D03*
X88570000Y-39993400D03*
X111308400Y-74685020D03*
X108768400Y-74685020D03*
X86030000Y-39993400D03*
X112578400Y-74685020D03*
X89840000Y-39993400D03*
X91110000Y-39993400D03*
X113848400Y-74685020D03*
X93650000Y-39993400D03*
X116388400Y-74685020D03*
X115118400Y-74685020D03*
X92380000Y-39993400D03*
X94920000Y-38469400D03*
X117658400Y-77412980D03*
X96190000Y-38469400D03*
X118928400Y-77412980D03*
X87300000Y-38469400D03*
X110038400Y-77412980D03*
X88570000Y-38469400D03*
X111308400Y-77412980D03*
X86030000Y-38469400D03*
X108768400Y-77412980D03*
X84760000Y-38469400D03*
X107498400Y-77412980D03*
X89840000Y-38469400D03*
X112578400Y-77412980D03*
X91110000Y-38469400D03*
X113848400Y-77412980D03*
X116388400Y-77412980D03*
X93650000Y-38469400D03*
X92380000Y-38469400D03*
X115118400Y-77412980D03*
X107498400Y-74685020D03*
X84760000Y-39993400D03*
X142443400Y-39866400D03*
X125278400Y-61085020D03*
X126548400Y-61085020D03*
X143713400Y-39866400D03*
X129088400Y-61085020D03*
X146253400Y-39866400D03*
X144983400Y-39866400D03*
X127818400Y-61085020D03*
X131628400Y-61085020D03*
X148793400Y-39866400D03*
X147523400Y-39866400D03*
X130358400Y-61085020D03*
X142443400Y-38342400D03*
X125278400Y-63812980D03*
X143713400Y-38342400D03*
X126548400Y-63812980D03*
X146253400Y-38342400D03*
X129100000Y-63780000D03*
X144983400Y-38342400D03*
X127818400Y-63812980D03*
X131628400Y-63812980D03*
X149500000Y-38600000D03*
X130358400Y-63812980D03*
X147550000Y-38325000D03*
X120198400Y-63812980D03*
X137363400Y-38342400D03*
X138633400Y-38342400D03*
X121468400Y-63812980D03*
X141173400Y-38342400D03*
X124008400Y-63812980D03*
X139903400Y-38342400D03*
X122740000Y-63810000D03*
X120198400Y-61085020D03*
X137363400Y-39866400D03*
X138633400Y-39866400D03*
X121468400Y-61085020D03*
X141173400Y-39866400D03*
X124008400Y-61085020D03*
X139903400Y-39866400D03*
X122738400Y-61085020D03*
X117658400Y-61085020D03*
X134823400Y-39866400D03*
X136093400Y-39866400D03*
X118928400Y-61085020D03*
X110038400Y-61085020D03*
X127203400Y-39866400D03*
X111308400Y-61085020D03*
X128473400Y-39866400D03*
X108768400Y-61085020D03*
X125933400Y-39866400D03*
X112578400Y-61085020D03*
X129743400Y-39866400D03*
X113848400Y-61085020D03*
X131013400Y-39866400D03*
X116388400Y-61085020D03*
X133553400Y-39866400D03*
X115118400Y-61085020D03*
X132283400Y-39866400D03*
X117658400Y-63812980D03*
X134823400Y-38342400D03*
X136093400Y-38342400D03*
X118928400Y-63812980D03*
X127203400Y-38342400D03*
X110038400Y-63812980D03*
X128473400Y-38342400D03*
X111308400Y-63812980D03*
X125933400Y-38342400D03*
X108768400Y-63812980D03*
X107498400Y-63812980D03*
X124663400Y-38342400D03*
X129743400Y-38342400D03*
X112578400Y-63812980D03*
X113848400Y-63812980D03*
X131013400Y-38342400D03*
X133553400Y-38342400D03*
X116388400Y-63812980D03*
X115118400Y-63812980D03*
X132283400Y-38342400D03*
X107498400Y-61085020D03*
X124663400Y-39866400D03*
X113970000Y-39993400D03*
X119000000Y-41000000D03*
X135000000Y-41300000D03*
X132200000Y-44100000D03*
X151800000Y-79900000D03*
X150400000Y-72300000D03*
X149700000Y-59100000D03*
X145400000Y-54700000D03*
X145700000Y-79700000D03*
X145700000Y-66200000D03*
X145600000Y-93600000D03*
X69000000Y-80500000D03*
X66500000Y-80500000D03*
X48600000Y-57600000D03*
X63200000Y-53700000D03*
X63200000Y-54500000D03*
X63206000Y-52905000D03*
X48300000Y-46100000D03*
X51700000Y-46100000D03*
X52500000Y-45000000D03*
X47100000Y-44700000D03*
X115240000Y-38469400D03*
X115240000Y-39993400D03*
D21*
X72200000Y-58600000D02*
X73300000Y-58600000D01*
X72200000Y-58600000D02*
X71530000Y-57930000D01*
X71270000Y-57930000D02*
X71530000Y-57930000D01*
X73300000Y-57100000D02*
X73300000Y-57900000D01*
X73270000Y-57930000D02*
X73300000Y-57900000D01*
X73270000Y-57930000D02*
X71270000Y-57930000D01*
D22*
X72796600Y-39866400D02*
X73026400Y-39866400D01*
X120833384Y-80030004D02*
X129088400Y-88285020D01*
X105047208Y-80030004D02*
X120833384Y-80030004D01*
X94679982Y-69662778D02*
X105047208Y-80030004D01*
X94679982Y-55972792D02*
X94679982Y-69662778D01*
X79727192Y-41020002D02*
X94679982Y-55972792D01*
X74180002Y-41020002D02*
X79727192Y-41020002D01*
X73026400Y-39866400D02*
X74180002Y-41020002D01*
X74066600Y-39866400D02*
X74406400Y-39866400D01*
X121653382Y-79580002D02*
X130358400Y-88285020D01*
X105233604Y-79580002D02*
X121653382Y-79580002D01*
X95129984Y-69476382D02*
X105233604Y-79580002D01*
X95129984Y-55786396D02*
X95129984Y-69476382D01*
X79913588Y-40570000D02*
X95129984Y-55786396D01*
X75110000Y-40570000D02*
X79913588Y-40570000D01*
X74406400Y-39866400D02*
X75110000Y-40570000D01*
X122440000Y-79130000D02*
X131630000Y-88320000D01*
X79846386Y-39866400D02*
X95579986Y-55600000D01*
X95579986Y-55600000D02*
X95579986Y-69289986D01*
X95579986Y-69289986D02*
X105420000Y-79130000D01*
X105420000Y-79130000D02*
X122440000Y-79130000D01*
X75336600Y-39866400D02*
X79846386Y-39866400D01*
X62636600Y-39866400D02*
X62806400Y-39866400D01*
X114463382Y-83820002D02*
X118928400Y-88285020D01*
X103713604Y-83820002D02*
X114463382Y-83820002D01*
X91079966Y-71186364D02*
X103713604Y-83820002D01*
X91079966Y-57463960D02*
X91079966Y-71186364D01*
X78236024Y-44620018D02*
X91079966Y-57463960D01*
X67560018Y-44620018D02*
X78236024Y-44620018D01*
X62806400Y-39866400D02*
X67560018Y-44620018D01*
X63906600Y-39866400D02*
X64006400Y-39866400D01*
X115283380Y-83370000D02*
X120198400Y-88285020D01*
X103900000Y-83370000D02*
X115283380Y-83370000D01*
X91529968Y-70999968D02*
X103900000Y-83370000D01*
X91529968Y-57277564D02*
X91529968Y-70999968D01*
X78422420Y-44170016D02*
X91529968Y-57277564D01*
X68310016Y-44170016D02*
X78422420Y-44170016D01*
X64006400Y-39866400D02*
X68310016Y-44170016D01*
X66446600Y-39866400D02*
X66646400Y-39866400D01*
X116833388Y-82380008D02*
X122738400Y-88285020D01*
X104215222Y-82380008D02*
X116833388Y-82380008D01*
X92429972Y-70594758D02*
X104215222Y-82380008D01*
X92429972Y-56904772D02*
X92429972Y-70594758D01*
X78795212Y-43270012D02*
X92429972Y-56904772D01*
X70050012Y-43270012D02*
X78795212Y-43270012D01*
X66646400Y-39866400D02*
X70050012Y-43270012D01*
X65176600Y-39866400D02*
X65416400Y-39866400D01*
X116013390Y-82830010D02*
X121468400Y-88285020D01*
X104028826Y-82830010D02*
X116013390Y-82830010D01*
X91979970Y-70781154D02*
X104028826Y-82830010D01*
X91979970Y-57091168D02*
X91979970Y-70781154D01*
X78608816Y-43720014D02*
X91979970Y-57091168D01*
X69270014Y-43720014D02*
X78608816Y-43720014D01*
X65416400Y-39866400D02*
X69270014Y-43720014D01*
X104774410Y-81030002D02*
X119293382Y-81030002D01*
X70596400Y-39866400D02*
X72650006Y-41920006D01*
X72650006Y-41920006D02*
X79354400Y-41920006D01*
X79354400Y-41920006D02*
X93779978Y-56345584D01*
X93779978Y-56345584D02*
X93779978Y-70035570D01*
X93779978Y-70035570D02*
X104774410Y-81030002D01*
X70256600Y-39866400D02*
X70596400Y-39866400D01*
X119293382Y-81030002D02*
X126548400Y-88285020D01*
X71526600Y-39866400D02*
X71786400Y-39866400D01*
X120113380Y-80580000D02*
X127818400Y-88285020D01*
X104960806Y-80580000D02*
X120113380Y-80580000D01*
X94229980Y-69849174D02*
X104960806Y-80580000D01*
X94229980Y-56159188D02*
X94229980Y-69849174D01*
X79540796Y-41470004D02*
X94229980Y-56159188D01*
X73390004Y-41470004D02*
X79540796Y-41470004D01*
X71786400Y-39866400D02*
X73390004Y-41470004D01*
X68986600Y-39866400D02*
X69216400Y-39866400D01*
X118473384Y-81480004D02*
X125278400Y-88285020D01*
X104588014Y-81480004D02*
X118473384Y-81480004D01*
X93329976Y-70221966D02*
X104588014Y-81480004D01*
X93329976Y-56531980D02*
X93329976Y-70221966D01*
X79168004Y-42370008D02*
X93329976Y-56531980D01*
X71720008Y-42370008D02*
X79168004Y-42370008D01*
X69216400Y-39866400D02*
X71720008Y-42370008D01*
X67716600Y-39866400D02*
X67946400Y-39866400D01*
X117653386Y-81930006D02*
X124008400Y-88285020D01*
X104401618Y-81930006D02*
X117653386Y-81930006D01*
X92879974Y-70408362D02*
X104401618Y-81930006D01*
X92879974Y-56718376D02*
X92879974Y-70408362D01*
X78981608Y-42820010D02*
X92879974Y-56718376D01*
X70900010Y-42820010D02*
X78981608Y-42820010D01*
X67946400Y-39866400D02*
X70900010Y-42820010D01*
X94140000Y-53220000D02*
X93836384Y-53220000D01*
X57556600Y-39633400D02*
X57556600Y-39866400D01*
X78206384Y-37590000D02*
X93836384Y-53220000D01*
X58600000Y-37590000D02*
X78206384Y-37590000D01*
X58200000Y-37990000D02*
X58600000Y-37590000D01*
X58200000Y-38990000D02*
X58200000Y-37990000D01*
X57556600Y-39633400D02*
X58200000Y-38990000D01*
X89090000Y-58300000D02*
X89090000Y-71741990D01*
X89090000Y-71741990D02*
X102968020Y-85620010D01*
X102968020Y-85620010D02*
X111183390Y-85620010D01*
X111183390Y-85620010D02*
X113848400Y-88285020D01*
X57556600Y-39866400D02*
X57556600Y-39866600D01*
X58826600Y-39866400D02*
X58826600Y-40116600D01*
X112003388Y-85170008D02*
X115118400Y-88285020D01*
X103154416Y-85170008D02*
X112003388Y-85170008D01*
X89729960Y-71745552D02*
X103154416Y-85170008D01*
X89729960Y-58023148D02*
X89729960Y-71745552D01*
X77676836Y-45970024D02*
X89729960Y-58023148D01*
X64680024Y-45970024D02*
X77676836Y-45970024D01*
X58826600Y-40116600D02*
X64680024Y-45970024D01*
X61366600Y-39866400D02*
X61466400Y-39866400D01*
X113643384Y-84270004D02*
X117658400Y-88285020D01*
X103527208Y-84270004D02*
X113643384Y-84270004D01*
X90629964Y-71372760D02*
X103527208Y-84270004D01*
X90629964Y-57650356D02*
X90629964Y-71372760D01*
X78049628Y-45070020D02*
X90629964Y-57650356D01*
X66670020Y-45070020D02*
X78049628Y-45070020D01*
X61466400Y-39866400D02*
X66670020Y-45070020D01*
X60096600Y-39866400D02*
X60096600Y-40016600D01*
X112823386Y-84720006D02*
X116388400Y-88285020D01*
X103340812Y-84720006D02*
X112823386Y-84720006D01*
X90179962Y-71559156D02*
X103340812Y-84720006D01*
X90179962Y-57836752D02*
X90179962Y-71559156D01*
X77863232Y-45520022D02*
X90179962Y-57836752D01*
X65600022Y-45520022D02*
X77863232Y-45520022D01*
X60096600Y-40016600D02*
X65600022Y-45520022D01*
X94140000Y-51420000D02*
X93309180Y-51420000D01*
X87810000Y-71770000D02*
X102560014Y-86520014D01*
X102560014Y-86520014D02*
X109543394Y-86520014D01*
X109543394Y-86520014D02*
X111308400Y-88285020D01*
X87810000Y-59350000D02*
X87810000Y-71770000D01*
X93309180Y-51420000D02*
X78579176Y-36689996D01*
X55016600Y-39753400D02*
X55650000Y-39120000D01*
X55650000Y-39120000D02*
X55650000Y-37430000D01*
X55650000Y-37430000D02*
X56390004Y-36689996D01*
X56390004Y-36689996D02*
X78579176Y-36689996D01*
X55016600Y-39866400D02*
X55016600Y-39753400D01*
X94140000Y-52320000D02*
X93572782Y-52320000D01*
X88450000Y-71738388D02*
X102781624Y-86070012D01*
X102781624Y-86070012D02*
X110363392Y-86070012D01*
X110363392Y-86070012D02*
X112578400Y-88285020D01*
X88450000Y-58830000D02*
X88450000Y-71738388D01*
X56286600Y-39866400D02*
X56286600Y-39823400D01*
X57730002Y-37139998D02*
X78392780Y-37139998D01*
X56920000Y-37950000D02*
X57730002Y-37139998D01*
X56920000Y-39190000D02*
X56920000Y-37950000D01*
X56286600Y-39823400D02*
X56920000Y-39190000D01*
X78392780Y-37139998D02*
X93572782Y-52320000D01*
X94140000Y-50530000D02*
X93320000Y-50530000D01*
X87170000Y-71766398D02*
X102373618Y-86970016D01*
X102373618Y-86970016D02*
X108723396Y-86970016D01*
X108723396Y-86970016D02*
X110038400Y-88285020D01*
X53746600Y-39853400D02*
X54380000Y-39220000D01*
X54380000Y-39220000D02*
X54380000Y-37010000D01*
X53746600Y-39866400D02*
X53746600Y-39853400D01*
X87170000Y-59850000D02*
X87170000Y-71766398D01*
X93320000Y-50530000D02*
X87580000Y-44790000D01*
X127820000Y-91014580D02*
X127818400Y-91012980D01*
X127820000Y-91014580D02*
X127820000Y-91020000D01*
X129090000Y-91014580D02*
X129088400Y-91012980D01*
X129090000Y-91014580D02*
X129090000Y-91020000D01*
X130360000Y-91014580D02*
X130358400Y-91012980D01*
X130360000Y-91014580D02*
X130360000Y-91020000D01*
X117660000Y-91011380D02*
X117658400Y-91012980D01*
X117660000Y-91011380D02*
X117660000Y-91000000D01*
X118940000Y-91001380D02*
X118928400Y-91012980D01*
X118940000Y-91001380D02*
X118940000Y-91000000D01*
X121460000Y-91004580D02*
X121468400Y-91012980D01*
X121460000Y-91004580D02*
X121460000Y-91000000D01*
X120200000Y-91011380D02*
X120198400Y-91012980D01*
X120200000Y-91011380D02*
X120200000Y-91000000D01*
X110030000Y-91010000D02*
X110035420Y-91010000D01*
X110035420Y-91010000D02*
X110038400Y-91012980D01*
X111310000Y-91010000D02*
X111310000Y-91011380D01*
X111310000Y-91011380D02*
X111308400Y-91012980D01*
X108770000Y-91011380D02*
X108768400Y-91012980D01*
X108770000Y-91010000D02*
X108770000Y-91011380D01*
X107490000Y-91010000D02*
X107495420Y-91010000D01*
X107495420Y-91010000D02*
X107498400Y-91012980D01*
X112570000Y-91010000D02*
X112575420Y-91010000D01*
X112575420Y-91010000D02*
X112578400Y-91012980D01*
X113860000Y-91001380D02*
X113848400Y-91012980D01*
X113860000Y-91001380D02*
X113860000Y-91000000D01*
X116400000Y-91001380D02*
X116388400Y-91012980D01*
X116400000Y-91001380D02*
X116400000Y-91000000D01*
X115110000Y-91004580D02*
X115118400Y-91012980D01*
X115110000Y-91004580D02*
X115110000Y-91000000D01*
X86310000Y-43530000D02*
X88100000Y-43530000D01*
X85900000Y-71886398D02*
X102298622Y-88285020D01*
X102298622Y-88285020D02*
X107498400Y-88285020D01*
X51213600Y-39866400D02*
X51840000Y-39240000D01*
X51840000Y-39240000D02*
X51840000Y-37300000D01*
X51840000Y-37300000D02*
X51850000Y-37290000D01*
X51206600Y-39866400D02*
X51213600Y-39866400D01*
X85900000Y-60880000D02*
X85900000Y-71886398D01*
X93300000Y-48730000D02*
X94140000Y-48730000D01*
X88100000Y-43530000D02*
X93300000Y-48730000D01*
X94140000Y-49630000D02*
X93310000Y-49630000D01*
X86540000Y-71890000D02*
X102070018Y-87420018D01*
X102070018Y-87420018D02*
X107903398Y-87420018D01*
X107903398Y-87420018D02*
X108768400Y-88285020D01*
X86540000Y-60380000D02*
X86540000Y-71890000D01*
X93310000Y-49630000D02*
X87840000Y-44160000D01*
X87840000Y-44160000D02*
X87010000Y-44160000D01*
X52476600Y-39866400D02*
X52476600Y-39853400D01*
X53120000Y-39210000D02*
X53120000Y-37230000D01*
X52476600Y-39853400D02*
X53120000Y-39210000D01*
X122740000Y-91011380D02*
X122738400Y-91012980D01*
X122740000Y-91011380D02*
X122740000Y-91000000D01*
X124000000Y-91004580D02*
X124008400Y-91012980D01*
X124000000Y-91004580D02*
X124000000Y-91000000D01*
X126550000Y-91014580D02*
X126548400Y-91012980D01*
X126550000Y-91014580D02*
X126550000Y-91020000D01*
X125271380Y-91020000D02*
X125278400Y-91012980D01*
X125271380Y-91020000D02*
X125270000Y-91020000D01*
X102359990Y-63905582D02*
X102359990Y-40173410D01*
X102359990Y-63905582D02*
X105184418Y-66730010D01*
X105184418Y-66730010D02*
X117323390Y-66730010D01*
X117323390Y-66730010D02*
X125278400Y-74685020D01*
X102359990Y-40173410D02*
X102540000Y-39993400D01*
X102809992Y-63719186D02*
X102809992Y-40993408D01*
X102809992Y-63719186D02*
X105370814Y-66280008D01*
X105370814Y-66280008D02*
X118143388Y-66280008D01*
X118143388Y-66280008D02*
X126548400Y-74685020D01*
X102809992Y-40993408D02*
X103810000Y-39993400D01*
X103709996Y-63346394D02*
X103709996Y-42633404D01*
X103709996Y-63346394D02*
X105743606Y-65380004D01*
X105743606Y-65380004D02*
X119783384Y-65380004D01*
X119783384Y-65380004D02*
X129088400Y-74685020D01*
X103709996Y-42633404D02*
X106350000Y-39993400D01*
X103259994Y-63532790D02*
X103259994Y-41813406D01*
X103259994Y-63532790D02*
X105557210Y-65830006D01*
X105557210Y-65830006D02*
X118963386Y-65830006D01*
X118963386Y-65830006D02*
X127818400Y-74685020D01*
X103259994Y-41813406D02*
X105080000Y-39993400D01*
X104610000Y-62970000D02*
X104610000Y-44273400D01*
X104610000Y-62970000D02*
X106120000Y-64480000D01*
X106120000Y-64480000D02*
X121423380Y-64480000D01*
X121423380Y-64480000D02*
X131628400Y-74685020D01*
X104610000Y-44273400D02*
X108890000Y-39993400D01*
X104159998Y-57900000D02*
X104159998Y-43453402D01*
X104159998Y-43453402D02*
X107620000Y-39993400D01*
X120603382Y-64930002D02*
X130358400Y-74685020D01*
X105930002Y-64930002D02*
X120603382Y-64930002D01*
X104159998Y-63159998D02*
X105930002Y-64930002D01*
X104159998Y-57800002D02*
X104159998Y-57900000D01*
X104159998Y-57900000D02*
X104159998Y-63159998D01*
X100559982Y-50500000D02*
X100559982Y-43093382D01*
X100559982Y-43093382D02*
X97460000Y-39993400D01*
X100559982Y-50390018D02*
X100559982Y-50500000D01*
X100559982Y-50500000D02*
X100559982Y-64789176D01*
X100559982Y-64789176D02*
X104300824Y-68530018D01*
X114043398Y-68530018D02*
X120198400Y-74685020D01*
X104300824Y-68530018D02*
X114043398Y-68530018D01*
X101009984Y-64602780D02*
X101009984Y-42273384D01*
X104487220Y-68080016D02*
X114863396Y-68080016D01*
X114863396Y-68080016D02*
X121468400Y-74685020D01*
X101009984Y-64602780D02*
X104487220Y-68080016D01*
X101009984Y-42273384D02*
X98730000Y-39993400D01*
X101909988Y-64229988D02*
X101909988Y-40633388D01*
X104860012Y-67180012D02*
X116503392Y-67180012D01*
X116503392Y-67180012D02*
X124008400Y-74685020D01*
X101909988Y-64229988D02*
X104860012Y-67180012D01*
X101909988Y-40633388D02*
X101270000Y-39993400D01*
X101459986Y-52500000D02*
X101459986Y-41453386D01*
X101459986Y-41453386D02*
X100000000Y-39993400D01*
X101459986Y-52460014D02*
X101459986Y-52500000D01*
X101459986Y-52500000D02*
X101459986Y-64416384D01*
X101459986Y-64416384D02*
X104673616Y-67630014D01*
X115683394Y-67630014D02*
X122738400Y-74685020D01*
X104673616Y-67630014D02*
X115683394Y-67630014D01*
X99659978Y-65166376D02*
X99659978Y-44733378D01*
X103923624Y-69430022D02*
X112403402Y-69430022D01*
X112403402Y-69430022D02*
X117658400Y-74685020D01*
X99659978Y-65166376D02*
X103923624Y-69430022D01*
X99659978Y-44733378D02*
X94920000Y-39993400D01*
X100109980Y-49400000D02*
X100109980Y-43913380D01*
X100109980Y-43913380D02*
X96190000Y-39993400D01*
X100109980Y-49390020D02*
X100109980Y-49400000D01*
X100109980Y-49400000D02*
X100109980Y-64979980D01*
X100109980Y-64979980D02*
X104110020Y-68980020D01*
X113223400Y-68980020D02*
X118928400Y-74685020D01*
X104110020Y-68980020D02*
X113223400Y-68980020D01*
X87300000Y-39993400D02*
X87300000Y-39999996D01*
X94300004Y-47000000D02*
X95437200Y-47000000D01*
X87300000Y-39999996D02*
X94300004Y-47000000D01*
X107483414Y-72130034D02*
X110038400Y-74685020D01*
X102805248Y-72130034D02*
X107483414Y-72130034D01*
X96929992Y-66254778D02*
X102805248Y-72130034D01*
X96929992Y-48492792D02*
X96929992Y-66254778D01*
X95437200Y-47000000D02*
X96929992Y-48492792D01*
X88570000Y-39993400D02*
X88593400Y-39993400D01*
X97379994Y-48306396D02*
X97379994Y-66068382D01*
X97379994Y-66068382D02*
X102991644Y-71680032D01*
X102991644Y-71680032D02*
X108303412Y-71680032D01*
X108303412Y-71680032D02*
X111308400Y-74685020D01*
X95573598Y-46500000D02*
X97379994Y-48306396D01*
X95100000Y-46500000D02*
X95573598Y-46500000D01*
X88593400Y-39993400D02*
X95100000Y-46500000D01*
X95350800Y-47549998D02*
X96479990Y-48679188D01*
X96479990Y-48679188D02*
X96479990Y-66441174D01*
X96479990Y-66441174D02*
X102618852Y-72580036D01*
X102618852Y-72580036D02*
X106663416Y-72580036D01*
X106663416Y-72580036D02*
X108768400Y-74685020D01*
X86030000Y-39730000D02*
X93849998Y-47549998D01*
X93849998Y-47549998D02*
X95350800Y-47549998D01*
X86030000Y-39993400D02*
X86030000Y-39730000D01*
X97829996Y-65881986D02*
X97829996Y-47929996D01*
X89893400Y-39993400D02*
X97829996Y-47929996D01*
X109123410Y-71230030D02*
X112578400Y-74685020D01*
X103178040Y-71230030D02*
X109123410Y-71230030D01*
X97829996Y-65881986D02*
X103178040Y-71230030D01*
X89840000Y-39993400D02*
X89893400Y-39993400D01*
X91110000Y-39993400D02*
X91110000Y-40540002D01*
X98279998Y-65695590D02*
X103364436Y-70780028D01*
X103364436Y-70780028D02*
X109943408Y-70780028D01*
X109943408Y-70780028D02*
X113848400Y-74685020D01*
X98279998Y-47710000D02*
X98279998Y-65695590D01*
X91110000Y-40540002D02*
X98279998Y-47710000D01*
X99209976Y-48000000D02*
X99209976Y-45553376D01*
X99209976Y-45553376D02*
X93650000Y-39993400D01*
X99209976Y-47950024D02*
X99209976Y-48000000D01*
X99209976Y-48000000D02*
X99209976Y-65352772D01*
X99209976Y-65352772D02*
X103737228Y-69880024D01*
X111583404Y-69880024D02*
X116388400Y-74685020D01*
X103737228Y-69880024D02*
X111583404Y-69880024D01*
X98730000Y-65509194D02*
X98730000Y-46343400D01*
X110763406Y-70330026D02*
X115118400Y-74685020D01*
X103550832Y-70330026D02*
X110763406Y-70330026D01*
X98730000Y-65509194D02*
X103550832Y-70330026D01*
X98730000Y-46343400D02*
X92380000Y-39993400D01*
X84760000Y-39993400D02*
X84760000Y-40360000D01*
X96029988Y-48865584D02*
X96029988Y-66627570D01*
X96029988Y-66627570D02*
X102432456Y-73030038D01*
X102432456Y-73030038D02*
X105843418Y-73030038D01*
X105843418Y-73030038D02*
X107498400Y-74685020D01*
X95164404Y-48000000D02*
X96029988Y-48865584D01*
X93206398Y-48000000D02*
X95164404Y-48000000D01*
X86006398Y-40800000D02*
X93206398Y-48000000D01*
X85200000Y-40800000D02*
X86006398Y-40800000D01*
X84760000Y-40360000D02*
X85200000Y-40800000D01*
X125278400Y-61085020D02*
X125278400Y-57031400D01*
X125278400Y-57031400D02*
X142443400Y-39866400D01*
X126548400Y-61085020D02*
X126548400Y-57031400D01*
X126548400Y-57031400D02*
X143713400Y-39866400D01*
X129088400Y-59920000D02*
X129088400Y-59688804D01*
X146253400Y-42523804D02*
X146253400Y-39866400D01*
X129088400Y-59688804D02*
X146253400Y-42523804D01*
X129088400Y-61085020D02*
X129088400Y-59920000D01*
X127818400Y-61085020D02*
X127818400Y-60322406D01*
X144983400Y-43157406D02*
X144983400Y-39866400D01*
X127818400Y-60322406D02*
X144983400Y-43157406D01*
X131600000Y-58900000D02*
X131600000Y-58450000D01*
X148793400Y-41256600D02*
X148793400Y-39866400D01*
X131600000Y-58450000D02*
X148793400Y-41256600D01*
X131600000Y-61000000D02*
X131600000Y-58900000D01*
X130358400Y-59280000D02*
X130358400Y-59055202D01*
X147523400Y-41890202D02*
X147523400Y-39866400D01*
X130358400Y-59055202D02*
X147523400Y-41890202D01*
X130358400Y-61085020D02*
X130358400Y-59280000D01*
X120198400Y-60210000D02*
X120198400Y-59565808D01*
X137363400Y-42400808D02*
X137363400Y-39866400D01*
X120198400Y-59565808D02*
X137363400Y-42400808D01*
X120198400Y-60210000D02*
X120198400Y-61085020D01*
X121468400Y-59510000D02*
X121468400Y-58932206D01*
X138633400Y-41767206D02*
X138633400Y-39866400D01*
X121468400Y-58932206D02*
X138633400Y-41767206D01*
X121468400Y-61085020D02*
X121468400Y-59510000D01*
X124008400Y-58900000D02*
X124008400Y-57665002D01*
X141173400Y-40500002D02*
X141173400Y-39866400D01*
X124008400Y-57665002D02*
X141173400Y-40500002D01*
X124008400Y-61085020D02*
X124008400Y-58900000D01*
X122738400Y-59290000D02*
X122738400Y-58298604D01*
X139903400Y-41133604D02*
X139903400Y-39866400D01*
X122738400Y-58298604D02*
X139903400Y-41133604D01*
X122738400Y-61085020D02*
X122738400Y-59290000D01*
X134823400Y-39866400D02*
X134633600Y-39866400D01*
X117658400Y-56841600D02*
X117658400Y-61085020D01*
X134633600Y-39866400D02*
X117658400Y-56841600D01*
X130150000Y-45280000D02*
X130150000Y-44986398D01*
X134536398Y-40600000D02*
X135400000Y-40600000D01*
X130150000Y-44986398D02*
X134536398Y-40600000D01*
X136093400Y-39906600D02*
X135400000Y-40600000D01*
X136093400Y-39866400D02*
X136093400Y-39906600D01*
X130150000Y-45280000D02*
X118928400Y-56501600D01*
X118928400Y-56501600D02*
X118928400Y-61085020D01*
X110038400Y-61085020D02*
X110038400Y-57031400D01*
X110038400Y-57031400D02*
X127203400Y-39866400D01*
X111308400Y-61085020D02*
X111308400Y-57031400D01*
X111308400Y-57031400D02*
X128473400Y-39866400D01*
X108768400Y-61085020D02*
X108768400Y-57131600D01*
X125933400Y-39966600D02*
X125933400Y-39866400D01*
X108768400Y-57131600D02*
X125933400Y-39966600D01*
X112578400Y-61085020D02*
X112578400Y-57031400D01*
X112578400Y-57031400D02*
X129743400Y-39866400D01*
X113848400Y-61085020D02*
X113848400Y-57031400D01*
X113848400Y-57031400D02*
X131013400Y-39866400D01*
X133553400Y-39866400D02*
X133533600Y-39866400D01*
X116388400Y-57011600D02*
X116388400Y-61085020D01*
X133533600Y-39866400D02*
X116388400Y-57011600D01*
X115118400Y-61085020D02*
X115118400Y-57031400D01*
X115118400Y-57031400D02*
X132283400Y-39866400D01*
X107498400Y-61085020D02*
X107498400Y-57031400D01*
X107498400Y-57031400D02*
X124663400Y-39866400D01*
D23*
G36*
X137873000Y-90773000D02*
X132657155Y-90773000D01*
X132657178Y-90746613D01*
X132501156Y-90369011D01*
X132212508Y-90079860D01*
X131835179Y-89923179D01*
X131426613Y-89922822D01*
X131049011Y-90078844D01*
X130962867Y-90164838D01*
X130940908Y-90142840D01*
X130563579Y-89986159D01*
X130155013Y-89985802D01*
X129777411Y-90141824D01*
X129723559Y-90195583D01*
X129670908Y-90142840D01*
X129293579Y-89986159D01*
X128885013Y-89985802D01*
X128507411Y-90141824D01*
X128453559Y-90195583D01*
X128400908Y-90142840D01*
X128023579Y-89986159D01*
X127615013Y-89985802D01*
X127237411Y-90141824D01*
X127183559Y-90195583D01*
X127130908Y-90142840D01*
X126753579Y-89986159D01*
X126345013Y-89985802D01*
X125967411Y-90141824D01*
X125913559Y-90195583D01*
X125860908Y-90142840D01*
X125483579Y-89986159D01*
X125075013Y-89985802D01*
X124697411Y-90141824D01*
X124643559Y-90195583D01*
X124590908Y-90142840D01*
X124213579Y-89986159D01*
X123805013Y-89985802D01*
X123427411Y-90141824D01*
X123373559Y-90195583D01*
X123320908Y-90142840D01*
X122943579Y-89986159D01*
X122535013Y-89985802D01*
X122157411Y-90141824D01*
X122103559Y-90195583D01*
X122050908Y-90142840D01*
X121673579Y-89986159D01*
X121265013Y-89985802D01*
X120887411Y-90141824D01*
X120833559Y-90195583D01*
X120780908Y-90142840D01*
X120403579Y-89986159D01*
X119995013Y-89985802D01*
X119617411Y-90141824D01*
X119563559Y-90195583D01*
X119510908Y-90142840D01*
X119133579Y-89986159D01*
X118725013Y-89985802D01*
X118347411Y-90141824D01*
X118293559Y-90195583D01*
X118240908Y-90142840D01*
X117863579Y-89986159D01*
X117455013Y-89985802D01*
X117077411Y-90141824D01*
X117023559Y-90195583D01*
X116970908Y-90142840D01*
X116593579Y-89986159D01*
X116185013Y-89985802D01*
X115807411Y-90141824D01*
X115753559Y-90195583D01*
X115700908Y-90142840D01*
X115323579Y-89986159D01*
X114915013Y-89985802D01*
X114537411Y-90141824D01*
X114483559Y-90195583D01*
X114430908Y-90142840D01*
X114053579Y-89986159D01*
X113645013Y-89985802D01*
X113267411Y-90141824D01*
X113213559Y-90195583D01*
X113160908Y-90142840D01*
X112783579Y-89986159D01*
X112375013Y-89985802D01*
X111997411Y-90141824D01*
X111943559Y-90195583D01*
X111890908Y-90142840D01*
X111513579Y-89986159D01*
X111105013Y-89985802D01*
X110727411Y-90141824D01*
X110673559Y-90195583D01*
X110620908Y-90142840D01*
X110243579Y-89986159D01*
X109835013Y-89985802D01*
X109457411Y-90141824D01*
X109403559Y-90195583D01*
X109350908Y-90142840D01*
X108973579Y-89986159D01*
X108565013Y-89985802D01*
X108187411Y-90141824D01*
X108133559Y-90195583D01*
X108080908Y-90142840D01*
X107703579Y-89986159D01*
X107505591Y-89985986D01*
X107512621Y-89969055D01*
X107513177Y-89331741D01*
X107505031Y-89312026D01*
X107701787Y-89312198D01*
X108079389Y-89156176D01*
X108133241Y-89102417D01*
X108185892Y-89155160D01*
X108563221Y-89311841D01*
X108971787Y-89312198D01*
X109349389Y-89156176D01*
X109403241Y-89102417D01*
X109455892Y-89155160D01*
X109833221Y-89311841D01*
X110241787Y-89312198D01*
X110619389Y-89156176D01*
X110673241Y-89102417D01*
X110725892Y-89155160D01*
X111103221Y-89311841D01*
X111511787Y-89312198D01*
X111889389Y-89156176D01*
X111943241Y-89102417D01*
X111995892Y-89155160D01*
X112373221Y-89311841D01*
X112781787Y-89312198D01*
X113159389Y-89156176D01*
X113213241Y-89102417D01*
X113265892Y-89155160D01*
X113643221Y-89311841D01*
X114051787Y-89312198D01*
X114429389Y-89156176D01*
X114483241Y-89102417D01*
X114535892Y-89155160D01*
X114913221Y-89311841D01*
X115321787Y-89312198D01*
X115699389Y-89156176D01*
X115753241Y-89102417D01*
X115805892Y-89155160D01*
X116183221Y-89311841D01*
X116591787Y-89312198D01*
X116969389Y-89156176D01*
X117023241Y-89102417D01*
X117075892Y-89155160D01*
X117453221Y-89311841D01*
X117861787Y-89312198D01*
X118239389Y-89156176D01*
X118293241Y-89102417D01*
X118345892Y-89155160D01*
X118723221Y-89311841D01*
X119131787Y-89312198D01*
X119509389Y-89156176D01*
X119563241Y-89102417D01*
X119615892Y-89155160D01*
X119993221Y-89311841D01*
X120401787Y-89312198D01*
X120779389Y-89156176D01*
X120833241Y-89102417D01*
X120885892Y-89155160D01*
X121263221Y-89311841D01*
X121671787Y-89312198D01*
X122049389Y-89156176D01*
X122103241Y-89102417D01*
X122155892Y-89155160D01*
X122533221Y-89311841D01*
X122941787Y-89312198D01*
X123319389Y-89156176D01*
X123373241Y-89102417D01*
X123425892Y-89155160D01*
X123803221Y-89311841D01*
X124211787Y-89312198D01*
X124589389Y-89156176D01*
X124643241Y-89102417D01*
X124695892Y-89155160D01*
X125073221Y-89311841D01*
X125481787Y-89312198D01*
X125859389Y-89156176D01*
X125913241Y-89102417D01*
X125965892Y-89155160D01*
X126343221Y-89311841D01*
X126751787Y-89312198D01*
X127129389Y-89156176D01*
X127183241Y-89102417D01*
X127235892Y-89155160D01*
X127613221Y-89311841D01*
X128021787Y-89312198D01*
X128399389Y-89156176D01*
X128453241Y-89102417D01*
X128505892Y-89155160D01*
X128883221Y-89311841D01*
X129291787Y-89312198D01*
X129669389Y-89156176D01*
X129723241Y-89102417D01*
X129775892Y-89155160D01*
X130153221Y-89311841D01*
X130561787Y-89312198D01*
X130939389Y-89156176D01*
X130976553Y-89119077D01*
X131047492Y-89190140D01*
X131424821Y-89346821D01*
X131833387Y-89347178D01*
X132210989Y-89191156D01*
X132500140Y-88902508D01*
X132656821Y-88525179D01*
X132657178Y-88116613D01*
X132501156Y-87739011D01*
X132212508Y-87449860D01*
X131835179Y-87293179D01*
X131808065Y-87293155D01*
X123042455Y-78527545D01*
X122911631Y-78440132D01*
X122941787Y-78440158D01*
X123319389Y-78284136D01*
X123373241Y-78230377D01*
X123425892Y-78283120D01*
X123803221Y-78439801D01*
X124211787Y-78440158D01*
X124589389Y-78284136D01*
X124643241Y-78230377D01*
X124695892Y-78283120D01*
X125073221Y-78439801D01*
X125481787Y-78440158D01*
X125859389Y-78284136D01*
X125913241Y-78230377D01*
X125965892Y-78283120D01*
X126343221Y-78439801D01*
X126751787Y-78440158D01*
X127129389Y-78284136D01*
X127183241Y-78230377D01*
X127235892Y-78283120D01*
X127613221Y-78439801D01*
X128021787Y-78440158D01*
X128399389Y-78284136D01*
X128453241Y-78230377D01*
X128505892Y-78283120D01*
X128883221Y-78439801D01*
X129291787Y-78440158D01*
X129669389Y-78284136D01*
X129723241Y-78230377D01*
X129775892Y-78283120D01*
X130153221Y-78439801D01*
X130561787Y-78440158D01*
X130939389Y-78284136D01*
X130993241Y-78230377D01*
X131045892Y-78283120D01*
X131423221Y-78439801D01*
X131831787Y-78440158D01*
X132209389Y-78284136D01*
X132498540Y-77995488D01*
X132655221Y-77618159D01*
X132655578Y-77209593D01*
X132499556Y-76831991D01*
X132210908Y-76542840D01*
X131833579Y-76386159D01*
X131425013Y-76385802D01*
X131047411Y-76541824D01*
X130993559Y-76595583D01*
X130940908Y-76542840D01*
X130563579Y-76386159D01*
X130155013Y-76385802D01*
X129777411Y-76541824D01*
X129723559Y-76595583D01*
X129670908Y-76542840D01*
X129293579Y-76386159D01*
X128885013Y-76385802D01*
X128507411Y-76541824D01*
X128453559Y-76595583D01*
X128400908Y-76542840D01*
X128023579Y-76386159D01*
X127615013Y-76385802D01*
X127237411Y-76541824D01*
X127183559Y-76595583D01*
X127130908Y-76542840D01*
X126753579Y-76386159D01*
X126345013Y-76385802D01*
X125967411Y-76541824D01*
X125913559Y-76595583D01*
X125860908Y-76542840D01*
X125483579Y-76386159D01*
X125075013Y-76385802D01*
X124697411Y-76541824D01*
X124643559Y-76595583D01*
X124590908Y-76542840D01*
X124213579Y-76386159D01*
X123805013Y-76385802D01*
X123427411Y-76541824D01*
X123373559Y-76595583D01*
X123320908Y-76542840D01*
X122943579Y-76386159D01*
X122535013Y-76385802D01*
X122157411Y-76541824D01*
X122103559Y-76595583D01*
X122050908Y-76542840D01*
X121673579Y-76386159D01*
X121265013Y-76385802D01*
X120887411Y-76541824D01*
X120833559Y-76595583D01*
X120780908Y-76542840D01*
X120403579Y-76386159D01*
X119995013Y-76385802D01*
X119617411Y-76541824D01*
X119563559Y-76595583D01*
X119510908Y-76542840D01*
X119133579Y-76386159D01*
X118725013Y-76385802D01*
X118347411Y-76541824D01*
X118293559Y-76595583D01*
X118240908Y-76542840D01*
X117863579Y-76386159D01*
X117455013Y-76385802D01*
X117077411Y-76541824D01*
X117023559Y-76595583D01*
X116970908Y-76542840D01*
X116593579Y-76386159D01*
X116185013Y-76385802D01*
X115807411Y-76541824D01*
X115753559Y-76595583D01*
X115700908Y-76542840D01*
X115323579Y-76386159D01*
X114915013Y-76385802D01*
X114537411Y-76541824D01*
X114483559Y-76595583D01*
X114430908Y-76542840D01*
X114053579Y-76386159D01*
X113645013Y-76385802D01*
X113267411Y-76541824D01*
X113213559Y-76595583D01*
X113160908Y-76542840D01*
X112783579Y-76386159D01*
X112375013Y-76385802D01*
X111997411Y-76541824D01*
X111943559Y-76595583D01*
X111890908Y-76542840D01*
X111513579Y-76386159D01*
X111105013Y-76385802D01*
X110727411Y-76541824D01*
X110673559Y-76595583D01*
X110620908Y-76542840D01*
X110243579Y-76386159D01*
X109835013Y-76385802D01*
X109457411Y-76541824D01*
X109403559Y-76595583D01*
X109350908Y-76542840D01*
X108973579Y-76386159D01*
X108565013Y-76385802D01*
X108187411Y-76541824D01*
X108133559Y-76595583D01*
X108080908Y-76542840D01*
X107703579Y-76386159D01*
X107505591Y-76385986D01*
X107512621Y-76369055D01*
X107513177Y-75731741D01*
X107505031Y-75712026D01*
X107701787Y-75712198D01*
X108079389Y-75556176D01*
X108133241Y-75502417D01*
X108185892Y-75555160D01*
X108563221Y-75711841D01*
X108971787Y-75712198D01*
X109349389Y-75556176D01*
X109403241Y-75502417D01*
X109455892Y-75555160D01*
X109833221Y-75711841D01*
X110241787Y-75712198D01*
X110619389Y-75556176D01*
X110673241Y-75502417D01*
X110725892Y-75555160D01*
X111103221Y-75711841D01*
X111511787Y-75712198D01*
X111889389Y-75556176D01*
X111943241Y-75502417D01*
X111995892Y-75555160D01*
X112373221Y-75711841D01*
X112781787Y-75712198D01*
X113159389Y-75556176D01*
X113213241Y-75502417D01*
X113265892Y-75555160D01*
X113643221Y-75711841D01*
X114051787Y-75712198D01*
X114429389Y-75556176D01*
X114483241Y-75502417D01*
X114535892Y-75555160D01*
X114913221Y-75711841D01*
X115321787Y-75712198D01*
X115699389Y-75556176D01*
X115753241Y-75502417D01*
X115805892Y-75555160D01*
X116183221Y-75711841D01*
X116591787Y-75712198D01*
X116969389Y-75556176D01*
X117023241Y-75502417D01*
X117075892Y-75555160D01*
X117453221Y-75711841D01*
X117861787Y-75712198D01*
X118239389Y-75556176D01*
X118293241Y-75502417D01*
X118345892Y-75555160D01*
X118723221Y-75711841D01*
X119131787Y-75712198D01*
X119509389Y-75556176D01*
X119563241Y-75502417D01*
X119615892Y-75555160D01*
X119993221Y-75711841D01*
X120401787Y-75712198D01*
X120779389Y-75556176D01*
X120833241Y-75502417D01*
X120885892Y-75555160D01*
X121263221Y-75711841D01*
X121671787Y-75712198D01*
X122049389Y-75556176D01*
X122103241Y-75502417D01*
X122155892Y-75555160D01*
X122533221Y-75711841D01*
X122941787Y-75712198D01*
X123319389Y-75556176D01*
X123373241Y-75502417D01*
X123425892Y-75555160D01*
X123803221Y-75711841D01*
X124211787Y-75712198D01*
X124589389Y-75556176D01*
X124643241Y-75502417D01*
X124695892Y-75555160D01*
X125073221Y-75711841D01*
X125481787Y-75712198D01*
X125859389Y-75556176D01*
X125913241Y-75502417D01*
X125965892Y-75555160D01*
X126343221Y-75711841D01*
X126751787Y-75712198D01*
X127129389Y-75556176D01*
X127183241Y-75502417D01*
X127235892Y-75555160D01*
X127613221Y-75711841D01*
X128021787Y-75712198D01*
X128399389Y-75556176D01*
X128453241Y-75502417D01*
X128505892Y-75555160D01*
X128883221Y-75711841D01*
X129291787Y-75712198D01*
X129669389Y-75556176D01*
X129723241Y-75502417D01*
X129775892Y-75555160D01*
X130153221Y-75711841D01*
X130561787Y-75712198D01*
X130939389Y-75556176D01*
X130993241Y-75502417D01*
X131045892Y-75555160D01*
X131423221Y-75711841D01*
X131831787Y-75712198D01*
X132209389Y-75556176D01*
X132498540Y-75267528D01*
X132655221Y-74890199D01*
X132655578Y-74481633D01*
X132499556Y-74104031D01*
X132210908Y-73814880D01*
X131833579Y-73658199D01*
X131806465Y-73658175D01*
X122973164Y-64824874D01*
X123320989Y-64681156D01*
X123372550Y-64629685D01*
X123425892Y-64683120D01*
X123803221Y-64839801D01*
X124211787Y-64840158D01*
X124589389Y-64684136D01*
X124643241Y-64630377D01*
X124695892Y-64683120D01*
X125073221Y-64839801D01*
X125481787Y-64840158D01*
X125859389Y-64684136D01*
X125913241Y-64630377D01*
X125965892Y-64683120D01*
X126343221Y-64839801D01*
X126751787Y-64840158D01*
X127129389Y-64684136D01*
X127183241Y-64630377D01*
X127235892Y-64683120D01*
X127613221Y-64839801D01*
X128021787Y-64840158D01*
X128399389Y-64684136D01*
X128475541Y-64608116D01*
X128517492Y-64650140D01*
X128894821Y-64806821D01*
X129303387Y-64807178D01*
X129680989Y-64651156D01*
X129712541Y-64619659D01*
X129775892Y-64683120D01*
X130153221Y-64839801D01*
X130561787Y-64840158D01*
X130939389Y-64684136D01*
X130993241Y-64630377D01*
X131045892Y-64683120D01*
X131423221Y-64839801D01*
X131831787Y-64840158D01*
X132209389Y-64684136D01*
X132498540Y-64395488D01*
X132655221Y-64018159D01*
X132655578Y-63609593D01*
X132499556Y-63231991D01*
X132210908Y-62942840D01*
X131833579Y-62786159D01*
X131425013Y-62785802D01*
X131047411Y-62941824D01*
X130993559Y-62995583D01*
X130940908Y-62942840D01*
X130563579Y-62786159D01*
X130155013Y-62785802D01*
X129777411Y-62941824D01*
X129745859Y-62973321D01*
X129682508Y-62909860D01*
X129305179Y-62753179D01*
X128896613Y-62752822D01*
X128519011Y-62908844D01*
X128442859Y-62984864D01*
X128400908Y-62942840D01*
X128023579Y-62786159D01*
X127615013Y-62785802D01*
X127237411Y-62941824D01*
X127183559Y-62995583D01*
X127130908Y-62942840D01*
X126753579Y-62786159D01*
X126345013Y-62785802D01*
X125967411Y-62941824D01*
X125913559Y-62995583D01*
X125860908Y-62942840D01*
X125483579Y-62786159D01*
X125075013Y-62785802D01*
X124697411Y-62941824D01*
X124643559Y-62995583D01*
X124590908Y-62942840D01*
X124213579Y-62786159D01*
X123805013Y-62785802D01*
X123427411Y-62941824D01*
X123375850Y-62993295D01*
X123322508Y-62939860D01*
X122945179Y-62783179D01*
X122536613Y-62782822D01*
X122159011Y-62938844D01*
X122102867Y-62994890D01*
X122050908Y-62942840D01*
X121673579Y-62786159D01*
X121265013Y-62785802D01*
X120887411Y-62941824D01*
X120833559Y-62995583D01*
X120780908Y-62942840D01*
X120403579Y-62786159D01*
X119995013Y-62785802D01*
X119617411Y-62941824D01*
X119563559Y-62995583D01*
X119510908Y-62942840D01*
X119133579Y-62786159D01*
X118725013Y-62785802D01*
X118347411Y-62941824D01*
X118293559Y-62995583D01*
X118240908Y-62942840D01*
X117863579Y-62786159D01*
X117455013Y-62785802D01*
X117077411Y-62941824D01*
X117023559Y-62995583D01*
X116970908Y-62942840D01*
X116593579Y-62786159D01*
X116185013Y-62785802D01*
X115807411Y-62941824D01*
X115753559Y-62995583D01*
X115700908Y-62942840D01*
X115323579Y-62786159D01*
X114915013Y-62785802D01*
X114537411Y-62941824D01*
X114483559Y-62995583D01*
X114430908Y-62942840D01*
X114053579Y-62786159D01*
X113645013Y-62785802D01*
X113267411Y-62941824D01*
X113213559Y-62995583D01*
X113160908Y-62942840D01*
X112783579Y-62786159D01*
X112375013Y-62785802D01*
X111997411Y-62941824D01*
X111943559Y-62995583D01*
X111890908Y-62942840D01*
X111513579Y-62786159D01*
X111105013Y-62785802D01*
X110727411Y-62941824D01*
X110673559Y-62995583D01*
X110620908Y-62942840D01*
X110243579Y-62786159D01*
X109835013Y-62785802D01*
X109457411Y-62941824D01*
X109403559Y-62995583D01*
X109350908Y-62942840D01*
X108973579Y-62786159D01*
X108565013Y-62785802D01*
X108187411Y-62941824D01*
X108133559Y-62995583D01*
X108080908Y-62942840D01*
X107703579Y-62786159D01*
X107505591Y-62785986D01*
X107512621Y-62769055D01*
X107513177Y-62131741D01*
X107505031Y-62112026D01*
X107701787Y-62112198D01*
X108079389Y-61956176D01*
X108133241Y-61902417D01*
X108185892Y-61955160D01*
X108563221Y-62111841D01*
X108971787Y-62112198D01*
X109349389Y-61956176D01*
X109403241Y-61902417D01*
X109455892Y-61955160D01*
X109833221Y-62111841D01*
X110241787Y-62112198D01*
X110619389Y-61956176D01*
X110673241Y-61902417D01*
X110725892Y-61955160D01*
X111103221Y-62111841D01*
X111511787Y-62112198D01*
X111889389Y-61956176D01*
X111943241Y-61902417D01*
X111995892Y-61955160D01*
X112373221Y-62111841D01*
X112781787Y-62112198D01*
X113159389Y-61956176D01*
X113213241Y-61902417D01*
X113265892Y-61955160D01*
X113643221Y-62111841D01*
X114051787Y-62112198D01*
X114429389Y-61956176D01*
X114483241Y-61902417D01*
X114535892Y-61955160D01*
X114913221Y-62111841D01*
X115321787Y-62112198D01*
X115699389Y-61956176D01*
X115753241Y-61902417D01*
X115805892Y-61955160D01*
X116183221Y-62111841D01*
X116591787Y-62112198D01*
X116969389Y-61956176D01*
X117023241Y-61902417D01*
X117075892Y-61955160D01*
X117453221Y-62111841D01*
X117861787Y-62112198D01*
X118239389Y-61956176D01*
X118293241Y-61902417D01*
X118345892Y-61955160D01*
X118723221Y-62111841D01*
X119131787Y-62112198D01*
X119509389Y-61956176D01*
X119563241Y-61902417D01*
X119615892Y-61955160D01*
X119993221Y-62111841D01*
X120401787Y-62112198D01*
X120779389Y-61956176D01*
X120833241Y-61902417D01*
X120885892Y-61955160D01*
X121263221Y-62111841D01*
X121671787Y-62112198D01*
X122049389Y-61956176D01*
X122103241Y-61902417D01*
X122155892Y-61955160D01*
X122533221Y-62111841D01*
X122941787Y-62112198D01*
X123319389Y-61956176D01*
X123373241Y-61902417D01*
X123425892Y-61955160D01*
X123803221Y-62111841D01*
X124211787Y-62112198D01*
X124589389Y-61956176D01*
X124643241Y-61902417D01*
X124695892Y-61955160D01*
X125073221Y-62111841D01*
X125481787Y-62112198D01*
X125859389Y-61956176D01*
X125913241Y-61902417D01*
X125965892Y-61955160D01*
X126343221Y-62111841D01*
X126751787Y-62112198D01*
X127129389Y-61956176D01*
X127183241Y-61902417D01*
X127235892Y-61955160D01*
X127613221Y-62111841D01*
X128021787Y-62112198D01*
X128399389Y-61956176D01*
X128453241Y-61902417D01*
X128505892Y-61955160D01*
X128883221Y-62111841D01*
X129291787Y-62112198D01*
X129669389Y-61956176D01*
X129723241Y-61902417D01*
X129775892Y-61955160D01*
X130153221Y-62111841D01*
X130561787Y-62112198D01*
X130939389Y-61956176D01*
X130993241Y-61902417D01*
X131045892Y-61955160D01*
X131423221Y-62111841D01*
X131831787Y-62112198D01*
X132209389Y-61956176D01*
X132498540Y-61667528D01*
X132655221Y-61290199D01*
X132655578Y-60881633D01*
X132499556Y-60504031D01*
X132452000Y-60456392D01*
X132452000Y-59569383D01*
X132734821Y-59686821D01*
X133143387Y-59687178D01*
X133520989Y-59531156D01*
X133810140Y-59242508D01*
X133966821Y-58865179D01*
X133967178Y-58456613D01*
X133811156Y-58079011D01*
X133522508Y-57789860D01*
X133481908Y-57773002D01*
X137873000Y-53381910D01*
X137873000Y-90773000D01*
X137873000Y-90773000D01*
G37*
X137873000Y-90773000D02*
X132657155Y-90773000D01*
X132657178Y-90746613D01*
X132501156Y-90369011D01*
X132212508Y-90079860D01*
X131835179Y-89923179D01*
X131426613Y-89922822D01*
X131049011Y-90078844D01*
X130962867Y-90164838D01*
X130940908Y-90142840D01*
X130563579Y-89986159D01*
X130155013Y-89985802D01*
X129777411Y-90141824D01*
X129723559Y-90195583D01*
X129670908Y-90142840D01*
X129293579Y-89986159D01*
X128885013Y-89985802D01*
X128507411Y-90141824D01*
X128453559Y-90195583D01*
X128400908Y-90142840D01*
X128023579Y-89986159D01*
X127615013Y-89985802D01*
X127237411Y-90141824D01*
X127183559Y-90195583D01*
X127130908Y-90142840D01*
X126753579Y-89986159D01*
X126345013Y-89985802D01*
X125967411Y-90141824D01*
X125913559Y-90195583D01*
X125860908Y-90142840D01*
X125483579Y-89986159D01*
X125075013Y-89985802D01*
X124697411Y-90141824D01*
X124643559Y-90195583D01*
X124590908Y-90142840D01*
X124213579Y-89986159D01*
X123805013Y-89985802D01*
X123427411Y-90141824D01*
X123373559Y-90195583D01*
X123320908Y-90142840D01*
X122943579Y-89986159D01*
X122535013Y-89985802D01*
X122157411Y-90141824D01*
X122103559Y-90195583D01*
X122050908Y-90142840D01*
X121673579Y-89986159D01*
X121265013Y-89985802D01*
X120887411Y-90141824D01*
X120833559Y-90195583D01*
X120780908Y-90142840D01*
X120403579Y-89986159D01*
X119995013Y-89985802D01*
X119617411Y-90141824D01*
X119563559Y-90195583D01*
X119510908Y-90142840D01*
X119133579Y-89986159D01*
X118725013Y-89985802D01*
X118347411Y-90141824D01*
X118293559Y-90195583D01*
X118240908Y-90142840D01*
X117863579Y-89986159D01*
X117455013Y-89985802D01*
X117077411Y-90141824D01*
X117023559Y-90195583D01*
X116970908Y-90142840D01*
X116593579Y-89986159D01*
X116185013Y-89985802D01*
X115807411Y-90141824D01*
X115753559Y-90195583D01*
X115700908Y-90142840D01*
X115323579Y-89986159D01*
X114915013Y-89985802D01*
X114537411Y-90141824D01*
X114483559Y-90195583D01*
X114430908Y-90142840D01*
X114053579Y-89986159D01*
X113645013Y-89985802D01*
X113267411Y-90141824D01*
X113213559Y-90195583D01*
X113160908Y-90142840D01*
X112783579Y-89986159D01*
X112375013Y-89985802D01*
X111997411Y-90141824D01*
X111943559Y-90195583D01*
X111890908Y-90142840D01*
X111513579Y-89986159D01*
X111105013Y-89985802D01*
X110727411Y-90141824D01*
X110673559Y-90195583D01*
X110620908Y-90142840D01*
X110243579Y-89986159D01*
X109835013Y-89985802D01*
X109457411Y-90141824D01*
X109403559Y-90195583D01*
X109350908Y-90142840D01*
X108973579Y-89986159D01*
X108565013Y-89985802D01*
X108187411Y-90141824D01*
X108133559Y-90195583D01*
X108080908Y-90142840D01*
X107703579Y-89986159D01*
X107505591Y-89985986D01*
X107512621Y-89969055D01*
X107513177Y-89331741D01*
X107505031Y-89312026D01*
X107701787Y-89312198D01*
X108079389Y-89156176D01*
X108133241Y-89102417D01*
X108185892Y-89155160D01*
X108563221Y-89311841D01*
X108971787Y-89312198D01*
X109349389Y-89156176D01*
X109403241Y-89102417D01*
X109455892Y-89155160D01*
X109833221Y-89311841D01*
X110241787Y-89312198D01*
X110619389Y-89156176D01*
X110673241Y-89102417D01*
X110725892Y-89155160D01*
X111103221Y-89311841D01*
X111511787Y-89312198D01*
X111889389Y-89156176D01*
X111943241Y-89102417D01*
X111995892Y-89155160D01*
X112373221Y-89311841D01*
X112781787Y-89312198D01*
X113159389Y-89156176D01*
X113213241Y-89102417D01*
X113265892Y-89155160D01*
X113643221Y-89311841D01*
X114051787Y-89312198D01*
X114429389Y-89156176D01*
X114483241Y-89102417D01*
X114535892Y-89155160D01*
X114913221Y-89311841D01*
X115321787Y-89312198D01*
X115699389Y-89156176D01*
X115753241Y-89102417D01*
X115805892Y-89155160D01*
X116183221Y-89311841D01*
X116591787Y-89312198D01*
X116969389Y-89156176D01*
X117023241Y-89102417D01*
X117075892Y-89155160D01*
X117453221Y-89311841D01*
X117861787Y-89312198D01*
X118239389Y-89156176D01*
X118293241Y-89102417D01*
X118345892Y-89155160D01*
X118723221Y-89311841D01*
X119131787Y-89312198D01*
X119509389Y-89156176D01*
X119563241Y-89102417D01*
X119615892Y-89155160D01*
X119993221Y-89311841D01*
X120401787Y-89312198D01*
X120779389Y-89156176D01*
X120833241Y-89102417D01*
X120885892Y-89155160D01*
X121263221Y-89311841D01*
X121671787Y-89312198D01*
X122049389Y-89156176D01*
X122103241Y-89102417D01*
X122155892Y-89155160D01*
X122533221Y-89311841D01*
X122941787Y-89312198D01*
X123319389Y-89156176D01*
X123373241Y-89102417D01*
X123425892Y-89155160D01*
X123803221Y-89311841D01*
X124211787Y-89312198D01*
X124589389Y-89156176D01*
X124643241Y-89102417D01*
X124695892Y-89155160D01*
X125073221Y-89311841D01*
X125481787Y-89312198D01*
X125859389Y-89156176D01*
X125913241Y-89102417D01*
X125965892Y-89155160D01*
X126343221Y-89311841D01*
X126751787Y-89312198D01*
X127129389Y-89156176D01*
X127183241Y-89102417D01*
X127235892Y-89155160D01*
X127613221Y-89311841D01*
X128021787Y-89312198D01*
X128399389Y-89156176D01*
X128453241Y-89102417D01*
X128505892Y-89155160D01*
X128883221Y-89311841D01*
X129291787Y-89312198D01*
X129669389Y-89156176D01*
X129723241Y-89102417D01*
X129775892Y-89155160D01*
X130153221Y-89311841D01*
X130561787Y-89312198D01*
X130939389Y-89156176D01*
X130976553Y-89119077D01*
X131047492Y-89190140D01*
X131424821Y-89346821D01*
X131833387Y-89347178D01*
X132210989Y-89191156D01*
X132500140Y-88902508D01*
X132656821Y-88525179D01*
X132657178Y-88116613D01*
X132501156Y-87739011D01*
X132212508Y-87449860D01*
X131835179Y-87293179D01*
X131808065Y-87293155D01*
X123042455Y-78527545D01*
X122911631Y-78440132D01*
X122941787Y-78440158D01*
X123319389Y-78284136D01*
X123373241Y-78230377D01*
X123425892Y-78283120D01*
X123803221Y-78439801D01*
X124211787Y-78440158D01*
X124589389Y-78284136D01*
X124643241Y-78230377D01*
X124695892Y-78283120D01*
X125073221Y-78439801D01*
X125481787Y-78440158D01*
X125859389Y-78284136D01*
X125913241Y-78230377D01*
X125965892Y-78283120D01*
X126343221Y-78439801D01*
X126751787Y-78440158D01*
X127129389Y-78284136D01*
X127183241Y-78230377D01*
X127235892Y-78283120D01*
X127613221Y-78439801D01*
X128021787Y-78440158D01*
X128399389Y-78284136D01*
X128453241Y-78230377D01*
X128505892Y-78283120D01*
X128883221Y-78439801D01*
X129291787Y-78440158D01*
X129669389Y-78284136D01*
X129723241Y-78230377D01*
X129775892Y-78283120D01*
X130153221Y-78439801D01*
X130561787Y-78440158D01*
X130939389Y-78284136D01*
X130993241Y-78230377D01*
X131045892Y-78283120D01*
X131423221Y-78439801D01*
X131831787Y-78440158D01*
X132209389Y-78284136D01*
X132498540Y-77995488D01*
X132655221Y-77618159D01*
X132655578Y-77209593D01*
X132499556Y-76831991D01*
X132210908Y-76542840D01*
X131833579Y-76386159D01*
X131425013Y-76385802D01*
X131047411Y-76541824D01*
X130993559Y-76595583D01*
X130940908Y-76542840D01*
X130563579Y-76386159D01*
X130155013Y-76385802D01*
X129777411Y-76541824D01*
X129723559Y-76595583D01*
X129670908Y-76542840D01*
X129293579Y-76386159D01*
X128885013Y-76385802D01*
X128507411Y-76541824D01*
X128453559Y-76595583D01*
X128400908Y-76542840D01*
X128023579Y-76386159D01*
X127615013Y-76385802D01*
X127237411Y-76541824D01*
X127183559Y-76595583D01*
X127130908Y-76542840D01*
X126753579Y-76386159D01*
X126345013Y-76385802D01*
X125967411Y-76541824D01*
X125913559Y-76595583D01*
X125860908Y-76542840D01*
X125483579Y-76386159D01*
X125075013Y-76385802D01*
X124697411Y-76541824D01*
X124643559Y-76595583D01*
X124590908Y-76542840D01*
X124213579Y-76386159D01*
X123805013Y-76385802D01*
X123427411Y-76541824D01*
X123373559Y-76595583D01*
X123320908Y-76542840D01*
X122943579Y-76386159D01*
X122535013Y-76385802D01*
X122157411Y-76541824D01*
X122103559Y-76595583D01*
X122050908Y-76542840D01*
X121673579Y-76386159D01*
X121265013Y-76385802D01*
X120887411Y-76541824D01*
X120833559Y-76595583D01*
X120780908Y-76542840D01*
X120403579Y-76386159D01*
X119995013Y-76385802D01*
X119617411Y-76541824D01*
X119563559Y-76595583D01*
X119510908Y-76542840D01*
X119133579Y-76386159D01*
X118725013Y-76385802D01*
X118347411Y-76541824D01*
X118293559Y-76595583D01*
X118240908Y-76542840D01*
X117863579Y-76386159D01*
X117455013Y-76385802D01*
X117077411Y-76541824D01*
X117023559Y-76595583D01*
X116970908Y-76542840D01*
X116593579Y-76386159D01*
X116185013Y-76385802D01*
X115807411Y-76541824D01*
X115753559Y-76595583D01*
X115700908Y-76542840D01*
X115323579Y-76386159D01*
X114915013Y-76385802D01*
X114537411Y-76541824D01*
X114483559Y-76595583D01*
X114430908Y-76542840D01*
X114053579Y-76386159D01*
X113645013Y-76385802D01*
X113267411Y-76541824D01*
X113213559Y-76595583D01*
X113160908Y-76542840D01*
X112783579Y-76386159D01*
X112375013Y-76385802D01*
X111997411Y-76541824D01*
X111943559Y-76595583D01*
X111890908Y-76542840D01*
X111513579Y-76386159D01*
X111105013Y-76385802D01*
X110727411Y-76541824D01*
X110673559Y-76595583D01*
X110620908Y-76542840D01*
X110243579Y-76386159D01*
X109835013Y-76385802D01*
X109457411Y-76541824D01*
X109403559Y-76595583D01*
X109350908Y-76542840D01*
X108973579Y-76386159D01*
X108565013Y-76385802D01*
X108187411Y-76541824D01*
X108133559Y-76595583D01*
X108080908Y-76542840D01*
X107703579Y-76386159D01*
X107505591Y-76385986D01*
X107512621Y-76369055D01*
X107513177Y-75731741D01*
X107505031Y-75712026D01*
X107701787Y-75712198D01*
X108079389Y-75556176D01*
X108133241Y-75502417D01*
X108185892Y-75555160D01*
X108563221Y-75711841D01*
X108971787Y-75712198D01*
X109349389Y-75556176D01*
X109403241Y-75502417D01*
X109455892Y-75555160D01*
X109833221Y-75711841D01*
X110241787Y-75712198D01*
X110619389Y-75556176D01*
X110673241Y-75502417D01*
X110725892Y-75555160D01*
X111103221Y-75711841D01*
X111511787Y-75712198D01*
X111889389Y-75556176D01*
X111943241Y-75502417D01*
X111995892Y-75555160D01*
X112373221Y-75711841D01*
X112781787Y-75712198D01*
X113159389Y-75556176D01*
X113213241Y-75502417D01*
X113265892Y-75555160D01*
X113643221Y-75711841D01*
X114051787Y-75712198D01*
X114429389Y-75556176D01*
X114483241Y-75502417D01*
X114535892Y-75555160D01*
X114913221Y-75711841D01*
X115321787Y-75712198D01*
X115699389Y-75556176D01*
X115753241Y-75502417D01*
X115805892Y-75555160D01*
X116183221Y-75711841D01*
X116591787Y-75712198D01*
X116969389Y-75556176D01*
X117023241Y-75502417D01*
X117075892Y-75555160D01*
X117453221Y-75711841D01*
X117861787Y-75712198D01*
X118239389Y-75556176D01*
X118293241Y-75502417D01*
X118345892Y-75555160D01*
X118723221Y-75711841D01*
X119131787Y-75712198D01*
X119509389Y-75556176D01*
X119563241Y-75502417D01*
X119615892Y-75555160D01*
X119993221Y-75711841D01*
X120401787Y-75712198D01*
X120779389Y-75556176D01*
X120833241Y-75502417D01*
X120885892Y-75555160D01*
X121263221Y-75711841D01*
X121671787Y-75712198D01*
X122049389Y-75556176D01*
X122103241Y-75502417D01*
X122155892Y-75555160D01*
X122533221Y-75711841D01*
X122941787Y-75712198D01*
X123319389Y-75556176D01*
X123373241Y-75502417D01*
X123425892Y-75555160D01*
X123803221Y-75711841D01*
X124211787Y-75712198D01*
X124589389Y-75556176D01*
X124643241Y-75502417D01*
X124695892Y-75555160D01*
X125073221Y-75711841D01*
X125481787Y-75712198D01*
X125859389Y-75556176D01*
X125913241Y-75502417D01*
X125965892Y-75555160D01*
X126343221Y-75711841D01*
X126751787Y-75712198D01*
X127129389Y-75556176D01*
X127183241Y-75502417D01*
X127235892Y-75555160D01*
X127613221Y-75711841D01*
X128021787Y-75712198D01*
X128399389Y-75556176D01*
X128453241Y-75502417D01*
X128505892Y-75555160D01*
X128883221Y-75711841D01*
X129291787Y-75712198D01*
X129669389Y-75556176D01*
X129723241Y-75502417D01*
X129775892Y-75555160D01*
X130153221Y-75711841D01*
X130561787Y-75712198D01*
X130939389Y-75556176D01*
X130993241Y-75502417D01*
X131045892Y-75555160D01*
X131423221Y-75711841D01*
X131831787Y-75712198D01*
X132209389Y-75556176D01*
X132498540Y-75267528D01*
X132655221Y-74890199D01*
X132655578Y-74481633D01*
X132499556Y-74104031D01*
X132210908Y-73814880D01*
X131833579Y-73658199D01*
X131806465Y-73658175D01*
X122973164Y-64824874D01*
X123320989Y-64681156D01*
X123372550Y-64629685D01*
X123425892Y-64683120D01*
X123803221Y-64839801D01*
X124211787Y-64840158D01*
X124589389Y-64684136D01*
X124643241Y-64630377D01*
X124695892Y-64683120D01*
X125073221Y-64839801D01*
X125481787Y-64840158D01*
X125859389Y-64684136D01*
X125913241Y-64630377D01*
X125965892Y-64683120D01*
X126343221Y-64839801D01*
X126751787Y-64840158D01*
X127129389Y-64684136D01*
X127183241Y-64630377D01*
X127235892Y-64683120D01*
X127613221Y-64839801D01*
X128021787Y-64840158D01*
X128399389Y-64684136D01*
X128475541Y-64608116D01*
X128517492Y-64650140D01*
X128894821Y-64806821D01*
X129303387Y-64807178D01*
X129680989Y-64651156D01*
X129712541Y-64619659D01*
X129775892Y-64683120D01*
X130153221Y-64839801D01*
X130561787Y-64840158D01*
X130939389Y-64684136D01*
X130993241Y-64630377D01*
X131045892Y-64683120D01*
X131423221Y-64839801D01*
X131831787Y-64840158D01*
X132209389Y-64684136D01*
X132498540Y-64395488D01*
X132655221Y-64018159D01*
X132655578Y-63609593D01*
X132499556Y-63231991D01*
X132210908Y-62942840D01*
X131833579Y-62786159D01*
X131425013Y-62785802D01*
X131047411Y-62941824D01*
X130993559Y-62995583D01*
X130940908Y-62942840D01*
X130563579Y-62786159D01*
X130155013Y-62785802D01*
X129777411Y-62941824D01*
X129745859Y-62973321D01*
X129682508Y-62909860D01*
X129305179Y-62753179D01*
X128896613Y-62752822D01*
X128519011Y-62908844D01*
X128442859Y-62984864D01*
X128400908Y-62942840D01*
X128023579Y-62786159D01*
X127615013Y-62785802D01*
X127237411Y-62941824D01*
X127183559Y-62995583D01*
X127130908Y-62942840D01*
X126753579Y-62786159D01*
X126345013Y-62785802D01*
X125967411Y-62941824D01*
X125913559Y-62995583D01*
X125860908Y-62942840D01*
X125483579Y-62786159D01*
X125075013Y-62785802D01*
X124697411Y-62941824D01*
X124643559Y-62995583D01*
X124590908Y-62942840D01*
X124213579Y-62786159D01*
X123805013Y-62785802D01*
X123427411Y-62941824D01*
X123375850Y-62993295D01*
X123322508Y-62939860D01*
X122945179Y-62783179D01*
X122536613Y-62782822D01*
X122159011Y-62938844D01*
X122102867Y-62994890D01*
X122050908Y-62942840D01*
X121673579Y-62786159D01*
X121265013Y-62785802D01*
X120887411Y-62941824D01*
X120833559Y-62995583D01*
X120780908Y-62942840D01*
X120403579Y-62786159D01*
X119995013Y-62785802D01*
X119617411Y-62941824D01*
X119563559Y-62995583D01*
X119510908Y-62942840D01*
X119133579Y-62786159D01*
X118725013Y-62785802D01*
X118347411Y-62941824D01*
X118293559Y-62995583D01*
X118240908Y-62942840D01*
X117863579Y-62786159D01*
X117455013Y-62785802D01*
X117077411Y-62941824D01*
X117023559Y-62995583D01*
X116970908Y-62942840D01*
X116593579Y-62786159D01*
X116185013Y-62785802D01*
X115807411Y-62941824D01*
X115753559Y-62995583D01*
X115700908Y-62942840D01*
X115323579Y-62786159D01*
X114915013Y-62785802D01*
X114537411Y-62941824D01*
X114483559Y-62995583D01*
X114430908Y-62942840D01*
X114053579Y-62786159D01*
X113645013Y-62785802D01*
X113267411Y-62941824D01*
X113213559Y-62995583D01*
X113160908Y-62942840D01*
X112783579Y-62786159D01*
X112375013Y-62785802D01*
X111997411Y-62941824D01*
X111943559Y-62995583D01*
X111890908Y-62942840D01*
X111513579Y-62786159D01*
X111105013Y-62785802D01*
X110727411Y-62941824D01*
X110673559Y-62995583D01*
X110620908Y-62942840D01*
X110243579Y-62786159D01*
X109835013Y-62785802D01*
X109457411Y-62941824D01*
X109403559Y-62995583D01*
X109350908Y-62942840D01*
X108973579Y-62786159D01*
X108565013Y-62785802D01*
X108187411Y-62941824D01*
X108133559Y-62995583D01*
X108080908Y-62942840D01*
X107703579Y-62786159D01*
X107505591Y-62785986D01*
X107512621Y-62769055D01*
X107513177Y-62131741D01*
X107505031Y-62112026D01*
X107701787Y-62112198D01*
X108079389Y-61956176D01*
X108133241Y-61902417D01*
X108185892Y-61955160D01*
X108563221Y-62111841D01*
X108971787Y-62112198D01*
X109349389Y-61956176D01*
X109403241Y-61902417D01*
X109455892Y-61955160D01*
X109833221Y-62111841D01*
X110241787Y-62112198D01*
X110619389Y-61956176D01*
X110673241Y-61902417D01*
X110725892Y-61955160D01*
X111103221Y-62111841D01*
X111511787Y-62112198D01*
X111889389Y-61956176D01*
X111943241Y-61902417D01*
X111995892Y-61955160D01*
X112373221Y-62111841D01*
X112781787Y-62112198D01*
X113159389Y-61956176D01*
X113213241Y-61902417D01*
X113265892Y-61955160D01*
X113643221Y-62111841D01*
X114051787Y-62112198D01*
X114429389Y-61956176D01*
X114483241Y-61902417D01*
X114535892Y-61955160D01*
X114913221Y-62111841D01*
X115321787Y-62112198D01*
X115699389Y-61956176D01*
X115753241Y-61902417D01*
X115805892Y-61955160D01*
X116183221Y-62111841D01*
X116591787Y-62112198D01*
X116969389Y-61956176D01*
X117023241Y-61902417D01*
X117075892Y-61955160D01*
X117453221Y-62111841D01*
X117861787Y-62112198D01*
X118239389Y-61956176D01*
X118293241Y-61902417D01*
X118345892Y-61955160D01*
X118723221Y-62111841D01*
X119131787Y-62112198D01*
X119509389Y-61956176D01*
X119563241Y-61902417D01*
X119615892Y-61955160D01*
X119993221Y-62111841D01*
X120401787Y-62112198D01*
X120779389Y-61956176D01*
X120833241Y-61902417D01*
X120885892Y-61955160D01*
X121263221Y-62111841D01*
X121671787Y-62112198D01*
X122049389Y-61956176D01*
X122103241Y-61902417D01*
X122155892Y-61955160D01*
X122533221Y-62111841D01*
X122941787Y-62112198D01*
X123319389Y-61956176D01*
X123373241Y-61902417D01*
X123425892Y-61955160D01*
X123803221Y-62111841D01*
X124211787Y-62112198D01*
X124589389Y-61956176D01*
X124643241Y-61902417D01*
X124695892Y-61955160D01*
X125073221Y-62111841D01*
X125481787Y-62112198D01*
X125859389Y-61956176D01*
X125913241Y-61902417D01*
X125965892Y-61955160D01*
X126343221Y-62111841D01*
X126751787Y-62112198D01*
X127129389Y-61956176D01*
X127183241Y-61902417D01*
X127235892Y-61955160D01*
X127613221Y-62111841D01*
X128021787Y-62112198D01*
X128399389Y-61956176D01*
X128453241Y-61902417D01*
X128505892Y-61955160D01*
X128883221Y-62111841D01*
X129291787Y-62112198D01*
X129669389Y-61956176D01*
X129723241Y-61902417D01*
X129775892Y-61955160D01*
X130153221Y-62111841D01*
X130561787Y-62112198D01*
X130939389Y-61956176D01*
X130993241Y-61902417D01*
X131045892Y-61955160D01*
X131423221Y-62111841D01*
X131831787Y-62112198D01*
X132209389Y-61956176D01*
X132498540Y-61667528D01*
X132655221Y-61290199D01*
X132655578Y-60881633D01*
X132499556Y-60504031D01*
X132452000Y-60456392D01*
X132452000Y-59569383D01*
X132734821Y-59686821D01*
X133143387Y-59687178D01*
X133520989Y-59531156D01*
X133810140Y-59242508D01*
X133966821Y-58865179D01*
X133967178Y-58456613D01*
X133811156Y-58079011D01*
X133522508Y-57789860D01*
X133481908Y-57773002D01*
X137873000Y-53381910D01*
X137873000Y-90773000D01*
G36*
X47961103Y-32119821D02*
X47907272Y-32348867D01*
X48615800Y-33057395D01*
X49324328Y-32348867D01*
X49270497Y-32119821D01*
X49074879Y-32052000D01*
X77436437Y-32052000D01*
X77272703Y-32119821D01*
X77218872Y-32348867D01*
X77927400Y-33057395D01*
X78635928Y-32348867D01*
X78582097Y-32119821D01*
X78386479Y-32052000D01*
X81678237Y-32052000D01*
X81514503Y-32119821D01*
X81460672Y-32348867D01*
X82169200Y-33057395D01*
X82877728Y-32348867D01*
X82823897Y-32119821D01*
X82628279Y-32052000D01*
X117339837Y-32052000D01*
X117176103Y-32119821D01*
X117122272Y-32348867D01*
X117830800Y-33057395D01*
X118539328Y-32348867D01*
X118485497Y-32119821D01*
X118289879Y-32052000D01*
X121581637Y-32052000D01*
X121417903Y-32119821D01*
X121364072Y-32348867D01*
X122072600Y-33057395D01*
X122781128Y-32348867D01*
X122727297Y-32119821D01*
X122531679Y-32052000D01*
X150893237Y-32052000D01*
X150729503Y-32119821D01*
X150675672Y-32348867D01*
X151384200Y-33057395D01*
X152092728Y-32348867D01*
X152038897Y-32119821D01*
X151843279Y-32052000D01*
X153198000Y-32052000D01*
X153198000Y-41873000D01*
X151775124Y-41873000D01*
X151564888Y-41662397D01*
X150551207Y-41241480D01*
X149645400Y-41240689D01*
X149645400Y-40467016D01*
X149663540Y-40448908D01*
X149820221Y-40071579D01*
X149820578Y-39663013D01*
X149790841Y-39591043D01*
X150080989Y-39471156D01*
X150370140Y-39182508D01*
X150526821Y-38805179D01*
X150527178Y-38396613D01*
X150371156Y-38019011D01*
X150082508Y-37729860D01*
X149705179Y-37573179D01*
X149296613Y-37572822D01*
X148919011Y-37728844D01*
X148629860Y-38017492D01*
X148577158Y-38144412D01*
X148577178Y-38121613D01*
X148421156Y-37744011D01*
X148132508Y-37454860D01*
X147755179Y-37298179D01*
X147346613Y-37297822D01*
X146969011Y-37453844D01*
X146893136Y-37529587D01*
X146835908Y-37472260D01*
X146458579Y-37315579D01*
X146050013Y-37315222D01*
X145672411Y-37471244D01*
X145618559Y-37525003D01*
X145565908Y-37472260D01*
X145188579Y-37315579D01*
X144780013Y-37315222D01*
X144402411Y-37471244D01*
X144348559Y-37525003D01*
X144295908Y-37472260D01*
X143918579Y-37315579D01*
X143510013Y-37315222D01*
X143132411Y-37471244D01*
X143078559Y-37525003D01*
X143025908Y-37472260D01*
X142648579Y-37315579D01*
X142240013Y-37315222D01*
X141862411Y-37471244D01*
X141808559Y-37525003D01*
X141755908Y-37472260D01*
X141378579Y-37315579D01*
X140970013Y-37315222D01*
X140592411Y-37471244D01*
X140538559Y-37525003D01*
X140485908Y-37472260D01*
X140108579Y-37315579D01*
X139700013Y-37315222D01*
X139322411Y-37471244D01*
X139268559Y-37525003D01*
X139215908Y-37472260D01*
X138838579Y-37315579D01*
X138430013Y-37315222D01*
X138052411Y-37471244D01*
X137998559Y-37525003D01*
X137945908Y-37472260D01*
X137568579Y-37315579D01*
X137160013Y-37315222D01*
X136782411Y-37471244D01*
X136728559Y-37525003D01*
X136675908Y-37472260D01*
X136298579Y-37315579D01*
X135890013Y-37315222D01*
X135512411Y-37471244D01*
X135458559Y-37525003D01*
X135405908Y-37472260D01*
X135028579Y-37315579D01*
X134620013Y-37315222D01*
X134242411Y-37471244D01*
X134188559Y-37525003D01*
X134135908Y-37472260D01*
X133758579Y-37315579D01*
X133350013Y-37315222D01*
X132972411Y-37471244D01*
X132918559Y-37525003D01*
X132865908Y-37472260D01*
X132488579Y-37315579D01*
X132080013Y-37315222D01*
X131702411Y-37471244D01*
X131648559Y-37525003D01*
X131595908Y-37472260D01*
X131218579Y-37315579D01*
X130810013Y-37315222D01*
X130432411Y-37471244D01*
X130378559Y-37525003D01*
X130325908Y-37472260D01*
X129948579Y-37315579D01*
X129540013Y-37315222D01*
X129162411Y-37471244D01*
X129108559Y-37525003D01*
X129055908Y-37472260D01*
X128678579Y-37315579D01*
X128270013Y-37315222D01*
X127892411Y-37471244D01*
X127838559Y-37525003D01*
X127785908Y-37472260D01*
X127408579Y-37315579D01*
X127000013Y-37315222D01*
X126622411Y-37471244D01*
X126568559Y-37525003D01*
X126515908Y-37472260D01*
X126138579Y-37315579D01*
X125730013Y-37315222D01*
X125352411Y-37471244D01*
X125298559Y-37525003D01*
X125245908Y-37472260D01*
X124868579Y-37315579D01*
X124460013Y-37315222D01*
X124082411Y-37471244D01*
X123793260Y-37759892D01*
X123636579Y-38137221D01*
X123636222Y-38545787D01*
X123792244Y-38923389D01*
X123973002Y-39104462D01*
X123793260Y-39283892D01*
X123636579Y-39661221D01*
X123636555Y-39688335D01*
X121388764Y-41936126D01*
X121382508Y-41929860D01*
X121005179Y-41773179D01*
X120827024Y-41773023D01*
X120827178Y-41596613D01*
X120671156Y-41219011D01*
X120382508Y-40929860D01*
X120020046Y-40779352D01*
X119871156Y-40419011D01*
X119582508Y-40129860D01*
X119205179Y-39973179D01*
X118796613Y-39972822D01*
X118419011Y-40128844D01*
X118129860Y-40417492D01*
X117973179Y-40794821D01*
X117972822Y-41203387D01*
X118128844Y-41580989D01*
X118417492Y-41870140D01*
X118779954Y-42020648D01*
X118928844Y-42380989D01*
X119217492Y-42670140D01*
X119594821Y-42826821D01*
X119772976Y-42826977D01*
X119772822Y-43003387D01*
X119928844Y-43380989D01*
X119936366Y-43388524D01*
X106895945Y-56428945D01*
X106711255Y-56705354D01*
X106646400Y-57031400D01*
X106646400Y-60484404D01*
X106628260Y-60502512D01*
X106471579Y-60879841D01*
X106471520Y-60947170D01*
X106230955Y-60847279D01*
X105593641Y-60846723D01*
X105462000Y-60901116D01*
X105462000Y-44626310D01*
X106194923Y-43893387D01*
X114172822Y-43893387D01*
X114328844Y-44270989D01*
X114617492Y-44560140D01*
X114994821Y-44716821D01*
X115403387Y-44717178D01*
X115780989Y-44561156D01*
X116070140Y-44272508D01*
X116226821Y-43895179D01*
X116227178Y-43486613D01*
X116071156Y-43109011D01*
X115782508Y-42819860D01*
X115405179Y-42663179D01*
X114996613Y-42662822D01*
X114619011Y-42818844D01*
X114329860Y-43107492D01*
X114173179Y-43484821D01*
X114172822Y-43893387D01*
X106194923Y-43893387D01*
X109067754Y-41020556D01*
X109093387Y-41020578D01*
X109470989Y-40864556D01*
X109524841Y-40810797D01*
X109577492Y-40863540D01*
X109954821Y-41020221D01*
X110363387Y-41020578D01*
X110740989Y-40864556D01*
X110794841Y-40810797D01*
X110847492Y-40863540D01*
X111224821Y-41020221D01*
X111633387Y-41020578D01*
X112010989Y-40864556D01*
X112064841Y-40810797D01*
X112117492Y-40863540D01*
X112494821Y-41020221D01*
X112903387Y-41020578D01*
X113280989Y-40864556D01*
X113334841Y-40810797D01*
X113387492Y-40863540D01*
X113764821Y-41020221D01*
X114173387Y-41020578D01*
X114550989Y-40864556D01*
X114604841Y-40810797D01*
X114657492Y-40863540D01*
X115034821Y-41020221D01*
X115443387Y-41020578D01*
X115820989Y-40864556D01*
X116110140Y-40575908D01*
X116266821Y-40198579D01*
X116267178Y-39790013D01*
X116111156Y-39412411D01*
X115930398Y-39231338D01*
X116110140Y-39051908D01*
X116266821Y-38674579D01*
X116267178Y-38266013D01*
X116111156Y-37888411D01*
X115822508Y-37599260D01*
X115445179Y-37442579D01*
X115036613Y-37442222D01*
X114659011Y-37598244D01*
X114605159Y-37652003D01*
X114552508Y-37599260D01*
X114175179Y-37442579D01*
X113766613Y-37442222D01*
X113389011Y-37598244D01*
X113099860Y-37886892D01*
X112943179Y-38264221D01*
X112942822Y-38672787D01*
X113097152Y-39046293D01*
X112905179Y-38966579D01*
X112496613Y-38966222D01*
X112302398Y-39046470D01*
X112456821Y-38674579D01*
X112457178Y-38266013D01*
X112301156Y-37888411D01*
X112012508Y-37599260D01*
X111635179Y-37442579D01*
X111226613Y-37442222D01*
X110849011Y-37598244D01*
X110559860Y-37886892D01*
X110403179Y-38264221D01*
X110402822Y-38672787D01*
X110557152Y-39046293D01*
X110365179Y-38966579D01*
X109956613Y-38966222D01*
X109762398Y-39046470D01*
X109916821Y-38674579D01*
X109917178Y-38266013D01*
X109761156Y-37888411D01*
X109472508Y-37599260D01*
X109095179Y-37442579D01*
X108686613Y-37442222D01*
X108309011Y-37598244D01*
X108255159Y-37652003D01*
X108202508Y-37599260D01*
X107825179Y-37442579D01*
X107416613Y-37442222D01*
X107039011Y-37598244D01*
X106985159Y-37652003D01*
X106932508Y-37599260D01*
X106555179Y-37442579D01*
X106146613Y-37442222D01*
X105769011Y-37598244D01*
X105715159Y-37652003D01*
X105662508Y-37599260D01*
X105285179Y-37442579D01*
X104876613Y-37442222D01*
X104499011Y-37598244D01*
X104445159Y-37652003D01*
X104392508Y-37599260D01*
X104015179Y-37442579D01*
X103606613Y-37442222D01*
X103229011Y-37598244D01*
X103175159Y-37652003D01*
X103122508Y-37599260D01*
X102745179Y-37442579D01*
X102336613Y-37442222D01*
X101959011Y-37598244D01*
X101905159Y-37652003D01*
X101852508Y-37599260D01*
X101475179Y-37442579D01*
X101066613Y-37442222D01*
X100689011Y-37598244D01*
X100635159Y-37652003D01*
X100582508Y-37599260D01*
X100205179Y-37442579D01*
X99796613Y-37442222D01*
X99419011Y-37598244D01*
X99365159Y-37652003D01*
X99312508Y-37599260D01*
X98935179Y-37442579D01*
X98526613Y-37442222D01*
X98149011Y-37598244D01*
X98095159Y-37652003D01*
X98042508Y-37599260D01*
X97665179Y-37442579D01*
X97256613Y-37442222D01*
X96879011Y-37598244D01*
X96825159Y-37652003D01*
X96772508Y-37599260D01*
X96395179Y-37442579D01*
X95986613Y-37442222D01*
X95609011Y-37598244D01*
X95555159Y-37652003D01*
X95502508Y-37599260D01*
X95125179Y-37442579D01*
X94716613Y-37442222D01*
X94339011Y-37598244D01*
X94285159Y-37652003D01*
X94232508Y-37599260D01*
X93855179Y-37442579D01*
X93446613Y-37442222D01*
X93069011Y-37598244D01*
X93015159Y-37652003D01*
X92962508Y-37599260D01*
X92585179Y-37442579D01*
X92176613Y-37442222D01*
X91799011Y-37598244D01*
X91745159Y-37652003D01*
X91692508Y-37599260D01*
X91315179Y-37442579D01*
X90906613Y-37442222D01*
X90529011Y-37598244D01*
X90475159Y-37652003D01*
X90422508Y-37599260D01*
X90045179Y-37442579D01*
X89636613Y-37442222D01*
X89259011Y-37598244D01*
X89205159Y-37652003D01*
X89152508Y-37599260D01*
X88775179Y-37442579D01*
X88366613Y-37442222D01*
X87989011Y-37598244D01*
X87935159Y-37652003D01*
X87882508Y-37599260D01*
X87505179Y-37442579D01*
X87096613Y-37442222D01*
X86719011Y-37598244D01*
X86665159Y-37652003D01*
X86612508Y-37599260D01*
X86235179Y-37442579D01*
X85826613Y-37442222D01*
X85449011Y-37598244D01*
X85395159Y-37652003D01*
X85342508Y-37599260D01*
X84965179Y-37442579D01*
X84556613Y-37442222D01*
X84179011Y-37598244D01*
X83889860Y-37886892D01*
X83733179Y-38264221D01*
X83732822Y-38672787D01*
X83888844Y-39050389D01*
X84069602Y-39231462D01*
X83889860Y-39410892D01*
X83733179Y-39788221D01*
X83732822Y-40196787D01*
X83888844Y-40574389D01*
X83966024Y-40651703D01*
X83972855Y-40686046D01*
X84157545Y-40962455D01*
X84597545Y-41402455D01*
X84873954Y-41587145D01*
X85200000Y-41652000D01*
X85653488Y-41652000D01*
X86504658Y-42503170D01*
X86106613Y-42502822D01*
X85745939Y-42651849D01*
X79479823Y-36385733D01*
X81460672Y-36385733D01*
X81514503Y-36614779D01*
X81991864Y-36780281D01*
X82496223Y-36750506D01*
X82823897Y-36614779D01*
X82877728Y-36385733D01*
X117122272Y-36385733D01*
X117176103Y-36614779D01*
X117653464Y-36780281D01*
X118157823Y-36750506D01*
X118485497Y-36614779D01*
X118539328Y-36385733D01*
X121364072Y-36385733D01*
X121417903Y-36614779D01*
X121895264Y-36780281D01*
X122399623Y-36750506D01*
X122727297Y-36614779D01*
X122781128Y-36385733D01*
X150675672Y-36385733D01*
X150729503Y-36614779D01*
X151206864Y-36780281D01*
X151711223Y-36750506D01*
X152038897Y-36614779D01*
X152092728Y-36385733D01*
X151384200Y-35677205D01*
X150675672Y-36385733D01*
X122781128Y-36385733D01*
X122072600Y-35677205D01*
X121364072Y-36385733D01*
X118539328Y-36385733D01*
X117830800Y-35677205D01*
X117122272Y-36385733D01*
X82877728Y-36385733D01*
X82169200Y-35677205D01*
X81460672Y-36385733D01*
X79479823Y-36385733D01*
X79181631Y-36087541D01*
X79088585Y-36025370D01*
X79210081Y-35674936D01*
X79189143Y-35320264D01*
X80886519Y-35320264D01*
X80916294Y-35824623D01*
X81052021Y-36152297D01*
X81281067Y-36206128D01*
X81989595Y-35497600D01*
X82348805Y-35497600D01*
X83057333Y-36206128D01*
X83286379Y-36152297D01*
X83451881Y-35674936D01*
X83430943Y-35320264D01*
X116548119Y-35320264D01*
X116577894Y-35824623D01*
X116713621Y-36152297D01*
X116942667Y-36206128D01*
X117651195Y-35497600D01*
X118010405Y-35497600D01*
X118718933Y-36206128D01*
X118947979Y-36152297D01*
X119113481Y-35674936D01*
X119092543Y-35320264D01*
X120789919Y-35320264D01*
X120819694Y-35824623D01*
X120955421Y-36152297D01*
X121184467Y-36206128D01*
X121892995Y-35497600D01*
X122252205Y-35497600D01*
X122960733Y-36206128D01*
X123189779Y-36152297D01*
X123355281Y-35674936D01*
X123334343Y-35320264D01*
X150101519Y-35320264D01*
X150131294Y-35824623D01*
X150267021Y-36152297D01*
X150496067Y-36206128D01*
X151204595Y-35497600D01*
X151563805Y-35497600D01*
X152272333Y-36206128D01*
X152501379Y-36152297D01*
X152666881Y-35674936D01*
X152637106Y-35170577D01*
X152501379Y-34842903D01*
X152272333Y-34789072D01*
X151563805Y-35497600D01*
X151204595Y-35497600D01*
X150496067Y-34789072D01*
X150267021Y-34842903D01*
X150101519Y-35320264D01*
X123334343Y-35320264D01*
X123325506Y-35170577D01*
X123189779Y-34842903D01*
X122960733Y-34789072D01*
X122252205Y-35497600D01*
X121892995Y-35497600D01*
X121184467Y-34789072D01*
X120955421Y-34842903D01*
X120789919Y-35320264D01*
X119092543Y-35320264D01*
X119083706Y-35170577D01*
X118947979Y-34842903D01*
X118718933Y-34789072D01*
X118010405Y-35497600D01*
X117651195Y-35497600D01*
X116942667Y-34789072D01*
X116713621Y-34842903D01*
X116548119Y-35320264D01*
X83430943Y-35320264D01*
X83422106Y-35170577D01*
X83286379Y-34842903D01*
X83057333Y-34789072D01*
X82348805Y-35497600D01*
X81989595Y-35497600D01*
X81281067Y-34789072D01*
X81052021Y-34842903D01*
X80886519Y-35320264D01*
X79189143Y-35320264D01*
X79180306Y-35170577D01*
X79044579Y-34842903D01*
X78815533Y-34789072D01*
X78107005Y-35497600D01*
X78121148Y-35511743D01*
X77941543Y-35691348D01*
X77927400Y-35677205D01*
X77913258Y-35691348D01*
X77733653Y-35511743D01*
X77747795Y-35497600D01*
X77039267Y-34789072D01*
X76810221Y-34842903D01*
X76644719Y-35320264D01*
X76674494Y-35824623D01*
X76680033Y-35837996D01*
X56390004Y-35837996D01*
X56063958Y-35902851D01*
X55787549Y-36087541D01*
X55308148Y-36566942D01*
X55251156Y-36429011D01*
X54962508Y-36139860D01*
X54585179Y-35983179D01*
X54176613Y-35982822D01*
X53799011Y-36138844D01*
X53614301Y-36323233D01*
X53325179Y-36203179D01*
X52916613Y-36202822D01*
X52539011Y-36358844D01*
X52455159Y-36442550D01*
X52432508Y-36419860D01*
X52055179Y-36263179D01*
X51646613Y-36262822D01*
X51269011Y-36418844D01*
X50979860Y-36707492D01*
X50823179Y-37084821D01*
X50822913Y-37389721D01*
X50625611Y-37471244D01*
X50336460Y-37759892D01*
X50179779Y-38137221D01*
X50179422Y-38545787D01*
X50335444Y-38923389D01*
X50516202Y-39104462D01*
X50336460Y-39283892D01*
X50179779Y-39661221D01*
X50179422Y-40069787D01*
X50335444Y-40447389D01*
X50624092Y-40736540D01*
X51001421Y-40893221D01*
X51143093Y-40893345D01*
X51142822Y-41203387D01*
X51284348Y-41545907D01*
X50551207Y-41241480D01*
X49453609Y-41240522D01*
X48439194Y-41659670D01*
X47662397Y-42435112D01*
X47241480Y-43448793D01*
X47241284Y-43673123D01*
X46896613Y-43672822D01*
X46802000Y-43711915D01*
X46802000Y-36385733D01*
X47907272Y-36385733D01*
X47961103Y-36614779D01*
X48438464Y-36780281D01*
X48942823Y-36750506D01*
X49270497Y-36614779D01*
X49324328Y-36385733D01*
X48615800Y-35677205D01*
X47907272Y-36385733D01*
X46802000Y-36385733D01*
X46802000Y-35320264D01*
X47333119Y-35320264D01*
X47362894Y-35824623D01*
X47498621Y-36152297D01*
X47727667Y-36206128D01*
X48436195Y-35497600D01*
X48795405Y-35497600D01*
X49503933Y-36206128D01*
X49732979Y-36152297D01*
X49898481Y-35674936D01*
X49868706Y-35170577D01*
X49732979Y-34842903D01*
X49503933Y-34789072D01*
X48795405Y-35497600D01*
X48436195Y-35497600D01*
X47727667Y-34789072D01*
X47498621Y-34842903D01*
X47333119Y-35320264D01*
X46802000Y-35320264D01*
X46802000Y-34125133D01*
X47907272Y-34125133D01*
X47961103Y-34354179D01*
X47995590Y-34366136D01*
X47961103Y-34380421D01*
X47907272Y-34609467D01*
X48615800Y-35317995D01*
X49324328Y-34609467D01*
X49270497Y-34380421D01*
X49236010Y-34368464D01*
X49270497Y-34354179D01*
X49324328Y-34125133D01*
X77218872Y-34125133D01*
X77272703Y-34354179D01*
X77307190Y-34366136D01*
X77272703Y-34380421D01*
X77218872Y-34609467D01*
X77927400Y-35317995D01*
X78635928Y-34609467D01*
X78582097Y-34380421D01*
X78547610Y-34368464D01*
X78582097Y-34354179D01*
X78635928Y-34125133D01*
X81460672Y-34125133D01*
X81514503Y-34354179D01*
X81548990Y-34366136D01*
X81514503Y-34380421D01*
X81460672Y-34609467D01*
X82169200Y-35317995D01*
X82877728Y-34609467D01*
X82823897Y-34380421D01*
X82789410Y-34368464D01*
X82823897Y-34354179D01*
X82877728Y-34125133D01*
X117122272Y-34125133D01*
X117176103Y-34354179D01*
X117210590Y-34366136D01*
X117176103Y-34380421D01*
X117122272Y-34609467D01*
X117830800Y-35317995D01*
X118539328Y-34609467D01*
X118485497Y-34380421D01*
X118451010Y-34368464D01*
X118485497Y-34354179D01*
X118539328Y-34125133D01*
X121364072Y-34125133D01*
X121417903Y-34354179D01*
X121452390Y-34366136D01*
X121417903Y-34380421D01*
X121364072Y-34609467D01*
X122072600Y-35317995D01*
X122781128Y-34609467D01*
X122727297Y-34380421D01*
X122692810Y-34368464D01*
X122727297Y-34354179D01*
X122781128Y-34125133D01*
X150675672Y-34125133D01*
X150729503Y-34354179D01*
X150763990Y-34366136D01*
X150729503Y-34380421D01*
X150675672Y-34609467D01*
X151384200Y-35317995D01*
X152092728Y-34609467D01*
X152038897Y-34380421D01*
X152004410Y-34368464D01*
X152038897Y-34354179D01*
X152092728Y-34125133D01*
X151384200Y-33416605D01*
X150675672Y-34125133D01*
X122781128Y-34125133D01*
X122072600Y-33416605D01*
X121364072Y-34125133D01*
X118539328Y-34125133D01*
X117830800Y-33416605D01*
X117122272Y-34125133D01*
X82877728Y-34125133D01*
X82169200Y-33416605D01*
X81460672Y-34125133D01*
X78635928Y-34125133D01*
X77927400Y-33416605D01*
X77218872Y-34125133D01*
X49324328Y-34125133D01*
X48615800Y-33416605D01*
X47907272Y-34125133D01*
X46802000Y-34125133D01*
X46802000Y-33059664D01*
X47333119Y-33059664D01*
X47362894Y-33564023D01*
X47498621Y-33891697D01*
X47727667Y-33945528D01*
X48436195Y-33237000D01*
X48795405Y-33237000D01*
X49503933Y-33945528D01*
X49732979Y-33891697D01*
X49898481Y-33414336D01*
X49877543Y-33059664D01*
X76644719Y-33059664D01*
X76674494Y-33564023D01*
X76810221Y-33891697D01*
X77039267Y-33945528D01*
X77747795Y-33237000D01*
X78107005Y-33237000D01*
X78815533Y-33945528D01*
X79044579Y-33891697D01*
X79210081Y-33414336D01*
X79189143Y-33059664D01*
X80886519Y-33059664D01*
X80916294Y-33564023D01*
X81052021Y-33891697D01*
X81281067Y-33945528D01*
X81989595Y-33237000D01*
X82348805Y-33237000D01*
X83057333Y-33945528D01*
X83286379Y-33891697D01*
X83451881Y-33414336D01*
X83430943Y-33059664D01*
X116548119Y-33059664D01*
X116577894Y-33564023D01*
X116713621Y-33891697D01*
X116942667Y-33945528D01*
X117651195Y-33237000D01*
X118010405Y-33237000D01*
X118718933Y-33945528D01*
X118947979Y-33891697D01*
X119113481Y-33414336D01*
X119092543Y-33059664D01*
X120789919Y-33059664D01*
X120819694Y-33564023D01*
X120955421Y-33891697D01*
X121184467Y-33945528D01*
X121892995Y-33237000D01*
X122252205Y-33237000D01*
X122960733Y-33945528D01*
X123189779Y-33891697D01*
X123355281Y-33414336D01*
X123334343Y-33059664D01*
X150101519Y-33059664D01*
X150131294Y-33564023D01*
X150267021Y-33891697D01*
X150496067Y-33945528D01*
X151204595Y-33237000D01*
X151563805Y-33237000D01*
X152272333Y-33945528D01*
X152501379Y-33891697D01*
X152666881Y-33414336D01*
X152637106Y-32909977D01*
X152501379Y-32582303D01*
X152272333Y-32528472D01*
X151563805Y-33237000D01*
X151204595Y-33237000D01*
X150496067Y-32528472D01*
X150267021Y-32582303D01*
X150101519Y-33059664D01*
X123334343Y-33059664D01*
X123325506Y-32909977D01*
X123189779Y-32582303D01*
X122960733Y-32528472D01*
X122252205Y-33237000D01*
X121892995Y-33237000D01*
X121184467Y-32528472D01*
X120955421Y-32582303D01*
X120789919Y-33059664D01*
X119092543Y-33059664D01*
X119083706Y-32909977D01*
X118947979Y-32582303D01*
X118718933Y-32528472D01*
X118010405Y-33237000D01*
X117651195Y-33237000D01*
X116942667Y-32528472D01*
X116713621Y-32582303D01*
X116548119Y-33059664D01*
X83430943Y-33059664D01*
X83422106Y-32909977D01*
X83286379Y-32582303D01*
X83057333Y-32528472D01*
X82348805Y-33237000D01*
X81989595Y-33237000D01*
X81281067Y-32528472D01*
X81052021Y-32582303D01*
X80886519Y-33059664D01*
X79189143Y-33059664D01*
X79180306Y-32909977D01*
X79044579Y-32582303D01*
X78815533Y-32528472D01*
X78107005Y-33237000D01*
X77747795Y-33237000D01*
X77039267Y-32528472D01*
X76810221Y-32582303D01*
X76644719Y-33059664D01*
X49877543Y-33059664D01*
X49868706Y-32909977D01*
X49732979Y-32582303D01*
X49503933Y-32528472D01*
X48795405Y-33237000D01*
X48436195Y-33237000D01*
X47727667Y-32528472D01*
X47498621Y-32582303D01*
X47333119Y-33059664D01*
X46802000Y-33059664D01*
X46802000Y-32052000D01*
X48124837Y-32052000D01*
X47961103Y-32119821D01*
X47961103Y-32119821D01*
G37*
X47961103Y-32119821D02*
X47907272Y-32348867D01*
X48615800Y-33057395D01*
X49324328Y-32348867D01*
X49270497Y-32119821D01*
X49074879Y-32052000D01*
X77436437Y-32052000D01*
X77272703Y-32119821D01*
X77218872Y-32348867D01*
X77927400Y-33057395D01*
X78635928Y-32348867D01*
X78582097Y-32119821D01*
X78386479Y-32052000D01*
X81678237Y-32052000D01*
X81514503Y-32119821D01*
X81460672Y-32348867D01*
X82169200Y-33057395D01*
X82877728Y-32348867D01*
X82823897Y-32119821D01*
X82628279Y-32052000D01*
X117339837Y-32052000D01*
X117176103Y-32119821D01*
X117122272Y-32348867D01*
X117830800Y-33057395D01*
X118539328Y-32348867D01*
X118485497Y-32119821D01*
X118289879Y-32052000D01*
X121581637Y-32052000D01*
X121417903Y-32119821D01*
X121364072Y-32348867D01*
X122072600Y-33057395D01*
X122781128Y-32348867D01*
X122727297Y-32119821D01*
X122531679Y-32052000D01*
X150893237Y-32052000D01*
X150729503Y-32119821D01*
X150675672Y-32348867D01*
X151384200Y-33057395D01*
X152092728Y-32348867D01*
X152038897Y-32119821D01*
X151843279Y-32052000D01*
X153198000Y-32052000D01*
X153198000Y-41873000D01*
X151775124Y-41873000D01*
X151564888Y-41662397D01*
X150551207Y-41241480D01*
X149645400Y-41240689D01*
X149645400Y-40467016D01*
X149663540Y-40448908D01*
X149820221Y-40071579D01*
X149820578Y-39663013D01*
X149790841Y-39591043D01*
X150080989Y-39471156D01*
X150370140Y-39182508D01*
X150526821Y-38805179D01*
X150527178Y-38396613D01*
X150371156Y-38019011D01*
X150082508Y-37729860D01*
X149705179Y-37573179D01*
X149296613Y-37572822D01*
X148919011Y-37728844D01*
X148629860Y-38017492D01*
X148577158Y-38144412D01*
X148577178Y-38121613D01*
X148421156Y-37744011D01*
X148132508Y-37454860D01*
X147755179Y-37298179D01*
X147346613Y-37297822D01*
X146969011Y-37453844D01*
X146893136Y-37529587D01*
X146835908Y-37472260D01*
X146458579Y-37315579D01*
X146050013Y-37315222D01*
X145672411Y-37471244D01*
X145618559Y-37525003D01*
X145565908Y-37472260D01*
X145188579Y-37315579D01*
X144780013Y-37315222D01*
X144402411Y-37471244D01*
X144348559Y-37525003D01*
X144295908Y-37472260D01*
X143918579Y-37315579D01*
X143510013Y-37315222D01*
X143132411Y-37471244D01*
X143078559Y-37525003D01*
X143025908Y-37472260D01*
X142648579Y-37315579D01*
X142240013Y-37315222D01*
X141862411Y-37471244D01*
X141808559Y-37525003D01*
X141755908Y-37472260D01*
X141378579Y-37315579D01*
X140970013Y-37315222D01*
X140592411Y-37471244D01*
X140538559Y-37525003D01*
X140485908Y-37472260D01*
X140108579Y-37315579D01*
X139700013Y-37315222D01*
X139322411Y-37471244D01*
X139268559Y-37525003D01*
X139215908Y-37472260D01*
X138838579Y-37315579D01*
X138430013Y-37315222D01*
X138052411Y-37471244D01*
X137998559Y-37525003D01*
X137945908Y-37472260D01*
X137568579Y-37315579D01*
X137160013Y-37315222D01*
X136782411Y-37471244D01*
X136728559Y-37525003D01*
X136675908Y-37472260D01*
X136298579Y-37315579D01*
X135890013Y-37315222D01*
X135512411Y-37471244D01*
X135458559Y-37525003D01*
X135405908Y-37472260D01*
X135028579Y-37315579D01*
X134620013Y-37315222D01*
X134242411Y-37471244D01*
X134188559Y-37525003D01*
X134135908Y-37472260D01*
X133758579Y-37315579D01*
X133350013Y-37315222D01*
X132972411Y-37471244D01*
X132918559Y-37525003D01*
X132865908Y-37472260D01*
X132488579Y-37315579D01*
X132080013Y-37315222D01*
X131702411Y-37471244D01*
X131648559Y-37525003D01*
X131595908Y-37472260D01*
X131218579Y-37315579D01*
X130810013Y-37315222D01*
X130432411Y-37471244D01*
X130378559Y-37525003D01*
X130325908Y-37472260D01*
X129948579Y-37315579D01*
X129540013Y-37315222D01*
X129162411Y-37471244D01*
X129108559Y-37525003D01*
X129055908Y-37472260D01*
X128678579Y-37315579D01*
X128270013Y-37315222D01*
X127892411Y-37471244D01*
X127838559Y-37525003D01*
X127785908Y-37472260D01*
X127408579Y-37315579D01*
X127000013Y-37315222D01*
X126622411Y-37471244D01*
X126568559Y-37525003D01*
X126515908Y-37472260D01*
X126138579Y-37315579D01*
X125730013Y-37315222D01*
X125352411Y-37471244D01*
X125298559Y-37525003D01*
X125245908Y-37472260D01*
X124868579Y-37315579D01*
X124460013Y-37315222D01*
X124082411Y-37471244D01*
X123793260Y-37759892D01*
X123636579Y-38137221D01*
X123636222Y-38545787D01*
X123792244Y-38923389D01*
X123973002Y-39104462D01*
X123793260Y-39283892D01*
X123636579Y-39661221D01*
X123636555Y-39688335D01*
X121388764Y-41936126D01*
X121382508Y-41929860D01*
X121005179Y-41773179D01*
X120827024Y-41773023D01*
X120827178Y-41596613D01*
X120671156Y-41219011D01*
X120382508Y-40929860D01*
X120020046Y-40779352D01*
X119871156Y-40419011D01*
X119582508Y-40129860D01*
X119205179Y-39973179D01*
X118796613Y-39972822D01*
X118419011Y-40128844D01*
X118129860Y-40417492D01*
X117973179Y-40794821D01*
X117972822Y-41203387D01*
X118128844Y-41580989D01*
X118417492Y-41870140D01*
X118779954Y-42020648D01*
X118928844Y-42380989D01*
X119217492Y-42670140D01*
X119594821Y-42826821D01*
X119772976Y-42826977D01*
X119772822Y-43003387D01*
X119928844Y-43380989D01*
X119936366Y-43388524D01*
X106895945Y-56428945D01*
X106711255Y-56705354D01*
X106646400Y-57031400D01*
X106646400Y-60484404D01*
X106628260Y-60502512D01*
X106471579Y-60879841D01*
X106471520Y-60947170D01*
X106230955Y-60847279D01*
X105593641Y-60846723D01*
X105462000Y-60901116D01*
X105462000Y-44626310D01*
X106194923Y-43893387D01*
X114172822Y-43893387D01*
X114328844Y-44270989D01*
X114617492Y-44560140D01*
X114994821Y-44716821D01*
X115403387Y-44717178D01*
X115780989Y-44561156D01*
X116070140Y-44272508D01*
X116226821Y-43895179D01*
X116227178Y-43486613D01*
X116071156Y-43109011D01*
X115782508Y-42819860D01*
X115405179Y-42663179D01*
X114996613Y-42662822D01*
X114619011Y-42818844D01*
X114329860Y-43107492D01*
X114173179Y-43484821D01*
X114172822Y-43893387D01*
X106194923Y-43893387D01*
X109067754Y-41020556D01*
X109093387Y-41020578D01*
X109470989Y-40864556D01*
X109524841Y-40810797D01*
X109577492Y-40863540D01*
X109954821Y-41020221D01*
X110363387Y-41020578D01*
X110740989Y-40864556D01*
X110794841Y-40810797D01*
X110847492Y-40863540D01*
X111224821Y-41020221D01*
X111633387Y-41020578D01*
X112010989Y-40864556D01*
X112064841Y-40810797D01*
X112117492Y-40863540D01*
X112494821Y-41020221D01*
X112903387Y-41020578D01*
X113280989Y-40864556D01*
X113334841Y-40810797D01*
X113387492Y-40863540D01*
X113764821Y-41020221D01*
X114173387Y-41020578D01*
X114550989Y-40864556D01*
X114604841Y-40810797D01*
X114657492Y-40863540D01*
X115034821Y-41020221D01*
X115443387Y-41020578D01*
X115820989Y-40864556D01*
X116110140Y-40575908D01*
X116266821Y-40198579D01*
X116267178Y-39790013D01*
X116111156Y-39412411D01*
X115930398Y-39231338D01*
X116110140Y-39051908D01*
X116266821Y-38674579D01*
X116267178Y-38266013D01*
X116111156Y-37888411D01*
X115822508Y-37599260D01*
X115445179Y-37442579D01*
X115036613Y-37442222D01*
X114659011Y-37598244D01*
X114605159Y-37652003D01*
X114552508Y-37599260D01*
X114175179Y-37442579D01*
X113766613Y-37442222D01*
X113389011Y-37598244D01*
X113099860Y-37886892D01*
X112943179Y-38264221D01*
X112942822Y-38672787D01*
X113097152Y-39046293D01*
X112905179Y-38966579D01*
X112496613Y-38966222D01*
X112302398Y-39046470D01*
X112456821Y-38674579D01*
X112457178Y-38266013D01*
X112301156Y-37888411D01*
X112012508Y-37599260D01*
X111635179Y-37442579D01*
X111226613Y-37442222D01*
X110849011Y-37598244D01*
X110559860Y-37886892D01*
X110403179Y-38264221D01*
X110402822Y-38672787D01*
X110557152Y-39046293D01*
X110365179Y-38966579D01*
X109956613Y-38966222D01*
X109762398Y-39046470D01*
X109916821Y-38674579D01*
X109917178Y-38266013D01*
X109761156Y-37888411D01*
X109472508Y-37599260D01*
X109095179Y-37442579D01*
X108686613Y-37442222D01*
X108309011Y-37598244D01*
X108255159Y-37652003D01*
X108202508Y-37599260D01*
X107825179Y-37442579D01*
X107416613Y-37442222D01*
X107039011Y-37598244D01*
X106985159Y-37652003D01*
X106932508Y-37599260D01*
X106555179Y-37442579D01*
X106146613Y-37442222D01*
X105769011Y-37598244D01*
X105715159Y-37652003D01*
X105662508Y-37599260D01*
X105285179Y-37442579D01*
X104876613Y-37442222D01*
X104499011Y-37598244D01*
X104445159Y-37652003D01*
X104392508Y-37599260D01*
X104015179Y-37442579D01*
X103606613Y-37442222D01*
X103229011Y-37598244D01*
X103175159Y-37652003D01*
X103122508Y-37599260D01*
X102745179Y-37442579D01*
X102336613Y-37442222D01*
X101959011Y-37598244D01*
X101905159Y-37652003D01*
X101852508Y-37599260D01*
X101475179Y-37442579D01*
X101066613Y-37442222D01*
X100689011Y-37598244D01*
X100635159Y-37652003D01*
X100582508Y-37599260D01*
X100205179Y-37442579D01*
X99796613Y-37442222D01*
X99419011Y-37598244D01*
X99365159Y-37652003D01*
X99312508Y-37599260D01*
X98935179Y-37442579D01*
X98526613Y-37442222D01*
X98149011Y-37598244D01*
X98095159Y-37652003D01*
X98042508Y-37599260D01*
X97665179Y-37442579D01*
X97256613Y-37442222D01*
X96879011Y-37598244D01*
X96825159Y-37652003D01*
X96772508Y-37599260D01*
X96395179Y-37442579D01*
X95986613Y-37442222D01*
X95609011Y-37598244D01*
X95555159Y-37652003D01*
X95502508Y-37599260D01*
X95125179Y-37442579D01*
X94716613Y-37442222D01*
X94339011Y-37598244D01*
X94285159Y-37652003D01*
X94232508Y-37599260D01*
X93855179Y-37442579D01*
X93446613Y-37442222D01*
X93069011Y-37598244D01*
X93015159Y-37652003D01*
X92962508Y-37599260D01*
X92585179Y-37442579D01*
X92176613Y-37442222D01*
X91799011Y-37598244D01*
X91745159Y-37652003D01*
X91692508Y-37599260D01*
X91315179Y-37442579D01*
X90906613Y-37442222D01*
X90529011Y-37598244D01*
X90475159Y-37652003D01*
X90422508Y-37599260D01*
X90045179Y-37442579D01*
X89636613Y-37442222D01*
X89259011Y-37598244D01*
X89205159Y-37652003D01*
X89152508Y-37599260D01*
X88775179Y-37442579D01*
X88366613Y-37442222D01*
X87989011Y-37598244D01*
X87935159Y-37652003D01*
X87882508Y-37599260D01*
X87505179Y-37442579D01*
X87096613Y-37442222D01*
X86719011Y-37598244D01*
X86665159Y-37652003D01*
X86612508Y-37599260D01*
X86235179Y-37442579D01*
X85826613Y-37442222D01*
X85449011Y-37598244D01*
X85395159Y-37652003D01*
X85342508Y-37599260D01*
X84965179Y-37442579D01*
X84556613Y-37442222D01*
X84179011Y-37598244D01*
X83889860Y-37886892D01*
X83733179Y-38264221D01*
X83732822Y-38672787D01*
X83888844Y-39050389D01*
X84069602Y-39231462D01*
X83889860Y-39410892D01*
X83733179Y-39788221D01*
X83732822Y-40196787D01*
X83888844Y-40574389D01*
X83966024Y-40651703D01*
X83972855Y-40686046D01*
X84157545Y-40962455D01*
X84597545Y-41402455D01*
X84873954Y-41587145D01*
X85200000Y-41652000D01*
X85653488Y-41652000D01*
X86504658Y-42503170D01*
X86106613Y-42502822D01*
X85745939Y-42651849D01*
X79479823Y-36385733D01*
X81460672Y-36385733D01*
X81514503Y-36614779D01*
X81991864Y-36780281D01*
X82496223Y-36750506D01*
X82823897Y-36614779D01*
X82877728Y-36385733D01*
X117122272Y-36385733D01*
X117176103Y-36614779D01*
X117653464Y-36780281D01*
X118157823Y-36750506D01*
X118485497Y-36614779D01*
X118539328Y-36385733D01*
X121364072Y-36385733D01*
X121417903Y-36614779D01*
X121895264Y-36780281D01*
X122399623Y-36750506D01*
X122727297Y-36614779D01*
X122781128Y-36385733D01*
X150675672Y-36385733D01*
X150729503Y-36614779D01*
X151206864Y-36780281D01*
X151711223Y-36750506D01*
X152038897Y-36614779D01*
X152092728Y-36385733D01*
X151384200Y-35677205D01*
X150675672Y-36385733D01*
X122781128Y-36385733D01*
X122072600Y-35677205D01*
X121364072Y-36385733D01*
X118539328Y-36385733D01*
X117830800Y-35677205D01*
X117122272Y-36385733D01*
X82877728Y-36385733D01*
X82169200Y-35677205D01*
X81460672Y-36385733D01*
X79479823Y-36385733D01*
X79181631Y-36087541D01*
X79088585Y-36025370D01*
X79210081Y-35674936D01*
X79189143Y-35320264D01*
X80886519Y-35320264D01*
X80916294Y-35824623D01*
X81052021Y-36152297D01*
X81281067Y-36206128D01*
X81989595Y-35497600D01*
X82348805Y-35497600D01*
X83057333Y-36206128D01*
X83286379Y-36152297D01*
X83451881Y-35674936D01*
X83430943Y-35320264D01*
X116548119Y-35320264D01*
X116577894Y-35824623D01*
X116713621Y-36152297D01*
X116942667Y-36206128D01*
X117651195Y-35497600D01*
X118010405Y-35497600D01*
X118718933Y-36206128D01*
X118947979Y-36152297D01*
X119113481Y-35674936D01*
X119092543Y-35320264D01*
X120789919Y-35320264D01*
X120819694Y-35824623D01*
X120955421Y-36152297D01*
X121184467Y-36206128D01*
X121892995Y-35497600D01*
X122252205Y-35497600D01*
X122960733Y-36206128D01*
X123189779Y-36152297D01*
X123355281Y-35674936D01*
X123334343Y-35320264D01*
X150101519Y-35320264D01*
X150131294Y-35824623D01*
X150267021Y-36152297D01*
X150496067Y-36206128D01*
X151204595Y-35497600D01*
X151563805Y-35497600D01*
X152272333Y-36206128D01*
X152501379Y-36152297D01*
X152666881Y-35674936D01*
X152637106Y-35170577D01*
X152501379Y-34842903D01*
X152272333Y-34789072D01*
X151563805Y-35497600D01*
X151204595Y-35497600D01*
X150496067Y-34789072D01*
X150267021Y-34842903D01*
X150101519Y-35320264D01*
X123334343Y-35320264D01*
X123325506Y-35170577D01*
X123189779Y-34842903D01*
X122960733Y-34789072D01*
X122252205Y-35497600D01*
X121892995Y-35497600D01*
X121184467Y-34789072D01*
X120955421Y-34842903D01*
X120789919Y-35320264D01*
X119092543Y-35320264D01*
X119083706Y-35170577D01*
X118947979Y-34842903D01*
X118718933Y-34789072D01*
X118010405Y-35497600D01*
X117651195Y-35497600D01*
X116942667Y-34789072D01*
X116713621Y-34842903D01*
X116548119Y-35320264D01*
X83430943Y-35320264D01*
X83422106Y-35170577D01*
X83286379Y-34842903D01*
X83057333Y-34789072D01*
X82348805Y-35497600D01*
X81989595Y-35497600D01*
X81281067Y-34789072D01*
X81052021Y-34842903D01*
X80886519Y-35320264D01*
X79189143Y-35320264D01*
X79180306Y-35170577D01*
X79044579Y-34842903D01*
X78815533Y-34789072D01*
X78107005Y-35497600D01*
X78121148Y-35511743D01*
X77941543Y-35691348D01*
X77927400Y-35677205D01*
X77913258Y-35691348D01*
X77733653Y-35511743D01*
X77747795Y-35497600D01*
X77039267Y-34789072D01*
X76810221Y-34842903D01*
X76644719Y-35320264D01*
X76674494Y-35824623D01*
X76680033Y-35837996D01*
X56390004Y-35837996D01*
X56063958Y-35902851D01*
X55787549Y-36087541D01*
X55308148Y-36566942D01*
X55251156Y-36429011D01*
X54962508Y-36139860D01*
X54585179Y-35983179D01*
X54176613Y-35982822D01*
X53799011Y-36138844D01*
X53614301Y-36323233D01*
X53325179Y-36203179D01*
X52916613Y-36202822D01*
X52539011Y-36358844D01*
X52455159Y-36442550D01*
X52432508Y-36419860D01*
X52055179Y-36263179D01*
X51646613Y-36262822D01*
X51269011Y-36418844D01*
X50979860Y-36707492D01*
X50823179Y-37084821D01*
X50822913Y-37389721D01*
X50625611Y-37471244D01*
X50336460Y-37759892D01*
X50179779Y-38137221D01*
X50179422Y-38545787D01*
X50335444Y-38923389D01*
X50516202Y-39104462D01*
X50336460Y-39283892D01*
X50179779Y-39661221D01*
X50179422Y-40069787D01*
X50335444Y-40447389D01*
X50624092Y-40736540D01*
X51001421Y-40893221D01*
X51143093Y-40893345D01*
X51142822Y-41203387D01*
X51284348Y-41545907D01*
X50551207Y-41241480D01*
X49453609Y-41240522D01*
X48439194Y-41659670D01*
X47662397Y-42435112D01*
X47241480Y-43448793D01*
X47241284Y-43673123D01*
X46896613Y-43672822D01*
X46802000Y-43711915D01*
X46802000Y-36385733D01*
X47907272Y-36385733D01*
X47961103Y-36614779D01*
X48438464Y-36780281D01*
X48942823Y-36750506D01*
X49270497Y-36614779D01*
X49324328Y-36385733D01*
X48615800Y-35677205D01*
X47907272Y-36385733D01*
X46802000Y-36385733D01*
X46802000Y-35320264D01*
X47333119Y-35320264D01*
X47362894Y-35824623D01*
X47498621Y-36152297D01*
X47727667Y-36206128D01*
X48436195Y-35497600D01*
X48795405Y-35497600D01*
X49503933Y-36206128D01*
X49732979Y-36152297D01*
X49898481Y-35674936D01*
X49868706Y-35170577D01*
X49732979Y-34842903D01*
X49503933Y-34789072D01*
X48795405Y-35497600D01*
X48436195Y-35497600D01*
X47727667Y-34789072D01*
X47498621Y-34842903D01*
X47333119Y-35320264D01*
X46802000Y-35320264D01*
X46802000Y-34125133D01*
X47907272Y-34125133D01*
X47961103Y-34354179D01*
X47995590Y-34366136D01*
X47961103Y-34380421D01*
X47907272Y-34609467D01*
X48615800Y-35317995D01*
X49324328Y-34609467D01*
X49270497Y-34380421D01*
X49236010Y-34368464D01*
X49270497Y-34354179D01*
X49324328Y-34125133D01*
X77218872Y-34125133D01*
X77272703Y-34354179D01*
X77307190Y-34366136D01*
X77272703Y-34380421D01*
X77218872Y-34609467D01*
X77927400Y-35317995D01*
X78635928Y-34609467D01*
X78582097Y-34380421D01*
X78547610Y-34368464D01*
X78582097Y-34354179D01*
X78635928Y-34125133D01*
X81460672Y-34125133D01*
X81514503Y-34354179D01*
X81548990Y-34366136D01*
X81514503Y-34380421D01*
X81460672Y-34609467D01*
X82169200Y-35317995D01*
X82877728Y-34609467D01*
X82823897Y-34380421D01*
X82789410Y-34368464D01*
X82823897Y-34354179D01*
X82877728Y-34125133D01*
X117122272Y-34125133D01*
X117176103Y-34354179D01*
X117210590Y-34366136D01*
X117176103Y-34380421D01*
X117122272Y-34609467D01*
X117830800Y-35317995D01*
X118539328Y-34609467D01*
X118485497Y-34380421D01*
X118451010Y-34368464D01*
X118485497Y-34354179D01*
X118539328Y-34125133D01*
X121364072Y-34125133D01*
X121417903Y-34354179D01*
X121452390Y-34366136D01*
X121417903Y-34380421D01*
X121364072Y-34609467D01*
X122072600Y-35317995D01*
X122781128Y-34609467D01*
X122727297Y-34380421D01*
X122692810Y-34368464D01*
X122727297Y-34354179D01*
X122781128Y-34125133D01*
X150675672Y-34125133D01*
X150729503Y-34354179D01*
X150763990Y-34366136D01*
X150729503Y-34380421D01*
X150675672Y-34609467D01*
X151384200Y-35317995D01*
X152092728Y-34609467D01*
X152038897Y-34380421D01*
X152004410Y-34368464D01*
X152038897Y-34354179D01*
X152092728Y-34125133D01*
X151384200Y-33416605D01*
X150675672Y-34125133D01*
X122781128Y-34125133D01*
X122072600Y-33416605D01*
X121364072Y-34125133D01*
X118539328Y-34125133D01*
X117830800Y-33416605D01*
X117122272Y-34125133D01*
X82877728Y-34125133D01*
X82169200Y-33416605D01*
X81460672Y-34125133D01*
X78635928Y-34125133D01*
X77927400Y-33416605D01*
X77218872Y-34125133D01*
X49324328Y-34125133D01*
X48615800Y-33416605D01*
X47907272Y-34125133D01*
X46802000Y-34125133D01*
X46802000Y-33059664D01*
X47333119Y-33059664D01*
X47362894Y-33564023D01*
X47498621Y-33891697D01*
X47727667Y-33945528D01*
X48436195Y-33237000D01*
X48795405Y-33237000D01*
X49503933Y-33945528D01*
X49732979Y-33891697D01*
X49898481Y-33414336D01*
X49877543Y-33059664D01*
X76644719Y-33059664D01*
X76674494Y-33564023D01*
X76810221Y-33891697D01*
X77039267Y-33945528D01*
X77747795Y-33237000D01*
X78107005Y-33237000D01*
X78815533Y-33945528D01*
X79044579Y-33891697D01*
X79210081Y-33414336D01*
X79189143Y-33059664D01*
X80886519Y-33059664D01*
X80916294Y-33564023D01*
X81052021Y-33891697D01*
X81281067Y-33945528D01*
X81989595Y-33237000D01*
X82348805Y-33237000D01*
X83057333Y-33945528D01*
X83286379Y-33891697D01*
X83451881Y-33414336D01*
X83430943Y-33059664D01*
X116548119Y-33059664D01*
X116577894Y-33564023D01*
X116713621Y-33891697D01*
X116942667Y-33945528D01*
X117651195Y-33237000D01*
X118010405Y-33237000D01*
X118718933Y-33945528D01*
X118947979Y-33891697D01*
X119113481Y-33414336D01*
X119092543Y-33059664D01*
X120789919Y-33059664D01*
X120819694Y-33564023D01*
X120955421Y-33891697D01*
X121184467Y-33945528D01*
X121892995Y-33237000D01*
X122252205Y-33237000D01*
X122960733Y-33945528D01*
X123189779Y-33891697D01*
X123355281Y-33414336D01*
X123334343Y-33059664D01*
X150101519Y-33059664D01*
X150131294Y-33564023D01*
X150267021Y-33891697D01*
X150496067Y-33945528D01*
X151204595Y-33237000D01*
X151563805Y-33237000D01*
X152272333Y-33945528D01*
X152501379Y-33891697D01*
X152666881Y-33414336D01*
X152637106Y-32909977D01*
X152501379Y-32582303D01*
X152272333Y-32528472D01*
X151563805Y-33237000D01*
X151204595Y-33237000D01*
X150496067Y-32528472D01*
X150267021Y-32582303D01*
X150101519Y-33059664D01*
X123334343Y-33059664D01*
X123325506Y-32909977D01*
X123189779Y-32582303D01*
X122960733Y-32528472D01*
X122252205Y-33237000D01*
X121892995Y-33237000D01*
X121184467Y-32528472D01*
X120955421Y-32582303D01*
X120789919Y-33059664D01*
X119092543Y-33059664D01*
X119083706Y-32909977D01*
X118947979Y-32582303D01*
X118718933Y-32528472D01*
X118010405Y-33237000D01*
X117651195Y-33237000D01*
X116942667Y-32528472D01*
X116713621Y-32582303D01*
X116548119Y-33059664D01*
X83430943Y-33059664D01*
X83422106Y-32909977D01*
X83286379Y-32582303D01*
X83057333Y-32528472D01*
X82348805Y-33237000D01*
X81989595Y-33237000D01*
X81281067Y-32528472D01*
X81052021Y-32582303D01*
X80886519Y-33059664D01*
X79189143Y-33059664D01*
X79180306Y-32909977D01*
X79044579Y-32582303D01*
X78815533Y-32528472D01*
X78107005Y-33237000D01*
X77747795Y-33237000D01*
X77039267Y-32528472D01*
X76810221Y-32582303D01*
X76644719Y-33059664D01*
X49877543Y-33059664D01*
X49868706Y-32909977D01*
X49732979Y-32582303D01*
X49503933Y-32528472D01*
X48795405Y-33237000D01*
X48436195Y-33237000D01*
X47727667Y-32528472D01*
X47498621Y-32582303D01*
X47333119Y-33059664D01*
X46802000Y-33059664D01*
X46802000Y-32052000D01*
X48124837Y-32052000D01*
X47961103Y-32119821D01*
G36*
X146373000Y-52482404D02*
X146309011Y-52508844D01*
X146019860Y-52797492D01*
X145863179Y-53174821D01*
X145862822Y-53583387D01*
X145960967Y-53820915D01*
X145605179Y-53673179D01*
X145196613Y-53672822D01*
X144819011Y-53828844D01*
X144529860Y-54117492D01*
X144373179Y-54494821D01*
X144372822Y-54903387D01*
X144528844Y-55280989D01*
X144817492Y-55570140D01*
X145194821Y-55726821D01*
X145603387Y-55727178D01*
X145980989Y-55571156D01*
X146270140Y-55282508D01*
X146373000Y-55034794D01*
X146373000Y-57182579D01*
X146019011Y-57328844D01*
X145729860Y-57617492D01*
X145573179Y-57994821D01*
X145572822Y-58403387D01*
X145728844Y-58780989D01*
X146017492Y-59070140D01*
X146373000Y-59217760D01*
X146373000Y-61399676D01*
X146372822Y-61603387D01*
X146373000Y-61603818D01*
X146373000Y-63572932D01*
X146246613Y-63572822D01*
X145869011Y-63728844D01*
X145579860Y-64017492D01*
X145423179Y-64394821D01*
X145422822Y-64803387D01*
X145575498Y-65172891D01*
X145496613Y-65172822D01*
X145119011Y-65328844D01*
X144829860Y-65617492D01*
X144673179Y-65994821D01*
X144672822Y-66403387D01*
X144828844Y-66780989D01*
X145117492Y-67070140D01*
X145494821Y-67226821D01*
X145903387Y-67227178D01*
X146280989Y-67071156D01*
X146373000Y-66979305D01*
X146373000Y-70572889D01*
X146296613Y-70572822D01*
X145919011Y-70728844D01*
X145629860Y-71017492D01*
X145473179Y-71394821D01*
X145472822Y-71803387D01*
X145628844Y-72180989D01*
X145917492Y-72470140D01*
X146294821Y-72626821D01*
X146373000Y-72626889D01*
X146373000Y-78920510D01*
X146282508Y-78829860D01*
X145905179Y-78673179D01*
X145496613Y-78672822D01*
X145119011Y-78828844D01*
X144829860Y-79117492D01*
X144673179Y-79494821D01*
X144672822Y-79903387D01*
X144828844Y-80280989D01*
X145117492Y-80570140D01*
X145494821Y-80726821D01*
X145903387Y-80727178D01*
X146280989Y-80571156D01*
X146373000Y-80479305D01*
X146373000Y-84372889D01*
X146296613Y-84372822D01*
X145919011Y-84528844D01*
X145629860Y-84817492D01*
X145473179Y-85194821D01*
X145472822Y-85603387D01*
X145628844Y-85980989D01*
X145917492Y-86270140D01*
X146294821Y-86426821D01*
X146373000Y-86426889D01*
X146373000Y-92920684D01*
X146182508Y-92729860D01*
X145805179Y-92573179D01*
X145396613Y-92572822D01*
X145019011Y-92728844D01*
X144729860Y-93017492D01*
X144573179Y-93394821D01*
X144572822Y-93803387D01*
X144728844Y-94180989D01*
X145017492Y-94470140D01*
X145394821Y-94626821D01*
X145803387Y-94627178D01*
X146180989Y-94471156D01*
X146373000Y-94279479D01*
X146373000Y-96373000D01*
X71127000Y-96373000D01*
X71127000Y-79000000D01*
X71116994Y-78950590D01*
X71088553Y-78908965D01*
X71046159Y-78881685D01*
X71000000Y-78873000D01*
X67457135Y-78873000D01*
X67526821Y-78705179D01*
X67527178Y-78296613D01*
X67371156Y-77919011D01*
X67082508Y-77629860D01*
X66705179Y-77473179D01*
X66296613Y-77472822D01*
X65919011Y-77628844D01*
X65629860Y-77917492D01*
X65473179Y-78294821D01*
X65472822Y-78703387D01*
X65542905Y-78873000D01*
X65026806Y-78873000D01*
X65027299Y-78307986D01*
X64764933Y-77673011D01*
X64279544Y-77186774D01*
X63645029Y-76923300D01*
X62957986Y-76922701D01*
X62323011Y-77185067D01*
X61836774Y-77670456D01*
X61573300Y-78304971D01*
X61572805Y-78873000D01*
X60127000Y-78873000D01*
X60127000Y-67302532D01*
X62327073Y-67302532D01*
X62425736Y-67569387D01*
X63035461Y-67795908D01*
X63685460Y-67771856D01*
X64174264Y-67569387D01*
X64272927Y-67302532D01*
X63300000Y-66329605D01*
X62327073Y-67302532D01*
X60127000Y-67302532D01*
X60127000Y-65885461D01*
X61654092Y-65885461D01*
X61678144Y-66535460D01*
X61880613Y-67024264D01*
X62147468Y-67122927D01*
X63120395Y-66150000D01*
X63479605Y-66150000D01*
X64452532Y-67122927D01*
X64719387Y-67024264D01*
X64945908Y-66414539D01*
X64921856Y-65764540D01*
X64719387Y-65275736D01*
X64452532Y-65177073D01*
X63479605Y-66150000D01*
X63120395Y-66150000D01*
X62147468Y-65177073D01*
X61880613Y-65275736D01*
X61654092Y-65885461D01*
X60127000Y-65885461D01*
X60127000Y-64997468D01*
X62327073Y-64997468D01*
X63300000Y-65970395D01*
X64272927Y-64997468D01*
X64174264Y-64730613D01*
X63564539Y-64504092D01*
X62914540Y-64528144D01*
X62425736Y-64730613D01*
X62327073Y-64997468D01*
X60127000Y-64997468D01*
X60127000Y-60127000D01*
X73873000Y-60127000D01*
X73873000Y-94500000D01*
X73883006Y-94549410D01*
X73911447Y-94591035D01*
X73953841Y-94618315D01*
X74000000Y-94627000D01*
X143000000Y-94627000D01*
X143049410Y-94616994D01*
X143091035Y-94588553D01*
X143118315Y-94546159D01*
X143127000Y-94500000D01*
X143127000Y-92626936D01*
X143403387Y-92627178D01*
X143780989Y-92471156D01*
X144070140Y-92182508D01*
X144226821Y-91805179D01*
X144227178Y-91396613D01*
X144071156Y-91019011D01*
X143782508Y-90729860D01*
X143441003Y-90588055D01*
X143371156Y-90419011D01*
X143127000Y-90174430D01*
X143127000Y-87476526D01*
X143128844Y-87480989D01*
X143417492Y-87770140D01*
X143794821Y-87926821D01*
X144203387Y-87927178D01*
X144580989Y-87771156D01*
X144870140Y-87482508D01*
X145026821Y-87105179D01*
X145027178Y-86696613D01*
X144871156Y-86319011D01*
X144582508Y-86029860D01*
X144205179Y-85873179D01*
X143796613Y-85872822D01*
X143419011Y-86028844D01*
X143129860Y-86317492D01*
X143127000Y-86324380D01*
X143127000Y-78293464D01*
X143180989Y-78271156D01*
X143470140Y-77982508D01*
X143626821Y-77605179D01*
X143627178Y-77196613D01*
X143471156Y-76819011D01*
X143182508Y-76529860D01*
X143127000Y-76506811D01*
X143127000Y-73576526D01*
X143128844Y-73580989D01*
X143417492Y-73870140D01*
X143794821Y-74026821D01*
X144203387Y-74027178D01*
X144580989Y-73871156D01*
X144870140Y-73582508D01*
X145026821Y-73205179D01*
X145027178Y-72796613D01*
X144871156Y-72419011D01*
X144582508Y-72129860D01*
X144205179Y-71973179D01*
X143796613Y-71972822D01*
X143419011Y-72128844D01*
X143129860Y-72417492D01*
X143127000Y-72424380D01*
X143127000Y-64693464D01*
X143180989Y-64671156D01*
X143470140Y-64382508D01*
X143626821Y-64005179D01*
X143627178Y-63596613D01*
X143471156Y-63219011D01*
X143182508Y-62929860D01*
X143127000Y-62906811D01*
X143127000Y-61176526D01*
X143128844Y-61180989D01*
X143417492Y-61470140D01*
X143794821Y-61626821D01*
X144203387Y-61627178D01*
X144580989Y-61471156D01*
X144870140Y-61182508D01*
X145026821Y-60805179D01*
X145027178Y-60396613D01*
X144871156Y-60019011D01*
X144582508Y-59729860D01*
X144205179Y-59573179D01*
X143796613Y-59572822D01*
X143419011Y-59728844D01*
X143129860Y-60017492D01*
X143127000Y-60024380D01*
X143127000Y-57476526D01*
X143128844Y-57480989D01*
X143417492Y-57770140D01*
X143794821Y-57926821D01*
X144203387Y-57927178D01*
X144580989Y-57771156D01*
X144870140Y-57482508D01*
X145026821Y-57105179D01*
X145027178Y-56696613D01*
X144871156Y-56319011D01*
X144582508Y-56029860D01*
X144205179Y-55873179D01*
X143796613Y-55872822D01*
X143574386Y-55964644D01*
X143481156Y-55739011D01*
X143192508Y-55449860D01*
X143127000Y-55422659D01*
X143127000Y-52127000D01*
X146373000Y-52127000D01*
X146373000Y-52482404D01*
X146373000Y-52482404D01*
G37*
X146373000Y-52482404D02*
X146309011Y-52508844D01*
X146019860Y-52797492D01*
X145863179Y-53174821D01*
X145862822Y-53583387D01*
X145960967Y-53820915D01*
X145605179Y-53673179D01*
X145196613Y-53672822D01*
X144819011Y-53828844D01*
X144529860Y-54117492D01*
X144373179Y-54494821D01*
X144372822Y-54903387D01*
X144528844Y-55280989D01*
X144817492Y-55570140D01*
X145194821Y-55726821D01*
X145603387Y-55727178D01*
X145980989Y-55571156D01*
X146270140Y-55282508D01*
X146373000Y-55034794D01*
X146373000Y-57182579D01*
X146019011Y-57328844D01*
X145729860Y-57617492D01*
X145573179Y-57994821D01*
X145572822Y-58403387D01*
X145728844Y-58780989D01*
X146017492Y-59070140D01*
X146373000Y-59217760D01*
X146373000Y-61399676D01*
X146372822Y-61603387D01*
X146373000Y-61603818D01*
X146373000Y-63572932D01*
X146246613Y-63572822D01*
X145869011Y-63728844D01*
X145579860Y-64017492D01*
X145423179Y-64394821D01*
X145422822Y-64803387D01*
X145575498Y-65172891D01*
X145496613Y-65172822D01*
X145119011Y-65328844D01*
X144829860Y-65617492D01*
X144673179Y-65994821D01*
X144672822Y-66403387D01*
X144828844Y-66780989D01*
X145117492Y-67070140D01*
X145494821Y-67226821D01*
X145903387Y-67227178D01*
X146280989Y-67071156D01*
X146373000Y-66979305D01*
X146373000Y-70572889D01*
X146296613Y-70572822D01*
X145919011Y-70728844D01*
X145629860Y-71017492D01*
X145473179Y-71394821D01*
X145472822Y-71803387D01*
X145628844Y-72180989D01*
X145917492Y-72470140D01*
X146294821Y-72626821D01*
X146373000Y-72626889D01*
X146373000Y-78920510D01*
X146282508Y-78829860D01*
X145905179Y-78673179D01*
X145496613Y-78672822D01*
X145119011Y-78828844D01*
X144829860Y-79117492D01*
X144673179Y-79494821D01*
X144672822Y-79903387D01*
X144828844Y-80280989D01*
X145117492Y-80570140D01*
X145494821Y-80726821D01*
X145903387Y-80727178D01*
X146280989Y-80571156D01*
X146373000Y-80479305D01*
X146373000Y-84372889D01*
X146296613Y-84372822D01*
X145919011Y-84528844D01*
X145629860Y-84817492D01*
X145473179Y-85194821D01*
X145472822Y-85603387D01*
X145628844Y-85980989D01*
X145917492Y-86270140D01*
X146294821Y-86426821D01*
X146373000Y-86426889D01*
X146373000Y-92920684D01*
X146182508Y-92729860D01*
X145805179Y-92573179D01*
X145396613Y-92572822D01*
X145019011Y-92728844D01*
X144729860Y-93017492D01*
X144573179Y-93394821D01*
X144572822Y-93803387D01*
X144728844Y-94180989D01*
X145017492Y-94470140D01*
X145394821Y-94626821D01*
X145803387Y-94627178D01*
X146180989Y-94471156D01*
X146373000Y-94279479D01*
X146373000Y-96373000D01*
X71127000Y-96373000D01*
X71127000Y-79000000D01*
X71116994Y-78950590D01*
X71088553Y-78908965D01*
X71046159Y-78881685D01*
X71000000Y-78873000D01*
X67457135Y-78873000D01*
X67526821Y-78705179D01*
X67527178Y-78296613D01*
X67371156Y-77919011D01*
X67082508Y-77629860D01*
X66705179Y-77473179D01*
X66296613Y-77472822D01*
X65919011Y-77628844D01*
X65629860Y-77917492D01*
X65473179Y-78294821D01*
X65472822Y-78703387D01*
X65542905Y-78873000D01*
X65026806Y-78873000D01*
X65027299Y-78307986D01*
X64764933Y-77673011D01*
X64279544Y-77186774D01*
X63645029Y-76923300D01*
X62957986Y-76922701D01*
X62323011Y-77185067D01*
X61836774Y-77670456D01*
X61573300Y-78304971D01*
X61572805Y-78873000D01*
X60127000Y-78873000D01*
X60127000Y-67302532D01*
X62327073Y-67302532D01*
X62425736Y-67569387D01*
X63035461Y-67795908D01*
X63685460Y-67771856D01*
X64174264Y-67569387D01*
X64272927Y-67302532D01*
X63300000Y-66329605D01*
X62327073Y-67302532D01*
X60127000Y-67302532D01*
X60127000Y-65885461D01*
X61654092Y-65885461D01*
X61678144Y-66535460D01*
X61880613Y-67024264D01*
X62147468Y-67122927D01*
X63120395Y-66150000D01*
X63479605Y-66150000D01*
X64452532Y-67122927D01*
X64719387Y-67024264D01*
X64945908Y-66414539D01*
X64921856Y-65764540D01*
X64719387Y-65275736D01*
X64452532Y-65177073D01*
X63479605Y-66150000D01*
X63120395Y-66150000D01*
X62147468Y-65177073D01*
X61880613Y-65275736D01*
X61654092Y-65885461D01*
X60127000Y-65885461D01*
X60127000Y-64997468D01*
X62327073Y-64997468D01*
X63300000Y-65970395D01*
X64272927Y-64997468D01*
X64174264Y-64730613D01*
X63564539Y-64504092D01*
X62914540Y-64528144D01*
X62425736Y-64730613D01*
X62327073Y-64997468D01*
X60127000Y-64997468D01*
X60127000Y-60127000D01*
X73873000Y-60127000D01*
X73873000Y-94500000D01*
X73883006Y-94549410D01*
X73911447Y-94591035D01*
X73953841Y-94618315D01*
X74000000Y-94627000D01*
X143000000Y-94627000D01*
X143049410Y-94616994D01*
X143091035Y-94588553D01*
X143118315Y-94546159D01*
X143127000Y-94500000D01*
X143127000Y-92626936D01*
X143403387Y-92627178D01*
X143780989Y-92471156D01*
X144070140Y-92182508D01*
X144226821Y-91805179D01*
X144227178Y-91396613D01*
X144071156Y-91019011D01*
X143782508Y-90729860D01*
X143441003Y-90588055D01*
X143371156Y-90419011D01*
X143127000Y-90174430D01*
X143127000Y-87476526D01*
X143128844Y-87480989D01*
X143417492Y-87770140D01*
X143794821Y-87926821D01*
X144203387Y-87927178D01*
X144580989Y-87771156D01*
X144870140Y-87482508D01*
X145026821Y-87105179D01*
X145027178Y-86696613D01*
X144871156Y-86319011D01*
X144582508Y-86029860D01*
X144205179Y-85873179D01*
X143796613Y-85872822D01*
X143419011Y-86028844D01*
X143129860Y-86317492D01*
X143127000Y-86324380D01*
X143127000Y-78293464D01*
X143180989Y-78271156D01*
X143470140Y-77982508D01*
X143626821Y-77605179D01*
X143627178Y-77196613D01*
X143471156Y-76819011D01*
X143182508Y-76529860D01*
X143127000Y-76506811D01*
X143127000Y-73576526D01*
X143128844Y-73580989D01*
X143417492Y-73870140D01*
X143794821Y-74026821D01*
X144203387Y-74027178D01*
X144580989Y-73871156D01*
X144870140Y-73582508D01*
X145026821Y-73205179D01*
X145027178Y-72796613D01*
X144871156Y-72419011D01*
X144582508Y-72129860D01*
X144205179Y-71973179D01*
X143796613Y-71972822D01*
X143419011Y-72128844D01*
X143129860Y-72417492D01*
X143127000Y-72424380D01*
X143127000Y-64693464D01*
X143180989Y-64671156D01*
X143470140Y-64382508D01*
X143626821Y-64005179D01*
X143627178Y-63596613D01*
X143471156Y-63219011D01*
X143182508Y-62929860D01*
X143127000Y-62906811D01*
X143127000Y-61176526D01*
X143128844Y-61180989D01*
X143417492Y-61470140D01*
X143794821Y-61626821D01*
X144203387Y-61627178D01*
X144580989Y-61471156D01*
X144870140Y-61182508D01*
X145026821Y-60805179D01*
X145027178Y-60396613D01*
X144871156Y-60019011D01*
X144582508Y-59729860D01*
X144205179Y-59573179D01*
X143796613Y-59572822D01*
X143419011Y-59728844D01*
X143129860Y-60017492D01*
X143127000Y-60024380D01*
X143127000Y-57476526D01*
X143128844Y-57480989D01*
X143417492Y-57770140D01*
X143794821Y-57926821D01*
X144203387Y-57927178D01*
X144580989Y-57771156D01*
X144870140Y-57482508D01*
X145026821Y-57105179D01*
X145027178Y-56696613D01*
X144871156Y-56319011D01*
X144582508Y-56029860D01*
X144205179Y-55873179D01*
X143796613Y-55872822D01*
X143574386Y-55964644D01*
X143481156Y-55739011D01*
X143192508Y-55449860D01*
X143127000Y-55422659D01*
X143127000Y-52127000D01*
X146373000Y-52127000D01*
X146373000Y-52482404D01*
G36*
X141873000Y-52520510D02*
X141782508Y-52429860D01*
X141405179Y-52273179D01*
X140996613Y-52272822D01*
X140619011Y-52428844D01*
X140329860Y-52717492D01*
X140173179Y-53094821D01*
X140172822Y-53503387D01*
X140328844Y-53880989D01*
X140617492Y-54170140D01*
X140994821Y-54326821D01*
X141403387Y-54327178D01*
X141780989Y-54171156D01*
X141873000Y-54079305D01*
X141873000Y-55604584D01*
X141739860Y-55737492D01*
X141640513Y-55976746D01*
X141415179Y-55883179D01*
X141006613Y-55882822D01*
X140629011Y-56038844D01*
X140339860Y-56327492D01*
X140183179Y-56704821D01*
X140182822Y-57113387D01*
X140338844Y-57490989D01*
X140627492Y-57780140D01*
X141004821Y-57936821D01*
X141073015Y-57936881D01*
X141078844Y-57950989D01*
X141367492Y-58240140D01*
X141744821Y-58396821D01*
X141873000Y-58396933D01*
X141873000Y-63074601D01*
X141729860Y-63217492D01*
X141573179Y-63594821D01*
X141572822Y-64003387D01*
X141728844Y-64380989D01*
X141873000Y-64525396D01*
X141873000Y-76674601D01*
X141729860Y-76817492D01*
X141573179Y-77194821D01*
X141572822Y-77603387D01*
X141728844Y-77980989D01*
X141873000Y-78125396D01*
X141873000Y-90174775D01*
X141629860Y-90417492D01*
X141473179Y-90794821D01*
X141472822Y-91203387D01*
X141628844Y-91580989D01*
X141873000Y-91825570D01*
X141873000Y-93373000D01*
X75127000Y-93373000D01*
X75127000Y-59000000D01*
X75116994Y-58950590D01*
X75088553Y-58908965D01*
X75046159Y-58881685D01*
X75000000Y-58873000D01*
X72544857Y-58873000D01*
X72702622Y-58813880D01*
X72931816Y-58198358D01*
X72908014Y-57541981D01*
X72702622Y-57046120D01*
X72434107Y-56945498D01*
X71449605Y-57930000D01*
X71463748Y-57944143D01*
X71284143Y-58123748D01*
X71270000Y-58109605D01*
X71255858Y-58123748D01*
X71127000Y-57994890D01*
X71127000Y-57865110D01*
X71255858Y-57736253D01*
X71270000Y-57750395D01*
X72078554Y-56941841D01*
X72256040Y-56868505D01*
X72746782Y-56378619D01*
X73012696Y-55738225D01*
X73013230Y-55127000D01*
X78873000Y-55127000D01*
X78873000Y-92000000D01*
X78883006Y-92049410D01*
X78911447Y-92091035D01*
X78953841Y-92118315D01*
X79000000Y-92127000D01*
X139000000Y-92127000D01*
X139049410Y-92116994D01*
X139091035Y-92088553D01*
X139118315Y-92046159D01*
X139127000Y-92000000D01*
X139127000Y-91201372D01*
X139245845Y-91250721D01*
X139883159Y-91251277D01*
X140472175Y-91007901D01*
X140923218Y-90557645D01*
X141167621Y-89969055D01*
X141168177Y-89331741D01*
X140924801Y-88742725D01*
X140474545Y-88291682D01*
X139885955Y-88047279D01*
X139248641Y-88046723D01*
X139127000Y-88096984D01*
X139127000Y-77601372D01*
X139245845Y-77650721D01*
X139883159Y-77651277D01*
X140472175Y-77407901D01*
X140923218Y-76957645D01*
X141167621Y-76369055D01*
X141168177Y-75731741D01*
X140924801Y-75142725D01*
X140474545Y-74691682D01*
X139885955Y-74447279D01*
X139248641Y-74446723D01*
X139127000Y-74496984D01*
X139127000Y-64001372D01*
X139245845Y-64050721D01*
X139883159Y-64051277D01*
X140472175Y-63807901D01*
X140923218Y-63357645D01*
X141167621Y-62769055D01*
X141168177Y-62131741D01*
X140924801Y-61542725D01*
X140474545Y-61091682D01*
X139885955Y-60847279D01*
X139248641Y-60846723D01*
X139127000Y-60896984D01*
X139127000Y-52127910D01*
X139127910Y-52127000D01*
X141873000Y-52127000D01*
X141873000Y-52520510D01*
X141873000Y-52520510D01*
G37*
X141873000Y-52520510D02*
X141782508Y-52429860D01*
X141405179Y-52273179D01*
X140996613Y-52272822D01*
X140619011Y-52428844D01*
X140329860Y-52717492D01*
X140173179Y-53094821D01*
X140172822Y-53503387D01*
X140328844Y-53880989D01*
X140617492Y-54170140D01*
X140994821Y-54326821D01*
X141403387Y-54327178D01*
X141780989Y-54171156D01*
X141873000Y-54079305D01*
X141873000Y-55604584D01*
X141739860Y-55737492D01*
X141640513Y-55976746D01*
X141415179Y-55883179D01*
X141006613Y-55882822D01*
X140629011Y-56038844D01*
X140339860Y-56327492D01*
X140183179Y-56704821D01*
X140182822Y-57113387D01*
X140338844Y-57490989D01*
X140627492Y-57780140D01*
X141004821Y-57936821D01*
X141073015Y-57936881D01*
X141078844Y-57950989D01*
X141367492Y-58240140D01*
X141744821Y-58396821D01*
X141873000Y-58396933D01*
X141873000Y-63074601D01*
X141729860Y-63217492D01*
X141573179Y-63594821D01*
X141572822Y-64003387D01*
X141728844Y-64380989D01*
X141873000Y-64525396D01*
X141873000Y-76674601D01*
X141729860Y-76817492D01*
X141573179Y-77194821D01*
X141572822Y-77603387D01*
X141728844Y-77980989D01*
X141873000Y-78125396D01*
X141873000Y-90174775D01*
X141629860Y-90417492D01*
X141473179Y-90794821D01*
X141472822Y-91203387D01*
X141628844Y-91580989D01*
X141873000Y-91825570D01*
X141873000Y-93373000D01*
X75127000Y-93373000D01*
X75127000Y-59000000D01*
X75116994Y-58950590D01*
X75088553Y-58908965D01*
X75046159Y-58881685D01*
X75000000Y-58873000D01*
X72544857Y-58873000D01*
X72702622Y-58813880D01*
X72931816Y-58198358D01*
X72908014Y-57541981D01*
X72702622Y-57046120D01*
X72434107Y-56945498D01*
X71449605Y-57930000D01*
X71463748Y-57944143D01*
X71284143Y-58123748D01*
X71270000Y-58109605D01*
X71255858Y-58123748D01*
X71127000Y-57994890D01*
X71127000Y-57865110D01*
X71255858Y-57736253D01*
X71270000Y-57750395D01*
X72078554Y-56941841D01*
X72256040Y-56868505D01*
X72746782Y-56378619D01*
X73012696Y-55738225D01*
X73013230Y-55127000D01*
X78873000Y-55127000D01*
X78873000Y-92000000D01*
X78883006Y-92049410D01*
X78911447Y-92091035D01*
X78953841Y-92118315D01*
X79000000Y-92127000D01*
X139000000Y-92127000D01*
X139049410Y-92116994D01*
X139091035Y-92088553D01*
X139118315Y-92046159D01*
X139127000Y-92000000D01*
X139127000Y-91201372D01*
X139245845Y-91250721D01*
X139883159Y-91251277D01*
X140472175Y-91007901D01*
X140923218Y-90557645D01*
X141167621Y-89969055D01*
X141168177Y-89331741D01*
X140924801Y-88742725D01*
X140474545Y-88291682D01*
X139885955Y-88047279D01*
X139248641Y-88046723D01*
X139127000Y-88096984D01*
X139127000Y-77601372D01*
X139245845Y-77650721D01*
X139883159Y-77651277D01*
X140472175Y-77407901D01*
X140923218Y-76957645D01*
X141167621Y-76369055D01*
X141168177Y-75731741D01*
X140924801Y-75142725D01*
X140474545Y-74691682D01*
X139885955Y-74447279D01*
X139248641Y-74446723D01*
X139127000Y-74496984D01*
X139127000Y-64001372D01*
X139245845Y-64050721D01*
X139883159Y-64051277D01*
X140472175Y-63807901D01*
X140923218Y-63357645D01*
X141167621Y-62769055D01*
X141168177Y-62131741D01*
X140924801Y-61542725D01*
X140474545Y-61091682D01*
X139885955Y-60847279D01*
X139248641Y-60846723D01*
X139127000Y-60896984D01*
X139127000Y-52127910D01*
X139127910Y-52127000D01*
X141873000Y-52127000D01*
X141873000Y-52520510D01*
M02*
