G04 #@! TF.FileFunction,Copper,L1,Top,Signal*
%FSLAX46Y46*%
G04 Gerber Fmt 4.6, Leading zero omitted, Abs format (unit mm)*
G04 Created by KiCad (PCBNEW 4.0.1-stable) date 2017-03-08 10:34:58 PM*
%MOMM*%
G01*
G04 APERTURE LIST*
%ADD10C,0.100000*%
%ADD11C,1.500000*%
%ADD12C,3.000000*%
%ADD13R,2.032000X1.727200*%
%ADD14O,2.032000X1.727200*%
%ADD15R,0.736600X1.143000*%
%ADD16C,1.270000*%
%ADD17R,0.736600X2.219960*%
%ADD18R,3.000000X3.000000*%
%ADD19O,1.473200X0.609600*%
%ADD20R,0.700000X1.300000*%
%ADD21R,1.099820X0.599440*%
%ADD22R,1.250000X1.000000*%
%ADD23R,1.000000X1.250000*%
%ADD24R,0.398780X0.899160*%
%ADD25C,2.000000*%
%ADD26C,2.032000*%
%ADD27C,4.064000*%
%ADD28C,0.600000*%
%ADD29C,0.250000*%
%ADD30C,0.500000*%
%ADD31C,0.254000*%
G04 APERTURE END LIST*
D10*
D11*
X63770000Y-47900000D03*
X61230000Y-47900000D03*
X59200000Y-47900000D03*
X56660000Y-47900000D03*
D12*
X66820000Y-50570000D03*
X53100000Y-50570000D03*
D13*
X151800000Y-57000000D03*
D14*
X151800000Y-54460000D03*
X151800000Y-51920000D03*
D15*
X75336600Y-38342400D03*
X75336600Y-39866400D03*
X74066600Y-38342400D03*
X74066600Y-39866400D03*
X72796600Y-38342400D03*
X72796600Y-39866400D03*
X71526600Y-38342400D03*
X71526600Y-39866400D03*
X70256600Y-38342400D03*
X70256600Y-39866400D03*
X68986600Y-38342400D03*
X68986600Y-39866400D03*
X67716600Y-38342400D03*
X67716600Y-39866400D03*
X66446600Y-38342400D03*
X66446600Y-39866400D03*
X65176600Y-38342400D03*
X65176600Y-39866400D03*
X63906600Y-38342400D03*
X63906600Y-39866400D03*
X62636600Y-38342400D03*
X62636600Y-39866400D03*
X61366600Y-38342400D03*
X61366600Y-39866400D03*
X60096600Y-38342400D03*
X60096600Y-39866400D03*
X58826600Y-38342400D03*
X58826600Y-39866400D03*
X57556600Y-38342400D03*
X57556600Y-39866400D03*
X56286600Y-38342400D03*
X56286600Y-39866400D03*
X55016600Y-38342400D03*
X55016600Y-39866400D03*
X53746600Y-38342400D03*
X53746600Y-39866400D03*
X52476600Y-38342400D03*
X52476600Y-39866400D03*
X51206600Y-38342400D03*
X51206600Y-39866400D03*
D16*
X77927400Y-33237000D03*
X48615800Y-33237000D03*
X77927400Y-35497600D03*
X48615800Y-35497600D03*
D15*
X148793400Y-38342400D03*
X148793400Y-39866400D03*
X147523400Y-38342400D03*
X147523400Y-39866400D03*
X146253400Y-38342400D03*
X146253400Y-39866400D03*
X144983400Y-38342400D03*
X144983400Y-39866400D03*
X143713400Y-38342400D03*
X143713400Y-39866400D03*
X142443400Y-38342400D03*
X142443400Y-39866400D03*
X141173400Y-38342400D03*
X141173400Y-39866400D03*
X139903400Y-38342400D03*
X139903400Y-39866400D03*
X138633400Y-38342400D03*
X138633400Y-39866400D03*
X137363400Y-38342400D03*
X137363400Y-39866400D03*
X136093400Y-38342400D03*
X136093400Y-39866400D03*
X134823400Y-38342400D03*
X134823400Y-39866400D03*
X133553400Y-38342400D03*
X133553400Y-39866400D03*
X132283400Y-38342400D03*
X132283400Y-39866400D03*
X131013400Y-38342400D03*
X131013400Y-39866400D03*
X129743400Y-38342400D03*
X129743400Y-39866400D03*
X128473400Y-38342400D03*
X128473400Y-39866400D03*
X127203400Y-38342400D03*
X127203400Y-39866400D03*
X125933400Y-38342400D03*
X125933400Y-39866400D03*
X124663400Y-38342400D03*
X124663400Y-39866400D03*
D16*
X151384200Y-33237000D03*
X122072600Y-33237000D03*
X151384200Y-35497600D03*
X122072600Y-35497600D03*
D17*
X130198400Y-47485520D03*
X130198400Y-50213480D03*
X131468400Y-47485520D03*
X131468400Y-50213480D03*
X135278400Y-50213480D03*
X135278400Y-47485520D03*
X134008400Y-50213480D03*
X134008400Y-47485520D03*
X132738400Y-50213480D03*
X132738400Y-47485520D03*
X108768400Y-63812980D03*
X108768400Y-61085020D03*
X117658400Y-63812980D03*
X117658400Y-61085020D03*
X116388400Y-63812980D03*
X116388400Y-61085020D03*
X115118400Y-63812980D03*
X115118400Y-61085020D03*
X113848400Y-63812980D03*
X113848400Y-61085020D03*
X126548400Y-61085020D03*
X126548400Y-63812980D03*
X127818400Y-61085020D03*
X127818400Y-63812980D03*
X129088400Y-61085020D03*
X129088400Y-63812980D03*
X130358400Y-61085020D03*
X130358400Y-63812980D03*
X131628400Y-61085020D03*
X131628400Y-63812980D03*
X107498400Y-61085020D03*
X107498400Y-63812980D03*
X110038400Y-61085020D03*
X110038400Y-63812980D03*
X111308400Y-61085020D03*
X111308400Y-63812980D03*
X112578400Y-61085020D03*
X112578400Y-63812980D03*
X118928400Y-61085020D03*
X118928400Y-63812980D03*
X137978400Y-63812980D03*
X137978400Y-61085020D03*
X136708400Y-63812980D03*
X136708400Y-61085020D03*
X135438400Y-63812980D03*
X135438400Y-61085020D03*
X134168400Y-63812980D03*
X134168400Y-61085020D03*
X132898400Y-63812980D03*
X132898400Y-61085020D03*
X125278400Y-63812980D03*
X125278400Y-61085020D03*
X124008400Y-63812980D03*
X124008400Y-61085020D03*
X122738400Y-63812980D03*
X122738400Y-61085020D03*
X121468400Y-63812980D03*
X121468400Y-61085020D03*
X120198400Y-63812980D03*
X120198400Y-61085020D03*
X108768400Y-77412980D03*
X108768400Y-74685020D03*
X117658400Y-77412980D03*
X117658400Y-74685020D03*
X116388400Y-77412980D03*
X116388400Y-74685020D03*
X115118400Y-77412980D03*
X115118400Y-74685020D03*
X113848400Y-77412980D03*
X113848400Y-74685020D03*
X126548400Y-74685020D03*
X126548400Y-77412980D03*
X127818400Y-74685020D03*
X127818400Y-77412980D03*
X129088400Y-74685020D03*
X129088400Y-77412980D03*
X130358400Y-74685020D03*
X130358400Y-77412980D03*
X131628400Y-74685020D03*
X131628400Y-77412980D03*
X107498400Y-74685020D03*
X107498400Y-77412980D03*
X110038400Y-74685020D03*
X110038400Y-77412980D03*
X111308400Y-74685020D03*
X111308400Y-77412980D03*
X112578400Y-74685020D03*
X112578400Y-77412980D03*
X118928400Y-74685020D03*
X118928400Y-77412980D03*
X137978400Y-77412980D03*
X137978400Y-74685020D03*
X136708400Y-77412980D03*
X136708400Y-74685020D03*
X135438400Y-77412980D03*
X135438400Y-74685020D03*
X134168400Y-77412980D03*
X134168400Y-74685020D03*
X132898400Y-77412980D03*
X132898400Y-74685020D03*
X125278400Y-77412980D03*
X125278400Y-74685020D03*
X124008400Y-77412980D03*
X124008400Y-74685020D03*
X122738400Y-77412980D03*
X122738400Y-74685020D03*
X121468400Y-77412980D03*
X121468400Y-74685020D03*
X120198400Y-77412980D03*
X120198400Y-74685020D03*
X108768400Y-91012980D03*
X108768400Y-88285020D03*
X117658400Y-91012980D03*
X117658400Y-88285020D03*
X116388400Y-91012980D03*
X116388400Y-88285020D03*
X115118400Y-91012980D03*
X115118400Y-88285020D03*
X113848400Y-91012980D03*
X113848400Y-88285020D03*
X126548400Y-88285020D03*
X126548400Y-91012980D03*
X127818400Y-88285020D03*
X127818400Y-91012980D03*
X129088400Y-88285020D03*
X129088400Y-91012980D03*
X130358400Y-88285020D03*
X130358400Y-91012980D03*
X131628400Y-88285020D03*
X131628400Y-91012980D03*
X107498400Y-88285020D03*
X107498400Y-91012980D03*
X110038400Y-88285020D03*
X110038400Y-91012980D03*
X111308400Y-88285020D03*
X111308400Y-91012980D03*
X112578400Y-88285020D03*
X112578400Y-91012980D03*
X118928400Y-88285020D03*
X118928400Y-91012980D03*
X137978400Y-91012980D03*
X137978400Y-88285020D03*
X136708400Y-91012980D03*
X136708400Y-88285020D03*
X135438400Y-91012980D03*
X135438400Y-88285020D03*
X134168400Y-91012980D03*
X134168400Y-88285020D03*
X132898400Y-91012980D03*
X132898400Y-88285020D03*
X125278400Y-91012980D03*
X125278400Y-88285020D03*
X124008400Y-91012980D03*
X124008400Y-88285020D03*
X122738400Y-91012980D03*
X122738400Y-88285020D03*
X121468400Y-91012980D03*
X121468400Y-88285020D03*
X120198400Y-91012980D03*
X120198400Y-88285020D03*
D18*
X57900000Y-91900000D03*
D12*
X57900000Y-96980000D03*
D19*
X68494000Y-99105000D03*
X68494000Y-97835000D03*
X68494000Y-96565000D03*
X68494000Y-95295000D03*
X62906000Y-95295000D03*
X62906000Y-96565000D03*
X62906000Y-97835000D03*
X62906000Y-99105000D03*
D20*
X144550000Y-64600000D03*
X146450000Y-64600000D03*
X133150000Y-45000000D03*
X131250000Y-45000000D03*
D15*
X115240000Y-38469400D03*
X115240000Y-39993400D03*
X113970000Y-38469400D03*
X113970000Y-39993400D03*
X112700000Y-38469400D03*
X112700000Y-39993400D03*
X111430000Y-38469400D03*
X111430000Y-39993400D03*
X110160000Y-38469400D03*
X110160000Y-39993400D03*
X108890000Y-38469400D03*
X108890000Y-39993400D03*
X107620000Y-38469400D03*
X107620000Y-39993400D03*
X106350000Y-38469400D03*
X106350000Y-39993400D03*
X105080000Y-38469400D03*
X105080000Y-39993400D03*
X103810000Y-38469400D03*
X103810000Y-39993400D03*
X102540000Y-38469400D03*
X102540000Y-39993400D03*
X101270000Y-38469400D03*
X101270000Y-39993400D03*
X100000000Y-38469400D03*
X100000000Y-39993400D03*
X98730000Y-38469400D03*
X98730000Y-39993400D03*
X97460000Y-38469400D03*
X97460000Y-39993400D03*
X96190000Y-38469400D03*
X96190000Y-39993400D03*
X94920000Y-38469400D03*
X94920000Y-39993400D03*
X93650000Y-38469400D03*
X93650000Y-39993400D03*
X92380000Y-38469400D03*
X92380000Y-39993400D03*
X91110000Y-38469400D03*
X91110000Y-39993400D03*
X89840000Y-38469400D03*
X89840000Y-39993400D03*
X88570000Y-38469400D03*
X88570000Y-39993400D03*
X87300000Y-38469400D03*
X87300000Y-39993400D03*
X86030000Y-38469400D03*
X86030000Y-39993400D03*
X84760000Y-38469400D03*
X84760000Y-39993400D03*
D16*
X117830800Y-33237000D03*
X82169200Y-33237000D03*
X117830800Y-35497600D03*
X82169200Y-35497600D03*
D21*
X58150320Y-53150040D03*
X58150320Y-54100000D03*
X58150320Y-55049960D03*
X60649680Y-55049960D03*
X60649680Y-54100000D03*
X60649680Y-53150040D03*
D22*
X63200000Y-92800000D03*
X63200000Y-90800000D03*
D23*
X64300000Y-54000000D03*
X66300000Y-54000000D03*
X64300000Y-55800000D03*
X66300000Y-55800000D03*
D24*
X62201220Y-54648360D03*
X62201220Y-52951640D03*
X62998780Y-52951640D03*
X62998780Y-54648360D03*
D25*
X63300000Y-78650000D03*
X63300000Y-66150000D03*
X48300000Y-78650000D03*
X48300000Y-66150000D03*
D26*
X71270000Y-57930000D03*
X71270000Y-55390000D03*
X71270000Y-52850000D03*
X71270000Y-50310000D03*
X71270000Y-47770000D03*
D27*
X50000000Y-44000000D03*
X150000000Y-44000000D03*
X150000000Y-86000000D03*
X68000000Y-86000000D03*
D28*
X132940000Y-58660000D03*
X115200000Y-43690000D03*
X144000000Y-56900000D03*
X144010000Y-47490000D03*
X144000000Y-73000000D03*
X144000000Y-86900000D03*
X144000000Y-60600000D03*
X112700000Y-39993400D03*
X117050000Y-43590000D03*
X118570000Y-43790000D03*
X120060000Y-43410000D03*
X141950000Y-57370000D03*
X60700000Y-59600000D03*
X58150320Y-54100000D03*
X141950000Y-50930000D03*
X143300000Y-48000000D03*
X62900000Y-63150000D03*
X64300000Y-54000000D03*
X136708400Y-63812980D03*
X135438400Y-63812980D03*
X134168400Y-63812980D03*
X136708400Y-77412980D03*
X143200000Y-91600000D03*
X112700000Y-38469400D03*
X110160000Y-38469400D03*
X120800000Y-42800000D03*
X110160000Y-39993400D03*
X146100000Y-54900000D03*
X146100000Y-54100000D03*
X64300000Y-55800000D03*
X142610000Y-56320000D03*
X142610000Y-50210000D03*
X142600000Y-77400000D03*
X142600000Y-63800000D03*
X142500000Y-91000000D03*
X111430000Y-38469400D03*
X139400000Y-61085020D03*
X139500000Y-52500000D03*
X111430000Y-39993400D03*
X119800000Y-41800000D03*
X146000000Y-45000000D03*
X147400000Y-61400000D03*
X139600000Y-74500000D03*
X139600000Y-88200000D03*
X73300000Y-57900000D03*
X73300000Y-58600000D03*
X73300000Y-57100000D03*
X141200000Y-53300000D03*
X141210000Y-56910000D03*
X113970000Y-38469400D03*
X72796600Y-39866400D03*
X129088400Y-88285020D03*
X74066600Y-39866400D03*
X130358400Y-88285020D03*
X131630000Y-88320000D03*
X75336600Y-39866400D03*
X62636600Y-39866400D03*
X118928400Y-88285020D03*
X63906600Y-39866400D03*
X120198400Y-88285020D03*
X66446600Y-39866400D03*
X122738400Y-88285020D03*
X65176600Y-39866400D03*
X121468400Y-88285020D03*
X126548400Y-88285020D03*
X70256600Y-39866400D03*
X71526600Y-39866400D03*
X127818400Y-88285020D03*
X68986600Y-39866400D03*
X125278400Y-88285020D03*
X67716600Y-39866400D03*
X124008400Y-88285020D03*
X94140000Y-53220000D03*
X89090000Y-58300000D03*
X113848400Y-88285020D03*
X57556600Y-39866400D03*
X58826600Y-39866400D03*
X115118400Y-88285020D03*
X61366600Y-39866400D03*
X117658400Y-88285020D03*
X60096600Y-39866400D03*
X116388400Y-88285020D03*
X94140000Y-51420000D03*
X87810000Y-59350000D03*
X111308400Y-88285020D03*
X55016600Y-39866400D03*
X88450000Y-58830000D03*
X112578400Y-88285020D03*
X94140000Y-52320000D03*
X56286600Y-39866400D03*
X94140000Y-50530000D03*
X54380000Y-37010000D03*
X53746600Y-39866400D03*
X87170000Y-59850000D03*
X110038400Y-88285020D03*
X87580000Y-44790000D03*
X146450000Y-64600000D03*
X146600000Y-58200000D03*
X146500000Y-71600000D03*
X146500000Y-85400000D03*
X71526600Y-38342400D03*
X127818400Y-91012980D03*
X72796600Y-38342400D03*
X129088400Y-91012980D03*
X75336600Y-38342400D03*
X131630000Y-90950000D03*
X74066600Y-38342400D03*
X130358400Y-91012980D03*
X61366600Y-38342400D03*
X117658400Y-91012980D03*
X62636600Y-38342400D03*
X118928400Y-91012980D03*
X65176600Y-38342400D03*
X121468400Y-91012980D03*
X63906600Y-38342400D03*
X120198400Y-91012980D03*
X110038400Y-91012980D03*
X75270000Y-48180000D03*
X53746600Y-38342400D03*
X54380000Y-40930000D03*
X111308400Y-91012980D03*
X75120000Y-47390000D03*
X55016600Y-38342400D03*
X55670000Y-41050000D03*
X108768400Y-91012980D03*
X53510000Y-40970000D03*
X75420000Y-48980000D03*
X52476600Y-38342400D03*
X107498400Y-91012980D03*
X52170000Y-41000000D03*
X75590000Y-49770000D03*
X51206600Y-38342400D03*
X112578400Y-91012980D03*
X56920000Y-41140000D03*
X74970000Y-46600000D03*
X56286600Y-38342400D03*
X57556600Y-38342400D03*
X113848400Y-91012980D03*
X60096600Y-38342400D03*
X116388400Y-91012980D03*
X58826600Y-38342400D03*
X115118400Y-91012980D03*
X94140000Y-48730000D03*
X51850000Y-37290000D03*
X86310000Y-43530000D03*
X51206600Y-39866400D03*
X85900000Y-60880000D03*
X107498400Y-88285020D03*
X86540000Y-60380000D03*
X94140000Y-49630000D03*
X108768400Y-88285020D03*
X52476600Y-39866400D03*
X87010000Y-44160000D03*
X53120000Y-37230000D03*
X66446600Y-38342400D03*
X122738400Y-91012980D03*
X67716600Y-38342400D03*
X124008400Y-91012980D03*
X70256600Y-38342400D03*
X126548400Y-91012980D03*
X68986600Y-38342400D03*
X125278400Y-91012980D03*
X102540000Y-39993400D03*
X125278400Y-74685020D03*
X103810000Y-39993400D03*
X126548400Y-74685020D03*
X106350000Y-39993400D03*
X129088400Y-74685020D03*
X105080000Y-39993400D03*
X127818400Y-74685020D03*
X131628400Y-74685020D03*
X108890000Y-39993400D03*
X107620000Y-39993400D03*
X130358400Y-74685020D03*
X125278400Y-77412980D03*
X102540000Y-38469400D03*
X103810000Y-38469400D03*
X126548400Y-77412980D03*
X106350000Y-38469400D03*
X129088400Y-77412980D03*
X105080000Y-38469400D03*
X127818400Y-77412980D03*
X131628400Y-77412980D03*
X108890000Y-38469400D03*
X107620000Y-38469400D03*
X130358400Y-77412980D03*
X97460000Y-38469400D03*
X120198400Y-77412980D03*
X98730000Y-38469400D03*
X121468400Y-77412980D03*
X101270000Y-38469400D03*
X124008400Y-77412980D03*
X100000000Y-38469400D03*
X122738400Y-77412980D03*
X97460000Y-39993400D03*
X120198400Y-74685020D03*
X98730000Y-39993400D03*
X121468400Y-74685020D03*
X101270000Y-39993400D03*
X124008400Y-74685020D03*
X100000000Y-39993400D03*
X122738400Y-74685020D03*
X94920000Y-39993400D03*
X117658400Y-74685020D03*
X96190000Y-39993400D03*
X118928400Y-74685020D03*
X87300000Y-39993400D03*
X110038400Y-74685020D03*
X88570000Y-39993400D03*
X111308400Y-74685020D03*
X108768400Y-74685020D03*
X86030000Y-39993400D03*
X112578400Y-74685020D03*
X89840000Y-39993400D03*
X91110000Y-39993400D03*
X113848400Y-74685020D03*
X93650000Y-39993400D03*
X116388400Y-74685020D03*
X115118400Y-74685020D03*
X92380000Y-39993400D03*
X94920000Y-38469400D03*
X117658400Y-77412980D03*
X96190000Y-38469400D03*
X118928400Y-77412980D03*
X87300000Y-38469400D03*
X110038400Y-77412980D03*
X88570000Y-38469400D03*
X111308400Y-77412980D03*
X86030000Y-38469400D03*
X108768400Y-77412980D03*
X84760000Y-38469400D03*
X107498400Y-77412980D03*
X89840000Y-38469400D03*
X112578400Y-77412980D03*
X91110000Y-38469400D03*
X113848400Y-77412980D03*
X116388400Y-77412980D03*
X93650000Y-38469400D03*
X92380000Y-38469400D03*
X115118400Y-77412980D03*
X107498400Y-74685020D03*
X84760000Y-39993400D03*
X142443400Y-39866400D03*
X125278400Y-61085020D03*
X126548400Y-61085020D03*
X143713400Y-39866400D03*
X129088400Y-61085020D03*
X146253400Y-39866400D03*
X144983400Y-39866400D03*
X127818400Y-61085020D03*
X131628400Y-61085020D03*
X148793400Y-39866400D03*
X147523400Y-39866400D03*
X130358400Y-61085020D03*
X142443400Y-38342400D03*
X125278400Y-63812980D03*
X143713400Y-38342400D03*
X126548400Y-63812980D03*
X146253400Y-38342400D03*
X129100000Y-63780000D03*
X144983400Y-38342400D03*
X127818400Y-63812980D03*
X131628400Y-63812980D03*
X149500000Y-38600000D03*
X130358400Y-63812980D03*
X147550000Y-38325000D03*
X137363400Y-38342400D03*
X120198400Y-63812980D03*
X138633400Y-38342400D03*
X121468400Y-63812980D03*
X141173400Y-38342400D03*
X124008400Y-63812980D03*
X139903400Y-38342400D03*
X122740000Y-63810000D03*
X120198400Y-61085020D03*
X137363400Y-39866400D03*
X121468400Y-61085020D03*
X138633400Y-39866400D03*
X141173400Y-39866400D03*
X124008400Y-61085020D03*
X139903400Y-39866400D03*
X122738400Y-61085020D03*
X117658400Y-61085020D03*
X134823400Y-39866400D03*
X136093400Y-39866400D03*
X118928400Y-61085020D03*
X110038400Y-61085020D03*
X127203400Y-39866400D03*
X111308400Y-61085020D03*
X128473400Y-39866400D03*
X108768400Y-61085020D03*
X125933400Y-39866400D03*
X112578400Y-61085020D03*
X129743400Y-39866400D03*
X113848400Y-61085020D03*
X131013400Y-39866400D03*
X116388400Y-61085020D03*
X133553400Y-39866400D03*
X115118400Y-61085020D03*
X132283400Y-39866400D03*
X117658400Y-63812980D03*
X134823400Y-38342400D03*
X136093400Y-38342400D03*
X118928400Y-63812980D03*
X127203400Y-38342400D03*
X110038400Y-63812980D03*
X128473400Y-38342400D03*
X111308400Y-63812980D03*
X125933400Y-38342400D03*
X108768400Y-63812980D03*
X107498400Y-63812980D03*
X124663400Y-38342400D03*
X129743400Y-38342400D03*
X112578400Y-63812980D03*
X113848400Y-63812980D03*
X131013400Y-38342400D03*
X133553400Y-38342400D03*
X116388400Y-63812980D03*
X115118400Y-63812980D03*
X132283400Y-38342400D03*
X107498400Y-61085020D03*
X124663400Y-39866400D03*
X113970000Y-39993400D03*
X119000000Y-41000000D03*
X135000000Y-41300000D03*
X132200000Y-44100000D03*
X151800000Y-79900000D03*
X150400000Y-72300000D03*
X149700000Y-59100000D03*
X145700000Y-46000000D03*
X145700000Y-79700000D03*
X145700000Y-66200000D03*
X145600000Y-93600000D03*
X152670000Y-88660000D03*
X64860000Y-86010000D03*
X63200000Y-90800000D03*
X68494000Y-95295000D03*
X48300000Y-46100000D03*
X51700000Y-46100000D03*
X52500000Y-45000000D03*
X47100000Y-44700000D03*
X66300000Y-55800000D03*
X66300000Y-54000000D03*
X53510000Y-69000000D03*
X67480000Y-69000000D03*
X60400000Y-63000000D03*
X59200000Y-74900000D03*
X60649680Y-54100000D03*
X68500000Y-99100000D03*
X68500000Y-97800000D03*
X115240000Y-38469400D03*
X115240000Y-39993400D03*
D29*
X83400000Y-91200000D02*
X83500000Y-91300000D01*
X130290000Y-58560000D02*
X132840000Y-58560000D01*
X132940000Y-58660000D02*
X132840000Y-58560000D01*
X115200000Y-43690000D02*
X115733199Y-44223199D01*
X115733199Y-44223199D02*
X115953199Y-44223199D01*
X115953199Y-44223199D02*
X129970000Y-58240000D01*
X129970000Y-58240000D02*
X130290000Y-58560000D01*
X144000000Y-56900000D02*
X143559994Y-56900000D01*
X129400000Y-56900000D02*
X112700000Y-40200000D01*
X130499994Y-57999994D02*
X129400000Y-56900000D01*
X142460000Y-57999994D02*
X130499994Y-57999994D01*
X143559994Y-56900000D02*
X142460000Y-57999994D01*
X112700000Y-39993400D02*
X112700000Y-40200000D01*
X144010000Y-47490000D02*
X142520000Y-46000000D01*
X142520000Y-46000000D02*
X134460000Y-46000000D01*
X134460000Y-46000000D02*
X134008400Y-46451600D01*
X134008400Y-46451600D02*
X134008400Y-47485520D01*
X135438400Y-74685020D02*
X135438400Y-73861600D01*
X135438400Y-73861600D02*
X136300000Y-73000000D01*
X136300000Y-73000000D02*
X144000000Y-73000000D01*
X135900000Y-86800000D02*
X143900000Y-86800000D01*
X143900000Y-86800000D02*
X144000000Y-86900000D01*
X135438400Y-87261600D02*
X135900000Y-86800000D01*
X135900000Y-59600000D02*
X135438400Y-60061600D01*
X143000000Y-59600000D02*
X135900000Y-59600000D01*
X144000000Y-60600000D02*
X143000000Y-59600000D01*
X135438400Y-60061600D02*
X135438400Y-61085020D01*
X135438400Y-88285020D02*
X135438400Y-87261600D01*
X135438400Y-74685020D02*
X135438400Y-73761600D01*
X135438400Y-88285020D02*
X135438400Y-87361600D01*
X135438400Y-60161600D02*
X135438400Y-61085020D01*
X141709992Y-57370000D02*
X141950000Y-57370000D01*
X141709992Y-57370000D02*
X141530000Y-57549992D01*
X141530000Y-57549992D02*
X130686390Y-57549992D01*
X130686390Y-57549992D02*
X117050000Y-43913602D01*
X117050000Y-43913602D02*
X117050000Y-43590000D01*
X141950000Y-56720000D02*
X141950000Y-57370000D01*
X141950000Y-56720000D02*
X141450000Y-56220000D01*
X141450000Y-56220000D02*
X140943592Y-56220000D01*
X140943592Y-56220000D02*
X140513604Y-56649988D01*
X140513604Y-56649988D02*
X131076386Y-56649988D01*
X131076386Y-56649988D02*
X118570000Y-44143602D01*
X118570000Y-44143602D02*
X118570000Y-43790000D01*
X132123191Y-55746793D02*
X140086809Y-55746793D01*
X140086809Y-55746793D02*
X140543606Y-55289996D01*
X140543606Y-55289996D02*
X142479996Y-55289996D01*
X142479996Y-55289996D02*
X143241795Y-56051795D01*
X143241795Y-56051795D02*
X143241795Y-56581801D01*
X143241795Y-56581801D02*
X142453596Y-57370000D01*
X142453596Y-57370000D02*
X141950000Y-57370000D01*
X120060000Y-43410000D02*
X120060000Y-43683602D01*
X120060000Y-44360806D02*
X120060000Y-43683602D01*
X131445987Y-55746793D02*
X120060000Y-44360806D01*
X132123191Y-55746793D02*
X131445987Y-55746793D01*
X64300000Y-54000000D02*
X64300000Y-48430000D01*
X64300000Y-48430000D02*
X63770000Y-47900000D01*
X64670000Y-53630000D02*
X64300000Y-54000000D01*
X135278400Y-47485520D02*
X135278400Y-47578400D01*
X135278400Y-47578400D02*
X136400000Y-48700000D01*
X141980000Y-50900000D02*
X141950000Y-50930000D01*
X143100000Y-50900000D02*
X141980000Y-50900000D01*
X143300000Y-50700000D02*
X143100000Y-50900000D01*
X143300000Y-49800000D02*
X143300000Y-50700000D01*
X143000000Y-49500000D02*
X143300000Y-49800000D01*
X142400000Y-49500000D02*
X143000000Y-49500000D01*
X142136522Y-49763478D02*
X142400000Y-49500000D01*
X136700000Y-49763478D02*
X142136522Y-49763478D01*
X136400000Y-49463478D02*
X136700000Y-49763478D01*
X136400000Y-48700000D02*
X136400000Y-49463478D01*
X135278400Y-47485520D02*
X135278400Y-47471602D01*
X135278400Y-47471602D02*
X136300000Y-46450002D01*
X136300000Y-46450002D02*
X142333604Y-46450002D01*
X142333604Y-46450002D02*
X143300000Y-47416398D01*
X143300000Y-47416398D02*
X143300000Y-48000000D01*
X143300000Y-48000000D02*
X143500000Y-48000000D01*
X133699998Y-45549998D02*
X133150000Y-45000000D01*
X142706396Y-45549998D02*
X133699998Y-45549998D01*
X143628199Y-46471801D02*
X142706396Y-45549998D01*
X143971801Y-46471801D02*
X143628199Y-46471801D01*
X144700000Y-47200000D02*
X143971801Y-46471801D01*
X144700000Y-47900000D02*
X144700000Y-47200000D01*
X144400000Y-48200000D02*
X144700000Y-47900000D01*
X143700000Y-48200000D02*
X144400000Y-48200000D01*
X143500000Y-48000000D02*
X143700000Y-48200000D01*
X136708400Y-63812980D02*
X136708400Y-65208400D01*
X143850000Y-65300000D02*
X144550000Y-64600000D01*
X136800000Y-65300000D02*
X143850000Y-65300000D01*
X136708400Y-65208400D02*
X136800000Y-65300000D01*
X132738400Y-47485520D02*
X132738400Y-45411600D01*
X132738400Y-45411600D02*
X133150000Y-45000000D01*
X62900000Y-63150000D02*
X62900000Y-63100000D01*
X135438400Y-63812980D02*
X134168400Y-63812980D01*
X136708400Y-63812980D02*
X135438400Y-63812980D01*
X135438400Y-77412980D02*
X136708400Y-77412980D01*
X136708400Y-91012980D02*
X136708400Y-92008400D01*
X136708400Y-92008400D02*
X137200000Y-92500000D01*
X137200000Y-92500000D02*
X142300000Y-92500000D01*
X142300000Y-92500000D02*
X143200000Y-91600000D01*
X135438400Y-91012980D02*
X136708400Y-91012980D01*
X134168400Y-91012980D02*
X135438400Y-91012980D01*
X134168400Y-77412980D02*
X135438400Y-77412980D01*
D30*
X128213480Y-50213480D02*
X120800000Y-42800000D01*
X130198400Y-50213480D02*
X128213480Y-50213480D01*
X130198400Y-50213480D02*
X130198400Y-51798400D01*
X145900000Y-54700000D02*
X146100000Y-54900000D01*
X133100000Y-54700000D02*
X145900000Y-54700000D01*
X130198400Y-51798400D02*
X133100000Y-54700000D01*
X131468400Y-50213480D02*
X131468400Y-51568400D01*
X134000000Y-54100000D02*
X146100000Y-54100000D01*
X131468400Y-51568400D02*
X134000000Y-54100000D01*
X130198400Y-50213480D02*
X131468400Y-50213480D01*
X63300000Y-66150000D02*
X63300000Y-66000000D01*
D29*
X131940000Y-56196795D02*
X131259591Y-56196795D01*
X117450002Y-37850002D02*
X117450002Y-40413604D01*
X116600000Y-37000000D02*
X117450002Y-37850002D01*
X112500000Y-37000000D02*
X116600000Y-37000000D01*
X112500000Y-37000000D02*
X111430000Y-38070000D01*
X117450002Y-41710002D02*
X117450002Y-40413604D01*
X119240000Y-43500000D02*
X117450002Y-41710002D01*
X119240000Y-44177204D02*
X119240000Y-43500000D01*
X131259591Y-56196795D02*
X119240000Y-44177204D01*
X141919998Y-55739998D02*
X142029998Y-55739998D01*
X140293605Y-56176395D02*
X140730002Y-55739998D01*
X140730002Y-55739998D02*
X141919998Y-55739998D01*
X140293605Y-56196795D02*
X131940000Y-56196795D01*
X131940000Y-56196795D02*
X131936795Y-56196795D01*
X140293605Y-56196795D02*
X140293605Y-56176395D01*
X142029998Y-55739998D02*
X142610000Y-56320000D01*
X111430000Y-38469400D02*
X111430000Y-38070000D01*
X142606520Y-50213480D02*
X135278400Y-50213480D01*
X142610000Y-50210000D02*
X142606520Y-50213480D01*
X137978400Y-77412980D02*
X142587020Y-77412980D01*
X142587020Y-77412980D02*
X142600000Y-77400000D01*
X142587020Y-63812980D02*
X142600000Y-63800000D01*
X137978400Y-63812980D02*
X142587020Y-63812980D01*
X142487020Y-91012980D02*
X137978400Y-91012980D01*
X142500000Y-91000000D02*
X142487020Y-91012980D01*
D30*
X134008400Y-50213480D02*
X134008400Y-51808400D01*
X139200000Y-52200000D02*
X139500000Y-52500000D01*
X134400000Y-52200000D02*
X139200000Y-52200000D01*
X134008400Y-51808400D02*
X134400000Y-52200000D01*
X137978400Y-61085020D02*
X139400000Y-61085020D01*
X139400000Y-61085020D02*
X142485020Y-61085020D01*
X121900000Y-41800000D02*
X119800000Y-41800000D01*
X122200000Y-42100000D02*
X121900000Y-41800000D01*
X143100000Y-42100000D02*
X122200000Y-42100000D01*
X146000000Y-45000000D02*
X143100000Y-42100000D01*
X142800000Y-61400000D02*
X147400000Y-61400000D01*
X142485020Y-61085020D02*
X142800000Y-61400000D01*
X136708400Y-61085020D02*
X137978400Y-61085020D01*
X137978400Y-74685020D02*
X139414980Y-74685020D01*
X139414980Y-74685020D02*
X139600000Y-74500000D01*
X137978400Y-88285020D02*
X139514980Y-88285020D01*
X139514980Y-88285020D02*
X139600000Y-88200000D01*
X136708400Y-74685020D02*
X137978400Y-74685020D01*
X136708400Y-88285020D02*
X137978400Y-88285020D01*
D29*
X141210000Y-56910000D02*
X140889990Y-56910000D01*
X132738400Y-50213480D02*
X132738400Y-51938400D01*
X134100000Y-53300000D02*
X141200000Y-53300000D01*
X132738400Y-51938400D02*
X134100000Y-53300000D01*
X117892796Y-44120000D02*
X117901398Y-44120000D01*
X117910000Y-44120000D02*
X117892796Y-44120000D01*
X130889990Y-57099990D02*
X117910000Y-44120000D01*
X140700000Y-57099990D02*
X130889990Y-57099990D01*
X140889990Y-56910000D02*
X140700000Y-57099990D01*
X117000000Y-40600000D02*
X117000000Y-42430000D01*
X114600000Y-37500000D02*
X113970000Y-38130000D01*
X117000000Y-38200000D02*
X117000000Y-40600000D01*
X116300000Y-37500000D02*
X117000000Y-38200000D01*
X114600000Y-37500000D02*
X116300000Y-37500000D01*
X117901398Y-43331398D02*
X117901398Y-44120000D01*
X117901398Y-44120000D02*
X117901398Y-44111398D01*
X117901398Y-44111398D02*
X117901398Y-44128602D01*
X117000000Y-42430000D02*
X117901398Y-43331398D01*
X113970000Y-38469400D02*
X113970000Y-38130000D01*
X131628400Y-88318400D02*
X131630000Y-88320000D01*
X131628400Y-88318400D02*
X131628400Y-88285020D01*
X76170000Y-37330000D02*
X83630000Y-44790000D01*
X54380000Y-37010000D02*
X55000000Y-37010000D01*
X55310000Y-37320000D02*
X76170000Y-37320000D01*
X55000000Y-37010000D02*
X55310000Y-37320000D01*
X76170000Y-37320000D02*
X76170000Y-37330000D01*
X83630000Y-44790000D02*
X87580000Y-44790000D01*
D30*
X132898400Y-61085020D02*
X132898400Y-60071600D01*
X132898400Y-60071600D02*
X134395004Y-58574996D01*
X134395004Y-58574996D02*
X146225004Y-58574996D01*
X146225004Y-58574996D02*
X146600000Y-58200000D01*
X132898400Y-74685020D02*
X132898400Y-73201600D01*
X132898400Y-73201600D02*
X134500000Y-71600000D01*
X134500000Y-71600000D02*
X146500000Y-71600000D01*
X132898400Y-88285020D02*
X132898400Y-86901600D01*
X132898400Y-86901600D02*
X134400000Y-85400000D01*
X134400000Y-85400000D02*
X146500000Y-85400000D01*
D29*
X131630000Y-90950000D02*
X131628400Y-90951600D01*
X131628400Y-90951600D02*
X131628400Y-91012980D01*
X54400000Y-40930000D02*
X55690002Y-42220002D01*
X55690002Y-42220002D02*
X69307206Y-42220002D01*
X69307206Y-42220002D02*
X73840000Y-46752796D01*
X73840000Y-46752796D02*
X73840000Y-47150000D01*
X73840000Y-47150000D02*
X74870000Y-48180000D01*
X74870000Y-48180000D02*
X75270000Y-48180000D01*
X54380000Y-40930000D02*
X54400000Y-40930000D01*
X74300000Y-46890000D02*
X74800000Y-47390000D01*
X74800000Y-47390000D02*
X75120000Y-47390000D01*
X69493602Y-41770000D02*
X74300000Y-46576398D01*
X56390000Y-41770000D02*
X69493602Y-41770000D01*
X55670000Y-41050000D02*
X56390000Y-41770000D01*
X74300000Y-46576398D02*
X74300000Y-46890000D01*
X53510000Y-40970000D02*
X55210004Y-42670004D01*
X55210004Y-42670004D02*
X69120810Y-42670004D01*
X69120810Y-42670004D02*
X73370000Y-46919194D01*
X73370000Y-46919194D02*
X73370000Y-47316398D01*
X73370000Y-47316398D02*
X75033602Y-48980000D01*
X75033602Y-48980000D02*
X75420000Y-48980000D01*
X52170000Y-41000000D02*
X54290006Y-43120006D01*
X54290006Y-43120006D02*
X68934414Y-43120006D01*
X68934414Y-43120006D02*
X72910000Y-47095592D01*
X72910000Y-47095592D02*
X72910000Y-47492796D01*
X72910000Y-47492796D02*
X75187204Y-49770000D01*
X75187204Y-49770000D02*
X75590000Y-49770000D01*
X56920000Y-41140000D02*
X57160000Y-40900000D01*
X57160000Y-40900000D02*
X69260000Y-40900000D01*
X69260000Y-40900000D02*
X74960000Y-46600000D01*
X74960000Y-46600000D02*
X74970000Y-46600000D01*
X51850000Y-37290000D02*
X53220002Y-35919998D01*
X53220002Y-35919998D02*
X55186398Y-35919998D01*
X55186398Y-35919998D02*
X55686396Y-36419996D01*
X55686396Y-36419996D02*
X76546394Y-36419996D01*
X76546394Y-36419996D02*
X83656398Y-43530000D01*
X83656398Y-43530000D02*
X86310000Y-43530000D01*
X83650000Y-44160000D02*
X87010000Y-44160000D01*
X76359998Y-36869998D02*
X83650000Y-44160000D01*
X55500000Y-36869998D02*
X76359998Y-36869998D01*
X55000002Y-36370000D02*
X55500000Y-36869998D01*
X53980000Y-36370000D02*
X55000002Y-36370000D01*
X53120000Y-37230000D02*
X53980000Y-36370000D01*
X131628400Y-61028400D02*
X131628400Y-61085020D01*
X131628400Y-61028400D02*
X131600000Y-61000000D01*
X148793400Y-39893400D02*
X148793400Y-39866400D01*
X130358400Y-60141600D02*
X130358400Y-61085020D01*
X129100000Y-63780000D02*
X129088400Y-63791600D01*
X129088400Y-63791600D02*
X129088400Y-63812980D01*
X148793400Y-38342400D02*
X149242400Y-38342400D01*
X149500000Y-38600000D02*
X149242400Y-38342400D01*
X148793400Y-38393400D02*
X148793400Y-38342400D01*
X147532600Y-38342400D02*
X147550000Y-38325000D01*
X147532600Y-38342400D02*
X147523400Y-38342400D01*
X122740000Y-63810000D02*
X122738400Y-63811600D01*
X122738400Y-63811600D02*
X122738400Y-63812980D01*
X130850000Y-40029800D02*
X131013400Y-39866400D01*
X124663400Y-38386600D02*
X124663400Y-38342400D01*
X131013400Y-38338400D02*
X131013400Y-38342400D01*
X132292400Y-38342400D02*
X132283400Y-38342400D01*
X119000000Y-41000000D02*
X132400000Y-41000000D01*
X134700000Y-41000000D02*
X132400000Y-41000000D01*
X135000000Y-41300000D02*
X134700000Y-41000000D01*
X131300000Y-45000000D02*
X132200000Y-44100000D01*
X131250000Y-45000000D02*
X131300000Y-45000000D01*
X131468400Y-47485520D02*
X131468400Y-45218400D01*
X131468400Y-45218400D02*
X131250000Y-45000000D01*
X131468400Y-45368400D02*
X131210000Y-45110000D01*
X135400000Y-86200000D02*
X146700000Y-86200000D01*
X135400000Y-86200000D02*
X134168400Y-87431600D01*
X151800000Y-80300000D02*
X151800000Y-79900000D01*
X147300000Y-84800000D02*
X151800000Y-80300000D01*
X147300000Y-85600000D02*
X147300000Y-84800000D01*
X146700000Y-86200000D02*
X147300000Y-85600000D01*
X134168400Y-87431600D02*
X134168400Y-88285020D01*
X134168400Y-88285020D02*
X134168400Y-87331600D01*
X134168400Y-74685020D02*
X134168400Y-73731600D01*
X134168400Y-73731600D02*
X135350002Y-72549998D01*
X135350002Y-72549998D02*
X143450002Y-72549998D01*
X143450002Y-72549998D02*
X143700000Y-72300000D01*
X143700000Y-72300000D02*
X150400000Y-72300000D01*
X135150002Y-59149998D02*
X149650002Y-59149998D01*
X149650002Y-59149998D02*
X149700000Y-59100000D01*
X134168400Y-61085020D02*
X134168400Y-60131600D01*
X134168400Y-60131600D02*
X135150002Y-59149998D01*
D30*
X134500000Y-44500000D02*
X133200000Y-43200000D01*
X144200000Y-44500000D02*
X134500000Y-44500000D01*
X145700000Y-46000000D02*
X144200000Y-44500000D01*
X133200000Y-43200000D02*
X131400000Y-43200000D01*
X131400000Y-43200000D02*
X130198400Y-44401600D01*
X130198400Y-47485520D02*
X130198400Y-44401600D01*
X132898400Y-77412980D02*
X132898400Y-78798400D01*
X133800000Y-79700000D02*
X145700000Y-79700000D01*
X132898400Y-78798400D02*
X133800000Y-79700000D01*
X132898400Y-91012980D02*
X132898400Y-92198400D01*
X134400000Y-66400000D02*
X132898400Y-64898400D01*
X145500000Y-66400000D02*
X134400000Y-66400000D01*
X145700000Y-66200000D02*
X145500000Y-66400000D01*
X145400000Y-93800000D02*
X145600000Y-93600000D01*
X134500000Y-93800000D02*
X145400000Y-93800000D01*
X132898400Y-92198400D02*
X134500000Y-93800000D01*
X132898400Y-64898400D02*
X132898400Y-63812980D01*
D29*
X53510000Y-69000000D02*
X53500000Y-69000000D01*
X67480000Y-69000000D02*
X67500000Y-69000000D01*
X58150320Y-53150040D02*
X57249960Y-53150040D01*
X59400000Y-62000000D02*
X60400000Y-63000000D01*
X57200000Y-62000000D02*
X59400000Y-62000000D01*
X56700000Y-61500000D02*
X57200000Y-62000000D01*
X56700000Y-60700000D02*
X56700000Y-61500000D01*
X57100000Y-60300000D02*
X56700000Y-60700000D01*
X62300000Y-60300000D02*
X57100000Y-60300000D01*
X62900000Y-59700000D02*
X62300000Y-60300000D01*
X62900000Y-59200000D02*
X62900000Y-59700000D01*
X62400000Y-58700000D02*
X62900000Y-59200000D01*
X56900000Y-58700000D02*
X62400000Y-58700000D01*
X56500000Y-58300000D02*
X56900000Y-58700000D01*
X56500000Y-57900000D02*
X56500000Y-58300000D01*
X57000000Y-57400000D02*
X56500000Y-57900000D01*
X58300000Y-57400000D02*
X57000000Y-57400000D01*
X58700000Y-57000000D02*
X58300000Y-57400000D01*
X58700000Y-56700000D02*
X58700000Y-57000000D01*
X58100000Y-56100000D02*
X58700000Y-56700000D01*
X57000000Y-56100000D02*
X58100000Y-56100000D01*
X56400000Y-55500000D02*
X57000000Y-56100000D01*
X56400000Y-54000000D02*
X56400000Y-55500000D01*
X57249960Y-53150040D02*
X56400000Y-54000000D01*
X58150320Y-53150040D02*
X58550040Y-53150040D01*
X58550040Y-53150040D02*
X59100000Y-53700000D01*
X59100000Y-53700000D02*
X59100000Y-54800000D01*
X59100000Y-54800000D02*
X58850040Y-55049960D01*
X58850040Y-55049960D02*
X58150320Y-55049960D01*
X58150320Y-55049960D02*
X58549960Y-55049960D01*
X58549960Y-55049960D02*
X59200000Y-55700000D01*
X59200000Y-55700000D02*
X59200000Y-57000000D01*
X59200000Y-57000000D02*
X60200000Y-58000000D01*
X62998780Y-54648360D02*
X62998780Y-56901220D01*
X61900000Y-58000000D02*
X60200000Y-58000000D01*
X62998780Y-56901220D02*
X61900000Y-58000000D01*
X60649680Y-53150040D02*
X60649680Y-52749680D01*
X59200000Y-72700000D02*
X59200000Y-74900000D01*
X55800000Y-69300000D02*
X59200000Y-72700000D01*
X55800000Y-53800000D02*
X55800000Y-69300000D01*
X57500000Y-52100000D02*
X55800000Y-53800000D01*
X60000000Y-52100000D02*
X57500000Y-52100000D01*
X60649680Y-52749680D02*
X60000000Y-52100000D01*
X60649680Y-53150040D02*
X60249960Y-53150040D01*
X60249960Y-53150040D02*
X59700000Y-53700000D01*
X59700000Y-53700000D02*
X59700000Y-54800000D01*
X59700000Y-54800000D02*
X59949960Y-55049960D01*
X59949960Y-55049960D02*
X60649680Y-55049960D01*
X60600000Y-56900000D02*
X60600000Y-56300000D01*
X59800000Y-56900000D02*
X59800000Y-56600000D01*
X59800000Y-56600000D02*
X60100000Y-56300000D01*
X60100000Y-56300000D02*
X60100000Y-55900000D01*
X60100000Y-55900000D02*
X59900000Y-55700000D01*
X59900000Y-55700000D02*
X59900000Y-55400000D01*
X60250040Y-55049960D02*
X59900000Y-55400000D01*
X62201220Y-56998780D02*
X61900000Y-57300000D01*
X61900000Y-57300000D02*
X61700000Y-57300000D01*
X61700000Y-57300000D02*
X61500000Y-57100000D01*
X60600000Y-56900000D02*
X60350000Y-57150000D01*
X62201220Y-56998780D02*
X62201220Y-54648360D01*
X60350000Y-57150000D02*
X60050000Y-57150000D01*
X60050000Y-57150000D02*
X59800000Y-56900000D01*
X61500000Y-56200000D02*
X61500000Y-57100000D01*
X61200000Y-55900000D02*
X61500000Y-56200000D01*
X61000000Y-55900000D02*
X61200000Y-55900000D01*
X60600000Y-56300000D02*
X61000000Y-55900000D01*
X60250040Y-55049960D02*
X60649680Y-55049960D01*
D30*
X62906000Y-99105000D02*
X62995000Y-99105000D01*
X62995000Y-99105000D02*
X63200000Y-98900000D01*
X63200000Y-98900000D02*
X63200000Y-92800000D01*
X62906000Y-99105000D02*
X62905000Y-99105000D01*
X62905000Y-99105000D02*
X62400000Y-98600000D01*
X62400000Y-93200000D02*
X62000000Y-92800000D01*
X62400000Y-98600000D02*
X62400000Y-93200000D01*
X63200000Y-92800000D02*
X62000000Y-92800000D01*
X48100000Y-74300000D02*
X48100000Y-66350000D01*
X60100000Y-86300000D02*
X48100000Y-74300000D01*
X60100000Y-90900000D02*
X60100000Y-86300000D01*
X62000000Y-92800000D02*
X60100000Y-90900000D01*
X48100000Y-66350000D02*
X48300000Y-66150000D01*
X63100000Y-93000000D02*
X60900000Y-90800000D01*
X48800000Y-74100000D02*
X48800000Y-66650000D01*
X60900000Y-86200000D02*
X48800000Y-74100000D01*
X60900000Y-90800000D02*
X60900000Y-86200000D01*
X48800000Y-66650000D02*
X48300000Y-66150000D01*
X63200000Y-92800000D02*
X62500000Y-92800000D01*
X48300000Y-74200000D02*
X48300000Y-66150000D01*
X60400000Y-86300000D02*
X48300000Y-74200000D01*
X60400000Y-90700000D02*
X60400000Y-86300000D01*
X62500000Y-92800000D02*
X60400000Y-90700000D01*
X62906000Y-95295000D02*
X62906000Y-93094000D01*
X62906000Y-93094000D02*
X63200000Y-92800000D01*
X62906000Y-97835000D02*
X62906000Y-98694000D01*
X62906000Y-98694000D02*
X62906000Y-99105000D01*
X62906000Y-96565000D02*
X62906000Y-97835000D01*
X62906000Y-95295000D02*
X62906000Y-96565000D01*
X68494000Y-96565000D02*
X68494000Y-97794000D01*
X68494000Y-97794000D02*
X68500000Y-97800000D01*
X68500000Y-97800000D02*
X68494000Y-97835000D01*
X68500000Y-99100000D02*
X68495000Y-99105000D01*
X68495000Y-99105000D02*
X68494000Y-99105000D01*
X68500000Y-97800000D02*
X68494000Y-97806000D01*
X68494000Y-97806000D02*
X68494000Y-97835000D01*
X68494000Y-97835000D02*
X68494000Y-99105000D01*
D29*
X59200000Y-47900000D02*
X59200000Y-48100000D01*
X59200000Y-48100000D02*
X62201220Y-51101220D01*
X62201220Y-51101220D02*
X62201220Y-52951640D01*
X63100000Y-50300000D02*
X63100000Y-49770000D01*
X63100000Y-50300000D02*
X63000000Y-50400000D01*
X63000000Y-50400000D02*
X63000000Y-50700000D01*
X63000000Y-50700000D02*
X63200000Y-50900000D01*
X63200000Y-50900000D02*
X63200000Y-51400000D01*
X63200000Y-51400000D02*
X62998780Y-51601220D01*
X62998780Y-52951640D02*
X62998780Y-51601220D01*
X63100000Y-49770000D02*
X61230000Y-47900000D01*
D10*
G36*
X153415100Y-41950000D02*
X151743189Y-41950000D01*
X151521214Y-41727637D01*
X150535823Y-41318467D01*
X149468858Y-41317536D01*
X148482754Y-41724986D01*
X148257347Y-41950000D01*
X146500000Y-41950000D01*
X146480547Y-41953939D01*
X146464160Y-41965136D01*
X146453419Y-41981827D01*
X146450000Y-42000000D01*
X146450000Y-44158211D01*
X146417513Y-44144721D01*
X143736396Y-41463604D01*
X143444415Y-41268508D01*
X143100000Y-41200000D01*
X135950088Y-41200000D01*
X135950165Y-41111862D01*
X135945526Y-41100634D01*
X136461700Y-41100634D01*
X136702576Y-41055310D01*
X136725631Y-41040475D01*
X136737259Y-41048420D01*
X136995100Y-41100634D01*
X137731700Y-41100634D01*
X137972576Y-41055310D01*
X137995631Y-41040475D01*
X138007259Y-41048420D01*
X138265100Y-41100634D01*
X139001700Y-41100634D01*
X139242576Y-41055310D01*
X139265631Y-41040475D01*
X139277259Y-41048420D01*
X139535100Y-41100634D01*
X140271700Y-41100634D01*
X140512576Y-41055310D01*
X140535631Y-41040475D01*
X140547259Y-41048420D01*
X140805100Y-41100634D01*
X141541700Y-41100634D01*
X141782576Y-41055310D01*
X141805631Y-41040475D01*
X141817259Y-41048420D01*
X142075100Y-41100634D01*
X142811700Y-41100634D01*
X143052576Y-41055310D01*
X143075631Y-41040475D01*
X143087259Y-41048420D01*
X143345100Y-41100634D01*
X144081700Y-41100634D01*
X144322576Y-41055310D01*
X144345631Y-41040475D01*
X144357259Y-41048420D01*
X144615100Y-41100634D01*
X145351700Y-41100634D01*
X145592576Y-41055310D01*
X145615631Y-41040475D01*
X145627259Y-41048420D01*
X145885100Y-41100634D01*
X146621700Y-41100634D01*
X146862576Y-41055310D01*
X146885631Y-41040475D01*
X146897259Y-41048420D01*
X147155100Y-41100634D01*
X147891700Y-41100634D01*
X148132576Y-41055310D01*
X148155631Y-41040475D01*
X148167259Y-41048420D01*
X148425100Y-41100634D01*
X149161700Y-41100634D01*
X149402576Y-41055310D01*
X149623805Y-40912953D01*
X149772220Y-40695741D01*
X149824434Y-40437900D01*
X149824434Y-39493849D01*
X150037429Y-39405841D01*
X150304902Y-39138835D01*
X150449835Y-38789796D01*
X150450165Y-38411862D01*
X150305841Y-38062571D01*
X150038835Y-37795098D01*
X149811202Y-37700577D01*
X149779110Y-37530024D01*
X149636753Y-37308795D01*
X149419541Y-37160380D01*
X149161700Y-37108166D01*
X148425100Y-37108166D01*
X148184224Y-37153490D01*
X148161169Y-37168325D01*
X148149541Y-37160380D01*
X147891700Y-37108166D01*
X147155100Y-37108166D01*
X146914224Y-37153490D01*
X146891169Y-37168325D01*
X146879541Y-37160380D01*
X146621700Y-37108166D01*
X145885100Y-37108166D01*
X145644224Y-37153490D01*
X145621169Y-37168325D01*
X145609541Y-37160380D01*
X145351700Y-37108166D01*
X144615100Y-37108166D01*
X144374224Y-37153490D01*
X144351169Y-37168325D01*
X144339541Y-37160380D01*
X144081700Y-37108166D01*
X143345100Y-37108166D01*
X143104224Y-37153490D01*
X143081169Y-37168325D01*
X143069541Y-37160380D01*
X142811700Y-37108166D01*
X142075100Y-37108166D01*
X141834224Y-37153490D01*
X141811169Y-37168325D01*
X141799541Y-37160380D01*
X141541700Y-37108166D01*
X140805100Y-37108166D01*
X140564224Y-37153490D01*
X140541169Y-37168325D01*
X140529541Y-37160380D01*
X140271700Y-37108166D01*
X139535100Y-37108166D01*
X139294224Y-37153490D01*
X139271169Y-37168325D01*
X139259541Y-37160380D01*
X139001700Y-37108166D01*
X138265100Y-37108166D01*
X138024224Y-37153490D01*
X138001169Y-37168325D01*
X137989541Y-37160380D01*
X137731700Y-37108166D01*
X136995100Y-37108166D01*
X136754224Y-37153490D01*
X136731169Y-37168325D01*
X136719541Y-37160380D01*
X136461700Y-37108166D01*
X135725100Y-37108166D01*
X135484224Y-37153490D01*
X135461169Y-37168325D01*
X135449541Y-37160380D01*
X135191700Y-37108166D01*
X134455100Y-37108166D01*
X134214224Y-37153490D01*
X134191169Y-37168325D01*
X134179541Y-37160380D01*
X133921700Y-37108166D01*
X133185100Y-37108166D01*
X132944224Y-37153490D01*
X132921169Y-37168325D01*
X132909541Y-37160380D01*
X132651700Y-37108166D01*
X131915100Y-37108166D01*
X131674224Y-37153490D01*
X131651169Y-37168325D01*
X131639541Y-37160380D01*
X131381700Y-37108166D01*
X130645100Y-37108166D01*
X130404224Y-37153490D01*
X130381169Y-37168325D01*
X130369541Y-37160380D01*
X130111700Y-37108166D01*
X129375100Y-37108166D01*
X129134224Y-37153490D01*
X129111169Y-37168325D01*
X129099541Y-37160380D01*
X128841700Y-37108166D01*
X128105100Y-37108166D01*
X127864224Y-37153490D01*
X127841169Y-37168325D01*
X127829541Y-37160380D01*
X127571700Y-37108166D01*
X126835100Y-37108166D01*
X126594224Y-37153490D01*
X126571169Y-37168325D01*
X126559541Y-37160380D01*
X126301700Y-37108166D01*
X125565100Y-37108166D01*
X125324224Y-37153490D01*
X125301169Y-37168325D01*
X125289541Y-37160380D01*
X125031700Y-37108166D01*
X124295100Y-37108166D01*
X124054224Y-37153490D01*
X123832995Y-37295847D01*
X123684580Y-37513059D01*
X123632366Y-37770900D01*
X123632366Y-38913900D01*
X123669527Y-39111393D01*
X123632366Y-39294900D01*
X123632366Y-40225000D01*
X119568685Y-40225000D01*
X119538835Y-40195098D01*
X119189796Y-40050165D01*
X118811862Y-40049835D01*
X118462571Y-40194159D01*
X118225002Y-40431313D01*
X118225002Y-37850002D01*
X118166009Y-37553422D01*
X117998010Y-37301994D01*
X117330408Y-36634392D01*
X117379130Y-36585669D01*
X117397483Y-36634173D01*
X117865414Y-36713480D01*
X118264117Y-36634173D01*
X118333909Y-36449721D01*
X121569491Y-36449721D01*
X121639283Y-36634173D01*
X122107214Y-36713480D01*
X122505917Y-36634173D01*
X122575709Y-36449721D01*
X150881091Y-36449721D01*
X150950883Y-36634173D01*
X151418814Y-36713480D01*
X151817517Y-36634173D01*
X151887309Y-36449721D01*
X151384200Y-35946613D01*
X150881091Y-36449721D01*
X122575709Y-36449721D01*
X122072600Y-35946613D01*
X121569491Y-36449721D01*
X118333909Y-36449721D01*
X117830800Y-35946613D01*
X117722966Y-36054447D01*
X117273953Y-35605434D01*
X117381787Y-35497600D01*
X118279813Y-35497600D01*
X118782921Y-36000709D01*
X118967373Y-35930917D01*
X119034946Y-35532214D01*
X120856720Y-35532214D01*
X120936027Y-35930917D01*
X121120479Y-36000709D01*
X121623587Y-35497600D01*
X122521613Y-35497600D01*
X123024721Y-36000709D01*
X123209173Y-35930917D01*
X123276746Y-35532214D01*
X150168320Y-35532214D01*
X150247627Y-35930917D01*
X150432079Y-36000709D01*
X150935187Y-35497600D01*
X151833213Y-35497600D01*
X152336321Y-36000709D01*
X152520773Y-35930917D01*
X152600080Y-35462986D01*
X152520773Y-35064283D01*
X152336321Y-34994491D01*
X151833213Y-35497600D01*
X150935187Y-35497600D01*
X150432079Y-34994491D01*
X150247627Y-35064283D01*
X150168320Y-35532214D01*
X123276746Y-35532214D01*
X123288480Y-35462986D01*
X123209173Y-35064283D01*
X123024721Y-34994491D01*
X122521613Y-35497600D01*
X121623587Y-35497600D01*
X121120479Y-34994491D01*
X120936027Y-35064283D01*
X120856720Y-35532214D01*
X119034946Y-35532214D01*
X119046680Y-35462986D01*
X118967373Y-35064283D01*
X118782921Y-34994491D01*
X118279813Y-35497600D01*
X117381787Y-35497600D01*
X116878679Y-34994491D01*
X116694227Y-35064283D01*
X116614920Y-35532214D01*
X116694227Y-35930917D01*
X116742731Y-35949270D01*
X116653188Y-36038813D01*
X116901968Y-36287593D01*
X116896580Y-36283993D01*
X116600000Y-36225000D01*
X112500005Y-36225000D01*
X112500000Y-36224999D01*
X112252626Y-36274205D01*
X112203420Y-36283993D01*
X111951992Y-36451992D01*
X111951990Y-36451995D01*
X111168818Y-37235166D01*
X111061700Y-37235166D01*
X110820824Y-37280490D01*
X110693564Y-37362380D01*
X110639293Y-37339900D01*
X110483650Y-37339900D01*
X110344150Y-37479400D01*
X110344150Y-38183650D01*
X110398966Y-38183650D01*
X110398966Y-38755150D01*
X110344150Y-38755150D01*
X110344150Y-38759166D01*
X109975850Y-38759166D01*
X109975850Y-38755150D01*
X109921034Y-38755150D01*
X109921034Y-38183650D01*
X109975850Y-38183650D01*
X109975850Y-37479400D01*
X109836350Y-37339900D01*
X109680707Y-37339900D01*
X109626106Y-37362516D01*
X109516141Y-37287380D01*
X109258300Y-37235166D01*
X108521700Y-37235166D01*
X108280824Y-37280490D01*
X108257769Y-37295325D01*
X108246141Y-37287380D01*
X107988300Y-37235166D01*
X107251700Y-37235166D01*
X107010824Y-37280490D01*
X106987769Y-37295325D01*
X106976141Y-37287380D01*
X106718300Y-37235166D01*
X105981700Y-37235166D01*
X105740824Y-37280490D01*
X105717769Y-37295325D01*
X105706141Y-37287380D01*
X105448300Y-37235166D01*
X104711700Y-37235166D01*
X104470824Y-37280490D01*
X104447769Y-37295325D01*
X104436141Y-37287380D01*
X104178300Y-37235166D01*
X103441700Y-37235166D01*
X103200824Y-37280490D01*
X103177769Y-37295325D01*
X103166141Y-37287380D01*
X102908300Y-37235166D01*
X102171700Y-37235166D01*
X101930824Y-37280490D01*
X101907769Y-37295325D01*
X101896141Y-37287380D01*
X101638300Y-37235166D01*
X100901700Y-37235166D01*
X100660824Y-37280490D01*
X100637769Y-37295325D01*
X100626141Y-37287380D01*
X100368300Y-37235166D01*
X99631700Y-37235166D01*
X99390824Y-37280490D01*
X99367769Y-37295325D01*
X99356141Y-37287380D01*
X99098300Y-37235166D01*
X98361700Y-37235166D01*
X98120824Y-37280490D01*
X98097769Y-37295325D01*
X98086141Y-37287380D01*
X97828300Y-37235166D01*
X97091700Y-37235166D01*
X96850824Y-37280490D01*
X96827769Y-37295325D01*
X96816141Y-37287380D01*
X96558300Y-37235166D01*
X95821700Y-37235166D01*
X95580824Y-37280490D01*
X95557769Y-37295325D01*
X95546141Y-37287380D01*
X95288300Y-37235166D01*
X94551700Y-37235166D01*
X94310824Y-37280490D01*
X94287769Y-37295325D01*
X94276141Y-37287380D01*
X94018300Y-37235166D01*
X93281700Y-37235166D01*
X93040824Y-37280490D01*
X93017769Y-37295325D01*
X93006141Y-37287380D01*
X92748300Y-37235166D01*
X92011700Y-37235166D01*
X91770824Y-37280490D01*
X91747769Y-37295325D01*
X91736141Y-37287380D01*
X91478300Y-37235166D01*
X90741700Y-37235166D01*
X90500824Y-37280490D01*
X90477769Y-37295325D01*
X90466141Y-37287380D01*
X90208300Y-37235166D01*
X89471700Y-37235166D01*
X89230824Y-37280490D01*
X89207769Y-37295325D01*
X89196141Y-37287380D01*
X88938300Y-37235166D01*
X88201700Y-37235166D01*
X87960824Y-37280490D01*
X87937769Y-37295325D01*
X87926141Y-37287380D01*
X87668300Y-37235166D01*
X86931700Y-37235166D01*
X86690824Y-37280490D01*
X86667769Y-37295325D01*
X86656141Y-37287380D01*
X86398300Y-37235166D01*
X85661700Y-37235166D01*
X85420824Y-37280490D01*
X85397769Y-37295325D01*
X85386141Y-37287380D01*
X85128300Y-37235166D01*
X84391700Y-37235166D01*
X84150824Y-37280490D01*
X83929595Y-37422847D01*
X83781180Y-37640059D01*
X83728966Y-37897900D01*
X83728966Y-39040900D01*
X83766127Y-39238393D01*
X83728966Y-39421900D01*
X83728966Y-40564900D01*
X83774290Y-40805776D01*
X83916647Y-41027005D01*
X84133859Y-41175420D01*
X84391700Y-41227634D01*
X85128300Y-41227634D01*
X85369176Y-41182310D01*
X85392231Y-41167475D01*
X85403859Y-41175420D01*
X85661700Y-41227634D01*
X86398300Y-41227634D01*
X86639176Y-41182310D01*
X86662231Y-41167475D01*
X86673859Y-41175420D01*
X86931700Y-41227634D01*
X87668300Y-41227634D01*
X87909176Y-41182310D01*
X87932231Y-41167475D01*
X87943859Y-41175420D01*
X88201700Y-41227634D01*
X88938300Y-41227634D01*
X89179176Y-41182310D01*
X89202231Y-41167475D01*
X89213859Y-41175420D01*
X89471700Y-41227634D01*
X90208300Y-41227634D01*
X90449176Y-41182310D01*
X90472231Y-41167475D01*
X90483859Y-41175420D01*
X90741700Y-41227634D01*
X91478300Y-41227634D01*
X91719176Y-41182310D01*
X91742231Y-41167475D01*
X91753859Y-41175420D01*
X92011700Y-41227634D01*
X92748300Y-41227634D01*
X92989176Y-41182310D01*
X93012231Y-41167475D01*
X93023859Y-41175420D01*
X93281700Y-41227634D01*
X94018300Y-41227634D01*
X94259176Y-41182310D01*
X94282231Y-41167475D01*
X94293859Y-41175420D01*
X94551700Y-41227634D01*
X95288300Y-41227634D01*
X95529176Y-41182310D01*
X95552231Y-41167475D01*
X95563859Y-41175420D01*
X95821700Y-41227634D01*
X96558300Y-41227634D01*
X96799176Y-41182310D01*
X96822231Y-41167475D01*
X96833859Y-41175420D01*
X97091700Y-41227634D01*
X97828300Y-41227634D01*
X98069176Y-41182310D01*
X98092231Y-41167475D01*
X98103859Y-41175420D01*
X98361700Y-41227634D01*
X99098300Y-41227634D01*
X99339176Y-41182310D01*
X99362231Y-41167475D01*
X99373859Y-41175420D01*
X99631700Y-41227634D01*
X100368300Y-41227634D01*
X100609176Y-41182310D01*
X100632231Y-41167475D01*
X100643859Y-41175420D01*
X100901700Y-41227634D01*
X101638300Y-41227634D01*
X101879176Y-41182310D01*
X101902231Y-41167475D01*
X101913859Y-41175420D01*
X102171700Y-41227634D01*
X102908300Y-41227634D01*
X103149176Y-41182310D01*
X103172231Y-41167475D01*
X103183859Y-41175420D01*
X103441700Y-41227634D01*
X104178300Y-41227634D01*
X104419176Y-41182310D01*
X104442231Y-41167475D01*
X104453859Y-41175420D01*
X104711700Y-41227634D01*
X105448300Y-41227634D01*
X105689176Y-41182310D01*
X105712231Y-41167475D01*
X105723859Y-41175420D01*
X105981700Y-41227634D01*
X106718300Y-41227634D01*
X106959176Y-41182310D01*
X106982231Y-41167475D01*
X106993859Y-41175420D01*
X107251700Y-41227634D01*
X107988300Y-41227634D01*
X108229176Y-41182310D01*
X108252231Y-41167475D01*
X108263859Y-41175420D01*
X108521700Y-41227634D01*
X109258300Y-41227634D01*
X109499176Y-41182310D01*
X109522231Y-41167475D01*
X109533859Y-41175420D01*
X109791700Y-41227634D01*
X110528300Y-41227634D01*
X110769176Y-41182310D01*
X110792231Y-41167475D01*
X110803859Y-41175420D01*
X111061700Y-41227634D01*
X111798300Y-41227634D01*
X112039176Y-41182310D01*
X112062231Y-41167475D01*
X112073859Y-41175420D01*
X112331700Y-41227634D01*
X112631618Y-41227634D01*
X114475193Y-43071209D01*
X114395098Y-43151165D01*
X114250165Y-43500204D01*
X114249835Y-43878138D01*
X114394159Y-44227429D01*
X114661165Y-44494902D01*
X115010204Y-44639835D01*
X115053857Y-44639873D01*
X115185191Y-44771207D01*
X115436619Y-44939206D01*
X115607101Y-44973117D01*
X129741992Y-59108008D01*
X129993420Y-59276007D01*
X130175909Y-59312306D01*
X129990100Y-59312306D01*
X129749224Y-59357630D01*
X129726169Y-59372465D01*
X129714541Y-59364520D01*
X129456700Y-59312306D01*
X128720100Y-59312306D01*
X128479224Y-59357630D01*
X128456169Y-59372465D01*
X128444541Y-59364520D01*
X128186700Y-59312306D01*
X127450100Y-59312306D01*
X127209224Y-59357630D01*
X127186169Y-59372465D01*
X127174541Y-59364520D01*
X126916700Y-59312306D01*
X126180100Y-59312306D01*
X125939224Y-59357630D01*
X125916169Y-59372465D01*
X125904541Y-59364520D01*
X125646700Y-59312306D01*
X124910100Y-59312306D01*
X124669224Y-59357630D01*
X124646169Y-59372465D01*
X124634541Y-59364520D01*
X124376700Y-59312306D01*
X123640100Y-59312306D01*
X123399224Y-59357630D01*
X123376169Y-59372465D01*
X123364541Y-59364520D01*
X123106700Y-59312306D01*
X122370100Y-59312306D01*
X122129224Y-59357630D01*
X122106169Y-59372465D01*
X122094541Y-59364520D01*
X121836700Y-59312306D01*
X121100100Y-59312306D01*
X120859224Y-59357630D01*
X120836169Y-59372465D01*
X120824541Y-59364520D01*
X120566700Y-59312306D01*
X119830100Y-59312306D01*
X119589224Y-59357630D01*
X119566169Y-59372465D01*
X119554541Y-59364520D01*
X119296700Y-59312306D01*
X118560100Y-59312306D01*
X118319224Y-59357630D01*
X118296169Y-59372465D01*
X118284541Y-59364520D01*
X118026700Y-59312306D01*
X117290100Y-59312306D01*
X117049224Y-59357630D01*
X117026169Y-59372465D01*
X117014541Y-59364520D01*
X116756700Y-59312306D01*
X116020100Y-59312306D01*
X115779224Y-59357630D01*
X115756169Y-59372465D01*
X115744541Y-59364520D01*
X115486700Y-59312306D01*
X114750100Y-59312306D01*
X114509224Y-59357630D01*
X114486169Y-59372465D01*
X114474541Y-59364520D01*
X114216700Y-59312306D01*
X113480100Y-59312306D01*
X113239224Y-59357630D01*
X113216169Y-59372465D01*
X113204541Y-59364520D01*
X112946700Y-59312306D01*
X112210100Y-59312306D01*
X111969224Y-59357630D01*
X111946169Y-59372465D01*
X111934541Y-59364520D01*
X111676700Y-59312306D01*
X110940100Y-59312306D01*
X110699224Y-59357630D01*
X110676169Y-59372465D01*
X110664541Y-59364520D01*
X110406700Y-59312306D01*
X109670100Y-59312306D01*
X109429224Y-59357630D01*
X109406169Y-59372465D01*
X109394541Y-59364520D01*
X109136700Y-59312306D01*
X108400100Y-59312306D01*
X108159224Y-59357630D01*
X108136169Y-59372465D01*
X108124541Y-59364520D01*
X107866700Y-59312306D01*
X107130100Y-59312306D01*
X106889224Y-59357630D01*
X106667995Y-59499987D01*
X106519580Y-59717199D01*
X106467366Y-59975040D01*
X106467366Y-62195000D01*
X106512690Y-62435876D01*
X106519361Y-62446242D01*
X106467366Y-62703000D01*
X106467366Y-64922960D01*
X106512690Y-65163836D01*
X106655047Y-65385065D01*
X106872259Y-65533480D01*
X107130100Y-65585694D01*
X107866700Y-65585694D01*
X108107576Y-65540370D01*
X108130631Y-65525535D01*
X108142259Y-65533480D01*
X108400100Y-65585694D01*
X109136700Y-65585694D01*
X109377576Y-65540370D01*
X109400631Y-65525535D01*
X109412259Y-65533480D01*
X109670100Y-65585694D01*
X110406700Y-65585694D01*
X110647576Y-65540370D01*
X110670631Y-65525535D01*
X110682259Y-65533480D01*
X110940100Y-65585694D01*
X111676700Y-65585694D01*
X111917576Y-65540370D01*
X111940631Y-65525535D01*
X111952259Y-65533480D01*
X112210100Y-65585694D01*
X112946700Y-65585694D01*
X113187576Y-65540370D01*
X113210631Y-65525535D01*
X113222259Y-65533480D01*
X113480100Y-65585694D01*
X114216700Y-65585694D01*
X114457576Y-65540370D01*
X114480631Y-65525535D01*
X114492259Y-65533480D01*
X114750100Y-65585694D01*
X115486700Y-65585694D01*
X115727576Y-65540370D01*
X115750631Y-65525535D01*
X115762259Y-65533480D01*
X116020100Y-65585694D01*
X116756700Y-65585694D01*
X116997576Y-65540370D01*
X117020631Y-65525535D01*
X117032259Y-65533480D01*
X117290100Y-65585694D01*
X118026700Y-65585694D01*
X118267576Y-65540370D01*
X118290631Y-65525535D01*
X118302259Y-65533480D01*
X118560100Y-65585694D01*
X119296700Y-65585694D01*
X119537576Y-65540370D01*
X119560631Y-65525535D01*
X119572259Y-65533480D01*
X119830100Y-65585694D01*
X120566700Y-65585694D01*
X120807576Y-65540370D01*
X120830631Y-65525535D01*
X120842259Y-65533480D01*
X121100100Y-65585694D01*
X121836700Y-65585694D01*
X122077576Y-65540370D01*
X122100631Y-65525535D01*
X122112259Y-65533480D01*
X122370100Y-65585694D01*
X123106700Y-65585694D01*
X123347576Y-65540370D01*
X123370631Y-65525535D01*
X123382259Y-65533480D01*
X123640100Y-65585694D01*
X124376700Y-65585694D01*
X124617576Y-65540370D01*
X124640631Y-65525535D01*
X124652259Y-65533480D01*
X124910100Y-65585694D01*
X125646700Y-65585694D01*
X125887576Y-65540370D01*
X125910631Y-65525535D01*
X125922259Y-65533480D01*
X126180100Y-65585694D01*
X126916700Y-65585694D01*
X127157576Y-65540370D01*
X127180631Y-65525535D01*
X127192259Y-65533480D01*
X127450100Y-65585694D01*
X128186700Y-65585694D01*
X128427576Y-65540370D01*
X128450631Y-65525535D01*
X128462259Y-65533480D01*
X128720100Y-65585694D01*
X129456700Y-65585694D01*
X129697576Y-65540370D01*
X129720631Y-65525535D01*
X129732259Y-65533480D01*
X129990100Y-65585694D01*
X130726700Y-65585694D01*
X130967576Y-65540370D01*
X130990631Y-65525535D01*
X131002259Y-65533480D01*
X131260100Y-65585694D01*
X131996700Y-65585694D01*
X132237576Y-65540370D01*
X132257264Y-65527701D01*
X132262004Y-65534796D01*
X133763604Y-67036396D01*
X134055584Y-67231492D01*
X134400000Y-67300000D01*
X145500000Y-67300000D01*
X145844415Y-67231492D01*
X146092508Y-67065721D01*
X146237429Y-67005841D01*
X146450000Y-66793641D01*
X146450000Y-70649956D01*
X146311862Y-70649835D01*
X146190453Y-70700000D01*
X134500000Y-70700000D01*
X134155584Y-70768508D01*
X133863604Y-70963604D01*
X132262004Y-72565204D01*
X132066908Y-72857185D01*
X132053650Y-72923839D01*
X131996700Y-72912306D01*
X131260100Y-72912306D01*
X131019224Y-72957630D01*
X130996169Y-72972465D01*
X130984541Y-72964520D01*
X130726700Y-72912306D01*
X129990100Y-72912306D01*
X129749224Y-72957630D01*
X129726169Y-72972465D01*
X129714541Y-72964520D01*
X129456700Y-72912306D01*
X128720100Y-72912306D01*
X128479224Y-72957630D01*
X128456169Y-72972465D01*
X128444541Y-72964520D01*
X128186700Y-72912306D01*
X127450100Y-72912306D01*
X127209224Y-72957630D01*
X127186169Y-72972465D01*
X127174541Y-72964520D01*
X126916700Y-72912306D01*
X126180100Y-72912306D01*
X125939224Y-72957630D01*
X125916169Y-72972465D01*
X125904541Y-72964520D01*
X125646700Y-72912306D01*
X124910100Y-72912306D01*
X124669224Y-72957630D01*
X124646169Y-72972465D01*
X124634541Y-72964520D01*
X124376700Y-72912306D01*
X123640100Y-72912306D01*
X123399224Y-72957630D01*
X123376169Y-72972465D01*
X123364541Y-72964520D01*
X123106700Y-72912306D01*
X122370100Y-72912306D01*
X122129224Y-72957630D01*
X122106169Y-72972465D01*
X122094541Y-72964520D01*
X121836700Y-72912306D01*
X121100100Y-72912306D01*
X120859224Y-72957630D01*
X120836169Y-72972465D01*
X120824541Y-72964520D01*
X120566700Y-72912306D01*
X119830100Y-72912306D01*
X119589224Y-72957630D01*
X119566169Y-72972465D01*
X119554541Y-72964520D01*
X119296700Y-72912306D01*
X118560100Y-72912306D01*
X118319224Y-72957630D01*
X118296169Y-72972465D01*
X118284541Y-72964520D01*
X118026700Y-72912306D01*
X117290100Y-72912306D01*
X117049224Y-72957630D01*
X117026169Y-72972465D01*
X117014541Y-72964520D01*
X116756700Y-72912306D01*
X116020100Y-72912306D01*
X115779224Y-72957630D01*
X115756169Y-72972465D01*
X115744541Y-72964520D01*
X115486700Y-72912306D01*
X114750100Y-72912306D01*
X114509224Y-72957630D01*
X114486169Y-72972465D01*
X114474541Y-72964520D01*
X114216700Y-72912306D01*
X113480100Y-72912306D01*
X113239224Y-72957630D01*
X113216169Y-72972465D01*
X113204541Y-72964520D01*
X112946700Y-72912306D01*
X112210100Y-72912306D01*
X111969224Y-72957630D01*
X111946169Y-72972465D01*
X111934541Y-72964520D01*
X111676700Y-72912306D01*
X110940100Y-72912306D01*
X110699224Y-72957630D01*
X110676169Y-72972465D01*
X110664541Y-72964520D01*
X110406700Y-72912306D01*
X109670100Y-72912306D01*
X109429224Y-72957630D01*
X109406169Y-72972465D01*
X109394541Y-72964520D01*
X109136700Y-72912306D01*
X108400100Y-72912306D01*
X108159224Y-72957630D01*
X108136169Y-72972465D01*
X108124541Y-72964520D01*
X107866700Y-72912306D01*
X107130100Y-72912306D01*
X106889224Y-72957630D01*
X106667995Y-73099987D01*
X106519580Y-73317199D01*
X106467366Y-73575040D01*
X106467366Y-75795000D01*
X106512690Y-76035876D01*
X106519361Y-76046242D01*
X106467366Y-76303000D01*
X106467366Y-78522960D01*
X106512690Y-78763836D01*
X106655047Y-78985065D01*
X106872259Y-79133480D01*
X107130100Y-79185694D01*
X107866700Y-79185694D01*
X108107576Y-79140370D01*
X108130631Y-79125535D01*
X108142259Y-79133480D01*
X108400100Y-79185694D01*
X109136700Y-79185694D01*
X109377576Y-79140370D01*
X109400631Y-79125535D01*
X109412259Y-79133480D01*
X109670100Y-79185694D01*
X110406700Y-79185694D01*
X110647576Y-79140370D01*
X110670631Y-79125535D01*
X110682259Y-79133480D01*
X110940100Y-79185694D01*
X111676700Y-79185694D01*
X111917576Y-79140370D01*
X111940631Y-79125535D01*
X111952259Y-79133480D01*
X112210100Y-79185694D01*
X112946700Y-79185694D01*
X113187576Y-79140370D01*
X113210631Y-79125535D01*
X113222259Y-79133480D01*
X113480100Y-79185694D01*
X114216700Y-79185694D01*
X114457576Y-79140370D01*
X114480631Y-79125535D01*
X114492259Y-79133480D01*
X114750100Y-79185694D01*
X115486700Y-79185694D01*
X115727576Y-79140370D01*
X115750631Y-79125535D01*
X115762259Y-79133480D01*
X116020100Y-79185694D01*
X116756700Y-79185694D01*
X116997576Y-79140370D01*
X117020631Y-79125535D01*
X117032259Y-79133480D01*
X117290100Y-79185694D01*
X118026700Y-79185694D01*
X118267576Y-79140370D01*
X118290631Y-79125535D01*
X118302259Y-79133480D01*
X118560100Y-79185694D01*
X119296700Y-79185694D01*
X119537576Y-79140370D01*
X119560631Y-79125535D01*
X119572259Y-79133480D01*
X119830100Y-79185694D01*
X120566700Y-79185694D01*
X120807576Y-79140370D01*
X120830631Y-79125535D01*
X120842259Y-79133480D01*
X121100100Y-79185694D01*
X121836700Y-79185694D01*
X122077576Y-79140370D01*
X122100631Y-79125535D01*
X122112259Y-79133480D01*
X122370100Y-79185694D01*
X123106700Y-79185694D01*
X123347576Y-79140370D01*
X123370631Y-79125535D01*
X123382259Y-79133480D01*
X123640100Y-79185694D01*
X124376700Y-79185694D01*
X124617576Y-79140370D01*
X124640631Y-79125535D01*
X124652259Y-79133480D01*
X124910100Y-79185694D01*
X125646700Y-79185694D01*
X125887576Y-79140370D01*
X125910631Y-79125535D01*
X125922259Y-79133480D01*
X126180100Y-79185694D01*
X126916700Y-79185694D01*
X127157576Y-79140370D01*
X127180631Y-79125535D01*
X127192259Y-79133480D01*
X127450100Y-79185694D01*
X128186700Y-79185694D01*
X128427576Y-79140370D01*
X128450631Y-79125535D01*
X128462259Y-79133480D01*
X128720100Y-79185694D01*
X129456700Y-79185694D01*
X129697576Y-79140370D01*
X129720631Y-79125535D01*
X129732259Y-79133480D01*
X129990100Y-79185694D01*
X130726700Y-79185694D01*
X130967576Y-79140370D01*
X130990631Y-79125535D01*
X131002259Y-79133480D01*
X131260100Y-79185694D01*
X131996700Y-79185694D01*
X132084518Y-79169170D01*
X132262004Y-79434796D01*
X133163604Y-80336396D01*
X133455585Y-80531492D01*
X133800000Y-80600000D01*
X145390187Y-80600000D01*
X145510204Y-80649835D01*
X145888138Y-80650165D01*
X146237429Y-80505841D01*
X146450000Y-80293641D01*
X146450000Y-84449956D01*
X146311862Y-84449835D01*
X146190453Y-84500000D01*
X134400000Y-84500000D01*
X134055584Y-84568508D01*
X133763604Y-84763604D01*
X132262004Y-86265204D01*
X132084954Y-86530178D01*
X131996700Y-86512306D01*
X131260100Y-86512306D01*
X131019224Y-86557630D01*
X130996169Y-86572465D01*
X130984541Y-86564520D01*
X130726700Y-86512306D01*
X129990100Y-86512306D01*
X129749224Y-86557630D01*
X129726169Y-86572465D01*
X129714541Y-86564520D01*
X129456700Y-86512306D01*
X128720100Y-86512306D01*
X128479224Y-86557630D01*
X128456169Y-86572465D01*
X128444541Y-86564520D01*
X128186700Y-86512306D01*
X127450100Y-86512306D01*
X127209224Y-86557630D01*
X127186169Y-86572465D01*
X127174541Y-86564520D01*
X126916700Y-86512306D01*
X126180100Y-86512306D01*
X125939224Y-86557630D01*
X125916169Y-86572465D01*
X125904541Y-86564520D01*
X125646700Y-86512306D01*
X124910100Y-86512306D01*
X124669224Y-86557630D01*
X124646169Y-86572465D01*
X124634541Y-86564520D01*
X124376700Y-86512306D01*
X123640100Y-86512306D01*
X123399224Y-86557630D01*
X123376169Y-86572465D01*
X123364541Y-86564520D01*
X123106700Y-86512306D01*
X122370100Y-86512306D01*
X122129224Y-86557630D01*
X122106169Y-86572465D01*
X122094541Y-86564520D01*
X121836700Y-86512306D01*
X121100100Y-86512306D01*
X120859224Y-86557630D01*
X120836169Y-86572465D01*
X120824541Y-86564520D01*
X120566700Y-86512306D01*
X119830100Y-86512306D01*
X119589224Y-86557630D01*
X119566169Y-86572465D01*
X119554541Y-86564520D01*
X119296700Y-86512306D01*
X118560100Y-86512306D01*
X118319224Y-86557630D01*
X118296169Y-86572465D01*
X118284541Y-86564520D01*
X118026700Y-86512306D01*
X117290100Y-86512306D01*
X117049224Y-86557630D01*
X117026169Y-86572465D01*
X117014541Y-86564520D01*
X116756700Y-86512306D01*
X116020100Y-86512306D01*
X115779224Y-86557630D01*
X115756169Y-86572465D01*
X115744541Y-86564520D01*
X115486700Y-86512306D01*
X114750100Y-86512306D01*
X114509224Y-86557630D01*
X114486169Y-86572465D01*
X114474541Y-86564520D01*
X114216700Y-86512306D01*
X113480100Y-86512306D01*
X113239224Y-86557630D01*
X113216169Y-86572465D01*
X113204541Y-86564520D01*
X112946700Y-86512306D01*
X112210100Y-86512306D01*
X111969224Y-86557630D01*
X111946169Y-86572465D01*
X111934541Y-86564520D01*
X111676700Y-86512306D01*
X110940100Y-86512306D01*
X110699224Y-86557630D01*
X110676169Y-86572465D01*
X110664541Y-86564520D01*
X110406700Y-86512306D01*
X109670100Y-86512306D01*
X109429224Y-86557630D01*
X109406169Y-86572465D01*
X109394541Y-86564520D01*
X109136700Y-86512306D01*
X108400100Y-86512306D01*
X108159224Y-86557630D01*
X108136169Y-86572465D01*
X108124541Y-86564520D01*
X107866700Y-86512306D01*
X107130100Y-86512306D01*
X106889224Y-86557630D01*
X106667995Y-86699987D01*
X106519580Y-86917199D01*
X106467366Y-87175040D01*
X106467366Y-89395000D01*
X106512690Y-89635876D01*
X106519361Y-89646242D01*
X106467366Y-89903000D01*
X106467366Y-92122960D01*
X106512690Y-92363836D01*
X106655047Y-92585065D01*
X106872259Y-92733480D01*
X107130100Y-92785694D01*
X107866700Y-92785694D01*
X108107576Y-92740370D01*
X108130631Y-92725535D01*
X108142259Y-92733480D01*
X108400100Y-92785694D01*
X109136700Y-92785694D01*
X109377576Y-92740370D01*
X109400631Y-92725535D01*
X109412259Y-92733480D01*
X109670100Y-92785694D01*
X110406700Y-92785694D01*
X110647576Y-92740370D01*
X110670631Y-92725535D01*
X110682259Y-92733480D01*
X110940100Y-92785694D01*
X111676700Y-92785694D01*
X111917576Y-92740370D01*
X111940631Y-92725535D01*
X111952259Y-92733480D01*
X112210100Y-92785694D01*
X112946700Y-92785694D01*
X113187576Y-92740370D01*
X113210631Y-92725535D01*
X113222259Y-92733480D01*
X113480100Y-92785694D01*
X114216700Y-92785694D01*
X114457576Y-92740370D01*
X114480631Y-92725535D01*
X114492259Y-92733480D01*
X114750100Y-92785694D01*
X115486700Y-92785694D01*
X115727576Y-92740370D01*
X115750631Y-92725535D01*
X115762259Y-92733480D01*
X116020100Y-92785694D01*
X116756700Y-92785694D01*
X116997576Y-92740370D01*
X117020631Y-92725535D01*
X117032259Y-92733480D01*
X117290100Y-92785694D01*
X118026700Y-92785694D01*
X118267576Y-92740370D01*
X118290631Y-92725535D01*
X118302259Y-92733480D01*
X118560100Y-92785694D01*
X119296700Y-92785694D01*
X119537576Y-92740370D01*
X119560631Y-92725535D01*
X119572259Y-92733480D01*
X119830100Y-92785694D01*
X120566700Y-92785694D01*
X120807576Y-92740370D01*
X120830631Y-92725535D01*
X120842259Y-92733480D01*
X121100100Y-92785694D01*
X121836700Y-92785694D01*
X122077576Y-92740370D01*
X122100631Y-92725535D01*
X122112259Y-92733480D01*
X122370100Y-92785694D01*
X123106700Y-92785694D01*
X123347576Y-92740370D01*
X123370631Y-92725535D01*
X123382259Y-92733480D01*
X123640100Y-92785694D01*
X124376700Y-92785694D01*
X124617576Y-92740370D01*
X124640631Y-92725535D01*
X124652259Y-92733480D01*
X124910100Y-92785694D01*
X125646700Y-92785694D01*
X125887576Y-92740370D01*
X125910631Y-92725535D01*
X125922259Y-92733480D01*
X126180100Y-92785694D01*
X126916700Y-92785694D01*
X127157576Y-92740370D01*
X127180631Y-92725535D01*
X127192259Y-92733480D01*
X127450100Y-92785694D01*
X128186700Y-92785694D01*
X128427576Y-92740370D01*
X128450631Y-92725535D01*
X128462259Y-92733480D01*
X128720100Y-92785694D01*
X129456700Y-92785694D01*
X129697576Y-92740370D01*
X129720631Y-92725535D01*
X129732259Y-92733480D01*
X129990100Y-92785694D01*
X130726700Y-92785694D01*
X130967576Y-92740370D01*
X130990631Y-92725535D01*
X131002259Y-92733480D01*
X131260100Y-92785694D01*
X131996700Y-92785694D01*
X132203229Y-92746833D01*
X132262004Y-92834796D01*
X133863604Y-94436396D01*
X134155584Y-94631492D01*
X134500000Y-94700000D01*
X145400000Y-94700000D01*
X145744415Y-94631492D01*
X145992508Y-94465721D01*
X146137429Y-94405841D01*
X146404902Y-94138835D01*
X146450000Y-94030226D01*
X146450000Y-96450330D01*
X71050000Y-96949668D01*
X71050000Y-91200000D01*
X82625000Y-91200000D01*
X82683993Y-91496580D01*
X82851992Y-91748008D01*
X82951992Y-91848008D01*
X83203420Y-92016007D01*
X83500000Y-92075000D01*
X83796579Y-92016007D01*
X84048008Y-91848008D01*
X84216007Y-91596579D01*
X84275000Y-91300000D01*
X84216007Y-91003420D01*
X84048008Y-90751992D01*
X83948008Y-90651992D01*
X83696580Y-90483993D01*
X83400000Y-90425000D01*
X83103420Y-90483993D01*
X82851992Y-90651992D01*
X82683993Y-90903420D01*
X82625000Y-91200000D01*
X71050000Y-91200000D01*
X71050000Y-64050000D01*
X77000000Y-64050000D01*
X77019453Y-64046061D01*
X77035840Y-64034864D01*
X77046581Y-64018173D01*
X77050000Y-64000000D01*
X77050000Y-61068138D01*
X84949835Y-61068138D01*
X85094159Y-61417429D01*
X85361165Y-61684902D01*
X85710204Y-61829835D01*
X86088138Y-61830165D01*
X86437429Y-61685841D01*
X86704902Y-61418835D01*
X86744534Y-61323390D01*
X87077429Y-61185841D01*
X87344902Y-60918835D01*
X87401642Y-60782190D01*
X87707429Y-60655841D01*
X87974902Y-60388835D01*
X88014534Y-60293390D01*
X88347429Y-60155841D01*
X88614902Y-59888835D01*
X88664559Y-59769248D01*
X88987429Y-59635841D01*
X89254902Y-59368835D01*
X89309571Y-59237177D01*
X89627429Y-59105841D01*
X89894902Y-58838835D01*
X90039835Y-58489796D01*
X90040165Y-58111862D01*
X89895841Y-57762571D01*
X89628835Y-57495098D01*
X89279796Y-57350165D01*
X88901862Y-57349835D01*
X88552571Y-57494159D01*
X88285098Y-57761165D01*
X88230429Y-57892823D01*
X87912571Y-58024159D01*
X87645098Y-58291165D01*
X87595441Y-58410752D01*
X87272571Y-58544159D01*
X87005098Y-58811165D01*
X86965466Y-58906610D01*
X86632571Y-59044159D01*
X86365098Y-59311165D01*
X86308358Y-59447810D01*
X86002571Y-59574159D01*
X85735098Y-59841165D01*
X85695466Y-59936610D01*
X85362571Y-60074159D01*
X85095098Y-60341165D01*
X84950165Y-60690204D01*
X84949835Y-61068138D01*
X77050000Y-61068138D01*
X77050000Y-50000000D01*
X77046061Y-49980547D01*
X77034864Y-49964160D01*
X77018173Y-49953419D01*
X77000000Y-49950000D01*
X76539844Y-49950000D01*
X76540165Y-49581862D01*
X76395841Y-49232571D01*
X76359066Y-49195731D01*
X76369835Y-49169796D01*
X76370054Y-48918138D01*
X93189835Y-48918138D01*
X93298122Y-49180213D01*
X93190165Y-49440204D01*
X93189835Y-49818138D01*
X93298122Y-50080213D01*
X93190165Y-50340204D01*
X93189835Y-50718138D01*
X93296051Y-50975201D01*
X93190165Y-51230204D01*
X93189835Y-51608138D01*
X93298122Y-51870213D01*
X93190165Y-52130204D01*
X93189835Y-52508138D01*
X93298122Y-52770213D01*
X93190165Y-53030204D01*
X93189835Y-53408138D01*
X93334159Y-53757429D01*
X93601165Y-54024902D01*
X93950204Y-54169835D01*
X94328138Y-54170165D01*
X94677429Y-54025841D01*
X94944902Y-53758835D01*
X95089835Y-53409796D01*
X95090165Y-53031862D01*
X94981878Y-52769787D01*
X95089835Y-52509796D01*
X95090165Y-52131862D01*
X94981878Y-51869787D01*
X95089835Y-51609796D01*
X95090165Y-51231862D01*
X94983949Y-50974799D01*
X95089835Y-50719796D01*
X95090165Y-50341862D01*
X94981878Y-50079787D01*
X95089835Y-49819796D01*
X95090165Y-49441862D01*
X94981878Y-49179787D01*
X95089835Y-48919796D01*
X95090165Y-48541862D01*
X94945841Y-48192571D01*
X94678835Y-47925098D01*
X94329796Y-47780165D01*
X93951862Y-47779835D01*
X93602571Y-47924159D01*
X93335098Y-48191165D01*
X93190165Y-48540204D01*
X93189835Y-48918138D01*
X76370054Y-48918138D01*
X76370165Y-48791862D01*
X76225841Y-48442571D01*
X76200258Y-48416943D01*
X76219835Y-48369796D01*
X76220165Y-47991862D01*
X76075841Y-47642571D01*
X76053190Y-47619881D01*
X76069835Y-47579796D01*
X76070165Y-47201862D01*
X75925841Y-46852571D01*
X75903190Y-46829881D01*
X75919835Y-46789796D01*
X75920165Y-46411862D01*
X75775841Y-46062571D01*
X75508835Y-45795098D01*
X75159796Y-45650165D01*
X75106134Y-45650118D01*
X70556650Y-41100634D01*
X70624900Y-41100634D01*
X70865776Y-41055310D01*
X70888831Y-41040475D01*
X70900459Y-41048420D01*
X71158300Y-41100634D01*
X71894900Y-41100634D01*
X72135776Y-41055310D01*
X72158831Y-41040475D01*
X72170459Y-41048420D01*
X72428300Y-41100634D01*
X73164900Y-41100634D01*
X73405776Y-41055310D01*
X73428831Y-41040475D01*
X73440459Y-41048420D01*
X73698300Y-41100634D01*
X74434900Y-41100634D01*
X74675776Y-41055310D01*
X74698831Y-41040475D01*
X74710459Y-41048420D01*
X74968300Y-41100634D01*
X75704900Y-41100634D01*
X75945776Y-41055310D01*
X76167005Y-40912953D01*
X76315420Y-40695741D01*
X76367634Y-40437900D01*
X76367634Y-39294900D01*
X76330473Y-39097407D01*
X76367634Y-38913900D01*
X76367634Y-38623650D01*
X83081992Y-45338008D01*
X83333420Y-45506007D01*
X83630000Y-45565000D01*
X87011315Y-45565000D01*
X87041165Y-45594902D01*
X87390204Y-45739835D01*
X87768138Y-45740165D01*
X88117429Y-45595841D01*
X88384902Y-45328835D01*
X88529835Y-44979796D01*
X88530165Y-44601862D01*
X88385841Y-44252571D01*
X88118835Y-43985098D01*
X87933905Y-43908309D01*
X87815841Y-43622571D01*
X87548835Y-43355098D01*
X87206982Y-43213149D01*
X87115841Y-42992571D01*
X86848835Y-42725098D01*
X86499796Y-42580165D01*
X86121862Y-42579835D01*
X85772571Y-42724159D01*
X85741676Y-42755000D01*
X83977414Y-42755000D01*
X77930564Y-36708150D01*
X77962014Y-36713480D01*
X78360717Y-36634173D01*
X78430509Y-36449721D01*
X81666091Y-36449721D01*
X81735883Y-36634173D01*
X82203814Y-36713480D01*
X82602517Y-36634173D01*
X82672309Y-36449721D01*
X82169200Y-35946613D01*
X81666091Y-36449721D01*
X78430509Y-36449721D01*
X77927400Y-35946613D01*
X77819566Y-36054447D01*
X77370553Y-35605434D01*
X77478387Y-35497600D01*
X78376413Y-35497600D01*
X78879521Y-36000709D01*
X79063973Y-35930917D01*
X79131546Y-35532214D01*
X80953320Y-35532214D01*
X81032627Y-35930917D01*
X81217079Y-36000709D01*
X81720187Y-35497600D01*
X82618213Y-35497600D01*
X83121321Y-36000709D01*
X83305773Y-35930917D01*
X83385080Y-35462986D01*
X83305773Y-35064283D01*
X83121321Y-34994491D01*
X82618213Y-35497600D01*
X81720187Y-35497600D01*
X81217079Y-34994491D01*
X81032627Y-35064283D01*
X80953320Y-35532214D01*
X79131546Y-35532214D01*
X79143280Y-35462986D01*
X79063973Y-35064283D01*
X78879521Y-34994491D01*
X78376413Y-35497600D01*
X77478387Y-35497600D01*
X76975279Y-34994491D01*
X76790827Y-35064283D01*
X76711520Y-35532214D01*
X76741680Y-35683841D01*
X76546394Y-35644996D01*
X56007412Y-35644996D01*
X55734406Y-35371990D01*
X55482978Y-35203991D01*
X55186398Y-35144998D01*
X53220002Y-35144998D01*
X52923422Y-35203991D01*
X52671994Y-35371990D01*
X52671992Y-35371993D01*
X51704112Y-36339872D01*
X51661862Y-36339835D01*
X51312571Y-36484159D01*
X51045098Y-36751165D01*
X50900165Y-37100204D01*
X50900158Y-37108166D01*
X50838300Y-37108166D01*
X50597424Y-37153490D01*
X50376195Y-37295847D01*
X50227780Y-37513059D01*
X50175566Y-37770900D01*
X50175566Y-38913900D01*
X50212727Y-39111393D01*
X50175566Y-39294900D01*
X50175566Y-40437900D01*
X50220890Y-40678776D01*
X50363247Y-40900005D01*
X50580459Y-41048420D01*
X50838300Y-41100634D01*
X51219911Y-41100634D01*
X51219835Y-41188138D01*
X51364159Y-41537429D01*
X51631165Y-41804902D01*
X51980204Y-41949835D01*
X52023857Y-41949873D01*
X53741998Y-43668014D01*
X53993426Y-43836013D01*
X54290006Y-43895006D01*
X68613398Y-43895006D01*
X69668392Y-44950000D01*
X53450044Y-44950000D01*
X53450165Y-44811862D01*
X53305841Y-44462571D01*
X53038835Y-44195098D01*
X52689796Y-44050165D01*
X52681957Y-44050158D01*
X52682464Y-43468858D01*
X52275014Y-42482754D01*
X51521214Y-41727637D01*
X50535823Y-41318467D01*
X49468858Y-41317536D01*
X48482754Y-41724986D01*
X47727637Y-42478786D01*
X47318467Y-43464177D01*
X47318207Y-43761962D01*
X47289796Y-43750165D01*
X46911862Y-43749835D01*
X46584900Y-43884933D01*
X46584900Y-36449721D01*
X48112691Y-36449721D01*
X48182483Y-36634173D01*
X48650414Y-36713480D01*
X49049117Y-36634173D01*
X49118909Y-36449721D01*
X48615800Y-35946613D01*
X48112691Y-36449721D01*
X46584900Y-36449721D01*
X46584900Y-35532214D01*
X47399920Y-35532214D01*
X47479227Y-35930917D01*
X47663679Y-36000709D01*
X48166787Y-35497600D01*
X49064813Y-35497600D01*
X49567921Y-36000709D01*
X49752373Y-35930917D01*
X49831680Y-35462986D01*
X49752373Y-35064283D01*
X49567921Y-34994491D01*
X49064813Y-35497600D01*
X48166787Y-35497600D01*
X47663679Y-34994491D01*
X47479227Y-35064283D01*
X47399920Y-35532214D01*
X46584900Y-35532214D01*
X46584900Y-34189121D01*
X48112691Y-34189121D01*
X48180109Y-34367300D01*
X48112691Y-34545479D01*
X48615800Y-35048587D01*
X49118909Y-34545479D01*
X49051491Y-34367300D01*
X49118909Y-34189121D01*
X77424291Y-34189121D01*
X77491709Y-34367300D01*
X77424291Y-34545479D01*
X77927400Y-35048587D01*
X78430509Y-34545479D01*
X78363091Y-34367300D01*
X78430509Y-34189121D01*
X81666091Y-34189121D01*
X81733509Y-34367300D01*
X81666091Y-34545479D01*
X82169200Y-35048587D01*
X82672309Y-34545479D01*
X82604891Y-34367300D01*
X82672309Y-34189121D01*
X117327691Y-34189121D01*
X117395109Y-34367300D01*
X117327691Y-34545479D01*
X117830800Y-35048587D01*
X118333909Y-34545479D01*
X118266491Y-34367300D01*
X118333909Y-34189121D01*
X121569491Y-34189121D01*
X121636909Y-34367300D01*
X121569491Y-34545479D01*
X122072600Y-35048587D01*
X122575709Y-34545479D01*
X122508291Y-34367300D01*
X122575709Y-34189121D01*
X150881091Y-34189121D01*
X150948509Y-34367300D01*
X150881091Y-34545479D01*
X151384200Y-35048587D01*
X151887309Y-34545479D01*
X151819891Y-34367300D01*
X151887309Y-34189121D01*
X151384200Y-33686013D01*
X150881091Y-34189121D01*
X122575709Y-34189121D01*
X122072600Y-33686013D01*
X121569491Y-34189121D01*
X118333909Y-34189121D01*
X117830800Y-33686013D01*
X117327691Y-34189121D01*
X82672309Y-34189121D01*
X82169200Y-33686013D01*
X81666091Y-34189121D01*
X78430509Y-34189121D01*
X77927400Y-33686013D01*
X77424291Y-34189121D01*
X49118909Y-34189121D01*
X48615800Y-33686013D01*
X48112691Y-34189121D01*
X46584900Y-34189121D01*
X46584900Y-33271614D01*
X47399920Y-33271614D01*
X47479227Y-33670317D01*
X47663679Y-33740109D01*
X48166787Y-33237000D01*
X49064813Y-33237000D01*
X49567921Y-33740109D01*
X49752373Y-33670317D01*
X49819946Y-33271614D01*
X76711520Y-33271614D01*
X76790827Y-33670317D01*
X76975279Y-33740109D01*
X77478387Y-33237000D01*
X78376413Y-33237000D01*
X78879521Y-33740109D01*
X79063973Y-33670317D01*
X79131546Y-33271614D01*
X80953320Y-33271614D01*
X81032627Y-33670317D01*
X81217079Y-33740109D01*
X81720187Y-33237000D01*
X82618213Y-33237000D01*
X83121321Y-33740109D01*
X83305773Y-33670317D01*
X83373346Y-33271614D01*
X116614920Y-33271614D01*
X116694227Y-33670317D01*
X116878679Y-33740109D01*
X117381787Y-33237000D01*
X118279813Y-33237000D01*
X118782921Y-33740109D01*
X118967373Y-33670317D01*
X119034946Y-33271614D01*
X120856720Y-33271614D01*
X120936027Y-33670317D01*
X121120479Y-33740109D01*
X121623587Y-33237000D01*
X122521613Y-33237000D01*
X123024721Y-33740109D01*
X123209173Y-33670317D01*
X123276746Y-33271614D01*
X150168320Y-33271614D01*
X150247627Y-33670317D01*
X150432079Y-33740109D01*
X150935187Y-33237000D01*
X151833213Y-33237000D01*
X152336321Y-33740109D01*
X152520773Y-33670317D01*
X152600080Y-33202386D01*
X152520773Y-32803683D01*
X152336321Y-32733891D01*
X151833213Y-33237000D01*
X150935187Y-33237000D01*
X150432079Y-32733891D01*
X150247627Y-32803683D01*
X150168320Y-33271614D01*
X123276746Y-33271614D01*
X123288480Y-33202386D01*
X123209173Y-32803683D01*
X123024721Y-32733891D01*
X122521613Y-33237000D01*
X121623587Y-33237000D01*
X121120479Y-32733891D01*
X120936027Y-32803683D01*
X120856720Y-33271614D01*
X119034946Y-33271614D01*
X119046680Y-33202386D01*
X118967373Y-32803683D01*
X118782921Y-32733891D01*
X118279813Y-33237000D01*
X117381787Y-33237000D01*
X116878679Y-32733891D01*
X116694227Y-32803683D01*
X116614920Y-33271614D01*
X83373346Y-33271614D01*
X83385080Y-33202386D01*
X83305773Y-32803683D01*
X83121321Y-32733891D01*
X82618213Y-33237000D01*
X81720187Y-33237000D01*
X81217079Y-32733891D01*
X81032627Y-32803683D01*
X80953320Y-33271614D01*
X79131546Y-33271614D01*
X79143280Y-33202386D01*
X79063973Y-32803683D01*
X78879521Y-32733891D01*
X78376413Y-33237000D01*
X77478387Y-33237000D01*
X76975279Y-32733891D01*
X76790827Y-32803683D01*
X76711520Y-33271614D01*
X49819946Y-33271614D01*
X49831680Y-33202386D01*
X49752373Y-32803683D01*
X49567921Y-32733891D01*
X49064813Y-33237000D01*
X48166787Y-33237000D01*
X47663679Y-32733891D01*
X47479227Y-32803683D01*
X47399920Y-33271614D01*
X46584900Y-33271614D01*
X46584900Y-32284879D01*
X48112691Y-32284879D01*
X48615800Y-32787987D01*
X49118909Y-32284879D01*
X77424291Y-32284879D01*
X77927400Y-32787987D01*
X78430509Y-32284879D01*
X81666091Y-32284879D01*
X82169200Y-32787987D01*
X82672309Y-32284879D01*
X117327691Y-32284879D01*
X117830800Y-32787987D01*
X118333909Y-32284879D01*
X121569491Y-32284879D01*
X122072600Y-32787987D01*
X122575709Y-32284879D01*
X150881091Y-32284879D01*
X151384200Y-32787987D01*
X151887309Y-32284879D01*
X151817517Y-32100427D01*
X151349586Y-32021120D01*
X150950883Y-32100427D01*
X150881091Y-32284879D01*
X122575709Y-32284879D01*
X122505917Y-32100427D01*
X122037986Y-32021120D01*
X121639283Y-32100427D01*
X121569491Y-32284879D01*
X118333909Y-32284879D01*
X118264117Y-32100427D01*
X117796186Y-32021120D01*
X117397483Y-32100427D01*
X117327691Y-32284879D01*
X82672309Y-32284879D01*
X82602517Y-32100427D01*
X82134586Y-32021120D01*
X81735883Y-32100427D01*
X81666091Y-32284879D01*
X78430509Y-32284879D01*
X78360717Y-32100427D01*
X77892786Y-32021120D01*
X77494083Y-32100427D01*
X77424291Y-32284879D01*
X49118909Y-32284879D01*
X49049117Y-32100427D01*
X48581186Y-32021120D01*
X48182483Y-32100427D01*
X48112691Y-32284879D01*
X46584900Y-32284879D01*
X46584900Y-31975000D01*
X153415100Y-31975000D01*
X153415100Y-41950000D01*
X153415100Y-41950000D01*
G37*
X153415100Y-41950000D02*
X151743189Y-41950000D01*
X151521214Y-41727637D01*
X150535823Y-41318467D01*
X149468858Y-41317536D01*
X148482754Y-41724986D01*
X148257347Y-41950000D01*
X146500000Y-41950000D01*
X146480547Y-41953939D01*
X146464160Y-41965136D01*
X146453419Y-41981827D01*
X146450000Y-42000000D01*
X146450000Y-44158211D01*
X146417513Y-44144721D01*
X143736396Y-41463604D01*
X143444415Y-41268508D01*
X143100000Y-41200000D01*
X135950088Y-41200000D01*
X135950165Y-41111862D01*
X135945526Y-41100634D01*
X136461700Y-41100634D01*
X136702576Y-41055310D01*
X136725631Y-41040475D01*
X136737259Y-41048420D01*
X136995100Y-41100634D01*
X137731700Y-41100634D01*
X137972576Y-41055310D01*
X137995631Y-41040475D01*
X138007259Y-41048420D01*
X138265100Y-41100634D01*
X139001700Y-41100634D01*
X139242576Y-41055310D01*
X139265631Y-41040475D01*
X139277259Y-41048420D01*
X139535100Y-41100634D01*
X140271700Y-41100634D01*
X140512576Y-41055310D01*
X140535631Y-41040475D01*
X140547259Y-41048420D01*
X140805100Y-41100634D01*
X141541700Y-41100634D01*
X141782576Y-41055310D01*
X141805631Y-41040475D01*
X141817259Y-41048420D01*
X142075100Y-41100634D01*
X142811700Y-41100634D01*
X143052576Y-41055310D01*
X143075631Y-41040475D01*
X143087259Y-41048420D01*
X143345100Y-41100634D01*
X144081700Y-41100634D01*
X144322576Y-41055310D01*
X144345631Y-41040475D01*
X144357259Y-41048420D01*
X144615100Y-41100634D01*
X145351700Y-41100634D01*
X145592576Y-41055310D01*
X145615631Y-41040475D01*
X145627259Y-41048420D01*
X145885100Y-41100634D01*
X146621700Y-41100634D01*
X146862576Y-41055310D01*
X146885631Y-41040475D01*
X146897259Y-41048420D01*
X147155100Y-41100634D01*
X147891700Y-41100634D01*
X148132576Y-41055310D01*
X148155631Y-41040475D01*
X148167259Y-41048420D01*
X148425100Y-41100634D01*
X149161700Y-41100634D01*
X149402576Y-41055310D01*
X149623805Y-40912953D01*
X149772220Y-40695741D01*
X149824434Y-40437900D01*
X149824434Y-39493849D01*
X150037429Y-39405841D01*
X150304902Y-39138835D01*
X150449835Y-38789796D01*
X150450165Y-38411862D01*
X150305841Y-38062571D01*
X150038835Y-37795098D01*
X149811202Y-37700577D01*
X149779110Y-37530024D01*
X149636753Y-37308795D01*
X149419541Y-37160380D01*
X149161700Y-37108166D01*
X148425100Y-37108166D01*
X148184224Y-37153490D01*
X148161169Y-37168325D01*
X148149541Y-37160380D01*
X147891700Y-37108166D01*
X147155100Y-37108166D01*
X146914224Y-37153490D01*
X146891169Y-37168325D01*
X146879541Y-37160380D01*
X146621700Y-37108166D01*
X145885100Y-37108166D01*
X145644224Y-37153490D01*
X145621169Y-37168325D01*
X145609541Y-37160380D01*
X145351700Y-37108166D01*
X144615100Y-37108166D01*
X144374224Y-37153490D01*
X144351169Y-37168325D01*
X144339541Y-37160380D01*
X144081700Y-37108166D01*
X143345100Y-37108166D01*
X143104224Y-37153490D01*
X143081169Y-37168325D01*
X143069541Y-37160380D01*
X142811700Y-37108166D01*
X142075100Y-37108166D01*
X141834224Y-37153490D01*
X141811169Y-37168325D01*
X141799541Y-37160380D01*
X141541700Y-37108166D01*
X140805100Y-37108166D01*
X140564224Y-37153490D01*
X140541169Y-37168325D01*
X140529541Y-37160380D01*
X140271700Y-37108166D01*
X139535100Y-37108166D01*
X139294224Y-37153490D01*
X139271169Y-37168325D01*
X139259541Y-37160380D01*
X139001700Y-37108166D01*
X138265100Y-37108166D01*
X138024224Y-37153490D01*
X138001169Y-37168325D01*
X137989541Y-37160380D01*
X137731700Y-37108166D01*
X136995100Y-37108166D01*
X136754224Y-37153490D01*
X136731169Y-37168325D01*
X136719541Y-37160380D01*
X136461700Y-37108166D01*
X135725100Y-37108166D01*
X135484224Y-37153490D01*
X135461169Y-37168325D01*
X135449541Y-37160380D01*
X135191700Y-37108166D01*
X134455100Y-37108166D01*
X134214224Y-37153490D01*
X134191169Y-37168325D01*
X134179541Y-37160380D01*
X133921700Y-37108166D01*
X133185100Y-37108166D01*
X132944224Y-37153490D01*
X132921169Y-37168325D01*
X132909541Y-37160380D01*
X132651700Y-37108166D01*
X131915100Y-37108166D01*
X131674224Y-37153490D01*
X131651169Y-37168325D01*
X131639541Y-37160380D01*
X131381700Y-37108166D01*
X130645100Y-37108166D01*
X130404224Y-37153490D01*
X130381169Y-37168325D01*
X130369541Y-37160380D01*
X130111700Y-37108166D01*
X129375100Y-37108166D01*
X129134224Y-37153490D01*
X129111169Y-37168325D01*
X129099541Y-37160380D01*
X128841700Y-37108166D01*
X128105100Y-37108166D01*
X127864224Y-37153490D01*
X127841169Y-37168325D01*
X127829541Y-37160380D01*
X127571700Y-37108166D01*
X126835100Y-37108166D01*
X126594224Y-37153490D01*
X126571169Y-37168325D01*
X126559541Y-37160380D01*
X126301700Y-37108166D01*
X125565100Y-37108166D01*
X125324224Y-37153490D01*
X125301169Y-37168325D01*
X125289541Y-37160380D01*
X125031700Y-37108166D01*
X124295100Y-37108166D01*
X124054224Y-37153490D01*
X123832995Y-37295847D01*
X123684580Y-37513059D01*
X123632366Y-37770900D01*
X123632366Y-38913900D01*
X123669527Y-39111393D01*
X123632366Y-39294900D01*
X123632366Y-40225000D01*
X119568685Y-40225000D01*
X119538835Y-40195098D01*
X119189796Y-40050165D01*
X118811862Y-40049835D01*
X118462571Y-40194159D01*
X118225002Y-40431313D01*
X118225002Y-37850002D01*
X118166009Y-37553422D01*
X117998010Y-37301994D01*
X117330408Y-36634392D01*
X117379130Y-36585669D01*
X117397483Y-36634173D01*
X117865414Y-36713480D01*
X118264117Y-36634173D01*
X118333909Y-36449721D01*
X121569491Y-36449721D01*
X121639283Y-36634173D01*
X122107214Y-36713480D01*
X122505917Y-36634173D01*
X122575709Y-36449721D01*
X150881091Y-36449721D01*
X150950883Y-36634173D01*
X151418814Y-36713480D01*
X151817517Y-36634173D01*
X151887309Y-36449721D01*
X151384200Y-35946613D01*
X150881091Y-36449721D01*
X122575709Y-36449721D01*
X122072600Y-35946613D01*
X121569491Y-36449721D01*
X118333909Y-36449721D01*
X117830800Y-35946613D01*
X117722966Y-36054447D01*
X117273953Y-35605434D01*
X117381787Y-35497600D01*
X118279813Y-35497600D01*
X118782921Y-36000709D01*
X118967373Y-35930917D01*
X119034946Y-35532214D01*
X120856720Y-35532214D01*
X120936027Y-35930917D01*
X121120479Y-36000709D01*
X121623587Y-35497600D01*
X122521613Y-35497600D01*
X123024721Y-36000709D01*
X123209173Y-35930917D01*
X123276746Y-35532214D01*
X150168320Y-35532214D01*
X150247627Y-35930917D01*
X150432079Y-36000709D01*
X150935187Y-35497600D01*
X151833213Y-35497600D01*
X152336321Y-36000709D01*
X152520773Y-35930917D01*
X152600080Y-35462986D01*
X152520773Y-35064283D01*
X152336321Y-34994491D01*
X151833213Y-35497600D01*
X150935187Y-35497600D01*
X150432079Y-34994491D01*
X150247627Y-35064283D01*
X150168320Y-35532214D01*
X123276746Y-35532214D01*
X123288480Y-35462986D01*
X123209173Y-35064283D01*
X123024721Y-34994491D01*
X122521613Y-35497600D01*
X121623587Y-35497600D01*
X121120479Y-34994491D01*
X120936027Y-35064283D01*
X120856720Y-35532214D01*
X119034946Y-35532214D01*
X119046680Y-35462986D01*
X118967373Y-35064283D01*
X118782921Y-34994491D01*
X118279813Y-35497600D01*
X117381787Y-35497600D01*
X116878679Y-34994491D01*
X116694227Y-35064283D01*
X116614920Y-35532214D01*
X116694227Y-35930917D01*
X116742731Y-35949270D01*
X116653188Y-36038813D01*
X116901968Y-36287593D01*
X116896580Y-36283993D01*
X116600000Y-36225000D01*
X112500005Y-36225000D01*
X112500000Y-36224999D01*
X112252626Y-36274205D01*
X112203420Y-36283993D01*
X111951992Y-36451992D01*
X111951990Y-36451995D01*
X111168818Y-37235166D01*
X111061700Y-37235166D01*
X110820824Y-37280490D01*
X110693564Y-37362380D01*
X110639293Y-37339900D01*
X110483650Y-37339900D01*
X110344150Y-37479400D01*
X110344150Y-38183650D01*
X110398966Y-38183650D01*
X110398966Y-38755150D01*
X110344150Y-38755150D01*
X110344150Y-38759166D01*
X109975850Y-38759166D01*
X109975850Y-38755150D01*
X109921034Y-38755150D01*
X109921034Y-38183650D01*
X109975850Y-38183650D01*
X109975850Y-37479400D01*
X109836350Y-37339900D01*
X109680707Y-37339900D01*
X109626106Y-37362516D01*
X109516141Y-37287380D01*
X109258300Y-37235166D01*
X108521700Y-37235166D01*
X108280824Y-37280490D01*
X108257769Y-37295325D01*
X108246141Y-37287380D01*
X107988300Y-37235166D01*
X107251700Y-37235166D01*
X107010824Y-37280490D01*
X106987769Y-37295325D01*
X106976141Y-37287380D01*
X106718300Y-37235166D01*
X105981700Y-37235166D01*
X105740824Y-37280490D01*
X105717769Y-37295325D01*
X105706141Y-37287380D01*
X105448300Y-37235166D01*
X104711700Y-37235166D01*
X104470824Y-37280490D01*
X104447769Y-37295325D01*
X104436141Y-37287380D01*
X104178300Y-37235166D01*
X103441700Y-37235166D01*
X103200824Y-37280490D01*
X103177769Y-37295325D01*
X103166141Y-37287380D01*
X102908300Y-37235166D01*
X102171700Y-37235166D01*
X101930824Y-37280490D01*
X101907769Y-37295325D01*
X101896141Y-37287380D01*
X101638300Y-37235166D01*
X100901700Y-37235166D01*
X100660824Y-37280490D01*
X100637769Y-37295325D01*
X100626141Y-37287380D01*
X100368300Y-37235166D01*
X99631700Y-37235166D01*
X99390824Y-37280490D01*
X99367769Y-37295325D01*
X99356141Y-37287380D01*
X99098300Y-37235166D01*
X98361700Y-37235166D01*
X98120824Y-37280490D01*
X98097769Y-37295325D01*
X98086141Y-37287380D01*
X97828300Y-37235166D01*
X97091700Y-37235166D01*
X96850824Y-37280490D01*
X96827769Y-37295325D01*
X96816141Y-37287380D01*
X96558300Y-37235166D01*
X95821700Y-37235166D01*
X95580824Y-37280490D01*
X95557769Y-37295325D01*
X95546141Y-37287380D01*
X95288300Y-37235166D01*
X94551700Y-37235166D01*
X94310824Y-37280490D01*
X94287769Y-37295325D01*
X94276141Y-37287380D01*
X94018300Y-37235166D01*
X93281700Y-37235166D01*
X93040824Y-37280490D01*
X93017769Y-37295325D01*
X93006141Y-37287380D01*
X92748300Y-37235166D01*
X92011700Y-37235166D01*
X91770824Y-37280490D01*
X91747769Y-37295325D01*
X91736141Y-37287380D01*
X91478300Y-37235166D01*
X90741700Y-37235166D01*
X90500824Y-37280490D01*
X90477769Y-37295325D01*
X90466141Y-37287380D01*
X90208300Y-37235166D01*
X89471700Y-37235166D01*
X89230824Y-37280490D01*
X89207769Y-37295325D01*
X89196141Y-37287380D01*
X88938300Y-37235166D01*
X88201700Y-37235166D01*
X87960824Y-37280490D01*
X87937769Y-37295325D01*
X87926141Y-37287380D01*
X87668300Y-37235166D01*
X86931700Y-37235166D01*
X86690824Y-37280490D01*
X86667769Y-37295325D01*
X86656141Y-37287380D01*
X86398300Y-37235166D01*
X85661700Y-37235166D01*
X85420824Y-37280490D01*
X85397769Y-37295325D01*
X85386141Y-37287380D01*
X85128300Y-37235166D01*
X84391700Y-37235166D01*
X84150824Y-37280490D01*
X83929595Y-37422847D01*
X83781180Y-37640059D01*
X83728966Y-37897900D01*
X83728966Y-39040900D01*
X83766127Y-39238393D01*
X83728966Y-39421900D01*
X83728966Y-40564900D01*
X83774290Y-40805776D01*
X83916647Y-41027005D01*
X84133859Y-41175420D01*
X84391700Y-41227634D01*
X85128300Y-41227634D01*
X85369176Y-41182310D01*
X85392231Y-41167475D01*
X85403859Y-41175420D01*
X85661700Y-41227634D01*
X86398300Y-41227634D01*
X86639176Y-41182310D01*
X86662231Y-41167475D01*
X86673859Y-41175420D01*
X86931700Y-41227634D01*
X87668300Y-41227634D01*
X87909176Y-41182310D01*
X87932231Y-41167475D01*
X87943859Y-41175420D01*
X88201700Y-41227634D01*
X88938300Y-41227634D01*
X89179176Y-41182310D01*
X89202231Y-41167475D01*
X89213859Y-41175420D01*
X89471700Y-41227634D01*
X90208300Y-41227634D01*
X90449176Y-41182310D01*
X90472231Y-41167475D01*
X90483859Y-41175420D01*
X90741700Y-41227634D01*
X91478300Y-41227634D01*
X91719176Y-41182310D01*
X91742231Y-41167475D01*
X91753859Y-41175420D01*
X92011700Y-41227634D01*
X92748300Y-41227634D01*
X92989176Y-41182310D01*
X93012231Y-41167475D01*
X93023859Y-41175420D01*
X93281700Y-41227634D01*
X94018300Y-41227634D01*
X94259176Y-41182310D01*
X94282231Y-41167475D01*
X94293859Y-41175420D01*
X94551700Y-41227634D01*
X95288300Y-41227634D01*
X95529176Y-41182310D01*
X95552231Y-41167475D01*
X95563859Y-41175420D01*
X95821700Y-41227634D01*
X96558300Y-41227634D01*
X96799176Y-41182310D01*
X96822231Y-41167475D01*
X96833859Y-41175420D01*
X97091700Y-41227634D01*
X97828300Y-41227634D01*
X98069176Y-41182310D01*
X98092231Y-41167475D01*
X98103859Y-41175420D01*
X98361700Y-41227634D01*
X99098300Y-41227634D01*
X99339176Y-41182310D01*
X99362231Y-41167475D01*
X99373859Y-41175420D01*
X99631700Y-41227634D01*
X100368300Y-41227634D01*
X100609176Y-41182310D01*
X100632231Y-41167475D01*
X100643859Y-41175420D01*
X100901700Y-41227634D01*
X101638300Y-41227634D01*
X101879176Y-41182310D01*
X101902231Y-41167475D01*
X101913859Y-41175420D01*
X102171700Y-41227634D01*
X102908300Y-41227634D01*
X103149176Y-41182310D01*
X103172231Y-41167475D01*
X103183859Y-41175420D01*
X103441700Y-41227634D01*
X104178300Y-41227634D01*
X104419176Y-41182310D01*
X104442231Y-41167475D01*
X104453859Y-41175420D01*
X104711700Y-41227634D01*
X105448300Y-41227634D01*
X105689176Y-41182310D01*
X105712231Y-41167475D01*
X105723859Y-41175420D01*
X105981700Y-41227634D01*
X106718300Y-41227634D01*
X106959176Y-41182310D01*
X106982231Y-41167475D01*
X106993859Y-41175420D01*
X107251700Y-41227634D01*
X107988300Y-41227634D01*
X108229176Y-41182310D01*
X108252231Y-41167475D01*
X108263859Y-41175420D01*
X108521700Y-41227634D01*
X109258300Y-41227634D01*
X109499176Y-41182310D01*
X109522231Y-41167475D01*
X109533859Y-41175420D01*
X109791700Y-41227634D01*
X110528300Y-41227634D01*
X110769176Y-41182310D01*
X110792231Y-41167475D01*
X110803859Y-41175420D01*
X111061700Y-41227634D01*
X111798300Y-41227634D01*
X112039176Y-41182310D01*
X112062231Y-41167475D01*
X112073859Y-41175420D01*
X112331700Y-41227634D01*
X112631618Y-41227634D01*
X114475193Y-43071209D01*
X114395098Y-43151165D01*
X114250165Y-43500204D01*
X114249835Y-43878138D01*
X114394159Y-44227429D01*
X114661165Y-44494902D01*
X115010204Y-44639835D01*
X115053857Y-44639873D01*
X115185191Y-44771207D01*
X115436619Y-44939206D01*
X115607101Y-44973117D01*
X129741992Y-59108008D01*
X129993420Y-59276007D01*
X130175909Y-59312306D01*
X129990100Y-59312306D01*
X129749224Y-59357630D01*
X129726169Y-59372465D01*
X129714541Y-59364520D01*
X129456700Y-59312306D01*
X128720100Y-59312306D01*
X128479224Y-59357630D01*
X128456169Y-59372465D01*
X128444541Y-59364520D01*
X128186700Y-59312306D01*
X127450100Y-59312306D01*
X127209224Y-59357630D01*
X127186169Y-59372465D01*
X127174541Y-59364520D01*
X126916700Y-59312306D01*
X126180100Y-59312306D01*
X125939224Y-59357630D01*
X125916169Y-59372465D01*
X125904541Y-59364520D01*
X125646700Y-59312306D01*
X124910100Y-59312306D01*
X124669224Y-59357630D01*
X124646169Y-59372465D01*
X124634541Y-59364520D01*
X124376700Y-59312306D01*
X123640100Y-59312306D01*
X123399224Y-59357630D01*
X123376169Y-59372465D01*
X123364541Y-59364520D01*
X123106700Y-59312306D01*
X122370100Y-59312306D01*
X122129224Y-59357630D01*
X122106169Y-59372465D01*
X122094541Y-59364520D01*
X121836700Y-59312306D01*
X121100100Y-59312306D01*
X120859224Y-59357630D01*
X120836169Y-59372465D01*
X120824541Y-59364520D01*
X120566700Y-59312306D01*
X119830100Y-59312306D01*
X119589224Y-59357630D01*
X119566169Y-59372465D01*
X119554541Y-59364520D01*
X119296700Y-59312306D01*
X118560100Y-59312306D01*
X118319224Y-59357630D01*
X118296169Y-59372465D01*
X118284541Y-59364520D01*
X118026700Y-59312306D01*
X117290100Y-59312306D01*
X117049224Y-59357630D01*
X117026169Y-59372465D01*
X117014541Y-59364520D01*
X116756700Y-59312306D01*
X116020100Y-59312306D01*
X115779224Y-59357630D01*
X115756169Y-59372465D01*
X115744541Y-59364520D01*
X115486700Y-59312306D01*
X114750100Y-59312306D01*
X114509224Y-59357630D01*
X114486169Y-59372465D01*
X114474541Y-59364520D01*
X114216700Y-59312306D01*
X113480100Y-59312306D01*
X113239224Y-59357630D01*
X113216169Y-59372465D01*
X113204541Y-59364520D01*
X112946700Y-59312306D01*
X112210100Y-59312306D01*
X111969224Y-59357630D01*
X111946169Y-59372465D01*
X111934541Y-59364520D01*
X111676700Y-59312306D01*
X110940100Y-59312306D01*
X110699224Y-59357630D01*
X110676169Y-59372465D01*
X110664541Y-59364520D01*
X110406700Y-59312306D01*
X109670100Y-59312306D01*
X109429224Y-59357630D01*
X109406169Y-59372465D01*
X109394541Y-59364520D01*
X109136700Y-59312306D01*
X108400100Y-59312306D01*
X108159224Y-59357630D01*
X108136169Y-59372465D01*
X108124541Y-59364520D01*
X107866700Y-59312306D01*
X107130100Y-59312306D01*
X106889224Y-59357630D01*
X106667995Y-59499987D01*
X106519580Y-59717199D01*
X106467366Y-59975040D01*
X106467366Y-62195000D01*
X106512690Y-62435876D01*
X106519361Y-62446242D01*
X106467366Y-62703000D01*
X106467366Y-64922960D01*
X106512690Y-65163836D01*
X106655047Y-65385065D01*
X106872259Y-65533480D01*
X107130100Y-65585694D01*
X107866700Y-65585694D01*
X108107576Y-65540370D01*
X108130631Y-65525535D01*
X108142259Y-65533480D01*
X108400100Y-65585694D01*
X109136700Y-65585694D01*
X109377576Y-65540370D01*
X109400631Y-65525535D01*
X109412259Y-65533480D01*
X109670100Y-65585694D01*
X110406700Y-65585694D01*
X110647576Y-65540370D01*
X110670631Y-65525535D01*
X110682259Y-65533480D01*
X110940100Y-65585694D01*
X111676700Y-65585694D01*
X111917576Y-65540370D01*
X111940631Y-65525535D01*
X111952259Y-65533480D01*
X112210100Y-65585694D01*
X112946700Y-65585694D01*
X113187576Y-65540370D01*
X113210631Y-65525535D01*
X113222259Y-65533480D01*
X113480100Y-65585694D01*
X114216700Y-65585694D01*
X114457576Y-65540370D01*
X114480631Y-65525535D01*
X114492259Y-65533480D01*
X114750100Y-65585694D01*
X115486700Y-65585694D01*
X115727576Y-65540370D01*
X115750631Y-65525535D01*
X115762259Y-65533480D01*
X116020100Y-65585694D01*
X116756700Y-65585694D01*
X116997576Y-65540370D01*
X117020631Y-65525535D01*
X117032259Y-65533480D01*
X117290100Y-65585694D01*
X118026700Y-65585694D01*
X118267576Y-65540370D01*
X118290631Y-65525535D01*
X118302259Y-65533480D01*
X118560100Y-65585694D01*
X119296700Y-65585694D01*
X119537576Y-65540370D01*
X119560631Y-65525535D01*
X119572259Y-65533480D01*
X119830100Y-65585694D01*
X120566700Y-65585694D01*
X120807576Y-65540370D01*
X120830631Y-65525535D01*
X120842259Y-65533480D01*
X121100100Y-65585694D01*
X121836700Y-65585694D01*
X122077576Y-65540370D01*
X122100631Y-65525535D01*
X122112259Y-65533480D01*
X122370100Y-65585694D01*
X123106700Y-65585694D01*
X123347576Y-65540370D01*
X123370631Y-65525535D01*
X123382259Y-65533480D01*
X123640100Y-65585694D01*
X124376700Y-65585694D01*
X124617576Y-65540370D01*
X124640631Y-65525535D01*
X124652259Y-65533480D01*
X124910100Y-65585694D01*
X125646700Y-65585694D01*
X125887576Y-65540370D01*
X125910631Y-65525535D01*
X125922259Y-65533480D01*
X126180100Y-65585694D01*
X126916700Y-65585694D01*
X127157576Y-65540370D01*
X127180631Y-65525535D01*
X127192259Y-65533480D01*
X127450100Y-65585694D01*
X128186700Y-65585694D01*
X128427576Y-65540370D01*
X128450631Y-65525535D01*
X128462259Y-65533480D01*
X128720100Y-65585694D01*
X129456700Y-65585694D01*
X129697576Y-65540370D01*
X129720631Y-65525535D01*
X129732259Y-65533480D01*
X129990100Y-65585694D01*
X130726700Y-65585694D01*
X130967576Y-65540370D01*
X130990631Y-65525535D01*
X131002259Y-65533480D01*
X131260100Y-65585694D01*
X131996700Y-65585694D01*
X132237576Y-65540370D01*
X132257264Y-65527701D01*
X132262004Y-65534796D01*
X133763604Y-67036396D01*
X134055584Y-67231492D01*
X134400000Y-67300000D01*
X145500000Y-67300000D01*
X145844415Y-67231492D01*
X146092508Y-67065721D01*
X146237429Y-67005841D01*
X146450000Y-66793641D01*
X146450000Y-70649956D01*
X146311862Y-70649835D01*
X146190453Y-70700000D01*
X134500000Y-70700000D01*
X134155584Y-70768508D01*
X133863604Y-70963604D01*
X132262004Y-72565204D01*
X132066908Y-72857185D01*
X132053650Y-72923839D01*
X131996700Y-72912306D01*
X131260100Y-72912306D01*
X131019224Y-72957630D01*
X130996169Y-72972465D01*
X130984541Y-72964520D01*
X130726700Y-72912306D01*
X129990100Y-72912306D01*
X129749224Y-72957630D01*
X129726169Y-72972465D01*
X129714541Y-72964520D01*
X129456700Y-72912306D01*
X128720100Y-72912306D01*
X128479224Y-72957630D01*
X128456169Y-72972465D01*
X128444541Y-72964520D01*
X128186700Y-72912306D01*
X127450100Y-72912306D01*
X127209224Y-72957630D01*
X127186169Y-72972465D01*
X127174541Y-72964520D01*
X126916700Y-72912306D01*
X126180100Y-72912306D01*
X125939224Y-72957630D01*
X125916169Y-72972465D01*
X125904541Y-72964520D01*
X125646700Y-72912306D01*
X124910100Y-72912306D01*
X124669224Y-72957630D01*
X124646169Y-72972465D01*
X124634541Y-72964520D01*
X124376700Y-72912306D01*
X123640100Y-72912306D01*
X123399224Y-72957630D01*
X123376169Y-72972465D01*
X123364541Y-72964520D01*
X123106700Y-72912306D01*
X122370100Y-72912306D01*
X122129224Y-72957630D01*
X122106169Y-72972465D01*
X122094541Y-72964520D01*
X121836700Y-72912306D01*
X121100100Y-72912306D01*
X120859224Y-72957630D01*
X120836169Y-72972465D01*
X120824541Y-72964520D01*
X120566700Y-72912306D01*
X119830100Y-72912306D01*
X119589224Y-72957630D01*
X119566169Y-72972465D01*
X119554541Y-72964520D01*
X119296700Y-72912306D01*
X118560100Y-72912306D01*
X118319224Y-72957630D01*
X118296169Y-72972465D01*
X118284541Y-72964520D01*
X118026700Y-72912306D01*
X117290100Y-72912306D01*
X117049224Y-72957630D01*
X117026169Y-72972465D01*
X117014541Y-72964520D01*
X116756700Y-72912306D01*
X116020100Y-72912306D01*
X115779224Y-72957630D01*
X115756169Y-72972465D01*
X115744541Y-72964520D01*
X115486700Y-72912306D01*
X114750100Y-72912306D01*
X114509224Y-72957630D01*
X114486169Y-72972465D01*
X114474541Y-72964520D01*
X114216700Y-72912306D01*
X113480100Y-72912306D01*
X113239224Y-72957630D01*
X113216169Y-72972465D01*
X113204541Y-72964520D01*
X112946700Y-72912306D01*
X112210100Y-72912306D01*
X111969224Y-72957630D01*
X111946169Y-72972465D01*
X111934541Y-72964520D01*
X111676700Y-72912306D01*
X110940100Y-72912306D01*
X110699224Y-72957630D01*
X110676169Y-72972465D01*
X110664541Y-72964520D01*
X110406700Y-72912306D01*
X109670100Y-72912306D01*
X109429224Y-72957630D01*
X109406169Y-72972465D01*
X109394541Y-72964520D01*
X109136700Y-72912306D01*
X108400100Y-72912306D01*
X108159224Y-72957630D01*
X108136169Y-72972465D01*
X108124541Y-72964520D01*
X107866700Y-72912306D01*
X107130100Y-72912306D01*
X106889224Y-72957630D01*
X106667995Y-73099987D01*
X106519580Y-73317199D01*
X106467366Y-73575040D01*
X106467366Y-75795000D01*
X106512690Y-76035876D01*
X106519361Y-76046242D01*
X106467366Y-76303000D01*
X106467366Y-78522960D01*
X106512690Y-78763836D01*
X106655047Y-78985065D01*
X106872259Y-79133480D01*
X107130100Y-79185694D01*
X107866700Y-79185694D01*
X108107576Y-79140370D01*
X108130631Y-79125535D01*
X108142259Y-79133480D01*
X108400100Y-79185694D01*
X109136700Y-79185694D01*
X109377576Y-79140370D01*
X109400631Y-79125535D01*
X109412259Y-79133480D01*
X109670100Y-79185694D01*
X110406700Y-79185694D01*
X110647576Y-79140370D01*
X110670631Y-79125535D01*
X110682259Y-79133480D01*
X110940100Y-79185694D01*
X111676700Y-79185694D01*
X111917576Y-79140370D01*
X111940631Y-79125535D01*
X111952259Y-79133480D01*
X112210100Y-79185694D01*
X112946700Y-79185694D01*
X113187576Y-79140370D01*
X113210631Y-79125535D01*
X113222259Y-79133480D01*
X113480100Y-79185694D01*
X114216700Y-79185694D01*
X114457576Y-79140370D01*
X114480631Y-79125535D01*
X114492259Y-79133480D01*
X114750100Y-79185694D01*
X115486700Y-79185694D01*
X115727576Y-79140370D01*
X115750631Y-79125535D01*
X115762259Y-79133480D01*
X116020100Y-79185694D01*
X116756700Y-79185694D01*
X116997576Y-79140370D01*
X117020631Y-79125535D01*
X117032259Y-79133480D01*
X117290100Y-79185694D01*
X118026700Y-79185694D01*
X118267576Y-79140370D01*
X118290631Y-79125535D01*
X118302259Y-79133480D01*
X118560100Y-79185694D01*
X119296700Y-79185694D01*
X119537576Y-79140370D01*
X119560631Y-79125535D01*
X119572259Y-79133480D01*
X119830100Y-79185694D01*
X120566700Y-79185694D01*
X120807576Y-79140370D01*
X120830631Y-79125535D01*
X120842259Y-79133480D01*
X121100100Y-79185694D01*
X121836700Y-79185694D01*
X122077576Y-79140370D01*
X122100631Y-79125535D01*
X122112259Y-79133480D01*
X122370100Y-79185694D01*
X123106700Y-79185694D01*
X123347576Y-79140370D01*
X123370631Y-79125535D01*
X123382259Y-79133480D01*
X123640100Y-79185694D01*
X124376700Y-79185694D01*
X124617576Y-79140370D01*
X124640631Y-79125535D01*
X124652259Y-79133480D01*
X124910100Y-79185694D01*
X125646700Y-79185694D01*
X125887576Y-79140370D01*
X125910631Y-79125535D01*
X125922259Y-79133480D01*
X126180100Y-79185694D01*
X126916700Y-79185694D01*
X127157576Y-79140370D01*
X127180631Y-79125535D01*
X127192259Y-79133480D01*
X127450100Y-79185694D01*
X128186700Y-79185694D01*
X128427576Y-79140370D01*
X128450631Y-79125535D01*
X128462259Y-79133480D01*
X128720100Y-79185694D01*
X129456700Y-79185694D01*
X129697576Y-79140370D01*
X129720631Y-79125535D01*
X129732259Y-79133480D01*
X129990100Y-79185694D01*
X130726700Y-79185694D01*
X130967576Y-79140370D01*
X130990631Y-79125535D01*
X131002259Y-79133480D01*
X131260100Y-79185694D01*
X131996700Y-79185694D01*
X132084518Y-79169170D01*
X132262004Y-79434796D01*
X133163604Y-80336396D01*
X133455585Y-80531492D01*
X133800000Y-80600000D01*
X145390187Y-80600000D01*
X145510204Y-80649835D01*
X145888138Y-80650165D01*
X146237429Y-80505841D01*
X146450000Y-80293641D01*
X146450000Y-84449956D01*
X146311862Y-84449835D01*
X146190453Y-84500000D01*
X134400000Y-84500000D01*
X134055584Y-84568508D01*
X133763604Y-84763604D01*
X132262004Y-86265204D01*
X132084954Y-86530178D01*
X131996700Y-86512306D01*
X131260100Y-86512306D01*
X131019224Y-86557630D01*
X130996169Y-86572465D01*
X130984541Y-86564520D01*
X130726700Y-86512306D01*
X129990100Y-86512306D01*
X129749224Y-86557630D01*
X129726169Y-86572465D01*
X129714541Y-86564520D01*
X129456700Y-86512306D01*
X128720100Y-86512306D01*
X128479224Y-86557630D01*
X128456169Y-86572465D01*
X128444541Y-86564520D01*
X128186700Y-86512306D01*
X127450100Y-86512306D01*
X127209224Y-86557630D01*
X127186169Y-86572465D01*
X127174541Y-86564520D01*
X126916700Y-86512306D01*
X126180100Y-86512306D01*
X125939224Y-86557630D01*
X125916169Y-86572465D01*
X125904541Y-86564520D01*
X125646700Y-86512306D01*
X124910100Y-86512306D01*
X124669224Y-86557630D01*
X124646169Y-86572465D01*
X124634541Y-86564520D01*
X124376700Y-86512306D01*
X123640100Y-86512306D01*
X123399224Y-86557630D01*
X123376169Y-86572465D01*
X123364541Y-86564520D01*
X123106700Y-86512306D01*
X122370100Y-86512306D01*
X122129224Y-86557630D01*
X122106169Y-86572465D01*
X122094541Y-86564520D01*
X121836700Y-86512306D01*
X121100100Y-86512306D01*
X120859224Y-86557630D01*
X120836169Y-86572465D01*
X120824541Y-86564520D01*
X120566700Y-86512306D01*
X119830100Y-86512306D01*
X119589224Y-86557630D01*
X119566169Y-86572465D01*
X119554541Y-86564520D01*
X119296700Y-86512306D01*
X118560100Y-86512306D01*
X118319224Y-86557630D01*
X118296169Y-86572465D01*
X118284541Y-86564520D01*
X118026700Y-86512306D01*
X117290100Y-86512306D01*
X117049224Y-86557630D01*
X117026169Y-86572465D01*
X117014541Y-86564520D01*
X116756700Y-86512306D01*
X116020100Y-86512306D01*
X115779224Y-86557630D01*
X115756169Y-86572465D01*
X115744541Y-86564520D01*
X115486700Y-86512306D01*
X114750100Y-86512306D01*
X114509224Y-86557630D01*
X114486169Y-86572465D01*
X114474541Y-86564520D01*
X114216700Y-86512306D01*
X113480100Y-86512306D01*
X113239224Y-86557630D01*
X113216169Y-86572465D01*
X113204541Y-86564520D01*
X112946700Y-86512306D01*
X112210100Y-86512306D01*
X111969224Y-86557630D01*
X111946169Y-86572465D01*
X111934541Y-86564520D01*
X111676700Y-86512306D01*
X110940100Y-86512306D01*
X110699224Y-86557630D01*
X110676169Y-86572465D01*
X110664541Y-86564520D01*
X110406700Y-86512306D01*
X109670100Y-86512306D01*
X109429224Y-86557630D01*
X109406169Y-86572465D01*
X109394541Y-86564520D01*
X109136700Y-86512306D01*
X108400100Y-86512306D01*
X108159224Y-86557630D01*
X108136169Y-86572465D01*
X108124541Y-86564520D01*
X107866700Y-86512306D01*
X107130100Y-86512306D01*
X106889224Y-86557630D01*
X106667995Y-86699987D01*
X106519580Y-86917199D01*
X106467366Y-87175040D01*
X106467366Y-89395000D01*
X106512690Y-89635876D01*
X106519361Y-89646242D01*
X106467366Y-89903000D01*
X106467366Y-92122960D01*
X106512690Y-92363836D01*
X106655047Y-92585065D01*
X106872259Y-92733480D01*
X107130100Y-92785694D01*
X107866700Y-92785694D01*
X108107576Y-92740370D01*
X108130631Y-92725535D01*
X108142259Y-92733480D01*
X108400100Y-92785694D01*
X109136700Y-92785694D01*
X109377576Y-92740370D01*
X109400631Y-92725535D01*
X109412259Y-92733480D01*
X109670100Y-92785694D01*
X110406700Y-92785694D01*
X110647576Y-92740370D01*
X110670631Y-92725535D01*
X110682259Y-92733480D01*
X110940100Y-92785694D01*
X111676700Y-92785694D01*
X111917576Y-92740370D01*
X111940631Y-92725535D01*
X111952259Y-92733480D01*
X112210100Y-92785694D01*
X112946700Y-92785694D01*
X113187576Y-92740370D01*
X113210631Y-92725535D01*
X113222259Y-92733480D01*
X113480100Y-92785694D01*
X114216700Y-92785694D01*
X114457576Y-92740370D01*
X114480631Y-92725535D01*
X114492259Y-92733480D01*
X114750100Y-92785694D01*
X115486700Y-92785694D01*
X115727576Y-92740370D01*
X115750631Y-92725535D01*
X115762259Y-92733480D01*
X116020100Y-92785694D01*
X116756700Y-92785694D01*
X116997576Y-92740370D01*
X117020631Y-92725535D01*
X117032259Y-92733480D01*
X117290100Y-92785694D01*
X118026700Y-92785694D01*
X118267576Y-92740370D01*
X118290631Y-92725535D01*
X118302259Y-92733480D01*
X118560100Y-92785694D01*
X119296700Y-92785694D01*
X119537576Y-92740370D01*
X119560631Y-92725535D01*
X119572259Y-92733480D01*
X119830100Y-92785694D01*
X120566700Y-92785694D01*
X120807576Y-92740370D01*
X120830631Y-92725535D01*
X120842259Y-92733480D01*
X121100100Y-92785694D01*
X121836700Y-92785694D01*
X122077576Y-92740370D01*
X122100631Y-92725535D01*
X122112259Y-92733480D01*
X122370100Y-92785694D01*
X123106700Y-92785694D01*
X123347576Y-92740370D01*
X123370631Y-92725535D01*
X123382259Y-92733480D01*
X123640100Y-92785694D01*
X124376700Y-92785694D01*
X124617576Y-92740370D01*
X124640631Y-92725535D01*
X124652259Y-92733480D01*
X124910100Y-92785694D01*
X125646700Y-92785694D01*
X125887576Y-92740370D01*
X125910631Y-92725535D01*
X125922259Y-92733480D01*
X126180100Y-92785694D01*
X126916700Y-92785694D01*
X127157576Y-92740370D01*
X127180631Y-92725535D01*
X127192259Y-92733480D01*
X127450100Y-92785694D01*
X128186700Y-92785694D01*
X128427576Y-92740370D01*
X128450631Y-92725535D01*
X128462259Y-92733480D01*
X128720100Y-92785694D01*
X129456700Y-92785694D01*
X129697576Y-92740370D01*
X129720631Y-92725535D01*
X129732259Y-92733480D01*
X129990100Y-92785694D01*
X130726700Y-92785694D01*
X130967576Y-92740370D01*
X130990631Y-92725535D01*
X131002259Y-92733480D01*
X131260100Y-92785694D01*
X131996700Y-92785694D01*
X132203229Y-92746833D01*
X132262004Y-92834796D01*
X133863604Y-94436396D01*
X134155584Y-94631492D01*
X134500000Y-94700000D01*
X145400000Y-94700000D01*
X145744415Y-94631492D01*
X145992508Y-94465721D01*
X146137429Y-94405841D01*
X146404902Y-94138835D01*
X146450000Y-94030226D01*
X146450000Y-96450330D01*
X71050000Y-96949668D01*
X71050000Y-91200000D01*
X82625000Y-91200000D01*
X82683993Y-91496580D01*
X82851992Y-91748008D01*
X82951992Y-91848008D01*
X83203420Y-92016007D01*
X83500000Y-92075000D01*
X83796579Y-92016007D01*
X84048008Y-91848008D01*
X84216007Y-91596579D01*
X84275000Y-91300000D01*
X84216007Y-91003420D01*
X84048008Y-90751992D01*
X83948008Y-90651992D01*
X83696580Y-90483993D01*
X83400000Y-90425000D01*
X83103420Y-90483993D01*
X82851992Y-90651992D01*
X82683993Y-90903420D01*
X82625000Y-91200000D01*
X71050000Y-91200000D01*
X71050000Y-64050000D01*
X77000000Y-64050000D01*
X77019453Y-64046061D01*
X77035840Y-64034864D01*
X77046581Y-64018173D01*
X77050000Y-64000000D01*
X77050000Y-61068138D01*
X84949835Y-61068138D01*
X85094159Y-61417429D01*
X85361165Y-61684902D01*
X85710204Y-61829835D01*
X86088138Y-61830165D01*
X86437429Y-61685841D01*
X86704902Y-61418835D01*
X86744534Y-61323390D01*
X87077429Y-61185841D01*
X87344902Y-60918835D01*
X87401642Y-60782190D01*
X87707429Y-60655841D01*
X87974902Y-60388835D01*
X88014534Y-60293390D01*
X88347429Y-60155841D01*
X88614902Y-59888835D01*
X88664559Y-59769248D01*
X88987429Y-59635841D01*
X89254902Y-59368835D01*
X89309571Y-59237177D01*
X89627429Y-59105841D01*
X89894902Y-58838835D01*
X90039835Y-58489796D01*
X90040165Y-58111862D01*
X89895841Y-57762571D01*
X89628835Y-57495098D01*
X89279796Y-57350165D01*
X88901862Y-57349835D01*
X88552571Y-57494159D01*
X88285098Y-57761165D01*
X88230429Y-57892823D01*
X87912571Y-58024159D01*
X87645098Y-58291165D01*
X87595441Y-58410752D01*
X87272571Y-58544159D01*
X87005098Y-58811165D01*
X86965466Y-58906610D01*
X86632571Y-59044159D01*
X86365098Y-59311165D01*
X86308358Y-59447810D01*
X86002571Y-59574159D01*
X85735098Y-59841165D01*
X85695466Y-59936610D01*
X85362571Y-60074159D01*
X85095098Y-60341165D01*
X84950165Y-60690204D01*
X84949835Y-61068138D01*
X77050000Y-61068138D01*
X77050000Y-50000000D01*
X77046061Y-49980547D01*
X77034864Y-49964160D01*
X77018173Y-49953419D01*
X77000000Y-49950000D01*
X76539844Y-49950000D01*
X76540165Y-49581862D01*
X76395841Y-49232571D01*
X76359066Y-49195731D01*
X76369835Y-49169796D01*
X76370054Y-48918138D01*
X93189835Y-48918138D01*
X93298122Y-49180213D01*
X93190165Y-49440204D01*
X93189835Y-49818138D01*
X93298122Y-50080213D01*
X93190165Y-50340204D01*
X93189835Y-50718138D01*
X93296051Y-50975201D01*
X93190165Y-51230204D01*
X93189835Y-51608138D01*
X93298122Y-51870213D01*
X93190165Y-52130204D01*
X93189835Y-52508138D01*
X93298122Y-52770213D01*
X93190165Y-53030204D01*
X93189835Y-53408138D01*
X93334159Y-53757429D01*
X93601165Y-54024902D01*
X93950204Y-54169835D01*
X94328138Y-54170165D01*
X94677429Y-54025841D01*
X94944902Y-53758835D01*
X95089835Y-53409796D01*
X95090165Y-53031862D01*
X94981878Y-52769787D01*
X95089835Y-52509796D01*
X95090165Y-52131862D01*
X94981878Y-51869787D01*
X95089835Y-51609796D01*
X95090165Y-51231862D01*
X94983949Y-50974799D01*
X95089835Y-50719796D01*
X95090165Y-50341862D01*
X94981878Y-50079787D01*
X95089835Y-49819796D01*
X95090165Y-49441862D01*
X94981878Y-49179787D01*
X95089835Y-48919796D01*
X95090165Y-48541862D01*
X94945841Y-48192571D01*
X94678835Y-47925098D01*
X94329796Y-47780165D01*
X93951862Y-47779835D01*
X93602571Y-47924159D01*
X93335098Y-48191165D01*
X93190165Y-48540204D01*
X93189835Y-48918138D01*
X76370054Y-48918138D01*
X76370165Y-48791862D01*
X76225841Y-48442571D01*
X76200258Y-48416943D01*
X76219835Y-48369796D01*
X76220165Y-47991862D01*
X76075841Y-47642571D01*
X76053190Y-47619881D01*
X76069835Y-47579796D01*
X76070165Y-47201862D01*
X75925841Y-46852571D01*
X75903190Y-46829881D01*
X75919835Y-46789796D01*
X75920165Y-46411862D01*
X75775841Y-46062571D01*
X75508835Y-45795098D01*
X75159796Y-45650165D01*
X75106134Y-45650118D01*
X70556650Y-41100634D01*
X70624900Y-41100634D01*
X70865776Y-41055310D01*
X70888831Y-41040475D01*
X70900459Y-41048420D01*
X71158300Y-41100634D01*
X71894900Y-41100634D01*
X72135776Y-41055310D01*
X72158831Y-41040475D01*
X72170459Y-41048420D01*
X72428300Y-41100634D01*
X73164900Y-41100634D01*
X73405776Y-41055310D01*
X73428831Y-41040475D01*
X73440459Y-41048420D01*
X73698300Y-41100634D01*
X74434900Y-41100634D01*
X74675776Y-41055310D01*
X74698831Y-41040475D01*
X74710459Y-41048420D01*
X74968300Y-41100634D01*
X75704900Y-41100634D01*
X75945776Y-41055310D01*
X76167005Y-40912953D01*
X76315420Y-40695741D01*
X76367634Y-40437900D01*
X76367634Y-39294900D01*
X76330473Y-39097407D01*
X76367634Y-38913900D01*
X76367634Y-38623650D01*
X83081992Y-45338008D01*
X83333420Y-45506007D01*
X83630000Y-45565000D01*
X87011315Y-45565000D01*
X87041165Y-45594902D01*
X87390204Y-45739835D01*
X87768138Y-45740165D01*
X88117429Y-45595841D01*
X88384902Y-45328835D01*
X88529835Y-44979796D01*
X88530165Y-44601862D01*
X88385841Y-44252571D01*
X88118835Y-43985098D01*
X87933905Y-43908309D01*
X87815841Y-43622571D01*
X87548835Y-43355098D01*
X87206982Y-43213149D01*
X87115841Y-42992571D01*
X86848835Y-42725098D01*
X86499796Y-42580165D01*
X86121862Y-42579835D01*
X85772571Y-42724159D01*
X85741676Y-42755000D01*
X83977414Y-42755000D01*
X77930564Y-36708150D01*
X77962014Y-36713480D01*
X78360717Y-36634173D01*
X78430509Y-36449721D01*
X81666091Y-36449721D01*
X81735883Y-36634173D01*
X82203814Y-36713480D01*
X82602517Y-36634173D01*
X82672309Y-36449721D01*
X82169200Y-35946613D01*
X81666091Y-36449721D01*
X78430509Y-36449721D01*
X77927400Y-35946613D01*
X77819566Y-36054447D01*
X77370553Y-35605434D01*
X77478387Y-35497600D01*
X78376413Y-35497600D01*
X78879521Y-36000709D01*
X79063973Y-35930917D01*
X79131546Y-35532214D01*
X80953320Y-35532214D01*
X81032627Y-35930917D01*
X81217079Y-36000709D01*
X81720187Y-35497600D01*
X82618213Y-35497600D01*
X83121321Y-36000709D01*
X83305773Y-35930917D01*
X83385080Y-35462986D01*
X83305773Y-35064283D01*
X83121321Y-34994491D01*
X82618213Y-35497600D01*
X81720187Y-35497600D01*
X81217079Y-34994491D01*
X81032627Y-35064283D01*
X80953320Y-35532214D01*
X79131546Y-35532214D01*
X79143280Y-35462986D01*
X79063973Y-35064283D01*
X78879521Y-34994491D01*
X78376413Y-35497600D01*
X77478387Y-35497600D01*
X76975279Y-34994491D01*
X76790827Y-35064283D01*
X76711520Y-35532214D01*
X76741680Y-35683841D01*
X76546394Y-35644996D01*
X56007412Y-35644996D01*
X55734406Y-35371990D01*
X55482978Y-35203991D01*
X55186398Y-35144998D01*
X53220002Y-35144998D01*
X52923422Y-35203991D01*
X52671994Y-35371990D01*
X52671992Y-35371993D01*
X51704112Y-36339872D01*
X51661862Y-36339835D01*
X51312571Y-36484159D01*
X51045098Y-36751165D01*
X50900165Y-37100204D01*
X50900158Y-37108166D01*
X50838300Y-37108166D01*
X50597424Y-37153490D01*
X50376195Y-37295847D01*
X50227780Y-37513059D01*
X50175566Y-37770900D01*
X50175566Y-38913900D01*
X50212727Y-39111393D01*
X50175566Y-39294900D01*
X50175566Y-40437900D01*
X50220890Y-40678776D01*
X50363247Y-40900005D01*
X50580459Y-41048420D01*
X50838300Y-41100634D01*
X51219911Y-41100634D01*
X51219835Y-41188138D01*
X51364159Y-41537429D01*
X51631165Y-41804902D01*
X51980204Y-41949835D01*
X52023857Y-41949873D01*
X53741998Y-43668014D01*
X53993426Y-43836013D01*
X54290006Y-43895006D01*
X68613398Y-43895006D01*
X69668392Y-44950000D01*
X53450044Y-44950000D01*
X53450165Y-44811862D01*
X53305841Y-44462571D01*
X53038835Y-44195098D01*
X52689796Y-44050165D01*
X52681957Y-44050158D01*
X52682464Y-43468858D01*
X52275014Y-42482754D01*
X51521214Y-41727637D01*
X50535823Y-41318467D01*
X49468858Y-41317536D01*
X48482754Y-41724986D01*
X47727637Y-42478786D01*
X47318467Y-43464177D01*
X47318207Y-43761962D01*
X47289796Y-43750165D01*
X46911862Y-43749835D01*
X46584900Y-43884933D01*
X46584900Y-36449721D01*
X48112691Y-36449721D01*
X48182483Y-36634173D01*
X48650414Y-36713480D01*
X49049117Y-36634173D01*
X49118909Y-36449721D01*
X48615800Y-35946613D01*
X48112691Y-36449721D01*
X46584900Y-36449721D01*
X46584900Y-35532214D01*
X47399920Y-35532214D01*
X47479227Y-35930917D01*
X47663679Y-36000709D01*
X48166787Y-35497600D01*
X49064813Y-35497600D01*
X49567921Y-36000709D01*
X49752373Y-35930917D01*
X49831680Y-35462986D01*
X49752373Y-35064283D01*
X49567921Y-34994491D01*
X49064813Y-35497600D01*
X48166787Y-35497600D01*
X47663679Y-34994491D01*
X47479227Y-35064283D01*
X47399920Y-35532214D01*
X46584900Y-35532214D01*
X46584900Y-34189121D01*
X48112691Y-34189121D01*
X48180109Y-34367300D01*
X48112691Y-34545479D01*
X48615800Y-35048587D01*
X49118909Y-34545479D01*
X49051491Y-34367300D01*
X49118909Y-34189121D01*
X77424291Y-34189121D01*
X77491709Y-34367300D01*
X77424291Y-34545479D01*
X77927400Y-35048587D01*
X78430509Y-34545479D01*
X78363091Y-34367300D01*
X78430509Y-34189121D01*
X81666091Y-34189121D01*
X81733509Y-34367300D01*
X81666091Y-34545479D01*
X82169200Y-35048587D01*
X82672309Y-34545479D01*
X82604891Y-34367300D01*
X82672309Y-34189121D01*
X117327691Y-34189121D01*
X117395109Y-34367300D01*
X117327691Y-34545479D01*
X117830800Y-35048587D01*
X118333909Y-34545479D01*
X118266491Y-34367300D01*
X118333909Y-34189121D01*
X121569491Y-34189121D01*
X121636909Y-34367300D01*
X121569491Y-34545479D01*
X122072600Y-35048587D01*
X122575709Y-34545479D01*
X122508291Y-34367300D01*
X122575709Y-34189121D01*
X150881091Y-34189121D01*
X150948509Y-34367300D01*
X150881091Y-34545479D01*
X151384200Y-35048587D01*
X151887309Y-34545479D01*
X151819891Y-34367300D01*
X151887309Y-34189121D01*
X151384200Y-33686013D01*
X150881091Y-34189121D01*
X122575709Y-34189121D01*
X122072600Y-33686013D01*
X121569491Y-34189121D01*
X118333909Y-34189121D01*
X117830800Y-33686013D01*
X117327691Y-34189121D01*
X82672309Y-34189121D01*
X82169200Y-33686013D01*
X81666091Y-34189121D01*
X78430509Y-34189121D01*
X77927400Y-33686013D01*
X77424291Y-34189121D01*
X49118909Y-34189121D01*
X48615800Y-33686013D01*
X48112691Y-34189121D01*
X46584900Y-34189121D01*
X46584900Y-33271614D01*
X47399920Y-33271614D01*
X47479227Y-33670317D01*
X47663679Y-33740109D01*
X48166787Y-33237000D01*
X49064813Y-33237000D01*
X49567921Y-33740109D01*
X49752373Y-33670317D01*
X49819946Y-33271614D01*
X76711520Y-33271614D01*
X76790827Y-33670317D01*
X76975279Y-33740109D01*
X77478387Y-33237000D01*
X78376413Y-33237000D01*
X78879521Y-33740109D01*
X79063973Y-33670317D01*
X79131546Y-33271614D01*
X80953320Y-33271614D01*
X81032627Y-33670317D01*
X81217079Y-33740109D01*
X81720187Y-33237000D01*
X82618213Y-33237000D01*
X83121321Y-33740109D01*
X83305773Y-33670317D01*
X83373346Y-33271614D01*
X116614920Y-33271614D01*
X116694227Y-33670317D01*
X116878679Y-33740109D01*
X117381787Y-33237000D01*
X118279813Y-33237000D01*
X118782921Y-33740109D01*
X118967373Y-33670317D01*
X119034946Y-33271614D01*
X120856720Y-33271614D01*
X120936027Y-33670317D01*
X121120479Y-33740109D01*
X121623587Y-33237000D01*
X122521613Y-33237000D01*
X123024721Y-33740109D01*
X123209173Y-33670317D01*
X123276746Y-33271614D01*
X150168320Y-33271614D01*
X150247627Y-33670317D01*
X150432079Y-33740109D01*
X150935187Y-33237000D01*
X151833213Y-33237000D01*
X152336321Y-33740109D01*
X152520773Y-33670317D01*
X152600080Y-33202386D01*
X152520773Y-32803683D01*
X152336321Y-32733891D01*
X151833213Y-33237000D01*
X150935187Y-33237000D01*
X150432079Y-32733891D01*
X150247627Y-32803683D01*
X150168320Y-33271614D01*
X123276746Y-33271614D01*
X123288480Y-33202386D01*
X123209173Y-32803683D01*
X123024721Y-32733891D01*
X122521613Y-33237000D01*
X121623587Y-33237000D01*
X121120479Y-32733891D01*
X120936027Y-32803683D01*
X120856720Y-33271614D01*
X119034946Y-33271614D01*
X119046680Y-33202386D01*
X118967373Y-32803683D01*
X118782921Y-32733891D01*
X118279813Y-33237000D01*
X117381787Y-33237000D01*
X116878679Y-32733891D01*
X116694227Y-32803683D01*
X116614920Y-33271614D01*
X83373346Y-33271614D01*
X83385080Y-33202386D01*
X83305773Y-32803683D01*
X83121321Y-32733891D01*
X82618213Y-33237000D01*
X81720187Y-33237000D01*
X81217079Y-32733891D01*
X81032627Y-32803683D01*
X80953320Y-33271614D01*
X79131546Y-33271614D01*
X79143280Y-33202386D01*
X79063973Y-32803683D01*
X78879521Y-32733891D01*
X78376413Y-33237000D01*
X77478387Y-33237000D01*
X76975279Y-32733891D01*
X76790827Y-32803683D01*
X76711520Y-33271614D01*
X49819946Y-33271614D01*
X49831680Y-33202386D01*
X49752373Y-32803683D01*
X49567921Y-32733891D01*
X49064813Y-33237000D01*
X48166787Y-33237000D01*
X47663679Y-32733891D01*
X47479227Y-32803683D01*
X47399920Y-33271614D01*
X46584900Y-33271614D01*
X46584900Y-32284879D01*
X48112691Y-32284879D01*
X48615800Y-32787987D01*
X49118909Y-32284879D01*
X77424291Y-32284879D01*
X77927400Y-32787987D01*
X78430509Y-32284879D01*
X81666091Y-32284879D01*
X82169200Y-32787987D01*
X82672309Y-32284879D01*
X117327691Y-32284879D01*
X117830800Y-32787987D01*
X118333909Y-32284879D01*
X121569491Y-32284879D01*
X122072600Y-32787987D01*
X122575709Y-32284879D01*
X150881091Y-32284879D01*
X151384200Y-32787987D01*
X151887309Y-32284879D01*
X151817517Y-32100427D01*
X151349586Y-32021120D01*
X150950883Y-32100427D01*
X150881091Y-32284879D01*
X122575709Y-32284879D01*
X122505917Y-32100427D01*
X122037986Y-32021120D01*
X121639283Y-32100427D01*
X121569491Y-32284879D01*
X118333909Y-32284879D01*
X118264117Y-32100427D01*
X117796186Y-32021120D01*
X117397483Y-32100427D01*
X117327691Y-32284879D01*
X82672309Y-32284879D01*
X82602517Y-32100427D01*
X82134586Y-32021120D01*
X81735883Y-32100427D01*
X81666091Y-32284879D01*
X78430509Y-32284879D01*
X78360717Y-32100427D01*
X77892786Y-32021120D01*
X77494083Y-32100427D01*
X77424291Y-32284879D01*
X49118909Y-32284879D01*
X49049117Y-32100427D01*
X48581186Y-32021120D01*
X48182483Y-32100427D01*
X48112691Y-32284879D01*
X46584900Y-32284879D01*
X46584900Y-31975000D01*
X153415100Y-31975000D01*
X153415100Y-41950000D01*
G36*
X146450000Y-93169444D02*
X146405841Y-93062571D01*
X146138835Y-92795098D01*
X145789796Y-92650165D01*
X145411862Y-92649835D01*
X145062571Y-92794159D01*
X144956545Y-92900000D01*
X134872792Y-92900000D01*
X134651977Y-92679185D01*
X134803400Y-92616465D01*
X134959107Y-92680960D01*
X135114750Y-92680960D01*
X135254250Y-92541460D01*
X135254250Y-91462980D01*
X135622550Y-91462980D01*
X135622550Y-92541460D01*
X135762050Y-92680960D01*
X135917693Y-92680960D01*
X136073400Y-92616465D01*
X136229107Y-92680960D01*
X136384750Y-92680960D01*
X136524250Y-92541460D01*
X136524250Y-91462980D01*
X135622550Y-91462980D01*
X135254250Y-91462980D01*
X134352550Y-91462980D01*
X134352550Y-91482980D01*
X133984250Y-91482980D01*
X133984250Y-91462980D01*
X133929434Y-91462980D01*
X133929434Y-90562980D01*
X133984250Y-90562980D01*
X133984250Y-90542980D01*
X134352550Y-90542980D01*
X134352550Y-90562980D01*
X135254250Y-90562980D01*
X135254250Y-90542980D01*
X135622550Y-90542980D01*
X135622550Y-90562980D01*
X136524250Y-90562980D01*
X136524250Y-90542980D01*
X136892550Y-90542980D01*
X136892550Y-90562980D01*
X136947366Y-90562980D01*
X136947366Y-91462980D01*
X136892550Y-91462980D01*
X136892550Y-92541460D01*
X137032050Y-92680960D01*
X137187693Y-92680960D01*
X137242294Y-92658344D01*
X137352259Y-92733480D01*
X137610100Y-92785694D01*
X138346700Y-92785694D01*
X138587576Y-92740370D01*
X138808805Y-92598013D01*
X138957220Y-92380801D01*
X139009434Y-92122960D01*
X139009434Y-91787980D01*
X141944273Y-91787980D01*
X141961165Y-91804902D01*
X142310204Y-91949835D01*
X142688138Y-91950165D01*
X143037429Y-91805841D01*
X143304902Y-91538835D01*
X143449835Y-91189796D01*
X143450165Y-90811862D01*
X143305841Y-90462571D01*
X143038835Y-90195098D01*
X142689796Y-90050165D01*
X142311862Y-90049835D01*
X141962571Y-90194159D01*
X141918673Y-90237980D01*
X139009434Y-90237980D01*
X139009434Y-89903000D01*
X138964110Y-89662124D01*
X138957439Y-89651758D01*
X139009434Y-89395000D01*
X139009434Y-89185020D01*
X139514980Y-89185020D01*
X139690637Y-89150080D01*
X139788138Y-89150165D01*
X140137429Y-89005841D01*
X140404902Y-88738835D01*
X140549835Y-88389796D01*
X140550165Y-88011862D01*
X140405841Y-87662571D01*
X140318423Y-87575000D01*
X143331490Y-87575000D01*
X143461165Y-87704902D01*
X143810204Y-87849835D01*
X144188138Y-87850165D01*
X144537429Y-87705841D01*
X144804902Y-87438835D01*
X144949835Y-87089796D01*
X144949935Y-86975000D01*
X146450000Y-86975000D01*
X146450000Y-93169444D01*
X146450000Y-93169444D01*
G37*
X146450000Y-93169444D02*
X146405841Y-93062571D01*
X146138835Y-92795098D01*
X145789796Y-92650165D01*
X145411862Y-92649835D01*
X145062571Y-92794159D01*
X144956545Y-92900000D01*
X134872792Y-92900000D01*
X134651977Y-92679185D01*
X134803400Y-92616465D01*
X134959107Y-92680960D01*
X135114750Y-92680960D01*
X135254250Y-92541460D01*
X135254250Y-91462980D01*
X135622550Y-91462980D01*
X135622550Y-92541460D01*
X135762050Y-92680960D01*
X135917693Y-92680960D01*
X136073400Y-92616465D01*
X136229107Y-92680960D01*
X136384750Y-92680960D01*
X136524250Y-92541460D01*
X136524250Y-91462980D01*
X135622550Y-91462980D01*
X135254250Y-91462980D01*
X134352550Y-91462980D01*
X134352550Y-91482980D01*
X133984250Y-91482980D01*
X133984250Y-91462980D01*
X133929434Y-91462980D01*
X133929434Y-90562980D01*
X133984250Y-90562980D01*
X133984250Y-90542980D01*
X134352550Y-90542980D01*
X134352550Y-90562980D01*
X135254250Y-90562980D01*
X135254250Y-90542980D01*
X135622550Y-90542980D01*
X135622550Y-90562980D01*
X136524250Y-90562980D01*
X136524250Y-90542980D01*
X136892550Y-90542980D01*
X136892550Y-90562980D01*
X136947366Y-90562980D01*
X136947366Y-91462980D01*
X136892550Y-91462980D01*
X136892550Y-92541460D01*
X137032050Y-92680960D01*
X137187693Y-92680960D01*
X137242294Y-92658344D01*
X137352259Y-92733480D01*
X137610100Y-92785694D01*
X138346700Y-92785694D01*
X138587576Y-92740370D01*
X138808805Y-92598013D01*
X138957220Y-92380801D01*
X139009434Y-92122960D01*
X139009434Y-91787980D01*
X141944273Y-91787980D01*
X141961165Y-91804902D01*
X142310204Y-91949835D01*
X142688138Y-91950165D01*
X143037429Y-91805841D01*
X143304902Y-91538835D01*
X143449835Y-91189796D01*
X143450165Y-90811862D01*
X143305841Y-90462571D01*
X143038835Y-90195098D01*
X142689796Y-90050165D01*
X142311862Y-90049835D01*
X141962571Y-90194159D01*
X141918673Y-90237980D01*
X139009434Y-90237980D01*
X139009434Y-89903000D01*
X138964110Y-89662124D01*
X138957439Y-89651758D01*
X139009434Y-89395000D01*
X139009434Y-89185020D01*
X139514980Y-89185020D01*
X139690637Y-89150080D01*
X139788138Y-89150165D01*
X140137429Y-89005841D01*
X140404902Y-88738835D01*
X140549835Y-88389796D01*
X140550165Y-88011862D01*
X140405841Y-87662571D01*
X140318423Y-87575000D01*
X143331490Y-87575000D01*
X143461165Y-87704902D01*
X143810204Y-87849835D01*
X144188138Y-87850165D01*
X144537429Y-87705841D01*
X144804902Y-87438835D01*
X144949835Y-87089796D01*
X144949935Y-86975000D01*
X146450000Y-86975000D01*
X146450000Y-93169444D01*
G36*
X134352550Y-76962980D02*
X135254250Y-76962980D01*
X135254250Y-76942980D01*
X135622550Y-76942980D01*
X135622550Y-76962980D01*
X136524250Y-76962980D01*
X136524250Y-76942980D01*
X136892550Y-76942980D01*
X136892550Y-76962980D01*
X136947366Y-76962980D01*
X136947366Y-77862980D01*
X136892550Y-77862980D01*
X136892550Y-77882980D01*
X136524250Y-77882980D01*
X136524250Y-77862980D01*
X135622550Y-77862980D01*
X135622550Y-77882980D01*
X135254250Y-77882980D01*
X135254250Y-77862980D01*
X134352550Y-77862980D01*
X134352550Y-77882980D01*
X133984250Y-77882980D01*
X133984250Y-77862980D01*
X133929434Y-77862980D01*
X133929434Y-76962980D01*
X133984250Y-76962980D01*
X133984250Y-76942980D01*
X134352550Y-76942980D01*
X134352550Y-76962980D01*
X134352550Y-76962980D01*
G37*
X134352550Y-76962980D02*
X135254250Y-76962980D01*
X135254250Y-76942980D01*
X135622550Y-76942980D01*
X135622550Y-76962980D01*
X136524250Y-76962980D01*
X136524250Y-76942980D01*
X136892550Y-76942980D01*
X136892550Y-76962980D01*
X136947366Y-76962980D01*
X136947366Y-77862980D01*
X136892550Y-77862980D01*
X136892550Y-77882980D01*
X136524250Y-77882980D01*
X136524250Y-77862980D01*
X135622550Y-77862980D01*
X135622550Y-77882980D01*
X135254250Y-77882980D01*
X135254250Y-77862980D01*
X134352550Y-77862980D01*
X134352550Y-77882980D01*
X133984250Y-77882980D01*
X133984250Y-77862980D01*
X133929434Y-77862980D01*
X133929434Y-76962980D01*
X133984250Y-76962980D01*
X133984250Y-76942980D01*
X134352550Y-76942980D01*
X134352550Y-76962980D01*
G36*
X139210204Y-62034855D02*
X139588138Y-62035185D01*
X139709547Y-61985020D01*
X142112228Y-61985020D01*
X142163604Y-62036396D01*
X142455585Y-62231492D01*
X142800000Y-62300000D01*
X146450000Y-62300000D01*
X146450000Y-63287266D01*
X146100000Y-63287266D01*
X145859124Y-63332590D01*
X145637895Y-63474947D01*
X145489480Y-63692159D01*
X145458000Y-63847612D01*
X145458000Y-63839007D01*
X145373049Y-63633918D01*
X145216082Y-63476950D01*
X145010993Y-63392000D01*
X144864500Y-63392000D01*
X144725000Y-63531500D01*
X144725000Y-64275000D01*
X144900000Y-64275000D01*
X144900000Y-64925000D01*
X144725000Y-64925000D01*
X144725000Y-65070000D01*
X144375000Y-65070000D01*
X144375000Y-64925000D01*
X143781500Y-64925000D01*
X143642000Y-65064500D01*
X143642000Y-65360993D01*
X143699579Y-65500000D01*
X138650313Y-65500000D01*
X138808805Y-65398013D01*
X138957220Y-65180801D01*
X139009434Y-64922960D01*
X139009434Y-64587980D01*
X142044273Y-64587980D01*
X142061165Y-64604902D01*
X142410204Y-64749835D01*
X142788138Y-64750165D01*
X143137429Y-64605841D01*
X143404902Y-64338835D01*
X143549835Y-63989796D01*
X143549966Y-63839007D01*
X143642000Y-63839007D01*
X143642000Y-64135500D01*
X143781500Y-64275000D01*
X144375000Y-64275000D01*
X144375000Y-63531500D01*
X144235500Y-63392000D01*
X144089007Y-63392000D01*
X143883918Y-63476950D01*
X143726951Y-63633918D01*
X143642000Y-63839007D01*
X143549966Y-63839007D01*
X143550165Y-63611862D01*
X143405841Y-63262571D01*
X143138835Y-62995098D01*
X142789796Y-62850165D01*
X142411862Y-62849835D01*
X142062571Y-62994159D01*
X142018673Y-63037980D01*
X139009434Y-63037980D01*
X139009434Y-62703000D01*
X138964110Y-62462124D01*
X138957439Y-62451758D01*
X139009434Y-62195000D01*
X139009434Y-61985020D01*
X139090187Y-61985020D01*
X139210204Y-62034855D01*
X139210204Y-62034855D01*
G37*
X139210204Y-62034855D02*
X139588138Y-62035185D01*
X139709547Y-61985020D01*
X142112228Y-61985020D01*
X142163604Y-62036396D01*
X142455585Y-62231492D01*
X142800000Y-62300000D01*
X146450000Y-62300000D01*
X146450000Y-63287266D01*
X146100000Y-63287266D01*
X145859124Y-63332590D01*
X145637895Y-63474947D01*
X145489480Y-63692159D01*
X145458000Y-63847612D01*
X145458000Y-63839007D01*
X145373049Y-63633918D01*
X145216082Y-63476950D01*
X145010993Y-63392000D01*
X144864500Y-63392000D01*
X144725000Y-63531500D01*
X144725000Y-64275000D01*
X144900000Y-64275000D01*
X144900000Y-64925000D01*
X144725000Y-64925000D01*
X144725000Y-65070000D01*
X144375000Y-65070000D01*
X144375000Y-64925000D01*
X143781500Y-64925000D01*
X143642000Y-65064500D01*
X143642000Y-65360993D01*
X143699579Y-65500000D01*
X138650313Y-65500000D01*
X138808805Y-65398013D01*
X138957220Y-65180801D01*
X139009434Y-64922960D01*
X139009434Y-64587980D01*
X142044273Y-64587980D01*
X142061165Y-64604902D01*
X142410204Y-64749835D01*
X142788138Y-64750165D01*
X143137429Y-64605841D01*
X143404902Y-64338835D01*
X143549835Y-63989796D01*
X143549966Y-63839007D01*
X143642000Y-63839007D01*
X143642000Y-64135500D01*
X143781500Y-64275000D01*
X144375000Y-64275000D01*
X144375000Y-63531500D01*
X144235500Y-63392000D01*
X144089007Y-63392000D01*
X143883918Y-63476950D01*
X143726951Y-63633918D01*
X143642000Y-63839007D01*
X143549966Y-63839007D01*
X143550165Y-63611862D01*
X143405841Y-63262571D01*
X143138835Y-62995098D01*
X142789796Y-62850165D01*
X142411862Y-62849835D01*
X142062571Y-62994159D01*
X142018673Y-63037980D01*
X139009434Y-63037980D01*
X139009434Y-62703000D01*
X138964110Y-62462124D01*
X138957439Y-62451758D01*
X139009434Y-62195000D01*
X139009434Y-61985020D01*
X139090187Y-61985020D01*
X139210204Y-62034855D01*
G36*
X134352550Y-63362980D02*
X135254250Y-63362980D01*
X135254250Y-63342980D01*
X135622550Y-63342980D01*
X135622550Y-63362980D01*
X136524250Y-63362980D01*
X136524250Y-63342980D01*
X136892550Y-63342980D01*
X136892550Y-63362980D01*
X136947366Y-63362980D01*
X136947366Y-64262980D01*
X136892550Y-64262980D01*
X136892550Y-65341460D01*
X137032050Y-65480960D01*
X137187693Y-65480960D01*
X137242294Y-65458344D01*
X137303260Y-65500000D01*
X134772792Y-65500000D01*
X134722688Y-65449896D01*
X134803400Y-65416465D01*
X134959107Y-65480960D01*
X135114750Y-65480960D01*
X135254250Y-65341460D01*
X135254250Y-64262980D01*
X135622550Y-64262980D01*
X135622550Y-65341460D01*
X135762050Y-65480960D01*
X135917693Y-65480960D01*
X136073400Y-65416465D01*
X136229107Y-65480960D01*
X136384750Y-65480960D01*
X136524250Y-65341460D01*
X136524250Y-64262980D01*
X135622550Y-64262980D01*
X135254250Y-64262980D01*
X134352550Y-64262980D01*
X134352550Y-64282980D01*
X133984250Y-64282980D01*
X133984250Y-64262980D01*
X133929434Y-64262980D01*
X133929434Y-63362980D01*
X133984250Y-63362980D01*
X133984250Y-63342980D01*
X134352550Y-63342980D01*
X134352550Y-63362980D01*
X134352550Y-63362980D01*
G37*
X134352550Y-63362980D02*
X135254250Y-63362980D01*
X135254250Y-63342980D01*
X135622550Y-63342980D01*
X135622550Y-63362980D01*
X136524250Y-63362980D01*
X136524250Y-63342980D01*
X136892550Y-63342980D01*
X136892550Y-63362980D01*
X136947366Y-63362980D01*
X136947366Y-64262980D01*
X136892550Y-64262980D01*
X136892550Y-65341460D01*
X137032050Y-65480960D01*
X137187693Y-65480960D01*
X137242294Y-65458344D01*
X137303260Y-65500000D01*
X134772792Y-65500000D01*
X134722688Y-65449896D01*
X134803400Y-65416465D01*
X134959107Y-65480960D01*
X135114750Y-65480960D01*
X135254250Y-65341460D01*
X135254250Y-64262980D01*
X135622550Y-64262980D01*
X135622550Y-65341460D01*
X135762050Y-65480960D01*
X135917693Y-65480960D01*
X136073400Y-65416465D01*
X136229107Y-65480960D01*
X136384750Y-65480960D01*
X136524250Y-65341460D01*
X136524250Y-64262980D01*
X135622550Y-64262980D01*
X135254250Y-64262980D01*
X134352550Y-64262980D01*
X134352550Y-64282980D01*
X133984250Y-64282980D01*
X133984250Y-64262980D01*
X133929434Y-64262980D01*
X133929434Y-63362980D01*
X133984250Y-63362980D01*
X133984250Y-63342980D01*
X134352550Y-63342980D01*
X134352550Y-63362980D01*
G36*
X119994159Y-43337429D02*
X120261165Y-43604902D01*
X120382487Y-43655279D01*
X127577084Y-50849876D01*
X127869065Y-51044972D01*
X128213480Y-51113480D01*
X129167366Y-51113480D01*
X129167366Y-51323460D01*
X129212690Y-51564336D01*
X129298400Y-51697533D01*
X129298400Y-51798400D01*
X129366908Y-52142815D01*
X129562004Y-52434796D01*
X132463604Y-55336396D01*
X132591412Y-55421795D01*
X131580606Y-55421795D01*
X120015000Y-43856188D01*
X120015000Y-43500000D01*
X119971991Y-43283779D01*
X119994159Y-43337429D01*
X119994159Y-43337429D01*
G37*
X119994159Y-43337429D02*
X120261165Y-43604902D01*
X120382487Y-43655279D01*
X127577084Y-50849876D01*
X127869065Y-51044972D01*
X128213480Y-51113480D01*
X129167366Y-51113480D01*
X129167366Y-51323460D01*
X129212690Y-51564336D01*
X129298400Y-51697533D01*
X129298400Y-51798400D01*
X129366908Y-52142815D01*
X129562004Y-52434796D01*
X132463604Y-55336396D01*
X132591412Y-55421795D01*
X131580606Y-55421795D01*
X120015000Y-43856188D01*
X120015000Y-43500000D01*
X119971991Y-43283779D01*
X119994159Y-43337429D01*
G36*
X144844533Y-46417325D02*
X144894159Y-46537429D01*
X145161165Y-46804902D01*
X145510204Y-46949835D01*
X145888138Y-46950165D01*
X146237429Y-46805841D01*
X146450000Y-46593641D01*
X146450000Y-53216687D01*
X146289796Y-53150165D01*
X145911862Y-53149835D01*
X145790453Y-53200000D01*
X142150088Y-53200000D01*
X142150165Y-53111862D01*
X142005841Y-52762571D01*
X141738835Y-52495098D01*
X141389796Y-52350165D01*
X141011862Y-52349835D01*
X140662571Y-52494159D01*
X140631676Y-52525000D01*
X140449979Y-52525000D01*
X140450165Y-52311862D01*
X140305841Y-51962571D01*
X140038835Y-51695098D01*
X139917513Y-51644721D01*
X139836396Y-51563604D01*
X139544415Y-51368508D01*
X139200000Y-51300000D01*
X136309434Y-51300000D01*
X136309434Y-50988480D01*
X142044789Y-50988480D01*
X142071165Y-51014902D01*
X142420204Y-51159835D01*
X142798138Y-51160165D01*
X143147429Y-51015841D01*
X143414902Y-50748835D01*
X143559835Y-50399796D01*
X143560165Y-50021862D01*
X143415841Y-49672571D01*
X143148835Y-49405098D01*
X142799796Y-49260165D01*
X142421862Y-49259835D01*
X142072571Y-49404159D01*
X142038190Y-49438480D01*
X136309434Y-49438480D01*
X136309434Y-49103500D01*
X136264110Y-48862624D01*
X136188621Y-48745311D01*
X136204700Y-48706493D01*
X136204700Y-48075020D01*
X136065200Y-47935520D01*
X135462550Y-47935520D01*
X135462550Y-47955520D01*
X135094250Y-47955520D01*
X135094250Y-47935520D01*
X135039434Y-47935520D01*
X135039434Y-47035520D01*
X135094250Y-47035520D01*
X135094250Y-47015520D01*
X135462550Y-47015520D01*
X135462550Y-47035520D01*
X136065200Y-47035520D01*
X136204700Y-46896020D01*
X136204700Y-46775000D01*
X142198984Y-46775000D01*
X143059872Y-47635888D01*
X143059835Y-47678138D01*
X143204159Y-48027429D01*
X143471165Y-48294902D01*
X143820204Y-48439835D01*
X144198138Y-48440165D01*
X144547429Y-48295841D01*
X144814902Y-48028835D01*
X144959835Y-47679796D01*
X144960165Y-47301862D01*
X144815841Y-46952571D01*
X144548835Y-46685098D01*
X144199796Y-46540165D01*
X144156143Y-46540127D01*
X143068008Y-45451992D01*
X142990197Y-45400000D01*
X143827208Y-45400000D01*
X144844533Y-46417325D01*
X144844533Y-46417325D01*
G37*
X144844533Y-46417325D02*
X144894159Y-46537429D01*
X145161165Y-46804902D01*
X145510204Y-46949835D01*
X145888138Y-46950165D01*
X146237429Y-46805841D01*
X146450000Y-46593641D01*
X146450000Y-53216687D01*
X146289796Y-53150165D01*
X145911862Y-53149835D01*
X145790453Y-53200000D01*
X142150088Y-53200000D01*
X142150165Y-53111862D01*
X142005841Y-52762571D01*
X141738835Y-52495098D01*
X141389796Y-52350165D01*
X141011862Y-52349835D01*
X140662571Y-52494159D01*
X140631676Y-52525000D01*
X140449979Y-52525000D01*
X140450165Y-52311862D01*
X140305841Y-51962571D01*
X140038835Y-51695098D01*
X139917513Y-51644721D01*
X139836396Y-51563604D01*
X139544415Y-51368508D01*
X139200000Y-51300000D01*
X136309434Y-51300000D01*
X136309434Y-50988480D01*
X142044789Y-50988480D01*
X142071165Y-51014902D01*
X142420204Y-51159835D01*
X142798138Y-51160165D01*
X143147429Y-51015841D01*
X143414902Y-50748835D01*
X143559835Y-50399796D01*
X143560165Y-50021862D01*
X143415841Y-49672571D01*
X143148835Y-49405098D01*
X142799796Y-49260165D01*
X142421862Y-49259835D01*
X142072571Y-49404159D01*
X142038190Y-49438480D01*
X136309434Y-49438480D01*
X136309434Y-49103500D01*
X136264110Y-48862624D01*
X136188621Y-48745311D01*
X136204700Y-48706493D01*
X136204700Y-48075020D01*
X136065200Y-47935520D01*
X135462550Y-47935520D01*
X135462550Y-47955520D01*
X135094250Y-47955520D01*
X135094250Y-47935520D01*
X135039434Y-47935520D01*
X135039434Y-47035520D01*
X135094250Y-47035520D01*
X135094250Y-47015520D01*
X135462550Y-47015520D01*
X135462550Y-47035520D01*
X136065200Y-47035520D01*
X136204700Y-46896020D01*
X136204700Y-46775000D01*
X142198984Y-46775000D01*
X143059872Y-47635888D01*
X143059835Y-47678138D01*
X143204159Y-48027429D01*
X143471165Y-48294902D01*
X143820204Y-48439835D01*
X144198138Y-48440165D01*
X144547429Y-48295841D01*
X144814902Y-48028835D01*
X144959835Y-47679796D01*
X144960165Y-47301862D01*
X144815841Y-46952571D01*
X144548835Y-46685098D01*
X144199796Y-46540165D01*
X144156143Y-46540127D01*
X143068008Y-45451992D01*
X142990197Y-45400000D01*
X143827208Y-45400000D01*
X144844533Y-46417325D01*
G36*
X132922550Y-47035520D02*
X132977366Y-47035520D01*
X132977366Y-47935520D01*
X132922550Y-47935520D01*
X132922550Y-47955520D01*
X132554250Y-47955520D01*
X132554250Y-47935520D01*
X132499434Y-47935520D01*
X132499434Y-47035520D01*
X132554250Y-47035520D01*
X132554250Y-47015520D01*
X132922550Y-47015520D01*
X132922550Y-47035520D01*
X132922550Y-47035520D01*
G37*
X132922550Y-47035520D02*
X132977366Y-47035520D01*
X132977366Y-47935520D01*
X132922550Y-47935520D01*
X132922550Y-47955520D01*
X132554250Y-47955520D01*
X132554250Y-47935520D01*
X132499434Y-47935520D01*
X132499434Y-47035520D01*
X132554250Y-47035520D01*
X132554250Y-47015520D01*
X132922550Y-47015520D01*
X132922550Y-47035520D01*
G36*
X133325000Y-44597792D02*
X133325000Y-44675000D01*
X133402208Y-44675000D01*
X133500000Y-44772792D01*
X133500000Y-45325000D01*
X133325000Y-45325000D01*
X133325000Y-45470000D01*
X132975000Y-45470000D01*
X132975000Y-45325000D01*
X132800000Y-45325000D01*
X132800000Y-44843379D01*
X132968674Y-44675000D01*
X132975000Y-44675000D01*
X132975000Y-44668685D01*
X133004902Y-44638835D01*
X133050094Y-44530000D01*
X133257208Y-44530000D01*
X133325000Y-44597792D01*
X133325000Y-44597792D01*
G37*
X133325000Y-44597792D02*
X133325000Y-44675000D01*
X133402208Y-44675000D01*
X133500000Y-44772792D01*
X133500000Y-45325000D01*
X133325000Y-45325000D01*
X133325000Y-45470000D01*
X132975000Y-45470000D01*
X132975000Y-45325000D01*
X132800000Y-45325000D01*
X132800000Y-44843379D01*
X132968674Y-44675000D01*
X132975000Y-44675000D01*
X132975000Y-44668685D01*
X133004902Y-44638835D01*
X133050094Y-44530000D01*
X133257208Y-44530000D01*
X133325000Y-44597792D01*
G36*
X112884150Y-38183650D02*
X112938966Y-38183650D01*
X112938966Y-38755150D01*
X112884150Y-38755150D01*
X112884150Y-38759166D01*
X112515850Y-38759166D01*
X112515850Y-38755150D01*
X112461034Y-38755150D01*
X112461034Y-38183650D01*
X112515850Y-38183650D01*
X112515850Y-38080165D01*
X112596615Y-37999400D01*
X112884150Y-37999400D01*
X112884150Y-38183650D01*
X112884150Y-38183650D01*
G37*
X112884150Y-38183650D02*
X112938966Y-38183650D01*
X112938966Y-38755150D01*
X112884150Y-38755150D01*
X112884150Y-38759166D01*
X112515850Y-38759166D01*
X112515850Y-38755150D01*
X112461034Y-38755150D01*
X112461034Y-38183650D01*
X112515850Y-38183650D01*
X112515850Y-38080165D01*
X112596615Y-37999400D01*
X112884150Y-37999400D01*
X112884150Y-38183650D01*
D31*
G36*
X75873000Y-62873000D02*
X65000000Y-62873000D01*
X64950590Y-62883006D01*
X64908965Y-62911447D01*
X64881685Y-62953841D01*
X64873000Y-63000000D01*
X64873000Y-65646591D01*
X64719387Y-65275736D01*
X64452532Y-65177073D01*
X63479605Y-66150000D01*
X64452532Y-67122927D01*
X64719387Y-67024264D01*
X64873000Y-66610785D01*
X64873000Y-67873000D01*
X61127000Y-67873000D01*
X61127000Y-67302532D01*
X62327073Y-67302532D01*
X62425736Y-67569387D01*
X63035461Y-67795908D01*
X63685460Y-67771856D01*
X64174264Y-67569387D01*
X64272927Y-67302532D01*
X63300000Y-66329605D01*
X62327073Y-67302532D01*
X61127000Y-67302532D01*
X61127000Y-65885461D01*
X61654092Y-65885461D01*
X61678144Y-66535460D01*
X61880613Y-67024264D01*
X62147468Y-67122927D01*
X63120395Y-66150000D01*
X62147468Y-65177073D01*
X61880613Y-65275736D01*
X61654092Y-65885461D01*
X61127000Y-65885461D01*
X61127000Y-64997468D01*
X62327073Y-64997468D01*
X63300000Y-65970395D01*
X64272927Y-64997468D01*
X64174264Y-64730613D01*
X63564539Y-64504092D01*
X62914540Y-64528144D01*
X62425736Y-64730613D01*
X62327073Y-64997468D01*
X61127000Y-64997468D01*
X61127000Y-63725399D01*
X61270140Y-63582508D01*
X61365279Y-63353387D01*
X61872822Y-63353387D01*
X62028844Y-63730989D01*
X62317492Y-64020140D01*
X62694821Y-64176821D01*
X63103387Y-64177178D01*
X63480989Y-64021156D01*
X63770140Y-63732508D01*
X63926821Y-63355179D01*
X63927178Y-62946613D01*
X63771156Y-62569011D01*
X63482508Y-62279860D01*
X63105179Y-62123179D01*
X62696613Y-62122822D01*
X62319011Y-62278844D01*
X62029860Y-62567492D01*
X61873179Y-62944821D01*
X61872822Y-63353387D01*
X61365279Y-63353387D01*
X61426821Y-63205179D01*
X61427178Y-62796613D01*
X61271156Y-62419011D01*
X61127000Y-62274604D01*
X61127000Y-61152000D01*
X62300000Y-61152000D01*
X62626046Y-61087145D01*
X62902455Y-60902455D01*
X63502455Y-60302455D01*
X63619690Y-60127000D01*
X71000000Y-60127000D01*
X71049410Y-60116994D01*
X71091035Y-60088553D01*
X71118315Y-60046159D01*
X71127000Y-60000000D01*
X71127000Y-59672875D01*
X71615183Y-59673302D01*
X72256040Y-59408505D01*
X72456351Y-59208544D01*
X72717492Y-59470140D01*
X73094821Y-59626821D01*
X73503387Y-59627178D01*
X73880989Y-59471156D01*
X74170140Y-59182508D01*
X74326821Y-58805179D01*
X74327178Y-58396613D01*
X74266642Y-58250105D01*
X74326821Y-58105179D01*
X74327178Y-57696613D01*
X74245932Y-57499982D01*
X74326821Y-57305179D01*
X74327178Y-56896613D01*
X74171156Y-56519011D01*
X73882508Y-56229860D01*
X73505179Y-56073179D01*
X73096613Y-56072822D01*
X72827606Y-56183974D01*
X73012696Y-55738225D01*
X73013302Y-55044817D01*
X72748505Y-54403960D01*
X72258619Y-53913218D01*
X72079049Y-53838654D01*
X71270000Y-53029605D01*
X71255858Y-53043748D01*
X71127000Y-52914890D01*
X71127000Y-52850000D01*
X71449605Y-52850000D01*
X72434107Y-53834502D01*
X72702622Y-53733880D01*
X72931816Y-53118358D01*
X72908014Y-52461981D01*
X72702622Y-51966120D01*
X72434107Y-51865498D01*
X71449605Y-52850000D01*
X71127000Y-52850000D01*
X71127000Y-52785110D01*
X71255858Y-52656253D01*
X71270000Y-52670395D01*
X72078554Y-51861841D01*
X72256040Y-51788505D01*
X72746782Y-51298619D01*
X72818044Y-51127000D01*
X75873000Y-51127000D01*
X75873000Y-62873000D01*
X75873000Y-62873000D01*
G37*
X75873000Y-62873000D02*
X65000000Y-62873000D01*
X64950590Y-62883006D01*
X64908965Y-62911447D01*
X64881685Y-62953841D01*
X64873000Y-63000000D01*
X64873000Y-65646591D01*
X64719387Y-65275736D01*
X64452532Y-65177073D01*
X63479605Y-66150000D01*
X64452532Y-67122927D01*
X64719387Y-67024264D01*
X64873000Y-66610785D01*
X64873000Y-67873000D01*
X61127000Y-67873000D01*
X61127000Y-67302532D01*
X62327073Y-67302532D01*
X62425736Y-67569387D01*
X63035461Y-67795908D01*
X63685460Y-67771856D01*
X64174264Y-67569387D01*
X64272927Y-67302532D01*
X63300000Y-66329605D01*
X62327073Y-67302532D01*
X61127000Y-67302532D01*
X61127000Y-65885461D01*
X61654092Y-65885461D01*
X61678144Y-66535460D01*
X61880613Y-67024264D01*
X62147468Y-67122927D01*
X63120395Y-66150000D01*
X62147468Y-65177073D01*
X61880613Y-65275736D01*
X61654092Y-65885461D01*
X61127000Y-65885461D01*
X61127000Y-64997468D01*
X62327073Y-64997468D01*
X63300000Y-65970395D01*
X64272927Y-64997468D01*
X64174264Y-64730613D01*
X63564539Y-64504092D01*
X62914540Y-64528144D01*
X62425736Y-64730613D01*
X62327073Y-64997468D01*
X61127000Y-64997468D01*
X61127000Y-63725399D01*
X61270140Y-63582508D01*
X61365279Y-63353387D01*
X61872822Y-63353387D01*
X62028844Y-63730989D01*
X62317492Y-64020140D01*
X62694821Y-64176821D01*
X63103387Y-64177178D01*
X63480989Y-64021156D01*
X63770140Y-63732508D01*
X63926821Y-63355179D01*
X63927178Y-62946613D01*
X63771156Y-62569011D01*
X63482508Y-62279860D01*
X63105179Y-62123179D01*
X62696613Y-62122822D01*
X62319011Y-62278844D01*
X62029860Y-62567492D01*
X61873179Y-62944821D01*
X61872822Y-63353387D01*
X61365279Y-63353387D01*
X61426821Y-63205179D01*
X61427178Y-62796613D01*
X61271156Y-62419011D01*
X61127000Y-62274604D01*
X61127000Y-61152000D01*
X62300000Y-61152000D01*
X62626046Y-61087145D01*
X62902455Y-60902455D01*
X63502455Y-60302455D01*
X63619690Y-60127000D01*
X71000000Y-60127000D01*
X71049410Y-60116994D01*
X71091035Y-60088553D01*
X71118315Y-60046159D01*
X71127000Y-60000000D01*
X71127000Y-59672875D01*
X71615183Y-59673302D01*
X72256040Y-59408505D01*
X72456351Y-59208544D01*
X72717492Y-59470140D01*
X73094821Y-59626821D01*
X73503387Y-59627178D01*
X73880989Y-59471156D01*
X74170140Y-59182508D01*
X74326821Y-58805179D01*
X74327178Y-58396613D01*
X74266642Y-58250105D01*
X74326821Y-58105179D01*
X74327178Y-57696613D01*
X74245932Y-57499982D01*
X74326821Y-57305179D01*
X74327178Y-56896613D01*
X74171156Y-56519011D01*
X73882508Y-56229860D01*
X73505179Y-56073179D01*
X73096613Y-56072822D01*
X72827606Y-56183974D01*
X73012696Y-55738225D01*
X73013302Y-55044817D01*
X72748505Y-54403960D01*
X72258619Y-53913218D01*
X72079049Y-53838654D01*
X71270000Y-53029605D01*
X71255858Y-53043748D01*
X71127000Y-52914890D01*
X71127000Y-52850000D01*
X71449605Y-52850000D01*
X72434107Y-53834502D01*
X72702622Y-53733880D01*
X72931816Y-53118358D01*
X72908014Y-52461981D01*
X72702622Y-51966120D01*
X72434107Y-51865498D01*
X71449605Y-52850000D01*
X71127000Y-52850000D01*
X71127000Y-52785110D01*
X71255858Y-52656253D01*
X71270000Y-52670395D01*
X72078554Y-51861841D01*
X72256040Y-51788505D01*
X72746782Y-51298619D01*
X72818044Y-51127000D01*
X75873000Y-51127000D01*
X75873000Y-62873000D01*
M02*
