M48
;DRILL file {KiCad 4.0.1-stable} date 2016-12-19 11:19:07 AM
;FORMAT={2:4/ absolute / inch / suppress leading zeros}
FMAT,2
INCH,TZ
T1C0.016
T2C0.040
T3C0.120
%
G90
G05
M72
T1
X13976Y-13307
X16024Y-14173
X16535Y-11024
X16969Y-13031
X17520Y-11654
X21535Y-11929
X22008Y-13583
X22638Y-12205
X23031Y-13898
X23622Y-12480
X25984Y-15000
X27008Y-14724
X27520Y-11654
X27992Y-14449
X28504Y-19331
X28504Y-25866
X28504Y-32402
X28819Y-15551
X28819Y-22087
X28819Y-28622
X29252Y-15512
X29252Y-22047
X29252Y-28583
X29449Y-19528
X29449Y-26063
X29449Y-32598
X29724Y-15551
X29724Y-22087
X29724Y-28622
X29882Y-19528
X29882Y-26063
X29882Y-32598
X30000Y-15276
X30197Y-15551
X30197Y-22087
X30197Y-28622
X30276Y-19528
X30276Y-26063
X30276Y-32598
X30669Y-19528
X30669Y-26063
X30669Y-32598
X30709Y-15551
X30709Y-22087
X30709Y-28622
X31142Y-15551
X31142Y-22087
X31142Y-28622
X31181Y-19606
X31181Y-26142
X31181Y-32677
X31575Y-19606
X31575Y-26142
X31575Y-32677
X31654Y-15551
X31654Y-22087
X31654Y-28622
X31969Y-19567
X31969Y-26102
X31969Y-32638
X32047Y-15591
X32047Y-22126
X32047Y-28661
X32638Y-15551
X32638Y-22087
X32638Y-28622
X32992Y-19528
X32992Y-26063
X32992Y-32598
X33071Y-15591
X33071Y-22126
X33071Y-28661
X33386Y-19488
X33386Y-26024
X33386Y-32559
X33504Y-15591
X33504Y-22126
X33504Y-28661
X33701Y-19528
X33701Y-26063
X33701Y-32598
X33937Y-15630
X33937Y-22165
X33937Y-28701
X34055Y-19488
X34055Y-26024
X34055Y-32559
X34409Y-19488
X34409Y-26024
X34409Y-32559
X34646Y-15630
X34646Y-22165
X34646Y-28701
X34764Y-19528
X34764Y-26063
X34764Y-32598
X35118Y-15630
X35118Y-19528
X35118Y-22165
X35118Y-26063
X35118Y-28701
X35118Y-32598
X35394Y-10512
X35394Y-13307
X35433Y-19528
X35433Y-26063
X35433Y-32598
X35630Y-15630
X35630Y-22165
X35630Y-28701
X35748Y-19528
X35748Y-26063
X35748Y-32598
X36063Y-19528
X36063Y-26063
X36063Y-32598
X36142Y-15669
X36142Y-22205
X36142Y-28740
X36260Y-10000
X36339Y-10591
X36339Y-13071
X36339Y-14252
X36378Y-19488
X36378Y-26024
X36378Y-32559
X36614Y-15669
X36614Y-22205
X36614Y-28740
X36693Y-19528
X36693Y-26063
X36693Y-32598
X37126Y-15669
X37126Y-22205
X37126Y-28740
X37283Y-13346
X37598Y-11614
X37638Y-15630
X37638Y-22165
X37638Y-28701
X37913Y-19449
X37913Y-26024
X37913Y-32559
X37953Y-11614
X38110Y-15669
X38110Y-22205
X38110Y-28740
X38228Y-11811
X38386Y-15276
X38386Y-21654
X38661Y-21890
X38701Y-15118
X38780Y-28465
X38819Y-28819
X38898Y-29173
X38937Y-22165
X38976Y-15669
X39055Y-29528
X39094Y-16102
X39094Y-19724
X39094Y-22795
X39094Y-26299
X39646Y-13976
X39646Y-19724
X39646Y-26299
X39921Y-15394
X39921Y-21614
X39921Y-28465
X40157Y-28819
X40197Y-14803
X40197Y-21890
X40512Y-14567
X40748Y-22165
X40748Y-29173
X40787Y-15669
X41063Y-14370
X41063Y-16102
X41063Y-22756
X41063Y-29449
T2
X14000Y-9000
X14000Y-10000
X15000Y-9000
X15000Y-10000
X16000Y-9000
X16000Y-10000
X17000Y-9000
X17000Y-10000
X18000Y-9000
X18000Y-10000
X19000Y-9000
X19000Y-10000
X20000Y-9000
X20000Y-10000
X21000Y-9000
X21000Y-10000
X22000Y-9000
X22000Y-10000
X23000Y-9000
X23000Y-10000
X26000Y-9000
X26000Y-10500
X27000Y-9000
X27000Y-10500
X28000Y-10500
X29000Y-9000
X30000Y-9000
T3
X11024Y-9843
X11024Y-32677
X40945Y-9843
X40945Y-32677
T0
M30
