G04 #@! TF.FileFunction,Other,Fab,Top*
%FSLAX46Y46*%
G04 Gerber Fmt 4.6, Leading zero omitted, Abs format (unit mm)*
G04 Created by KiCad (PCBNEW 4.0.1-stable) date 2017-03-08 11:16:27 PM*
%MOMM*%
G01*
G04 APERTURE LIST*
%ADD10C,0.100000*%
%ADD11C,0.150000*%
G04 APERTURE END LIST*
D10*
X55350000Y-89490000D02*
X55350000Y-99390000D01*
X61650000Y-89440000D02*
X54150000Y-89440000D01*
X54150000Y-89440000D02*
X54150000Y-99440000D01*
X54150000Y-99440000D02*
X61650000Y-99440000D01*
X61650000Y-99440000D02*
X61650000Y-89440000D01*
X144500000Y-65220000D02*
X144500000Y-63980000D01*
X146500000Y-65220000D02*
X144500000Y-65220000D01*
X146500000Y-63980000D02*
X146500000Y-65220000D01*
X144500000Y-63980000D02*
X146500000Y-63980000D01*
X133200000Y-44380000D02*
X133200000Y-45620000D01*
X131200000Y-44380000D02*
X133200000Y-44380000D01*
X131200000Y-45620000D02*
X131200000Y-44380000D01*
X133200000Y-45620000D02*
X131200000Y-45620000D01*
X63820000Y-92800000D02*
X62580000Y-92800000D01*
X63820000Y-90800000D02*
X63820000Y-92800000D01*
X62580000Y-90800000D02*
X63820000Y-90800000D01*
X62580000Y-92800000D02*
X62580000Y-90800000D01*
X64300000Y-54620000D02*
X64300000Y-53380000D01*
X66300000Y-54620000D02*
X64300000Y-54620000D01*
X66300000Y-53380000D02*
X66300000Y-54620000D01*
X64300000Y-53380000D02*
X66300000Y-53380000D01*
X64300000Y-56420000D02*
X64300000Y-55180000D01*
X66300000Y-56420000D02*
X64300000Y-56420000D01*
X66300000Y-55180000D02*
X66300000Y-56420000D01*
X64300000Y-55180000D02*
X66300000Y-55180000D01*
X52154066Y-44000000D02*
G75*
G03X52154066Y-44000000I-2154066J0D01*
G01*
X152154066Y-44000000D02*
G75*
G03X152154066Y-44000000I-2154066J0D01*
G01*
X152154066Y-86000000D02*
G75*
G03X152154066Y-86000000I-2154066J0D01*
G01*
X70154066Y-86000000D02*
G75*
G03X70154066Y-86000000I-2154066J0D01*
G01*
D11*
X143095239Y-65802381D02*
X143095239Y-66516667D01*
X143047619Y-66659524D01*
X142952381Y-66754762D01*
X142809524Y-66802381D01*
X142714286Y-66802381D01*
X143571429Y-65802381D02*
X143571429Y-66611905D01*
X143619048Y-66707143D01*
X143666667Y-66754762D01*
X143761905Y-66802381D01*
X143952382Y-66802381D01*
X144047620Y-66754762D01*
X144095239Y-66707143D01*
X144142858Y-66611905D01*
X144142858Y-65802381D01*
X144619048Y-66802381D02*
X144619048Y-65802381D01*
X144952382Y-66516667D01*
X145285715Y-65802381D01*
X145285715Y-66802381D01*
X145761905Y-66802381D02*
X145761905Y-65802381D01*
X146142858Y-65802381D01*
X146238096Y-65850000D01*
X146285715Y-65897619D01*
X146333334Y-65992857D01*
X146333334Y-66135714D01*
X146285715Y-66230952D01*
X146238096Y-66278571D01*
X146142858Y-66326190D01*
X145761905Y-66326190D01*
X146761905Y-66278571D02*
X147095239Y-66278571D01*
X147238096Y-66802381D02*
X146761905Y-66802381D01*
X146761905Y-65802381D01*
X147238096Y-65802381D01*
X148238096Y-66802381D02*
X147904762Y-66326190D01*
X147666667Y-66802381D02*
X147666667Y-65802381D01*
X148047620Y-65802381D01*
X148142858Y-65850000D01*
X148190477Y-65897619D01*
X148238096Y-65992857D01*
X148238096Y-66135714D01*
X148190477Y-66230952D01*
X148142858Y-66278571D01*
X148047620Y-66326190D01*
X147666667Y-66326190D01*
X147566667Y-64002381D02*
X147566667Y-64716667D01*
X147519047Y-64859524D01*
X147423809Y-64954762D01*
X147280952Y-65002381D01*
X147185714Y-65002381D01*
X148042857Y-65002381D02*
X148042857Y-64002381D01*
X148423810Y-64002381D01*
X148519048Y-64050000D01*
X148566667Y-64097619D01*
X148614286Y-64192857D01*
X148614286Y-64335714D01*
X148566667Y-64430952D01*
X148519048Y-64478571D01*
X148423810Y-64526190D01*
X148042857Y-64526190D01*
X149566667Y-65002381D02*
X148995238Y-65002381D01*
X149280952Y-65002381D02*
X149280952Y-64002381D01*
X149185714Y-64145238D01*
X149090476Y-64240476D01*
X148995238Y-64288095D01*
X129795239Y-42702381D02*
X129795239Y-43416667D01*
X129747619Y-43559524D01*
X129652381Y-43654762D01*
X129509524Y-43702381D01*
X129414286Y-43702381D01*
X130271429Y-42702381D02*
X130271429Y-43511905D01*
X130319048Y-43607143D01*
X130366667Y-43654762D01*
X130461905Y-43702381D01*
X130652382Y-43702381D01*
X130747620Y-43654762D01*
X130795239Y-43607143D01*
X130842858Y-43511905D01*
X130842858Y-42702381D01*
X131319048Y-43702381D02*
X131319048Y-42702381D01*
X131652382Y-43416667D01*
X131985715Y-42702381D01*
X131985715Y-43702381D01*
X132461905Y-43702381D02*
X132461905Y-42702381D01*
X132842858Y-42702381D01*
X132938096Y-42750000D01*
X132985715Y-42797619D01*
X133033334Y-42892857D01*
X133033334Y-43035714D01*
X132985715Y-43130952D01*
X132938096Y-43178571D01*
X132842858Y-43226190D01*
X132461905Y-43226190D01*
X133461905Y-43178571D02*
X133795239Y-43178571D01*
X133938096Y-43702381D02*
X133461905Y-43702381D01*
X133461905Y-42702381D01*
X133938096Y-42702381D01*
X134938096Y-43702381D02*
X134604762Y-43226190D01*
X134366667Y-43702381D02*
X134366667Y-42702381D01*
X134747620Y-42702381D01*
X134842858Y-42750000D01*
X134890477Y-42797619D01*
X134938096Y-42892857D01*
X134938096Y-43035714D01*
X134890477Y-43130952D01*
X134842858Y-43178571D01*
X134747620Y-43226190D01*
X134366667Y-43226190D01*
X128316667Y-44452381D02*
X128316667Y-45166667D01*
X128269047Y-45309524D01*
X128173809Y-45404762D01*
X128030952Y-45452381D01*
X127935714Y-45452381D01*
X128792857Y-45452381D02*
X128792857Y-44452381D01*
X129173810Y-44452381D01*
X129269048Y-44500000D01*
X129316667Y-44547619D01*
X129364286Y-44642857D01*
X129364286Y-44785714D01*
X129316667Y-44880952D01*
X129269048Y-44928571D01*
X129173810Y-44976190D01*
X128792857Y-44976190D01*
X129745238Y-44547619D02*
X129792857Y-44500000D01*
X129888095Y-44452381D01*
X130126191Y-44452381D01*
X130221429Y-44500000D01*
X130269048Y-44547619D01*
X130316667Y-44642857D01*
X130316667Y-44738095D01*
X130269048Y-44880952D01*
X129697619Y-45452381D01*
X130316667Y-45452381D01*
X63657143Y-89266666D02*
X63704762Y-89314285D01*
X63752381Y-89457142D01*
X63752381Y-89552380D01*
X63704762Y-89695238D01*
X63609524Y-89790476D01*
X63514286Y-89838095D01*
X63323810Y-89885714D01*
X63180952Y-89885714D01*
X62990476Y-89838095D01*
X62895238Y-89790476D01*
X62800000Y-89695238D01*
X62752381Y-89552380D01*
X62752381Y-89457142D01*
X62800000Y-89314285D01*
X62847619Y-89266666D01*
X63752381Y-88314285D02*
X63752381Y-88885714D01*
X63752381Y-88600000D02*
X62752381Y-88600000D01*
X62895238Y-88695238D01*
X62990476Y-88790476D01*
X63038095Y-88885714D01*
X63757143Y-52152381D02*
X63852382Y-52152381D01*
X63947620Y-52200000D01*
X63995239Y-52247619D01*
X64042858Y-52342857D01*
X64090477Y-52533333D01*
X64090477Y-52771429D01*
X64042858Y-52961905D01*
X63995239Y-53057143D01*
X63947620Y-53104762D01*
X63852382Y-53152381D01*
X63757143Y-53152381D01*
X63661905Y-53104762D01*
X63614286Y-53057143D01*
X63566667Y-52961905D01*
X63519048Y-52771429D01*
X63519048Y-52533333D01*
X63566667Y-52342857D01*
X63614286Y-52247619D01*
X63661905Y-52200000D01*
X63757143Y-52152381D01*
X64519048Y-53057143D02*
X64566667Y-53104762D01*
X64519048Y-53152381D01*
X64471429Y-53104762D01*
X64519048Y-53057143D01*
X64519048Y-53152381D01*
X65519048Y-53152381D02*
X64947619Y-53152381D01*
X65233333Y-53152381D02*
X65233333Y-52152381D01*
X65138095Y-52295238D01*
X65042857Y-52390476D01*
X64947619Y-52438095D01*
X66376191Y-52485714D02*
X66376191Y-53152381D01*
X65947619Y-52485714D02*
X65947619Y-53009524D01*
X65995238Y-53104762D01*
X66090476Y-53152381D01*
X66233334Y-53152381D01*
X66328572Y-53104762D01*
X66376191Y-53057143D01*
X67185715Y-52628571D02*
X66852381Y-52628571D01*
X66852381Y-53152381D02*
X66852381Y-52152381D01*
X67328572Y-52152381D01*
X67833334Y-54757143D02*
X67785715Y-54804762D01*
X67642858Y-54852381D01*
X67547620Y-54852381D01*
X67404762Y-54804762D01*
X67309524Y-54709524D01*
X67261905Y-54614286D01*
X67214286Y-54423810D01*
X67214286Y-54280952D01*
X67261905Y-54090476D01*
X67309524Y-53995238D01*
X67404762Y-53900000D01*
X67547620Y-53852381D01*
X67642858Y-53852381D01*
X67785715Y-53900000D01*
X67833334Y-53947619D01*
X68214286Y-53947619D02*
X68261905Y-53900000D01*
X68357143Y-53852381D01*
X68595239Y-53852381D01*
X68690477Y-53900000D01*
X68738096Y-53947619D01*
X68785715Y-54042857D01*
X68785715Y-54138095D01*
X68738096Y-54280952D01*
X68166667Y-54852381D01*
X68785715Y-54852381D01*
X63657143Y-56652381D02*
X63752382Y-56652381D01*
X63847620Y-56700000D01*
X63895239Y-56747619D01*
X63942858Y-56842857D01*
X63990477Y-57033333D01*
X63990477Y-57271429D01*
X63942858Y-57461905D01*
X63895239Y-57557143D01*
X63847620Y-57604762D01*
X63752382Y-57652381D01*
X63657143Y-57652381D01*
X63561905Y-57604762D01*
X63514286Y-57557143D01*
X63466667Y-57461905D01*
X63419048Y-57271429D01*
X63419048Y-57033333D01*
X63466667Y-56842857D01*
X63514286Y-56747619D01*
X63561905Y-56700000D01*
X63657143Y-56652381D01*
X64419048Y-57557143D02*
X64466667Y-57604762D01*
X64419048Y-57652381D01*
X64371429Y-57604762D01*
X64419048Y-57557143D01*
X64419048Y-57652381D01*
X65419048Y-57652381D02*
X64847619Y-57652381D01*
X65133333Y-57652381D02*
X65133333Y-56652381D01*
X65038095Y-56795238D01*
X64942857Y-56890476D01*
X64847619Y-56938095D01*
X66276191Y-56985714D02*
X66276191Y-57652381D01*
X65847619Y-56985714D02*
X65847619Y-57509524D01*
X65895238Y-57604762D01*
X65990476Y-57652381D01*
X66133334Y-57652381D01*
X66228572Y-57604762D01*
X66276191Y-57557143D01*
X67085715Y-57128571D02*
X66752381Y-57128571D01*
X66752381Y-57652381D02*
X66752381Y-56652381D01*
X67228572Y-56652381D01*
X67833334Y-56457143D02*
X67785715Y-56504762D01*
X67642858Y-56552381D01*
X67547620Y-56552381D01*
X67404762Y-56504762D01*
X67309524Y-56409524D01*
X67261905Y-56314286D01*
X67214286Y-56123810D01*
X67214286Y-55980952D01*
X67261905Y-55790476D01*
X67309524Y-55695238D01*
X67404762Y-55600000D01*
X67547620Y-55552381D01*
X67642858Y-55552381D01*
X67785715Y-55600000D01*
X67833334Y-55647619D01*
X68166667Y-55552381D02*
X68785715Y-55552381D01*
X68452381Y-55933333D01*
X68595239Y-55933333D01*
X68690477Y-55980952D01*
X68738096Y-56028571D01*
X68785715Y-56123810D01*
X68785715Y-56361905D01*
X68738096Y-56457143D01*
X68690477Y-56504762D01*
X68595239Y-56552381D01*
X68309524Y-56552381D01*
X68214286Y-56504762D01*
X68166667Y-56457143D01*
X54180953Y-89235381D02*
X53609524Y-89235381D01*
X53895238Y-89235381D02*
X53895238Y-88235381D01*
X53800000Y-88378238D01*
X53704762Y-88473476D01*
X53609524Y-88521095D01*
X54609524Y-89140143D02*
X54657143Y-89187762D01*
X54609524Y-89235381D01*
X54561905Y-89187762D01*
X54609524Y-89140143D01*
X54609524Y-89235381D01*
X55228571Y-88663952D02*
X55133333Y-88616333D01*
X55085714Y-88568714D01*
X55038095Y-88473476D01*
X55038095Y-88425857D01*
X55085714Y-88330619D01*
X55133333Y-88283000D01*
X55228571Y-88235381D01*
X55419048Y-88235381D01*
X55514286Y-88283000D01*
X55561905Y-88330619D01*
X55609524Y-88425857D01*
X55609524Y-88473476D01*
X55561905Y-88568714D01*
X55514286Y-88616333D01*
X55419048Y-88663952D01*
X55228571Y-88663952D01*
X55133333Y-88711571D01*
X55085714Y-88759190D01*
X55038095Y-88854429D01*
X55038095Y-89044905D01*
X55085714Y-89140143D01*
X55133333Y-89187762D01*
X55228571Y-89235381D01*
X55419048Y-89235381D01*
X55514286Y-89187762D01*
X55561905Y-89140143D01*
X55609524Y-89044905D01*
X55609524Y-88854429D01*
X55561905Y-88759190D01*
X55514286Y-88711571D01*
X55419048Y-88663952D01*
X56038095Y-89235381D02*
X56038095Y-88568714D01*
X56038095Y-88663952D02*
X56085714Y-88616333D01*
X56180952Y-88568714D01*
X56323810Y-88568714D01*
X56419048Y-88616333D01*
X56466667Y-88711571D01*
X56466667Y-89235381D01*
X56466667Y-88711571D02*
X56514286Y-88616333D01*
X56609524Y-88568714D01*
X56752381Y-88568714D01*
X56847619Y-88616333D01*
X56895238Y-88711571D01*
X56895238Y-89235381D01*
X57371428Y-89235381D02*
X57371428Y-88235381D01*
X57371428Y-88711571D02*
X57942857Y-88711571D01*
X57942857Y-89235381D02*
X57942857Y-88235381D01*
X89152381Y-59200000D02*
X88152381Y-59200000D01*
X88152381Y-58961905D01*
X88200000Y-58819047D01*
X88295238Y-58723809D01*
X88390476Y-58676190D01*
X88580952Y-58628571D01*
X88723810Y-58628571D01*
X88914286Y-58676190D01*
X89009524Y-58723809D01*
X89104762Y-58819047D01*
X89152381Y-58961905D01*
X89152381Y-59200000D01*
X88247619Y-58247619D02*
X88200000Y-58200000D01*
X88152381Y-58104762D01*
X88152381Y-57866666D01*
X88200000Y-57771428D01*
X88247619Y-57723809D01*
X88342857Y-57676190D01*
X88438095Y-57676190D01*
X88580952Y-57723809D01*
X89152381Y-58295238D01*
X89152381Y-57676190D01*
X88485714Y-56819047D02*
X89152381Y-56819047D01*
X88104762Y-57057143D02*
X88819048Y-57295238D01*
X88819048Y-56676190D01*
X88152381Y-56438095D02*
X89152381Y-56104762D01*
X88152381Y-55771428D01*
X88247619Y-55485714D02*
X88200000Y-55438095D01*
X88152381Y-55342857D01*
X88152381Y-55104761D01*
X88200000Y-55009523D01*
X88247619Y-54961904D01*
X88342857Y-54914285D01*
X88438095Y-54914285D01*
X88580952Y-54961904D01*
X89152381Y-55533333D01*
X89152381Y-54914285D01*
X88247619Y-54533333D02*
X88200000Y-54485714D01*
X88152381Y-54390476D01*
X88152381Y-54152380D01*
X88200000Y-54057142D01*
X88247619Y-54009523D01*
X88342857Y-53961904D01*
X88438095Y-53961904D01*
X88580952Y-54009523D01*
X89152381Y-54580952D01*
X89152381Y-53961904D01*
X88628571Y-53199999D02*
X88628571Y-53533333D01*
X89152381Y-53533333D02*
X88152381Y-53533333D01*
X88152381Y-53057142D01*
X88152381Y-52771428D02*
X88152381Y-52152380D01*
X88533333Y-52485714D01*
X88533333Y-52342856D01*
X88580952Y-52247618D01*
X88628571Y-52199999D01*
X88723810Y-52152380D01*
X88961905Y-52152380D01*
X89057143Y-52199999D01*
X89104762Y-52247618D01*
X89152381Y-52342856D01*
X89152381Y-52628571D01*
X89104762Y-52723809D01*
X89057143Y-52771428D01*
M02*
