G04 #@! TF.FileFunction,Soldermask,Bot*
%FSLAX46Y46*%
G04 Gerber Fmt 4.6, Leading zero omitted, Abs format (unit mm)*
G04 Created by KiCad (PCBNEW 4.0.6) date 05/10/18 12:45:14*
%MOMM*%
%LPD*%
G01*
G04 APERTURE LIST*
%ADD10C,0.100000*%
%ADD11C,2.400000*%
%ADD12R,2.432000X2.127200*%
%ADD13O,2.432000X2.127200*%
%ADD14R,3.400000X3.400000*%
%ADD15C,3.400000*%
%ADD16C,2.432000*%
%ADD17C,4.464000*%
%ADD18C,2.150000*%
%ADD19C,1.214000*%
G04 APERTURE END LIST*
D10*
D11*
X63300000Y-78650000D03*
X63300000Y-66150000D03*
X48300000Y-78650000D03*
X48300000Y-66150000D03*
D12*
X151800000Y-57000000D03*
D13*
X151800000Y-54460000D03*
X151800000Y-51920000D03*
D14*
X58000000Y-48000000D03*
D15*
X58000000Y-53080000D03*
D16*
X71270000Y-57930000D03*
X71270000Y-55390000D03*
X71270000Y-52850000D03*
X71270000Y-50310000D03*
X71270000Y-47770000D03*
D17*
X50000000Y-44000000D03*
X150000000Y-44000000D03*
X150000000Y-84000000D03*
X68000000Y-86000000D03*
D18*
X105910900Y-76049000D03*
X139565900Y-76049000D03*
X105910900Y-89649000D03*
X139565900Y-89649000D03*
X136865900Y-48849500D03*
X128610900Y-48849500D03*
X105910900Y-62449000D03*
X139565900Y-62449000D03*
D19*
X125933400Y-39131800D03*
X124663400Y-39131800D03*
X124663400Y-37861800D03*
X125933400Y-37861800D03*
X129743400Y-37861800D03*
X131013400Y-37861800D03*
X128473400Y-37861800D03*
X127203400Y-37861800D03*
X127203400Y-39131800D03*
X128473400Y-39131800D03*
X131013400Y-39131800D03*
X129743400Y-39131800D03*
X143713400Y-37861800D03*
X144983400Y-37861800D03*
X147523400Y-37861800D03*
X146253400Y-37861800D03*
X146253400Y-39131800D03*
X147523400Y-39131800D03*
X144983400Y-39131800D03*
X143713400Y-39131800D03*
X148793400Y-39131800D03*
X148793400Y-37861800D03*
X142443400Y-37861800D03*
X142443400Y-39131800D03*
X134823400Y-39131800D03*
X136093400Y-39131800D03*
X133553400Y-39131800D03*
X132283400Y-39131800D03*
X137363400Y-39131800D03*
X138633400Y-39131800D03*
X141173400Y-39131800D03*
X139903400Y-39131800D03*
X139903400Y-37861800D03*
X141173400Y-37861800D03*
X138633400Y-37861800D03*
X137363400Y-37861800D03*
X132283400Y-37861800D03*
X133553400Y-37861800D03*
X136093400Y-37861800D03*
X134823400Y-37861800D03*
X89840000Y-39131800D03*
X88570000Y-39131800D03*
X87300000Y-39131800D03*
X87300000Y-37861800D03*
X88570000Y-37861800D03*
X89840000Y-37861800D03*
X86030000Y-37861800D03*
X84760000Y-37861800D03*
X84760000Y-39131800D03*
X86030000Y-39131800D03*
X92380000Y-39131800D03*
X91110000Y-39131800D03*
X91110000Y-37861800D03*
X92380000Y-37861800D03*
X96190000Y-37861800D03*
X97460000Y-37861800D03*
X94920000Y-37861800D03*
X93650000Y-37861800D03*
X93650000Y-39131800D03*
X94920000Y-39131800D03*
X97460000Y-39131800D03*
X96190000Y-39131800D03*
X110160000Y-37861800D03*
X111430000Y-37861800D03*
X113970000Y-37861800D03*
X112700000Y-37861800D03*
X112700000Y-39131800D03*
X113970000Y-39131800D03*
X111430000Y-39131800D03*
X110160000Y-39131800D03*
X115240000Y-39131800D03*
X115240000Y-37861800D03*
X108890000Y-37861800D03*
X108890000Y-39131800D03*
X101270000Y-39131800D03*
X102540000Y-39131800D03*
X100000000Y-39131800D03*
X98730000Y-39131800D03*
X103810000Y-39131800D03*
X105080000Y-39131800D03*
X107620000Y-39131800D03*
X106350000Y-39131800D03*
X106350000Y-37861800D03*
X107620000Y-37861800D03*
X105080000Y-37861800D03*
X103810000Y-37861800D03*
X98730000Y-37861800D03*
X100000000Y-37861800D03*
X102540000Y-37861800D03*
X101270000Y-37861800D03*
X52476600Y-39131800D03*
X51206600Y-39131800D03*
X51206600Y-37861800D03*
X52476600Y-37861800D03*
X56286600Y-37861800D03*
X57556600Y-37861800D03*
X55016600Y-37861800D03*
X53746600Y-37861800D03*
X53746600Y-39131800D03*
X55016600Y-39131800D03*
X57556600Y-39131800D03*
X56286600Y-39131800D03*
X70256600Y-37861800D03*
X71526600Y-37861800D03*
X74066600Y-37861800D03*
X72796600Y-37861800D03*
X72796600Y-39131800D03*
X74066600Y-39131800D03*
X71526600Y-39131800D03*
X70256600Y-39131800D03*
X75336600Y-39131800D03*
X75336600Y-37861800D03*
X68986600Y-37861800D03*
X68986600Y-39131800D03*
X61366600Y-39131800D03*
X62636600Y-39131800D03*
X60096600Y-39131800D03*
X58826600Y-39131800D03*
X63906600Y-39131800D03*
X65176600Y-39131800D03*
X67716600Y-39131800D03*
X66446600Y-39131800D03*
X66446600Y-37861800D03*
X67716600Y-37861800D03*
X65176600Y-37861800D03*
X63906600Y-37861800D03*
X58826600Y-37861800D03*
X60096600Y-37861800D03*
X62636600Y-37861800D03*
X61366600Y-37861800D03*
M02*
