G04 #@! TF.FileFunction,Copper,L2,Inr,Plane*
%FSLAX46Y46*%
G04 Gerber Fmt 4.6, Leading zero omitted, Abs format (unit mm)*
G04 Created by KiCad (PCBNEW 4.0.7) date 03/15/18 15:57:52*
%MOMM*%
%LPD*%
G01*
G04 APERTURE LIST*
%ADD10C,0.100000*%
%ADD11C,1.000760*%
%ADD12C,2.000000*%
%ADD13R,2.032000X1.727200*%
%ADD14O,2.032000X1.727200*%
%ADD15R,3.000000X3.000000*%
%ADD16C,3.000000*%
%ADD17C,2.032000*%
%ADD18C,4.064000*%
%ADD19C,1.750000*%
%ADD20C,0.600000*%
%ADD21C,0.500000*%
%ADD22C,0.250000*%
%ADD23C,0.254000*%
G04 APERTURE END LIST*
D10*
D11*
X52476600Y-39131800D03*
X51206600Y-39131800D03*
X51206600Y-37861800D03*
X52476600Y-37861800D03*
X56286600Y-37861800D03*
X57556600Y-37861800D03*
X55016600Y-37861800D03*
X53746600Y-37861800D03*
X53746600Y-39131800D03*
X55016600Y-39131800D03*
X56286600Y-39131800D03*
X70256600Y-37861800D03*
X71526600Y-37861800D03*
X74066600Y-37861800D03*
X72796600Y-37861800D03*
X75336600Y-37861800D03*
X68986600Y-37861800D03*
X66446600Y-37861800D03*
X67716600Y-37861800D03*
X65176600Y-37861800D03*
X63906600Y-37861800D03*
X58826600Y-37861800D03*
X60096600Y-37861800D03*
X62636600Y-37861800D03*
X61366600Y-37861800D03*
D12*
X63300000Y-78650000D03*
X63300000Y-66150000D03*
X48300000Y-78650000D03*
X48300000Y-66150000D03*
D13*
X151800000Y-57000000D03*
D14*
X151800000Y-54460000D03*
X151800000Y-51920000D03*
D15*
X58000000Y-48000000D03*
D16*
X58000000Y-53080000D03*
D17*
X71270000Y-57930000D03*
X71270000Y-55390000D03*
X71270000Y-52850000D03*
X71270000Y-50310000D03*
X71270000Y-47770000D03*
D18*
X50000000Y-44000000D03*
X150000000Y-44000000D03*
X150000000Y-84000000D03*
X68000000Y-86000000D03*
D19*
X105910900Y-76049000D03*
X139565900Y-76049000D03*
X105910900Y-89649000D03*
X139565900Y-89649000D03*
X136865900Y-48849500D03*
X128610900Y-48849500D03*
D11*
X124663400Y-37861800D03*
X125933400Y-37861800D03*
X129743400Y-37861800D03*
X131013400Y-37861800D03*
X128473400Y-37861800D03*
X127203400Y-37861800D03*
X143713400Y-37861800D03*
X144983400Y-37861800D03*
X147523400Y-37861800D03*
X146253400Y-37861800D03*
X148793400Y-37861800D03*
X142443400Y-37861800D03*
X139903400Y-37861800D03*
X141173400Y-37861800D03*
X138633400Y-37861800D03*
X137363400Y-37861800D03*
X132283400Y-37861800D03*
X133553400Y-37861800D03*
X136093400Y-37861800D03*
X134823400Y-37861800D03*
X87300000Y-37861800D03*
X88570000Y-37861800D03*
X89840000Y-37861800D03*
X86030000Y-37861800D03*
X84760000Y-37861800D03*
X91110000Y-37861800D03*
X92380000Y-37861800D03*
X96190000Y-37861800D03*
X97460000Y-37861800D03*
X94920000Y-37861800D03*
X93650000Y-37861800D03*
X110160000Y-37861800D03*
X111430000Y-37861800D03*
X113970000Y-37861800D03*
X112700000Y-37861800D03*
X112700000Y-39131800D03*
X113970000Y-39131800D03*
X111430000Y-39131800D03*
X115240000Y-39131800D03*
X115240000Y-37861800D03*
X108890000Y-37861800D03*
X106350000Y-37861800D03*
X107620000Y-37861800D03*
X105080000Y-37861800D03*
X103810000Y-37861800D03*
X98730000Y-37861800D03*
X100000000Y-37861800D03*
X102540000Y-37861800D03*
X101270000Y-37861800D03*
D19*
X105910900Y-62449000D03*
X139565900Y-62449000D03*
D20*
X132940000Y-58660000D03*
X115200000Y-43690000D03*
X144000000Y-56900000D03*
X144010000Y-47490000D03*
X144000000Y-73000000D03*
X144000000Y-86900000D03*
X144000000Y-60600000D03*
X110744000Y-36576000D03*
X66700000Y-75500000D03*
X136708400Y-77412980D03*
X143300000Y-48000000D03*
X136708400Y-63812980D03*
X135438400Y-63812980D03*
X134168400Y-63812980D03*
X141950000Y-50930000D03*
X117050000Y-43590000D03*
X118570000Y-43790000D03*
X141950000Y-57370000D03*
X143200000Y-91600000D03*
X120060000Y-43410000D03*
X120800000Y-42800000D03*
X69000000Y-75500000D03*
X145500000Y-52600000D03*
X142610000Y-56320000D03*
X142610000Y-50210000D03*
X142600000Y-77400000D03*
X142600000Y-63800000D03*
X142500000Y-91000000D03*
X119800000Y-41800000D03*
X146000000Y-45000000D03*
X150800000Y-66800000D03*
X150700000Y-62100000D03*
X141180000Y-74020000D03*
X141210000Y-87800000D03*
X139500000Y-52500000D03*
X146890000Y-53380000D03*
X147400000Y-61400000D03*
X73300000Y-57900000D03*
X73300000Y-58600000D03*
X73300000Y-57100000D03*
X141200000Y-53300000D03*
X141210000Y-56910000D03*
X72771000Y-40322500D03*
X129088400Y-88285020D03*
X74041000Y-40322500D03*
X130358400Y-88285020D03*
X76136500Y-39179500D03*
X131630000Y-88320000D03*
X118928400Y-88285020D03*
X62611000Y-40322500D03*
X120198400Y-88285020D03*
X63881000Y-40322500D03*
X122738400Y-88285020D03*
X66421000Y-40322500D03*
X121468400Y-88285020D03*
X65151000Y-40322500D03*
X126548400Y-88285020D03*
X70231000Y-40322500D03*
X127818400Y-88285020D03*
X71501000Y-40322500D03*
X125278400Y-88285020D03*
X68961000Y-40322500D03*
X124008400Y-88285020D03*
X67691000Y-40322500D03*
X57531000Y-40322500D03*
X113848400Y-88285020D03*
X115118400Y-88285020D03*
X58801000Y-40322500D03*
X117658400Y-88285020D03*
X61341000Y-40322500D03*
X60071000Y-40322500D03*
X116388400Y-88285020D03*
X111308400Y-88285020D03*
X87947500Y-59055000D03*
X54991000Y-40322500D03*
X112578400Y-88285020D03*
X56261000Y-40322500D03*
X88582500Y-58547000D03*
X87249000Y-58674000D03*
X53721000Y-40322500D03*
X110038400Y-88285020D03*
X146450000Y-64600000D03*
X146600000Y-58200000D03*
X146500000Y-71600000D03*
X146500000Y-85400000D03*
X72136000Y-39878000D03*
X127818400Y-91012980D03*
X129088400Y-91012980D03*
X73406000Y-39878000D03*
X131630000Y-90950000D03*
X74676000Y-39878000D03*
X130358400Y-91012980D03*
X117658400Y-91012980D03*
X61976000Y-39878000D03*
X118928400Y-91012980D03*
X63246000Y-39878000D03*
X121468400Y-91012980D03*
X65786000Y-39878000D03*
X120198400Y-91012980D03*
X64516000Y-39878000D03*
X110038400Y-91012980D03*
X86423500Y-73406000D03*
X86233000Y-72644000D03*
X111308400Y-91012980D03*
X108768400Y-91012980D03*
X86550500Y-74168000D03*
X107498400Y-91012980D03*
X86741000Y-74930000D03*
X86042500Y-71882000D03*
X112578400Y-91012980D03*
X113848400Y-91012980D03*
X58166000Y-39878000D03*
X116388400Y-91012980D03*
X60706000Y-39878000D03*
X115118400Y-91012980D03*
X59436000Y-39878000D03*
X107498400Y-88285020D03*
X86487000Y-59753500D03*
X52451000Y-40322500D03*
X108768400Y-88285020D03*
X87185500Y-60071000D03*
X122738400Y-91012980D03*
X67056000Y-39878000D03*
X124008400Y-91012980D03*
X68326000Y-39878000D03*
X126548400Y-91012980D03*
X70866000Y-39878000D03*
X125278400Y-91012980D03*
X69596000Y-39878000D03*
X125278400Y-74685020D03*
X126548400Y-74685020D03*
X129088400Y-74685020D03*
X127818400Y-74685020D03*
X131628400Y-74685020D03*
X130358400Y-74685020D03*
X125278400Y-77412980D03*
X126548400Y-77412980D03*
X129088400Y-77412980D03*
X127818400Y-77412980D03*
X131628400Y-77412980D03*
X130358400Y-77412980D03*
X120198400Y-77412980D03*
X121468400Y-77412980D03*
X124008400Y-77412980D03*
X122738400Y-77412980D03*
X120198400Y-74685020D03*
X121468400Y-74685020D03*
X124008400Y-74685020D03*
X122738400Y-74685020D03*
X117658400Y-74685020D03*
X118928400Y-74685020D03*
X110038400Y-74685020D03*
X111308400Y-74685020D03*
X108768400Y-74685020D03*
X112578400Y-74685020D03*
X113848400Y-74685020D03*
X116388400Y-74685020D03*
X115118400Y-74685020D03*
X117658400Y-77412980D03*
X118928400Y-77412980D03*
X110038400Y-77412980D03*
X111308400Y-77412980D03*
X108768400Y-77412980D03*
X107498400Y-77412980D03*
X112578400Y-77412980D03*
X113848400Y-77412980D03*
X116388400Y-77412980D03*
X115118400Y-77412980D03*
X107498400Y-74685020D03*
X125278400Y-61085020D03*
X126548400Y-61085020D03*
X129088400Y-61085020D03*
X127818400Y-61085020D03*
X131628400Y-61085020D03*
X130358400Y-61085020D03*
X125278400Y-63812980D03*
X126548400Y-63812980D03*
X129088400Y-63812980D03*
X127818400Y-63812980D03*
X131628400Y-63812980D03*
X130358400Y-63812980D03*
X120198400Y-63812980D03*
X121468400Y-63812980D03*
X124008400Y-63812980D03*
X122738400Y-63812980D03*
X120198400Y-61085020D03*
X121468400Y-61085020D03*
X124008400Y-61085020D03*
X122738400Y-61085020D03*
X117658400Y-61085020D03*
X118928400Y-61085020D03*
X110038400Y-61085020D03*
X111308400Y-61085020D03*
X108768400Y-61085020D03*
X112578400Y-61085020D03*
X113848400Y-61085020D03*
X116388400Y-61085020D03*
X115118400Y-61085020D03*
X117658400Y-63812980D03*
X118928400Y-63812980D03*
X110038400Y-63812980D03*
X111308400Y-63812980D03*
X108768400Y-63812980D03*
X107498400Y-63812980D03*
X112578400Y-63812980D03*
X113848400Y-63812980D03*
X116388400Y-63812980D03*
X115118400Y-63812980D03*
X107498400Y-61085020D03*
X135000000Y-41300000D03*
X119000000Y-41000000D03*
X132200000Y-44100000D03*
X147300000Y-85600000D03*
X147300000Y-72100000D03*
X149700000Y-59100000D03*
X145400000Y-54700000D03*
X145700000Y-79700000D03*
X145700000Y-66200000D03*
X145600000Y-93600000D03*
X62850000Y-48300000D03*
X69000000Y-77500000D03*
X66700000Y-77500000D03*
X48600000Y-57600000D03*
X48300000Y-46100000D03*
X51700000Y-46100000D03*
X52500000Y-45000000D03*
X47100000Y-44700000D03*
D21*
X72200000Y-58600000D02*
X73300000Y-58600000D01*
X72200000Y-58600000D02*
X71530000Y-57930000D01*
X71270000Y-57930000D02*
X71530000Y-57930000D01*
X73300000Y-57100000D02*
X73300000Y-57900000D01*
X73270000Y-57930000D02*
X73300000Y-57900000D01*
X73270000Y-57930000D02*
X71270000Y-57930000D01*
D22*
X73562002Y-40923002D02*
X79630192Y-40923002D01*
X72771000Y-40322500D02*
X72961500Y-40322500D01*
X72961500Y-40322500D02*
X73562002Y-40923002D01*
X79630192Y-40923002D02*
X79727192Y-41020002D01*
X79727192Y-41020002D02*
X94679982Y-55972792D01*
X94679982Y-55972792D02*
X94679982Y-69662778D01*
X94679982Y-69662778D02*
X105047208Y-80030004D01*
X105047208Y-80030004D02*
X120833384Y-80030004D01*
X120833384Y-80030004D02*
X129088400Y-88285020D01*
X74422000Y-40513000D02*
X79856588Y-40513000D01*
X74231500Y-40322500D02*
X74422000Y-40513000D01*
X74041000Y-40322500D02*
X74231500Y-40322500D01*
X79884872Y-40484716D02*
X79884872Y-40541284D01*
X79856588Y-40513000D02*
X79884872Y-40484716D01*
X79913588Y-40570000D02*
X79884872Y-40541284D01*
X79884872Y-40541284D02*
X95129984Y-55786396D01*
X95129984Y-55786396D02*
X95129984Y-69476382D01*
X95129984Y-69476382D02*
X105233604Y-79580002D01*
X105233604Y-79580002D02*
X121653382Y-79580002D01*
X121653382Y-79580002D02*
X130358400Y-88285020D01*
X76136500Y-39179500D02*
X79159486Y-39179500D01*
X105420000Y-79130000D02*
X122440000Y-79130000D01*
X95579986Y-69289986D02*
X105420000Y-79130000D01*
X95579986Y-55600000D02*
X95579986Y-69289986D01*
X79846386Y-39866400D02*
X95579986Y-55600000D01*
X122440000Y-79130000D02*
X131630000Y-88320000D01*
X79159486Y-39179500D02*
X79846386Y-39866400D01*
X62611000Y-40322500D02*
X62865000Y-40322500D01*
X78236024Y-44620018D02*
X91079966Y-57463960D01*
X91079966Y-57463960D02*
X91079966Y-71186364D01*
X91079966Y-71186364D02*
X103713604Y-83820002D01*
X103713604Y-83820002D02*
X114463382Y-83820002D01*
X114463382Y-83820002D02*
X118928400Y-88285020D01*
X77819024Y-44203018D02*
X78236024Y-44620018D01*
X66745518Y-44203018D02*
X77819024Y-44203018D01*
X62865000Y-40322500D02*
X66745518Y-44203018D01*
X63881000Y-40322500D02*
X64135000Y-40322500D01*
X78422420Y-44170016D02*
X91529968Y-57277564D01*
X91529968Y-57277564D02*
X91529968Y-70999968D01*
X91529968Y-70999968D02*
X103900000Y-83370000D01*
X103900000Y-83370000D02*
X115283380Y-83370000D01*
X115283380Y-83370000D02*
X120198400Y-88285020D01*
X78045420Y-43793016D02*
X78422420Y-44170016D01*
X67605516Y-43793016D02*
X78045420Y-43793016D01*
X64135000Y-40322500D02*
X67605516Y-43793016D01*
X66421000Y-40322500D02*
X66611500Y-40322500D01*
X78795212Y-43270012D02*
X92429972Y-56904772D01*
X92429972Y-56904772D02*
X92429972Y-70594758D01*
X92429972Y-70594758D02*
X104215222Y-82380008D01*
X104215222Y-82380008D02*
X116833388Y-82380008D01*
X116833388Y-82380008D02*
X122738400Y-88285020D01*
X78498212Y-42973012D02*
X78795212Y-43270012D01*
X69262012Y-42973012D02*
X78498212Y-42973012D01*
X66611500Y-40322500D02*
X69262012Y-42973012D01*
X65151000Y-40322500D02*
X65405000Y-40322500D01*
X78608816Y-43720014D02*
X91979970Y-57091168D01*
X91979970Y-57091168D02*
X91979970Y-70781154D01*
X91979970Y-70781154D02*
X104028826Y-82830010D01*
X104028826Y-82830010D02*
X116013390Y-82830010D01*
X116013390Y-82830010D02*
X121468400Y-88285020D01*
X78271816Y-43383014D02*
X78608816Y-43720014D01*
X68465514Y-43383014D02*
X78271816Y-43383014D01*
X65405000Y-40322500D02*
X68465514Y-43383014D01*
X70231000Y-40322500D02*
X70485000Y-40322500D01*
X119293382Y-81030002D02*
X126548400Y-88285020D01*
X93779978Y-70035570D02*
X104774410Y-81030002D01*
X93779978Y-56345584D02*
X93779978Y-70035570D01*
X79354400Y-41920006D02*
X93779978Y-56345584D01*
X104774410Y-81030002D02*
X119293382Y-81030002D01*
X79177400Y-41743006D02*
X79354400Y-41920006D01*
X71905506Y-41743006D02*
X79177400Y-41743006D01*
X70485000Y-40322500D02*
X71905506Y-41743006D01*
X71501000Y-40322500D02*
X71725998Y-40322500D01*
X120113380Y-80580000D02*
X127818400Y-88285020D01*
X104960806Y-80580000D02*
X120113380Y-80580000D01*
X94229980Y-69849174D02*
X104960806Y-80580000D01*
X94229980Y-56159188D02*
X94229980Y-69849174D01*
X79540796Y-41470004D02*
X94229980Y-56159188D01*
X79403796Y-41333004D02*
X79540796Y-41470004D01*
X72736502Y-41333004D02*
X79403796Y-41333004D01*
X71725998Y-40322500D02*
X72736502Y-41333004D01*
X68961000Y-40322500D02*
X69215000Y-40322500D01*
X79168004Y-42370008D02*
X93329976Y-56531980D01*
X93329976Y-56531980D02*
X93329976Y-70221966D01*
X93329976Y-70221966D02*
X104588014Y-81480004D01*
X104588014Y-81480004D02*
X118473384Y-81480004D01*
X118473384Y-81480004D02*
X125278400Y-88285020D01*
X78951004Y-42153008D02*
X79168004Y-42370008D01*
X71045508Y-42153008D02*
X78951004Y-42153008D01*
X69215000Y-40322500D02*
X71045508Y-42153008D01*
X67691000Y-40322500D02*
X67945000Y-40322500D01*
X78981608Y-42820010D02*
X92879974Y-56718376D01*
X92879974Y-56718376D02*
X92879974Y-70408362D01*
X92879974Y-70408362D02*
X104401618Y-81930006D01*
X104401618Y-81930006D02*
X117653386Y-81930006D01*
X117653386Y-81930006D02*
X124008400Y-88285020D01*
X78724608Y-42563010D02*
X78981608Y-42820010D01*
X70185510Y-42563010D02*
X78724608Y-42563010D01*
X67945000Y-40322500D02*
X70185510Y-42563010D01*
X57531000Y-40322500D02*
X57785000Y-40322500D01*
X76831026Y-45843026D02*
X89217000Y-58229000D01*
X63305526Y-45843026D02*
X76831026Y-45843026D01*
X57785000Y-40322500D02*
X63305526Y-45843026D01*
X102968020Y-85620010D02*
X111183390Y-85620010D01*
X111183390Y-85620010D02*
X113848400Y-88285020D01*
X89217000Y-58229000D02*
X89217000Y-71868990D01*
X89217000Y-71868990D02*
X102968020Y-85620010D01*
X58801000Y-40322500D02*
X59055000Y-40322500D01*
X77676836Y-45970024D02*
X89729960Y-58023148D01*
X89729960Y-58023148D02*
X89729960Y-71745552D01*
X89729960Y-71745552D02*
X103154416Y-85170008D01*
X103154416Y-85170008D02*
X112003388Y-85170008D01*
X112003388Y-85170008D02*
X115118400Y-88285020D01*
X77139836Y-45433024D02*
X77676836Y-45970024D01*
X64165524Y-45433024D02*
X77139836Y-45433024D01*
X59055000Y-40322500D02*
X64165524Y-45433024D01*
X61341000Y-40322500D02*
X61595000Y-40322500D01*
X78049628Y-45070020D02*
X90629964Y-57650356D01*
X90629964Y-57650356D02*
X90629964Y-71372760D01*
X90629964Y-71372760D02*
X103527208Y-84270004D01*
X103527208Y-84270004D02*
X113643384Y-84270004D01*
X113643384Y-84270004D02*
X117658400Y-88285020D01*
X77592628Y-44613020D02*
X78049628Y-45070020D01*
X65885520Y-44613020D02*
X77592628Y-44613020D01*
X61595000Y-40322500D02*
X65885520Y-44613020D01*
X60071000Y-40322500D02*
X60325000Y-40322500D01*
X77366232Y-45023022D02*
X77863232Y-45520022D01*
X65025522Y-45023022D02*
X77366232Y-45023022D01*
X60325000Y-40322500D02*
X65025522Y-45023022D01*
X112823386Y-84720006D02*
X116388400Y-88285020D01*
X103340812Y-84720006D02*
X112823386Y-84720006D01*
X90179962Y-71559156D02*
X103340812Y-84720006D01*
X90179962Y-57836752D02*
X90179962Y-71559156D01*
X77863232Y-45520022D02*
X90179962Y-57836752D01*
X88201500Y-72161500D02*
X88201500Y-59309000D01*
X109543394Y-86520014D02*
X111308400Y-88285020D01*
X102560014Y-86520014D02*
X109543394Y-86520014D01*
X88201500Y-72161500D02*
X102560014Y-86520014D01*
X88201500Y-59309000D02*
X87947500Y-59055000D01*
X88709500Y-71997888D02*
X88709500Y-58674000D01*
X110363392Y-86070012D02*
X112578400Y-88285020D01*
X102781624Y-86070012D02*
X110363392Y-86070012D01*
X88709500Y-71997888D02*
X102781624Y-86070012D01*
X88709500Y-58674000D02*
X88582500Y-58547000D01*
X88461056Y-58668444D02*
X88582500Y-58547000D01*
X108723396Y-86970016D02*
X102430186Y-86970016D01*
X87249000Y-58674000D02*
X87249000Y-59245500D01*
X87249000Y-59245500D02*
X87791498Y-59787998D01*
X108723396Y-86970016D02*
X110038400Y-88285020D01*
X87791498Y-59787998D02*
X87791498Y-72331328D01*
X102430186Y-86970016D02*
X87791498Y-72331328D01*
X127820000Y-91014580D02*
X127818400Y-91012980D01*
X127820000Y-91014580D02*
X127820000Y-91020000D01*
X129090000Y-91020000D02*
X129090000Y-91014580D01*
X129090000Y-91014580D02*
X129088400Y-91012980D01*
X130360000Y-91020000D02*
X130360000Y-91014580D01*
X130360000Y-91014580D02*
X130358400Y-91012980D01*
X117660000Y-91000000D02*
X117660000Y-91011380D01*
X117660000Y-91011380D02*
X117658400Y-91012980D01*
X118940000Y-91000000D02*
X118940000Y-91001380D01*
X118940000Y-91001380D02*
X118928400Y-91012980D01*
X121460000Y-91000000D02*
X121460000Y-91004580D01*
X121460000Y-91004580D02*
X121468400Y-91012980D01*
X120200000Y-91000000D02*
X120200000Y-91011380D01*
X120200000Y-91011380D02*
X120198400Y-91012980D01*
X110035420Y-91010000D02*
X110038400Y-91012980D01*
X110030000Y-91010000D02*
X110035420Y-91010000D01*
X111310000Y-91011380D02*
X111310000Y-91010000D01*
X111310000Y-91011380D02*
X111308400Y-91012980D01*
X108770000Y-91010000D02*
X108770000Y-91011380D01*
X108770000Y-91011380D02*
X108768400Y-91012980D01*
X107495420Y-91010000D02*
X107498400Y-91012980D01*
X107490000Y-91010000D02*
X107495420Y-91010000D01*
X112575420Y-91010000D02*
X112578400Y-91012980D01*
X112570000Y-91010000D02*
X112575420Y-91010000D01*
X113860000Y-91000000D02*
X113860000Y-91001380D01*
X113860000Y-91001380D02*
X113848400Y-91012980D01*
X116400000Y-91000000D02*
X116400000Y-91001380D01*
X116400000Y-91001380D02*
X116388400Y-91012980D01*
X115110000Y-91000000D02*
X115110000Y-91004580D01*
X115110000Y-91004580D02*
X115118400Y-91012980D01*
X107498400Y-88285020D02*
X106881000Y-88285020D01*
X86487000Y-60325000D02*
X86487000Y-59753500D01*
X86971494Y-60809494D02*
X86487000Y-60325000D01*
X86971494Y-72692324D02*
X86971494Y-60809494D01*
X102109190Y-87830020D02*
X86971494Y-72692324D01*
X106426000Y-87830020D02*
X102109190Y-87830020D01*
X106881000Y-88285020D02*
X106426000Y-87830020D01*
X107903398Y-87420018D02*
X102279018Y-87420018D01*
X107903398Y-87420018D02*
X108768400Y-88285020D01*
X87381496Y-60266996D02*
X87185500Y-60071000D01*
X87381496Y-72522496D02*
X87381496Y-60266996D01*
X102279018Y-87420018D02*
X87381496Y-72522496D01*
X122740000Y-91000000D02*
X122740000Y-91011380D01*
X122740000Y-91011380D02*
X122738400Y-91012980D01*
X124000000Y-91000000D02*
X124000000Y-91004580D01*
X124000000Y-91004580D02*
X124008400Y-91012980D01*
X126550000Y-91020000D02*
X126550000Y-91014580D01*
X126550000Y-91014580D02*
X126548400Y-91012980D01*
X125270000Y-91020000D02*
X125271380Y-91020000D01*
X125271380Y-91020000D02*
X125278400Y-91012980D01*
X125278400Y-77412980D02*
X125278400Y-76637400D01*
X103187500Y-38509300D02*
X102540000Y-37861800D01*
X103187500Y-39624000D02*
X103187500Y-38509300D01*
X101930016Y-40881484D02*
X103187500Y-39624000D01*
X101930016Y-64183706D02*
X101930016Y-40881484D01*
X104853296Y-67106986D02*
X101930016Y-64183706D01*
X117589486Y-67106986D02*
X104853296Y-67106986D01*
X124650500Y-74168000D02*
X117589486Y-67106986D01*
X124650500Y-76009500D02*
X124650500Y-74168000D01*
X125278400Y-76637400D02*
X124650500Y-76009500D01*
X126548400Y-77412980D02*
X126548400Y-76764400D01*
X104457500Y-38509300D02*
X103810000Y-37861800D01*
X104457500Y-39624000D02*
X104457500Y-38509300D01*
X102340018Y-41741482D02*
X104457500Y-39624000D01*
X102340018Y-64013878D02*
X102340018Y-41741482D01*
X105023124Y-66696984D02*
X102340018Y-64013878D01*
X118322484Y-66696984D02*
X105023124Y-66696984D01*
X125920500Y-74295000D02*
X118322484Y-66696984D01*
X125920500Y-76136500D02*
X125920500Y-74295000D01*
X126548400Y-76764400D02*
X125920500Y-76136500D01*
X129088400Y-77412980D02*
X129088400Y-76764400D01*
X106997500Y-38509300D02*
X106350000Y-37861800D01*
X106997500Y-39624000D02*
X106997500Y-38509300D01*
X103160022Y-43461478D02*
X106997500Y-39624000D01*
X103160022Y-63674222D02*
X103160022Y-43461478D01*
X105362780Y-65876980D02*
X103160022Y-63674222D01*
X120359980Y-65876980D02*
X105362780Y-65876980D01*
X128460500Y-73977500D02*
X120359980Y-65876980D01*
X128460500Y-76136500D02*
X128460500Y-73977500D01*
X129088400Y-76764400D02*
X128460500Y-76136500D01*
X127818400Y-77412980D02*
X127818400Y-76764400D01*
X105727500Y-38509300D02*
X105080000Y-37861800D01*
X105727500Y-39560500D02*
X105727500Y-38509300D01*
X102750020Y-42537980D02*
X105727500Y-39560500D01*
X102750020Y-63844050D02*
X102750020Y-42537980D01*
X105192952Y-66286982D02*
X102750020Y-63844050D01*
X119436482Y-66286982D02*
X105192952Y-66286982D01*
X127190500Y-74041000D02*
X119436482Y-66286982D01*
X127190500Y-76136500D02*
X127190500Y-74041000D01*
X127818400Y-76764400D02*
X127190500Y-76136500D01*
X108890000Y-37861800D02*
X108918300Y-37861800D01*
X108918300Y-37861800D02*
X109537500Y-38481000D01*
X109537500Y-38481000D02*
X109537500Y-39560500D01*
X109537500Y-39560500D02*
X103980026Y-45117974D01*
X131628400Y-77412980D02*
X131628400Y-76637400D01*
X103980026Y-63334566D02*
X103980026Y-45117974D01*
X105702436Y-65056976D02*
X103980026Y-63334566D01*
X122143476Y-65056976D02*
X105702436Y-65056976D01*
X131000500Y-73914000D02*
X122143476Y-65056976D01*
X131000500Y-76009500D02*
X131000500Y-73914000D01*
X131628400Y-76637400D02*
X131000500Y-76009500D01*
X130358400Y-77412980D02*
X130358400Y-76573900D01*
X108267500Y-38509300D02*
X107620000Y-37861800D01*
X108267500Y-39751000D02*
X108267500Y-38509300D01*
X103570024Y-44448476D02*
X108267500Y-39751000D01*
X103570024Y-63504394D02*
X103570024Y-44448476D01*
X105532608Y-65466978D02*
X103570024Y-63504394D01*
X121346978Y-65466978D02*
X105532608Y-65466978D01*
X129730500Y-73850500D02*
X121346978Y-65466978D01*
X129730500Y-75946000D02*
X129730500Y-73850500D01*
X130358400Y-76573900D02*
X129730500Y-75946000D01*
X120198400Y-77412980D02*
X120198400Y-76383400D01*
X98107500Y-38509300D02*
X97460000Y-37861800D01*
X98107500Y-39687500D02*
X98107500Y-38509300D01*
X100290008Y-41870008D02*
X98107500Y-39687500D01*
X100290008Y-64863018D02*
X100290008Y-41870008D01*
X104173984Y-68746994D02*
X100290008Y-64863018D01*
X113958994Y-68746994D02*
X104173984Y-68746994D01*
X119570500Y-74358500D02*
X113958994Y-68746994D01*
X119570500Y-75755500D02*
X119570500Y-74358500D01*
X120198400Y-76383400D02*
X119570500Y-75755500D01*
X121468400Y-77412980D02*
X121468400Y-76700900D01*
X99377500Y-38509300D02*
X98730000Y-37861800D01*
X99377500Y-39560500D02*
X99377500Y-38509300D01*
X100700010Y-40883010D02*
X99377500Y-39560500D01*
X100700010Y-64693190D02*
X100700010Y-40883010D01*
X104343812Y-68336992D02*
X100700010Y-64693190D01*
X114945992Y-68336992D02*
X104343812Y-68336992D01*
X120840500Y-74231500D02*
X114945992Y-68336992D01*
X120840500Y-76073000D02*
X120840500Y-74231500D01*
X121468400Y-76700900D02*
X120840500Y-76073000D01*
X124008400Y-77412980D02*
X124008400Y-76510400D01*
X101917500Y-38509300D02*
X101270000Y-37861800D01*
X101917500Y-39624000D02*
X101917500Y-38509300D01*
X101520014Y-40021486D02*
X101917500Y-39624000D01*
X101520014Y-64353534D02*
X101520014Y-40021486D01*
X104683468Y-67516988D02*
X101520014Y-64353534D01*
X116665988Y-67516988D02*
X104683468Y-67516988D01*
X123380500Y-74231500D02*
X116665988Y-67516988D01*
X123380500Y-75882500D02*
X123380500Y-74231500D01*
X124008400Y-76510400D02*
X123380500Y-75882500D01*
X122738400Y-77412980D02*
X122738400Y-76510400D01*
X100647500Y-38509300D02*
X100000000Y-37861800D01*
X100647500Y-39560500D02*
X100647500Y-38509300D01*
X101110012Y-40023012D02*
X100647500Y-39560500D01*
X101110012Y-64523362D02*
X101110012Y-40023012D01*
X104513640Y-67926990D02*
X101110012Y-64523362D01*
X115805990Y-67926990D02*
X104513640Y-67926990D01*
X122110500Y-74231500D02*
X115805990Y-67926990D01*
X122110500Y-75882500D02*
X122110500Y-74231500D01*
X122738400Y-76510400D02*
X122110500Y-75882500D01*
X117658400Y-77412980D02*
X117658400Y-76446900D01*
X95567500Y-38509300D02*
X94920000Y-37861800D01*
X95567500Y-39624000D02*
X95567500Y-38509300D01*
X99470004Y-43526504D02*
X95567500Y-39624000D01*
X99470004Y-65202674D02*
X99470004Y-43526504D01*
X103834328Y-69566998D02*
X99470004Y-65202674D01*
X112302498Y-69566998D02*
X103834328Y-69566998D01*
X117030500Y-74295000D02*
X112302498Y-69566998D01*
X117030500Y-75819000D02*
X117030500Y-74295000D01*
X117658400Y-76446900D02*
X117030500Y-75819000D01*
X118928400Y-77412980D02*
X118928400Y-76383400D01*
X96837500Y-38509300D02*
X96190000Y-37861800D01*
X96837500Y-39687500D02*
X96837500Y-38509300D01*
X99880006Y-42730006D02*
X96837500Y-39687500D01*
X99880006Y-65032846D02*
X99880006Y-42730006D01*
X104004156Y-69156996D02*
X99880006Y-65032846D01*
X113162496Y-69156996D02*
X104004156Y-69156996D01*
X118300500Y-74295000D02*
X113162496Y-69156996D01*
X118300500Y-75755500D02*
X118300500Y-74295000D01*
X118928400Y-76383400D02*
X118300500Y-75755500D01*
X87300000Y-37861800D02*
X87328300Y-37861800D01*
X87328300Y-37861800D02*
X87947500Y-38481000D01*
X87947500Y-38481000D02*
X87947500Y-39624000D01*
X87947500Y-39624000D02*
X97009992Y-48686492D01*
X97009992Y-48686492D02*
X97009992Y-66221642D01*
X97009992Y-66221642D02*
X102838384Y-72050034D01*
X102838384Y-72050034D02*
X107546534Y-72050034D01*
X107546534Y-72050034D02*
X109410500Y-73914000D01*
X109410500Y-73914000D02*
X109410500Y-76785080D01*
X109410500Y-76785080D02*
X110038400Y-77412980D01*
X111308400Y-77412980D02*
X111308400Y-76446900D01*
X89217500Y-38509300D02*
X88570000Y-37861800D01*
X89217500Y-39624000D02*
X89217500Y-38509300D01*
X97419994Y-47826494D02*
X89217500Y-39624000D01*
X97419994Y-66051814D02*
X97419994Y-47826494D01*
X103008212Y-71640032D02*
X97419994Y-66051814D01*
X107962032Y-71640032D02*
X103008212Y-71640032D01*
X110680500Y-74358500D02*
X107962032Y-71640032D01*
X110680500Y-75819000D02*
X110680500Y-74358500D01*
X111308400Y-76446900D02*
X110680500Y-75819000D01*
X108768400Y-77412980D02*
X108768400Y-77145400D01*
X86677500Y-38509300D02*
X86030000Y-37861800D01*
X86677500Y-39624000D02*
X86677500Y-38509300D01*
X96599990Y-49546490D02*
X86677500Y-39624000D01*
X96599990Y-66391470D02*
X96599990Y-49546490D01*
X102668556Y-72460036D02*
X96599990Y-66391470D01*
X107067536Y-72460036D02*
X102668556Y-72460036D01*
X108140500Y-73533000D02*
X107067536Y-72460036D01*
X108140500Y-76517500D02*
X108140500Y-73533000D01*
X108768400Y-77145400D02*
X108140500Y-76517500D01*
X84760000Y-37861800D02*
X84760000Y-37960500D01*
X84760000Y-37960500D02*
X85407500Y-38608000D01*
X85407500Y-38608000D02*
X85407500Y-39687500D01*
X85407500Y-39687500D02*
X96189988Y-50469988D01*
X96189988Y-50469988D02*
X96189988Y-66561298D01*
X96189988Y-66561298D02*
X102498728Y-72870038D01*
X102498728Y-72870038D02*
X104810538Y-72870038D01*
X104810538Y-72870038D02*
X107498400Y-75557900D01*
X107498400Y-75557900D02*
X107498400Y-77412980D01*
X112578400Y-77412980D02*
X112578400Y-76637400D01*
X90487500Y-38509300D02*
X89840000Y-37861800D01*
X90487500Y-39560500D02*
X90487500Y-38509300D01*
X97829996Y-46902996D02*
X90487500Y-39560500D01*
X97829996Y-65881986D02*
X97829996Y-46902996D01*
X103178040Y-71230030D02*
X97829996Y-65881986D01*
X108885530Y-71230030D02*
X103178040Y-71230030D01*
X111950500Y-74295000D02*
X108885530Y-71230030D01*
X111950500Y-76009500D02*
X111950500Y-74295000D01*
X112578400Y-76637400D02*
X111950500Y-76009500D01*
X91757500Y-39624000D02*
X91757500Y-38509300D01*
X113848400Y-76700900D02*
X113220500Y-76073000D01*
X113220500Y-76073000D02*
X113220500Y-74231500D01*
X113220500Y-74231500D02*
X109809028Y-70820028D01*
X109809028Y-70820028D02*
X103347868Y-70820028D01*
X103347868Y-70820028D02*
X98239998Y-65712158D01*
X98239998Y-65712158D02*
X98239998Y-46106498D01*
X98239998Y-46106498D02*
X91757500Y-39624000D01*
X113848400Y-77412980D02*
X113848400Y-76700900D01*
X91757500Y-38509300D02*
X91110000Y-37861800D01*
X116388400Y-77412980D02*
X116388400Y-76510400D01*
X94297500Y-38509300D02*
X93650000Y-37861800D01*
X94297500Y-39751000D02*
X94297500Y-38509300D01*
X99060002Y-44513502D02*
X94297500Y-39751000D01*
X99060002Y-65372502D02*
X99060002Y-44513502D01*
X103664500Y-69977000D02*
X99060002Y-65372502D01*
X111506000Y-69977000D02*
X103664500Y-69977000D01*
X115760500Y-74231500D02*
X111506000Y-69977000D01*
X115760500Y-75882500D02*
X115760500Y-74231500D01*
X116388400Y-76510400D02*
X115760500Y-75882500D01*
X115118400Y-77412980D02*
X115118400Y-76573900D01*
X93027500Y-38509300D02*
X92380000Y-37861800D01*
X93027500Y-39624000D02*
X93027500Y-38509300D01*
X98650000Y-45246500D02*
X93027500Y-39624000D01*
X98650000Y-65542330D02*
X98650000Y-45246500D01*
X103517696Y-70410026D02*
X98650000Y-65542330D01*
X110542026Y-70410026D02*
X103517696Y-70410026D01*
X114490500Y-74358500D02*
X110542026Y-70410026D01*
X114490500Y-75946000D02*
X114490500Y-74358500D01*
X115118400Y-76573900D02*
X114490500Y-75946000D01*
X125278400Y-63812980D02*
X125278400Y-63697600D01*
X141795500Y-38509700D02*
X142443400Y-37861800D01*
X141795500Y-39720820D02*
X141795500Y-38509700D01*
X125920500Y-55595820D02*
X141795500Y-39720820D01*
X125920500Y-63055500D02*
X125920500Y-55595820D01*
X125278400Y-63697600D02*
X125920500Y-63055500D01*
X126548400Y-63812980D02*
X126548400Y-63697600D01*
X143065500Y-38509700D02*
X143713400Y-37861800D01*
X143065500Y-39497000D02*
X143065500Y-38509700D01*
X142557500Y-40005000D02*
X143065500Y-39497000D01*
X142091150Y-40005000D02*
X142557500Y-40005000D01*
X127190500Y-54905650D02*
X142091150Y-40005000D01*
X127190500Y-63055500D02*
X127190500Y-54905650D01*
X126548400Y-63697600D02*
X127190500Y-63055500D01*
X129088400Y-63812980D02*
X129100020Y-63812980D01*
X145605500Y-38509700D02*
X146253400Y-37861800D01*
X145605500Y-39560500D02*
X145605500Y-38509700D01*
X144306498Y-40859502D02*
X145605500Y-39560500D01*
X142396308Y-40859502D02*
X144306498Y-40859502D01*
X129730500Y-53525310D02*
X142396308Y-40859502D01*
X129730500Y-63182500D02*
X129730500Y-53525310D01*
X129100020Y-63812980D02*
X129730500Y-63182500D01*
X127818400Y-63812980D02*
X127830020Y-63812980D01*
X144335500Y-38509700D02*
X144983400Y-37861800D01*
X144335500Y-39624000D02*
X144335500Y-38509700D01*
X143510000Y-40449500D02*
X144335500Y-39624000D01*
X142226480Y-40449500D02*
X143510000Y-40449500D01*
X128460500Y-54215480D02*
X142226480Y-40449500D01*
X128460500Y-63182500D02*
X128460500Y-54215480D01*
X127830020Y-63812980D02*
X128460500Y-63182500D01*
X131628400Y-63812980D02*
X131628400Y-63634100D01*
X148145500Y-38509700D02*
X148793400Y-37861800D01*
X148145500Y-39433500D02*
X148145500Y-38509700D01*
X147574000Y-40005000D02*
X148145500Y-39433500D01*
X147383500Y-40005000D02*
X147574000Y-40005000D01*
X132270500Y-55118000D02*
X147383500Y-40005000D01*
X132270500Y-62992000D02*
X132270500Y-55118000D01*
X131628400Y-63634100D02*
X132270500Y-62992000D01*
X130358400Y-63812980D02*
X130358400Y-63697600D01*
X146875500Y-38509700D02*
X147523400Y-37861800D01*
X146875500Y-39560500D02*
X146875500Y-38509700D01*
X145166496Y-41269504D02*
X146875500Y-39560500D01*
X142566136Y-41269504D02*
X145166496Y-41269504D01*
X131000500Y-52835140D02*
X142566136Y-41269504D01*
X131000500Y-63055500D02*
X131000500Y-52835140D01*
X130358400Y-63697600D02*
X131000500Y-63055500D01*
X120198400Y-63812980D02*
X120198400Y-63507100D01*
X136715500Y-38509700D02*
X137363400Y-37861800D01*
X136715500Y-40449500D02*
X136715500Y-38509700D01*
X130429000Y-46736000D02*
X136715500Y-40449500D01*
X130429000Y-48768000D02*
X130429000Y-46736000D01*
X120840500Y-58356500D02*
X130429000Y-48768000D01*
X120840500Y-62865000D02*
X120840500Y-58356500D01*
X120198400Y-63507100D02*
X120840500Y-62865000D01*
X121468400Y-63812980D02*
X121468400Y-63570600D01*
X137985500Y-38509700D02*
X138633400Y-37861800D01*
X137985500Y-41791330D02*
X137985500Y-38509700D01*
X122110500Y-57666330D02*
X137985500Y-41791330D01*
X122110500Y-62928500D02*
X122110500Y-57666330D01*
X121468400Y-63570600D02*
X122110500Y-62928500D01*
X124008400Y-63812980D02*
X124008400Y-63634100D01*
X140525500Y-38509700D02*
X141173400Y-37861800D01*
X140525500Y-40410990D02*
X140525500Y-38509700D01*
X124650500Y-56285990D02*
X140525500Y-40410990D01*
X124650500Y-62992000D02*
X124650500Y-56285990D01*
X124008400Y-63634100D02*
X124650500Y-62992000D01*
X122738400Y-63812980D02*
X122738400Y-63570600D01*
X139255500Y-38509700D02*
X139903400Y-37861800D01*
X139255500Y-41101160D02*
X139255500Y-38509700D01*
X123380500Y-56976160D02*
X139255500Y-41101160D01*
X123380500Y-62928500D02*
X123380500Y-56976160D01*
X122738400Y-63570600D02*
X123380500Y-62928500D01*
X117658400Y-63812980D02*
X117658400Y-63380100D01*
X134175500Y-38509700D02*
X134823400Y-37861800D01*
X134175500Y-39687500D02*
X134175500Y-38509700D01*
X118300500Y-55562500D02*
X134175500Y-39687500D01*
X118300500Y-62738000D02*
X118300500Y-55562500D01*
X117658400Y-63380100D02*
X118300500Y-62738000D01*
X118928400Y-63812980D02*
X118928400Y-63507100D01*
X135445500Y-38509700D02*
X136093400Y-37861800D01*
X135445500Y-39687500D02*
X135445500Y-38509700D01*
X119570500Y-55562500D02*
X135445500Y-39687500D01*
X119570500Y-62865000D02*
X119570500Y-55562500D01*
X118928400Y-63507100D02*
X119570500Y-62865000D01*
X110038400Y-63812980D02*
X110038400Y-63253100D01*
X126555500Y-38509700D02*
X127203400Y-37861800D01*
X126555500Y-39624000D02*
X126555500Y-38509700D01*
X110680500Y-55499000D02*
X126555500Y-39624000D01*
X110680500Y-62611000D02*
X110680500Y-55499000D01*
X110038400Y-63253100D02*
X110680500Y-62611000D01*
X111308400Y-63812980D02*
X111308400Y-63253100D01*
X127825500Y-38509700D02*
X128473400Y-37861800D01*
X127825500Y-39751000D02*
X127825500Y-38509700D01*
X111950500Y-55626000D02*
X127825500Y-39751000D01*
X111950500Y-62611000D02*
X111950500Y-55626000D01*
X111308400Y-63253100D02*
X111950500Y-62611000D01*
X108768400Y-63812980D02*
X108768400Y-63126100D01*
X125285500Y-38509700D02*
X125933400Y-37861800D01*
X125285500Y-40068500D02*
X125285500Y-38509700D01*
X109410500Y-55943500D02*
X125285500Y-40068500D01*
X109410500Y-62484000D02*
X109410500Y-55943500D01*
X108768400Y-63126100D02*
X109410500Y-62484000D01*
X107498400Y-63812980D02*
X107498400Y-63253100D01*
X124015500Y-38509700D02*
X124663400Y-37861800D01*
X124015500Y-40703500D02*
X124015500Y-38509700D01*
X108140500Y-56578500D02*
X124015500Y-40703500D01*
X108140500Y-62611000D02*
X108140500Y-56578500D01*
X107498400Y-63253100D02*
X108140500Y-62611000D01*
X112578400Y-63812980D02*
X112578400Y-63189600D01*
X129095500Y-38509700D02*
X129743400Y-37861800D01*
X129095500Y-39687500D02*
X129095500Y-38509700D01*
X113220500Y-55562500D02*
X129095500Y-39687500D01*
X113220500Y-62547500D02*
X113220500Y-55562500D01*
X112578400Y-63189600D02*
X113220500Y-62547500D01*
X113848400Y-63812980D02*
X113848400Y-63126100D01*
X130365500Y-38509700D02*
X131013400Y-37861800D01*
X130365500Y-39687500D02*
X130365500Y-38509700D01*
X114490500Y-55562500D02*
X130365500Y-39687500D01*
X114490500Y-62484000D02*
X114490500Y-55562500D01*
X113848400Y-63126100D02*
X114490500Y-62484000D01*
X116388400Y-63812980D02*
X116388400Y-63253100D01*
X132905500Y-38509700D02*
X133553400Y-37861800D01*
X132905500Y-39687500D02*
X132905500Y-38509700D01*
X117030500Y-55562500D02*
X132905500Y-39687500D01*
X117030500Y-62611000D02*
X117030500Y-55562500D01*
X116388400Y-63253100D02*
X117030500Y-62611000D01*
X115118400Y-63812980D02*
X115118400Y-63189600D01*
X131635500Y-38509700D02*
X132283400Y-37861800D01*
X131635500Y-39751000D02*
X131635500Y-38509700D01*
X115760500Y-55626000D02*
X131635500Y-39751000D01*
X115760500Y-62547500D02*
X115760500Y-55626000D01*
X115118400Y-63189600D02*
X115760500Y-62547500D01*
D23*
G36*
X146373000Y-44042865D02*
X146205179Y-43973179D01*
X145796613Y-43972822D01*
X145419011Y-44128844D01*
X145129860Y-44417492D01*
X144973179Y-44794821D01*
X144972822Y-45203387D01*
X145128844Y-45580989D01*
X145417492Y-45870140D01*
X145794821Y-46026821D01*
X146203387Y-46027178D01*
X146373000Y-45957095D01*
X146373000Y-50871497D01*
X143435631Y-50836940D01*
X143480140Y-50792508D01*
X143636821Y-50415179D01*
X143637178Y-50006613D01*
X143481156Y-49629011D01*
X143192508Y-49339860D01*
X142815179Y-49183179D01*
X142406613Y-49182822D01*
X142029011Y-49338844D01*
X141739860Y-49627492D01*
X141583179Y-50004821D01*
X141582822Y-50413387D01*
X141738844Y-50790989D01*
X141765096Y-50817287D01*
X138001494Y-50773009D01*
X137951970Y-50782433D01*
X137910013Y-50810382D01*
X137882237Y-50852452D01*
X137873000Y-50900000D01*
X137873000Y-90773000D01*
X132657155Y-90773000D01*
X132657178Y-90746613D01*
X132501156Y-90369011D01*
X132212508Y-90079860D01*
X131835179Y-89923179D01*
X131426613Y-89922822D01*
X131049011Y-90078844D01*
X130962867Y-90164838D01*
X130940908Y-90142840D01*
X130563579Y-89986159D01*
X130155013Y-89985802D01*
X129777411Y-90141824D01*
X129723559Y-90195583D01*
X129670908Y-90142840D01*
X129293579Y-89986159D01*
X128885013Y-89985802D01*
X128507411Y-90141824D01*
X128453559Y-90195583D01*
X128400908Y-90142840D01*
X128023579Y-89986159D01*
X127615013Y-89985802D01*
X127237411Y-90141824D01*
X127183559Y-90195583D01*
X127130908Y-90142840D01*
X126753579Y-89986159D01*
X126345013Y-89985802D01*
X125967411Y-90141824D01*
X125913559Y-90195583D01*
X125860908Y-90142840D01*
X125483579Y-89986159D01*
X125075013Y-89985802D01*
X124697411Y-90141824D01*
X124643559Y-90195583D01*
X124590908Y-90142840D01*
X124213579Y-89986159D01*
X123805013Y-89985802D01*
X123427411Y-90141824D01*
X123373559Y-90195583D01*
X123320908Y-90142840D01*
X122943579Y-89986159D01*
X122535013Y-89985802D01*
X122157411Y-90141824D01*
X122103559Y-90195583D01*
X122050908Y-90142840D01*
X121673579Y-89986159D01*
X121265013Y-89985802D01*
X120887411Y-90141824D01*
X120833559Y-90195583D01*
X120780908Y-90142840D01*
X120403579Y-89986159D01*
X119995013Y-89985802D01*
X119617411Y-90141824D01*
X119563559Y-90195583D01*
X119510908Y-90142840D01*
X119133579Y-89986159D01*
X118725013Y-89985802D01*
X118347411Y-90141824D01*
X118293559Y-90195583D01*
X118240908Y-90142840D01*
X117863579Y-89986159D01*
X117455013Y-89985802D01*
X117077411Y-90141824D01*
X117023559Y-90195583D01*
X116970908Y-90142840D01*
X116593579Y-89986159D01*
X116185013Y-89985802D01*
X115807411Y-90141824D01*
X115753559Y-90195583D01*
X115700908Y-90142840D01*
X115323579Y-89986159D01*
X114915013Y-89985802D01*
X114537411Y-90141824D01*
X114483559Y-90195583D01*
X114430908Y-90142840D01*
X114053579Y-89986159D01*
X113645013Y-89985802D01*
X113267411Y-90141824D01*
X113213559Y-90195583D01*
X113160908Y-90142840D01*
X112783579Y-89986159D01*
X112375013Y-89985802D01*
X111997411Y-90141824D01*
X111943559Y-90195583D01*
X111890908Y-90142840D01*
X111513579Y-89986159D01*
X111105013Y-89985802D01*
X110727411Y-90141824D01*
X110673559Y-90195583D01*
X110620908Y-90142840D01*
X110243579Y-89986159D01*
X109835013Y-89985802D01*
X109457411Y-90141824D01*
X109403559Y-90195583D01*
X109350908Y-90142840D01*
X108973579Y-89986159D01*
X108565013Y-89985802D01*
X108187411Y-90141824D01*
X108133559Y-90195583D01*
X108080908Y-90142840D01*
X107703579Y-89986159D01*
X107505591Y-89985986D01*
X107512621Y-89969055D01*
X107513177Y-89331741D01*
X107505031Y-89312026D01*
X107701787Y-89312198D01*
X108079389Y-89156176D01*
X108133241Y-89102417D01*
X108185892Y-89155160D01*
X108563221Y-89311841D01*
X108971787Y-89312198D01*
X109349389Y-89156176D01*
X109403241Y-89102417D01*
X109455892Y-89155160D01*
X109833221Y-89311841D01*
X110241787Y-89312198D01*
X110619389Y-89156176D01*
X110673241Y-89102417D01*
X110725892Y-89155160D01*
X111103221Y-89311841D01*
X111511787Y-89312198D01*
X111889389Y-89156176D01*
X111943241Y-89102417D01*
X111995892Y-89155160D01*
X112373221Y-89311841D01*
X112781787Y-89312198D01*
X113159389Y-89156176D01*
X113213241Y-89102417D01*
X113265892Y-89155160D01*
X113643221Y-89311841D01*
X114051787Y-89312198D01*
X114429389Y-89156176D01*
X114483241Y-89102417D01*
X114535892Y-89155160D01*
X114913221Y-89311841D01*
X115321787Y-89312198D01*
X115699389Y-89156176D01*
X115753241Y-89102417D01*
X115805892Y-89155160D01*
X116183221Y-89311841D01*
X116591787Y-89312198D01*
X116969389Y-89156176D01*
X117023241Y-89102417D01*
X117075892Y-89155160D01*
X117453221Y-89311841D01*
X117861787Y-89312198D01*
X118239389Y-89156176D01*
X118293241Y-89102417D01*
X118345892Y-89155160D01*
X118723221Y-89311841D01*
X119131787Y-89312198D01*
X119509389Y-89156176D01*
X119563241Y-89102417D01*
X119615892Y-89155160D01*
X119993221Y-89311841D01*
X120401787Y-89312198D01*
X120779389Y-89156176D01*
X120833241Y-89102417D01*
X120885892Y-89155160D01*
X121263221Y-89311841D01*
X121671787Y-89312198D01*
X122049389Y-89156176D01*
X122103241Y-89102417D01*
X122155892Y-89155160D01*
X122533221Y-89311841D01*
X122941787Y-89312198D01*
X123319389Y-89156176D01*
X123373241Y-89102417D01*
X123425892Y-89155160D01*
X123803221Y-89311841D01*
X124211787Y-89312198D01*
X124589389Y-89156176D01*
X124643241Y-89102417D01*
X124695892Y-89155160D01*
X125073221Y-89311841D01*
X125481787Y-89312198D01*
X125859389Y-89156176D01*
X125913241Y-89102417D01*
X125965892Y-89155160D01*
X126343221Y-89311841D01*
X126751787Y-89312198D01*
X127129389Y-89156176D01*
X127183241Y-89102417D01*
X127235892Y-89155160D01*
X127613221Y-89311841D01*
X128021787Y-89312198D01*
X128399389Y-89156176D01*
X128453241Y-89102417D01*
X128505892Y-89155160D01*
X128883221Y-89311841D01*
X129291787Y-89312198D01*
X129669389Y-89156176D01*
X129723241Y-89102417D01*
X129775892Y-89155160D01*
X130153221Y-89311841D01*
X130561787Y-89312198D01*
X130939389Y-89156176D01*
X130976553Y-89119077D01*
X131047492Y-89190140D01*
X131424821Y-89346821D01*
X131833387Y-89347178D01*
X132210989Y-89191156D01*
X132500140Y-88902508D01*
X132656821Y-88525179D01*
X132657178Y-88116613D01*
X132501156Y-87739011D01*
X132212508Y-87449860D01*
X131835179Y-87293179D01*
X131808065Y-87293155D01*
X123042455Y-78527545D01*
X122911631Y-78440132D01*
X122941787Y-78440158D01*
X123319389Y-78284136D01*
X123373241Y-78230377D01*
X123425892Y-78283120D01*
X123803221Y-78439801D01*
X124211787Y-78440158D01*
X124589389Y-78284136D01*
X124643241Y-78230377D01*
X124695892Y-78283120D01*
X125073221Y-78439801D01*
X125481787Y-78440158D01*
X125859389Y-78284136D01*
X125913241Y-78230377D01*
X125965892Y-78283120D01*
X126343221Y-78439801D01*
X126751787Y-78440158D01*
X127129389Y-78284136D01*
X127183241Y-78230377D01*
X127235892Y-78283120D01*
X127613221Y-78439801D01*
X128021787Y-78440158D01*
X128399389Y-78284136D01*
X128453241Y-78230377D01*
X128505892Y-78283120D01*
X128883221Y-78439801D01*
X129291787Y-78440158D01*
X129669389Y-78284136D01*
X129723241Y-78230377D01*
X129775892Y-78283120D01*
X130153221Y-78439801D01*
X130561787Y-78440158D01*
X130939389Y-78284136D01*
X130993241Y-78230377D01*
X131045892Y-78283120D01*
X131423221Y-78439801D01*
X131831787Y-78440158D01*
X132209389Y-78284136D01*
X132498540Y-77995488D01*
X132655221Y-77618159D01*
X132655578Y-77209593D01*
X132499556Y-76831991D01*
X132480400Y-76812802D01*
X132480400Y-76637400D01*
X132415545Y-76311354D01*
X132230855Y-76034945D01*
X131885793Y-75689883D01*
X132209389Y-75556176D01*
X132498540Y-75267528D01*
X132655221Y-74890199D01*
X132655578Y-74481633D01*
X132499556Y-74104031D01*
X132210908Y-73814880D01*
X131833579Y-73658199D01*
X131801612Y-73658171D01*
X131787645Y-73587953D01*
X131602955Y-73311545D01*
X123076079Y-64784669D01*
X123319389Y-64684136D01*
X123373241Y-64630377D01*
X123425892Y-64683120D01*
X123803221Y-64839801D01*
X124211787Y-64840158D01*
X124589389Y-64684136D01*
X124643241Y-64630377D01*
X124695892Y-64683120D01*
X125073221Y-64839801D01*
X125481787Y-64840158D01*
X125859389Y-64684136D01*
X125913241Y-64630377D01*
X125965892Y-64683120D01*
X126343221Y-64839801D01*
X126751787Y-64840158D01*
X127129389Y-64684136D01*
X127183241Y-64630377D01*
X127235892Y-64683120D01*
X127613221Y-64839801D01*
X128021787Y-64840158D01*
X128399389Y-64684136D01*
X128453241Y-64630377D01*
X128505892Y-64683120D01*
X128883221Y-64839801D01*
X129291787Y-64840158D01*
X129669389Y-64684136D01*
X129723241Y-64630377D01*
X129775892Y-64683120D01*
X130153221Y-64839801D01*
X130561787Y-64840158D01*
X130939389Y-64684136D01*
X130993241Y-64630377D01*
X131045892Y-64683120D01*
X131423221Y-64839801D01*
X131831787Y-64840158D01*
X132209389Y-64684136D01*
X132498540Y-64395488D01*
X132655221Y-64018159D01*
X132655401Y-63812009D01*
X132872955Y-63594455D01*
X133057645Y-63318046D01*
X133122500Y-62992000D01*
X133122500Y-59687160D01*
X133143387Y-59687178D01*
X133520989Y-59531156D01*
X133810140Y-59242508D01*
X133966821Y-58865179D01*
X133967178Y-58456613D01*
X133811156Y-58079011D01*
X133522508Y-57789860D01*
X133145179Y-57633179D01*
X133122500Y-57633159D01*
X133122500Y-55470910D01*
X140900023Y-47693387D01*
X142982822Y-47693387D01*
X143138844Y-48070989D01*
X143427492Y-48360140D01*
X143804821Y-48516821D01*
X144213387Y-48517178D01*
X144590989Y-48361156D01*
X144880140Y-48072508D01*
X145036821Y-47695179D01*
X145037178Y-47286613D01*
X144881156Y-46909011D01*
X144592508Y-46619860D01*
X144215179Y-46463179D01*
X143806613Y-46462822D01*
X143429011Y-46618844D01*
X143139860Y-46907492D01*
X142983179Y-47284821D01*
X142982822Y-47693387D01*
X140900023Y-47693387D01*
X146373000Y-42220410D01*
X146373000Y-44042865D01*
X146373000Y-44042865D01*
G37*
X146373000Y-44042865D02*
X146205179Y-43973179D01*
X145796613Y-43972822D01*
X145419011Y-44128844D01*
X145129860Y-44417492D01*
X144973179Y-44794821D01*
X144972822Y-45203387D01*
X145128844Y-45580989D01*
X145417492Y-45870140D01*
X145794821Y-46026821D01*
X146203387Y-46027178D01*
X146373000Y-45957095D01*
X146373000Y-50871497D01*
X143435631Y-50836940D01*
X143480140Y-50792508D01*
X143636821Y-50415179D01*
X143637178Y-50006613D01*
X143481156Y-49629011D01*
X143192508Y-49339860D01*
X142815179Y-49183179D01*
X142406613Y-49182822D01*
X142029011Y-49338844D01*
X141739860Y-49627492D01*
X141583179Y-50004821D01*
X141582822Y-50413387D01*
X141738844Y-50790989D01*
X141765096Y-50817287D01*
X138001494Y-50773009D01*
X137951970Y-50782433D01*
X137910013Y-50810382D01*
X137882237Y-50852452D01*
X137873000Y-50900000D01*
X137873000Y-90773000D01*
X132657155Y-90773000D01*
X132657178Y-90746613D01*
X132501156Y-90369011D01*
X132212508Y-90079860D01*
X131835179Y-89923179D01*
X131426613Y-89922822D01*
X131049011Y-90078844D01*
X130962867Y-90164838D01*
X130940908Y-90142840D01*
X130563579Y-89986159D01*
X130155013Y-89985802D01*
X129777411Y-90141824D01*
X129723559Y-90195583D01*
X129670908Y-90142840D01*
X129293579Y-89986159D01*
X128885013Y-89985802D01*
X128507411Y-90141824D01*
X128453559Y-90195583D01*
X128400908Y-90142840D01*
X128023579Y-89986159D01*
X127615013Y-89985802D01*
X127237411Y-90141824D01*
X127183559Y-90195583D01*
X127130908Y-90142840D01*
X126753579Y-89986159D01*
X126345013Y-89985802D01*
X125967411Y-90141824D01*
X125913559Y-90195583D01*
X125860908Y-90142840D01*
X125483579Y-89986159D01*
X125075013Y-89985802D01*
X124697411Y-90141824D01*
X124643559Y-90195583D01*
X124590908Y-90142840D01*
X124213579Y-89986159D01*
X123805013Y-89985802D01*
X123427411Y-90141824D01*
X123373559Y-90195583D01*
X123320908Y-90142840D01*
X122943579Y-89986159D01*
X122535013Y-89985802D01*
X122157411Y-90141824D01*
X122103559Y-90195583D01*
X122050908Y-90142840D01*
X121673579Y-89986159D01*
X121265013Y-89985802D01*
X120887411Y-90141824D01*
X120833559Y-90195583D01*
X120780908Y-90142840D01*
X120403579Y-89986159D01*
X119995013Y-89985802D01*
X119617411Y-90141824D01*
X119563559Y-90195583D01*
X119510908Y-90142840D01*
X119133579Y-89986159D01*
X118725013Y-89985802D01*
X118347411Y-90141824D01*
X118293559Y-90195583D01*
X118240908Y-90142840D01*
X117863579Y-89986159D01*
X117455013Y-89985802D01*
X117077411Y-90141824D01*
X117023559Y-90195583D01*
X116970908Y-90142840D01*
X116593579Y-89986159D01*
X116185013Y-89985802D01*
X115807411Y-90141824D01*
X115753559Y-90195583D01*
X115700908Y-90142840D01*
X115323579Y-89986159D01*
X114915013Y-89985802D01*
X114537411Y-90141824D01*
X114483559Y-90195583D01*
X114430908Y-90142840D01*
X114053579Y-89986159D01*
X113645013Y-89985802D01*
X113267411Y-90141824D01*
X113213559Y-90195583D01*
X113160908Y-90142840D01*
X112783579Y-89986159D01*
X112375013Y-89985802D01*
X111997411Y-90141824D01*
X111943559Y-90195583D01*
X111890908Y-90142840D01*
X111513579Y-89986159D01*
X111105013Y-89985802D01*
X110727411Y-90141824D01*
X110673559Y-90195583D01*
X110620908Y-90142840D01*
X110243579Y-89986159D01*
X109835013Y-89985802D01*
X109457411Y-90141824D01*
X109403559Y-90195583D01*
X109350908Y-90142840D01*
X108973579Y-89986159D01*
X108565013Y-89985802D01*
X108187411Y-90141824D01*
X108133559Y-90195583D01*
X108080908Y-90142840D01*
X107703579Y-89986159D01*
X107505591Y-89985986D01*
X107512621Y-89969055D01*
X107513177Y-89331741D01*
X107505031Y-89312026D01*
X107701787Y-89312198D01*
X108079389Y-89156176D01*
X108133241Y-89102417D01*
X108185892Y-89155160D01*
X108563221Y-89311841D01*
X108971787Y-89312198D01*
X109349389Y-89156176D01*
X109403241Y-89102417D01*
X109455892Y-89155160D01*
X109833221Y-89311841D01*
X110241787Y-89312198D01*
X110619389Y-89156176D01*
X110673241Y-89102417D01*
X110725892Y-89155160D01*
X111103221Y-89311841D01*
X111511787Y-89312198D01*
X111889389Y-89156176D01*
X111943241Y-89102417D01*
X111995892Y-89155160D01*
X112373221Y-89311841D01*
X112781787Y-89312198D01*
X113159389Y-89156176D01*
X113213241Y-89102417D01*
X113265892Y-89155160D01*
X113643221Y-89311841D01*
X114051787Y-89312198D01*
X114429389Y-89156176D01*
X114483241Y-89102417D01*
X114535892Y-89155160D01*
X114913221Y-89311841D01*
X115321787Y-89312198D01*
X115699389Y-89156176D01*
X115753241Y-89102417D01*
X115805892Y-89155160D01*
X116183221Y-89311841D01*
X116591787Y-89312198D01*
X116969389Y-89156176D01*
X117023241Y-89102417D01*
X117075892Y-89155160D01*
X117453221Y-89311841D01*
X117861787Y-89312198D01*
X118239389Y-89156176D01*
X118293241Y-89102417D01*
X118345892Y-89155160D01*
X118723221Y-89311841D01*
X119131787Y-89312198D01*
X119509389Y-89156176D01*
X119563241Y-89102417D01*
X119615892Y-89155160D01*
X119993221Y-89311841D01*
X120401787Y-89312198D01*
X120779389Y-89156176D01*
X120833241Y-89102417D01*
X120885892Y-89155160D01*
X121263221Y-89311841D01*
X121671787Y-89312198D01*
X122049389Y-89156176D01*
X122103241Y-89102417D01*
X122155892Y-89155160D01*
X122533221Y-89311841D01*
X122941787Y-89312198D01*
X123319389Y-89156176D01*
X123373241Y-89102417D01*
X123425892Y-89155160D01*
X123803221Y-89311841D01*
X124211787Y-89312198D01*
X124589389Y-89156176D01*
X124643241Y-89102417D01*
X124695892Y-89155160D01*
X125073221Y-89311841D01*
X125481787Y-89312198D01*
X125859389Y-89156176D01*
X125913241Y-89102417D01*
X125965892Y-89155160D01*
X126343221Y-89311841D01*
X126751787Y-89312198D01*
X127129389Y-89156176D01*
X127183241Y-89102417D01*
X127235892Y-89155160D01*
X127613221Y-89311841D01*
X128021787Y-89312198D01*
X128399389Y-89156176D01*
X128453241Y-89102417D01*
X128505892Y-89155160D01*
X128883221Y-89311841D01*
X129291787Y-89312198D01*
X129669389Y-89156176D01*
X129723241Y-89102417D01*
X129775892Y-89155160D01*
X130153221Y-89311841D01*
X130561787Y-89312198D01*
X130939389Y-89156176D01*
X130976553Y-89119077D01*
X131047492Y-89190140D01*
X131424821Y-89346821D01*
X131833387Y-89347178D01*
X132210989Y-89191156D01*
X132500140Y-88902508D01*
X132656821Y-88525179D01*
X132657178Y-88116613D01*
X132501156Y-87739011D01*
X132212508Y-87449860D01*
X131835179Y-87293179D01*
X131808065Y-87293155D01*
X123042455Y-78527545D01*
X122911631Y-78440132D01*
X122941787Y-78440158D01*
X123319389Y-78284136D01*
X123373241Y-78230377D01*
X123425892Y-78283120D01*
X123803221Y-78439801D01*
X124211787Y-78440158D01*
X124589389Y-78284136D01*
X124643241Y-78230377D01*
X124695892Y-78283120D01*
X125073221Y-78439801D01*
X125481787Y-78440158D01*
X125859389Y-78284136D01*
X125913241Y-78230377D01*
X125965892Y-78283120D01*
X126343221Y-78439801D01*
X126751787Y-78440158D01*
X127129389Y-78284136D01*
X127183241Y-78230377D01*
X127235892Y-78283120D01*
X127613221Y-78439801D01*
X128021787Y-78440158D01*
X128399389Y-78284136D01*
X128453241Y-78230377D01*
X128505892Y-78283120D01*
X128883221Y-78439801D01*
X129291787Y-78440158D01*
X129669389Y-78284136D01*
X129723241Y-78230377D01*
X129775892Y-78283120D01*
X130153221Y-78439801D01*
X130561787Y-78440158D01*
X130939389Y-78284136D01*
X130993241Y-78230377D01*
X131045892Y-78283120D01*
X131423221Y-78439801D01*
X131831787Y-78440158D01*
X132209389Y-78284136D01*
X132498540Y-77995488D01*
X132655221Y-77618159D01*
X132655578Y-77209593D01*
X132499556Y-76831991D01*
X132480400Y-76812802D01*
X132480400Y-76637400D01*
X132415545Y-76311354D01*
X132230855Y-76034945D01*
X131885793Y-75689883D01*
X132209389Y-75556176D01*
X132498540Y-75267528D01*
X132655221Y-74890199D01*
X132655578Y-74481633D01*
X132499556Y-74104031D01*
X132210908Y-73814880D01*
X131833579Y-73658199D01*
X131801612Y-73658171D01*
X131787645Y-73587953D01*
X131602955Y-73311545D01*
X123076079Y-64784669D01*
X123319389Y-64684136D01*
X123373241Y-64630377D01*
X123425892Y-64683120D01*
X123803221Y-64839801D01*
X124211787Y-64840158D01*
X124589389Y-64684136D01*
X124643241Y-64630377D01*
X124695892Y-64683120D01*
X125073221Y-64839801D01*
X125481787Y-64840158D01*
X125859389Y-64684136D01*
X125913241Y-64630377D01*
X125965892Y-64683120D01*
X126343221Y-64839801D01*
X126751787Y-64840158D01*
X127129389Y-64684136D01*
X127183241Y-64630377D01*
X127235892Y-64683120D01*
X127613221Y-64839801D01*
X128021787Y-64840158D01*
X128399389Y-64684136D01*
X128453241Y-64630377D01*
X128505892Y-64683120D01*
X128883221Y-64839801D01*
X129291787Y-64840158D01*
X129669389Y-64684136D01*
X129723241Y-64630377D01*
X129775892Y-64683120D01*
X130153221Y-64839801D01*
X130561787Y-64840158D01*
X130939389Y-64684136D01*
X130993241Y-64630377D01*
X131045892Y-64683120D01*
X131423221Y-64839801D01*
X131831787Y-64840158D01*
X132209389Y-64684136D01*
X132498540Y-64395488D01*
X132655221Y-64018159D01*
X132655401Y-63812009D01*
X132872955Y-63594455D01*
X133057645Y-63318046D01*
X133122500Y-62992000D01*
X133122500Y-59687160D01*
X133143387Y-59687178D01*
X133520989Y-59531156D01*
X133810140Y-59242508D01*
X133966821Y-58865179D01*
X133967178Y-58456613D01*
X133811156Y-58079011D01*
X133522508Y-57789860D01*
X133145179Y-57633179D01*
X133122500Y-57633159D01*
X133122500Y-55470910D01*
X140900023Y-47693387D01*
X142982822Y-47693387D01*
X143138844Y-48070989D01*
X143427492Y-48360140D01*
X143804821Y-48516821D01*
X144213387Y-48517178D01*
X144590989Y-48361156D01*
X144880140Y-48072508D01*
X145036821Y-47695179D01*
X145037178Y-47286613D01*
X144881156Y-46909011D01*
X144592508Y-46619860D01*
X144215179Y-46463179D01*
X143806613Y-46462822D01*
X143429011Y-46618844D01*
X143139860Y-46907492D01*
X142983179Y-47284821D01*
X142982822Y-47693387D01*
X140900023Y-47693387D01*
X146373000Y-42220410D01*
X146373000Y-44042865D01*
G36*
X153198000Y-41873000D02*
X151775124Y-41873000D01*
X151564888Y-41662397D01*
X150551207Y-41241480D01*
X149453609Y-41240522D01*
X148439194Y-41659670D01*
X148225491Y-41873000D01*
X146720410Y-41873000D01*
X147776737Y-40816673D01*
X147900046Y-40792145D01*
X148176455Y-40607455D01*
X148607772Y-40176138D01*
X149000252Y-40176481D01*
X149384289Y-40017800D01*
X149678368Y-39724234D01*
X149837718Y-39340475D01*
X149838081Y-38924948D01*
X149729335Y-38661763D01*
X149833316Y-38557963D01*
X150020567Y-38107012D01*
X150020993Y-37618730D01*
X149834529Y-37167453D01*
X149489563Y-36821884D01*
X149038612Y-36634633D01*
X148550330Y-36634207D01*
X148157992Y-36796318D01*
X147768612Y-36634633D01*
X147280330Y-36634207D01*
X146887992Y-36796318D01*
X146498612Y-36634633D01*
X146010330Y-36634207D01*
X145617992Y-36796318D01*
X145228612Y-36634633D01*
X144740330Y-36634207D01*
X144347992Y-36796318D01*
X143958612Y-36634633D01*
X143470330Y-36634207D01*
X143077992Y-36796318D01*
X142688612Y-36634633D01*
X142200330Y-36634207D01*
X141807992Y-36796318D01*
X141418612Y-36634633D01*
X140930330Y-36634207D01*
X140537992Y-36796318D01*
X140148612Y-36634633D01*
X139660330Y-36634207D01*
X139267992Y-36796318D01*
X138878612Y-36634633D01*
X138390330Y-36634207D01*
X137997992Y-36796318D01*
X137608612Y-36634633D01*
X137120330Y-36634207D01*
X136727992Y-36796318D01*
X136338612Y-36634633D01*
X135850330Y-36634207D01*
X135457992Y-36796318D01*
X135068612Y-36634633D01*
X134580330Y-36634207D01*
X134187992Y-36796318D01*
X133798612Y-36634633D01*
X133310330Y-36634207D01*
X132917992Y-36796318D01*
X132528612Y-36634633D01*
X132040330Y-36634207D01*
X131647992Y-36796318D01*
X131258612Y-36634633D01*
X130770330Y-36634207D01*
X130377992Y-36796318D01*
X129988612Y-36634633D01*
X129500330Y-36634207D01*
X129107992Y-36796318D01*
X128718612Y-36634633D01*
X128230330Y-36634207D01*
X127837992Y-36796318D01*
X127448612Y-36634633D01*
X126960330Y-36634207D01*
X126567992Y-36796318D01*
X126178612Y-36634633D01*
X125690330Y-36634207D01*
X125297992Y-36796318D01*
X124908612Y-36634633D01*
X124420330Y-36634207D01*
X123969053Y-36820671D01*
X123623484Y-37165637D01*
X123436233Y-37616588D01*
X123435999Y-37884291D01*
X123413045Y-37907245D01*
X123228355Y-38183654D01*
X123163500Y-38509700D01*
X123163500Y-40350590D01*
X121483281Y-42030809D01*
X121382508Y-41929860D01*
X121005179Y-41773179D01*
X120827024Y-41773023D01*
X120827178Y-41596613D01*
X120671156Y-41219011D01*
X120382508Y-40929860D01*
X120020046Y-40779352D01*
X119871156Y-40419011D01*
X119582508Y-40129860D01*
X119205179Y-39973179D01*
X118796613Y-39972822D01*
X118419011Y-40128844D01*
X118129860Y-40417492D01*
X117973179Y-40794821D01*
X117972822Y-41203387D01*
X118128844Y-41580989D01*
X118417492Y-41870140D01*
X118779954Y-42020648D01*
X118928844Y-42380989D01*
X119217492Y-42670140D01*
X119594821Y-42826821D01*
X119772976Y-42826977D01*
X119772822Y-43003387D01*
X119928844Y-43380989D01*
X120030884Y-43483206D01*
X107538045Y-55976045D01*
X107353355Y-56252454D01*
X107288500Y-56578500D01*
X107288500Y-60060533D01*
X106917411Y-60213864D01*
X106628260Y-60502512D01*
X106471579Y-60879841D01*
X106471520Y-60947170D01*
X106230955Y-60847279D01*
X105593641Y-60846723D01*
X105004625Y-61090099D01*
X104832026Y-61262397D01*
X104832026Y-45470884D01*
X106409523Y-43893387D01*
X114172822Y-43893387D01*
X114328844Y-44270989D01*
X114617492Y-44560140D01*
X114994821Y-44716821D01*
X115403387Y-44717178D01*
X115780989Y-44561156D01*
X116070140Y-44272508D01*
X116226821Y-43895179D01*
X116227178Y-43486613D01*
X116071156Y-43109011D01*
X115782508Y-42819860D01*
X115405179Y-42663179D01*
X114996613Y-42662822D01*
X114619011Y-42818844D01*
X114329860Y-43107492D01*
X114173179Y-43484821D01*
X114172822Y-43893387D01*
X106409523Y-43893387D01*
X110126639Y-40176271D01*
X110366852Y-40176481D01*
X110630037Y-40067735D01*
X110733837Y-40171716D01*
X111184788Y-40358967D01*
X111673070Y-40359393D01*
X112065408Y-40197282D01*
X112454788Y-40358967D01*
X112943070Y-40359393D01*
X113335408Y-40197282D01*
X113724788Y-40358967D01*
X114213070Y-40359393D01*
X114605408Y-40197282D01*
X114994788Y-40358967D01*
X115483070Y-40359393D01*
X115934347Y-40172929D01*
X116279916Y-39827963D01*
X116467167Y-39377012D01*
X116467593Y-38888730D01*
X116305482Y-38496392D01*
X116467167Y-38107012D01*
X116467593Y-37618730D01*
X116281129Y-37167453D01*
X115936163Y-36821884D01*
X115485212Y-36634633D01*
X114996930Y-36634207D01*
X114604592Y-36796318D01*
X114215212Y-36634633D01*
X113726930Y-36634207D01*
X113275653Y-36820671D01*
X113248408Y-36847869D01*
X112845120Y-36713309D01*
X112394565Y-36745198D01*
X112150521Y-36846284D01*
X112126163Y-36821884D01*
X111675212Y-36634633D01*
X111186930Y-36634207D01*
X110735653Y-36820671D01*
X110708408Y-36847869D01*
X110305120Y-36713309D01*
X109854565Y-36745198D01*
X109610521Y-36846284D01*
X109586163Y-36821884D01*
X109135212Y-36634633D01*
X108646930Y-36634207D01*
X108254592Y-36796318D01*
X107865212Y-36634633D01*
X107376930Y-36634207D01*
X106984592Y-36796318D01*
X106595212Y-36634633D01*
X106106930Y-36634207D01*
X105714592Y-36796318D01*
X105325212Y-36634633D01*
X104836930Y-36634207D01*
X104444592Y-36796318D01*
X104055212Y-36634633D01*
X103566930Y-36634207D01*
X103174592Y-36796318D01*
X102785212Y-36634633D01*
X102296930Y-36634207D01*
X101904592Y-36796318D01*
X101515212Y-36634633D01*
X101026930Y-36634207D01*
X100634592Y-36796318D01*
X100245212Y-36634633D01*
X99756930Y-36634207D01*
X99364592Y-36796318D01*
X98975212Y-36634633D01*
X98486930Y-36634207D01*
X98094592Y-36796318D01*
X97705212Y-36634633D01*
X97216930Y-36634207D01*
X96824592Y-36796318D01*
X96435212Y-36634633D01*
X95946930Y-36634207D01*
X95554592Y-36796318D01*
X95165212Y-36634633D01*
X94676930Y-36634207D01*
X94284592Y-36796318D01*
X93895212Y-36634633D01*
X93406930Y-36634207D01*
X93014592Y-36796318D01*
X92625212Y-36634633D01*
X92136930Y-36634207D01*
X91744592Y-36796318D01*
X91355212Y-36634633D01*
X90866930Y-36634207D01*
X90474592Y-36796318D01*
X90085212Y-36634633D01*
X89596930Y-36634207D01*
X89204592Y-36796318D01*
X88815212Y-36634633D01*
X88326930Y-36634207D01*
X87934592Y-36796318D01*
X87545212Y-36634633D01*
X87056930Y-36634207D01*
X86664592Y-36796318D01*
X86275212Y-36634633D01*
X85786930Y-36634207D01*
X85394592Y-36796318D01*
X85005212Y-36634633D01*
X84516930Y-36634207D01*
X84065653Y-36820671D01*
X83720084Y-37165637D01*
X83532833Y-37616588D01*
X83532407Y-38104870D01*
X83718871Y-38556147D01*
X83824236Y-38661696D01*
X83715682Y-38923125D01*
X83715319Y-39338652D01*
X83874000Y-39722689D01*
X84167566Y-40016768D01*
X84551325Y-40176118D01*
X84729086Y-40176273D01*
X84805045Y-40289955D01*
X95337988Y-50822898D01*
X95337988Y-54153092D01*
X79761941Y-38577045D01*
X79485532Y-38392355D01*
X79159486Y-38327500D01*
X76737116Y-38327500D01*
X76719008Y-38309360D01*
X76514932Y-38224620D01*
X76563767Y-38107012D01*
X76564193Y-37618730D01*
X76377729Y-37167453D01*
X76032763Y-36821884D01*
X75581812Y-36634633D01*
X75093530Y-36634207D01*
X74701192Y-36796318D01*
X74311812Y-36634633D01*
X73823530Y-36634207D01*
X73431192Y-36796318D01*
X73041812Y-36634633D01*
X72553530Y-36634207D01*
X72161192Y-36796318D01*
X71771812Y-36634633D01*
X71283530Y-36634207D01*
X70891192Y-36796318D01*
X70501812Y-36634633D01*
X70013530Y-36634207D01*
X69621192Y-36796318D01*
X69231812Y-36634633D01*
X68743530Y-36634207D01*
X68351192Y-36796318D01*
X67961812Y-36634633D01*
X67473530Y-36634207D01*
X67081192Y-36796318D01*
X66691812Y-36634633D01*
X66203530Y-36634207D01*
X65811192Y-36796318D01*
X65421812Y-36634633D01*
X64933530Y-36634207D01*
X64541192Y-36796318D01*
X64151812Y-36634633D01*
X63663530Y-36634207D01*
X63271192Y-36796318D01*
X62881812Y-36634633D01*
X62393530Y-36634207D01*
X62001192Y-36796318D01*
X61611812Y-36634633D01*
X61123530Y-36634207D01*
X60731192Y-36796318D01*
X60341812Y-36634633D01*
X59853530Y-36634207D01*
X59461192Y-36796318D01*
X59071812Y-36634633D01*
X58583530Y-36634207D01*
X58191192Y-36796318D01*
X57801812Y-36634633D01*
X57313530Y-36634207D01*
X56921192Y-36796318D01*
X56531812Y-36634633D01*
X56043530Y-36634207D01*
X55651192Y-36796318D01*
X55261812Y-36634633D01*
X54773530Y-36634207D01*
X54381192Y-36796318D01*
X53991812Y-36634633D01*
X53503530Y-36634207D01*
X53111192Y-36796318D01*
X52721812Y-36634633D01*
X52233530Y-36634207D01*
X51841192Y-36796318D01*
X51451812Y-36634633D01*
X50963530Y-36634207D01*
X50512253Y-36820671D01*
X50166684Y-37165637D01*
X49979433Y-37616588D01*
X49979007Y-38104870D01*
X50141118Y-38497208D01*
X49979433Y-38886588D01*
X49979007Y-39374870D01*
X50165471Y-39826147D01*
X50510437Y-40171716D01*
X50961388Y-40358967D01*
X51423968Y-40359371D01*
X51423822Y-40525887D01*
X51579844Y-40903489D01*
X51868492Y-41192640D01*
X52245821Y-41349321D01*
X52654387Y-41349678D01*
X53031989Y-41193656D01*
X53085841Y-41139897D01*
X53138492Y-41192640D01*
X53515821Y-41349321D01*
X53924387Y-41349678D01*
X54301989Y-41193656D01*
X54355841Y-41139897D01*
X54408492Y-41192640D01*
X54785821Y-41349321D01*
X55194387Y-41349678D01*
X55571989Y-41193656D01*
X55625841Y-41139897D01*
X55678492Y-41192640D01*
X56055821Y-41349321D01*
X56464387Y-41349678D01*
X56841989Y-41193656D01*
X56895841Y-41139897D01*
X56948492Y-41192640D01*
X57325821Y-41349321D01*
X57607157Y-41349567D01*
X61630590Y-45373000D01*
X53457135Y-45373000D01*
X53526821Y-45205179D01*
X53527178Y-44796613D01*
X53371156Y-44419011D01*
X53082508Y-44129860D01*
X52759005Y-43995530D01*
X52759478Y-43453609D01*
X52340330Y-42439194D01*
X51564888Y-41662397D01*
X50551207Y-41241480D01*
X49453609Y-41240522D01*
X48439194Y-41659670D01*
X47662397Y-42435112D01*
X47241480Y-43448793D01*
X47241284Y-43673123D01*
X46896613Y-43672822D01*
X46802000Y-43711915D01*
X46802000Y-32052000D01*
X153198000Y-32052000D01*
X153198000Y-41873000D01*
X153198000Y-41873000D01*
G37*
X153198000Y-41873000D02*
X151775124Y-41873000D01*
X151564888Y-41662397D01*
X150551207Y-41241480D01*
X149453609Y-41240522D01*
X148439194Y-41659670D01*
X148225491Y-41873000D01*
X146720410Y-41873000D01*
X147776737Y-40816673D01*
X147900046Y-40792145D01*
X148176455Y-40607455D01*
X148607772Y-40176138D01*
X149000252Y-40176481D01*
X149384289Y-40017800D01*
X149678368Y-39724234D01*
X149837718Y-39340475D01*
X149838081Y-38924948D01*
X149729335Y-38661763D01*
X149833316Y-38557963D01*
X150020567Y-38107012D01*
X150020993Y-37618730D01*
X149834529Y-37167453D01*
X149489563Y-36821884D01*
X149038612Y-36634633D01*
X148550330Y-36634207D01*
X148157992Y-36796318D01*
X147768612Y-36634633D01*
X147280330Y-36634207D01*
X146887992Y-36796318D01*
X146498612Y-36634633D01*
X146010330Y-36634207D01*
X145617992Y-36796318D01*
X145228612Y-36634633D01*
X144740330Y-36634207D01*
X144347992Y-36796318D01*
X143958612Y-36634633D01*
X143470330Y-36634207D01*
X143077992Y-36796318D01*
X142688612Y-36634633D01*
X142200330Y-36634207D01*
X141807992Y-36796318D01*
X141418612Y-36634633D01*
X140930330Y-36634207D01*
X140537992Y-36796318D01*
X140148612Y-36634633D01*
X139660330Y-36634207D01*
X139267992Y-36796318D01*
X138878612Y-36634633D01*
X138390330Y-36634207D01*
X137997992Y-36796318D01*
X137608612Y-36634633D01*
X137120330Y-36634207D01*
X136727992Y-36796318D01*
X136338612Y-36634633D01*
X135850330Y-36634207D01*
X135457992Y-36796318D01*
X135068612Y-36634633D01*
X134580330Y-36634207D01*
X134187992Y-36796318D01*
X133798612Y-36634633D01*
X133310330Y-36634207D01*
X132917992Y-36796318D01*
X132528612Y-36634633D01*
X132040330Y-36634207D01*
X131647992Y-36796318D01*
X131258612Y-36634633D01*
X130770330Y-36634207D01*
X130377992Y-36796318D01*
X129988612Y-36634633D01*
X129500330Y-36634207D01*
X129107992Y-36796318D01*
X128718612Y-36634633D01*
X128230330Y-36634207D01*
X127837992Y-36796318D01*
X127448612Y-36634633D01*
X126960330Y-36634207D01*
X126567992Y-36796318D01*
X126178612Y-36634633D01*
X125690330Y-36634207D01*
X125297992Y-36796318D01*
X124908612Y-36634633D01*
X124420330Y-36634207D01*
X123969053Y-36820671D01*
X123623484Y-37165637D01*
X123436233Y-37616588D01*
X123435999Y-37884291D01*
X123413045Y-37907245D01*
X123228355Y-38183654D01*
X123163500Y-38509700D01*
X123163500Y-40350590D01*
X121483281Y-42030809D01*
X121382508Y-41929860D01*
X121005179Y-41773179D01*
X120827024Y-41773023D01*
X120827178Y-41596613D01*
X120671156Y-41219011D01*
X120382508Y-40929860D01*
X120020046Y-40779352D01*
X119871156Y-40419011D01*
X119582508Y-40129860D01*
X119205179Y-39973179D01*
X118796613Y-39972822D01*
X118419011Y-40128844D01*
X118129860Y-40417492D01*
X117973179Y-40794821D01*
X117972822Y-41203387D01*
X118128844Y-41580989D01*
X118417492Y-41870140D01*
X118779954Y-42020648D01*
X118928844Y-42380989D01*
X119217492Y-42670140D01*
X119594821Y-42826821D01*
X119772976Y-42826977D01*
X119772822Y-43003387D01*
X119928844Y-43380989D01*
X120030884Y-43483206D01*
X107538045Y-55976045D01*
X107353355Y-56252454D01*
X107288500Y-56578500D01*
X107288500Y-60060533D01*
X106917411Y-60213864D01*
X106628260Y-60502512D01*
X106471579Y-60879841D01*
X106471520Y-60947170D01*
X106230955Y-60847279D01*
X105593641Y-60846723D01*
X105004625Y-61090099D01*
X104832026Y-61262397D01*
X104832026Y-45470884D01*
X106409523Y-43893387D01*
X114172822Y-43893387D01*
X114328844Y-44270989D01*
X114617492Y-44560140D01*
X114994821Y-44716821D01*
X115403387Y-44717178D01*
X115780989Y-44561156D01*
X116070140Y-44272508D01*
X116226821Y-43895179D01*
X116227178Y-43486613D01*
X116071156Y-43109011D01*
X115782508Y-42819860D01*
X115405179Y-42663179D01*
X114996613Y-42662822D01*
X114619011Y-42818844D01*
X114329860Y-43107492D01*
X114173179Y-43484821D01*
X114172822Y-43893387D01*
X106409523Y-43893387D01*
X110126639Y-40176271D01*
X110366852Y-40176481D01*
X110630037Y-40067735D01*
X110733837Y-40171716D01*
X111184788Y-40358967D01*
X111673070Y-40359393D01*
X112065408Y-40197282D01*
X112454788Y-40358967D01*
X112943070Y-40359393D01*
X113335408Y-40197282D01*
X113724788Y-40358967D01*
X114213070Y-40359393D01*
X114605408Y-40197282D01*
X114994788Y-40358967D01*
X115483070Y-40359393D01*
X115934347Y-40172929D01*
X116279916Y-39827963D01*
X116467167Y-39377012D01*
X116467593Y-38888730D01*
X116305482Y-38496392D01*
X116467167Y-38107012D01*
X116467593Y-37618730D01*
X116281129Y-37167453D01*
X115936163Y-36821884D01*
X115485212Y-36634633D01*
X114996930Y-36634207D01*
X114604592Y-36796318D01*
X114215212Y-36634633D01*
X113726930Y-36634207D01*
X113275653Y-36820671D01*
X113248408Y-36847869D01*
X112845120Y-36713309D01*
X112394565Y-36745198D01*
X112150521Y-36846284D01*
X112126163Y-36821884D01*
X111675212Y-36634633D01*
X111186930Y-36634207D01*
X110735653Y-36820671D01*
X110708408Y-36847869D01*
X110305120Y-36713309D01*
X109854565Y-36745198D01*
X109610521Y-36846284D01*
X109586163Y-36821884D01*
X109135212Y-36634633D01*
X108646930Y-36634207D01*
X108254592Y-36796318D01*
X107865212Y-36634633D01*
X107376930Y-36634207D01*
X106984592Y-36796318D01*
X106595212Y-36634633D01*
X106106930Y-36634207D01*
X105714592Y-36796318D01*
X105325212Y-36634633D01*
X104836930Y-36634207D01*
X104444592Y-36796318D01*
X104055212Y-36634633D01*
X103566930Y-36634207D01*
X103174592Y-36796318D01*
X102785212Y-36634633D01*
X102296930Y-36634207D01*
X101904592Y-36796318D01*
X101515212Y-36634633D01*
X101026930Y-36634207D01*
X100634592Y-36796318D01*
X100245212Y-36634633D01*
X99756930Y-36634207D01*
X99364592Y-36796318D01*
X98975212Y-36634633D01*
X98486930Y-36634207D01*
X98094592Y-36796318D01*
X97705212Y-36634633D01*
X97216930Y-36634207D01*
X96824592Y-36796318D01*
X96435212Y-36634633D01*
X95946930Y-36634207D01*
X95554592Y-36796318D01*
X95165212Y-36634633D01*
X94676930Y-36634207D01*
X94284592Y-36796318D01*
X93895212Y-36634633D01*
X93406930Y-36634207D01*
X93014592Y-36796318D01*
X92625212Y-36634633D01*
X92136930Y-36634207D01*
X91744592Y-36796318D01*
X91355212Y-36634633D01*
X90866930Y-36634207D01*
X90474592Y-36796318D01*
X90085212Y-36634633D01*
X89596930Y-36634207D01*
X89204592Y-36796318D01*
X88815212Y-36634633D01*
X88326930Y-36634207D01*
X87934592Y-36796318D01*
X87545212Y-36634633D01*
X87056930Y-36634207D01*
X86664592Y-36796318D01*
X86275212Y-36634633D01*
X85786930Y-36634207D01*
X85394592Y-36796318D01*
X85005212Y-36634633D01*
X84516930Y-36634207D01*
X84065653Y-36820671D01*
X83720084Y-37165637D01*
X83532833Y-37616588D01*
X83532407Y-38104870D01*
X83718871Y-38556147D01*
X83824236Y-38661696D01*
X83715682Y-38923125D01*
X83715319Y-39338652D01*
X83874000Y-39722689D01*
X84167566Y-40016768D01*
X84551325Y-40176118D01*
X84729086Y-40176273D01*
X84805045Y-40289955D01*
X95337988Y-50822898D01*
X95337988Y-54153092D01*
X79761941Y-38577045D01*
X79485532Y-38392355D01*
X79159486Y-38327500D01*
X76737116Y-38327500D01*
X76719008Y-38309360D01*
X76514932Y-38224620D01*
X76563767Y-38107012D01*
X76564193Y-37618730D01*
X76377729Y-37167453D01*
X76032763Y-36821884D01*
X75581812Y-36634633D01*
X75093530Y-36634207D01*
X74701192Y-36796318D01*
X74311812Y-36634633D01*
X73823530Y-36634207D01*
X73431192Y-36796318D01*
X73041812Y-36634633D01*
X72553530Y-36634207D01*
X72161192Y-36796318D01*
X71771812Y-36634633D01*
X71283530Y-36634207D01*
X70891192Y-36796318D01*
X70501812Y-36634633D01*
X70013530Y-36634207D01*
X69621192Y-36796318D01*
X69231812Y-36634633D01*
X68743530Y-36634207D01*
X68351192Y-36796318D01*
X67961812Y-36634633D01*
X67473530Y-36634207D01*
X67081192Y-36796318D01*
X66691812Y-36634633D01*
X66203530Y-36634207D01*
X65811192Y-36796318D01*
X65421812Y-36634633D01*
X64933530Y-36634207D01*
X64541192Y-36796318D01*
X64151812Y-36634633D01*
X63663530Y-36634207D01*
X63271192Y-36796318D01*
X62881812Y-36634633D01*
X62393530Y-36634207D01*
X62001192Y-36796318D01*
X61611812Y-36634633D01*
X61123530Y-36634207D01*
X60731192Y-36796318D01*
X60341812Y-36634633D01*
X59853530Y-36634207D01*
X59461192Y-36796318D01*
X59071812Y-36634633D01*
X58583530Y-36634207D01*
X58191192Y-36796318D01*
X57801812Y-36634633D01*
X57313530Y-36634207D01*
X56921192Y-36796318D01*
X56531812Y-36634633D01*
X56043530Y-36634207D01*
X55651192Y-36796318D01*
X55261812Y-36634633D01*
X54773530Y-36634207D01*
X54381192Y-36796318D01*
X53991812Y-36634633D01*
X53503530Y-36634207D01*
X53111192Y-36796318D01*
X52721812Y-36634633D01*
X52233530Y-36634207D01*
X51841192Y-36796318D01*
X51451812Y-36634633D01*
X50963530Y-36634207D01*
X50512253Y-36820671D01*
X50166684Y-37165637D01*
X49979433Y-37616588D01*
X49979007Y-38104870D01*
X50141118Y-38497208D01*
X49979433Y-38886588D01*
X49979007Y-39374870D01*
X50165471Y-39826147D01*
X50510437Y-40171716D01*
X50961388Y-40358967D01*
X51423968Y-40359371D01*
X51423822Y-40525887D01*
X51579844Y-40903489D01*
X51868492Y-41192640D01*
X52245821Y-41349321D01*
X52654387Y-41349678D01*
X53031989Y-41193656D01*
X53085841Y-41139897D01*
X53138492Y-41192640D01*
X53515821Y-41349321D01*
X53924387Y-41349678D01*
X54301989Y-41193656D01*
X54355841Y-41139897D01*
X54408492Y-41192640D01*
X54785821Y-41349321D01*
X55194387Y-41349678D01*
X55571989Y-41193656D01*
X55625841Y-41139897D01*
X55678492Y-41192640D01*
X56055821Y-41349321D01*
X56464387Y-41349678D01*
X56841989Y-41193656D01*
X56895841Y-41139897D01*
X56948492Y-41192640D01*
X57325821Y-41349321D01*
X57607157Y-41349567D01*
X61630590Y-45373000D01*
X53457135Y-45373000D01*
X53526821Y-45205179D01*
X53527178Y-44796613D01*
X53371156Y-44419011D01*
X53082508Y-44129860D01*
X52759005Y-43995530D01*
X52759478Y-43453609D01*
X52340330Y-42439194D01*
X51564888Y-41662397D01*
X50551207Y-41241480D01*
X49453609Y-41240522D01*
X48439194Y-41659670D01*
X47662397Y-42435112D01*
X47241480Y-43448793D01*
X47241284Y-43673123D01*
X46896613Y-43672822D01*
X46802000Y-43711915D01*
X46802000Y-32052000D01*
X153198000Y-32052000D01*
X153198000Y-41873000D01*
G36*
X110202763Y-37696673D02*
X110202523Y-37972185D01*
X110139955Y-37878545D01*
X110117386Y-37855976D01*
X110117526Y-37696384D01*
X110145858Y-37668053D01*
X110160000Y-37682195D01*
X110174143Y-37668053D01*
X110202763Y-37696673D01*
X110202763Y-37696673D01*
G37*
X110202763Y-37696673D02*
X110202523Y-37972185D01*
X110139955Y-37878545D01*
X110117386Y-37855976D01*
X110117526Y-37696384D01*
X110145858Y-37668053D01*
X110160000Y-37682195D01*
X110174143Y-37668053D01*
X110202763Y-37696673D01*
G36*
X112742763Y-37696673D02*
X112742582Y-37904456D01*
X112657344Y-37904382D01*
X112657526Y-37696384D01*
X112685858Y-37668053D01*
X112700000Y-37682195D01*
X112714143Y-37668053D01*
X112742763Y-37696673D01*
X112742763Y-37696673D01*
G37*
X112742763Y-37696673D02*
X112742582Y-37904456D01*
X112657344Y-37904382D01*
X112657526Y-37696384D01*
X112685858Y-37668053D01*
X112700000Y-37682195D01*
X112714143Y-37668053D01*
X112742763Y-37696673D01*
G36*
X146373000Y-52482404D02*
X146309011Y-52508844D01*
X146019860Y-52797492D01*
X145863179Y-53174821D01*
X145862822Y-53583387D01*
X145960967Y-53820915D01*
X145605179Y-53673179D01*
X145196613Y-53672822D01*
X144819011Y-53828844D01*
X144529860Y-54117492D01*
X144373179Y-54494821D01*
X144372822Y-54903387D01*
X144528844Y-55280989D01*
X144817492Y-55570140D01*
X145194821Y-55726821D01*
X145603387Y-55727178D01*
X145980989Y-55571156D01*
X146270140Y-55282508D01*
X146373000Y-55034794D01*
X146373000Y-57182579D01*
X146019011Y-57328844D01*
X145729860Y-57617492D01*
X145573179Y-57994821D01*
X145572822Y-58403387D01*
X145728844Y-58780989D01*
X146017492Y-59070140D01*
X146373000Y-59217760D01*
X146373000Y-61399676D01*
X146372822Y-61603387D01*
X146373000Y-61603818D01*
X146373000Y-63572932D01*
X146246613Y-63572822D01*
X145869011Y-63728844D01*
X145579860Y-64017492D01*
X145423179Y-64394821D01*
X145422822Y-64803387D01*
X145575498Y-65172891D01*
X145496613Y-65172822D01*
X145119011Y-65328844D01*
X144829860Y-65617492D01*
X144673179Y-65994821D01*
X144672822Y-66403387D01*
X144828844Y-66780989D01*
X145117492Y-67070140D01*
X145494821Y-67226821D01*
X145903387Y-67227178D01*
X146280989Y-67071156D01*
X146373000Y-66979305D01*
X146373000Y-70572889D01*
X146296613Y-70572822D01*
X145919011Y-70728844D01*
X145629860Y-71017492D01*
X145473179Y-71394821D01*
X145472822Y-71803387D01*
X145628844Y-72180989D01*
X145917492Y-72470140D01*
X146294821Y-72626821D01*
X146373000Y-72626890D01*
X146373000Y-78920510D01*
X146282508Y-78829860D01*
X145905179Y-78673179D01*
X145496613Y-78672822D01*
X145119011Y-78828844D01*
X144829860Y-79117492D01*
X144673179Y-79494821D01*
X144672822Y-79903387D01*
X144828844Y-80280989D01*
X145117492Y-80570140D01*
X145494821Y-80726821D01*
X145903387Y-80727178D01*
X146280989Y-80571156D01*
X146373000Y-80479305D01*
X146373000Y-84372889D01*
X146296613Y-84372822D01*
X145919011Y-84528844D01*
X145629860Y-84817492D01*
X145473179Y-85194821D01*
X145472822Y-85603387D01*
X145628844Y-85980989D01*
X145917492Y-86270140D01*
X146294821Y-86426821D01*
X146373000Y-86426889D01*
X146373000Y-92920684D01*
X146182508Y-92729860D01*
X145805179Y-92573179D01*
X145396613Y-92572822D01*
X145019011Y-92728844D01*
X144729860Y-93017492D01*
X144573179Y-93394821D01*
X144572822Y-93803387D01*
X144728844Y-94180989D01*
X145017492Y-94470140D01*
X145394821Y-94626821D01*
X145803387Y-94627178D01*
X146180989Y-94471156D01*
X146373000Y-94279479D01*
X146373000Y-96373000D01*
X71127000Y-96373000D01*
X71127000Y-76000000D01*
X71116994Y-75950590D01*
X71088553Y-75908965D01*
X71046159Y-75881685D01*
X71000000Y-75873000D01*
X67657135Y-75873000D01*
X67726821Y-75705179D01*
X67727178Y-75296613D01*
X67571156Y-74919011D01*
X67282508Y-74629860D01*
X66905179Y-74473179D01*
X66496613Y-74472822D01*
X66119011Y-74628844D01*
X65829860Y-74917492D01*
X65673179Y-75294821D01*
X65672822Y-75703387D01*
X65742905Y-75873000D01*
X65000000Y-75873000D01*
X64950590Y-75883006D01*
X64908965Y-75911447D01*
X64881685Y-75953841D01*
X64873000Y-76000000D01*
X64873000Y-77934553D01*
X64764933Y-77673011D01*
X64279544Y-77186774D01*
X63645029Y-76923300D01*
X62957986Y-76922701D01*
X62323011Y-77185067D01*
X61836774Y-77670456D01*
X61573300Y-78304971D01*
X61572701Y-78992014D01*
X61835067Y-79626989D01*
X62080649Y-79873000D01*
X60127000Y-79873000D01*
X60127000Y-67302532D01*
X62327073Y-67302532D01*
X62425736Y-67569387D01*
X63035461Y-67795908D01*
X63685460Y-67771856D01*
X64174264Y-67569387D01*
X64272927Y-67302532D01*
X63300000Y-66329605D01*
X62327073Y-67302532D01*
X60127000Y-67302532D01*
X60127000Y-65885461D01*
X61654092Y-65885461D01*
X61678144Y-66535460D01*
X61880613Y-67024264D01*
X62147468Y-67122927D01*
X63120395Y-66150000D01*
X63479605Y-66150000D01*
X64452532Y-67122927D01*
X64719387Y-67024264D01*
X64945908Y-66414539D01*
X64921856Y-65764540D01*
X64719387Y-65275736D01*
X64452532Y-65177073D01*
X63479605Y-66150000D01*
X63120395Y-66150000D01*
X62147468Y-65177073D01*
X61880613Y-65275736D01*
X61654092Y-65885461D01*
X60127000Y-65885461D01*
X60127000Y-64997468D01*
X62327073Y-64997468D01*
X63300000Y-65970395D01*
X64272927Y-64997468D01*
X64174264Y-64730613D01*
X63564539Y-64504092D01*
X62914540Y-64528144D01*
X62425736Y-64730613D01*
X62327073Y-64997468D01*
X60127000Y-64997468D01*
X60127000Y-60127000D01*
X73873000Y-60127000D01*
X73873000Y-94500000D01*
X73883006Y-94549410D01*
X73911447Y-94591035D01*
X73953841Y-94618315D01*
X74000000Y-94627000D01*
X143000000Y-94627000D01*
X143049410Y-94616994D01*
X143091035Y-94588553D01*
X143118315Y-94546159D01*
X143127000Y-94500000D01*
X143127000Y-92626936D01*
X143403387Y-92627178D01*
X143780989Y-92471156D01*
X144070140Y-92182508D01*
X144226821Y-91805179D01*
X144227178Y-91396613D01*
X144071156Y-91019011D01*
X143782508Y-90729860D01*
X143441003Y-90588055D01*
X143371156Y-90419011D01*
X143127000Y-90174430D01*
X143127000Y-87476526D01*
X143128844Y-87480989D01*
X143417492Y-87770140D01*
X143794821Y-87926821D01*
X144203387Y-87927178D01*
X144580989Y-87771156D01*
X144870140Y-87482508D01*
X145026821Y-87105179D01*
X145027178Y-86696613D01*
X144871156Y-86319011D01*
X144582508Y-86029860D01*
X144205179Y-85873179D01*
X143796613Y-85872822D01*
X143419011Y-86028844D01*
X143129860Y-86317492D01*
X143127000Y-86324380D01*
X143127000Y-78293464D01*
X143180989Y-78271156D01*
X143470140Y-77982508D01*
X143626821Y-77605179D01*
X143627178Y-77196613D01*
X143471156Y-76819011D01*
X143182508Y-76529860D01*
X143127000Y-76506811D01*
X143127000Y-73576526D01*
X143128844Y-73580989D01*
X143417492Y-73870140D01*
X143794821Y-74026821D01*
X144203387Y-74027178D01*
X144580989Y-73871156D01*
X144870140Y-73582508D01*
X145026821Y-73205179D01*
X145027178Y-72796613D01*
X144871156Y-72419011D01*
X144582508Y-72129860D01*
X144205179Y-71973179D01*
X143796613Y-71972822D01*
X143419011Y-72128844D01*
X143129860Y-72417492D01*
X143127000Y-72424380D01*
X143127000Y-64693464D01*
X143180989Y-64671156D01*
X143470140Y-64382508D01*
X143626821Y-64005179D01*
X143627178Y-63596613D01*
X143471156Y-63219011D01*
X143182508Y-62929860D01*
X143127000Y-62906811D01*
X143127000Y-61176526D01*
X143128844Y-61180989D01*
X143417492Y-61470140D01*
X143794821Y-61626821D01*
X144203387Y-61627178D01*
X144580989Y-61471156D01*
X144870140Y-61182508D01*
X145026821Y-60805179D01*
X145027178Y-60396613D01*
X144871156Y-60019011D01*
X144582508Y-59729860D01*
X144205179Y-59573179D01*
X143796613Y-59572822D01*
X143419011Y-59728844D01*
X143129860Y-60017492D01*
X143127000Y-60024380D01*
X143127000Y-57476526D01*
X143128844Y-57480989D01*
X143417492Y-57770140D01*
X143794821Y-57926821D01*
X144203387Y-57927178D01*
X144580989Y-57771156D01*
X144870140Y-57482508D01*
X145026821Y-57105179D01*
X145027178Y-56696613D01*
X144871156Y-56319011D01*
X144582508Y-56029860D01*
X144205179Y-55873179D01*
X143796613Y-55872822D01*
X143574386Y-55964644D01*
X143481156Y-55739011D01*
X143192508Y-55449860D01*
X143127000Y-55422659D01*
X143127000Y-52127000D01*
X146373000Y-52127000D01*
X146373000Y-52482404D01*
X146373000Y-52482404D01*
G37*
X146373000Y-52482404D02*
X146309011Y-52508844D01*
X146019860Y-52797492D01*
X145863179Y-53174821D01*
X145862822Y-53583387D01*
X145960967Y-53820915D01*
X145605179Y-53673179D01*
X145196613Y-53672822D01*
X144819011Y-53828844D01*
X144529860Y-54117492D01*
X144373179Y-54494821D01*
X144372822Y-54903387D01*
X144528844Y-55280989D01*
X144817492Y-55570140D01*
X145194821Y-55726821D01*
X145603387Y-55727178D01*
X145980989Y-55571156D01*
X146270140Y-55282508D01*
X146373000Y-55034794D01*
X146373000Y-57182579D01*
X146019011Y-57328844D01*
X145729860Y-57617492D01*
X145573179Y-57994821D01*
X145572822Y-58403387D01*
X145728844Y-58780989D01*
X146017492Y-59070140D01*
X146373000Y-59217760D01*
X146373000Y-61399676D01*
X146372822Y-61603387D01*
X146373000Y-61603818D01*
X146373000Y-63572932D01*
X146246613Y-63572822D01*
X145869011Y-63728844D01*
X145579860Y-64017492D01*
X145423179Y-64394821D01*
X145422822Y-64803387D01*
X145575498Y-65172891D01*
X145496613Y-65172822D01*
X145119011Y-65328844D01*
X144829860Y-65617492D01*
X144673179Y-65994821D01*
X144672822Y-66403387D01*
X144828844Y-66780989D01*
X145117492Y-67070140D01*
X145494821Y-67226821D01*
X145903387Y-67227178D01*
X146280989Y-67071156D01*
X146373000Y-66979305D01*
X146373000Y-70572889D01*
X146296613Y-70572822D01*
X145919011Y-70728844D01*
X145629860Y-71017492D01*
X145473179Y-71394821D01*
X145472822Y-71803387D01*
X145628844Y-72180989D01*
X145917492Y-72470140D01*
X146294821Y-72626821D01*
X146373000Y-72626890D01*
X146373000Y-78920510D01*
X146282508Y-78829860D01*
X145905179Y-78673179D01*
X145496613Y-78672822D01*
X145119011Y-78828844D01*
X144829860Y-79117492D01*
X144673179Y-79494821D01*
X144672822Y-79903387D01*
X144828844Y-80280989D01*
X145117492Y-80570140D01*
X145494821Y-80726821D01*
X145903387Y-80727178D01*
X146280989Y-80571156D01*
X146373000Y-80479305D01*
X146373000Y-84372889D01*
X146296613Y-84372822D01*
X145919011Y-84528844D01*
X145629860Y-84817492D01*
X145473179Y-85194821D01*
X145472822Y-85603387D01*
X145628844Y-85980989D01*
X145917492Y-86270140D01*
X146294821Y-86426821D01*
X146373000Y-86426889D01*
X146373000Y-92920684D01*
X146182508Y-92729860D01*
X145805179Y-92573179D01*
X145396613Y-92572822D01*
X145019011Y-92728844D01*
X144729860Y-93017492D01*
X144573179Y-93394821D01*
X144572822Y-93803387D01*
X144728844Y-94180989D01*
X145017492Y-94470140D01*
X145394821Y-94626821D01*
X145803387Y-94627178D01*
X146180989Y-94471156D01*
X146373000Y-94279479D01*
X146373000Y-96373000D01*
X71127000Y-96373000D01*
X71127000Y-76000000D01*
X71116994Y-75950590D01*
X71088553Y-75908965D01*
X71046159Y-75881685D01*
X71000000Y-75873000D01*
X67657135Y-75873000D01*
X67726821Y-75705179D01*
X67727178Y-75296613D01*
X67571156Y-74919011D01*
X67282508Y-74629860D01*
X66905179Y-74473179D01*
X66496613Y-74472822D01*
X66119011Y-74628844D01*
X65829860Y-74917492D01*
X65673179Y-75294821D01*
X65672822Y-75703387D01*
X65742905Y-75873000D01*
X65000000Y-75873000D01*
X64950590Y-75883006D01*
X64908965Y-75911447D01*
X64881685Y-75953841D01*
X64873000Y-76000000D01*
X64873000Y-77934553D01*
X64764933Y-77673011D01*
X64279544Y-77186774D01*
X63645029Y-76923300D01*
X62957986Y-76922701D01*
X62323011Y-77185067D01*
X61836774Y-77670456D01*
X61573300Y-78304971D01*
X61572701Y-78992014D01*
X61835067Y-79626989D01*
X62080649Y-79873000D01*
X60127000Y-79873000D01*
X60127000Y-67302532D01*
X62327073Y-67302532D01*
X62425736Y-67569387D01*
X63035461Y-67795908D01*
X63685460Y-67771856D01*
X64174264Y-67569387D01*
X64272927Y-67302532D01*
X63300000Y-66329605D01*
X62327073Y-67302532D01*
X60127000Y-67302532D01*
X60127000Y-65885461D01*
X61654092Y-65885461D01*
X61678144Y-66535460D01*
X61880613Y-67024264D01*
X62147468Y-67122927D01*
X63120395Y-66150000D01*
X63479605Y-66150000D01*
X64452532Y-67122927D01*
X64719387Y-67024264D01*
X64945908Y-66414539D01*
X64921856Y-65764540D01*
X64719387Y-65275736D01*
X64452532Y-65177073D01*
X63479605Y-66150000D01*
X63120395Y-66150000D01*
X62147468Y-65177073D01*
X61880613Y-65275736D01*
X61654092Y-65885461D01*
X60127000Y-65885461D01*
X60127000Y-64997468D01*
X62327073Y-64997468D01*
X63300000Y-65970395D01*
X64272927Y-64997468D01*
X64174264Y-64730613D01*
X63564539Y-64504092D01*
X62914540Y-64528144D01*
X62425736Y-64730613D01*
X62327073Y-64997468D01*
X60127000Y-64997468D01*
X60127000Y-60127000D01*
X73873000Y-60127000D01*
X73873000Y-94500000D01*
X73883006Y-94549410D01*
X73911447Y-94591035D01*
X73953841Y-94618315D01*
X74000000Y-94627000D01*
X143000000Y-94627000D01*
X143049410Y-94616994D01*
X143091035Y-94588553D01*
X143118315Y-94546159D01*
X143127000Y-94500000D01*
X143127000Y-92626936D01*
X143403387Y-92627178D01*
X143780989Y-92471156D01*
X144070140Y-92182508D01*
X144226821Y-91805179D01*
X144227178Y-91396613D01*
X144071156Y-91019011D01*
X143782508Y-90729860D01*
X143441003Y-90588055D01*
X143371156Y-90419011D01*
X143127000Y-90174430D01*
X143127000Y-87476526D01*
X143128844Y-87480989D01*
X143417492Y-87770140D01*
X143794821Y-87926821D01*
X144203387Y-87927178D01*
X144580989Y-87771156D01*
X144870140Y-87482508D01*
X145026821Y-87105179D01*
X145027178Y-86696613D01*
X144871156Y-86319011D01*
X144582508Y-86029860D01*
X144205179Y-85873179D01*
X143796613Y-85872822D01*
X143419011Y-86028844D01*
X143129860Y-86317492D01*
X143127000Y-86324380D01*
X143127000Y-78293464D01*
X143180989Y-78271156D01*
X143470140Y-77982508D01*
X143626821Y-77605179D01*
X143627178Y-77196613D01*
X143471156Y-76819011D01*
X143182508Y-76529860D01*
X143127000Y-76506811D01*
X143127000Y-73576526D01*
X143128844Y-73580989D01*
X143417492Y-73870140D01*
X143794821Y-74026821D01*
X144203387Y-74027178D01*
X144580989Y-73871156D01*
X144870140Y-73582508D01*
X145026821Y-73205179D01*
X145027178Y-72796613D01*
X144871156Y-72419011D01*
X144582508Y-72129860D01*
X144205179Y-71973179D01*
X143796613Y-71972822D01*
X143419011Y-72128844D01*
X143129860Y-72417492D01*
X143127000Y-72424380D01*
X143127000Y-64693464D01*
X143180989Y-64671156D01*
X143470140Y-64382508D01*
X143626821Y-64005179D01*
X143627178Y-63596613D01*
X143471156Y-63219011D01*
X143182508Y-62929860D01*
X143127000Y-62906811D01*
X143127000Y-61176526D01*
X143128844Y-61180989D01*
X143417492Y-61470140D01*
X143794821Y-61626821D01*
X144203387Y-61627178D01*
X144580989Y-61471156D01*
X144870140Y-61182508D01*
X145026821Y-60805179D01*
X145027178Y-60396613D01*
X144871156Y-60019011D01*
X144582508Y-59729860D01*
X144205179Y-59573179D01*
X143796613Y-59572822D01*
X143419011Y-59728844D01*
X143129860Y-60017492D01*
X143127000Y-60024380D01*
X143127000Y-57476526D01*
X143128844Y-57480989D01*
X143417492Y-57770140D01*
X143794821Y-57926821D01*
X144203387Y-57927178D01*
X144580989Y-57771156D01*
X144870140Y-57482508D01*
X145026821Y-57105179D01*
X145027178Y-56696613D01*
X144871156Y-56319011D01*
X144582508Y-56029860D01*
X144205179Y-55873179D01*
X143796613Y-55872822D01*
X143574386Y-55964644D01*
X143481156Y-55739011D01*
X143192508Y-55449860D01*
X143127000Y-55422659D01*
X143127000Y-52127000D01*
X146373000Y-52127000D01*
X146373000Y-52482404D01*
G36*
X141873000Y-52520510D02*
X141782508Y-52429860D01*
X141405179Y-52273179D01*
X140996613Y-52272822D01*
X140619011Y-52428844D01*
X140329860Y-52717492D01*
X140173179Y-53094821D01*
X140172822Y-53503387D01*
X140328844Y-53880989D01*
X140617492Y-54170140D01*
X140994821Y-54326821D01*
X141403387Y-54327178D01*
X141780989Y-54171156D01*
X141873000Y-54079305D01*
X141873000Y-55604584D01*
X141739860Y-55737492D01*
X141640513Y-55976746D01*
X141415179Y-55883179D01*
X141006613Y-55882822D01*
X140629011Y-56038844D01*
X140339860Y-56327492D01*
X140183179Y-56704821D01*
X140182822Y-57113387D01*
X140338844Y-57490989D01*
X140627492Y-57780140D01*
X141004821Y-57936821D01*
X141073015Y-57936881D01*
X141078844Y-57950989D01*
X141367492Y-58240140D01*
X141744821Y-58396821D01*
X141873000Y-58396933D01*
X141873000Y-63074601D01*
X141729860Y-63217492D01*
X141573179Y-63594821D01*
X141572822Y-64003387D01*
X141728844Y-64380989D01*
X141873000Y-64525396D01*
X141873000Y-76674601D01*
X141729860Y-76817492D01*
X141573179Y-77194821D01*
X141572822Y-77603387D01*
X141728844Y-77980989D01*
X141873000Y-78125396D01*
X141873000Y-90174775D01*
X141629860Y-90417492D01*
X141473179Y-90794821D01*
X141472822Y-91203387D01*
X141628844Y-91580989D01*
X141873000Y-91825570D01*
X141873000Y-93373000D01*
X75127000Y-93373000D01*
X75127000Y-59000000D01*
X75116994Y-58950590D01*
X75088553Y-58908965D01*
X75046159Y-58881685D01*
X75000000Y-58873000D01*
X72544857Y-58873000D01*
X72702622Y-58813880D01*
X72931816Y-58198358D01*
X72908014Y-57541981D01*
X72702622Y-57046120D01*
X72434107Y-56945498D01*
X71449605Y-57930000D01*
X71463748Y-57944143D01*
X71284143Y-58123748D01*
X71270000Y-58109605D01*
X71255858Y-58123748D01*
X71127000Y-57994890D01*
X71127000Y-57865110D01*
X71255858Y-57736253D01*
X71270000Y-57750395D01*
X72078554Y-56941841D01*
X72256040Y-56868505D01*
X72746782Y-56378619D01*
X73012696Y-55738225D01*
X73013230Y-55127000D01*
X78873000Y-55127000D01*
X78873000Y-92000000D01*
X78883006Y-92049410D01*
X78911447Y-92091035D01*
X78953841Y-92118315D01*
X79000000Y-92127000D01*
X139000000Y-92127000D01*
X139049410Y-92116994D01*
X139091035Y-92088553D01*
X139118315Y-92046159D01*
X139127000Y-92000000D01*
X139127000Y-91201372D01*
X139245845Y-91250721D01*
X139883159Y-91251277D01*
X140472175Y-91007901D01*
X140923218Y-90557645D01*
X141167621Y-89969055D01*
X141168177Y-89331741D01*
X140924801Y-88742725D01*
X140474545Y-88291682D01*
X139885955Y-88047279D01*
X139248641Y-88046723D01*
X139127000Y-88096984D01*
X139127000Y-77601372D01*
X139245845Y-77650721D01*
X139883159Y-77651277D01*
X140472175Y-77407901D01*
X140923218Y-76957645D01*
X141167621Y-76369055D01*
X141168177Y-75731741D01*
X140924801Y-75142725D01*
X140474545Y-74691682D01*
X139885955Y-74447279D01*
X139248641Y-74446723D01*
X139127000Y-74496984D01*
X139127000Y-64001372D01*
X139245845Y-64050721D01*
X139883159Y-64051277D01*
X140472175Y-63807901D01*
X140923218Y-63357645D01*
X141167621Y-62769055D01*
X141168177Y-62131741D01*
X140924801Y-61542725D01*
X140474545Y-61091682D01*
X139885955Y-60847279D01*
X139248641Y-60846723D01*
X139127000Y-60896984D01*
X139127000Y-52127000D01*
X141873000Y-52127000D01*
X141873000Y-52520510D01*
X141873000Y-52520510D01*
G37*
X141873000Y-52520510D02*
X141782508Y-52429860D01*
X141405179Y-52273179D01*
X140996613Y-52272822D01*
X140619011Y-52428844D01*
X140329860Y-52717492D01*
X140173179Y-53094821D01*
X140172822Y-53503387D01*
X140328844Y-53880989D01*
X140617492Y-54170140D01*
X140994821Y-54326821D01*
X141403387Y-54327178D01*
X141780989Y-54171156D01*
X141873000Y-54079305D01*
X141873000Y-55604584D01*
X141739860Y-55737492D01*
X141640513Y-55976746D01*
X141415179Y-55883179D01*
X141006613Y-55882822D01*
X140629011Y-56038844D01*
X140339860Y-56327492D01*
X140183179Y-56704821D01*
X140182822Y-57113387D01*
X140338844Y-57490989D01*
X140627492Y-57780140D01*
X141004821Y-57936821D01*
X141073015Y-57936881D01*
X141078844Y-57950989D01*
X141367492Y-58240140D01*
X141744821Y-58396821D01*
X141873000Y-58396933D01*
X141873000Y-63074601D01*
X141729860Y-63217492D01*
X141573179Y-63594821D01*
X141572822Y-64003387D01*
X141728844Y-64380989D01*
X141873000Y-64525396D01*
X141873000Y-76674601D01*
X141729860Y-76817492D01*
X141573179Y-77194821D01*
X141572822Y-77603387D01*
X141728844Y-77980989D01*
X141873000Y-78125396D01*
X141873000Y-90174775D01*
X141629860Y-90417492D01*
X141473179Y-90794821D01*
X141472822Y-91203387D01*
X141628844Y-91580989D01*
X141873000Y-91825570D01*
X141873000Y-93373000D01*
X75127000Y-93373000D01*
X75127000Y-59000000D01*
X75116994Y-58950590D01*
X75088553Y-58908965D01*
X75046159Y-58881685D01*
X75000000Y-58873000D01*
X72544857Y-58873000D01*
X72702622Y-58813880D01*
X72931816Y-58198358D01*
X72908014Y-57541981D01*
X72702622Y-57046120D01*
X72434107Y-56945498D01*
X71449605Y-57930000D01*
X71463748Y-57944143D01*
X71284143Y-58123748D01*
X71270000Y-58109605D01*
X71255858Y-58123748D01*
X71127000Y-57994890D01*
X71127000Y-57865110D01*
X71255858Y-57736253D01*
X71270000Y-57750395D01*
X72078554Y-56941841D01*
X72256040Y-56868505D01*
X72746782Y-56378619D01*
X73012696Y-55738225D01*
X73013230Y-55127000D01*
X78873000Y-55127000D01*
X78873000Y-92000000D01*
X78883006Y-92049410D01*
X78911447Y-92091035D01*
X78953841Y-92118315D01*
X79000000Y-92127000D01*
X139000000Y-92127000D01*
X139049410Y-92116994D01*
X139091035Y-92088553D01*
X139118315Y-92046159D01*
X139127000Y-92000000D01*
X139127000Y-91201372D01*
X139245845Y-91250721D01*
X139883159Y-91251277D01*
X140472175Y-91007901D01*
X140923218Y-90557645D01*
X141167621Y-89969055D01*
X141168177Y-89331741D01*
X140924801Y-88742725D01*
X140474545Y-88291682D01*
X139885955Y-88047279D01*
X139248641Y-88046723D01*
X139127000Y-88096984D01*
X139127000Y-77601372D01*
X139245845Y-77650721D01*
X139883159Y-77651277D01*
X140472175Y-77407901D01*
X140923218Y-76957645D01*
X141167621Y-76369055D01*
X141168177Y-75731741D01*
X140924801Y-75142725D01*
X140474545Y-74691682D01*
X139885955Y-74447279D01*
X139248641Y-74446723D01*
X139127000Y-74496984D01*
X139127000Y-64001372D01*
X139245845Y-64050721D01*
X139883159Y-64051277D01*
X140472175Y-63807901D01*
X140923218Y-63357645D01*
X141167621Y-62769055D01*
X141168177Y-62131741D01*
X140924801Y-61542725D01*
X140474545Y-61091682D01*
X139885955Y-60847279D01*
X139248641Y-60846723D01*
X139127000Y-60896984D01*
X139127000Y-52127000D01*
X141873000Y-52127000D01*
X141873000Y-52520510D01*
M02*
