M48
;DRILL file {KiCad 4.0.1-stable} date 2017-03-07 5:03:39 PM
;FORMAT={2:4/ absolute / inch / suppress leading zeros}
FMAT,2
INCH,TZ
T1C0.016
T2C0.033
T3C0.039
T4C0.040
T5C0.060
T6C0.091
T7C0.120
%
G90
G05
M72
T1
X20160Y-15695
X20660Y-15695
X21160Y-15695
X21660Y-15695
X22160Y-15695
X22660Y-15695
X22933Y-27264
X23160Y-15695
X23660Y-15695
X24160Y-15695
X24291Y-29390
X24660Y-15695
X24882Y-20433
T2
X19140Y-13085
X19140Y-13975
X30680Y-13085
X30680Y-13975
X32350Y-13085
X32350Y-13975
X46390Y-13085
X46390Y-13975
X48060Y-13085
X48060Y-13975
X59600Y-13085
X59600Y-13975
T3
X19016Y-26043
X19016Y-30965
X22228Y-19094
X23228Y-19094
X24028Y-19094
X24921Y-26043
X24921Y-30965
X25028Y-19094
T4
X28059Y-18807
X28059Y-19807
X28059Y-20807
X28059Y-21807
X28059Y-22807
X59764Y-20433
X59764Y-21433
X59764Y-22433
T5
X23898Y-35984
X23898Y-37984
T6
X20827Y-20146
X26228Y-20146
T7
X19685Y-17323
X26772Y-33858
X59055Y-17323
X59055Y-33858
T0
M30
