G04 #@! TF.FileFunction,Copper,L1,Top,Signal*
%FSLAX46Y46*%
G04 Gerber Fmt 4.6, Leading zero omitted, Abs format (unit mm)*
G04 Created by KiCad (PCBNEW 4.0.1-stable) date 2016-12-19 11:19:05 AM*
%MOMM*%
G01*
G04 APERTURE LIST*
%ADD10C,0.100000*%
%ADD11C,4.064000*%
%ADD12R,0.500000X1.200000*%
%ADD13R,2.032000X2.032000*%
%ADD14O,2.032000X2.032000*%
%ADD15R,1.727200X1.727200*%
%ADD16O,1.727200X1.727200*%
%ADD17R,1.727200X2.032000*%
%ADD18O,1.727200X2.032000*%
%ADD19C,0.600000*%
%ADD20C,0.250000*%
G04 APERTURE END LIST*
D10*
D11*
X104000000Y-83000000D03*
X28000000Y-83000000D03*
X104000000Y-25000000D03*
D12*
X95500000Y-64800000D03*
X97100000Y-64800000D03*
X96300000Y-64800000D03*
X95500000Y-61400000D03*
X97100000Y-61400000D03*
X96300000Y-61400000D03*
X89100000Y-64800000D03*
X89900000Y-64800000D03*
X91500000Y-64800000D03*
X90700000Y-64800000D03*
X93900000Y-64800000D03*
X94700000Y-64800000D03*
X93100000Y-64800000D03*
X92300000Y-64800000D03*
X89100000Y-61400000D03*
X89900000Y-61400000D03*
X91500000Y-61400000D03*
X90700000Y-61400000D03*
X93900000Y-61400000D03*
X94700000Y-61400000D03*
X93100000Y-61400000D03*
X92300000Y-61400000D03*
X85900000Y-61400000D03*
X86700000Y-61400000D03*
X88300000Y-61400000D03*
X87500000Y-61400000D03*
X85900000Y-64800000D03*
X86700000Y-64800000D03*
X88300000Y-64800000D03*
X87500000Y-64800000D03*
X84300000Y-64800000D03*
X85100000Y-64800000D03*
X76300000Y-64800000D03*
X77100000Y-64800000D03*
X75500000Y-64800000D03*
X77900000Y-64800000D03*
X78700000Y-64800000D03*
X83500000Y-64800000D03*
X82700000Y-64800000D03*
X84300000Y-61400000D03*
X85100000Y-61400000D03*
X76300000Y-61400000D03*
X77100000Y-61400000D03*
X75500000Y-61400000D03*
X74700000Y-61400000D03*
X77900000Y-61400000D03*
X78700000Y-61400000D03*
X83500000Y-61400000D03*
X82700000Y-61400000D03*
X74700000Y-64800000D03*
X95500000Y-81400000D03*
X97100000Y-81400000D03*
X96300000Y-81400000D03*
X95500000Y-78000000D03*
X97100000Y-78000000D03*
X96300000Y-78000000D03*
X89100000Y-81400000D03*
X89900000Y-81400000D03*
X91500000Y-81400000D03*
X90700000Y-81400000D03*
X93900000Y-81400000D03*
X94700000Y-81400000D03*
X93100000Y-81400000D03*
X92300000Y-81400000D03*
X89100000Y-78000000D03*
X89900000Y-78000000D03*
X91500000Y-78000000D03*
X90700000Y-78000000D03*
X93900000Y-78000000D03*
X94700000Y-78000000D03*
X93100000Y-78000000D03*
X92300000Y-78000000D03*
X85900000Y-78000000D03*
X86700000Y-78000000D03*
X88300000Y-78000000D03*
X87500000Y-78000000D03*
X85900000Y-81400000D03*
X86700000Y-81400000D03*
X88300000Y-81400000D03*
X87500000Y-81400000D03*
X84300000Y-81400000D03*
X85100000Y-81400000D03*
X76300000Y-81400000D03*
X77100000Y-81400000D03*
X75500000Y-81400000D03*
X77900000Y-81400000D03*
X78700000Y-81400000D03*
X83500000Y-81400000D03*
X82700000Y-81400000D03*
X84300000Y-78000000D03*
X85100000Y-78000000D03*
X76300000Y-78000000D03*
X77100000Y-78000000D03*
X75500000Y-78000000D03*
X74700000Y-78000000D03*
X77900000Y-78000000D03*
X78700000Y-78000000D03*
X83500000Y-78000000D03*
X82700000Y-78000000D03*
X74700000Y-81400000D03*
X96300000Y-28200000D03*
X97100000Y-28200000D03*
X91500000Y-28200000D03*
X92300000Y-28200000D03*
X90700000Y-28200000D03*
X89900000Y-28200000D03*
X93100000Y-28200000D03*
X93900000Y-28200000D03*
X95500000Y-28200000D03*
X94700000Y-28200000D03*
X94700000Y-31600000D03*
X95500000Y-31600000D03*
X93900000Y-31600000D03*
X93100000Y-31600000D03*
X89900000Y-31600000D03*
X90700000Y-31600000D03*
X92300000Y-31600000D03*
X91500000Y-31600000D03*
X97100000Y-31600000D03*
X96300000Y-31600000D03*
X95500000Y-48200000D03*
X97100000Y-48200000D03*
X96300000Y-48200000D03*
X95500000Y-44800000D03*
X97100000Y-44800000D03*
X96300000Y-44800000D03*
X89100000Y-48200000D03*
X89900000Y-48200000D03*
X91500000Y-48200000D03*
X90700000Y-48200000D03*
X93900000Y-48200000D03*
X94700000Y-48200000D03*
X93100000Y-48200000D03*
X92300000Y-48200000D03*
X89100000Y-44800000D03*
X89900000Y-44800000D03*
X91500000Y-44800000D03*
X90700000Y-44800000D03*
X93900000Y-44800000D03*
X94700000Y-44800000D03*
X93100000Y-44800000D03*
X92300000Y-44800000D03*
X85900000Y-44800000D03*
X86700000Y-44800000D03*
X88300000Y-44800000D03*
X87500000Y-44800000D03*
X85900000Y-48200000D03*
X86700000Y-48200000D03*
X88300000Y-48200000D03*
X87500000Y-48200000D03*
X84300000Y-48200000D03*
X85100000Y-48200000D03*
X76300000Y-48200000D03*
X77100000Y-48200000D03*
X75500000Y-48200000D03*
X77900000Y-48200000D03*
X78700000Y-48200000D03*
X83500000Y-48200000D03*
X82700000Y-48200000D03*
X84300000Y-44800000D03*
X85100000Y-44800000D03*
X76300000Y-44800000D03*
X77100000Y-44800000D03*
X75500000Y-44800000D03*
X74700000Y-44800000D03*
X77900000Y-44800000D03*
X78700000Y-44800000D03*
X83500000Y-44800000D03*
X82700000Y-44800000D03*
X74700000Y-48200000D03*
D13*
X73660000Y-22860000D03*
D14*
X76200000Y-22860000D03*
D13*
X66040000Y-22860000D03*
D14*
X68580000Y-22860000D03*
D15*
X35560000Y-25400000D03*
D16*
X35560000Y-22860000D03*
X38100000Y-25400000D03*
X38100000Y-22860000D03*
X40640000Y-25400000D03*
X40640000Y-22860000D03*
X43180000Y-25400000D03*
X43180000Y-22860000D03*
X45720000Y-25400000D03*
X45720000Y-22860000D03*
X48260000Y-25400000D03*
X48260000Y-22860000D03*
X50800000Y-25400000D03*
X50800000Y-22860000D03*
X53340000Y-25400000D03*
X53340000Y-22860000D03*
X55880000Y-25400000D03*
X55880000Y-22860000D03*
X58420000Y-25400000D03*
X58420000Y-22860000D03*
D11*
X28000000Y-25000000D03*
D17*
X66040000Y-26670000D03*
D18*
X68580000Y-26670000D03*
X71120000Y-26670000D03*
D19*
X96400000Y-29500000D03*
X57500000Y-31000000D03*
X60000000Y-31700000D03*
X97100000Y-30000000D03*
X92100000Y-25400000D03*
X42000000Y-28000000D03*
X98800000Y-74100000D03*
X103500000Y-74100000D03*
X103600000Y-39800000D03*
X99000000Y-39800000D03*
X103500000Y-56300000D03*
X98900000Y-56300000D03*
X96300000Y-82700000D03*
X96300000Y-66100000D03*
X96300000Y-49400000D03*
X89900000Y-26700000D03*
X95500000Y-29500000D03*
X54700000Y-30300000D03*
X55900000Y-34500000D03*
X94700000Y-33900000D03*
X89900000Y-33800000D03*
X35500000Y-33800000D03*
X40700000Y-36000000D03*
X104300000Y-74800000D03*
X99200000Y-75000000D03*
X99300000Y-57900000D03*
X104300000Y-57800000D03*
X104300000Y-36500000D03*
X92300000Y-36200000D03*
X104300000Y-40900000D03*
X99300000Y-40900000D03*
X43100000Y-33100000D03*
X92300000Y-33200000D03*
X91600000Y-49600000D03*
X92400000Y-49500000D03*
X99300000Y-66800000D03*
X100700000Y-66800000D03*
X100700000Y-50100000D03*
X99300000Y-50100000D03*
X100700000Y-35500000D03*
X58500000Y-35300000D03*
X93200000Y-49600000D03*
X84800000Y-49500000D03*
X85600000Y-49600000D03*
X87400000Y-49500000D03*
X86500000Y-49500000D03*
X90000000Y-49600000D03*
X90800000Y-49600000D03*
X89200000Y-49600000D03*
X88300000Y-49600000D03*
X79200000Y-49800000D03*
X80200000Y-49800000D03*
X83800000Y-49600000D03*
X81200000Y-49700000D03*
X76900000Y-49600000D03*
X77900000Y-49600000D03*
X75900000Y-49600000D03*
X97500000Y-38800000D03*
X76200000Y-38800000D03*
X101400000Y-39100000D03*
X101400000Y-72300000D03*
X98500000Y-72300000D03*
X101400000Y-54900000D03*
X97500000Y-55000000D03*
X93000000Y-39800000D03*
X94300000Y-39800000D03*
X96800000Y-39800000D03*
X95600000Y-39700000D03*
X82900000Y-39500000D03*
X84000000Y-39600000D03*
X86200000Y-39700000D03*
X85100000Y-39600000D03*
X75500000Y-39500000D03*
X76700000Y-39500000D03*
X74300000Y-39400000D03*
X73200000Y-39500000D03*
X78000000Y-39500000D03*
X79100000Y-39500000D03*
X81400000Y-39600000D03*
X80400000Y-39500000D03*
X72400000Y-49100000D03*
X74800000Y-49600000D03*
X88000000Y-39700000D03*
X89200000Y-39700000D03*
X91800000Y-39800000D03*
X90500000Y-39700000D03*
X89200000Y-66200000D03*
X90000000Y-66200000D03*
X91600000Y-66200000D03*
X90800000Y-66200000D03*
X93200000Y-66200000D03*
X92400000Y-66100000D03*
X90500000Y-56300000D03*
X91800000Y-56400000D03*
X94300000Y-56400000D03*
X93000000Y-56400000D03*
X96800000Y-56400000D03*
X95600000Y-56300000D03*
X85100000Y-56200000D03*
X86200000Y-56300000D03*
X89200000Y-56300000D03*
X88000000Y-56300000D03*
X85600000Y-66200000D03*
X86500000Y-66100000D03*
X88300000Y-66200000D03*
X87400000Y-66100000D03*
X83800000Y-66200000D03*
X84800000Y-66100000D03*
X75900000Y-66200000D03*
X76900000Y-66200000D03*
X74800000Y-66200000D03*
X77900000Y-66200000D03*
X79200000Y-66400000D03*
X81200000Y-66300000D03*
X80200000Y-66400000D03*
X82900000Y-56100000D03*
X84000000Y-56200000D03*
X75500000Y-56100000D03*
X76700000Y-56100000D03*
X74300000Y-56000000D03*
X73200000Y-56100000D03*
X78000000Y-56100000D03*
X79100000Y-56100000D03*
X81400000Y-56200000D03*
X80400000Y-56100000D03*
X72400000Y-65700000D03*
X89200000Y-82800000D03*
X90000000Y-82800000D03*
X91600000Y-82800000D03*
X90800000Y-82800000D03*
X93200000Y-82800000D03*
X92400000Y-82700000D03*
X90500000Y-72900000D03*
X91800000Y-73000000D03*
X94300000Y-73000000D03*
X93000000Y-73000000D03*
X96800000Y-73000000D03*
X95600000Y-72900000D03*
X85100000Y-72800000D03*
X86200000Y-72900000D03*
X89200000Y-72900000D03*
X88000000Y-72900000D03*
X85600000Y-82800000D03*
X86500000Y-82700000D03*
X88300000Y-82800000D03*
X87400000Y-82700000D03*
X83800000Y-82800000D03*
X84800000Y-82700000D03*
X75900000Y-82800000D03*
X76900000Y-82800000D03*
X74800000Y-82800000D03*
X77900000Y-82800000D03*
X79200000Y-83000000D03*
X81200000Y-82900000D03*
X80200000Y-83000000D03*
X82900000Y-72700000D03*
X84000000Y-72800000D03*
X75500000Y-72700000D03*
X76700000Y-72700000D03*
X74300000Y-72600000D03*
X73200000Y-72700000D03*
X78000000Y-72700000D03*
X79100000Y-72700000D03*
X81400000Y-72800000D03*
X80400000Y-72700000D03*
X72400000Y-82300000D03*
X44500000Y-29600000D03*
X92300000Y-26900000D03*
X69900000Y-29600000D03*
X66000000Y-38100000D03*
X98300000Y-38400000D03*
X98200000Y-55600000D03*
X68600000Y-37400000D03*
X102100000Y-37600000D03*
X102100000Y-55600000D03*
X71100000Y-36700000D03*
X102900000Y-37000000D03*
X102000000Y-73200000D03*
X98600000Y-73200000D03*
D20*
X96300000Y-29400000D02*
X96400000Y-29500000D01*
X96300000Y-28200000D02*
X96300000Y-29400000D01*
X57200000Y-24180000D02*
X55880000Y-22860000D01*
X57200000Y-30700000D02*
X57200000Y-24180000D01*
X57500000Y-31000000D02*
X57200000Y-30700000D01*
X60000000Y-31700000D02*
X60000000Y-24440000D01*
X60000000Y-24440000D02*
X58420000Y-22860000D01*
X97100000Y-28200000D02*
X97100000Y-30000000D01*
X60000000Y-31700000D02*
X60050000Y-31650000D01*
X58560000Y-22860000D02*
X58420000Y-22860000D01*
X41900000Y-24120000D02*
X40640000Y-22860000D01*
X41900000Y-27900000D02*
X41900000Y-24120000D01*
X42000000Y-28000000D02*
X41900000Y-27900000D01*
X92100000Y-25400000D02*
X91500000Y-26000000D01*
X91500000Y-26000000D02*
X91500000Y-28200000D01*
X95500000Y-78000000D02*
X95500000Y-77400000D01*
X95500000Y-77400000D02*
X98800000Y-74100000D01*
X103500000Y-74100000D02*
X103500000Y-56300000D01*
X95500000Y-44800000D02*
X95500000Y-43700000D01*
X99000000Y-40200000D02*
X99000000Y-39800000D01*
X95500000Y-43700000D02*
X99000000Y-40200000D01*
X95500000Y-61400000D02*
X95500000Y-60600000D01*
X100500000Y-25400000D02*
X92100000Y-25400000D01*
X103600000Y-28500000D02*
X100500000Y-25400000D01*
X103600000Y-53400000D02*
X103600000Y-39800000D01*
X103600000Y-39800000D02*
X103600000Y-28500000D01*
X103500000Y-53500000D02*
X103600000Y-53400000D01*
X103500000Y-56300000D02*
X103500000Y-53500000D01*
X98900000Y-57200000D02*
X98900000Y-56300000D01*
X95500000Y-60600000D02*
X98900000Y-57200000D01*
X96300000Y-81400000D02*
X96300000Y-82700000D01*
X96300000Y-64800000D02*
X96300000Y-66100000D01*
X96300000Y-48200000D02*
X96300000Y-49400000D01*
X89900000Y-28200000D02*
X89900000Y-26700000D01*
X90700000Y-28200000D02*
X90700000Y-29500000D01*
X91100000Y-29900000D02*
X93100000Y-29900000D01*
X90700000Y-29500000D02*
X91100000Y-29900000D01*
X93100000Y-28200000D02*
X93100000Y-29900000D01*
X93100000Y-29900000D02*
X93100000Y-31600000D01*
X89900000Y-28200000D02*
X90700000Y-28200000D01*
X93900000Y-28200000D02*
X94700000Y-28200000D01*
X93100000Y-28200000D02*
X93900000Y-28200000D01*
X93100000Y-31600000D02*
X93900000Y-31600000D01*
X95500000Y-81400000D02*
X96300000Y-81400000D01*
X94700000Y-81400000D02*
X95500000Y-81400000D01*
X95500000Y-64800000D02*
X96300000Y-64800000D01*
X94700000Y-64800000D02*
X95500000Y-64800000D01*
X94700000Y-48200000D02*
X95500000Y-48200000D01*
X96300000Y-48200000D02*
X95500000Y-48200000D01*
X95500000Y-28200000D02*
X95500000Y-29500000D01*
X54600000Y-24120000D02*
X53340000Y-22860000D01*
X54600000Y-30200000D02*
X54600000Y-24120000D01*
X54700000Y-30300000D02*
X54600000Y-30200000D01*
X94700000Y-31600000D02*
X94700000Y-33900000D01*
X55880000Y-34480000D02*
X55880000Y-25400000D01*
X55900000Y-34500000D02*
X55880000Y-34480000D01*
X95500000Y-31600000D02*
X94700000Y-31600000D01*
X96300000Y-31600000D02*
X95500000Y-31600000D01*
X35560000Y-25400000D02*
X35560000Y-33740000D01*
X35500000Y-33800000D02*
X35560000Y-33740000D01*
X97100000Y-48200000D02*
X100000000Y-48200000D01*
X100000000Y-48200000D02*
X99900000Y-48200000D01*
X99900000Y-48200000D02*
X100000000Y-48200000D01*
X97100000Y-64800000D02*
X100000000Y-64800000D01*
X97100000Y-81400000D02*
X98600000Y-81400000D01*
X89900000Y-35600000D02*
X89900000Y-33800000D01*
X89900000Y-33800000D02*
X89900000Y-31600000D01*
X91700000Y-37400000D02*
X89900000Y-35600000D01*
X98700000Y-37400000D02*
X91700000Y-37400000D01*
X100000000Y-38700000D02*
X98700000Y-37400000D01*
X100000000Y-80000000D02*
X100000000Y-64800000D01*
X100000000Y-64800000D02*
X100000000Y-48200000D01*
X100000000Y-48200000D02*
X100000000Y-38700000D01*
X98600000Y-81400000D02*
X100000000Y-80000000D01*
X40640000Y-25400000D02*
X38100000Y-25400000D01*
X40640000Y-35940000D02*
X40640000Y-25400000D01*
X40700000Y-36000000D02*
X40640000Y-35940000D01*
X97100000Y-78000000D02*
X97100000Y-76600000D01*
X104300000Y-74800000D02*
X104300000Y-57800000D01*
X98700000Y-75000000D02*
X99200000Y-75000000D01*
X97100000Y-76600000D02*
X98700000Y-75000000D01*
X96300000Y-78000000D02*
X97100000Y-78000000D01*
X97100000Y-61400000D02*
X97100000Y-59800000D01*
X97100000Y-59800000D02*
X99000000Y-57900000D01*
X99000000Y-57900000D02*
X99300000Y-57900000D01*
X104300000Y-57800000D02*
X104300000Y-40900000D01*
X96300000Y-61400000D02*
X97100000Y-61400000D01*
X90700000Y-31600000D02*
X91500000Y-31600000D01*
X104300000Y-40900000D02*
X104300000Y-36500000D01*
X92300000Y-36200000D02*
X91500000Y-35400000D01*
X91500000Y-35400000D02*
X91500000Y-31600000D01*
X97100000Y-43100000D02*
X99300000Y-40900000D01*
X97100000Y-44800000D02*
X97100000Y-43100000D01*
X96300000Y-44800000D02*
X97100000Y-44800000D01*
X92300000Y-31600000D02*
X92300000Y-33200000D01*
X43180000Y-33020000D02*
X43180000Y-25400000D01*
X43100000Y-33100000D02*
X43180000Y-33020000D01*
X91500000Y-48200000D02*
X91500000Y-49500000D01*
X91500000Y-49500000D02*
X91600000Y-49600000D01*
X92300000Y-48200000D02*
X92300000Y-49400000D01*
X92300000Y-49400000D02*
X92400000Y-49500000D01*
X93900000Y-64800000D02*
X93900000Y-65400000D01*
X93900000Y-65400000D02*
X95300000Y-66800000D01*
X95300000Y-66800000D02*
X99300000Y-66800000D01*
X93900000Y-48200000D02*
X93900000Y-49300000D01*
X94700000Y-50100000D02*
X99300000Y-50100000D01*
X93900000Y-49300000D02*
X94700000Y-50100000D01*
X58420000Y-25400000D02*
X58420000Y-35220000D01*
X58500000Y-35300000D02*
X58420000Y-35220000D01*
X100700000Y-66100000D02*
X100700000Y-50100000D01*
X100700000Y-50100000D02*
X100700000Y-49300000D01*
X93900000Y-81400000D02*
X93900000Y-82300000D01*
X100700000Y-81400000D02*
X100700000Y-66800000D01*
X100700000Y-66800000D02*
X100700000Y-66100000D01*
X98700000Y-83400000D02*
X100700000Y-81400000D01*
X95000000Y-83400000D02*
X98700000Y-83400000D01*
X93900000Y-82300000D02*
X95000000Y-83400000D01*
X100700000Y-49300000D02*
X100700000Y-35500000D01*
X100700000Y-35500000D02*
X100700000Y-34200000D01*
X98100000Y-31600000D02*
X97100000Y-31600000D01*
X100700000Y-34200000D02*
X98100000Y-31600000D01*
X93100000Y-48200000D02*
X93100000Y-49500000D01*
X93100000Y-49500000D02*
X93200000Y-49600000D01*
X85100000Y-48200000D02*
X85100000Y-49200000D01*
X85100000Y-49200000D02*
X84800000Y-49500000D01*
X85900000Y-48200000D02*
X85900000Y-49300000D01*
X85900000Y-49300000D02*
X85600000Y-49600000D01*
X87500000Y-49400000D02*
X87500000Y-48200000D01*
X87400000Y-49500000D02*
X87500000Y-49400000D01*
X86700000Y-48200000D02*
X86700000Y-49300000D01*
X86700000Y-49300000D02*
X86500000Y-49500000D01*
X89900000Y-48200000D02*
X89900000Y-49500000D01*
X89900000Y-49500000D02*
X90000000Y-49600000D01*
X90700000Y-48200000D02*
X90700000Y-49500000D01*
X90700000Y-49500000D02*
X90800000Y-49600000D01*
X89100000Y-48200000D02*
X89100000Y-49500000D01*
X89100000Y-49500000D02*
X89200000Y-49600000D01*
X88300000Y-48200000D02*
X88300000Y-49600000D01*
X78700000Y-49300000D02*
X78700000Y-48200000D01*
X79200000Y-49800000D02*
X78700000Y-49300000D01*
X82700000Y-48200000D02*
X81800000Y-48200000D01*
X81800000Y-48200000D02*
X80200000Y-49800000D01*
X84300000Y-48200000D02*
X84300000Y-49100000D01*
X84300000Y-49100000D02*
X83800000Y-49600000D01*
X83500000Y-48200000D02*
X83500000Y-48900000D01*
X82700000Y-49700000D02*
X81200000Y-49700000D01*
X83500000Y-48900000D02*
X82700000Y-49700000D01*
X77100000Y-49400000D02*
X77100000Y-48200000D01*
X76900000Y-49600000D02*
X77100000Y-49400000D01*
X77900000Y-49600000D02*
X77900000Y-48200000D01*
X76300000Y-49200000D02*
X76300000Y-48200000D01*
X75900000Y-49600000D02*
X76300000Y-49200000D01*
X93900000Y-44800000D02*
X93900000Y-43900000D01*
X97500000Y-40300000D02*
X97500000Y-38800000D01*
X93900000Y-43900000D02*
X97500000Y-40300000D01*
X76200000Y-38800000D02*
X76200000Y-22860000D01*
X93900000Y-78000000D02*
X93900000Y-76900000D01*
X101400000Y-72300000D02*
X101400000Y-54900000D01*
X93900000Y-76900000D02*
X98500000Y-72300000D01*
X93900000Y-60700000D02*
X93900000Y-61400000D01*
X97500000Y-57100000D02*
X97500000Y-55000000D01*
X93900000Y-60700000D02*
X97500000Y-57100000D01*
X101400000Y-54900000D02*
X101400000Y-39100000D01*
X90700000Y-42100000D02*
X90700000Y-44800000D01*
X93000000Y-39800000D02*
X90700000Y-42100000D01*
X91500000Y-42600000D02*
X91500000Y-44800000D01*
X94300000Y-39800000D02*
X91500000Y-42600000D01*
X93100000Y-43500000D02*
X93100000Y-44800000D01*
X96800000Y-39800000D02*
X93100000Y-43500000D01*
X92300000Y-43000000D02*
X92300000Y-44800000D01*
X95600000Y-39700000D02*
X92300000Y-43000000D01*
X84300000Y-40900000D02*
X84300000Y-44800000D01*
X82900000Y-39500000D02*
X84300000Y-40900000D01*
X85100000Y-40700000D02*
X85100000Y-44800000D01*
X84000000Y-39600000D02*
X85100000Y-40700000D01*
X86700000Y-40200000D02*
X86700000Y-44800000D01*
X86200000Y-39700000D02*
X86700000Y-40200000D01*
X85900000Y-40400000D02*
X85900000Y-44800000D01*
X85100000Y-39600000D02*
X85900000Y-40400000D01*
X76300000Y-40300000D02*
X76300000Y-44800000D01*
X75500000Y-39500000D02*
X76300000Y-40300000D01*
X77100000Y-39900000D02*
X77100000Y-44800000D01*
X76700000Y-39500000D02*
X77100000Y-39900000D01*
X75500000Y-40600000D02*
X75500000Y-44800000D01*
X74300000Y-39400000D02*
X75500000Y-40600000D01*
X74700000Y-41000000D02*
X74700000Y-44800000D01*
X73200000Y-39500000D02*
X74700000Y-41000000D01*
X77900000Y-39600000D02*
X77900000Y-44800000D01*
X78000000Y-39500000D02*
X77900000Y-39600000D01*
X78700000Y-39900000D02*
X78700000Y-44800000D01*
X79100000Y-39500000D02*
X78700000Y-39900000D01*
X83500000Y-41700000D02*
X83500000Y-44800000D01*
X81400000Y-39600000D02*
X83500000Y-41700000D01*
X82700000Y-41800000D02*
X82700000Y-44800000D01*
X80400000Y-39500000D02*
X82700000Y-41800000D01*
X73700000Y-49200000D02*
X74700000Y-48200000D01*
X72500000Y-49200000D02*
X73700000Y-49200000D01*
X72400000Y-49100000D02*
X72500000Y-49200000D01*
X75500000Y-48900000D02*
X75500000Y-48200000D01*
X74800000Y-49600000D02*
X75500000Y-48900000D01*
X87500000Y-40200000D02*
X87500000Y-44800000D01*
X88000000Y-39700000D02*
X87500000Y-40200000D01*
X88300000Y-40600000D02*
X88300000Y-44800000D01*
X89200000Y-39700000D02*
X88300000Y-40600000D01*
X89900000Y-41700000D02*
X89900000Y-44800000D01*
X91800000Y-39800000D02*
X89900000Y-41700000D01*
X89100000Y-41100000D02*
X89100000Y-44800000D01*
X90500000Y-39700000D02*
X89100000Y-41100000D01*
X89100000Y-66100000D02*
X89200000Y-66200000D01*
X89100000Y-64800000D02*
X89100000Y-66100000D01*
X89900000Y-66100000D02*
X90000000Y-66200000D01*
X89900000Y-64800000D02*
X89900000Y-66100000D01*
X91500000Y-66100000D02*
X91600000Y-66200000D01*
X91500000Y-64800000D02*
X91500000Y-66100000D01*
X90700000Y-66100000D02*
X90800000Y-66200000D01*
X90700000Y-64800000D02*
X90700000Y-66100000D01*
X93100000Y-66100000D02*
X93200000Y-66200000D01*
X93100000Y-64800000D02*
X93100000Y-66100000D01*
X92300000Y-66000000D02*
X92400000Y-66100000D01*
X92300000Y-64800000D02*
X92300000Y-66000000D01*
X90500000Y-56300000D02*
X89100000Y-57700000D01*
X89100000Y-57700000D02*
X89100000Y-61400000D01*
X91800000Y-56400000D02*
X89900000Y-58300000D01*
X89900000Y-58300000D02*
X89900000Y-61400000D01*
X94300000Y-56400000D02*
X91500000Y-59200000D01*
X91500000Y-59200000D02*
X91500000Y-61400000D01*
X93000000Y-56400000D02*
X90700000Y-58700000D01*
X90700000Y-58700000D02*
X90700000Y-61400000D01*
X96800000Y-56400000D02*
X93100000Y-60100000D01*
X93100000Y-60100000D02*
X93100000Y-61400000D01*
X95600000Y-56300000D02*
X92300000Y-59600000D01*
X92300000Y-59600000D02*
X92300000Y-61400000D01*
X85100000Y-56200000D02*
X85900000Y-57000000D01*
X85900000Y-57000000D02*
X85900000Y-61400000D01*
X86200000Y-56300000D02*
X86700000Y-56800000D01*
X86700000Y-56800000D02*
X86700000Y-61400000D01*
X89200000Y-56300000D02*
X88300000Y-57200000D01*
X88300000Y-57200000D02*
X88300000Y-61400000D01*
X88000000Y-56300000D02*
X87500000Y-56800000D01*
X87500000Y-56800000D02*
X87500000Y-61400000D01*
X85900000Y-65900000D02*
X85600000Y-66200000D01*
X85900000Y-64800000D02*
X85900000Y-65900000D01*
X86700000Y-65900000D02*
X86500000Y-66100000D01*
X86700000Y-64800000D02*
X86700000Y-65900000D01*
X88300000Y-64800000D02*
X88300000Y-66200000D01*
X87500000Y-66000000D02*
X87500000Y-64800000D01*
X87400000Y-66100000D02*
X87500000Y-66000000D01*
X84300000Y-65700000D02*
X83800000Y-66200000D01*
X84300000Y-64800000D02*
X84300000Y-65700000D01*
X85100000Y-65800000D02*
X84800000Y-66100000D01*
X85100000Y-64800000D02*
X85100000Y-65800000D01*
X75900000Y-66200000D02*
X76300000Y-65800000D01*
X76300000Y-65800000D02*
X76300000Y-64800000D01*
X76900000Y-66200000D02*
X77100000Y-66000000D01*
X77100000Y-66000000D02*
X77100000Y-64800000D01*
X74800000Y-66200000D02*
X75500000Y-65500000D01*
X75500000Y-65500000D02*
X75500000Y-64800000D01*
X77900000Y-66200000D02*
X77900000Y-64800000D01*
X79200000Y-66400000D02*
X78700000Y-65900000D01*
X78700000Y-65900000D02*
X78700000Y-64800000D01*
X83500000Y-65500000D02*
X82700000Y-66300000D01*
X82700000Y-66300000D02*
X81200000Y-66300000D01*
X83500000Y-64800000D02*
X83500000Y-65500000D01*
X81800000Y-64800000D02*
X80200000Y-66400000D01*
X82700000Y-64800000D02*
X81800000Y-64800000D01*
X82900000Y-56100000D02*
X84300000Y-57500000D01*
X84300000Y-57500000D02*
X84300000Y-61400000D01*
X84000000Y-56200000D02*
X85100000Y-57300000D01*
X85100000Y-57300000D02*
X85100000Y-61400000D01*
X75500000Y-56100000D02*
X76300000Y-56900000D01*
X76300000Y-56900000D02*
X76300000Y-61400000D01*
X76700000Y-56100000D02*
X77100000Y-56500000D01*
X77100000Y-56500000D02*
X77100000Y-61400000D01*
X75500000Y-57200000D02*
X75500000Y-61400000D01*
X74300000Y-56000000D02*
X75500000Y-57200000D01*
X73200000Y-56100000D02*
X74700000Y-57600000D01*
X74700000Y-57600000D02*
X74700000Y-61400000D01*
X78000000Y-56100000D02*
X77900000Y-56200000D01*
X77900000Y-56200000D02*
X77900000Y-61400000D01*
X79100000Y-56100000D02*
X78700000Y-56500000D01*
X78700000Y-56500000D02*
X78700000Y-61400000D01*
X81400000Y-56200000D02*
X83500000Y-58300000D01*
X83500000Y-58300000D02*
X83500000Y-61400000D01*
X80400000Y-56100000D02*
X82700000Y-58400000D01*
X82700000Y-58400000D02*
X82700000Y-61400000D01*
X73700000Y-65800000D02*
X74700000Y-64800000D01*
X72400000Y-65700000D02*
X72500000Y-65800000D01*
X72500000Y-65800000D02*
X73700000Y-65800000D01*
X89100000Y-81400000D02*
X89100000Y-82700000D01*
X89100000Y-82700000D02*
X89200000Y-82800000D01*
X89900000Y-81400000D02*
X89900000Y-82700000D01*
X89900000Y-82700000D02*
X90000000Y-82800000D01*
X91500000Y-81400000D02*
X91500000Y-82700000D01*
X91500000Y-82700000D02*
X91600000Y-82800000D01*
X90700000Y-81400000D02*
X90700000Y-82700000D01*
X90700000Y-82700000D02*
X90800000Y-82800000D01*
X93100000Y-81400000D02*
X93100000Y-82700000D01*
X93100000Y-82700000D02*
X93200000Y-82800000D01*
X92300000Y-81400000D02*
X92300000Y-82600000D01*
X92300000Y-82600000D02*
X92400000Y-82700000D01*
X89100000Y-74300000D02*
X89100000Y-78000000D01*
X90500000Y-72900000D02*
X89100000Y-74300000D01*
X89900000Y-74900000D02*
X89900000Y-78000000D01*
X91800000Y-73000000D02*
X89900000Y-74900000D01*
X91500000Y-75800000D02*
X91500000Y-78000000D01*
X94300000Y-73000000D02*
X91500000Y-75800000D01*
X90700000Y-75300000D02*
X90700000Y-78000000D01*
X93000000Y-73000000D02*
X90700000Y-75300000D01*
X93100000Y-76700000D02*
X93100000Y-78000000D01*
X96800000Y-73000000D02*
X93100000Y-76700000D01*
X92300000Y-76200000D02*
X92300000Y-78000000D01*
X95600000Y-72900000D02*
X92300000Y-76200000D01*
X85900000Y-73600000D02*
X85900000Y-78000000D01*
X85100000Y-72800000D02*
X85900000Y-73600000D01*
X86700000Y-73400000D02*
X86700000Y-78000000D01*
X86200000Y-72900000D02*
X86700000Y-73400000D01*
X88300000Y-73800000D02*
X88300000Y-78000000D01*
X89200000Y-72900000D02*
X88300000Y-73800000D01*
X87500000Y-73400000D02*
X87500000Y-78000000D01*
X88000000Y-72900000D02*
X87500000Y-73400000D01*
X85900000Y-81400000D02*
X85900000Y-82500000D01*
X85900000Y-82500000D02*
X85600000Y-82800000D01*
X86700000Y-81400000D02*
X86700000Y-82500000D01*
X86700000Y-82500000D02*
X86500000Y-82700000D01*
X88300000Y-81400000D02*
X88300000Y-82800000D01*
X87500000Y-82600000D02*
X87500000Y-81400000D01*
X87400000Y-82700000D02*
X87500000Y-82600000D01*
X84300000Y-81400000D02*
X84300000Y-82300000D01*
X84300000Y-82300000D02*
X83800000Y-82800000D01*
X85100000Y-81400000D02*
X85100000Y-82400000D01*
X85100000Y-82400000D02*
X84800000Y-82700000D01*
X76300000Y-82400000D02*
X76300000Y-81400000D01*
X75900000Y-82800000D02*
X76300000Y-82400000D01*
X77100000Y-82600000D02*
X77100000Y-81400000D01*
X76900000Y-82800000D02*
X77100000Y-82600000D01*
X75500000Y-82100000D02*
X75500000Y-81400000D01*
X74800000Y-82800000D02*
X75500000Y-82100000D01*
X77900000Y-82800000D02*
X77900000Y-81400000D01*
X78700000Y-82500000D02*
X78700000Y-81400000D01*
X79200000Y-83000000D02*
X78700000Y-82500000D01*
X83500000Y-81400000D02*
X83500000Y-82100000D01*
X82700000Y-82900000D02*
X81200000Y-82900000D01*
X83500000Y-82100000D02*
X82700000Y-82900000D01*
X82700000Y-81400000D02*
X81800000Y-81400000D01*
X81800000Y-81400000D02*
X80200000Y-83000000D01*
X84300000Y-74100000D02*
X84300000Y-78000000D01*
X82900000Y-72700000D02*
X84300000Y-74100000D01*
X85100000Y-73900000D02*
X85100000Y-78000000D01*
X84000000Y-72800000D02*
X85100000Y-73900000D01*
X76300000Y-73500000D02*
X76300000Y-78000000D01*
X75500000Y-72700000D02*
X76300000Y-73500000D01*
X77100000Y-73100000D02*
X77100000Y-78000000D01*
X76700000Y-72700000D02*
X77100000Y-73100000D01*
X74300000Y-72600000D02*
X75500000Y-73800000D01*
X75500000Y-78000000D02*
X75500000Y-73800000D01*
X74700000Y-74200000D02*
X74700000Y-78000000D01*
X73200000Y-72700000D02*
X74700000Y-74200000D01*
X77900000Y-72800000D02*
X77900000Y-78000000D01*
X78000000Y-72700000D02*
X77900000Y-72800000D01*
X78700000Y-73100000D02*
X78700000Y-78000000D01*
X79100000Y-72700000D02*
X78700000Y-73100000D01*
X83500000Y-74900000D02*
X83500000Y-78000000D01*
X81400000Y-72800000D02*
X83500000Y-74900000D01*
X82700000Y-75000000D02*
X82700000Y-78000000D01*
X80400000Y-72700000D02*
X82700000Y-75000000D01*
X73700000Y-82400000D02*
X74700000Y-81400000D01*
X72500000Y-82400000D02*
X73700000Y-82400000D01*
X72400000Y-82300000D02*
X72500000Y-82400000D01*
X44400000Y-24080000D02*
X43180000Y-22860000D01*
X44400000Y-29500000D02*
X44400000Y-24080000D01*
X44500000Y-29600000D02*
X44400000Y-29500000D01*
X92300000Y-28200000D02*
X92300000Y-26900000D01*
X68580000Y-24180000D02*
X68580000Y-22860000D01*
X69900000Y-25500000D02*
X68580000Y-24180000D01*
X69900000Y-29600000D02*
X69900000Y-25500000D01*
X94700000Y-44800000D02*
X94700000Y-43736398D01*
X66040000Y-38060000D02*
X66040000Y-26670000D01*
X66000000Y-38100000D02*
X66040000Y-38060000D01*
X98300000Y-40136398D02*
X98300000Y-38400000D01*
X94700000Y-43736398D02*
X98300000Y-40136398D01*
X94700000Y-60700000D02*
X98200000Y-57200000D01*
X98200000Y-57200000D02*
X98200000Y-55600000D01*
X94700000Y-61400000D02*
X94700000Y-60700000D01*
X68580000Y-37380000D02*
X68580000Y-26670000D01*
X68600000Y-37400000D02*
X68580000Y-37380000D01*
X102100000Y-55600000D02*
X102100000Y-37600000D01*
X94700000Y-78000000D02*
X94700000Y-77100000D01*
X71120000Y-36680000D02*
X71120000Y-26670000D01*
X71100000Y-36700000D02*
X71120000Y-36680000D01*
X102800000Y-37100000D02*
X102900000Y-37000000D01*
X102800000Y-56100000D02*
X102800000Y-37100000D01*
X102100000Y-56800000D02*
X102800000Y-56100000D01*
X102100000Y-73100000D02*
X102100000Y-56800000D01*
X102000000Y-73200000D02*
X102100000Y-73100000D01*
X94700000Y-77100000D02*
X98600000Y-73200000D01*
D10*
G36*
X34630738Y-21784121D02*
X34289753Y-22221630D01*
X34345029Y-22428200D01*
X35128200Y-22428200D01*
X35128200Y-22390000D01*
X35991800Y-22390000D01*
X35991800Y-22428200D01*
X36774971Y-22428200D01*
X36830000Y-22222553D01*
X36885029Y-22428200D01*
X37668200Y-22428200D01*
X37668200Y-22390000D01*
X38531800Y-22390000D01*
X38531800Y-22428200D01*
X38570000Y-22428200D01*
X38570000Y-23291800D01*
X38531800Y-23291800D01*
X38531800Y-23330000D01*
X37668200Y-23330000D01*
X37668200Y-23291800D01*
X36885029Y-23291800D01*
X36830000Y-23497447D01*
X36774971Y-23291800D01*
X35991800Y-23291800D01*
X35991800Y-23330000D01*
X35128200Y-23330000D01*
X35128200Y-23291800D01*
X34345029Y-23291800D01*
X34289753Y-23498370D01*
X34596850Y-23892398D01*
X34455524Y-23918990D01*
X34234295Y-24061347D01*
X34085880Y-24278559D01*
X34033666Y-24536400D01*
X34033666Y-26263600D01*
X34078990Y-26504476D01*
X34221347Y-26725705D01*
X34438559Y-26874120D01*
X34696400Y-26926334D01*
X34785000Y-26926334D01*
X34785000Y-33171420D01*
X34695098Y-33261165D01*
X34550165Y-33610204D01*
X34549835Y-33988138D01*
X34694159Y-34337429D01*
X34961165Y-34604902D01*
X35310204Y-34749835D01*
X35688138Y-34750165D01*
X36037429Y-34605841D01*
X36304902Y-34338835D01*
X36449835Y-33989796D01*
X36450165Y-33611862D01*
X36335000Y-33333141D01*
X36335000Y-26926334D01*
X36423600Y-26926334D01*
X36664476Y-26881010D01*
X36885705Y-26738653D01*
X37034120Y-26521441D01*
X37037433Y-26505082D01*
X37520770Y-26828037D01*
X38100000Y-26943253D01*
X38679230Y-26828037D01*
X39170277Y-26499930D01*
X39370000Y-26201023D01*
X39569723Y-26499930D01*
X39865000Y-26697228D01*
X39865000Y-35533649D01*
X39750165Y-35810204D01*
X39749835Y-36188138D01*
X39894159Y-36537429D01*
X40161165Y-36804902D01*
X40510204Y-36949835D01*
X40888138Y-36950165D01*
X41237429Y-36805841D01*
X41504902Y-36538835D01*
X41649835Y-36189796D01*
X41650165Y-35811862D01*
X41505841Y-35462571D01*
X41415000Y-35371571D01*
X41415000Y-28758656D01*
X41461165Y-28804902D01*
X41810204Y-28949835D01*
X42188138Y-28950165D01*
X42405000Y-28860560D01*
X42405000Y-32451455D01*
X42295098Y-32561165D01*
X42150165Y-32910204D01*
X42149835Y-33288138D01*
X42294159Y-33637429D01*
X42561165Y-33904902D01*
X42910204Y-34049835D01*
X43288138Y-34050165D01*
X43637429Y-33905841D01*
X43904902Y-33638835D01*
X44049835Y-33289796D01*
X44050165Y-32911862D01*
X43955000Y-32681545D01*
X43955000Y-30398726D01*
X43961165Y-30404902D01*
X44310204Y-30549835D01*
X44688138Y-30550165D01*
X45037429Y-30405841D01*
X45304902Y-30138835D01*
X45449835Y-29789796D01*
X45450165Y-29411862D01*
X45305841Y-29062571D01*
X45175000Y-28931501D01*
X45175000Y-26641730D01*
X45288200Y-26607199D01*
X45288200Y-25831800D01*
X46151800Y-25831800D01*
X46151800Y-26607199D01*
X46358364Y-26670211D01*
X46649262Y-26475879D01*
X46990000Y-26038687D01*
X47330738Y-26475879D01*
X47621636Y-26670211D01*
X47828200Y-26607199D01*
X47828200Y-25831800D01*
X47045029Y-25831800D01*
X46990000Y-26037447D01*
X46934971Y-25831800D01*
X46151800Y-25831800D01*
X45288200Y-25831800D01*
X45250000Y-25831800D01*
X45250000Y-24968200D01*
X45288200Y-24968200D01*
X45288200Y-24192801D01*
X45175000Y-24158270D01*
X45175000Y-24101730D01*
X45288200Y-24067199D01*
X45288200Y-23291800D01*
X46151800Y-23291800D01*
X46151800Y-24067199D01*
X46357672Y-24130000D01*
X46151800Y-24192801D01*
X46151800Y-24968200D01*
X46934971Y-24968200D01*
X46990000Y-24762553D01*
X47045029Y-24968200D01*
X47828200Y-24968200D01*
X47828200Y-24192801D01*
X47622328Y-24130000D01*
X47828200Y-24067199D01*
X47828200Y-23291800D01*
X47045029Y-23291800D01*
X46990000Y-23497447D01*
X46934971Y-23291800D01*
X46151800Y-23291800D01*
X45288200Y-23291800D01*
X45250000Y-23291800D01*
X45250000Y-22428200D01*
X45288200Y-22428200D01*
X45288200Y-22390000D01*
X46151800Y-22390000D01*
X46151800Y-22428200D01*
X46934971Y-22428200D01*
X46990000Y-22222553D01*
X47045029Y-22428200D01*
X47828200Y-22428200D01*
X47828200Y-22390000D01*
X48691800Y-22390000D01*
X48691800Y-22428200D01*
X49474971Y-22428200D01*
X49530000Y-22222553D01*
X49585029Y-22428200D01*
X50368200Y-22428200D01*
X50368200Y-22390000D01*
X51231800Y-22390000D01*
X51231800Y-22428200D01*
X51270000Y-22428200D01*
X51270000Y-23291800D01*
X51231800Y-23291800D01*
X51231800Y-23330000D01*
X50368200Y-23330000D01*
X50368200Y-23291800D01*
X49585029Y-23291800D01*
X49530000Y-23497447D01*
X49474971Y-23291800D01*
X48691800Y-23291800D01*
X48691800Y-24067199D01*
X48897672Y-24130000D01*
X48691800Y-24192801D01*
X48691800Y-24968200D01*
X48730000Y-24968200D01*
X48730000Y-25831800D01*
X48691800Y-25831800D01*
X48691800Y-26607199D01*
X48898364Y-26670211D01*
X49189262Y-26475879D01*
X49471599Y-26113620D01*
X49729723Y-26499930D01*
X50220770Y-26828037D01*
X50800000Y-26943253D01*
X51379230Y-26828037D01*
X51870277Y-26499930D01*
X52070000Y-26201023D01*
X52269723Y-26499930D01*
X52760770Y-26828037D01*
X53340000Y-26943253D01*
X53825000Y-26846781D01*
X53825000Y-29929980D01*
X53750165Y-30110204D01*
X53749835Y-30488138D01*
X53894159Y-30837429D01*
X54161165Y-31104902D01*
X54510204Y-31249835D01*
X54888138Y-31250165D01*
X55105000Y-31160560D01*
X55105000Y-33951280D01*
X55095098Y-33961165D01*
X54950165Y-34310204D01*
X54949835Y-34688138D01*
X55094159Y-35037429D01*
X55361165Y-35304902D01*
X55710204Y-35449835D01*
X56088138Y-35450165D01*
X56437429Y-35305841D01*
X56704902Y-35038835D01*
X56849835Y-34689796D01*
X56850165Y-34311862D01*
X56705841Y-33962571D01*
X56655000Y-33911641D01*
X56655000Y-31442657D01*
X56694159Y-31537429D01*
X56961165Y-31804902D01*
X57310204Y-31949835D01*
X57645000Y-31950127D01*
X57645000Y-34881815D01*
X57550165Y-35110204D01*
X57549835Y-35488138D01*
X57694159Y-35837429D01*
X57961165Y-36104902D01*
X58310204Y-36249835D01*
X58688138Y-36250165D01*
X59037429Y-36105841D01*
X59304902Y-35838835D01*
X59449835Y-35489796D01*
X59450165Y-35111862D01*
X59305841Y-34762571D01*
X59195000Y-34651536D01*
X59195000Y-32238271D01*
X59461165Y-32504902D01*
X59810204Y-32649835D01*
X60188138Y-32650165D01*
X60537429Y-32505841D01*
X60804902Y-32238835D01*
X60949835Y-31889796D01*
X60950165Y-31511862D01*
X60805841Y-31162571D01*
X60775000Y-31131676D01*
X60775000Y-24440000D01*
X60716007Y-24143420D01*
X60548008Y-23891992D01*
X60548005Y-23891990D01*
X60105515Y-23449500D01*
X64466000Y-23449500D01*
X64466000Y-23986993D01*
X64550950Y-24192082D01*
X64707918Y-24349049D01*
X64913007Y-24434000D01*
X65450500Y-24434000D01*
X65590000Y-24294500D01*
X65590000Y-23310000D01*
X64605500Y-23310000D01*
X64466000Y-23449500D01*
X60105515Y-23449500D01*
X59869238Y-23213223D01*
X59933600Y-22889653D01*
X59933600Y-22830347D01*
X59818384Y-22251117D01*
X59490277Y-21760070D01*
X59437791Y-21725000D01*
X64469317Y-21725000D01*
X64466000Y-21733007D01*
X64466000Y-22270500D01*
X64605500Y-22410000D01*
X65590000Y-22410000D01*
X65590000Y-22390000D01*
X66490000Y-22390000D01*
X66490000Y-22410000D01*
X66510000Y-22410000D01*
X66510000Y-23310000D01*
X66490000Y-23310000D01*
X66490000Y-24294500D01*
X66629500Y-24434000D01*
X67166993Y-24434000D01*
X67372082Y-24349049D01*
X67529050Y-24192082D01*
X67540886Y-24163507D01*
X67841700Y-24364504D01*
X67863993Y-24476580D01*
X68031992Y-24728008D01*
X68325891Y-25021907D01*
X68000770Y-25086577D01*
X67518318Y-25408941D01*
X67378653Y-25191895D01*
X67161441Y-25043480D01*
X66903600Y-24991266D01*
X65176400Y-24991266D01*
X64935524Y-25036590D01*
X64714295Y-25178947D01*
X64565880Y-25396159D01*
X64513666Y-25654000D01*
X64513666Y-27686000D01*
X64558990Y-27926876D01*
X64701347Y-28148105D01*
X64918559Y-28296520D01*
X65176400Y-28348734D01*
X65265000Y-28348734D01*
X65265000Y-37491385D01*
X65195098Y-37561165D01*
X65050165Y-37910204D01*
X65049835Y-38288138D01*
X65194159Y-38637429D01*
X65461165Y-38904902D01*
X65810204Y-39049835D01*
X66188138Y-39050165D01*
X66537429Y-38905841D01*
X66804902Y-38638835D01*
X66949835Y-38289796D01*
X66950165Y-37911862D01*
X66815000Y-37584737D01*
X66815000Y-28348734D01*
X66903600Y-28348734D01*
X67144476Y-28303410D01*
X67365705Y-28161053D01*
X67514120Y-27943841D01*
X67516900Y-27930112D01*
X67805000Y-28122614D01*
X67805000Y-36851280D01*
X67795098Y-36861165D01*
X67650165Y-37210204D01*
X67649835Y-37588138D01*
X67794159Y-37937429D01*
X68061165Y-38204902D01*
X68410204Y-38349835D01*
X68788138Y-38350165D01*
X69137429Y-38205841D01*
X69404902Y-37938835D01*
X69549835Y-37589796D01*
X69550165Y-37211862D01*
X69405841Y-36862571D01*
X69355000Y-36811641D01*
X69355000Y-30398726D01*
X69361165Y-30404902D01*
X69710204Y-30549835D01*
X70088138Y-30550165D01*
X70345000Y-30444032D01*
X70345000Y-36111350D01*
X70295098Y-36161165D01*
X70150165Y-36510204D01*
X70149835Y-36888138D01*
X70294159Y-37237429D01*
X70561165Y-37504902D01*
X70910204Y-37649835D01*
X71288138Y-37650165D01*
X71637429Y-37505841D01*
X71904902Y-37238835D01*
X72049835Y-36889796D01*
X72050165Y-36511862D01*
X71905841Y-36162571D01*
X71895000Y-36151711D01*
X71895000Y-28122614D01*
X72190277Y-27925316D01*
X72518384Y-27434269D01*
X72633600Y-26855039D01*
X72633600Y-26484961D01*
X72518384Y-25905731D01*
X72190277Y-25414684D01*
X71699230Y-25086577D01*
X71120000Y-24971361D01*
X70540770Y-25086577D01*
X70538810Y-25087887D01*
X70448008Y-24951992D01*
X69643337Y-24147321D01*
X69758040Y-24070679D01*
X70119183Y-23530190D01*
X70135233Y-23449500D01*
X72086000Y-23449500D01*
X72086000Y-23986993D01*
X72170950Y-24192082D01*
X72327918Y-24349049D01*
X72533007Y-24434000D01*
X73070500Y-24434000D01*
X73210000Y-24294500D01*
X73210000Y-23310000D01*
X72225500Y-23310000D01*
X72086000Y-23449500D01*
X70135233Y-23449500D01*
X70246000Y-22892639D01*
X70246000Y-22827361D01*
X70119183Y-22189810D01*
X69808607Y-21725000D01*
X72089317Y-21725000D01*
X72086000Y-21733007D01*
X72086000Y-22270500D01*
X72225500Y-22410000D01*
X73210000Y-22410000D01*
X73210000Y-22390000D01*
X74110000Y-22390000D01*
X74110000Y-22410000D01*
X74130000Y-22410000D01*
X74130000Y-23310000D01*
X74110000Y-23310000D01*
X74110000Y-24294500D01*
X74249500Y-24434000D01*
X74786993Y-24434000D01*
X74992082Y-24349049D01*
X75149050Y-24192082D01*
X75160886Y-24163507D01*
X75425000Y-24339982D01*
X75425000Y-38231315D01*
X75395098Y-38261165D01*
X75267646Y-38568105D01*
X74962571Y-38694159D01*
X74950125Y-38706583D01*
X74838835Y-38595098D01*
X74489796Y-38450165D01*
X74111862Y-38449835D01*
X73762571Y-38594159D01*
X73684187Y-38672406D01*
X73389796Y-38550165D01*
X73011862Y-38549835D01*
X72662571Y-38694159D01*
X72395098Y-38961165D01*
X72250165Y-39310204D01*
X72249835Y-39688138D01*
X72394159Y-40037429D01*
X72661165Y-40304902D01*
X73010204Y-40449835D01*
X73053857Y-40449873D01*
X73925000Y-41321016D01*
X73925000Y-43816997D01*
X73839480Y-43942159D01*
X73787266Y-44200000D01*
X73787266Y-45400000D01*
X73832590Y-45640876D01*
X73974947Y-45862105D01*
X74192159Y-46010520D01*
X74450000Y-46062734D01*
X74950000Y-46062734D01*
X75105507Y-46033473D01*
X75250000Y-46062734D01*
X75750000Y-46062734D01*
X75905507Y-46033473D01*
X76050000Y-46062734D01*
X76550000Y-46062734D01*
X76705507Y-46033473D01*
X76850000Y-46062734D01*
X77350000Y-46062734D01*
X77505507Y-46033473D01*
X77650000Y-46062734D01*
X78150000Y-46062734D01*
X78305507Y-46033473D01*
X78450000Y-46062734D01*
X78950000Y-46062734D01*
X79190876Y-46017410D01*
X79412105Y-45875053D01*
X79560520Y-45657841D01*
X79612734Y-45400000D01*
X79612734Y-44200000D01*
X79567410Y-43959124D01*
X79475000Y-43815515D01*
X79475000Y-40372955D01*
X79637429Y-40305841D01*
X79749962Y-40193504D01*
X79861165Y-40304902D01*
X80210204Y-40449835D01*
X80253857Y-40449873D01*
X81925000Y-42121016D01*
X81925000Y-43816997D01*
X81839480Y-43942159D01*
X81787266Y-44200000D01*
X81787266Y-45400000D01*
X81832590Y-45640876D01*
X81974947Y-45862105D01*
X82192159Y-46010520D01*
X82450000Y-46062734D01*
X82950000Y-46062734D01*
X83105507Y-46033473D01*
X83250000Y-46062734D01*
X83750000Y-46062734D01*
X83905507Y-46033473D01*
X84050000Y-46062734D01*
X84550000Y-46062734D01*
X84705507Y-46033473D01*
X84850000Y-46062734D01*
X85350000Y-46062734D01*
X85505507Y-46033473D01*
X85650000Y-46062734D01*
X86150000Y-46062734D01*
X86305507Y-46033473D01*
X86450000Y-46062734D01*
X86950000Y-46062734D01*
X87105507Y-46033473D01*
X87250000Y-46062734D01*
X87750000Y-46062734D01*
X87905507Y-46033473D01*
X88050000Y-46062734D01*
X88550000Y-46062734D01*
X88705507Y-46033473D01*
X88850000Y-46062734D01*
X89350000Y-46062734D01*
X89505507Y-46033473D01*
X89650000Y-46062734D01*
X90150000Y-46062734D01*
X90305507Y-46033473D01*
X90450000Y-46062734D01*
X90950000Y-46062734D01*
X91105507Y-46033473D01*
X91250000Y-46062734D01*
X91750000Y-46062734D01*
X91905507Y-46033473D01*
X92050000Y-46062734D01*
X92550000Y-46062734D01*
X92705507Y-46033473D01*
X92850000Y-46062734D01*
X93350000Y-46062734D01*
X93505507Y-46033473D01*
X93650000Y-46062734D01*
X94150000Y-46062734D01*
X94305507Y-46033473D01*
X94450000Y-46062734D01*
X94950000Y-46062734D01*
X95105507Y-46033473D01*
X95250000Y-46062734D01*
X95750000Y-46062734D01*
X95905507Y-46033473D01*
X96050000Y-46062734D01*
X96550000Y-46062734D01*
X96705507Y-46033473D01*
X96850000Y-46062734D01*
X97319810Y-46062734D01*
X97250235Y-46230290D01*
X97249766Y-46767353D01*
X97319972Y-46937266D01*
X96850000Y-46937266D01*
X96609124Y-46982590D01*
X96387895Y-47124947D01*
X96244270Y-47335149D01*
X96223049Y-47283918D01*
X96175000Y-47235869D01*
X96175000Y-47181500D01*
X96035500Y-47042000D01*
X95939007Y-47042000D01*
X95900000Y-47058157D01*
X95860993Y-47042000D01*
X95764500Y-47042000D01*
X95625000Y-47181500D01*
X95625000Y-47235869D01*
X95576951Y-47283918D01*
X95500000Y-47469693D01*
X95423049Y-47283918D01*
X95375000Y-47235869D01*
X95375000Y-47181500D01*
X95235500Y-47042000D01*
X95139007Y-47042000D01*
X95100000Y-47058157D01*
X95060993Y-47042000D01*
X94964500Y-47042000D01*
X94825000Y-47181500D01*
X94825000Y-47235869D01*
X94776951Y-47283918D01*
X94754263Y-47338692D01*
X94625053Y-47137895D01*
X94407841Y-46989480D01*
X94150000Y-46937266D01*
X93650000Y-46937266D01*
X93494493Y-46966527D01*
X93350000Y-46937266D01*
X92850000Y-46937266D01*
X92694493Y-46966527D01*
X92550000Y-46937266D01*
X92050000Y-46937266D01*
X91894493Y-46966527D01*
X91750000Y-46937266D01*
X91250000Y-46937266D01*
X91094493Y-46966527D01*
X90950000Y-46937266D01*
X90450000Y-46937266D01*
X90294493Y-46966527D01*
X90150000Y-46937266D01*
X89650000Y-46937266D01*
X89494493Y-46966527D01*
X89350000Y-46937266D01*
X88850000Y-46937266D01*
X88694493Y-46966527D01*
X88550000Y-46937266D01*
X88050000Y-46937266D01*
X87894493Y-46966527D01*
X87750000Y-46937266D01*
X87250000Y-46937266D01*
X87094493Y-46966527D01*
X86950000Y-46937266D01*
X86450000Y-46937266D01*
X86294493Y-46966527D01*
X86150000Y-46937266D01*
X85650000Y-46937266D01*
X85494493Y-46966527D01*
X85350000Y-46937266D01*
X84850000Y-46937266D01*
X84694493Y-46966527D01*
X84550000Y-46937266D01*
X84050000Y-46937266D01*
X83894493Y-46966527D01*
X83750000Y-46937266D01*
X83250000Y-46937266D01*
X83094493Y-46966527D01*
X82950000Y-46937266D01*
X82450000Y-46937266D01*
X82209124Y-46982590D01*
X81987895Y-47124947D01*
X81839480Y-47342159D01*
X81822704Y-47425000D01*
X81800005Y-47425000D01*
X81800000Y-47424999D01*
X81552626Y-47474205D01*
X81503420Y-47483993D01*
X81264242Y-47643807D01*
X81251992Y-47651992D01*
X80054112Y-48849872D01*
X80011862Y-48849835D01*
X79699664Y-48978833D01*
X79586071Y-48931665D01*
X79612734Y-48800000D01*
X79612734Y-47600000D01*
X79567410Y-47359124D01*
X79425053Y-47137895D01*
X79207841Y-46989480D01*
X78950000Y-46937266D01*
X78450000Y-46937266D01*
X78294493Y-46966527D01*
X78150000Y-46937266D01*
X77650000Y-46937266D01*
X77494493Y-46966527D01*
X77350000Y-46937266D01*
X76850000Y-46937266D01*
X76694493Y-46966527D01*
X76550000Y-46937266D01*
X76050000Y-46937266D01*
X75894493Y-46966527D01*
X75750000Y-46937266D01*
X75250000Y-46937266D01*
X75094493Y-46966527D01*
X74950000Y-46937266D01*
X74450000Y-46937266D01*
X74209124Y-46982590D01*
X74137742Y-47028523D01*
X73965712Y-46856193D01*
X73469710Y-46650235D01*
X72932647Y-46649766D01*
X72436285Y-46854858D01*
X72056193Y-47234288D01*
X71850235Y-47730290D01*
X71849766Y-48267353D01*
X71861347Y-48295381D01*
X71595098Y-48561165D01*
X71450165Y-48910204D01*
X71449835Y-49288138D01*
X71594159Y-49637429D01*
X71861165Y-49904902D01*
X72210204Y-50049835D01*
X72588138Y-50050165D01*
X72770051Y-49975000D01*
X73700000Y-49975000D01*
X73909802Y-49933268D01*
X73994159Y-50137429D01*
X74261165Y-50404902D01*
X74610204Y-50549835D01*
X74988138Y-50550165D01*
X75337429Y-50405841D01*
X75349787Y-50393504D01*
X75361165Y-50404902D01*
X75710204Y-50549835D01*
X76088138Y-50550165D01*
X76400336Y-50421167D01*
X76710204Y-50549835D01*
X77088138Y-50550165D01*
X77400336Y-50421167D01*
X77710204Y-50549835D01*
X78088138Y-50550165D01*
X78437429Y-50405841D01*
X78449962Y-50393330D01*
X78661165Y-50604902D01*
X79010204Y-50749835D01*
X79388138Y-50750165D01*
X79700336Y-50621167D01*
X80010204Y-50749835D01*
X80388138Y-50750165D01*
X80737429Y-50605841D01*
X80786437Y-50556919D01*
X81010204Y-50649835D01*
X81388138Y-50650165D01*
X81737429Y-50505841D01*
X81768324Y-50475000D01*
X82700000Y-50475000D01*
X82996580Y-50416007D01*
X83161948Y-50305511D01*
X83261165Y-50404902D01*
X83610204Y-50549835D01*
X83988138Y-50550165D01*
X84337429Y-50405841D01*
X84386437Y-50356919D01*
X84610204Y-50449835D01*
X84988138Y-50450165D01*
X85079379Y-50412465D01*
X85410204Y-50549835D01*
X85788138Y-50550165D01*
X86137429Y-50405841D01*
X86157060Y-50386244D01*
X86310204Y-50449835D01*
X86688138Y-50450165D01*
X86950213Y-50341878D01*
X87210204Y-50449835D01*
X87588138Y-50450165D01*
X87742627Y-50386332D01*
X87761165Y-50404902D01*
X88110204Y-50549835D01*
X88488138Y-50550165D01*
X88750213Y-50441878D01*
X89010204Y-50549835D01*
X89388138Y-50550165D01*
X89600090Y-50462588D01*
X89810204Y-50549835D01*
X90188138Y-50550165D01*
X90400090Y-50462588D01*
X90610204Y-50549835D01*
X90988138Y-50550165D01*
X91200090Y-50462588D01*
X91410204Y-50549835D01*
X91788138Y-50550165D01*
X92120801Y-50412712D01*
X92210204Y-50449835D01*
X92588138Y-50450165D01*
X92679379Y-50412465D01*
X93010204Y-50549835D01*
X93388138Y-50550165D01*
X93737429Y-50405841D01*
X93823702Y-50319718D01*
X94151992Y-50648008D01*
X94403420Y-50816007D01*
X94700000Y-50875000D01*
X98731315Y-50875000D01*
X98761165Y-50904902D01*
X99110204Y-51049835D01*
X99225000Y-51049935D01*
X99225000Y-55406306D01*
X99131895Y-55367646D01*
X99005841Y-55062571D01*
X98738835Y-54795098D01*
X98389796Y-54650165D01*
X98383351Y-54650159D01*
X98305841Y-54462571D01*
X98038835Y-54195098D01*
X97689796Y-54050165D01*
X97311862Y-54049835D01*
X96962571Y-54194159D01*
X96695098Y-54461165D01*
X96550165Y-54810204D01*
X96549835Y-55188138D01*
X96657983Y-55449875D01*
X96611862Y-55449835D01*
X96262571Y-55594159D01*
X96250125Y-55606583D01*
X96138835Y-55495098D01*
X95789796Y-55350165D01*
X95411862Y-55349835D01*
X95062571Y-55494159D01*
X94900038Y-55656408D01*
X94838835Y-55595098D01*
X94489796Y-55450165D01*
X94111862Y-55449835D01*
X93762571Y-55594159D01*
X93650038Y-55706496D01*
X93538835Y-55595098D01*
X93189796Y-55450165D01*
X92811862Y-55449835D01*
X92462571Y-55594159D01*
X92400125Y-55656496D01*
X92338835Y-55595098D01*
X91989796Y-55450165D01*
X91611862Y-55449835D01*
X91262571Y-55594159D01*
X91200038Y-55656583D01*
X91038835Y-55495098D01*
X90689796Y-55350165D01*
X90311862Y-55349835D01*
X89962571Y-55494159D01*
X89850038Y-55606496D01*
X89738835Y-55495098D01*
X89389796Y-55350165D01*
X89011862Y-55349835D01*
X88662571Y-55494159D01*
X88600125Y-55556496D01*
X88538835Y-55495098D01*
X88189796Y-55350165D01*
X87811862Y-55349835D01*
X87462571Y-55494159D01*
X87195098Y-55761165D01*
X87099945Y-55990320D01*
X87005841Y-55762571D01*
X86738835Y-55495098D01*
X86389796Y-55350165D01*
X86011862Y-55349835D01*
X85715777Y-55472175D01*
X85638835Y-55395098D01*
X85289796Y-55250165D01*
X84911862Y-55249835D01*
X84562571Y-55394159D01*
X84550213Y-55406496D01*
X84538835Y-55395098D01*
X84189796Y-55250165D01*
X83811862Y-55249835D01*
X83515777Y-55372175D01*
X83438835Y-55295098D01*
X83089796Y-55150165D01*
X82711862Y-55149835D01*
X82362571Y-55294159D01*
X82099863Y-55556408D01*
X81938835Y-55395098D01*
X81589796Y-55250165D01*
X81211862Y-55249835D01*
X80986575Y-55342922D01*
X80938835Y-55295098D01*
X80589796Y-55150165D01*
X80211862Y-55149835D01*
X79862571Y-55294159D01*
X79750038Y-55406496D01*
X79638835Y-55295098D01*
X79289796Y-55150165D01*
X78911862Y-55149835D01*
X78562571Y-55294159D01*
X78550213Y-55306496D01*
X78538835Y-55295098D01*
X78189796Y-55150165D01*
X77811862Y-55149835D01*
X77462571Y-55294159D01*
X77350038Y-55406496D01*
X77238835Y-55295098D01*
X76889796Y-55150165D01*
X76511862Y-55149835D01*
X76162571Y-55294159D01*
X76100125Y-55356496D01*
X76038835Y-55295098D01*
X75689796Y-55150165D01*
X75311862Y-55149835D01*
X74962571Y-55294159D01*
X74950125Y-55306583D01*
X74838835Y-55195098D01*
X74489796Y-55050165D01*
X74111862Y-55049835D01*
X73762571Y-55194159D01*
X73684187Y-55272406D01*
X73389796Y-55150165D01*
X73011862Y-55149835D01*
X72662571Y-55294159D01*
X72395098Y-55561165D01*
X72250165Y-55910204D01*
X72249835Y-56288138D01*
X72394159Y-56637429D01*
X72661165Y-56904902D01*
X73010204Y-57049835D01*
X73053857Y-57049873D01*
X73925000Y-57921016D01*
X73925000Y-60416997D01*
X73839480Y-60542159D01*
X73787266Y-60800000D01*
X73787266Y-62000000D01*
X73832590Y-62240876D01*
X73974947Y-62462105D01*
X74192159Y-62610520D01*
X74450000Y-62662734D01*
X74950000Y-62662734D01*
X75105507Y-62633473D01*
X75250000Y-62662734D01*
X75750000Y-62662734D01*
X75905507Y-62633473D01*
X76050000Y-62662734D01*
X76550000Y-62662734D01*
X76705507Y-62633473D01*
X76850000Y-62662734D01*
X77350000Y-62662734D01*
X77505507Y-62633473D01*
X77650000Y-62662734D01*
X78150000Y-62662734D01*
X78305507Y-62633473D01*
X78450000Y-62662734D01*
X78950000Y-62662734D01*
X79190876Y-62617410D01*
X79412105Y-62475053D01*
X79560520Y-62257841D01*
X79612734Y-62000000D01*
X79612734Y-60800000D01*
X79567410Y-60559124D01*
X79475000Y-60415515D01*
X79475000Y-56972955D01*
X79637429Y-56905841D01*
X79749962Y-56793504D01*
X79861165Y-56904902D01*
X80210204Y-57049835D01*
X80253857Y-57049873D01*
X81925000Y-58721016D01*
X81925000Y-60416997D01*
X81839480Y-60542159D01*
X81787266Y-60800000D01*
X81787266Y-62000000D01*
X81832590Y-62240876D01*
X81974947Y-62462105D01*
X82192159Y-62610520D01*
X82450000Y-62662734D01*
X82950000Y-62662734D01*
X83105507Y-62633473D01*
X83250000Y-62662734D01*
X83750000Y-62662734D01*
X83905507Y-62633473D01*
X84050000Y-62662734D01*
X84550000Y-62662734D01*
X84705507Y-62633473D01*
X84850000Y-62662734D01*
X85350000Y-62662734D01*
X85505507Y-62633473D01*
X85650000Y-62662734D01*
X86150000Y-62662734D01*
X86305507Y-62633473D01*
X86450000Y-62662734D01*
X86950000Y-62662734D01*
X87105507Y-62633473D01*
X87250000Y-62662734D01*
X87750000Y-62662734D01*
X87905507Y-62633473D01*
X88050000Y-62662734D01*
X88550000Y-62662734D01*
X88705507Y-62633473D01*
X88850000Y-62662734D01*
X89350000Y-62662734D01*
X89505507Y-62633473D01*
X89650000Y-62662734D01*
X90150000Y-62662734D01*
X90305507Y-62633473D01*
X90450000Y-62662734D01*
X90950000Y-62662734D01*
X91105507Y-62633473D01*
X91250000Y-62662734D01*
X91750000Y-62662734D01*
X91905507Y-62633473D01*
X92050000Y-62662734D01*
X92550000Y-62662734D01*
X92705507Y-62633473D01*
X92850000Y-62662734D01*
X93350000Y-62662734D01*
X93505507Y-62633473D01*
X93650000Y-62662734D01*
X94150000Y-62662734D01*
X94305507Y-62633473D01*
X94450000Y-62662734D01*
X94950000Y-62662734D01*
X95105507Y-62633473D01*
X95250000Y-62662734D01*
X95750000Y-62662734D01*
X95905507Y-62633473D01*
X96050000Y-62662734D01*
X96550000Y-62662734D01*
X96705507Y-62633473D01*
X96850000Y-62662734D01*
X97319810Y-62662734D01*
X97250235Y-62830290D01*
X97249766Y-63367353D01*
X97319972Y-63537266D01*
X96850000Y-63537266D01*
X96609124Y-63582590D01*
X96387895Y-63724947D01*
X96244270Y-63935149D01*
X96223049Y-63883918D01*
X96175000Y-63835869D01*
X96175000Y-63781500D01*
X96035500Y-63642000D01*
X95939007Y-63642000D01*
X95900000Y-63658157D01*
X95860993Y-63642000D01*
X95764500Y-63642000D01*
X95625000Y-63781500D01*
X95625000Y-63835869D01*
X95576951Y-63883918D01*
X95500000Y-64069693D01*
X95423049Y-63883918D01*
X95375000Y-63835869D01*
X95375000Y-63781500D01*
X95235500Y-63642000D01*
X95139007Y-63642000D01*
X95100000Y-63658157D01*
X95060993Y-63642000D01*
X94964500Y-63642000D01*
X94825000Y-63781500D01*
X94825000Y-63835869D01*
X94776951Y-63883918D01*
X94754263Y-63938692D01*
X94625053Y-63737895D01*
X94407841Y-63589480D01*
X94150000Y-63537266D01*
X93650000Y-63537266D01*
X93494493Y-63566527D01*
X93350000Y-63537266D01*
X92850000Y-63537266D01*
X92694493Y-63566527D01*
X92550000Y-63537266D01*
X92050000Y-63537266D01*
X91894493Y-63566527D01*
X91750000Y-63537266D01*
X91250000Y-63537266D01*
X91094493Y-63566527D01*
X90950000Y-63537266D01*
X90450000Y-63537266D01*
X90294493Y-63566527D01*
X90150000Y-63537266D01*
X89650000Y-63537266D01*
X89494493Y-63566527D01*
X89350000Y-63537266D01*
X88850000Y-63537266D01*
X88694493Y-63566527D01*
X88550000Y-63537266D01*
X88050000Y-63537266D01*
X87894493Y-63566527D01*
X87750000Y-63537266D01*
X87250000Y-63537266D01*
X87094493Y-63566527D01*
X86950000Y-63537266D01*
X86450000Y-63537266D01*
X86294493Y-63566527D01*
X86150000Y-63537266D01*
X85650000Y-63537266D01*
X85494493Y-63566527D01*
X85350000Y-63537266D01*
X84850000Y-63537266D01*
X84694493Y-63566527D01*
X84550000Y-63537266D01*
X84050000Y-63537266D01*
X83894493Y-63566527D01*
X83750000Y-63537266D01*
X83250000Y-63537266D01*
X83094493Y-63566527D01*
X82950000Y-63537266D01*
X82450000Y-63537266D01*
X82209124Y-63582590D01*
X81987895Y-63724947D01*
X81839480Y-63942159D01*
X81822704Y-64025000D01*
X81800005Y-64025000D01*
X81800000Y-64024999D01*
X81552626Y-64074205D01*
X81503420Y-64083993D01*
X81264242Y-64243807D01*
X81251992Y-64251992D01*
X80054112Y-65449872D01*
X80011862Y-65449835D01*
X79699664Y-65578833D01*
X79586071Y-65531665D01*
X79612734Y-65400000D01*
X79612734Y-64200000D01*
X79567410Y-63959124D01*
X79425053Y-63737895D01*
X79207841Y-63589480D01*
X78950000Y-63537266D01*
X78450000Y-63537266D01*
X78294493Y-63566527D01*
X78150000Y-63537266D01*
X77650000Y-63537266D01*
X77494493Y-63566527D01*
X77350000Y-63537266D01*
X76850000Y-63537266D01*
X76694493Y-63566527D01*
X76550000Y-63537266D01*
X76050000Y-63537266D01*
X75894493Y-63566527D01*
X75750000Y-63537266D01*
X75250000Y-63537266D01*
X75094493Y-63566527D01*
X74950000Y-63537266D01*
X74450000Y-63537266D01*
X74209124Y-63582590D01*
X74137742Y-63628523D01*
X73965712Y-63456193D01*
X73469710Y-63250235D01*
X72932647Y-63249766D01*
X72436285Y-63454858D01*
X72056193Y-63834288D01*
X71850235Y-64330290D01*
X71849766Y-64867353D01*
X71861347Y-64895381D01*
X71595098Y-65161165D01*
X71450165Y-65510204D01*
X71449835Y-65888138D01*
X71594159Y-66237429D01*
X71861165Y-66504902D01*
X72210204Y-66649835D01*
X72588138Y-66650165D01*
X72770051Y-66575000D01*
X73700000Y-66575000D01*
X73909802Y-66533268D01*
X73994159Y-66737429D01*
X74261165Y-67004902D01*
X74610204Y-67149835D01*
X74988138Y-67150165D01*
X75337429Y-67005841D01*
X75349787Y-66993504D01*
X75361165Y-67004902D01*
X75710204Y-67149835D01*
X76088138Y-67150165D01*
X76400336Y-67021167D01*
X76710204Y-67149835D01*
X77088138Y-67150165D01*
X77400336Y-67021167D01*
X77710204Y-67149835D01*
X78088138Y-67150165D01*
X78437429Y-67005841D01*
X78449962Y-66993330D01*
X78661165Y-67204902D01*
X79010204Y-67349835D01*
X79388138Y-67350165D01*
X79700336Y-67221167D01*
X80010204Y-67349835D01*
X80388138Y-67350165D01*
X80737429Y-67205841D01*
X80786437Y-67156919D01*
X81010204Y-67249835D01*
X81388138Y-67250165D01*
X81737429Y-67105841D01*
X81768324Y-67075000D01*
X82700000Y-67075000D01*
X82996580Y-67016007D01*
X83161948Y-66905511D01*
X83261165Y-67004902D01*
X83610204Y-67149835D01*
X83988138Y-67150165D01*
X84337429Y-67005841D01*
X84386437Y-66956919D01*
X84610204Y-67049835D01*
X84988138Y-67050165D01*
X85079379Y-67012465D01*
X85410204Y-67149835D01*
X85788138Y-67150165D01*
X86137429Y-67005841D01*
X86157060Y-66986244D01*
X86310204Y-67049835D01*
X86688138Y-67050165D01*
X86950213Y-66941878D01*
X87210204Y-67049835D01*
X87588138Y-67050165D01*
X87742627Y-66986332D01*
X87761165Y-67004902D01*
X88110204Y-67149835D01*
X88488138Y-67150165D01*
X88750213Y-67041878D01*
X89010204Y-67149835D01*
X89388138Y-67150165D01*
X89600090Y-67062588D01*
X89810204Y-67149835D01*
X90188138Y-67150165D01*
X90400090Y-67062588D01*
X90610204Y-67149835D01*
X90988138Y-67150165D01*
X91200090Y-67062588D01*
X91410204Y-67149835D01*
X91788138Y-67150165D01*
X92120801Y-67012712D01*
X92210204Y-67049835D01*
X92588138Y-67050165D01*
X92679379Y-67012465D01*
X93010204Y-67149835D01*
X93388138Y-67150165D01*
X93737429Y-67005841D01*
X94004902Y-66738835D01*
X94045367Y-66641383D01*
X94751992Y-67348008D01*
X95003420Y-67516007D01*
X95300000Y-67575000D01*
X98731315Y-67575000D01*
X98761165Y-67604902D01*
X99110204Y-67749835D01*
X99225000Y-67749935D01*
X99225000Y-71681589D01*
X99038835Y-71495098D01*
X98689796Y-71350165D01*
X98311862Y-71349835D01*
X97962571Y-71494159D01*
X97695098Y-71761165D01*
X97550165Y-72110204D01*
X97550127Y-72153858D01*
X97423787Y-72280198D01*
X97338835Y-72195098D01*
X96989796Y-72050165D01*
X96611862Y-72049835D01*
X96262571Y-72194159D01*
X96250125Y-72206583D01*
X96138835Y-72095098D01*
X95789796Y-71950165D01*
X95411862Y-71949835D01*
X95062571Y-72094159D01*
X94900038Y-72256408D01*
X94838835Y-72195098D01*
X94489796Y-72050165D01*
X94111862Y-72049835D01*
X93762571Y-72194159D01*
X93650038Y-72306496D01*
X93538835Y-72195098D01*
X93189796Y-72050165D01*
X92811862Y-72049835D01*
X92462571Y-72194159D01*
X92400125Y-72256496D01*
X92338835Y-72195098D01*
X91989796Y-72050165D01*
X91611862Y-72049835D01*
X91262571Y-72194159D01*
X91200038Y-72256583D01*
X91038835Y-72095098D01*
X90689796Y-71950165D01*
X90311862Y-71949835D01*
X89962571Y-72094159D01*
X89850038Y-72206496D01*
X89738835Y-72095098D01*
X89389796Y-71950165D01*
X89011862Y-71949835D01*
X88662571Y-72094159D01*
X88600125Y-72156496D01*
X88538835Y-72095098D01*
X88189796Y-71950165D01*
X87811862Y-71949835D01*
X87462571Y-72094159D01*
X87195098Y-72361165D01*
X87099945Y-72590320D01*
X87005841Y-72362571D01*
X86738835Y-72095098D01*
X86389796Y-71950165D01*
X86011862Y-71949835D01*
X85715777Y-72072175D01*
X85638835Y-71995098D01*
X85289796Y-71850165D01*
X84911862Y-71849835D01*
X84562571Y-71994159D01*
X84550213Y-72006496D01*
X84538835Y-71995098D01*
X84189796Y-71850165D01*
X83811862Y-71849835D01*
X83515777Y-71972175D01*
X83438835Y-71895098D01*
X83089796Y-71750165D01*
X82711862Y-71749835D01*
X82362571Y-71894159D01*
X82099863Y-72156408D01*
X81938835Y-71995098D01*
X81589796Y-71850165D01*
X81211862Y-71849835D01*
X80986575Y-71942922D01*
X80938835Y-71895098D01*
X80589796Y-71750165D01*
X80211862Y-71749835D01*
X79862571Y-71894159D01*
X79750038Y-72006496D01*
X79638835Y-71895098D01*
X79289796Y-71750165D01*
X78911862Y-71749835D01*
X78562571Y-71894159D01*
X78550213Y-71906496D01*
X78538835Y-71895098D01*
X78189796Y-71750165D01*
X77811862Y-71749835D01*
X77462571Y-71894159D01*
X77350038Y-72006496D01*
X77238835Y-71895098D01*
X76889796Y-71750165D01*
X76511862Y-71749835D01*
X76162571Y-71894159D01*
X76100125Y-71956496D01*
X76038835Y-71895098D01*
X75689796Y-71750165D01*
X75311862Y-71749835D01*
X74962571Y-71894159D01*
X74950125Y-71906583D01*
X74838835Y-71795098D01*
X74489796Y-71650165D01*
X74111862Y-71649835D01*
X73762571Y-71794159D01*
X73684187Y-71872406D01*
X73389796Y-71750165D01*
X73011862Y-71749835D01*
X72662571Y-71894159D01*
X72395098Y-72161165D01*
X72250165Y-72510204D01*
X72249835Y-72888138D01*
X72394159Y-73237429D01*
X72661165Y-73504902D01*
X73010204Y-73649835D01*
X73053857Y-73649873D01*
X73925000Y-74521016D01*
X73925000Y-77016997D01*
X73839480Y-77142159D01*
X73787266Y-77400000D01*
X73787266Y-78600000D01*
X73832590Y-78840876D01*
X73974947Y-79062105D01*
X74192159Y-79210520D01*
X74450000Y-79262734D01*
X74950000Y-79262734D01*
X75105507Y-79233473D01*
X75250000Y-79262734D01*
X75750000Y-79262734D01*
X75905507Y-79233473D01*
X76050000Y-79262734D01*
X76550000Y-79262734D01*
X76705507Y-79233473D01*
X76850000Y-79262734D01*
X77350000Y-79262734D01*
X77505507Y-79233473D01*
X77650000Y-79262734D01*
X78150000Y-79262734D01*
X78305507Y-79233473D01*
X78450000Y-79262734D01*
X78950000Y-79262734D01*
X79190876Y-79217410D01*
X79412105Y-79075053D01*
X79560520Y-78857841D01*
X79612734Y-78600000D01*
X79612734Y-77400000D01*
X79567410Y-77159124D01*
X79475000Y-77015515D01*
X79475000Y-73572955D01*
X79637429Y-73505841D01*
X79749962Y-73393504D01*
X79861165Y-73504902D01*
X80210204Y-73649835D01*
X80253857Y-73649873D01*
X81925000Y-75321016D01*
X81925000Y-77016997D01*
X81839480Y-77142159D01*
X81787266Y-77400000D01*
X81787266Y-78600000D01*
X81832590Y-78840876D01*
X81974947Y-79062105D01*
X82192159Y-79210520D01*
X82450000Y-79262734D01*
X82950000Y-79262734D01*
X83105507Y-79233473D01*
X83250000Y-79262734D01*
X83750000Y-79262734D01*
X83905507Y-79233473D01*
X84050000Y-79262734D01*
X84550000Y-79262734D01*
X84705507Y-79233473D01*
X84850000Y-79262734D01*
X85350000Y-79262734D01*
X85505507Y-79233473D01*
X85650000Y-79262734D01*
X86150000Y-79262734D01*
X86305507Y-79233473D01*
X86450000Y-79262734D01*
X86950000Y-79262734D01*
X87105507Y-79233473D01*
X87250000Y-79262734D01*
X87750000Y-79262734D01*
X87905507Y-79233473D01*
X88050000Y-79262734D01*
X88550000Y-79262734D01*
X88705507Y-79233473D01*
X88850000Y-79262734D01*
X89350000Y-79262734D01*
X89505507Y-79233473D01*
X89650000Y-79262734D01*
X90150000Y-79262734D01*
X90305507Y-79233473D01*
X90450000Y-79262734D01*
X90950000Y-79262734D01*
X91105507Y-79233473D01*
X91250000Y-79262734D01*
X91750000Y-79262734D01*
X91905507Y-79233473D01*
X92050000Y-79262734D01*
X92550000Y-79262734D01*
X92705507Y-79233473D01*
X92850000Y-79262734D01*
X93350000Y-79262734D01*
X93505507Y-79233473D01*
X93650000Y-79262734D01*
X94150000Y-79262734D01*
X94305507Y-79233473D01*
X94450000Y-79262734D01*
X94950000Y-79262734D01*
X95105507Y-79233473D01*
X95250000Y-79262734D01*
X95750000Y-79262734D01*
X95905507Y-79233473D01*
X96050000Y-79262734D01*
X96550000Y-79262734D01*
X96705507Y-79233473D01*
X96850000Y-79262734D01*
X97319810Y-79262734D01*
X97250235Y-79430290D01*
X97249766Y-79967353D01*
X97319972Y-80137266D01*
X96850000Y-80137266D01*
X96609124Y-80182590D01*
X96387895Y-80324947D01*
X96244270Y-80535149D01*
X96223049Y-80483918D01*
X96175000Y-80435869D01*
X96175000Y-80381500D01*
X96035500Y-80242000D01*
X95939007Y-80242000D01*
X95900000Y-80258157D01*
X95860993Y-80242000D01*
X95764500Y-80242000D01*
X95625000Y-80381500D01*
X95625000Y-80435869D01*
X95576951Y-80483918D01*
X95500000Y-80669693D01*
X95423049Y-80483918D01*
X95375000Y-80435869D01*
X95375000Y-80381500D01*
X95235500Y-80242000D01*
X95139007Y-80242000D01*
X95100000Y-80258157D01*
X95060993Y-80242000D01*
X94964500Y-80242000D01*
X94825000Y-80381500D01*
X94825000Y-80435869D01*
X94776951Y-80483918D01*
X94754263Y-80538692D01*
X94625053Y-80337895D01*
X94407841Y-80189480D01*
X94150000Y-80137266D01*
X93650000Y-80137266D01*
X93494493Y-80166527D01*
X93350000Y-80137266D01*
X92850000Y-80137266D01*
X92694493Y-80166527D01*
X92550000Y-80137266D01*
X92050000Y-80137266D01*
X91894493Y-80166527D01*
X91750000Y-80137266D01*
X91250000Y-80137266D01*
X91094493Y-80166527D01*
X90950000Y-80137266D01*
X90450000Y-80137266D01*
X90294493Y-80166527D01*
X90150000Y-80137266D01*
X89650000Y-80137266D01*
X89494493Y-80166527D01*
X89350000Y-80137266D01*
X88850000Y-80137266D01*
X88694493Y-80166527D01*
X88550000Y-80137266D01*
X88050000Y-80137266D01*
X87894493Y-80166527D01*
X87750000Y-80137266D01*
X87250000Y-80137266D01*
X87094493Y-80166527D01*
X86950000Y-80137266D01*
X86450000Y-80137266D01*
X86294493Y-80166527D01*
X86150000Y-80137266D01*
X85650000Y-80137266D01*
X85494493Y-80166527D01*
X85350000Y-80137266D01*
X84850000Y-80137266D01*
X84694493Y-80166527D01*
X84550000Y-80137266D01*
X84050000Y-80137266D01*
X83894493Y-80166527D01*
X83750000Y-80137266D01*
X83250000Y-80137266D01*
X83094493Y-80166527D01*
X82950000Y-80137266D01*
X82450000Y-80137266D01*
X82209124Y-80182590D01*
X81987895Y-80324947D01*
X81839480Y-80542159D01*
X81822704Y-80625000D01*
X81800005Y-80625000D01*
X81800000Y-80624999D01*
X81552626Y-80674205D01*
X81503420Y-80683993D01*
X81264242Y-80843807D01*
X81251992Y-80851992D01*
X80054112Y-82049872D01*
X80011862Y-82049835D01*
X79699664Y-82178833D01*
X79586071Y-82131665D01*
X79612734Y-82000000D01*
X79612734Y-80800000D01*
X79567410Y-80559124D01*
X79425053Y-80337895D01*
X79207841Y-80189480D01*
X78950000Y-80137266D01*
X78450000Y-80137266D01*
X78294493Y-80166527D01*
X78150000Y-80137266D01*
X77650000Y-80137266D01*
X77494493Y-80166527D01*
X77350000Y-80137266D01*
X76850000Y-80137266D01*
X76694493Y-80166527D01*
X76550000Y-80137266D01*
X76050000Y-80137266D01*
X75894493Y-80166527D01*
X75750000Y-80137266D01*
X75250000Y-80137266D01*
X75094493Y-80166527D01*
X74950000Y-80137266D01*
X74450000Y-80137266D01*
X74209124Y-80182590D01*
X74137742Y-80228523D01*
X73965712Y-80056193D01*
X73469710Y-79850235D01*
X72932647Y-79849766D01*
X72436285Y-80054858D01*
X72056193Y-80434288D01*
X71850235Y-80930290D01*
X71849766Y-81467353D01*
X71861347Y-81495381D01*
X71595098Y-81761165D01*
X71450165Y-82110204D01*
X71449835Y-82488138D01*
X71594159Y-82837429D01*
X71861165Y-83104902D01*
X72210204Y-83249835D01*
X72588138Y-83250165D01*
X72770051Y-83175000D01*
X73700000Y-83175000D01*
X73909802Y-83133268D01*
X73994159Y-83337429D01*
X74261165Y-83604902D01*
X74610204Y-83749835D01*
X74988138Y-83750165D01*
X75337429Y-83605841D01*
X75349787Y-83593504D01*
X75361165Y-83604902D01*
X75710204Y-83749835D01*
X76088138Y-83750165D01*
X76400336Y-83621167D01*
X76710204Y-83749835D01*
X77088138Y-83750165D01*
X77400336Y-83621167D01*
X77710204Y-83749835D01*
X78088138Y-83750165D01*
X78437429Y-83605841D01*
X78449962Y-83593330D01*
X78661165Y-83804902D01*
X79010204Y-83949835D01*
X79388138Y-83950165D01*
X79700336Y-83821167D01*
X80010204Y-83949835D01*
X80388138Y-83950165D01*
X80737429Y-83805841D01*
X80786437Y-83756919D01*
X81010204Y-83849835D01*
X81388138Y-83850165D01*
X81737429Y-83705841D01*
X81768324Y-83675000D01*
X82700000Y-83675000D01*
X82996580Y-83616007D01*
X83161948Y-83505511D01*
X83261165Y-83604902D01*
X83610204Y-83749835D01*
X83988138Y-83750165D01*
X84337429Y-83605841D01*
X84386437Y-83556919D01*
X84610204Y-83649835D01*
X84988138Y-83650165D01*
X85079379Y-83612465D01*
X85410204Y-83749835D01*
X85788138Y-83750165D01*
X86137429Y-83605841D01*
X86157060Y-83586244D01*
X86310204Y-83649835D01*
X86688138Y-83650165D01*
X86950213Y-83541878D01*
X87210204Y-83649835D01*
X87588138Y-83650165D01*
X87742627Y-83586332D01*
X87761165Y-83604902D01*
X88110204Y-83749835D01*
X88488138Y-83750165D01*
X88750213Y-83641878D01*
X89010204Y-83749835D01*
X89388138Y-83750165D01*
X89600090Y-83662588D01*
X89810204Y-83749835D01*
X90188138Y-83750165D01*
X90400090Y-83662588D01*
X90610204Y-83749835D01*
X90988138Y-83750165D01*
X91200090Y-83662588D01*
X91410204Y-83749835D01*
X91788138Y-83750165D01*
X92120801Y-83612712D01*
X92210204Y-83649835D01*
X92588138Y-83650165D01*
X92679379Y-83612465D01*
X93010204Y-83749835D01*
X93388138Y-83750165D01*
X93737429Y-83605841D01*
X93923790Y-83419806D01*
X94451992Y-83948008D01*
X94703420Y-84116007D01*
X95000000Y-84175000D01*
X98700000Y-84175000D01*
X98996580Y-84116007D01*
X99248008Y-83948008D01*
X99664874Y-83531142D01*
X101317536Y-83531142D01*
X101724986Y-84517246D01*
X102478786Y-85272363D01*
X103464177Y-85681533D01*
X104531142Y-85682464D01*
X105517246Y-85275014D01*
X106272363Y-84521214D01*
X106681533Y-83535823D01*
X106682464Y-82468858D01*
X106275014Y-81482754D01*
X105521214Y-80727637D01*
X104535823Y-80318467D01*
X103468858Y-80317536D01*
X102482754Y-80724986D01*
X101727637Y-81478786D01*
X101318467Y-82464177D01*
X101317536Y-83531142D01*
X99664874Y-83531142D01*
X101248008Y-81948008D01*
X101416007Y-81696580D01*
X101475000Y-81400000D01*
X101475000Y-74010647D01*
X101810204Y-74149835D01*
X102188138Y-74150165D01*
X102537429Y-74005841D01*
X102550093Y-73993200D01*
X102549835Y-74288138D01*
X102694159Y-74637429D01*
X102961165Y-74904902D01*
X103310204Y-75049835D01*
X103375351Y-75049892D01*
X103494159Y-75337429D01*
X103761165Y-75604902D01*
X104110204Y-75749835D01*
X104488138Y-75750165D01*
X104837429Y-75605841D01*
X105104902Y-75338835D01*
X105249835Y-74989796D01*
X105250165Y-74611862D01*
X105105841Y-74262571D01*
X105075000Y-74231676D01*
X105075000Y-58368685D01*
X105104902Y-58338835D01*
X105249835Y-57989796D01*
X105250165Y-57611862D01*
X105105841Y-57262571D01*
X105075000Y-57231676D01*
X105075000Y-41468685D01*
X105104902Y-41438835D01*
X105249835Y-41089796D01*
X105250165Y-40711862D01*
X105105841Y-40362571D01*
X105075000Y-40331676D01*
X105075000Y-37068685D01*
X105104902Y-37038835D01*
X105249835Y-36689796D01*
X105250165Y-36311862D01*
X105105841Y-35962571D01*
X104838835Y-35695098D01*
X104489796Y-35550165D01*
X104375000Y-35550065D01*
X104375000Y-28500000D01*
X104316007Y-28203420D01*
X104148008Y-27951992D01*
X103877910Y-27681894D01*
X104531142Y-27682464D01*
X105517246Y-27275014D01*
X106272363Y-26521214D01*
X106681533Y-25535823D01*
X106682464Y-24468858D01*
X106275014Y-23482754D01*
X105521214Y-22727637D01*
X104535823Y-22318467D01*
X103468858Y-22317536D01*
X102482754Y-22724986D01*
X101727637Y-23478786D01*
X101318467Y-24464177D01*
X101317893Y-25121877D01*
X101048008Y-24851992D01*
X100796580Y-24683993D01*
X100500000Y-24625000D01*
X92668685Y-24625000D01*
X92638835Y-24595098D01*
X92289796Y-24450165D01*
X91911862Y-24449835D01*
X91562571Y-24594159D01*
X91295098Y-24861165D01*
X91150165Y-25210204D01*
X91150127Y-25253857D01*
X90951992Y-25451992D01*
X90783993Y-25703420D01*
X90725000Y-26000000D01*
X90725000Y-27216997D01*
X90644270Y-27335149D01*
X90623049Y-27283918D01*
X90575000Y-27235869D01*
X90575000Y-27181500D01*
X90435500Y-27042000D01*
X90339007Y-27042000D01*
X90300000Y-27058157D01*
X90260993Y-27042000D01*
X90164500Y-27042000D01*
X90025000Y-27181500D01*
X90025000Y-27235869D01*
X89976951Y-27283918D01*
X89892000Y-27489007D01*
X89892000Y-27760500D01*
X90025000Y-27893500D01*
X90025000Y-27900000D01*
X90150000Y-27900000D01*
X90150000Y-28500000D01*
X90025000Y-28500000D01*
X90025000Y-28506500D01*
X89892000Y-28639500D01*
X89892000Y-28910993D01*
X89976951Y-29116082D01*
X90025000Y-29164131D01*
X90025000Y-29218500D01*
X90164500Y-29358000D01*
X90260993Y-29358000D01*
X90300000Y-29341843D01*
X90339007Y-29358000D01*
X90435500Y-29358000D01*
X90575000Y-29218500D01*
X90575000Y-29164131D01*
X90623049Y-29116082D01*
X90645737Y-29061308D01*
X90774947Y-29262105D01*
X90992159Y-29410520D01*
X91250000Y-29462734D01*
X91750000Y-29462734D01*
X91905507Y-29433473D01*
X92050000Y-29462734D01*
X92550000Y-29462734D01*
X92790876Y-29417410D01*
X93012105Y-29275053D01*
X93155730Y-29064851D01*
X93176951Y-29116082D01*
X93225000Y-29164131D01*
X93225000Y-29218500D01*
X93364500Y-29358000D01*
X93460993Y-29358000D01*
X93500000Y-29341843D01*
X93539007Y-29358000D01*
X93635500Y-29358000D01*
X93775000Y-29218500D01*
X93775000Y-29164131D01*
X93823049Y-29116082D01*
X93900000Y-28930307D01*
X93976951Y-29116082D01*
X94025000Y-29164131D01*
X94025000Y-29218500D01*
X94164500Y-29358000D01*
X94550123Y-29358000D01*
X94549835Y-29688138D01*
X94694159Y-30037429D01*
X94961165Y-30304902D01*
X95104871Y-30364574D01*
X95094493Y-30366527D01*
X94950000Y-30337266D01*
X94450000Y-30337266D01*
X94209124Y-30382590D01*
X93987895Y-30524947D01*
X93844270Y-30735149D01*
X93823049Y-30683918D01*
X93775000Y-30635869D01*
X93775000Y-30581500D01*
X93635500Y-30442000D01*
X93539007Y-30442000D01*
X93500000Y-30458157D01*
X93460993Y-30442000D01*
X93364500Y-30442000D01*
X93225000Y-30581500D01*
X93225000Y-30635869D01*
X93176951Y-30683918D01*
X93154263Y-30738692D01*
X93025053Y-30537895D01*
X92807841Y-30389480D01*
X92550000Y-30337266D01*
X92050000Y-30337266D01*
X91894493Y-30366527D01*
X91750000Y-30337266D01*
X91250000Y-30337266D01*
X91094493Y-30366527D01*
X90950000Y-30337266D01*
X90450000Y-30337266D01*
X90294493Y-30366527D01*
X90150000Y-30337266D01*
X89650000Y-30337266D01*
X89409124Y-30382590D01*
X89337742Y-30428523D01*
X89165712Y-30256193D01*
X88669710Y-30050235D01*
X88132647Y-30049766D01*
X87636285Y-30254858D01*
X87256193Y-30634288D01*
X87050235Y-31130290D01*
X87049766Y-31667353D01*
X87254858Y-32163715D01*
X87634288Y-32543807D01*
X88130290Y-32749765D01*
X88667353Y-32750234D01*
X89113132Y-32566042D01*
X89125000Y-32584485D01*
X89125000Y-33231315D01*
X89095098Y-33261165D01*
X88950165Y-33610204D01*
X88949835Y-33988138D01*
X89094159Y-34337429D01*
X89125000Y-34368324D01*
X89125000Y-35600000D01*
X89183993Y-35896580D01*
X89351992Y-36148008D01*
X91151990Y-37948005D01*
X91151992Y-37948008D01*
X91403420Y-38116007D01*
X91700000Y-38175000D01*
X96781414Y-38175000D01*
X96695098Y-38261165D01*
X96550165Y-38610204D01*
X96549933Y-38875423D01*
X96262571Y-38994159D01*
X96250125Y-39006583D01*
X96138835Y-38895098D01*
X95789796Y-38750165D01*
X95411862Y-38749835D01*
X95062571Y-38894159D01*
X94900038Y-39056408D01*
X94838835Y-38995098D01*
X94489796Y-38850165D01*
X94111862Y-38849835D01*
X93762571Y-38994159D01*
X93650038Y-39106496D01*
X93538835Y-38995098D01*
X93189796Y-38850165D01*
X92811862Y-38849835D01*
X92462571Y-38994159D01*
X92400125Y-39056496D01*
X92338835Y-38995098D01*
X91989796Y-38850165D01*
X91611862Y-38849835D01*
X91262571Y-38994159D01*
X91200038Y-39056583D01*
X91038835Y-38895098D01*
X90689796Y-38750165D01*
X90311862Y-38749835D01*
X89962571Y-38894159D01*
X89850038Y-39006496D01*
X89738835Y-38895098D01*
X89389796Y-38750165D01*
X89011862Y-38749835D01*
X88662571Y-38894159D01*
X88600125Y-38956496D01*
X88538835Y-38895098D01*
X88189796Y-38750165D01*
X87811862Y-38749835D01*
X87462571Y-38894159D01*
X87195098Y-39161165D01*
X87099945Y-39390320D01*
X87005841Y-39162571D01*
X86738835Y-38895098D01*
X86389796Y-38750165D01*
X86011862Y-38749835D01*
X85715777Y-38872175D01*
X85638835Y-38795098D01*
X85289796Y-38650165D01*
X84911862Y-38649835D01*
X84562571Y-38794159D01*
X84550213Y-38806496D01*
X84538835Y-38795098D01*
X84189796Y-38650165D01*
X83811862Y-38649835D01*
X83515777Y-38772175D01*
X83438835Y-38695098D01*
X83089796Y-38550165D01*
X82711862Y-38549835D01*
X82362571Y-38694159D01*
X82099863Y-38956408D01*
X81938835Y-38795098D01*
X81589796Y-38650165D01*
X81211862Y-38649835D01*
X80986575Y-38742922D01*
X80938835Y-38695098D01*
X80589796Y-38550165D01*
X80211862Y-38549835D01*
X79862571Y-38694159D01*
X79750038Y-38806496D01*
X79638835Y-38695098D01*
X79289796Y-38550165D01*
X78911862Y-38549835D01*
X78562571Y-38694159D01*
X78550213Y-38706496D01*
X78538835Y-38695098D01*
X78189796Y-38550165D01*
X77811862Y-38549835D01*
X77462571Y-38694159D01*
X77350038Y-38806496D01*
X77238835Y-38695098D01*
X77150124Y-38658262D01*
X77150165Y-38611862D01*
X77005841Y-38262571D01*
X76975000Y-38231676D01*
X76975000Y-28639500D01*
X89092000Y-28639500D01*
X89092000Y-28910993D01*
X89176951Y-29116082D01*
X89333918Y-29273050D01*
X89539007Y-29358000D01*
X89635500Y-29358000D01*
X89775000Y-29218500D01*
X89775000Y-28500000D01*
X89231500Y-28500000D01*
X89092000Y-28639500D01*
X76975000Y-28639500D01*
X76975000Y-27489007D01*
X89092000Y-27489007D01*
X89092000Y-27760500D01*
X89231500Y-27900000D01*
X89775000Y-27900000D01*
X89775000Y-27181500D01*
X89635500Y-27042000D01*
X89539007Y-27042000D01*
X89333918Y-27126950D01*
X89176951Y-27283918D01*
X89092000Y-27489007D01*
X76975000Y-27489007D01*
X76975000Y-24339982D01*
X77378040Y-24070679D01*
X77739183Y-23530190D01*
X77866000Y-22892639D01*
X77866000Y-22827361D01*
X77739183Y-22189810D01*
X77428607Y-21725000D01*
X107275000Y-21725000D01*
X107275000Y-86275000D01*
X24725000Y-86275000D01*
X24725000Y-83531142D01*
X25317536Y-83531142D01*
X25724986Y-84517246D01*
X26478786Y-85272363D01*
X27464177Y-85681533D01*
X28531142Y-85682464D01*
X29517246Y-85275014D01*
X30272363Y-84521214D01*
X30681533Y-83535823D01*
X30682464Y-82468858D01*
X30275014Y-81482754D01*
X29521214Y-80727637D01*
X28535823Y-80318467D01*
X27468858Y-80317536D01*
X26482754Y-80724986D01*
X25727637Y-81478786D01*
X25318467Y-82464177D01*
X25317536Y-83531142D01*
X24725000Y-83531142D01*
X24725000Y-76954481D01*
X69862277Y-76954481D01*
X70057495Y-77426943D01*
X70418655Y-77788735D01*
X70890776Y-77984777D01*
X71401981Y-77985223D01*
X71874443Y-77790005D01*
X72236235Y-77428845D01*
X72432277Y-76956724D01*
X72432723Y-76445519D01*
X72237505Y-75973057D01*
X71876345Y-75611265D01*
X71404224Y-75415223D01*
X70893019Y-75414777D01*
X70420557Y-75609995D01*
X70058765Y-75971155D01*
X69862723Y-76443276D01*
X69862277Y-76954481D01*
X24725000Y-76954481D01*
X24725000Y-60354481D01*
X69862277Y-60354481D01*
X70057495Y-60826943D01*
X70418655Y-61188735D01*
X70890776Y-61384777D01*
X71401981Y-61385223D01*
X71874443Y-61190005D01*
X72236235Y-60828845D01*
X72432277Y-60356724D01*
X72432723Y-59845519D01*
X72237505Y-59373057D01*
X71876345Y-59011265D01*
X71404224Y-58815223D01*
X70893019Y-58814777D01*
X70420557Y-59009995D01*
X70058765Y-59371155D01*
X69862723Y-59843276D01*
X69862277Y-60354481D01*
X24725000Y-60354481D01*
X24725000Y-43754481D01*
X69862277Y-43754481D01*
X70057495Y-44226943D01*
X70418655Y-44588735D01*
X70890776Y-44784777D01*
X71401981Y-44785223D01*
X71874443Y-44590005D01*
X72236235Y-44228845D01*
X72432277Y-43756724D01*
X72432723Y-43245519D01*
X72237505Y-42773057D01*
X71876345Y-42411265D01*
X71404224Y-42215223D01*
X70893019Y-42214777D01*
X70420557Y-42409995D01*
X70058765Y-42771155D01*
X69862723Y-43243276D01*
X69862277Y-43754481D01*
X24725000Y-43754481D01*
X24725000Y-25531142D01*
X25317536Y-25531142D01*
X25724986Y-26517246D01*
X26478786Y-27272363D01*
X27464177Y-27681533D01*
X28531142Y-27682464D01*
X29517246Y-27275014D01*
X30272363Y-26521214D01*
X30681533Y-25535823D01*
X30682464Y-24468858D01*
X30275014Y-23482754D01*
X29521214Y-22727637D01*
X28535823Y-22318467D01*
X27468858Y-22317536D01*
X26482754Y-22724986D01*
X25727637Y-23478786D01*
X25318467Y-24464177D01*
X25317536Y-25531142D01*
X24725000Y-25531142D01*
X24725000Y-21725000D01*
X34719237Y-21725000D01*
X34630738Y-21784121D01*
X34630738Y-21784121D01*
G37*
X34630738Y-21784121D02*
X34289753Y-22221630D01*
X34345029Y-22428200D01*
X35128200Y-22428200D01*
X35128200Y-22390000D01*
X35991800Y-22390000D01*
X35991800Y-22428200D01*
X36774971Y-22428200D01*
X36830000Y-22222553D01*
X36885029Y-22428200D01*
X37668200Y-22428200D01*
X37668200Y-22390000D01*
X38531800Y-22390000D01*
X38531800Y-22428200D01*
X38570000Y-22428200D01*
X38570000Y-23291800D01*
X38531800Y-23291800D01*
X38531800Y-23330000D01*
X37668200Y-23330000D01*
X37668200Y-23291800D01*
X36885029Y-23291800D01*
X36830000Y-23497447D01*
X36774971Y-23291800D01*
X35991800Y-23291800D01*
X35991800Y-23330000D01*
X35128200Y-23330000D01*
X35128200Y-23291800D01*
X34345029Y-23291800D01*
X34289753Y-23498370D01*
X34596850Y-23892398D01*
X34455524Y-23918990D01*
X34234295Y-24061347D01*
X34085880Y-24278559D01*
X34033666Y-24536400D01*
X34033666Y-26263600D01*
X34078990Y-26504476D01*
X34221347Y-26725705D01*
X34438559Y-26874120D01*
X34696400Y-26926334D01*
X34785000Y-26926334D01*
X34785000Y-33171420D01*
X34695098Y-33261165D01*
X34550165Y-33610204D01*
X34549835Y-33988138D01*
X34694159Y-34337429D01*
X34961165Y-34604902D01*
X35310204Y-34749835D01*
X35688138Y-34750165D01*
X36037429Y-34605841D01*
X36304902Y-34338835D01*
X36449835Y-33989796D01*
X36450165Y-33611862D01*
X36335000Y-33333141D01*
X36335000Y-26926334D01*
X36423600Y-26926334D01*
X36664476Y-26881010D01*
X36885705Y-26738653D01*
X37034120Y-26521441D01*
X37037433Y-26505082D01*
X37520770Y-26828037D01*
X38100000Y-26943253D01*
X38679230Y-26828037D01*
X39170277Y-26499930D01*
X39370000Y-26201023D01*
X39569723Y-26499930D01*
X39865000Y-26697228D01*
X39865000Y-35533649D01*
X39750165Y-35810204D01*
X39749835Y-36188138D01*
X39894159Y-36537429D01*
X40161165Y-36804902D01*
X40510204Y-36949835D01*
X40888138Y-36950165D01*
X41237429Y-36805841D01*
X41504902Y-36538835D01*
X41649835Y-36189796D01*
X41650165Y-35811862D01*
X41505841Y-35462571D01*
X41415000Y-35371571D01*
X41415000Y-28758656D01*
X41461165Y-28804902D01*
X41810204Y-28949835D01*
X42188138Y-28950165D01*
X42405000Y-28860560D01*
X42405000Y-32451455D01*
X42295098Y-32561165D01*
X42150165Y-32910204D01*
X42149835Y-33288138D01*
X42294159Y-33637429D01*
X42561165Y-33904902D01*
X42910204Y-34049835D01*
X43288138Y-34050165D01*
X43637429Y-33905841D01*
X43904902Y-33638835D01*
X44049835Y-33289796D01*
X44050165Y-32911862D01*
X43955000Y-32681545D01*
X43955000Y-30398726D01*
X43961165Y-30404902D01*
X44310204Y-30549835D01*
X44688138Y-30550165D01*
X45037429Y-30405841D01*
X45304902Y-30138835D01*
X45449835Y-29789796D01*
X45450165Y-29411862D01*
X45305841Y-29062571D01*
X45175000Y-28931501D01*
X45175000Y-26641730D01*
X45288200Y-26607199D01*
X45288200Y-25831800D01*
X46151800Y-25831800D01*
X46151800Y-26607199D01*
X46358364Y-26670211D01*
X46649262Y-26475879D01*
X46990000Y-26038687D01*
X47330738Y-26475879D01*
X47621636Y-26670211D01*
X47828200Y-26607199D01*
X47828200Y-25831800D01*
X47045029Y-25831800D01*
X46990000Y-26037447D01*
X46934971Y-25831800D01*
X46151800Y-25831800D01*
X45288200Y-25831800D01*
X45250000Y-25831800D01*
X45250000Y-24968200D01*
X45288200Y-24968200D01*
X45288200Y-24192801D01*
X45175000Y-24158270D01*
X45175000Y-24101730D01*
X45288200Y-24067199D01*
X45288200Y-23291800D01*
X46151800Y-23291800D01*
X46151800Y-24067199D01*
X46357672Y-24130000D01*
X46151800Y-24192801D01*
X46151800Y-24968200D01*
X46934971Y-24968200D01*
X46990000Y-24762553D01*
X47045029Y-24968200D01*
X47828200Y-24968200D01*
X47828200Y-24192801D01*
X47622328Y-24130000D01*
X47828200Y-24067199D01*
X47828200Y-23291800D01*
X47045029Y-23291800D01*
X46990000Y-23497447D01*
X46934971Y-23291800D01*
X46151800Y-23291800D01*
X45288200Y-23291800D01*
X45250000Y-23291800D01*
X45250000Y-22428200D01*
X45288200Y-22428200D01*
X45288200Y-22390000D01*
X46151800Y-22390000D01*
X46151800Y-22428200D01*
X46934971Y-22428200D01*
X46990000Y-22222553D01*
X47045029Y-22428200D01*
X47828200Y-22428200D01*
X47828200Y-22390000D01*
X48691800Y-22390000D01*
X48691800Y-22428200D01*
X49474971Y-22428200D01*
X49530000Y-22222553D01*
X49585029Y-22428200D01*
X50368200Y-22428200D01*
X50368200Y-22390000D01*
X51231800Y-22390000D01*
X51231800Y-22428200D01*
X51270000Y-22428200D01*
X51270000Y-23291800D01*
X51231800Y-23291800D01*
X51231800Y-23330000D01*
X50368200Y-23330000D01*
X50368200Y-23291800D01*
X49585029Y-23291800D01*
X49530000Y-23497447D01*
X49474971Y-23291800D01*
X48691800Y-23291800D01*
X48691800Y-24067199D01*
X48897672Y-24130000D01*
X48691800Y-24192801D01*
X48691800Y-24968200D01*
X48730000Y-24968200D01*
X48730000Y-25831800D01*
X48691800Y-25831800D01*
X48691800Y-26607199D01*
X48898364Y-26670211D01*
X49189262Y-26475879D01*
X49471599Y-26113620D01*
X49729723Y-26499930D01*
X50220770Y-26828037D01*
X50800000Y-26943253D01*
X51379230Y-26828037D01*
X51870277Y-26499930D01*
X52070000Y-26201023D01*
X52269723Y-26499930D01*
X52760770Y-26828037D01*
X53340000Y-26943253D01*
X53825000Y-26846781D01*
X53825000Y-29929980D01*
X53750165Y-30110204D01*
X53749835Y-30488138D01*
X53894159Y-30837429D01*
X54161165Y-31104902D01*
X54510204Y-31249835D01*
X54888138Y-31250165D01*
X55105000Y-31160560D01*
X55105000Y-33951280D01*
X55095098Y-33961165D01*
X54950165Y-34310204D01*
X54949835Y-34688138D01*
X55094159Y-35037429D01*
X55361165Y-35304902D01*
X55710204Y-35449835D01*
X56088138Y-35450165D01*
X56437429Y-35305841D01*
X56704902Y-35038835D01*
X56849835Y-34689796D01*
X56850165Y-34311862D01*
X56705841Y-33962571D01*
X56655000Y-33911641D01*
X56655000Y-31442657D01*
X56694159Y-31537429D01*
X56961165Y-31804902D01*
X57310204Y-31949835D01*
X57645000Y-31950127D01*
X57645000Y-34881815D01*
X57550165Y-35110204D01*
X57549835Y-35488138D01*
X57694159Y-35837429D01*
X57961165Y-36104902D01*
X58310204Y-36249835D01*
X58688138Y-36250165D01*
X59037429Y-36105841D01*
X59304902Y-35838835D01*
X59449835Y-35489796D01*
X59450165Y-35111862D01*
X59305841Y-34762571D01*
X59195000Y-34651536D01*
X59195000Y-32238271D01*
X59461165Y-32504902D01*
X59810204Y-32649835D01*
X60188138Y-32650165D01*
X60537429Y-32505841D01*
X60804902Y-32238835D01*
X60949835Y-31889796D01*
X60950165Y-31511862D01*
X60805841Y-31162571D01*
X60775000Y-31131676D01*
X60775000Y-24440000D01*
X60716007Y-24143420D01*
X60548008Y-23891992D01*
X60548005Y-23891990D01*
X60105515Y-23449500D01*
X64466000Y-23449500D01*
X64466000Y-23986993D01*
X64550950Y-24192082D01*
X64707918Y-24349049D01*
X64913007Y-24434000D01*
X65450500Y-24434000D01*
X65590000Y-24294500D01*
X65590000Y-23310000D01*
X64605500Y-23310000D01*
X64466000Y-23449500D01*
X60105515Y-23449500D01*
X59869238Y-23213223D01*
X59933600Y-22889653D01*
X59933600Y-22830347D01*
X59818384Y-22251117D01*
X59490277Y-21760070D01*
X59437791Y-21725000D01*
X64469317Y-21725000D01*
X64466000Y-21733007D01*
X64466000Y-22270500D01*
X64605500Y-22410000D01*
X65590000Y-22410000D01*
X65590000Y-22390000D01*
X66490000Y-22390000D01*
X66490000Y-22410000D01*
X66510000Y-22410000D01*
X66510000Y-23310000D01*
X66490000Y-23310000D01*
X66490000Y-24294500D01*
X66629500Y-24434000D01*
X67166993Y-24434000D01*
X67372082Y-24349049D01*
X67529050Y-24192082D01*
X67540886Y-24163507D01*
X67841700Y-24364504D01*
X67863993Y-24476580D01*
X68031992Y-24728008D01*
X68325891Y-25021907D01*
X68000770Y-25086577D01*
X67518318Y-25408941D01*
X67378653Y-25191895D01*
X67161441Y-25043480D01*
X66903600Y-24991266D01*
X65176400Y-24991266D01*
X64935524Y-25036590D01*
X64714295Y-25178947D01*
X64565880Y-25396159D01*
X64513666Y-25654000D01*
X64513666Y-27686000D01*
X64558990Y-27926876D01*
X64701347Y-28148105D01*
X64918559Y-28296520D01*
X65176400Y-28348734D01*
X65265000Y-28348734D01*
X65265000Y-37491385D01*
X65195098Y-37561165D01*
X65050165Y-37910204D01*
X65049835Y-38288138D01*
X65194159Y-38637429D01*
X65461165Y-38904902D01*
X65810204Y-39049835D01*
X66188138Y-39050165D01*
X66537429Y-38905841D01*
X66804902Y-38638835D01*
X66949835Y-38289796D01*
X66950165Y-37911862D01*
X66815000Y-37584737D01*
X66815000Y-28348734D01*
X66903600Y-28348734D01*
X67144476Y-28303410D01*
X67365705Y-28161053D01*
X67514120Y-27943841D01*
X67516900Y-27930112D01*
X67805000Y-28122614D01*
X67805000Y-36851280D01*
X67795098Y-36861165D01*
X67650165Y-37210204D01*
X67649835Y-37588138D01*
X67794159Y-37937429D01*
X68061165Y-38204902D01*
X68410204Y-38349835D01*
X68788138Y-38350165D01*
X69137429Y-38205841D01*
X69404902Y-37938835D01*
X69549835Y-37589796D01*
X69550165Y-37211862D01*
X69405841Y-36862571D01*
X69355000Y-36811641D01*
X69355000Y-30398726D01*
X69361165Y-30404902D01*
X69710204Y-30549835D01*
X70088138Y-30550165D01*
X70345000Y-30444032D01*
X70345000Y-36111350D01*
X70295098Y-36161165D01*
X70150165Y-36510204D01*
X70149835Y-36888138D01*
X70294159Y-37237429D01*
X70561165Y-37504902D01*
X70910204Y-37649835D01*
X71288138Y-37650165D01*
X71637429Y-37505841D01*
X71904902Y-37238835D01*
X72049835Y-36889796D01*
X72050165Y-36511862D01*
X71905841Y-36162571D01*
X71895000Y-36151711D01*
X71895000Y-28122614D01*
X72190277Y-27925316D01*
X72518384Y-27434269D01*
X72633600Y-26855039D01*
X72633600Y-26484961D01*
X72518384Y-25905731D01*
X72190277Y-25414684D01*
X71699230Y-25086577D01*
X71120000Y-24971361D01*
X70540770Y-25086577D01*
X70538810Y-25087887D01*
X70448008Y-24951992D01*
X69643337Y-24147321D01*
X69758040Y-24070679D01*
X70119183Y-23530190D01*
X70135233Y-23449500D01*
X72086000Y-23449500D01*
X72086000Y-23986993D01*
X72170950Y-24192082D01*
X72327918Y-24349049D01*
X72533007Y-24434000D01*
X73070500Y-24434000D01*
X73210000Y-24294500D01*
X73210000Y-23310000D01*
X72225500Y-23310000D01*
X72086000Y-23449500D01*
X70135233Y-23449500D01*
X70246000Y-22892639D01*
X70246000Y-22827361D01*
X70119183Y-22189810D01*
X69808607Y-21725000D01*
X72089317Y-21725000D01*
X72086000Y-21733007D01*
X72086000Y-22270500D01*
X72225500Y-22410000D01*
X73210000Y-22410000D01*
X73210000Y-22390000D01*
X74110000Y-22390000D01*
X74110000Y-22410000D01*
X74130000Y-22410000D01*
X74130000Y-23310000D01*
X74110000Y-23310000D01*
X74110000Y-24294500D01*
X74249500Y-24434000D01*
X74786993Y-24434000D01*
X74992082Y-24349049D01*
X75149050Y-24192082D01*
X75160886Y-24163507D01*
X75425000Y-24339982D01*
X75425000Y-38231315D01*
X75395098Y-38261165D01*
X75267646Y-38568105D01*
X74962571Y-38694159D01*
X74950125Y-38706583D01*
X74838835Y-38595098D01*
X74489796Y-38450165D01*
X74111862Y-38449835D01*
X73762571Y-38594159D01*
X73684187Y-38672406D01*
X73389796Y-38550165D01*
X73011862Y-38549835D01*
X72662571Y-38694159D01*
X72395098Y-38961165D01*
X72250165Y-39310204D01*
X72249835Y-39688138D01*
X72394159Y-40037429D01*
X72661165Y-40304902D01*
X73010204Y-40449835D01*
X73053857Y-40449873D01*
X73925000Y-41321016D01*
X73925000Y-43816997D01*
X73839480Y-43942159D01*
X73787266Y-44200000D01*
X73787266Y-45400000D01*
X73832590Y-45640876D01*
X73974947Y-45862105D01*
X74192159Y-46010520D01*
X74450000Y-46062734D01*
X74950000Y-46062734D01*
X75105507Y-46033473D01*
X75250000Y-46062734D01*
X75750000Y-46062734D01*
X75905507Y-46033473D01*
X76050000Y-46062734D01*
X76550000Y-46062734D01*
X76705507Y-46033473D01*
X76850000Y-46062734D01*
X77350000Y-46062734D01*
X77505507Y-46033473D01*
X77650000Y-46062734D01*
X78150000Y-46062734D01*
X78305507Y-46033473D01*
X78450000Y-46062734D01*
X78950000Y-46062734D01*
X79190876Y-46017410D01*
X79412105Y-45875053D01*
X79560520Y-45657841D01*
X79612734Y-45400000D01*
X79612734Y-44200000D01*
X79567410Y-43959124D01*
X79475000Y-43815515D01*
X79475000Y-40372955D01*
X79637429Y-40305841D01*
X79749962Y-40193504D01*
X79861165Y-40304902D01*
X80210204Y-40449835D01*
X80253857Y-40449873D01*
X81925000Y-42121016D01*
X81925000Y-43816997D01*
X81839480Y-43942159D01*
X81787266Y-44200000D01*
X81787266Y-45400000D01*
X81832590Y-45640876D01*
X81974947Y-45862105D01*
X82192159Y-46010520D01*
X82450000Y-46062734D01*
X82950000Y-46062734D01*
X83105507Y-46033473D01*
X83250000Y-46062734D01*
X83750000Y-46062734D01*
X83905507Y-46033473D01*
X84050000Y-46062734D01*
X84550000Y-46062734D01*
X84705507Y-46033473D01*
X84850000Y-46062734D01*
X85350000Y-46062734D01*
X85505507Y-46033473D01*
X85650000Y-46062734D01*
X86150000Y-46062734D01*
X86305507Y-46033473D01*
X86450000Y-46062734D01*
X86950000Y-46062734D01*
X87105507Y-46033473D01*
X87250000Y-46062734D01*
X87750000Y-46062734D01*
X87905507Y-46033473D01*
X88050000Y-46062734D01*
X88550000Y-46062734D01*
X88705507Y-46033473D01*
X88850000Y-46062734D01*
X89350000Y-46062734D01*
X89505507Y-46033473D01*
X89650000Y-46062734D01*
X90150000Y-46062734D01*
X90305507Y-46033473D01*
X90450000Y-46062734D01*
X90950000Y-46062734D01*
X91105507Y-46033473D01*
X91250000Y-46062734D01*
X91750000Y-46062734D01*
X91905507Y-46033473D01*
X92050000Y-46062734D01*
X92550000Y-46062734D01*
X92705507Y-46033473D01*
X92850000Y-46062734D01*
X93350000Y-46062734D01*
X93505507Y-46033473D01*
X93650000Y-46062734D01*
X94150000Y-46062734D01*
X94305507Y-46033473D01*
X94450000Y-46062734D01*
X94950000Y-46062734D01*
X95105507Y-46033473D01*
X95250000Y-46062734D01*
X95750000Y-46062734D01*
X95905507Y-46033473D01*
X96050000Y-46062734D01*
X96550000Y-46062734D01*
X96705507Y-46033473D01*
X96850000Y-46062734D01*
X97319810Y-46062734D01*
X97250235Y-46230290D01*
X97249766Y-46767353D01*
X97319972Y-46937266D01*
X96850000Y-46937266D01*
X96609124Y-46982590D01*
X96387895Y-47124947D01*
X96244270Y-47335149D01*
X96223049Y-47283918D01*
X96175000Y-47235869D01*
X96175000Y-47181500D01*
X96035500Y-47042000D01*
X95939007Y-47042000D01*
X95900000Y-47058157D01*
X95860993Y-47042000D01*
X95764500Y-47042000D01*
X95625000Y-47181500D01*
X95625000Y-47235869D01*
X95576951Y-47283918D01*
X95500000Y-47469693D01*
X95423049Y-47283918D01*
X95375000Y-47235869D01*
X95375000Y-47181500D01*
X95235500Y-47042000D01*
X95139007Y-47042000D01*
X95100000Y-47058157D01*
X95060993Y-47042000D01*
X94964500Y-47042000D01*
X94825000Y-47181500D01*
X94825000Y-47235869D01*
X94776951Y-47283918D01*
X94754263Y-47338692D01*
X94625053Y-47137895D01*
X94407841Y-46989480D01*
X94150000Y-46937266D01*
X93650000Y-46937266D01*
X93494493Y-46966527D01*
X93350000Y-46937266D01*
X92850000Y-46937266D01*
X92694493Y-46966527D01*
X92550000Y-46937266D01*
X92050000Y-46937266D01*
X91894493Y-46966527D01*
X91750000Y-46937266D01*
X91250000Y-46937266D01*
X91094493Y-46966527D01*
X90950000Y-46937266D01*
X90450000Y-46937266D01*
X90294493Y-46966527D01*
X90150000Y-46937266D01*
X89650000Y-46937266D01*
X89494493Y-46966527D01*
X89350000Y-46937266D01*
X88850000Y-46937266D01*
X88694493Y-46966527D01*
X88550000Y-46937266D01*
X88050000Y-46937266D01*
X87894493Y-46966527D01*
X87750000Y-46937266D01*
X87250000Y-46937266D01*
X87094493Y-46966527D01*
X86950000Y-46937266D01*
X86450000Y-46937266D01*
X86294493Y-46966527D01*
X86150000Y-46937266D01*
X85650000Y-46937266D01*
X85494493Y-46966527D01*
X85350000Y-46937266D01*
X84850000Y-46937266D01*
X84694493Y-46966527D01*
X84550000Y-46937266D01*
X84050000Y-46937266D01*
X83894493Y-46966527D01*
X83750000Y-46937266D01*
X83250000Y-46937266D01*
X83094493Y-46966527D01*
X82950000Y-46937266D01*
X82450000Y-46937266D01*
X82209124Y-46982590D01*
X81987895Y-47124947D01*
X81839480Y-47342159D01*
X81822704Y-47425000D01*
X81800005Y-47425000D01*
X81800000Y-47424999D01*
X81552626Y-47474205D01*
X81503420Y-47483993D01*
X81264242Y-47643807D01*
X81251992Y-47651992D01*
X80054112Y-48849872D01*
X80011862Y-48849835D01*
X79699664Y-48978833D01*
X79586071Y-48931665D01*
X79612734Y-48800000D01*
X79612734Y-47600000D01*
X79567410Y-47359124D01*
X79425053Y-47137895D01*
X79207841Y-46989480D01*
X78950000Y-46937266D01*
X78450000Y-46937266D01*
X78294493Y-46966527D01*
X78150000Y-46937266D01*
X77650000Y-46937266D01*
X77494493Y-46966527D01*
X77350000Y-46937266D01*
X76850000Y-46937266D01*
X76694493Y-46966527D01*
X76550000Y-46937266D01*
X76050000Y-46937266D01*
X75894493Y-46966527D01*
X75750000Y-46937266D01*
X75250000Y-46937266D01*
X75094493Y-46966527D01*
X74950000Y-46937266D01*
X74450000Y-46937266D01*
X74209124Y-46982590D01*
X74137742Y-47028523D01*
X73965712Y-46856193D01*
X73469710Y-46650235D01*
X72932647Y-46649766D01*
X72436285Y-46854858D01*
X72056193Y-47234288D01*
X71850235Y-47730290D01*
X71849766Y-48267353D01*
X71861347Y-48295381D01*
X71595098Y-48561165D01*
X71450165Y-48910204D01*
X71449835Y-49288138D01*
X71594159Y-49637429D01*
X71861165Y-49904902D01*
X72210204Y-50049835D01*
X72588138Y-50050165D01*
X72770051Y-49975000D01*
X73700000Y-49975000D01*
X73909802Y-49933268D01*
X73994159Y-50137429D01*
X74261165Y-50404902D01*
X74610204Y-50549835D01*
X74988138Y-50550165D01*
X75337429Y-50405841D01*
X75349787Y-50393504D01*
X75361165Y-50404902D01*
X75710204Y-50549835D01*
X76088138Y-50550165D01*
X76400336Y-50421167D01*
X76710204Y-50549835D01*
X77088138Y-50550165D01*
X77400336Y-50421167D01*
X77710204Y-50549835D01*
X78088138Y-50550165D01*
X78437429Y-50405841D01*
X78449962Y-50393330D01*
X78661165Y-50604902D01*
X79010204Y-50749835D01*
X79388138Y-50750165D01*
X79700336Y-50621167D01*
X80010204Y-50749835D01*
X80388138Y-50750165D01*
X80737429Y-50605841D01*
X80786437Y-50556919D01*
X81010204Y-50649835D01*
X81388138Y-50650165D01*
X81737429Y-50505841D01*
X81768324Y-50475000D01*
X82700000Y-50475000D01*
X82996580Y-50416007D01*
X83161948Y-50305511D01*
X83261165Y-50404902D01*
X83610204Y-50549835D01*
X83988138Y-50550165D01*
X84337429Y-50405841D01*
X84386437Y-50356919D01*
X84610204Y-50449835D01*
X84988138Y-50450165D01*
X85079379Y-50412465D01*
X85410204Y-50549835D01*
X85788138Y-50550165D01*
X86137429Y-50405841D01*
X86157060Y-50386244D01*
X86310204Y-50449835D01*
X86688138Y-50450165D01*
X86950213Y-50341878D01*
X87210204Y-50449835D01*
X87588138Y-50450165D01*
X87742627Y-50386332D01*
X87761165Y-50404902D01*
X88110204Y-50549835D01*
X88488138Y-50550165D01*
X88750213Y-50441878D01*
X89010204Y-50549835D01*
X89388138Y-50550165D01*
X89600090Y-50462588D01*
X89810204Y-50549835D01*
X90188138Y-50550165D01*
X90400090Y-50462588D01*
X90610204Y-50549835D01*
X90988138Y-50550165D01*
X91200090Y-50462588D01*
X91410204Y-50549835D01*
X91788138Y-50550165D01*
X92120801Y-50412712D01*
X92210204Y-50449835D01*
X92588138Y-50450165D01*
X92679379Y-50412465D01*
X93010204Y-50549835D01*
X93388138Y-50550165D01*
X93737429Y-50405841D01*
X93823702Y-50319718D01*
X94151992Y-50648008D01*
X94403420Y-50816007D01*
X94700000Y-50875000D01*
X98731315Y-50875000D01*
X98761165Y-50904902D01*
X99110204Y-51049835D01*
X99225000Y-51049935D01*
X99225000Y-55406306D01*
X99131895Y-55367646D01*
X99005841Y-55062571D01*
X98738835Y-54795098D01*
X98389796Y-54650165D01*
X98383351Y-54650159D01*
X98305841Y-54462571D01*
X98038835Y-54195098D01*
X97689796Y-54050165D01*
X97311862Y-54049835D01*
X96962571Y-54194159D01*
X96695098Y-54461165D01*
X96550165Y-54810204D01*
X96549835Y-55188138D01*
X96657983Y-55449875D01*
X96611862Y-55449835D01*
X96262571Y-55594159D01*
X96250125Y-55606583D01*
X96138835Y-55495098D01*
X95789796Y-55350165D01*
X95411862Y-55349835D01*
X95062571Y-55494159D01*
X94900038Y-55656408D01*
X94838835Y-55595098D01*
X94489796Y-55450165D01*
X94111862Y-55449835D01*
X93762571Y-55594159D01*
X93650038Y-55706496D01*
X93538835Y-55595098D01*
X93189796Y-55450165D01*
X92811862Y-55449835D01*
X92462571Y-55594159D01*
X92400125Y-55656496D01*
X92338835Y-55595098D01*
X91989796Y-55450165D01*
X91611862Y-55449835D01*
X91262571Y-55594159D01*
X91200038Y-55656583D01*
X91038835Y-55495098D01*
X90689796Y-55350165D01*
X90311862Y-55349835D01*
X89962571Y-55494159D01*
X89850038Y-55606496D01*
X89738835Y-55495098D01*
X89389796Y-55350165D01*
X89011862Y-55349835D01*
X88662571Y-55494159D01*
X88600125Y-55556496D01*
X88538835Y-55495098D01*
X88189796Y-55350165D01*
X87811862Y-55349835D01*
X87462571Y-55494159D01*
X87195098Y-55761165D01*
X87099945Y-55990320D01*
X87005841Y-55762571D01*
X86738835Y-55495098D01*
X86389796Y-55350165D01*
X86011862Y-55349835D01*
X85715777Y-55472175D01*
X85638835Y-55395098D01*
X85289796Y-55250165D01*
X84911862Y-55249835D01*
X84562571Y-55394159D01*
X84550213Y-55406496D01*
X84538835Y-55395098D01*
X84189796Y-55250165D01*
X83811862Y-55249835D01*
X83515777Y-55372175D01*
X83438835Y-55295098D01*
X83089796Y-55150165D01*
X82711862Y-55149835D01*
X82362571Y-55294159D01*
X82099863Y-55556408D01*
X81938835Y-55395098D01*
X81589796Y-55250165D01*
X81211862Y-55249835D01*
X80986575Y-55342922D01*
X80938835Y-55295098D01*
X80589796Y-55150165D01*
X80211862Y-55149835D01*
X79862571Y-55294159D01*
X79750038Y-55406496D01*
X79638835Y-55295098D01*
X79289796Y-55150165D01*
X78911862Y-55149835D01*
X78562571Y-55294159D01*
X78550213Y-55306496D01*
X78538835Y-55295098D01*
X78189796Y-55150165D01*
X77811862Y-55149835D01*
X77462571Y-55294159D01*
X77350038Y-55406496D01*
X77238835Y-55295098D01*
X76889796Y-55150165D01*
X76511862Y-55149835D01*
X76162571Y-55294159D01*
X76100125Y-55356496D01*
X76038835Y-55295098D01*
X75689796Y-55150165D01*
X75311862Y-55149835D01*
X74962571Y-55294159D01*
X74950125Y-55306583D01*
X74838835Y-55195098D01*
X74489796Y-55050165D01*
X74111862Y-55049835D01*
X73762571Y-55194159D01*
X73684187Y-55272406D01*
X73389796Y-55150165D01*
X73011862Y-55149835D01*
X72662571Y-55294159D01*
X72395098Y-55561165D01*
X72250165Y-55910204D01*
X72249835Y-56288138D01*
X72394159Y-56637429D01*
X72661165Y-56904902D01*
X73010204Y-57049835D01*
X73053857Y-57049873D01*
X73925000Y-57921016D01*
X73925000Y-60416997D01*
X73839480Y-60542159D01*
X73787266Y-60800000D01*
X73787266Y-62000000D01*
X73832590Y-62240876D01*
X73974947Y-62462105D01*
X74192159Y-62610520D01*
X74450000Y-62662734D01*
X74950000Y-62662734D01*
X75105507Y-62633473D01*
X75250000Y-62662734D01*
X75750000Y-62662734D01*
X75905507Y-62633473D01*
X76050000Y-62662734D01*
X76550000Y-62662734D01*
X76705507Y-62633473D01*
X76850000Y-62662734D01*
X77350000Y-62662734D01*
X77505507Y-62633473D01*
X77650000Y-62662734D01*
X78150000Y-62662734D01*
X78305507Y-62633473D01*
X78450000Y-62662734D01*
X78950000Y-62662734D01*
X79190876Y-62617410D01*
X79412105Y-62475053D01*
X79560520Y-62257841D01*
X79612734Y-62000000D01*
X79612734Y-60800000D01*
X79567410Y-60559124D01*
X79475000Y-60415515D01*
X79475000Y-56972955D01*
X79637429Y-56905841D01*
X79749962Y-56793504D01*
X79861165Y-56904902D01*
X80210204Y-57049835D01*
X80253857Y-57049873D01*
X81925000Y-58721016D01*
X81925000Y-60416997D01*
X81839480Y-60542159D01*
X81787266Y-60800000D01*
X81787266Y-62000000D01*
X81832590Y-62240876D01*
X81974947Y-62462105D01*
X82192159Y-62610520D01*
X82450000Y-62662734D01*
X82950000Y-62662734D01*
X83105507Y-62633473D01*
X83250000Y-62662734D01*
X83750000Y-62662734D01*
X83905507Y-62633473D01*
X84050000Y-62662734D01*
X84550000Y-62662734D01*
X84705507Y-62633473D01*
X84850000Y-62662734D01*
X85350000Y-62662734D01*
X85505507Y-62633473D01*
X85650000Y-62662734D01*
X86150000Y-62662734D01*
X86305507Y-62633473D01*
X86450000Y-62662734D01*
X86950000Y-62662734D01*
X87105507Y-62633473D01*
X87250000Y-62662734D01*
X87750000Y-62662734D01*
X87905507Y-62633473D01*
X88050000Y-62662734D01*
X88550000Y-62662734D01*
X88705507Y-62633473D01*
X88850000Y-62662734D01*
X89350000Y-62662734D01*
X89505507Y-62633473D01*
X89650000Y-62662734D01*
X90150000Y-62662734D01*
X90305507Y-62633473D01*
X90450000Y-62662734D01*
X90950000Y-62662734D01*
X91105507Y-62633473D01*
X91250000Y-62662734D01*
X91750000Y-62662734D01*
X91905507Y-62633473D01*
X92050000Y-62662734D01*
X92550000Y-62662734D01*
X92705507Y-62633473D01*
X92850000Y-62662734D01*
X93350000Y-62662734D01*
X93505507Y-62633473D01*
X93650000Y-62662734D01*
X94150000Y-62662734D01*
X94305507Y-62633473D01*
X94450000Y-62662734D01*
X94950000Y-62662734D01*
X95105507Y-62633473D01*
X95250000Y-62662734D01*
X95750000Y-62662734D01*
X95905507Y-62633473D01*
X96050000Y-62662734D01*
X96550000Y-62662734D01*
X96705507Y-62633473D01*
X96850000Y-62662734D01*
X97319810Y-62662734D01*
X97250235Y-62830290D01*
X97249766Y-63367353D01*
X97319972Y-63537266D01*
X96850000Y-63537266D01*
X96609124Y-63582590D01*
X96387895Y-63724947D01*
X96244270Y-63935149D01*
X96223049Y-63883918D01*
X96175000Y-63835869D01*
X96175000Y-63781500D01*
X96035500Y-63642000D01*
X95939007Y-63642000D01*
X95900000Y-63658157D01*
X95860993Y-63642000D01*
X95764500Y-63642000D01*
X95625000Y-63781500D01*
X95625000Y-63835869D01*
X95576951Y-63883918D01*
X95500000Y-64069693D01*
X95423049Y-63883918D01*
X95375000Y-63835869D01*
X95375000Y-63781500D01*
X95235500Y-63642000D01*
X95139007Y-63642000D01*
X95100000Y-63658157D01*
X95060993Y-63642000D01*
X94964500Y-63642000D01*
X94825000Y-63781500D01*
X94825000Y-63835869D01*
X94776951Y-63883918D01*
X94754263Y-63938692D01*
X94625053Y-63737895D01*
X94407841Y-63589480D01*
X94150000Y-63537266D01*
X93650000Y-63537266D01*
X93494493Y-63566527D01*
X93350000Y-63537266D01*
X92850000Y-63537266D01*
X92694493Y-63566527D01*
X92550000Y-63537266D01*
X92050000Y-63537266D01*
X91894493Y-63566527D01*
X91750000Y-63537266D01*
X91250000Y-63537266D01*
X91094493Y-63566527D01*
X90950000Y-63537266D01*
X90450000Y-63537266D01*
X90294493Y-63566527D01*
X90150000Y-63537266D01*
X89650000Y-63537266D01*
X89494493Y-63566527D01*
X89350000Y-63537266D01*
X88850000Y-63537266D01*
X88694493Y-63566527D01*
X88550000Y-63537266D01*
X88050000Y-63537266D01*
X87894493Y-63566527D01*
X87750000Y-63537266D01*
X87250000Y-63537266D01*
X87094493Y-63566527D01*
X86950000Y-63537266D01*
X86450000Y-63537266D01*
X86294493Y-63566527D01*
X86150000Y-63537266D01*
X85650000Y-63537266D01*
X85494493Y-63566527D01*
X85350000Y-63537266D01*
X84850000Y-63537266D01*
X84694493Y-63566527D01*
X84550000Y-63537266D01*
X84050000Y-63537266D01*
X83894493Y-63566527D01*
X83750000Y-63537266D01*
X83250000Y-63537266D01*
X83094493Y-63566527D01*
X82950000Y-63537266D01*
X82450000Y-63537266D01*
X82209124Y-63582590D01*
X81987895Y-63724947D01*
X81839480Y-63942159D01*
X81822704Y-64025000D01*
X81800005Y-64025000D01*
X81800000Y-64024999D01*
X81552626Y-64074205D01*
X81503420Y-64083993D01*
X81264242Y-64243807D01*
X81251992Y-64251992D01*
X80054112Y-65449872D01*
X80011862Y-65449835D01*
X79699664Y-65578833D01*
X79586071Y-65531665D01*
X79612734Y-65400000D01*
X79612734Y-64200000D01*
X79567410Y-63959124D01*
X79425053Y-63737895D01*
X79207841Y-63589480D01*
X78950000Y-63537266D01*
X78450000Y-63537266D01*
X78294493Y-63566527D01*
X78150000Y-63537266D01*
X77650000Y-63537266D01*
X77494493Y-63566527D01*
X77350000Y-63537266D01*
X76850000Y-63537266D01*
X76694493Y-63566527D01*
X76550000Y-63537266D01*
X76050000Y-63537266D01*
X75894493Y-63566527D01*
X75750000Y-63537266D01*
X75250000Y-63537266D01*
X75094493Y-63566527D01*
X74950000Y-63537266D01*
X74450000Y-63537266D01*
X74209124Y-63582590D01*
X74137742Y-63628523D01*
X73965712Y-63456193D01*
X73469710Y-63250235D01*
X72932647Y-63249766D01*
X72436285Y-63454858D01*
X72056193Y-63834288D01*
X71850235Y-64330290D01*
X71849766Y-64867353D01*
X71861347Y-64895381D01*
X71595098Y-65161165D01*
X71450165Y-65510204D01*
X71449835Y-65888138D01*
X71594159Y-66237429D01*
X71861165Y-66504902D01*
X72210204Y-66649835D01*
X72588138Y-66650165D01*
X72770051Y-66575000D01*
X73700000Y-66575000D01*
X73909802Y-66533268D01*
X73994159Y-66737429D01*
X74261165Y-67004902D01*
X74610204Y-67149835D01*
X74988138Y-67150165D01*
X75337429Y-67005841D01*
X75349787Y-66993504D01*
X75361165Y-67004902D01*
X75710204Y-67149835D01*
X76088138Y-67150165D01*
X76400336Y-67021167D01*
X76710204Y-67149835D01*
X77088138Y-67150165D01*
X77400336Y-67021167D01*
X77710204Y-67149835D01*
X78088138Y-67150165D01*
X78437429Y-67005841D01*
X78449962Y-66993330D01*
X78661165Y-67204902D01*
X79010204Y-67349835D01*
X79388138Y-67350165D01*
X79700336Y-67221167D01*
X80010204Y-67349835D01*
X80388138Y-67350165D01*
X80737429Y-67205841D01*
X80786437Y-67156919D01*
X81010204Y-67249835D01*
X81388138Y-67250165D01*
X81737429Y-67105841D01*
X81768324Y-67075000D01*
X82700000Y-67075000D01*
X82996580Y-67016007D01*
X83161948Y-66905511D01*
X83261165Y-67004902D01*
X83610204Y-67149835D01*
X83988138Y-67150165D01*
X84337429Y-67005841D01*
X84386437Y-66956919D01*
X84610204Y-67049835D01*
X84988138Y-67050165D01*
X85079379Y-67012465D01*
X85410204Y-67149835D01*
X85788138Y-67150165D01*
X86137429Y-67005841D01*
X86157060Y-66986244D01*
X86310204Y-67049835D01*
X86688138Y-67050165D01*
X86950213Y-66941878D01*
X87210204Y-67049835D01*
X87588138Y-67050165D01*
X87742627Y-66986332D01*
X87761165Y-67004902D01*
X88110204Y-67149835D01*
X88488138Y-67150165D01*
X88750213Y-67041878D01*
X89010204Y-67149835D01*
X89388138Y-67150165D01*
X89600090Y-67062588D01*
X89810204Y-67149835D01*
X90188138Y-67150165D01*
X90400090Y-67062588D01*
X90610204Y-67149835D01*
X90988138Y-67150165D01*
X91200090Y-67062588D01*
X91410204Y-67149835D01*
X91788138Y-67150165D01*
X92120801Y-67012712D01*
X92210204Y-67049835D01*
X92588138Y-67050165D01*
X92679379Y-67012465D01*
X93010204Y-67149835D01*
X93388138Y-67150165D01*
X93737429Y-67005841D01*
X94004902Y-66738835D01*
X94045367Y-66641383D01*
X94751992Y-67348008D01*
X95003420Y-67516007D01*
X95300000Y-67575000D01*
X98731315Y-67575000D01*
X98761165Y-67604902D01*
X99110204Y-67749835D01*
X99225000Y-67749935D01*
X99225000Y-71681589D01*
X99038835Y-71495098D01*
X98689796Y-71350165D01*
X98311862Y-71349835D01*
X97962571Y-71494159D01*
X97695098Y-71761165D01*
X97550165Y-72110204D01*
X97550127Y-72153858D01*
X97423787Y-72280198D01*
X97338835Y-72195098D01*
X96989796Y-72050165D01*
X96611862Y-72049835D01*
X96262571Y-72194159D01*
X96250125Y-72206583D01*
X96138835Y-72095098D01*
X95789796Y-71950165D01*
X95411862Y-71949835D01*
X95062571Y-72094159D01*
X94900038Y-72256408D01*
X94838835Y-72195098D01*
X94489796Y-72050165D01*
X94111862Y-72049835D01*
X93762571Y-72194159D01*
X93650038Y-72306496D01*
X93538835Y-72195098D01*
X93189796Y-72050165D01*
X92811862Y-72049835D01*
X92462571Y-72194159D01*
X92400125Y-72256496D01*
X92338835Y-72195098D01*
X91989796Y-72050165D01*
X91611862Y-72049835D01*
X91262571Y-72194159D01*
X91200038Y-72256583D01*
X91038835Y-72095098D01*
X90689796Y-71950165D01*
X90311862Y-71949835D01*
X89962571Y-72094159D01*
X89850038Y-72206496D01*
X89738835Y-72095098D01*
X89389796Y-71950165D01*
X89011862Y-71949835D01*
X88662571Y-72094159D01*
X88600125Y-72156496D01*
X88538835Y-72095098D01*
X88189796Y-71950165D01*
X87811862Y-71949835D01*
X87462571Y-72094159D01*
X87195098Y-72361165D01*
X87099945Y-72590320D01*
X87005841Y-72362571D01*
X86738835Y-72095098D01*
X86389796Y-71950165D01*
X86011862Y-71949835D01*
X85715777Y-72072175D01*
X85638835Y-71995098D01*
X85289796Y-71850165D01*
X84911862Y-71849835D01*
X84562571Y-71994159D01*
X84550213Y-72006496D01*
X84538835Y-71995098D01*
X84189796Y-71850165D01*
X83811862Y-71849835D01*
X83515777Y-71972175D01*
X83438835Y-71895098D01*
X83089796Y-71750165D01*
X82711862Y-71749835D01*
X82362571Y-71894159D01*
X82099863Y-72156408D01*
X81938835Y-71995098D01*
X81589796Y-71850165D01*
X81211862Y-71849835D01*
X80986575Y-71942922D01*
X80938835Y-71895098D01*
X80589796Y-71750165D01*
X80211862Y-71749835D01*
X79862571Y-71894159D01*
X79750038Y-72006496D01*
X79638835Y-71895098D01*
X79289796Y-71750165D01*
X78911862Y-71749835D01*
X78562571Y-71894159D01*
X78550213Y-71906496D01*
X78538835Y-71895098D01*
X78189796Y-71750165D01*
X77811862Y-71749835D01*
X77462571Y-71894159D01*
X77350038Y-72006496D01*
X77238835Y-71895098D01*
X76889796Y-71750165D01*
X76511862Y-71749835D01*
X76162571Y-71894159D01*
X76100125Y-71956496D01*
X76038835Y-71895098D01*
X75689796Y-71750165D01*
X75311862Y-71749835D01*
X74962571Y-71894159D01*
X74950125Y-71906583D01*
X74838835Y-71795098D01*
X74489796Y-71650165D01*
X74111862Y-71649835D01*
X73762571Y-71794159D01*
X73684187Y-71872406D01*
X73389796Y-71750165D01*
X73011862Y-71749835D01*
X72662571Y-71894159D01*
X72395098Y-72161165D01*
X72250165Y-72510204D01*
X72249835Y-72888138D01*
X72394159Y-73237429D01*
X72661165Y-73504902D01*
X73010204Y-73649835D01*
X73053857Y-73649873D01*
X73925000Y-74521016D01*
X73925000Y-77016997D01*
X73839480Y-77142159D01*
X73787266Y-77400000D01*
X73787266Y-78600000D01*
X73832590Y-78840876D01*
X73974947Y-79062105D01*
X74192159Y-79210520D01*
X74450000Y-79262734D01*
X74950000Y-79262734D01*
X75105507Y-79233473D01*
X75250000Y-79262734D01*
X75750000Y-79262734D01*
X75905507Y-79233473D01*
X76050000Y-79262734D01*
X76550000Y-79262734D01*
X76705507Y-79233473D01*
X76850000Y-79262734D01*
X77350000Y-79262734D01*
X77505507Y-79233473D01*
X77650000Y-79262734D01*
X78150000Y-79262734D01*
X78305507Y-79233473D01*
X78450000Y-79262734D01*
X78950000Y-79262734D01*
X79190876Y-79217410D01*
X79412105Y-79075053D01*
X79560520Y-78857841D01*
X79612734Y-78600000D01*
X79612734Y-77400000D01*
X79567410Y-77159124D01*
X79475000Y-77015515D01*
X79475000Y-73572955D01*
X79637429Y-73505841D01*
X79749962Y-73393504D01*
X79861165Y-73504902D01*
X80210204Y-73649835D01*
X80253857Y-73649873D01*
X81925000Y-75321016D01*
X81925000Y-77016997D01*
X81839480Y-77142159D01*
X81787266Y-77400000D01*
X81787266Y-78600000D01*
X81832590Y-78840876D01*
X81974947Y-79062105D01*
X82192159Y-79210520D01*
X82450000Y-79262734D01*
X82950000Y-79262734D01*
X83105507Y-79233473D01*
X83250000Y-79262734D01*
X83750000Y-79262734D01*
X83905507Y-79233473D01*
X84050000Y-79262734D01*
X84550000Y-79262734D01*
X84705507Y-79233473D01*
X84850000Y-79262734D01*
X85350000Y-79262734D01*
X85505507Y-79233473D01*
X85650000Y-79262734D01*
X86150000Y-79262734D01*
X86305507Y-79233473D01*
X86450000Y-79262734D01*
X86950000Y-79262734D01*
X87105507Y-79233473D01*
X87250000Y-79262734D01*
X87750000Y-79262734D01*
X87905507Y-79233473D01*
X88050000Y-79262734D01*
X88550000Y-79262734D01*
X88705507Y-79233473D01*
X88850000Y-79262734D01*
X89350000Y-79262734D01*
X89505507Y-79233473D01*
X89650000Y-79262734D01*
X90150000Y-79262734D01*
X90305507Y-79233473D01*
X90450000Y-79262734D01*
X90950000Y-79262734D01*
X91105507Y-79233473D01*
X91250000Y-79262734D01*
X91750000Y-79262734D01*
X91905507Y-79233473D01*
X92050000Y-79262734D01*
X92550000Y-79262734D01*
X92705507Y-79233473D01*
X92850000Y-79262734D01*
X93350000Y-79262734D01*
X93505507Y-79233473D01*
X93650000Y-79262734D01*
X94150000Y-79262734D01*
X94305507Y-79233473D01*
X94450000Y-79262734D01*
X94950000Y-79262734D01*
X95105507Y-79233473D01*
X95250000Y-79262734D01*
X95750000Y-79262734D01*
X95905507Y-79233473D01*
X96050000Y-79262734D01*
X96550000Y-79262734D01*
X96705507Y-79233473D01*
X96850000Y-79262734D01*
X97319810Y-79262734D01*
X97250235Y-79430290D01*
X97249766Y-79967353D01*
X97319972Y-80137266D01*
X96850000Y-80137266D01*
X96609124Y-80182590D01*
X96387895Y-80324947D01*
X96244270Y-80535149D01*
X96223049Y-80483918D01*
X96175000Y-80435869D01*
X96175000Y-80381500D01*
X96035500Y-80242000D01*
X95939007Y-80242000D01*
X95900000Y-80258157D01*
X95860993Y-80242000D01*
X95764500Y-80242000D01*
X95625000Y-80381500D01*
X95625000Y-80435869D01*
X95576951Y-80483918D01*
X95500000Y-80669693D01*
X95423049Y-80483918D01*
X95375000Y-80435869D01*
X95375000Y-80381500D01*
X95235500Y-80242000D01*
X95139007Y-80242000D01*
X95100000Y-80258157D01*
X95060993Y-80242000D01*
X94964500Y-80242000D01*
X94825000Y-80381500D01*
X94825000Y-80435869D01*
X94776951Y-80483918D01*
X94754263Y-80538692D01*
X94625053Y-80337895D01*
X94407841Y-80189480D01*
X94150000Y-80137266D01*
X93650000Y-80137266D01*
X93494493Y-80166527D01*
X93350000Y-80137266D01*
X92850000Y-80137266D01*
X92694493Y-80166527D01*
X92550000Y-80137266D01*
X92050000Y-80137266D01*
X91894493Y-80166527D01*
X91750000Y-80137266D01*
X91250000Y-80137266D01*
X91094493Y-80166527D01*
X90950000Y-80137266D01*
X90450000Y-80137266D01*
X90294493Y-80166527D01*
X90150000Y-80137266D01*
X89650000Y-80137266D01*
X89494493Y-80166527D01*
X89350000Y-80137266D01*
X88850000Y-80137266D01*
X88694493Y-80166527D01*
X88550000Y-80137266D01*
X88050000Y-80137266D01*
X87894493Y-80166527D01*
X87750000Y-80137266D01*
X87250000Y-80137266D01*
X87094493Y-80166527D01*
X86950000Y-80137266D01*
X86450000Y-80137266D01*
X86294493Y-80166527D01*
X86150000Y-80137266D01*
X85650000Y-80137266D01*
X85494493Y-80166527D01*
X85350000Y-80137266D01*
X84850000Y-80137266D01*
X84694493Y-80166527D01*
X84550000Y-80137266D01*
X84050000Y-80137266D01*
X83894493Y-80166527D01*
X83750000Y-80137266D01*
X83250000Y-80137266D01*
X83094493Y-80166527D01*
X82950000Y-80137266D01*
X82450000Y-80137266D01*
X82209124Y-80182590D01*
X81987895Y-80324947D01*
X81839480Y-80542159D01*
X81822704Y-80625000D01*
X81800005Y-80625000D01*
X81800000Y-80624999D01*
X81552626Y-80674205D01*
X81503420Y-80683993D01*
X81264242Y-80843807D01*
X81251992Y-80851992D01*
X80054112Y-82049872D01*
X80011862Y-82049835D01*
X79699664Y-82178833D01*
X79586071Y-82131665D01*
X79612734Y-82000000D01*
X79612734Y-80800000D01*
X79567410Y-80559124D01*
X79425053Y-80337895D01*
X79207841Y-80189480D01*
X78950000Y-80137266D01*
X78450000Y-80137266D01*
X78294493Y-80166527D01*
X78150000Y-80137266D01*
X77650000Y-80137266D01*
X77494493Y-80166527D01*
X77350000Y-80137266D01*
X76850000Y-80137266D01*
X76694493Y-80166527D01*
X76550000Y-80137266D01*
X76050000Y-80137266D01*
X75894493Y-80166527D01*
X75750000Y-80137266D01*
X75250000Y-80137266D01*
X75094493Y-80166527D01*
X74950000Y-80137266D01*
X74450000Y-80137266D01*
X74209124Y-80182590D01*
X74137742Y-80228523D01*
X73965712Y-80056193D01*
X73469710Y-79850235D01*
X72932647Y-79849766D01*
X72436285Y-80054858D01*
X72056193Y-80434288D01*
X71850235Y-80930290D01*
X71849766Y-81467353D01*
X71861347Y-81495381D01*
X71595098Y-81761165D01*
X71450165Y-82110204D01*
X71449835Y-82488138D01*
X71594159Y-82837429D01*
X71861165Y-83104902D01*
X72210204Y-83249835D01*
X72588138Y-83250165D01*
X72770051Y-83175000D01*
X73700000Y-83175000D01*
X73909802Y-83133268D01*
X73994159Y-83337429D01*
X74261165Y-83604902D01*
X74610204Y-83749835D01*
X74988138Y-83750165D01*
X75337429Y-83605841D01*
X75349787Y-83593504D01*
X75361165Y-83604902D01*
X75710204Y-83749835D01*
X76088138Y-83750165D01*
X76400336Y-83621167D01*
X76710204Y-83749835D01*
X77088138Y-83750165D01*
X77400336Y-83621167D01*
X77710204Y-83749835D01*
X78088138Y-83750165D01*
X78437429Y-83605841D01*
X78449962Y-83593330D01*
X78661165Y-83804902D01*
X79010204Y-83949835D01*
X79388138Y-83950165D01*
X79700336Y-83821167D01*
X80010204Y-83949835D01*
X80388138Y-83950165D01*
X80737429Y-83805841D01*
X80786437Y-83756919D01*
X81010204Y-83849835D01*
X81388138Y-83850165D01*
X81737429Y-83705841D01*
X81768324Y-83675000D01*
X82700000Y-83675000D01*
X82996580Y-83616007D01*
X83161948Y-83505511D01*
X83261165Y-83604902D01*
X83610204Y-83749835D01*
X83988138Y-83750165D01*
X84337429Y-83605841D01*
X84386437Y-83556919D01*
X84610204Y-83649835D01*
X84988138Y-83650165D01*
X85079379Y-83612465D01*
X85410204Y-83749835D01*
X85788138Y-83750165D01*
X86137429Y-83605841D01*
X86157060Y-83586244D01*
X86310204Y-83649835D01*
X86688138Y-83650165D01*
X86950213Y-83541878D01*
X87210204Y-83649835D01*
X87588138Y-83650165D01*
X87742627Y-83586332D01*
X87761165Y-83604902D01*
X88110204Y-83749835D01*
X88488138Y-83750165D01*
X88750213Y-83641878D01*
X89010204Y-83749835D01*
X89388138Y-83750165D01*
X89600090Y-83662588D01*
X89810204Y-83749835D01*
X90188138Y-83750165D01*
X90400090Y-83662588D01*
X90610204Y-83749835D01*
X90988138Y-83750165D01*
X91200090Y-83662588D01*
X91410204Y-83749835D01*
X91788138Y-83750165D01*
X92120801Y-83612712D01*
X92210204Y-83649835D01*
X92588138Y-83650165D01*
X92679379Y-83612465D01*
X93010204Y-83749835D01*
X93388138Y-83750165D01*
X93737429Y-83605841D01*
X93923790Y-83419806D01*
X94451992Y-83948008D01*
X94703420Y-84116007D01*
X95000000Y-84175000D01*
X98700000Y-84175000D01*
X98996580Y-84116007D01*
X99248008Y-83948008D01*
X99664874Y-83531142D01*
X101317536Y-83531142D01*
X101724986Y-84517246D01*
X102478786Y-85272363D01*
X103464177Y-85681533D01*
X104531142Y-85682464D01*
X105517246Y-85275014D01*
X106272363Y-84521214D01*
X106681533Y-83535823D01*
X106682464Y-82468858D01*
X106275014Y-81482754D01*
X105521214Y-80727637D01*
X104535823Y-80318467D01*
X103468858Y-80317536D01*
X102482754Y-80724986D01*
X101727637Y-81478786D01*
X101318467Y-82464177D01*
X101317536Y-83531142D01*
X99664874Y-83531142D01*
X101248008Y-81948008D01*
X101416007Y-81696580D01*
X101475000Y-81400000D01*
X101475000Y-74010647D01*
X101810204Y-74149835D01*
X102188138Y-74150165D01*
X102537429Y-74005841D01*
X102550093Y-73993200D01*
X102549835Y-74288138D01*
X102694159Y-74637429D01*
X102961165Y-74904902D01*
X103310204Y-75049835D01*
X103375351Y-75049892D01*
X103494159Y-75337429D01*
X103761165Y-75604902D01*
X104110204Y-75749835D01*
X104488138Y-75750165D01*
X104837429Y-75605841D01*
X105104902Y-75338835D01*
X105249835Y-74989796D01*
X105250165Y-74611862D01*
X105105841Y-74262571D01*
X105075000Y-74231676D01*
X105075000Y-58368685D01*
X105104902Y-58338835D01*
X105249835Y-57989796D01*
X105250165Y-57611862D01*
X105105841Y-57262571D01*
X105075000Y-57231676D01*
X105075000Y-41468685D01*
X105104902Y-41438835D01*
X105249835Y-41089796D01*
X105250165Y-40711862D01*
X105105841Y-40362571D01*
X105075000Y-40331676D01*
X105075000Y-37068685D01*
X105104902Y-37038835D01*
X105249835Y-36689796D01*
X105250165Y-36311862D01*
X105105841Y-35962571D01*
X104838835Y-35695098D01*
X104489796Y-35550165D01*
X104375000Y-35550065D01*
X104375000Y-28500000D01*
X104316007Y-28203420D01*
X104148008Y-27951992D01*
X103877910Y-27681894D01*
X104531142Y-27682464D01*
X105517246Y-27275014D01*
X106272363Y-26521214D01*
X106681533Y-25535823D01*
X106682464Y-24468858D01*
X106275014Y-23482754D01*
X105521214Y-22727637D01*
X104535823Y-22318467D01*
X103468858Y-22317536D01*
X102482754Y-22724986D01*
X101727637Y-23478786D01*
X101318467Y-24464177D01*
X101317893Y-25121877D01*
X101048008Y-24851992D01*
X100796580Y-24683993D01*
X100500000Y-24625000D01*
X92668685Y-24625000D01*
X92638835Y-24595098D01*
X92289796Y-24450165D01*
X91911862Y-24449835D01*
X91562571Y-24594159D01*
X91295098Y-24861165D01*
X91150165Y-25210204D01*
X91150127Y-25253857D01*
X90951992Y-25451992D01*
X90783993Y-25703420D01*
X90725000Y-26000000D01*
X90725000Y-27216997D01*
X90644270Y-27335149D01*
X90623049Y-27283918D01*
X90575000Y-27235869D01*
X90575000Y-27181500D01*
X90435500Y-27042000D01*
X90339007Y-27042000D01*
X90300000Y-27058157D01*
X90260993Y-27042000D01*
X90164500Y-27042000D01*
X90025000Y-27181500D01*
X90025000Y-27235869D01*
X89976951Y-27283918D01*
X89892000Y-27489007D01*
X89892000Y-27760500D01*
X90025000Y-27893500D01*
X90025000Y-27900000D01*
X90150000Y-27900000D01*
X90150000Y-28500000D01*
X90025000Y-28500000D01*
X90025000Y-28506500D01*
X89892000Y-28639500D01*
X89892000Y-28910993D01*
X89976951Y-29116082D01*
X90025000Y-29164131D01*
X90025000Y-29218500D01*
X90164500Y-29358000D01*
X90260993Y-29358000D01*
X90300000Y-29341843D01*
X90339007Y-29358000D01*
X90435500Y-29358000D01*
X90575000Y-29218500D01*
X90575000Y-29164131D01*
X90623049Y-29116082D01*
X90645737Y-29061308D01*
X90774947Y-29262105D01*
X90992159Y-29410520D01*
X91250000Y-29462734D01*
X91750000Y-29462734D01*
X91905507Y-29433473D01*
X92050000Y-29462734D01*
X92550000Y-29462734D01*
X92790876Y-29417410D01*
X93012105Y-29275053D01*
X93155730Y-29064851D01*
X93176951Y-29116082D01*
X93225000Y-29164131D01*
X93225000Y-29218500D01*
X93364500Y-29358000D01*
X93460993Y-29358000D01*
X93500000Y-29341843D01*
X93539007Y-29358000D01*
X93635500Y-29358000D01*
X93775000Y-29218500D01*
X93775000Y-29164131D01*
X93823049Y-29116082D01*
X93900000Y-28930307D01*
X93976951Y-29116082D01*
X94025000Y-29164131D01*
X94025000Y-29218500D01*
X94164500Y-29358000D01*
X94550123Y-29358000D01*
X94549835Y-29688138D01*
X94694159Y-30037429D01*
X94961165Y-30304902D01*
X95104871Y-30364574D01*
X95094493Y-30366527D01*
X94950000Y-30337266D01*
X94450000Y-30337266D01*
X94209124Y-30382590D01*
X93987895Y-30524947D01*
X93844270Y-30735149D01*
X93823049Y-30683918D01*
X93775000Y-30635869D01*
X93775000Y-30581500D01*
X93635500Y-30442000D01*
X93539007Y-30442000D01*
X93500000Y-30458157D01*
X93460993Y-30442000D01*
X93364500Y-30442000D01*
X93225000Y-30581500D01*
X93225000Y-30635869D01*
X93176951Y-30683918D01*
X93154263Y-30738692D01*
X93025053Y-30537895D01*
X92807841Y-30389480D01*
X92550000Y-30337266D01*
X92050000Y-30337266D01*
X91894493Y-30366527D01*
X91750000Y-30337266D01*
X91250000Y-30337266D01*
X91094493Y-30366527D01*
X90950000Y-30337266D01*
X90450000Y-30337266D01*
X90294493Y-30366527D01*
X90150000Y-30337266D01*
X89650000Y-30337266D01*
X89409124Y-30382590D01*
X89337742Y-30428523D01*
X89165712Y-30256193D01*
X88669710Y-30050235D01*
X88132647Y-30049766D01*
X87636285Y-30254858D01*
X87256193Y-30634288D01*
X87050235Y-31130290D01*
X87049766Y-31667353D01*
X87254858Y-32163715D01*
X87634288Y-32543807D01*
X88130290Y-32749765D01*
X88667353Y-32750234D01*
X89113132Y-32566042D01*
X89125000Y-32584485D01*
X89125000Y-33231315D01*
X89095098Y-33261165D01*
X88950165Y-33610204D01*
X88949835Y-33988138D01*
X89094159Y-34337429D01*
X89125000Y-34368324D01*
X89125000Y-35600000D01*
X89183993Y-35896580D01*
X89351992Y-36148008D01*
X91151990Y-37948005D01*
X91151992Y-37948008D01*
X91403420Y-38116007D01*
X91700000Y-38175000D01*
X96781414Y-38175000D01*
X96695098Y-38261165D01*
X96550165Y-38610204D01*
X96549933Y-38875423D01*
X96262571Y-38994159D01*
X96250125Y-39006583D01*
X96138835Y-38895098D01*
X95789796Y-38750165D01*
X95411862Y-38749835D01*
X95062571Y-38894159D01*
X94900038Y-39056408D01*
X94838835Y-38995098D01*
X94489796Y-38850165D01*
X94111862Y-38849835D01*
X93762571Y-38994159D01*
X93650038Y-39106496D01*
X93538835Y-38995098D01*
X93189796Y-38850165D01*
X92811862Y-38849835D01*
X92462571Y-38994159D01*
X92400125Y-39056496D01*
X92338835Y-38995098D01*
X91989796Y-38850165D01*
X91611862Y-38849835D01*
X91262571Y-38994159D01*
X91200038Y-39056583D01*
X91038835Y-38895098D01*
X90689796Y-38750165D01*
X90311862Y-38749835D01*
X89962571Y-38894159D01*
X89850038Y-39006496D01*
X89738835Y-38895098D01*
X89389796Y-38750165D01*
X89011862Y-38749835D01*
X88662571Y-38894159D01*
X88600125Y-38956496D01*
X88538835Y-38895098D01*
X88189796Y-38750165D01*
X87811862Y-38749835D01*
X87462571Y-38894159D01*
X87195098Y-39161165D01*
X87099945Y-39390320D01*
X87005841Y-39162571D01*
X86738835Y-38895098D01*
X86389796Y-38750165D01*
X86011862Y-38749835D01*
X85715777Y-38872175D01*
X85638835Y-38795098D01*
X85289796Y-38650165D01*
X84911862Y-38649835D01*
X84562571Y-38794159D01*
X84550213Y-38806496D01*
X84538835Y-38795098D01*
X84189796Y-38650165D01*
X83811862Y-38649835D01*
X83515777Y-38772175D01*
X83438835Y-38695098D01*
X83089796Y-38550165D01*
X82711862Y-38549835D01*
X82362571Y-38694159D01*
X82099863Y-38956408D01*
X81938835Y-38795098D01*
X81589796Y-38650165D01*
X81211862Y-38649835D01*
X80986575Y-38742922D01*
X80938835Y-38695098D01*
X80589796Y-38550165D01*
X80211862Y-38549835D01*
X79862571Y-38694159D01*
X79750038Y-38806496D01*
X79638835Y-38695098D01*
X79289796Y-38550165D01*
X78911862Y-38549835D01*
X78562571Y-38694159D01*
X78550213Y-38706496D01*
X78538835Y-38695098D01*
X78189796Y-38550165D01*
X77811862Y-38549835D01*
X77462571Y-38694159D01*
X77350038Y-38806496D01*
X77238835Y-38695098D01*
X77150124Y-38658262D01*
X77150165Y-38611862D01*
X77005841Y-38262571D01*
X76975000Y-38231676D01*
X76975000Y-28639500D01*
X89092000Y-28639500D01*
X89092000Y-28910993D01*
X89176951Y-29116082D01*
X89333918Y-29273050D01*
X89539007Y-29358000D01*
X89635500Y-29358000D01*
X89775000Y-29218500D01*
X89775000Y-28500000D01*
X89231500Y-28500000D01*
X89092000Y-28639500D01*
X76975000Y-28639500D01*
X76975000Y-27489007D01*
X89092000Y-27489007D01*
X89092000Y-27760500D01*
X89231500Y-27900000D01*
X89775000Y-27900000D01*
X89775000Y-27181500D01*
X89635500Y-27042000D01*
X89539007Y-27042000D01*
X89333918Y-27126950D01*
X89176951Y-27283918D01*
X89092000Y-27489007D01*
X76975000Y-27489007D01*
X76975000Y-24339982D01*
X77378040Y-24070679D01*
X77739183Y-23530190D01*
X77866000Y-22892639D01*
X77866000Y-22827361D01*
X77739183Y-22189810D01*
X77428607Y-21725000D01*
X107275000Y-21725000D01*
X107275000Y-86275000D01*
X24725000Y-86275000D01*
X24725000Y-83531142D01*
X25317536Y-83531142D01*
X25724986Y-84517246D01*
X26478786Y-85272363D01*
X27464177Y-85681533D01*
X28531142Y-85682464D01*
X29517246Y-85275014D01*
X30272363Y-84521214D01*
X30681533Y-83535823D01*
X30682464Y-82468858D01*
X30275014Y-81482754D01*
X29521214Y-80727637D01*
X28535823Y-80318467D01*
X27468858Y-80317536D01*
X26482754Y-80724986D01*
X25727637Y-81478786D01*
X25318467Y-82464177D01*
X25317536Y-83531142D01*
X24725000Y-83531142D01*
X24725000Y-76954481D01*
X69862277Y-76954481D01*
X70057495Y-77426943D01*
X70418655Y-77788735D01*
X70890776Y-77984777D01*
X71401981Y-77985223D01*
X71874443Y-77790005D01*
X72236235Y-77428845D01*
X72432277Y-76956724D01*
X72432723Y-76445519D01*
X72237505Y-75973057D01*
X71876345Y-75611265D01*
X71404224Y-75415223D01*
X70893019Y-75414777D01*
X70420557Y-75609995D01*
X70058765Y-75971155D01*
X69862723Y-76443276D01*
X69862277Y-76954481D01*
X24725000Y-76954481D01*
X24725000Y-60354481D01*
X69862277Y-60354481D01*
X70057495Y-60826943D01*
X70418655Y-61188735D01*
X70890776Y-61384777D01*
X71401981Y-61385223D01*
X71874443Y-61190005D01*
X72236235Y-60828845D01*
X72432277Y-60356724D01*
X72432723Y-59845519D01*
X72237505Y-59373057D01*
X71876345Y-59011265D01*
X71404224Y-58815223D01*
X70893019Y-58814777D01*
X70420557Y-59009995D01*
X70058765Y-59371155D01*
X69862723Y-59843276D01*
X69862277Y-60354481D01*
X24725000Y-60354481D01*
X24725000Y-43754481D01*
X69862277Y-43754481D01*
X70057495Y-44226943D01*
X70418655Y-44588735D01*
X70890776Y-44784777D01*
X71401981Y-44785223D01*
X71874443Y-44590005D01*
X72236235Y-44228845D01*
X72432277Y-43756724D01*
X72432723Y-43245519D01*
X72237505Y-42773057D01*
X71876345Y-42411265D01*
X71404224Y-42215223D01*
X70893019Y-42214777D01*
X70420557Y-42409995D01*
X70058765Y-42771155D01*
X69862723Y-43243276D01*
X69862277Y-43754481D01*
X24725000Y-43754481D01*
X24725000Y-25531142D01*
X25317536Y-25531142D01*
X25724986Y-26517246D01*
X26478786Y-27272363D01*
X27464177Y-27681533D01*
X28531142Y-27682464D01*
X29517246Y-27275014D01*
X30272363Y-26521214D01*
X30681533Y-25535823D01*
X30682464Y-24468858D01*
X30275014Y-23482754D01*
X29521214Y-22727637D01*
X28535823Y-22318467D01*
X27468858Y-22317536D01*
X26482754Y-22724986D01*
X25727637Y-23478786D01*
X25318467Y-24464177D01*
X25317536Y-25531142D01*
X24725000Y-25531142D01*
X24725000Y-21725000D01*
X34719237Y-21725000D01*
X34630738Y-21784121D01*
G36*
X95625000Y-81093500D02*
X95625000Y-81100000D01*
X95750000Y-81100000D01*
X95750000Y-81700000D01*
X95625000Y-81700000D01*
X95625000Y-81706500D01*
X95500000Y-81831500D01*
X95375000Y-81706500D01*
X95375000Y-81700000D01*
X95250000Y-81700000D01*
X95250000Y-81100000D01*
X95375000Y-81100000D01*
X95375000Y-81093500D01*
X95500000Y-80968500D01*
X95625000Y-81093500D01*
X95625000Y-81093500D01*
G37*
X95625000Y-81093500D02*
X95625000Y-81100000D01*
X95750000Y-81100000D01*
X95750000Y-81700000D01*
X95625000Y-81700000D01*
X95625000Y-81706500D01*
X95500000Y-81831500D01*
X95375000Y-81706500D01*
X95375000Y-81700000D01*
X95250000Y-81700000D01*
X95250000Y-81100000D01*
X95375000Y-81100000D01*
X95375000Y-81093500D01*
X95500000Y-80968500D01*
X95625000Y-81093500D01*
G36*
X95625000Y-64493500D02*
X95625000Y-64500000D01*
X95750000Y-64500000D01*
X95750000Y-65100000D01*
X95625000Y-65100000D01*
X95625000Y-65106500D01*
X95500000Y-65231500D01*
X95375000Y-65106500D01*
X95375000Y-65100000D01*
X95250000Y-65100000D01*
X95250000Y-64500000D01*
X95375000Y-64500000D01*
X95375000Y-64493500D01*
X95500000Y-64368500D01*
X95625000Y-64493500D01*
X95625000Y-64493500D01*
G37*
X95625000Y-64493500D02*
X95625000Y-64500000D01*
X95750000Y-64500000D01*
X95750000Y-65100000D01*
X95625000Y-65100000D01*
X95625000Y-65106500D01*
X95500000Y-65231500D01*
X95375000Y-65106500D01*
X95375000Y-65100000D01*
X95250000Y-65100000D01*
X95250000Y-64500000D01*
X95375000Y-64500000D01*
X95375000Y-64493500D01*
X95500000Y-64368500D01*
X95625000Y-64493500D01*
G36*
X95625000Y-47893500D02*
X95625000Y-47900000D01*
X95750000Y-47900000D01*
X95750000Y-48500000D01*
X95625000Y-48500000D01*
X95625000Y-48506500D01*
X95500000Y-48631500D01*
X95375000Y-48506500D01*
X95375000Y-48500000D01*
X95250000Y-48500000D01*
X95250000Y-47900000D01*
X95375000Y-47900000D01*
X95375000Y-47893500D01*
X95500000Y-47768500D01*
X95625000Y-47893500D01*
X95625000Y-47893500D01*
G37*
X95625000Y-47893500D02*
X95625000Y-47900000D01*
X95750000Y-47900000D01*
X95750000Y-48500000D01*
X95625000Y-48500000D01*
X95625000Y-48506500D01*
X95500000Y-48631500D01*
X95375000Y-48506500D01*
X95375000Y-48500000D01*
X95250000Y-48500000D01*
X95250000Y-47900000D01*
X95375000Y-47900000D01*
X95375000Y-47893500D01*
X95500000Y-47768500D01*
X95625000Y-47893500D01*
G36*
X94025000Y-27893500D02*
X94025000Y-27900000D01*
X94150000Y-27900000D01*
X94150000Y-28500000D01*
X94025000Y-28500000D01*
X94025000Y-28506500D01*
X93900000Y-28631500D01*
X93775000Y-28506500D01*
X93775000Y-28500000D01*
X93650000Y-28500000D01*
X93650000Y-27900000D01*
X93775000Y-27900000D01*
X93775000Y-27893500D01*
X93900000Y-27768500D01*
X94025000Y-27893500D01*
X94025000Y-27893500D01*
G37*
X94025000Y-27893500D02*
X94025000Y-27900000D01*
X94150000Y-27900000D01*
X94150000Y-28500000D01*
X94025000Y-28500000D01*
X94025000Y-28506500D01*
X93900000Y-28631500D01*
X93775000Y-28506500D01*
X93775000Y-28500000D01*
X93650000Y-28500000D01*
X93650000Y-27900000D01*
X93775000Y-27900000D01*
X93775000Y-27893500D01*
X93900000Y-27768500D01*
X94025000Y-27893500D01*
M02*
