M48
;DRILL file {KiCad 4.0.6} date 05/10/18 12:45:18
;FORMAT={-:-/ absolute / inch / decimal}
FMAT,2
INCH,TZ
T1C0.016
T2C0.022
T3C0.039
T4C0.040
T5C0.050
T6C0.060
T7C0.120
%
G90
G05
M72
T1
X1.8543Y-1.7598
X1.9016Y-1.815
X1.9134Y-2.2677
X2.0354Y-1.815
X2.065Y-1.5875
X2.0669Y-1.7717
X2.115Y-1.5875
X2.165Y-1.5875
X2.215Y-1.5875
X2.265Y-1.5875
X2.29Y-1.57
X2.315Y-1.5875
X2.34Y-1.57
X2.365Y-1.5875
X2.39Y-1.57
X2.415Y-1.5875
X2.44Y-1.57
X2.465Y-1.5875
X2.4744Y-1.9016
X2.49Y-1.57
X2.515Y-1.5875
X2.54Y-1.57
X2.565Y-1.5875
X2.59Y-1.57
X2.615Y-1.5875
X2.626Y-2.9724
X2.626Y-3.0512
X2.64Y-1.57
X2.665Y-1.5875
X2.69Y-1.57
X2.715Y-1.5875
X2.7165Y-2.9724
X2.7165Y-3.0512
X2.74Y-1.57
X2.765Y-1.5875
X2.79Y-1.57
X2.815Y-1.5875
X2.8409Y-1.5665
X2.865Y-1.5875
X2.8858Y-2.248
X2.8858Y-2.2795
X2.8858Y-2.3071
X2.89Y-1.57
X2.915Y-1.5875
X2.94Y-1.57
X2.9975Y-1.5425
X3.3875Y-2.83
X3.395Y-2.86
X3.4025Y-2.89
X3.405Y-2.3525
X3.4075Y-2.92
X3.415Y-2.95
X3.4325Y-2.365
X3.435Y-2.31
X3.4625Y-2.325
X3.4875Y-2.305
X4.2322Y-2.4049
X4.2322Y-2.5123
X4.2322Y-2.9404
X4.2322Y-3.0478
X4.2322Y-3.4758
X4.2322Y-3.5832
X4.2822Y-2.4049
X4.2822Y-2.5123
X4.2822Y-2.9404
X4.2822Y-3.0478
X4.2822Y-3.4758
X4.2822Y-3.5832
X4.3322Y-2.4049
X4.3322Y-2.5123
X4.3322Y-2.9404
X4.3322Y-3.0478
X4.3322Y-3.4758
X4.3322Y-3.5832
X4.36Y-1.44
X4.3822Y-2.4049
X4.3822Y-2.5123
X4.3822Y-2.9404
X4.3822Y-3.0478
X4.3822Y-3.4758
X4.3822Y-3.5832
X4.4322Y-2.4049
X4.4322Y-2.5123
X4.4322Y-2.9404
X4.4322Y-3.0478
X4.4322Y-3.4758
X4.4322Y-3.5832
X4.4822Y-2.4049
X4.4822Y-2.5123
X4.4822Y-2.9404
X4.4822Y-3.0478
X4.4822Y-3.4758
X4.4822Y-3.5832
X4.5322Y-2.4049
X4.5322Y-2.5123
X4.5322Y-2.9404
X4.5322Y-3.0478
X4.5322Y-3.4758
X4.5322Y-3.5832
X4.5354Y-1.7201
X4.5822Y-2.4049
X4.5822Y-2.5123
X4.5822Y-2.9404
X4.5822Y-3.0478
X4.5822Y-3.4758
X4.5822Y-3.5832
X4.6083Y-1.7161
X4.6322Y-2.4049
X4.6322Y-2.5123
X4.6322Y-2.9404
X4.6322Y-3.0478
X4.6322Y-3.4758
X4.6322Y-3.5832
X4.6681Y-1.724
X4.6822Y-2.4049
X4.6822Y-2.5123
X4.6822Y-2.9404
X4.6822Y-3.0478
X4.6822Y-3.4758
X4.6822Y-3.5832
X4.685Y-1.6142
X4.7165Y-1.6457
X4.7268Y-1.7091
X4.7322Y-2.4049
X4.7322Y-2.5123
X4.7322Y-2.9404
X4.7322Y-3.0478
X4.7322Y-3.4758
X4.7322Y-3.5832
X4.7559Y-1.685
X4.7822Y-2.4049
X4.7822Y-2.5123
X4.7822Y-2.9404
X4.7822Y-3.0478
X4.7822Y-3.4758
X4.7822Y-3.5832
X4.8322Y-2.4049
X4.8322Y-2.5123
X4.8322Y-2.9404
X4.8322Y-3.0478
X4.8322Y-3.4758
X4.8322Y-3.5832
X4.8822Y-2.4049
X4.8822Y-2.5123
X4.8822Y-2.9404
X4.8822Y-3.0478
X4.8822Y-3.4758
X4.8822Y-3.5832
X4.9322Y-2.4049
X4.9322Y-2.5123
X4.9322Y-2.9404
X4.9322Y-3.0478
X4.9322Y-3.4758
X4.9322Y-3.5832
X4.9822Y-2.4049
X4.9822Y-2.5123
X4.9822Y-2.9404
X4.9822Y-3.0478
X4.9822Y-3.4758
X4.9822Y-3.5832
X5.0322Y-2.4049
X5.0322Y-2.5123
X5.0322Y-2.9404
X5.0322Y-3.0478
X5.0322Y-3.4758
X5.0322Y-3.5832
X5.0822Y-2.4049
X5.0822Y-2.5123
X5.0822Y-2.9404
X5.0822Y-3.0478
X5.0822Y-3.4758
X5.0822Y-3.5832
X5.1322Y-2.4049
X5.1322Y-2.5123
X5.1322Y-2.9404
X5.1322Y-3.0478
X5.1322Y-3.4758
X5.1322Y-3.5832
X5.1822Y-2.4049
X5.1822Y-2.5123
X5.1822Y-2.9404
X5.1822Y-3.0478
X5.1823Y-3.4772
X5.1823Y-3.5807
X5.2047Y-1.7362
X5.2339Y-2.3094
X5.2822Y-2.5123
X5.315Y-1.626
X5.3322Y-2.5123
X5.3822Y-2.5123
X5.3822Y-3.0478
X5.4921Y-2.0669
X5.5583Y-2.9142
X5.5591Y-2.0984
X5.5594Y-2.2406
X5.5594Y-3.4567
X5.5886Y-2.0051
X5.5886Y-2.2587
X5.6102Y-3.5827
X5.6142Y-2.5118
X5.6142Y-3.0472
X5.6146Y-1.9768
X5.6146Y-2.2173
X5.6378Y-3.6063
X5.6417Y-1.8898
X5.6693Y-2.2402
X5.6693Y-2.3858
X5.6693Y-2.874
X5.6693Y-3.4213
X5.6697Y-1.8697
X5.7244Y-2.1535
X5.7283Y-2.0709
X5.7323Y-3.685
X5.7362Y-2.6063
X5.7362Y-3.1378
X5.748Y-1.7717
X5.7657Y-2.5433
X5.7677Y-2.8189
X5.7677Y-3.3622
X5.7717Y-2.2913
X5.7831Y-2.1016
X5.7992Y-2.8386
X5.7992Y-3.3701
X5.8031Y-2.4173
X5.8937Y-2.3268
X5.9331Y-2.4449
X5.937Y-2.6299
T2
X2.016Y-1.4906
X2.016Y-1.5406
X2.066Y-1.4906
X2.066Y-1.5406
X2.116Y-1.4906
X2.116Y-1.5406
X2.166Y-1.4906
X2.166Y-1.5406
X2.216Y-1.4906
X2.216Y-1.5406
X2.266Y-1.4906
X2.266Y-1.5406
X2.316Y-1.4906
X2.316Y-1.5406
X2.366Y-1.4906
X2.366Y-1.5406
X2.416Y-1.4906
X2.416Y-1.5406
X2.466Y-1.4906
X2.466Y-1.5406
X2.516Y-1.4906
X2.516Y-1.5406
X2.566Y-1.4906
X2.566Y-1.5406
X2.616Y-1.4906
X2.616Y-1.5406
X2.666Y-1.4906
X2.666Y-1.5406
X2.716Y-1.4906
X2.716Y-1.5406
X2.766Y-1.4906
X2.766Y-1.5406
X2.816Y-1.4906
X2.816Y-1.5406
X2.866Y-1.4906
X2.866Y-1.5406
X2.916Y-1.4906
X2.916Y-1.5406
X2.966Y-1.4906
X2.966Y-1.5406
X3.337Y-1.4906
X3.337Y-1.5406
X3.387Y-1.4906
X3.387Y-1.5406
X3.437Y-1.4906
X3.437Y-1.5406
X3.487Y-1.4906
X3.487Y-1.5406
X3.537Y-1.4906
X3.537Y-1.5406
X3.587Y-1.4906
X3.587Y-1.5406
X3.637Y-1.4906
X3.637Y-1.5406
X3.687Y-1.4906
X3.687Y-1.5406
X3.737Y-1.4906
X3.737Y-1.5406
X3.787Y-1.4906
X3.787Y-1.5406
X3.837Y-1.4906
X3.837Y-1.5406
X3.887Y-1.4906
X3.887Y-1.5406
X3.937Y-1.4906
X3.937Y-1.5406
X3.987Y-1.4906
X3.987Y-1.5406
X4.037Y-1.4906
X4.037Y-1.5406
X4.087Y-1.4906
X4.087Y-1.5406
X4.137Y-1.4906
X4.137Y-1.5406
X4.187Y-1.4906
X4.187Y-1.5406
X4.237Y-1.4906
X4.237Y-1.5406
X4.287Y-1.4906
X4.287Y-1.5406
X4.337Y-1.4906
X4.337Y-1.5406
X4.387Y-1.4906
X4.387Y-1.5406
X4.437Y-1.4906
X4.437Y-1.5406
X4.487Y-1.4906
X4.487Y-1.5406
X4.537Y-1.4906
X4.537Y-1.5406
X4.908Y-1.4906
X4.908Y-1.5406
X4.958Y-1.4906
X4.958Y-1.5406
X5.008Y-1.4906
X5.008Y-1.5406
X5.058Y-1.4906
X5.058Y-1.5406
X5.108Y-1.4906
X5.108Y-1.5406
X5.158Y-1.4906
X5.158Y-1.5406
X5.208Y-1.4906
X5.208Y-1.5406
X5.258Y-1.4906
X5.258Y-1.5406
X5.308Y-1.4906
X5.308Y-1.5406
X5.358Y-1.4906
X5.358Y-1.5406
X5.408Y-1.4906
X5.408Y-1.5406
X5.458Y-1.4906
X5.458Y-1.5406
X5.508Y-1.4906
X5.508Y-1.5406
X5.558Y-1.4906
X5.558Y-1.5406
X5.608Y-1.4906
X5.608Y-1.5406
X5.658Y-1.4906
X5.658Y-1.5406
X5.708Y-1.4906
X5.708Y-1.5406
X5.758Y-1.4906
X5.758Y-1.5406
X5.808Y-1.4906
X5.808Y-1.5406
X5.858Y-1.4906
X5.858Y-1.5406
T3
X1.9016Y-2.6043
X1.9016Y-3.0965
X2.4921Y-2.6043
X2.4921Y-3.0965
T4
X2.8059Y-1.8807
X2.8059Y-1.9807
X2.8059Y-2.0807
X2.8059Y-2.1807
X2.8059Y-2.2807
X5.9764Y-2.0441
X5.9764Y-2.1441
X5.9764Y-2.2441
T5
X4.1697Y-2.4586
X4.1697Y-2.9941
X4.1697Y-3.5295
X5.0634Y-1.9232
X5.3884Y-1.9232
X5.4947Y-2.4586
X5.4947Y-2.9941
X5.4947Y-3.5295
T6
X2.2835Y-1.8898
X2.2835Y-2.0898
T7
X1.9685Y-1.7323
X2.6772Y-3.3858
X5.9055Y-1.7323
X5.9055Y-3.3071
T0
M30
