G04 #@! TF.FileFunction,Other,Fab,Top*
%FSLAX46Y46*%
G04 Gerber Fmt 4.6, Leading zero omitted, Abs format (unit mm)*
G04 Created by KiCad (PCBNEW 4.0.1-stable) date 2017-03-07 1:46:45 PM*
%MOMM*%
G01*
G04 APERTURE LIST*
%ADD10C,0.100000*%
%ADD11C,0.150000*%
G04 APERTURE END LIST*
D10*
X58150000Y-88990000D02*
X58150000Y-98890000D01*
X64450000Y-88940000D02*
X56950000Y-88940000D01*
X56950000Y-88940000D02*
X56950000Y-98940000D01*
X56950000Y-98940000D02*
X64450000Y-98940000D01*
X64450000Y-98940000D02*
X64450000Y-88940000D01*
X146420000Y-58500000D02*
X145180000Y-58500000D01*
X146420000Y-56500000D02*
X146420000Y-58500000D01*
X145180000Y-56500000D02*
X146420000Y-56500000D01*
X145180000Y-58500000D02*
X145180000Y-56500000D01*
X148570000Y-58450000D02*
X147330000Y-58450000D01*
X148570000Y-56450000D02*
X148570000Y-58450000D01*
X147330000Y-56450000D02*
X148570000Y-56450000D01*
X147330000Y-58450000D02*
X147330000Y-56450000D01*
X64300000Y-54620000D02*
X64300000Y-53380000D01*
X66300000Y-54620000D02*
X64300000Y-54620000D01*
X66300000Y-53380000D02*
X66300000Y-54620000D01*
X64300000Y-53380000D02*
X66300000Y-53380000D01*
X64300000Y-56420000D02*
X64300000Y-55180000D01*
X66300000Y-56420000D02*
X64300000Y-56420000D01*
X66300000Y-55180000D02*
X66300000Y-56420000D01*
X64300000Y-55180000D02*
X66300000Y-55180000D01*
X52154066Y-44000000D02*
G75*
G03X52154066Y-44000000I-2154066J0D01*
G01*
X152154066Y-44000000D02*
G75*
G03X152154066Y-44000000I-2154066J0D01*
G01*
X152154066Y-86000000D02*
G75*
G03X152154066Y-86000000I-2154066J0D01*
G01*
X70154066Y-86000000D02*
G75*
G03X70154066Y-86000000I-2154066J0D01*
G01*
D11*
X150027143Y-59183809D02*
X150074762Y-59231428D01*
X150122381Y-59374285D01*
X150122381Y-59469523D01*
X150074762Y-59612381D01*
X149979524Y-59707619D01*
X149884286Y-59755238D01*
X149693810Y-59802857D01*
X149550952Y-59802857D01*
X149360476Y-59755238D01*
X149265238Y-59707619D01*
X149170000Y-59612381D01*
X149122381Y-59469523D01*
X149122381Y-59374285D01*
X149170000Y-59231428D01*
X149217619Y-59183809D01*
X149122381Y-58564762D02*
X149122381Y-58374285D01*
X149170000Y-58279047D01*
X149265238Y-58183809D01*
X149455714Y-58136190D01*
X149789048Y-58136190D01*
X149979524Y-58183809D01*
X150074762Y-58279047D01*
X150122381Y-58374285D01*
X150122381Y-58564762D01*
X150074762Y-58660000D01*
X149979524Y-58755238D01*
X149789048Y-58802857D01*
X149455714Y-58802857D01*
X149265238Y-58755238D01*
X149170000Y-58660000D01*
X149122381Y-58564762D01*
X150122381Y-57707619D02*
X149122381Y-57707619D01*
X150122381Y-57136190D01*
X149122381Y-57136190D01*
X150122381Y-56660000D02*
X149122381Y-56660000D01*
X150122381Y-56088571D01*
X149122381Y-56088571D01*
X150217619Y-55850476D02*
X150217619Y-55088571D01*
X149122381Y-54660000D02*
X149122381Y-54564761D01*
X149170000Y-54469523D01*
X149217619Y-54421904D01*
X149312857Y-54374285D01*
X149503333Y-54326666D01*
X149741429Y-54326666D01*
X149931905Y-54374285D01*
X150027143Y-54421904D01*
X150074762Y-54469523D01*
X150122381Y-54564761D01*
X150122381Y-54660000D01*
X150074762Y-54755238D01*
X150027143Y-54802857D01*
X149931905Y-54850476D01*
X149741429Y-54898095D01*
X149503333Y-54898095D01*
X149312857Y-54850476D01*
X149217619Y-54802857D01*
X149170000Y-54755238D01*
X149122381Y-54660000D01*
X150122381Y-53374285D02*
X150122381Y-53945714D01*
X150122381Y-53660000D02*
X149122381Y-53660000D01*
X149265238Y-53755238D01*
X149360476Y-53850476D01*
X149408095Y-53945714D01*
X149122381Y-53040952D02*
X150122381Y-52374285D01*
X149122381Y-52374285D02*
X150122381Y-53040952D01*
X149122381Y-51802857D02*
X149122381Y-51707618D01*
X149170000Y-51612380D01*
X149217619Y-51564761D01*
X149312857Y-51517142D01*
X149503333Y-51469523D01*
X149741429Y-51469523D01*
X149931905Y-51517142D01*
X150027143Y-51564761D01*
X150074762Y-51612380D01*
X150122381Y-51707618D01*
X150122381Y-51802857D01*
X150074762Y-51898095D01*
X150027143Y-51945714D01*
X149931905Y-51993333D01*
X149741429Y-52040952D01*
X149503333Y-52040952D01*
X149312857Y-51993333D01*
X149217619Y-51945714D01*
X149170000Y-51898095D01*
X149122381Y-51802857D01*
X149122381Y-51136190D02*
X149122381Y-50517142D01*
X149503333Y-50850476D01*
X149503333Y-50707618D01*
X149550952Y-50612380D01*
X149598571Y-50564761D01*
X149693810Y-50517142D01*
X149931905Y-50517142D01*
X150027143Y-50564761D01*
X150074762Y-50612380D01*
X150122381Y-50707618D01*
X150122381Y-50993333D01*
X150074762Y-51088571D01*
X150027143Y-51136190D01*
X55977143Y-97963809D02*
X56024762Y-98011428D01*
X56072381Y-98154285D01*
X56072381Y-98249523D01*
X56024762Y-98392381D01*
X55929524Y-98487619D01*
X55834286Y-98535238D01*
X55643810Y-98582857D01*
X55500952Y-98582857D01*
X55310476Y-98535238D01*
X55215238Y-98487619D01*
X55120000Y-98392381D01*
X55072381Y-98249523D01*
X55072381Y-98154285D01*
X55120000Y-98011428D01*
X55167619Y-97963809D01*
X55072381Y-97344762D02*
X55072381Y-97154285D01*
X55120000Y-97059047D01*
X55215238Y-96963809D01*
X55405714Y-96916190D01*
X55739048Y-96916190D01*
X55929524Y-96963809D01*
X56024762Y-97059047D01*
X56072381Y-97154285D01*
X56072381Y-97344762D01*
X56024762Y-97440000D01*
X55929524Y-97535238D01*
X55739048Y-97582857D01*
X55405714Y-97582857D01*
X55215238Y-97535238D01*
X55120000Y-97440000D01*
X55072381Y-97344762D01*
X56072381Y-96487619D02*
X55072381Y-96487619D01*
X56072381Y-95916190D01*
X55072381Y-95916190D01*
X56072381Y-95440000D02*
X55072381Y-95440000D01*
X56072381Y-94868571D01*
X55072381Y-94868571D01*
X56167619Y-94630476D02*
X56167619Y-93868571D01*
X55072381Y-93440000D02*
X55072381Y-93344761D01*
X55120000Y-93249523D01*
X55167619Y-93201904D01*
X55262857Y-93154285D01*
X55453333Y-93106666D01*
X55691429Y-93106666D01*
X55881905Y-93154285D01*
X55977143Y-93201904D01*
X56024762Y-93249523D01*
X56072381Y-93344761D01*
X56072381Y-93440000D01*
X56024762Y-93535238D01*
X55977143Y-93582857D01*
X55881905Y-93630476D01*
X55691429Y-93678095D01*
X55453333Y-93678095D01*
X55262857Y-93630476D01*
X55167619Y-93582857D01*
X55120000Y-93535238D01*
X55072381Y-93440000D01*
X56072381Y-92154285D02*
X56072381Y-92725714D01*
X56072381Y-92440000D02*
X55072381Y-92440000D01*
X55215238Y-92535238D01*
X55310476Y-92630476D01*
X55358095Y-92725714D01*
X55072381Y-91820952D02*
X56072381Y-91154285D01*
X55072381Y-91154285D02*
X56072381Y-91820952D01*
X55072381Y-90582857D02*
X55072381Y-90487618D01*
X55120000Y-90392380D01*
X55167619Y-90344761D01*
X55262857Y-90297142D01*
X55453333Y-90249523D01*
X55691429Y-90249523D01*
X55881905Y-90297142D01*
X55977143Y-90344761D01*
X56024762Y-90392380D01*
X56072381Y-90487618D01*
X56072381Y-90582857D01*
X56024762Y-90678095D01*
X55977143Y-90725714D01*
X55881905Y-90773333D01*
X55691429Y-90820952D01*
X55453333Y-90820952D01*
X55262857Y-90773333D01*
X55167619Y-90725714D01*
X55120000Y-90678095D01*
X55072381Y-90582857D01*
X55167619Y-89868571D02*
X55120000Y-89820952D01*
X55072381Y-89725714D01*
X55072381Y-89487618D01*
X55120000Y-89392380D01*
X55167619Y-89344761D01*
X55262857Y-89297142D01*
X55358095Y-89297142D01*
X55500952Y-89344761D01*
X56072381Y-89916190D01*
X56072381Y-89297142D01*
X147002381Y-59904761D02*
X147716667Y-59904761D01*
X147859524Y-59952381D01*
X147954762Y-60047619D01*
X148002381Y-60190476D01*
X148002381Y-60285714D01*
X147002381Y-59428571D02*
X147811905Y-59428571D01*
X147907143Y-59380952D01*
X147954762Y-59333333D01*
X148002381Y-59238095D01*
X148002381Y-59047618D01*
X147954762Y-58952380D01*
X147907143Y-58904761D01*
X147811905Y-58857142D01*
X147002381Y-58857142D01*
X148002381Y-58380952D02*
X147002381Y-58380952D01*
X147716667Y-58047618D01*
X147002381Y-57714285D01*
X148002381Y-57714285D01*
X148002381Y-57238095D02*
X147002381Y-57238095D01*
X147002381Y-56857142D01*
X147050000Y-56761904D01*
X147097619Y-56714285D01*
X147192857Y-56666666D01*
X147335714Y-56666666D01*
X147430952Y-56714285D01*
X147478571Y-56761904D01*
X147526190Y-56857142D01*
X147526190Y-57238095D01*
X147478571Y-56238095D02*
X147478571Y-55904761D01*
X148002381Y-55761904D02*
X148002381Y-56238095D01*
X147002381Y-56238095D01*
X147002381Y-55761904D01*
X148002381Y-54761904D02*
X147526190Y-55095238D01*
X148002381Y-55333333D02*
X147002381Y-55333333D01*
X147002381Y-54952380D01*
X147050000Y-54857142D01*
X147097619Y-54809523D01*
X147192857Y-54761904D01*
X147335714Y-54761904D01*
X147430952Y-54809523D01*
X147478571Y-54857142D01*
X147526190Y-54952380D01*
X147526190Y-55333333D01*
X145202381Y-55433333D02*
X145916667Y-55433333D01*
X146059524Y-55480953D01*
X146154762Y-55576191D01*
X146202381Y-55719048D01*
X146202381Y-55814286D01*
X146202381Y-54957143D02*
X145202381Y-54957143D01*
X145202381Y-54576190D01*
X145250000Y-54480952D01*
X145297619Y-54433333D01*
X145392857Y-54385714D01*
X145535714Y-54385714D01*
X145630952Y-54433333D01*
X145678571Y-54480952D01*
X145726190Y-54576190D01*
X145726190Y-54957143D01*
X146202381Y-53433333D02*
X146202381Y-54004762D01*
X146202381Y-53719048D02*
X145202381Y-53719048D01*
X145345238Y-53814286D01*
X145440476Y-53909524D01*
X145488095Y-54004762D01*
X149152381Y-59854761D02*
X149866667Y-59854761D01*
X150009524Y-59902381D01*
X150104762Y-59997619D01*
X150152381Y-60140476D01*
X150152381Y-60235714D01*
X149152381Y-59378571D02*
X149961905Y-59378571D01*
X150057143Y-59330952D01*
X150104762Y-59283333D01*
X150152381Y-59188095D01*
X150152381Y-58997618D01*
X150104762Y-58902380D01*
X150057143Y-58854761D01*
X149961905Y-58807142D01*
X149152381Y-58807142D01*
X150152381Y-58330952D02*
X149152381Y-58330952D01*
X149866667Y-57997618D01*
X149152381Y-57664285D01*
X150152381Y-57664285D01*
X150152381Y-57188095D02*
X149152381Y-57188095D01*
X149152381Y-56807142D01*
X149200000Y-56711904D01*
X149247619Y-56664285D01*
X149342857Y-56616666D01*
X149485714Y-56616666D01*
X149580952Y-56664285D01*
X149628571Y-56711904D01*
X149676190Y-56807142D01*
X149676190Y-57188095D01*
X149628571Y-56188095D02*
X149628571Y-55854761D01*
X150152381Y-55711904D02*
X150152381Y-56188095D01*
X149152381Y-56188095D01*
X149152381Y-55711904D01*
X150152381Y-54711904D02*
X149676190Y-55045238D01*
X150152381Y-55283333D02*
X149152381Y-55283333D01*
X149152381Y-54902380D01*
X149200000Y-54807142D01*
X149247619Y-54759523D01*
X149342857Y-54711904D01*
X149485714Y-54711904D01*
X149580952Y-54759523D01*
X149628571Y-54807142D01*
X149676190Y-54902380D01*
X149676190Y-55283333D01*
X147402381Y-55233333D02*
X148116667Y-55233333D01*
X148259524Y-55280953D01*
X148354762Y-55376191D01*
X148402381Y-55519048D01*
X148402381Y-55614286D01*
X148402381Y-54757143D02*
X147402381Y-54757143D01*
X147402381Y-54376190D01*
X147450000Y-54280952D01*
X147497619Y-54233333D01*
X147592857Y-54185714D01*
X147735714Y-54185714D01*
X147830952Y-54233333D01*
X147878571Y-54280952D01*
X147926190Y-54376190D01*
X147926190Y-54757143D01*
X147497619Y-53804762D02*
X147450000Y-53757143D01*
X147402381Y-53661905D01*
X147402381Y-53423809D01*
X147450000Y-53328571D01*
X147497619Y-53280952D01*
X147592857Y-53233333D01*
X147688095Y-53233333D01*
X147830952Y-53280952D01*
X148402381Y-53852381D01*
X148402381Y-53233333D01*
X63657143Y-55202381D02*
X63752382Y-55202381D01*
X63847620Y-55250000D01*
X63895239Y-55297619D01*
X63942858Y-55392857D01*
X63990477Y-55583333D01*
X63990477Y-55821429D01*
X63942858Y-56011905D01*
X63895239Y-56107143D01*
X63847620Y-56154762D01*
X63752382Y-56202381D01*
X63657143Y-56202381D01*
X63561905Y-56154762D01*
X63514286Y-56107143D01*
X63466667Y-56011905D01*
X63419048Y-55821429D01*
X63419048Y-55583333D01*
X63466667Y-55392857D01*
X63514286Y-55297619D01*
X63561905Y-55250000D01*
X63657143Y-55202381D01*
X64419048Y-56107143D02*
X64466667Y-56154762D01*
X64419048Y-56202381D01*
X64371429Y-56154762D01*
X64419048Y-56107143D01*
X64419048Y-56202381D01*
X65419048Y-56202381D02*
X64847619Y-56202381D01*
X65133333Y-56202381D02*
X65133333Y-55202381D01*
X65038095Y-55345238D01*
X64942857Y-55440476D01*
X64847619Y-55488095D01*
X66276191Y-55535714D02*
X66276191Y-56202381D01*
X65847619Y-55535714D02*
X65847619Y-56059524D01*
X65895238Y-56154762D01*
X65990476Y-56202381D01*
X66133334Y-56202381D01*
X66228572Y-56154762D01*
X66276191Y-56107143D01*
X67085715Y-55678571D02*
X66752381Y-55678571D01*
X66752381Y-56202381D02*
X66752381Y-55202381D01*
X67228572Y-55202381D01*
X65133334Y-52857143D02*
X65085715Y-52904762D01*
X64942858Y-52952381D01*
X64847620Y-52952381D01*
X64704762Y-52904762D01*
X64609524Y-52809524D01*
X64561905Y-52714286D01*
X64514286Y-52523810D01*
X64514286Y-52380952D01*
X64561905Y-52190476D01*
X64609524Y-52095238D01*
X64704762Y-52000000D01*
X64847620Y-51952381D01*
X64942858Y-51952381D01*
X65085715Y-52000000D01*
X65133334Y-52047619D01*
X65514286Y-52047619D02*
X65561905Y-52000000D01*
X65657143Y-51952381D01*
X65895239Y-51952381D01*
X65990477Y-52000000D01*
X66038096Y-52047619D01*
X66085715Y-52142857D01*
X66085715Y-52238095D01*
X66038096Y-52380952D01*
X65466667Y-52952381D01*
X66085715Y-52952381D01*
X63657143Y-57002381D02*
X63752382Y-57002381D01*
X63847620Y-57050000D01*
X63895239Y-57097619D01*
X63942858Y-57192857D01*
X63990477Y-57383333D01*
X63990477Y-57621429D01*
X63942858Y-57811905D01*
X63895239Y-57907143D01*
X63847620Y-57954762D01*
X63752382Y-58002381D01*
X63657143Y-58002381D01*
X63561905Y-57954762D01*
X63514286Y-57907143D01*
X63466667Y-57811905D01*
X63419048Y-57621429D01*
X63419048Y-57383333D01*
X63466667Y-57192857D01*
X63514286Y-57097619D01*
X63561905Y-57050000D01*
X63657143Y-57002381D01*
X64419048Y-57907143D02*
X64466667Y-57954762D01*
X64419048Y-58002381D01*
X64371429Y-57954762D01*
X64419048Y-57907143D01*
X64419048Y-58002381D01*
X65419048Y-58002381D02*
X64847619Y-58002381D01*
X65133333Y-58002381D02*
X65133333Y-57002381D01*
X65038095Y-57145238D01*
X64942857Y-57240476D01*
X64847619Y-57288095D01*
X66276191Y-57335714D02*
X66276191Y-58002381D01*
X65847619Y-57335714D02*
X65847619Y-57859524D01*
X65895238Y-57954762D01*
X65990476Y-58002381D01*
X66133334Y-58002381D01*
X66228572Y-57954762D01*
X66276191Y-57907143D01*
X67085715Y-57478571D02*
X66752381Y-57478571D01*
X66752381Y-58002381D02*
X66752381Y-57002381D01*
X67228572Y-57002381D01*
X65133334Y-54657143D02*
X65085715Y-54704762D01*
X64942858Y-54752381D01*
X64847620Y-54752381D01*
X64704762Y-54704762D01*
X64609524Y-54609524D01*
X64561905Y-54514286D01*
X64514286Y-54323810D01*
X64514286Y-54180952D01*
X64561905Y-53990476D01*
X64609524Y-53895238D01*
X64704762Y-53800000D01*
X64847620Y-53752381D01*
X64942858Y-53752381D01*
X65085715Y-53800000D01*
X65133334Y-53847619D01*
X65466667Y-53752381D02*
X66085715Y-53752381D01*
X65752381Y-54133333D01*
X65895239Y-54133333D01*
X65990477Y-54180952D01*
X66038096Y-54228571D01*
X66085715Y-54323810D01*
X66085715Y-54561905D01*
X66038096Y-54657143D01*
X65990477Y-54704762D01*
X65895239Y-54752381D01*
X65609524Y-54752381D01*
X65514286Y-54704762D01*
X65466667Y-54657143D01*
X54180953Y-89235381D02*
X53609524Y-89235381D01*
X53895238Y-89235381D02*
X53895238Y-88235381D01*
X53800000Y-88378238D01*
X53704762Y-88473476D01*
X53609524Y-88521095D01*
X54609524Y-89140143D02*
X54657143Y-89187762D01*
X54609524Y-89235381D01*
X54561905Y-89187762D01*
X54609524Y-89140143D01*
X54609524Y-89235381D01*
X55228571Y-88663952D02*
X55133333Y-88616333D01*
X55085714Y-88568714D01*
X55038095Y-88473476D01*
X55038095Y-88425857D01*
X55085714Y-88330619D01*
X55133333Y-88283000D01*
X55228571Y-88235381D01*
X55419048Y-88235381D01*
X55514286Y-88283000D01*
X55561905Y-88330619D01*
X55609524Y-88425857D01*
X55609524Y-88473476D01*
X55561905Y-88568714D01*
X55514286Y-88616333D01*
X55419048Y-88663952D01*
X55228571Y-88663952D01*
X55133333Y-88711571D01*
X55085714Y-88759190D01*
X55038095Y-88854429D01*
X55038095Y-89044905D01*
X55085714Y-89140143D01*
X55133333Y-89187762D01*
X55228571Y-89235381D01*
X55419048Y-89235381D01*
X55514286Y-89187762D01*
X55561905Y-89140143D01*
X55609524Y-89044905D01*
X55609524Y-88854429D01*
X55561905Y-88759190D01*
X55514286Y-88711571D01*
X55419048Y-88663952D01*
X56038095Y-89235381D02*
X56038095Y-88568714D01*
X56038095Y-88663952D02*
X56085714Y-88616333D01*
X56180952Y-88568714D01*
X56323810Y-88568714D01*
X56419048Y-88616333D01*
X56466667Y-88711571D01*
X56466667Y-89235381D01*
X56466667Y-88711571D02*
X56514286Y-88616333D01*
X56609524Y-88568714D01*
X56752381Y-88568714D01*
X56847619Y-88616333D01*
X56895238Y-88711571D01*
X56895238Y-89235381D01*
X57371428Y-89235381D02*
X57371428Y-88235381D01*
X57371428Y-88711571D02*
X57942857Y-88711571D01*
X57942857Y-89235381D02*
X57942857Y-88235381D01*
X89152381Y-59200000D02*
X88152381Y-59200000D01*
X88152381Y-58961905D01*
X88200000Y-58819047D01*
X88295238Y-58723809D01*
X88390476Y-58676190D01*
X88580952Y-58628571D01*
X88723810Y-58628571D01*
X88914286Y-58676190D01*
X89009524Y-58723809D01*
X89104762Y-58819047D01*
X89152381Y-58961905D01*
X89152381Y-59200000D01*
X88247619Y-58247619D02*
X88200000Y-58200000D01*
X88152381Y-58104762D01*
X88152381Y-57866666D01*
X88200000Y-57771428D01*
X88247619Y-57723809D01*
X88342857Y-57676190D01*
X88438095Y-57676190D01*
X88580952Y-57723809D01*
X89152381Y-58295238D01*
X89152381Y-57676190D01*
X88485714Y-56819047D02*
X89152381Y-56819047D01*
X88104762Y-57057143D02*
X88819048Y-57295238D01*
X88819048Y-56676190D01*
X88152381Y-56438095D02*
X89152381Y-56104762D01*
X88152381Y-55771428D01*
X88247619Y-55485714D02*
X88200000Y-55438095D01*
X88152381Y-55342857D01*
X88152381Y-55104761D01*
X88200000Y-55009523D01*
X88247619Y-54961904D01*
X88342857Y-54914285D01*
X88438095Y-54914285D01*
X88580952Y-54961904D01*
X89152381Y-55533333D01*
X89152381Y-54914285D01*
X88247619Y-54533333D02*
X88200000Y-54485714D01*
X88152381Y-54390476D01*
X88152381Y-54152380D01*
X88200000Y-54057142D01*
X88247619Y-54009523D01*
X88342857Y-53961904D01*
X88438095Y-53961904D01*
X88580952Y-54009523D01*
X89152381Y-54580952D01*
X89152381Y-53961904D01*
X88628571Y-53199999D02*
X88628571Y-53533333D01*
X89152381Y-53533333D02*
X88152381Y-53533333D01*
X88152381Y-53057142D01*
X88152381Y-52771428D02*
X88152381Y-52152380D01*
X88533333Y-52485714D01*
X88533333Y-52342856D01*
X88580952Y-52247618D01*
X88628571Y-52199999D01*
X88723810Y-52152380D01*
X88961905Y-52152380D01*
X89057143Y-52199999D01*
X89104762Y-52247618D01*
X89152381Y-52342856D01*
X89152381Y-52628571D01*
X89104762Y-52723809D01*
X89057143Y-52771428D01*
X45976191Y-47357143D02*
X45928572Y-47404762D01*
X45785715Y-47452381D01*
X45690477Y-47452381D01*
X45547619Y-47404762D01*
X45452381Y-47309524D01*
X45404762Y-47214286D01*
X45357143Y-47023810D01*
X45357143Y-46880952D01*
X45404762Y-46690476D01*
X45452381Y-46595238D01*
X45547619Y-46500000D01*
X45690477Y-46452381D01*
X45785715Y-46452381D01*
X45928572Y-46500000D01*
X45976191Y-46547619D01*
X46595238Y-46452381D02*
X46785715Y-46452381D01*
X46880953Y-46500000D01*
X46976191Y-46595238D01*
X47023810Y-46785714D01*
X47023810Y-47119048D01*
X46976191Y-47309524D01*
X46880953Y-47404762D01*
X46785715Y-47452381D01*
X46595238Y-47452381D01*
X46500000Y-47404762D01*
X46404762Y-47309524D01*
X46357143Y-47119048D01*
X46357143Y-46785714D01*
X46404762Y-46595238D01*
X46500000Y-46500000D01*
X46595238Y-46452381D01*
X47452381Y-47452381D02*
X47452381Y-46452381D01*
X48023810Y-47452381D01*
X48023810Y-46452381D01*
X48500000Y-47452381D02*
X48500000Y-46452381D01*
X49071429Y-47452381D01*
X49071429Y-46452381D01*
X49309524Y-47547619D02*
X50071429Y-47547619D01*
X50500000Y-46452381D02*
X50595239Y-46452381D01*
X50690477Y-46500000D01*
X50738096Y-46547619D01*
X50785715Y-46642857D01*
X50833334Y-46833333D01*
X50833334Y-47071429D01*
X50785715Y-47261905D01*
X50738096Y-47357143D01*
X50690477Y-47404762D01*
X50595239Y-47452381D01*
X50500000Y-47452381D01*
X50404762Y-47404762D01*
X50357143Y-47357143D01*
X50309524Y-47261905D01*
X50261905Y-47071429D01*
X50261905Y-46833333D01*
X50309524Y-46642857D01*
X50357143Y-46547619D01*
X50404762Y-46500000D01*
X50500000Y-46452381D01*
X51785715Y-47452381D02*
X51214286Y-47452381D01*
X51500000Y-47452381D02*
X51500000Y-46452381D01*
X51404762Y-46595238D01*
X51309524Y-46690476D01*
X51214286Y-46738095D01*
X52119048Y-46452381D02*
X52785715Y-47452381D01*
X52785715Y-46452381D02*
X52119048Y-47452381D01*
X53357143Y-46452381D02*
X53452382Y-46452381D01*
X53547620Y-46500000D01*
X53595239Y-46547619D01*
X53642858Y-46642857D01*
X53690477Y-46833333D01*
X53690477Y-47071429D01*
X53642858Y-47261905D01*
X53595239Y-47357143D01*
X53547620Y-47404762D01*
X53452382Y-47452381D01*
X53357143Y-47452381D01*
X53261905Y-47404762D01*
X53214286Y-47357143D01*
X53166667Y-47261905D01*
X53119048Y-47071429D01*
X53119048Y-46833333D01*
X53166667Y-46642857D01*
X53214286Y-46547619D01*
X53261905Y-46500000D01*
X53357143Y-46452381D01*
X54642858Y-47452381D02*
X54071429Y-47452381D01*
X54357143Y-47452381D02*
X54357143Y-46452381D01*
X54261905Y-46595238D01*
X54166667Y-46690476D01*
X54071429Y-46738095D01*
X145976191Y-47357143D02*
X145928572Y-47404762D01*
X145785715Y-47452381D01*
X145690477Y-47452381D01*
X145547619Y-47404762D01*
X145452381Y-47309524D01*
X145404762Y-47214286D01*
X145357143Y-47023810D01*
X145357143Y-46880952D01*
X145404762Y-46690476D01*
X145452381Y-46595238D01*
X145547619Y-46500000D01*
X145690477Y-46452381D01*
X145785715Y-46452381D01*
X145928572Y-46500000D01*
X145976191Y-46547619D01*
X146595238Y-46452381D02*
X146785715Y-46452381D01*
X146880953Y-46500000D01*
X146976191Y-46595238D01*
X147023810Y-46785714D01*
X147023810Y-47119048D01*
X146976191Y-47309524D01*
X146880953Y-47404762D01*
X146785715Y-47452381D01*
X146595238Y-47452381D01*
X146500000Y-47404762D01*
X146404762Y-47309524D01*
X146357143Y-47119048D01*
X146357143Y-46785714D01*
X146404762Y-46595238D01*
X146500000Y-46500000D01*
X146595238Y-46452381D01*
X147452381Y-47452381D02*
X147452381Y-46452381D01*
X148023810Y-47452381D01*
X148023810Y-46452381D01*
X148500000Y-47452381D02*
X148500000Y-46452381D01*
X149071429Y-47452381D01*
X149071429Y-46452381D01*
X149309524Y-47547619D02*
X150071429Y-47547619D01*
X150500000Y-46452381D02*
X150595239Y-46452381D01*
X150690477Y-46500000D01*
X150738096Y-46547619D01*
X150785715Y-46642857D01*
X150833334Y-46833333D01*
X150833334Y-47071429D01*
X150785715Y-47261905D01*
X150738096Y-47357143D01*
X150690477Y-47404762D01*
X150595239Y-47452381D01*
X150500000Y-47452381D01*
X150404762Y-47404762D01*
X150357143Y-47357143D01*
X150309524Y-47261905D01*
X150261905Y-47071429D01*
X150261905Y-46833333D01*
X150309524Y-46642857D01*
X150357143Y-46547619D01*
X150404762Y-46500000D01*
X150500000Y-46452381D01*
X151785715Y-47452381D02*
X151214286Y-47452381D01*
X151500000Y-47452381D02*
X151500000Y-46452381D01*
X151404762Y-46595238D01*
X151309524Y-46690476D01*
X151214286Y-46738095D01*
X152119048Y-46452381D02*
X152785715Y-47452381D01*
X152785715Y-46452381D02*
X152119048Y-47452381D01*
X153357143Y-46452381D02*
X153452382Y-46452381D01*
X153547620Y-46500000D01*
X153595239Y-46547619D01*
X153642858Y-46642857D01*
X153690477Y-46833333D01*
X153690477Y-47071429D01*
X153642858Y-47261905D01*
X153595239Y-47357143D01*
X153547620Y-47404762D01*
X153452382Y-47452381D01*
X153357143Y-47452381D01*
X153261905Y-47404762D01*
X153214286Y-47357143D01*
X153166667Y-47261905D01*
X153119048Y-47071429D01*
X153119048Y-46833333D01*
X153166667Y-46642857D01*
X153214286Y-46547619D01*
X153261905Y-46500000D01*
X153357143Y-46452381D01*
X154642858Y-47452381D02*
X154071429Y-47452381D01*
X154357143Y-47452381D02*
X154357143Y-46452381D01*
X154261905Y-46595238D01*
X154166667Y-46690476D01*
X154071429Y-46738095D01*
X145976191Y-89357143D02*
X145928572Y-89404762D01*
X145785715Y-89452381D01*
X145690477Y-89452381D01*
X145547619Y-89404762D01*
X145452381Y-89309524D01*
X145404762Y-89214286D01*
X145357143Y-89023810D01*
X145357143Y-88880952D01*
X145404762Y-88690476D01*
X145452381Y-88595238D01*
X145547619Y-88500000D01*
X145690477Y-88452381D01*
X145785715Y-88452381D01*
X145928572Y-88500000D01*
X145976191Y-88547619D01*
X146595238Y-88452381D02*
X146785715Y-88452381D01*
X146880953Y-88500000D01*
X146976191Y-88595238D01*
X147023810Y-88785714D01*
X147023810Y-89119048D01*
X146976191Y-89309524D01*
X146880953Y-89404762D01*
X146785715Y-89452381D01*
X146595238Y-89452381D01*
X146500000Y-89404762D01*
X146404762Y-89309524D01*
X146357143Y-89119048D01*
X146357143Y-88785714D01*
X146404762Y-88595238D01*
X146500000Y-88500000D01*
X146595238Y-88452381D01*
X147452381Y-89452381D02*
X147452381Y-88452381D01*
X148023810Y-89452381D01*
X148023810Y-88452381D01*
X148500000Y-89452381D02*
X148500000Y-88452381D01*
X149071429Y-89452381D01*
X149071429Y-88452381D01*
X149309524Y-89547619D02*
X150071429Y-89547619D01*
X150500000Y-88452381D02*
X150595239Y-88452381D01*
X150690477Y-88500000D01*
X150738096Y-88547619D01*
X150785715Y-88642857D01*
X150833334Y-88833333D01*
X150833334Y-89071429D01*
X150785715Y-89261905D01*
X150738096Y-89357143D01*
X150690477Y-89404762D01*
X150595239Y-89452381D01*
X150500000Y-89452381D01*
X150404762Y-89404762D01*
X150357143Y-89357143D01*
X150309524Y-89261905D01*
X150261905Y-89071429D01*
X150261905Y-88833333D01*
X150309524Y-88642857D01*
X150357143Y-88547619D01*
X150404762Y-88500000D01*
X150500000Y-88452381D01*
X151785715Y-89452381D02*
X151214286Y-89452381D01*
X151500000Y-89452381D02*
X151500000Y-88452381D01*
X151404762Y-88595238D01*
X151309524Y-88690476D01*
X151214286Y-88738095D01*
X152119048Y-88452381D02*
X152785715Y-89452381D01*
X152785715Y-88452381D02*
X152119048Y-89452381D01*
X153357143Y-88452381D02*
X153452382Y-88452381D01*
X153547620Y-88500000D01*
X153595239Y-88547619D01*
X153642858Y-88642857D01*
X153690477Y-88833333D01*
X153690477Y-89071429D01*
X153642858Y-89261905D01*
X153595239Y-89357143D01*
X153547620Y-89404762D01*
X153452382Y-89452381D01*
X153357143Y-89452381D01*
X153261905Y-89404762D01*
X153214286Y-89357143D01*
X153166667Y-89261905D01*
X153119048Y-89071429D01*
X153119048Y-88833333D01*
X153166667Y-88642857D01*
X153214286Y-88547619D01*
X153261905Y-88500000D01*
X153357143Y-88452381D01*
X154642858Y-89452381D02*
X154071429Y-89452381D01*
X154357143Y-89452381D02*
X154357143Y-88452381D01*
X154261905Y-88595238D01*
X154166667Y-88690476D01*
X154071429Y-88738095D01*
X63976191Y-89357143D02*
X63928572Y-89404762D01*
X63785715Y-89452381D01*
X63690477Y-89452381D01*
X63547619Y-89404762D01*
X63452381Y-89309524D01*
X63404762Y-89214286D01*
X63357143Y-89023810D01*
X63357143Y-88880952D01*
X63404762Y-88690476D01*
X63452381Y-88595238D01*
X63547619Y-88500000D01*
X63690477Y-88452381D01*
X63785715Y-88452381D01*
X63928572Y-88500000D01*
X63976191Y-88547619D01*
X64595238Y-88452381D02*
X64785715Y-88452381D01*
X64880953Y-88500000D01*
X64976191Y-88595238D01*
X65023810Y-88785714D01*
X65023810Y-89119048D01*
X64976191Y-89309524D01*
X64880953Y-89404762D01*
X64785715Y-89452381D01*
X64595238Y-89452381D01*
X64500000Y-89404762D01*
X64404762Y-89309524D01*
X64357143Y-89119048D01*
X64357143Y-88785714D01*
X64404762Y-88595238D01*
X64500000Y-88500000D01*
X64595238Y-88452381D01*
X65452381Y-89452381D02*
X65452381Y-88452381D01*
X66023810Y-89452381D01*
X66023810Y-88452381D01*
X66500000Y-89452381D02*
X66500000Y-88452381D01*
X67071429Y-89452381D01*
X67071429Y-88452381D01*
X67309524Y-89547619D02*
X68071429Y-89547619D01*
X68500000Y-88452381D02*
X68595239Y-88452381D01*
X68690477Y-88500000D01*
X68738096Y-88547619D01*
X68785715Y-88642857D01*
X68833334Y-88833333D01*
X68833334Y-89071429D01*
X68785715Y-89261905D01*
X68738096Y-89357143D01*
X68690477Y-89404762D01*
X68595239Y-89452381D01*
X68500000Y-89452381D01*
X68404762Y-89404762D01*
X68357143Y-89357143D01*
X68309524Y-89261905D01*
X68261905Y-89071429D01*
X68261905Y-88833333D01*
X68309524Y-88642857D01*
X68357143Y-88547619D01*
X68404762Y-88500000D01*
X68500000Y-88452381D01*
X69785715Y-89452381D02*
X69214286Y-89452381D01*
X69500000Y-89452381D02*
X69500000Y-88452381D01*
X69404762Y-88595238D01*
X69309524Y-88690476D01*
X69214286Y-88738095D01*
X70119048Y-88452381D02*
X70785715Y-89452381D01*
X70785715Y-88452381D02*
X70119048Y-89452381D01*
X71357143Y-88452381D02*
X71452382Y-88452381D01*
X71547620Y-88500000D01*
X71595239Y-88547619D01*
X71642858Y-88642857D01*
X71690477Y-88833333D01*
X71690477Y-89071429D01*
X71642858Y-89261905D01*
X71595239Y-89357143D01*
X71547620Y-89404762D01*
X71452382Y-89452381D01*
X71357143Y-89452381D01*
X71261905Y-89404762D01*
X71214286Y-89357143D01*
X71166667Y-89261905D01*
X71119048Y-89071429D01*
X71119048Y-88833333D01*
X71166667Y-88642857D01*
X71214286Y-88547619D01*
X71261905Y-88500000D01*
X71357143Y-88452381D01*
X72642858Y-89452381D02*
X72071429Y-89452381D01*
X72357143Y-89452381D02*
X72357143Y-88452381D01*
X72261905Y-88595238D01*
X72166667Y-88690476D01*
X72071429Y-88738095D01*
M02*
