G04 #@! TF.FileFunction,Legend,Top*
%FSLAX46Y46*%
G04 Gerber Fmt 4.6, Leading zero omitted, Abs format (unit mm)*
G04 Created by KiCad (PCBNEW 4.0.1-stable) date 2017-04-28 7:38:59 AM*
%MOMM*%
G01*
G04 APERTURE LIST*
%ADD10C,0.100000*%
%ADD11C,0.300000*%
%ADD12C,0.200000*%
%ADD13C,0.127000*%
%ADD14C,0.150000*%
%ADD15C,0.066040*%
%ADD16C,0.120000*%
%ADD17C,0.010000*%
%ADD18C,0.101600*%
G04 APERTURE END LIST*
D10*
D11*
X50357143Y-52500000D02*
X50214286Y-52428571D01*
X50000000Y-52428571D01*
X49785715Y-52500000D01*
X49642857Y-52642857D01*
X49571429Y-52785714D01*
X49500000Y-53071429D01*
X49500000Y-53285714D01*
X49571429Y-53571429D01*
X49642857Y-53714286D01*
X49785715Y-53857143D01*
X50000000Y-53928571D01*
X50142857Y-53928571D01*
X50357143Y-53857143D01*
X50428572Y-53785714D01*
X50428572Y-53285714D01*
X50142857Y-53285714D01*
X51071429Y-53928571D02*
X51071429Y-52428571D01*
X51928572Y-53928571D01*
X51928572Y-52428571D01*
X52642858Y-53928571D02*
X52642858Y-52428571D01*
X53000001Y-52428571D01*
X53214286Y-52500000D01*
X53357144Y-52642857D01*
X53428572Y-52785714D01*
X53500001Y-53071429D01*
X53500001Y-53285714D01*
X53428572Y-53571429D01*
X53357144Y-53714286D01*
X53214286Y-53857143D01*
X53000001Y-53928571D01*
X52642858Y-53928571D01*
X48207144Y-48307143D02*
X49350001Y-48307143D01*
X48778572Y-48878571D02*
X48778572Y-47735714D01*
X50850001Y-48878571D02*
X49992858Y-48878571D01*
X50421430Y-48878571D02*
X50421430Y-47378571D01*
X50278573Y-47592857D01*
X50135715Y-47735714D01*
X49992858Y-47807143D01*
X51421429Y-47521429D02*
X51492858Y-47450000D01*
X51635715Y-47378571D01*
X51992858Y-47378571D01*
X52135715Y-47450000D01*
X52207144Y-47521429D01*
X52278572Y-47664286D01*
X52278572Y-47807143D01*
X52207144Y-48021429D01*
X51350001Y-48878571D01*
X52278572Y-48878571D01*
X52707143Y-47378571D02*
X53207143Y-48878571D01*
X53707143Y-47378571D01*
X111307142Y-96678571D02*
X111307142Y-95178571D01*
X111949999Y-96678571D02*
X111949999Y-95892857D01*
X111878570Y-95750000D01*
X111735713Y-95678571D01*
X111521428Y-95678571D01*
X111378570Y-95750000D01*
X111307142Y-95821429D01*
X112449999Y-95678571D02*
X113021428Y-95678571D01*
X112664285Y-95178571D02*
X112664285Y-96464286D01*
X112735713Y-96607143D01*
X112878571Y-96678571D01*
X113021428Y-96678571D01*
X113307142Y-95678571D02*
X113878571Y-95678571D01*
X113521428Y-95178571D02*
X113521428Y-96464286D01*
X113592856Y-96607143D01*
X113735714Y-96678571D01*
X113878571Y-96678571D01*
X114378571Y-95678571D02*
X114378571Y-97178571D01*
X114378571Y-95750000D02*
X114521428Y-95678571D01*
X114807142Y-95678571D01*
X114949999Y-95750000D01*
X115021428Y-95821429D01*
X115092857Y-95964286D01*
X115092857Y-96392857D01*
X115021428Y-96535714D01*
X114949999Y-96607143D01*
X114807142Y-96678571D01*
X114521428Y-96678571D01*
X114378571Y-96607143D01*
X115735714Y-96535714D02*
X115807142Y-96607143D01*
X115735714Y-96678571D01*
X115664285Y-96607143D01*
X115735714Y-96535714D01*
X115735714Y-96678571D01*
X115735714Y-95750000D02*
X115807142Y-95821429D01*
X115735714Y-95892857D01*
X115664285Y-95821429D01*
X115735714Y-95750000D01*
X115735714Y-95892857D01*
X117521428Y-95107143D02*
X116235714Y-97035714D01*
X119092857Y-95107143D02*
X117807143Y-97035714D01*
X119521429Y-96607143D02*
X119664286Y-96678571D01*
X119950001Y-96678571D01*
X120092858Y-96607143D01*
X120164286Y-96464286D01*
X120164286Y-96392857D01*
X120092858Y-96250000D01*
X119950001Y-96178571D01*
X119735715Y-96178571D01*
X119592858Y-96107143D01*
X119521429Y-95964286D01*
X119521429Y-95892857D01*
X119592858Y-95750000D01*
X119735715Y-95678571D01*
X119950001Y-95678571D01*
X120092858Y-95750000D01*
X121450001Y-96607143D02*
X121307144Y-96678571D01*
X121021430Y-96678571D01*
X120878572Y-96607143D01*
X120807144Y-96535714D01*
X120735715Y-96392857D01*
X120735715Y-95964286D01*
X120807144Y-95821429D01*
X120878572Y-95750000D01*
X121021430Y-95678571D01*
X121307144Y-95678571D01*
X121450001Y-95750000D01*
X122092858Y-96678571D02*
X122092858Y-95678571D01*
X122092858Y-95178571D02*
X122021429Y-95250000D01*
X122092858Y-95321429D01*
X122164286Y-95250000D01*
X122092858Y-95178571D01*
X122092858Y-95321429D01*
X122807144Y-96107143D02*
X123950001Y-96107143D01*
X124664287Y-96678571D02*
X124664287Y-95178571D01*
X124664287Y-95750000D02*
X124807144Y-95678571D01*
X125092858Y-95678571D01*
X125235715Y-95750000D01*
X125307144Y-95821429D01*
X125378573Y-95964286D01*
X125378573Y-96392857D01*
X125307144Y-96535714D01*
X125235715Y-96607143D01*
X125092858Y-96678571D01*
X124807144Y-96678571D01*
X124664287Y-96607143D01*
X126235716Y-96678571D02*
X126092858Y-96607143D01*
X126021430Y-96535714D01*
X125950001Y-96392857D01*
X125950001Y-95964286D01*
X126021430Y-95821429D01*
X126092858Y-95750000D01*
X126235716Y-95678571D01*
X126450001Y-95678571D01*
X126592858Y-95750000D01*
X126664287Y-95821429D01*
X126735716Y-95964286D01*
X126735716Y-96392857D01*
X126664287Y-96535714D01*
X126592858Y-96607143D01*
X126450001Y-96678571D01*
X126235716Y-96678571D01*
X127164287Y-95678571D02*
X127735716Y-95678571D01*
X127378573Y-95178571D02*
X127378573Y-96464286D01*
X127450001Y-96607143D01*
X127592859Y-96678571D01*
X127735716Y-96678571D01*
X128164287Y-96607143D02*
X128307144Y-96678571D01*
X128592859Y-96678571D01*
X128735716Y-96607143D01*
X128807144Y-96464286D01*
X128807144Y-96392857D01*
X128735716Y-96250000D01*
X128592859Y-96178571D01*
X128378573Y-96178571D01*
X128235716Y-96107143D01*
X128164287Y-95964286D01*
X128164287Y-95892857D01*
X128235716Y-95750000D01*
X128378573Y-95678571D01*
X128592859Y-95678571D01*
X128735716Y-95750000D01*
X129450002Y-96535714D02*
X129521430Y-96607143D01*
X129450002Y-96678571D01*
X129378573Y-96607143D01*
X129450002Y-96535714D01*
X129450002Y-96678571D01*
X130807145Y-96607143D02*
X130664288Y-96678571D01*
X130378574Y-96678571D01*
X130235716Y-96607143D01*
X130164288Y-96535714D01*
X130092859Y-96392857D01*
X130092859Y-95964286D01*
X130164288Y-95821429D01*
X130235716Y-95750000D01*
X130378574Y-95678571D01*
X130664288Y-95678571D01*
X130807145Y-95750000D01*
X131664288Y-96678571D02*
X131521430Y-96607143D01*
X131450002Y-96535714D01*
X131378573Y-96392857D01*
X131378573Y-95964286D01*
X131450002Y-95821429D01*
X131521430Y-95750000D01*
X131664288Y-95678571D01*
X131878573Y-95678571D01*
X132021430Y-95750000D01*
X132092859Y-95821429D01*
X132164288Y-95964286D01*
X132164288Y-96392857D01*
X132092859Y-96535714D01*
X132021430Y-96607143D01*
X131878573Y-96678571D01*
X131664288Y-96678571D01*
X132807145Y-96678571D02*
X132807145Y-95678571D01*
X132807145Y-95821429D02*
X132878573Y-95750000D01*
X133021431Y-95678571D01*
X133235716Y-95678571D01*
X133378573Y-95750000D01*
X133450002Y-95892857D01*
X133450002Y-96678571D01*
X133450002Y-95892857D02*
X133521431Y-95750000D01*
X133664288Y-95678571D01*
X133878573Y-95678571D01*
X134021431Y-95750000D01*
X134092859Y-95892857D01*
X134092859Y-96678571D01*
X111485715Y-99007143D02*
X111700001Y-99078571D01*
X112057144Y-99078571D01*
X112200001Y-99007143D01*
X112271430Y-98935714D01*
X112342858Y-98792857D01*
X112342858Y-98650000D01*
X112271430Y-98507143D01*
X112200001Y-98435714D01*
X112057144Y-98364286D01*
X111771430Y-98292857D01*
X111628572Y-98221429D01*
X111557144Y-98150000D01*
X111485715Y-98007143D01*
X111485715Y-97864286D01*
X111557144Y-97721429D01*
X111628572Y-97650000D01*
X111771430Y-97578571D01*
X112128572Y-97578571D01*
X112342858Y-97650000D01*
X113628572Y-99007143D02*
X113485715Y-99078571D01*
X113200001Y-99078571D01*
X113057143Y-99007143D01*
X112985715Y-98935714D01*
X112914286Y-98792857D01*
X112914286Y-98364286D01*
X112985715Y-98221429D01*
X113057143Y-98150000D01*
X113200001Y-98078571D01*
X113485715Y-98078571D01*
X113628572Y-98150000D01*
X114271429Y-99078571D02*
X114271429Y-98078571D01*
X114271429Y-97578571D02*
X114200000Y-97650000D01*
X114271429Y-97721429D01*
X114342857Y-97650000D01*
X114271429Y-97578571D01*
X114271429Y-97721429D01*
X114985715Y-98507143D02*
X116128572Y-98507143D01*
X117342858Y-98292857D02*
X117557144Y-98364286D01*
X117628572Y-98435714D01*
X117700001Y-98578571D01*
X117700001Y-98792857D01*
X117628572Y-98935714D01*
X117557144Y-99007143D01*
X117414286Y-99078571D01*
X116842858Y-99078571D01*
X116842858Y-97578571D01*
X117342858Y-97578571D01*
X117485715Y-97650000D01*
X117557144Y-97721429D01*
X117628572Y-97864286D01*
X117628572Y-98007143D01*
X117557144Y-98150000D01*
X117485715Y-98221429D01*
X117342858Y-98292857D01*
X116842858Y-98292857D01*
X118557144Y-99078571D02*
X118414286Y-99007143D01*
X118342858Y-98935714D01*
X118271429Y-98792857D01*
X118271429Y-98364286D01*
X118342858Y-98221429D01*
X118414286Y-98150000D01*
X118557144Y-98078571D01*
X118771429Y-98078571D01*
X118914286Y-98150000D01*
X118985715Y-98221429D01*
X119057144Y-98364286D01*
X119057144Y-98792857D01*
X118985715Y-98935714D01*
X118914286Y-99007143D01*
X118771429Y-99078571D01*
X118557144Y-99078571D01*
X119485715Y-98078571D02*
X120057144Y-98078571D01*
X119700001Y-97578571D02*
X119700001Y-98864286D01*
X119771429Y-99007143D01*
X119914287Y-99078571D01*
X120057144Y-99078571D01*
X120485715Y-99007143D02*
X120628572Y-99078571D01*
X120914287Y-99078571D01*
X121057144Y-99007143D01*
X121128572Y-98864286D01*
X121128572Y-98792857D01*
X121057144Y-98650000D01*
X120914287Y-98578571D01*
X120700001Y-98578571D01*
X120557144Y-98507143D01*
X120485715Y-98364286D01*
X120485715Y-98292857D01*
X120557144Y-98150000D01*
X120700001Y-98078571D01*
X120914287Y-98078571D01*
X121057144Y-98150000D01*
X122914287Y-99078571D02*
X122914287Y-97578571D01*
X123628573Y-98078571D02*
X123628573Y-99078571D01*
X123628573Y-98221429D02*
X123700001Y-98150000D01*
X123842859Y-98078571D01*
X124057144Y-98078571D01*
X124200001Y-98150000D01*
X124271430Y-98292857D01*
X124271430Y-99078571D01*
X125628573Y-99007143D02*
X125485716Y-99078571D01*
X125200002Y-99078571D01*
X125057144Y-99007143D01*
X124985716Y-98935714D01*
X124914287Y-98792857D01*
X124914287Y-98364286D01*
X124985716Y-98221429D01*
X125057144Y-98150000D01*
X125200002Y-98078571D01*
X125485716Y-98078571D01*
X125628573Y-98150000D01*
X126271430Y-98935714D02*
X126342858Y-99007143D01*
X126271430Y-99078571D01*
X126200001Y-99007143D01*
X126271430Y-98935714D01*
X126271430Y-99078571D01*
X127057144Y-99007143D02*
X127057144Y-99078571D01*
X126985716Y-99221429D01*
X126914287Y-99292857D01*
X128771430Y-97721429D02*
X128842859Y-97650000D01*
X128985716Y-97578571D01*
X129342859Y-97578571D01*
X129485716Y-97650000D01*
X129557145Y-97721429D01*
X129628573Y-97864286D01*
X129628573Y-98007143D01*
X129557145Y-98221429D01*
X128700002Y-99078571D01*
X129628573Y-99078571D01*
X130557144Y-97578571D02*
X130700001Y-97578571D01*
X130842858Y-97650000D01*
X130914287Y-97721429D01*
X130985716Y-97864286D01*
X131057144Y-98150000D01*
X131057144Y-98507143D01*
X130985716Y-98792857D01*
X130914287Y-98935714D01*
X130842858Y-99007143D01*
X130700001Y-99078571D01*
X130557144Y-99078571D01*
X130414287Y-99007143D01*
X130342858Y-98935714D01*
X130271430Y-98792857D01*
X130200001Y-98507143D01*
X130200001Y-98150000D01*
X130271430Y-97864286D01*
X130342858Y-97721429D01*
X130414287Y-97650000D01*
X130557144Y-97578571D01*
X132485715Y-99078571D02*
X131628572Y-99078571D01*
X132057144Y-99078571D02*
X132057144Y-97578571D01*
X131914287Y-97792857D01*
X131771429Y-97935714D01*
X131628572Y-98007143D01*
X132985715Y-97578571D02*
X133985715Y-97578571D01*
X133342858Y-99078571D01*
X71585714Y-91907643D02*
X71800000Y-91979071D01*
X72157143Y-91979071D01*
X72300000Y-91907643D01*
X72371429Y-91836214D01*
X72442857Y-91693357D01*
X72442857Y-91550500D01*
X72371429Y-91407643D01*
X72300000Y-91336214D01*
X72157143Y-91264786D01*
X71871429Y-91193357D01*
X71728571Y-91121929D01*
X71657143Y-91050500D01*
X71585714Y-90907643D01*
X71585714Y-90764786D01*
X71657143Y-90621929D01*
X71728571Y-90550500D01*
X71871429Y-90479071D01*
X72228571Y-90479071D01*
X72442857Y-90550500D01*
X72942857Y-90979071D02*
X73228571Y-91979071D01*
X73514285Y-91264786D01*
X73800000Y-91979071D01*
X74085714Y-90979071D01*
X74657143Y-91979071D02*
X74657143Y-90979071D01*
X74657143Y-90479071D02*
X74585714Y-90550500D01*
X74657143Y-90621929D01*
X74728571Y-90550500D01*
X74657143Y-90479071D01*
X74657143Y-90621929D01*
X75157143Y-90979071D02*
X75728572Y-90979071D01*
X75371429Y-90479071D02*
X75371429Y-91764786D01*
X75442857Y-91907643D01*
X75585715Y-91979071D01*
X75728572Y-91979071D01*
X76871429Y-91907643D02*
X76728572Y-91979071D01*
X76442858Y-91979071D01*
X76300000Y-91907643D01*
X76228572Y-91836214D01*
X76157143Y-91693357D01*
X76157143Y-91264786D01*
X76228572Y-91121929D01*
X76300000Y-91050500D01*
X76442858Y-90979071D01*
X76728572Y-90979071D01*
X76871429Y-91050500D01*
X77514286Y-91979071D02*
X77514286Y-90479071D01*
X78157143Y-91979071D02*
X78157143Y-91193357D01*
X78085714Y-91050500D01*
X77942857Y-90979071D01*
X77728572Y-90979071D01*
X77585714Y-91050500D01*
X77514286Y-91121929D01*
X78871429Y-91979071D02*
X78871429Y-90979071D01*
X78871429Y-90479071D02*
X78800000Y-90550500D01*
X78871429Y-90621929D01*
X78942857Y-90550500D01*
X78871429Y-90479071D01*
X78871429Y-90621929D01*
X79585715Y-90979071D02*
X79585715Y-91979071D01*
X79585715Y-91121929D02*
X79657143Y-91050500D01*
X79800001Y-90979071D01*
X80014286Y-90979071D01*
X80157143Y-91050500D01*
X80228572Y-91193357D01*
X80228572Y-91979071D01*
X81585715Y-90979071D02*
X81585715Y-92193357D01*
X81514286Y-92336214D01*
X81442858Y-92407643D01*
X81300001Y-92479071D01*
X81085715Y-92479071D01*
X80942858Y-92407643D01*
X81585715Y-91907643D02*
X81442858Y-91979071D01*
X81157144Y-91979071D01*
X81014286Y-91907643D01*
X80942858Y-91836214D01*
X80871429Y-91693357D01*
X80871429Y-91264786D01*
X80942858Y-91121929D01*
X81014286Y-91050500D01*
X81157144Y-90979071D01*
X81442858Y-90979071D01*
X81585715Y-91050500D01*
X83442858Y-91979071D02*
X83442858Y-90479071D01*
X83442858Y-91050500D02*
X83585715Y-90979071D01*
X83871429Y-90979071D01*
X84014286Y-91050500D01*
X84085715Y-91121929D01*
X84157144Y-91264786D01*
X84157144Y-91693357D01*
X84085715Y-91836214D01*
X84014286Y-91907643D01*
X83871429Y-91979071D01*
X83585715Y-91979071D01*
X83442858Y-91907643D01*
X85014287Y-91979071D02*
X84871429Y-91907643D01*
X84800001Y-91836214D01*
X84728572Y-91693357D01*
X84728572Y-91264786D01*
X84800001Y-91121929D01*
X84871429Y-91050500D01*
X85014287Y-90979071D01*
X85228572Y-90979071D01*
X85371429Y-91050500D01*
X85442858Y-91121929D01*
X85514287Y-91264786D01*
X85514287Y-91693357D01*
X85442858Y-91836214D01*
X85371429Y-91907643D01*
X85228572Y-91979071D01*
X85014287Y-91979071D01*
X86800001Y-91979071D02*
X86800001Y-91193357D01*
X86728572Y-91050500D01*
X86585715Y-90979071D01*
X86300001Y-90979071D01*
X86157144Y-91050500D01*
X86800001Y-91907643D02*
X86657144Y-91979071D01*
X86300001Y-91979071D01*
X86157144Y-91907643D01*
X86085715Y-91764786D01*
X86085715Y-91621929D01*
X86157144Y-91479071D01*
X86300001Y-91407643D01*
X86657144Y-91407643D01*
X86800001Y-91336214D01*
X87514287Y-91979071D02*
X87514287Y-90979071D01*
X87514287Y-91264786D02*
X87585715Y-91121929D01*
X87657144Y-91050500D01*
X87800001Y-90979071D01*
X87942858Y-90979071D01*
X89085715Y-91979071D02*
X89085715Y-90479071D01*
X89085715Y-91907643D02*
X88942858Y-91979071D01*
X88657144Y-91979071D01*
X88514286Y-91907643D01*
X88442858Y-91836214D01*
X88371429Y-91693357D01*
X88371429Y-91264786D01*
X88442858Y-91121929D01*
X88514286Y-91050500D01*
X88657144Y-90979071D01*
X88942858Y-90979071D01*
X89085715Y-91050500D01*
X91228572Y-90479071D02*
X91371429Y-90479071D01*
X91514286Y-90550500D01*
X91585715Y-90621929D01*
X91657144Y-90764786D01*
X91728572Y-91050500D01*
X91728572Y-91407643D01*
X91657144Y-91693357D01*
X91585715Y-91836214D01*
X91514286Y-91907643D01*
X91371429Y-91979071D01*
X91228572Y-91979071D01*
X91085715Y-91907643D01*
X91014286Y-91836214D01*
X90942858Y-91693357D01*
X90871429Y-91407643D01*
X90871429Y-91050500D01*
X90942858Y-90764786D01*
X91014286Y-90621929D01*
X91085715Y-90550500D01*
X91228572Y-90479071D01*
X92371429Y-91407643D02*
X93514286Y-91407643D01*
X94085715Y-90479071D02*
X95014286Y-90479071D01*
X94514286Y-91050500D01*
X94728572Y-91050500D01*
X94871429Y-91121929D01*
X94942858Y-91193357D01*
X95014286Y-91336214D01*
X95014286Y-91693357D01*
X94942858Y-91836214D01*
X94871429Y-91907643D01*
X94728572Y-91979071D01*
X94300000Y-91979071D01*
X94157143Y-91907643D01*
X94085715Y-91836214D01*
X95728571Y-91979071D02*
X96014286Y-91979071D01*
X96157143Y-91907643D01*
X96228571Y-91836214D01*
X96371429Y-91621929D01*
X96442857Y-91336214D01*
X96442857Y-90764786D01*
X96371429Y-90621929D01*
X96300000Y-90550500D01*
X96157143Y-90479071D01*
X95871429Y-90479071D01*
X95728571Y-90550500D01*
X95657143Y-90621929D01*
X95585714Y-90764786D01*
X95585714Y-91121929D01*
X95657143Y-91264786D01*
X95728571Y-91336214D01*
X95871429Y-91407643D01*
X96157143Y-91407643D01*
X96300000Y-91336214D01*
X96371429Y-91264786D01*
X96442857Y-91121929D01*
X71585714Y-78382143D02*
X71800000Y-78453571D01*
X72157143Y-78453571D01*
X72300000Y-78382143D01*
X72371429Y-78310714D01*
X72442857Y-78167857D01*
X72442857Y-78025000D01*
X72371429Y-77882143D01*
X72300000Y-77810714D01*
X72157143Y-77739286D01*
X71871429Y-77667857D01*
X71728571Y-77596429D01*
X71657143Y-77525000D01*
X71585714Y-77382143D01*
X71585714Y-77239286D01*
X71657143Y-77096429D01*
X71728571Y-77025000D01*
X71871429Y-76953571D01*
X72228571Y-76953571D01*
X72442857Y-77025000D01*
X72942857Y-77453571D02*
X73228571Y-78453571D01*
X73514285Y-77739286D01*
X73800000Y-78453571D01*
X74085714Y-77453571D01*
X74657143Y-78453571D02*
X74657143Y-77453571D01*
X74657143Y-76953571D02*
X74585714Y-77025000D01*
X74657143Y-77096429D01*
X74728571Y-77025000D01*
X74657143Y-76953571D01*
X74657143Y-77096429D01*
X75157143Y-77453571D02*
X75728572Y-77453571D01*
X75371429Y-76953571D02*
X75371429Y-78239286D01*
X75442857Y-78382143D01*
X75585715Y-78453571D01*
X75728572Y-78453571D01*
X76871429Y-78382143D02*
X76728572Y-78453571D01*
X76442858Y-78453571D01*
X76300000Y-78382143D01*
X76228572Y-78310714D01*
X76157143Y-78167857D01*
X76157143Y-77739286D01*
X76228572Y-77596429D01*
X76300000Y-77525000D01*
X76442858Y-77453571D01*
X76728572Y-77453571D01*
X76871429Y-77525000D01*
X77514286Y-78453571D02*
X77514286Y-76953571D01*
X78157143Y-78453571D02*
X78157143Y-77667857D01*
X78085714Y-77525000D01*
X77942857Y-77453571D01*
X77728572Y-77453571D01*
X77585714Y-77525000D01*
X77514286Y-77596429D01*
X78871429Y-78453571D02*
X78871429Y-77453571D01*
X78871429Y-76953571D02*
X78800000Y-77025000D01*
X78871429Y-77096429D01*
X78942857Y-77025000D01*
X78871429Y-76953571D01*
X78871429Y-77096429D01*
X79585715Y-77453571D02*
X79585715Y-78453571D01*
X79585715Y-77596429D02*
X79657143Y-77525000D01*
X79800001Y-77453571D01*
X80014286Y-77453571D01*
X80157143Y-77525000D01*
X80228572Y-77667857D01*
X80228572Y-78453571D01*
X81585715Y-77453571D02*
X81585715Y-78667857D01*
X81514286Y-78810714D01*
X81442858Y-78882143D01*
X81300001Y-78953571D01*
X81085715Y-78953571D01*
X80942858Y-78882143D01*
X81585715Y-78382143D02*
X81442858Y-78453571D01*
X81157144Y-78453571D01*
X81014286Y-78382143D01*
X80942858Y-78310714D01*
X80871429Y-78167857D01*
X80871429Y-77739286D01*
X80942858Y-77596429D01*
X81014286Y-77525000D01*
X81157144Y-77453571D01*
X81442858Y-77453571D01*
X81585715Y-77525000D01*
X83442858Y-78453571D02*
X83442858Y-76953571D01*
X83442858Y-77525000D02*
X83585715Y-77453571D01*
X83871429Y-77453571D01*
X84014286Y-77525000D01*
X84085715Y-77596429D01*
X84157144Y-77739286D01*
X84157144Y-78167857D01*
X84085715Y-78310714D01*
X84014286Y-78382143D01*
X83871429Y-78453571D01*
X83585715Y-78453571D01*
X83442858Y-78382143D01*
X85014287Y-78453571D02*
X84871429Y-78382143D01*
X84800001Y-78310714D01*
X84728572Y-78167857D01*
X84728572Y-77739286D01*
X84800001Y-77596429D01*
X84871429Y-77525000D01*
X85014287Y-77453571D01*
X85228572Y-77453571D01*
X85371429Y-77525000D01*
X85442858Y-77596429D01*
X85514287Y-77739286D01*
X85514287Y-78167857D01*
X85442858Y-78310714D01*
X85371429Y-78382143D01*
X85228572Y-78453571D01*
X85014287Y-78453571D01*
X86800001Y-78453571D02*
X86800001Y-77667857D01*
X86728572Y-77525000D01*
X86585715Y-77453571D01*
X86300001Y-77453571D01*
X86157144Y-77525000D01*
X86800001Y-78382143D02*
X86657144Y-78453571D01*
X86300001Y-78453571D01*
X86157144Y-78382143D01*
X86085715Y-78239286D01*
X86085715Y-78096429D01*
X86157144Y-77953571D01*
X86300001Y-77882143D01*
X86657144Y-77882143D01*
X86800001Y-77810714D01*
X87514287Y-78453571D02*
X87514287Y-77453571D01*
X87514287Y-77739286D02*
X87585715Y-77596429D01*
X87657144Y-77525000D01*
X87800001Y-77453571D01*
X87942858Y-77453571D01*
X89085715Y-78453571D02*
X89085715Y-76953571D01*
X89085715Y-78382143D02*
X88942858Y-78453571D01*
X88657144Y-78453571D01*
X88514286Y-78382143D01*
X88442858Y-78310714D01*
X88371429Y-78167857D01*
X88371429Y-77739286D01*
X88442858Y-77596429D01*
X88514286Y-77525000D01*
X88657144Y-77453571D01*
X88942858Y-77453571D01*
X89085715Y-77525000D01*
X91585715Y-77453571D02*
X91585715Y-78453571D01*
X91228572Y-76882143D02*
X90871429Y-77953571D01*
X91800001Y-77953571D01*
X92657143Y-76953571D02*
X92800000Y-76953571D01*
X92942857Y-77025000D01*
X93014286Y-77096429D01*
X93085715Y-77239286D01*
X93157143Y-77525000D01*
X93157143Y-77882143D01*
X93085715Y-78167857D01*
X93014286Y-78310714D01*
X92942857Y-78382143D01*
X92800000Y-78453571D01*
X92657143Y-78453571D01*
X92514286Y-78382143D01*
X92442857Y-78310714D01*
X92371429Y-78167857D01*
X92300000Y-77882143D01*
X92300000Y-77525000D01*
X92371429Y-77239286D01*
X92442857Y-77096429D01*
X92514286Y-77025000D01*
X92657143Y-76953571D01*
X93800000Y-77882143D02*
X94942857Y-77882143D01*
X95514286Y-76953571D02*
X96514286Y-76953571D01*
X95871429Y-78453571D01*
X97157142Y-78453571D02*
X97442857Y-78453571D01*
X97585714Y-78382143D01*
X97657142Y-78310714D01*
X97800000Y-78096429D01*
X97871428Y-77810714D01*
X97871428Y-77239286D01*
X97800000Y-77096429D01*
X97728571Y-77025000D01*
X97585714Y-76953571D01*
X97300000Y-76953571D01*
X97157142Y-77025000D01*
X97085714Y-77096429D01*
X97014285Y-77239286D01*
X97014285Y-77596429D01*
X97085714Y-77739286D01*
X97157142Y-77810714D01*
X97300000Y-77882143D01*
X97585714Y-77882143D01*
X97728571Y-77810714D01*
X97800000Y-77739286D01*
X97871428Y-77596429D01*
X71585714Y-64907143D02*
X71800000Y-64978571D01*
X72157143Y-64978571D01*
X72300000Y-64907143D01*
X72371429Y-64835714D01*
X72442857Y-64692857D01*
X72442857Y-64550000D01*
X72371429Y-64407143D01*
X72300000Y-64335714D01*
X72157143Y-64264286D01*
X71871429Y-64192857D01*
X71728571Y-64121429D01*
X71657143Y-64050000D01*
X71585714Y-63907143D01*
X71585714Y-63764286D01*
X71657143Y-63621429D01*
X71728571Y-63550000D01*
X71871429Y-63478571D01*
X72228571Y-63478571D01*
X72442857Y-63550000D01*
X72942857Y-63978571D02*
X73228571Y-64978571D01*
X73514285Y-64264286D01*
X73800000Y-64978571D01*
X74085714Y-63978571D01*
X74657143Y-64978571D02*
X74657143Y-63978571D01*
X74657143Y-63478571D02*
X74585714Y-63550000D01*
X74657143Y-63621429D01*
X74728571Y-63550000D01*
X74657143Y-63478571D01*
X74657143Y-63621429D01*
X75157143Y-63978571D02*
X75728572Y-63978571D01*
X75371429Y-63478571D02*
X75371429Y-64764286D01*
X75442857Y-64907143D01*
X75585715Y-64978571D01*
X75728572Y-64978571D01*
X76871429Y-64907143D02*
X76728572Y-64978571D01*
X76442858Y-64978571D01*
X76300000Y-64907143D01*
X76228572Y-64835714D01*
X76157143Y-64692857D01*
X76157143Y-64264286D01*
X76228572Y-64121429D01*
X76300000Y-64050000D01*
X76442858Y-63978571D01*
X76728572Y-63978571D01*
X76871429Y-64050000D01*
X77514286Y-64978571D02*
X77514286Y-63478571D01*
X78157143Y-64978571D02*
X78157143Y-64192857D01*
X78085714Y-64050000D01*
X77942857Y-63978571D01*
X77728572Y-63978571D01*
X77585714Y-64050000D01*
X77514286Y-64121429D01*
X78871429Y-64978571D02*
X78871429Y-63978571D01*
X78871429Y-63478571D02*
X78800000Y-63550000D01*
X78871429Y-63621429D01*
X78942857Y-63550000D01*
X78871429Y-63478571D01*
X78871429Y-63621429D01*
X79585715Y-63978571D02*
X79585715Y-64978571D01*
X79585715Y-64121429D02*
X79657143Y-64050000D01*
X79800001Y-63978571D01*
X80014286Y-63978571D01*
X80157143Y-64050000D01*
X80228572Y-64192857D01*
X80228572Y-64978571D01*
X81585715Y-63978571D02*
X81585715Y-65192857D01*
X81514286Y-65335714D01*
X81442858Y-65407143D01*
X81300001Y-65478571D01*
X81085715Y-65478571D01*
X80942858Y-65407143D01*
X81585715Y-64907143D02*
X81442858Y-64978571D01*
X81157144Y-64978571D01*
X81014286Y-64907143D01*
X80942858Y-64835714D01*
X80871429Y-64692857D01*
X80871429Y-64264286D01*
X80942858Y-64121429D01*
X81014286Y-64050000D01*
X81157144Y-63978571D01*
X81442858Y-63978571D01*
X81585715Y-64050000D01*
X83442858Y-64978571D02*
X83442858Y-63478571D01*
X83442858Y-64050000D02*
X83585715Y-63978571D01*
X83871429Y-63978571D01*
X84014286Y-64050000D01*
X84085715Y-64121429D01*
X84157144Y-64264286D01*
X84157144Y-64692857D01*
X84085715Y-64835714D01*
X84014286Y-64907143D01*
X83871429Y-64978571D01*
X83585715Y-64978571D01*
X83442858Y-64907143D01*
X85014287Y-64978571D02*
X84871429Y-64907143D01*
X84800001Y-64835714D01*
X84728572Y-64692857D01*
X84728572Y-64264286D01*
X84800001Y-64121429D01*
X84871429Y-64050000D01*
X85014287Y-63978571D01*
X85228572Y-63978571D01*
X85371429Y-64050000D01*
X85442858Y-64121429D01*
X85514287Y-64264286D01*
X85514287Y-64692857D01*
X85442858Y-64835714D01*
X85371429Y-64907143D01*
X85228572Y-64978571D01*
X85014287Y-64978571D01*
X86800001Y-64978571D02*
X86800001Y-64192857D01*
X86728572Y-64050000D01*
X86585715Y-63978571D01*
X86300001Y-63978571D01*
X86157144Y-64050000D01*
X86800001Y-64907143D02*
X86657144Y-64978571D01*
X86300001Y-64978571D01*
X86157144Y-64907143D01*
X86085715Y-64764286D01*
X86085715Y-64621429D01*
X86157144Y-64478571D01*
X86300001Y-64407143D01*
X86657144Y-64407143D01*
X86800001Y-64335714D01*
X87514287Y-64978571D02*
X87514287Y-63978571D01*
X87514287Y-64264286D02*
X87585715Y-64121429D01*
X87657144Y-64050000D01*
X87800001Y-63978571D01*
X87942858Y-63978571D01*
X89085715Y-64978571D02*
X89085715Y-63478571D01*
X89085715Y-64907143D02*
X88942858Y-64978571D01*
X88657144Y-64978571D01*
X88514286Y-64907143D01*
X88442858Y-64835714D01*
X88371429Y-64692857D01*
X88371429Y-64264286D01*
X88442858Y-64121429D01*
X88514286Y-64050000D01*
X88657144Y-63978571D01*
X88942858Y-63978571D01*
X89085715Y-64050000D01*
X91157144Y-64121429D02*
X91014286Y-64050000D01*
X90942858Y-63978571D01*
X90871429Y-63835714D01*
X90871429Y-63764286D01*
X90942858Y-63621429D01*
X91014286Y-63550000D01*
X91157144Y-63478571D01*
X91442858Y-63478571D01*
X91585715Y-63550000D01*
X91657144Y-63621429D01*
X91728572Y-63764286D01*
X91728572Y-63835714D01*
X91657144Y-63978571D01*
X91585715Y-64050000D01*
X91442858Y-64121429D01*
X91157144Y-64121429D01*
X91014286Y-64192857D01*
X90942858Y-64264286D01*
X90871429Y-64407143D01*
X90871429Y-64692857D01*
X90942858Y-64835714D01*
X91014286Y-64907143D01*
X91157144Y-64978571D01*
X91442858Y-64978571D01*
X91585715Y-64907143D01*
X91657144Y-64835714D01*
X91728572Y-64692857D01*
X91728572Y-64407143D01*
X91657144Y-64264286D01*
X91585715Y-64192857D01*
X91442858Y-64121429D01*
X92657143Y-63478571D02*
X92800000Y-63478571D01*
X92942857Y-63550000D01*
X93014286Y-63621429D01*
X93085715Y-63764286D01*
X93157143Y-64050000D01*
X93157143Y-64407143D01*
X93085715Y-64692857D01*
X93014286Y-64835714D01*
X92942857Y-64907143D01*
X92800000Y-64978571D01*
X92657143Y-64978571D01*
X92514286Y-64907143D01*
X92442857Y-64835714D01*
X92371429Y-64692857D01*
X92300000Y-64407143D01*
X92300000Y-64050000D01*
X92371429Y-63764286D01*
X92442857Y-63621429D01*
X92514286Y-63550000D01*
X92657143Y-63478571D01*
X93800000Y-64407143D02*
X94942857Y-64407143D01*
X96442857Y-64978571D02*
X95585714Y-64978571D01*
X96014286Y-64978571D02*
X96014286Y-63478571D01*
X95871429Y-63692857D01*
X95728571Y-63835714D01*
X95585714Y-63907143D01*
X97871428Y-64978571D02*
X97014285Y-64978571D01*
X97442857Y-64978571D02*
X97442857Y-63478571D01*
X97300000Y-63692857D01*
X97157142Y-63835714D01*
X97014285Y-63907143D01*
X98585713Y-64978571D02*
X98871428Y-64978571D01*
X99014285Y-64907143D01*
X99085713Y-64835714D01*
X99228571Y-64621429D01*
X99299999Y-64335714D01*
X99299999Y-63764286D01*
X99228571Y-63621429D01*
X99157142Y-63550000D01*
X99014285Y-63478571D01*
X98728571Y-63478571D01*
X98585713Y-63550000D01*
X98514285Y-63621429D01*
X98442856Y-63764286D01*
X98442856Y-64121429D01*
X98514285Y-64264286D01*
X98585713Y-64335714D01*
X98728571Y-64407143D01*
X99014285Y-64407143D01*
X99157142Y-64335714D01*
X99228571Y-64264286D01*
X99299999Y-64121429D01*
X89492858Y-51035714D02*
X89421429Y-51107143D01*
X89207143Y-51178571D01*
X89064286Y-51178571D01*
X88850001Y-51107143D01*
X88707143Y-50964286D01*
X88635715Y-50821429D01*
X88564286Y-50535714D01*
X88564286Y-50321429D01*
X88635715Y-50035714D01*
X88707143Y-49892857D01*
X88850001Y-49750000D01*
X89064286Y-49678571D01*
X89207143Y-49678571D01*
X89421429Y-49750000D01*
X89492858Y-49821429D01*
X90350001Y-51178571D02*
X90207143Y-51107143D01*
X90135715Y-51035714D01*
X90064286Y-50892857D01*
X90064286Y-50464286D01*
X90135715Y-50321429D01*
X90207143Y-50250000D01*
X90350001Y-50178571D01*
X90564286Y-50178571D01*
X90707143Y-50250000D01*
X90778572Y-50321429D01*
X90850001Y-50464286D01*
X90850001Y-50892857D01*
X90778572Y-51035714D01*
X90707143Y-51107143D01*
X90564286Y-51178571D01*
X90350001Y-51178571D01*
X91492858Y-50178571D02*
X91492858Y-51178571D01*
X91492858Y-50321429D02*
X91564286Y-50250000D01*
X91707144Y-50178571D01*
X91921429Y-50178571D01*
X92064286Y-50250000D01*
X92135715Y-50392857D01*
X92135715Y-51178571D01*
X92635715Y-50178571D02*
X93207144Y-50178571D01*
X92850001Y-49678571D02*
X92850001Y-50964286D01*
X92921429Y-51107143D01*
X93064287Y-51178571D01*
X93207144Y-51178571D01*
X93707144Y-51178571D02*
X93707144Y-50178571D01*
X93707144Y-50464286D02*
X93778572Y-50321429D01*
X93850001Y-50250000D01*
X93992858Y-50178571D01*
X94135715Y-50178571D01*
X94850001Y-51178571D02*
X94707143Y-51107143D01*
X94635715Y-51035714D01*
X94564286Y-50892857D01*
X94564286Y-50464286D01*
X94635715Y-50321429D01*
X94707143Y-50250000D01*
X94850001Y-50178571D01*
X95064286Y-50178571D01*
X95207143Y-50250000D01*
X95278572Y-50321429D01*
X95350001Y-50464286D01*
X95350001Y-50892857D01*
X95278572Y-51035714D01*
X95207143Y-51107143D01*
X95064286Y-51178571D01*
X94850001Y-51178571D01*
X96207144Y-51178571D02*
X96064286Y-51107143D01*
X95992858Y-50964286D01*
X95992858Y-49678571D01*
X97921429Y-51178571D02*
X97921429Y-49678571D01*
X97921429Y-50250000D02*
X98064286Y-50178571D01*
X98350000Y-50178571D01*
X98492857Y-50250000D01*
X98564286Y-50321429D01*
X98635715Y-50464286D01*
X98635715Y-50892857D01*
X98564286Y-51035714D01*
X98492857Y-51107143D01*
X98350000Y-51178571D01*
X98064286Y-51178571D01*
X97921429Y-51107143D01*
X99492858Y-51178571D02*
X99350000Y-51107143D01*
X99278572Y-51035714D01*
X99207143Y-50892857D01*
X99207143Y-50464286D01*
X99278572Y-50321429D01*
X99350000Y-50250000D01*
X99492858Y-50178571D01*
X99707143Y-50178571D01*
X99850000Y-50250000D01*
X99921429Y-50321429D01*
X99992858Y-50464286D01*
X99992858Y-50892857D01*
X99921429Y-51035714D01*
X99850000Y-51107143D01*
X99707143Y-51178571D01*
X99492858Y-51178571D01*
X101278572Y-51178571D02*
X101278572Y-50392857D01*
X101207143Y-50250000D01*
X101064286Y-50178571D01*
X100778572Y-50178571D01*
X100635715Y-50250000D01*
X101278572Y-51107143D02*
X101135715Y-51178571D01*
X100778572Y-51178571D01*
X100635715Y-51107143D01*
X100564286Y-50964286D01*
X100564286Y-50821429D01*
X100635715Y-50678571D01*
X100778572Y-50607143D01*
X101135715Y-50607143D01*
X101278572Y-50535714D01*
X101992858Y-51178571D02*
X101992858Y-50178571D01*
X101992858Y-50464286D02*
X102064286Y-50321429D01*
X102135715Y-50250000D01*
X102278572Y-50178571D01*
X102421429Y-50178571D01*
X103564286Y-51178571D02*
X103564286Y-49678571D01*
X103564286Y-51107143D02*
X103421429Y-51178571D01*
X103135715Y-51178571D01*
X102992857Y-51107143D01*
X102921429Y-51035714D01*
X102850000Y-50892857D01*
X102850000Y-50464286D01*
X102921429Y-50321429D01*
X102992857Y-50250000D01*
X103135715Y-50178571D01*
X103421429Y-50178571D01*
X103564286Y-50250000D01*
D12*
X65837000Y-65561000D02*
X65837000Y-67161000D01*
X65837000Y-80761000D02*
X65837000Y-79161000D01*
X65837000Y-94361000D02*
X65837000Y-92761000D01*
X149738400Y-94361000D02*
X149738400Y-92761000D01*
X149738400Y-80761000D02*
X149738400Y-79161000D01*
X149738400Y-67161000D02*
X149738400Y-65561000D01*
X65838400Y-65561000D02*
X149738400Y-65561000D01*
X65838400Y-94361000D02*
X149738400Y-94361000D01*
X65838400Y-92761000D02*
X149738400Y-92761000D01*
X65838400Y-80761000D02*
X149738400Y-80761000D01*
X65838400Y-79161000D02*
X149738400Y-79161000D01*
X65838400Y-67161000D02*
X149738400Y-67161000D01*
X149738400Y-53561000D02*
X149738400Y-51961000D01*
X65838400Y-53561000D02*
X149738400Y-53561000D01*
X70838400Y-53561000D02*
X70838400Y-51961000D01*
X149738400Y-51961000D02*
X65838400Y-51961000D01*
D11*
X76607144Y-99178571D02*
X76607144Y-97678571D01*
X76964287Y-97678571D01*
X77178572Y-97750000D01*
X77321430Y-97892857D01*
X77392858Y-98035714D01*
X77464287Y-98321429D01*
X77464287Y-98535714D01*
X77392858Y-98821429D01*
X77321430Y-98964286D01*
X77178572Y-99107143D01*
X76964287Y-99178571D01*
X76607144Y-99178571D01*
X78107144Y-99178571D02*
X78107144Y-98178571D01*
X78107144Y-98464286D02*
X78178572Y-98321429D01*
X78250001Y-98250000D01*
X78392858Y-98178571D01*
X78535715Y-98178571D01*
X79250001Y-99178571D02*
X79107143Y-99107143D01*
X79035715Y-99035714D01*
X78964286Y-98892857D01*
X78964286Y-98464286D01*
X79035715Y-98321429D01*
X79107143Y-98250000D01*
X79250001Y-98178571D01*
X79464286Y-98178571D01*
X79607143Y-98250000D01*
X79678572Y-98321429D01*
X79750001Y-98464286D01*
X79750001Y-98892857D01*
X79678572Y-99035714D01*
X79607143Y-99107143D01*
X79464286Y-99178571D01*
X79250001Y-99178571D01*
X80392858Y-98178571D02*
X80392858Y-99678571D01*
X80392858Y-98250000D02*
X80535715Y-98178571D01*
X80821429Y-98178571D01*
X80964286Y-98250000D01*
X81035715Y-98321429D01*
X81107144Y-98464286D01*
X81107144Y-98892857D01*
X81035715Y-99035714D01*
X80964286Y-99107143D01*
X80821429Y-99178571D01*
X80535715Y-99178571D01*
X80392858Y-99107143D01*
X82250001Y-98392857D02*
X82464287Y-98464286D01*
X82535715Y-98535714D01*
X82607144Y-98678571D01*
X82607144Y-98892857D01*
X82535715Y-99035714D01*
X82464287Y-99107143D01*
X82321429Y-99178571D01*
X81750001Y-99178571D01*
X81750001Y-97678571D01*
X82250001Y-97678571D01*
X82392858Y-97750000D01*
X82464287Y-97821429D01*
X82535715Y-97964286D01*
X82535715Y-98107143D01*
X82464287Y-98250000D01*
X82392858Y-98321429D01*
X82250001Y-98392857D01*
X81750001Y-98392857D01*
X83464287Y-99178571D02*
X83321429Y-99107143D01*
X83250001Y-99035714D01*
X83178572Y-98892857D01*
X83178572Y-98464286D01*
X83250001Y-98321429D01*
X83321429Y-98250000D01*
X83464287Y-98178571D01*
X83678572Y-98178571D01*
X83821429Y-98250000D01*
X83892858Y-98321429D01*
X83964287Y-98464286D01*
X83964287Y-98892857D01*
X83892858Y-99035714D01*
X83821429Y-99107143D01*
X83678572Y-99178571D01*
X83464287Y-99178571D01*
X84392858Y-98178571D02*
X84964287Y-98178571D01*
X84607144Y-97678571D02*
X84607144Y-98964286D01*
X84678572Y-99107143D01*
X84821430Y-99178571D01*
X84964287Y-99178571D01*
X86392858Y-98178571D02*
X86964287Y-98178571D01*
X86607144Y-99178571D02*
X86607144Y-97892857D01*
X86678572Y-97750000D01*
X86821430Y-97678571D01*
X86964287Y-97678571D01*
X87464287Y-99178571D02*
X87464287Y-98178571D01*
X87464287Y-98464286D02*
X87535715Y-98321429D01*
X87607144Y-98250000D01*
X87750001Y-98178571D01*
X87892858Y-98178571D01*
X88607144Y-99178571D02*
X88464286Y-99107143D01*
X88392858Y-99035714D01*
X88321429Y-98892857D01*
X88321429Y-98464286D01*
X88392858Y-98321429D01*
X88464286Y-98250000D01*
X88607144Y-98178571D01*
X88821429Y-98178571D01*
X88964286Y-98250000D01*
X89035715Y-98321429D01*
X89107144Y-98464286D01*
X89107144Y-98892857D01*
X89035715Y-99035714D01*
X88964286Y-99107143D01*
X88821429Y-99178571D01*
X88607144Y-99178571D01*
X89750001Y-98178571D02*
X89750001Y-99178571D01*
X89750001Y-98321429D02*
X89821429Y-98250000D01*
X89964287Y-98178571D01*
X90178572Y-98178571D01*
X90321429Y-98250000D01*
X90392858Y-98392857D01*
X90392858Y-99178571D01*
X90892858Y-98178571D02*
X91464287Y-98178571D01*
X91107144Y-97678571D02*
X91107144Y-98964286D01*
X91178572Y-99107143D01*
X91321430Y-99178571D01*
X91464287Y-99178571D01*
X93107144Y-98178571D02*
X93107144Y-99678571D01*
X93107144Y-98250000D02*
X93250001Y-98178571D01*
X93535715Y-98178571D01*
X93678572Y-98250000D01*
X93750001Y-98321429D01*
X93821430Y-98464286D01*
X93821430Y-98892857D01*
X93750001Y-99035714D01*
X93678572Y-99107143D01*
X93535715Y-99178571D01*
X93250001Y-99178571D01*
X93107144Y-99107143D01*
X95107144Y-99178571D02*
X95107144Y-98392857D01*
X95035715Y-98250000D01*
X94892858Y-98178571D01*
X94607144Y-98178571D01*
X94464287Y-98250000D01*
X95107144Y-99107143D02*
X94964287Y-99178571D01*
X94607144Y-99178571D01*
X94464287Y-99107143D01*
X94392858Y-98964286D01*
X94392858Y-98821429D01*
X94464287Y-98678571D01*
X94607144Y-98607143D01*
X94964287Y-98607143D01*
X95107144Y-98535714D01*
X95821430Y-98178571D02*
X95821430Y-99178571D01*
X95821430Y-98321429D02*
X95892858Y-98250000D01*
X96035716Y-98178571D01*
X96250001Y-98178571D01*
X96392858Y-98250000D01*
X96464287Y-98392857D01*
X96464287Y-99178571D01*
X97750001Y-99107143D02*
X97607144Y-99178571D01*
X97321430Y-99178571D01*
X97178573Y-99107143D01*
X97107144Y-98964286D01*
X97107144Y-98392857D01*
X97178573Y-98250000D01*
X97321430Y-98178571D01*
X97607144Y-98178571D01*
X97750001Y-98250000D01*
X97821430Y-98392857D01*
X97821430Y-98535714D01*
X97107144Y-98678571D01*
X98678573Y-99178571D02*
X98535715Y-99107143D01*
X98464287Y-98964286D01*
X98464287Y-97678571D01*
X100250001Y-98178571D02*
X100607144Y-99178571D01*
X100964286Y-98178571D01*
X101392858Y-97678571D02*
X102321429Y-97678571D01*
X101821429Y-98250000D01*
X102035715Y-98250000D01*
X102178572Y-98321429D01*
X102250001Y-98392857D01*
X102321429Y-98535714D01*
X102321429Y-98892857D01*
X102250001Y-99035714D01*
X102178572Y-99107143D01*
X102035715Y-99178571D01*
X101607143Y-99178571D01*
X101464286Y-99107143D01*
X101392858Y-99035714D01*
X102964286Y-99035714D02*
X103035714Y-99107143D01*
X102964286Y-99178571D01*
X102892857Y-99107143D01*
X102964286Y-99035714D01*
X102964286Y-99178571D01*
X103964286Y-97678571D02*
X104107143Y-97678571D01*
X104250000Y-97750000D01*
X104321429Y-97821429D01*
X104392858Y-97964286D01*
X104464286Y-98250000D01*
X104464286Y-98607143D01*
X104392858Y-98892857D01*
X104321429Y-99035714D01*
X104250000Y-99107143D01*
X104107143Y-99178571D01*
X103964286Y-99178571D01*
X103821429Y-99107143D01*
X103750000Y-99035714D01*
X103678572Y-98892857D01*
X103607143Y-98607143D01*
X103607143Y-98250000D01*
X103678572Y-97964286D01*
X103750000Y-97821429D01*
X103821429Y-97750000D01*
X103964286Y-97678571D01*
D13*
X128610900Y-49560700D02*
X128610900Y-48138300D01*
X127899700Y-48849500D02*
X129322100Y-48849500D01*
X129113794Y-48849500D02*
G75*
G03X129113794Y-48849500I-502894J0D01*
G01*
X127089440Y-49992500D02*
X127089440Y-47706500D01*
X128864900Y-49992500D02*
X127089440Y-49992500D01*
X128864900Y-51707000D02*
X128864900Y-49992500D01*
X129372900Y-46817500D02*
X129372900Y-45992000D01*
X128864900Y-46817500D02*
X129372900Y-46817500D01*
X128864900Y-47706500D02*
X128864900Y-46817500D01*
X127089440Y-47706500D02*
X128864900Y-47706500D01*
X129372900Y-45992000D02*
X136611900Y-45992000D01*
X136611900Y-45992000D02*
X136611900Y-47706500D01*
X136611900Y-47706500D02*
X138387360Y-47706500D01*
X138387360Y-47706500D02*
X138387360Y-49992500D01*
X138387360Y-49992500D02*
X136611900Y-49992500D01*
X136611900Y-49992500D02*
X136611900Y-51707000D01*
X136611900Y-51707000D02*
X128864900Y-51707000D01*
X137368794Y-48849500D02*
G75*
G03X137368794Y-48849500I-502894J0D01*
G01*
X136154700Y-48849500D02*
X137577100Y-48849500D01*
X136865900Y-49560700D02*
X136865900Y-48138300D01*
D10*
X64800000Y-87900000D02*
X64800000Y-56900000D01*
X46800000Y-87900000D02*
X64800000Y-87900000D01*
X46800000Y-87900000D02*
X46800000Y-56900000D01*
X46800000Y-56900000D02*
X64800000Y-56900000D01*
D14*
X153070000Y-55730000D02*
X153070000Y-50650000D01*
X153070000Y-50650000D02*
X150530000Y-50650000D01*
X150530000Y-50650000D02*
X150530000Y-55730000D01*
X150250000Y-58550000D02*
X150250000Y-57000000D01*
X150530000Y-55730000D02*
X153070000Y-55730000D01*
X153350000Y-57000000D02*
X153350000Y-58550000D01*
X153350000Y-58550000D02*
X150250000Y-58550000D01*
D15*
X47218800Y-34176800D02*
X49682600Y-34176800D01*
X49682600Y-34176800D02*
X49682600Y-31890800D01*
X47218800Y-31890800D02*
X49682600Y-31890800D01*
X47218800Y-34176800D02*
X47218800Y-31890800D01*
X47218800Y-37021600D02*
X49682600Y-37021600D01*
X49682600Y-37021600D02*
X49682600Y-34557800D01*
X47218800Y-34557800D02*
X49682600Y-34557800D01*
X47218800Y-37021600D02*
X47218800Y-34557800D01*
X76860600Y-34176800D02*
X79324400Y-34176800D01*
X79324400Y-34176800D02*
X79324400Y-31890800D01*
X76860600Y-31890800D02*
X79324400Y-31890800D01*
X76860600Y-34176800D02*
X76860600Y-31890800D01*
X76860600Y-37021600D02*
X79324400Y-37021600D01*
X79324400Y-37021600D02*
X79324400Y-34557800D01*
X76860600Y-34557800D02*
X79324400Y-34557800D01*
X76860600Y-37021600D02*
X76860600Y-34557800D01*
D13*
X46621900Y-32271800D02*
X46621900Y-38469400D01*
X46621900Y-38469400D02*
X49720700Y-38469400D01*
X49720700Y-38469400D02*
X49720700Y-40691900D01*
X49720700Y-40691900D02*
X76822500Y-40691900D01*
X76822500Y-40691900D02*
X76822500Y-38469400D01*
X76822500Y-38469400D02*
X79921300Y-38469400D01*
X79921300Y-38469400D02*
X79921300Y-32271800D01*
D15*
X120675600Y-34176800D02*
X123139400Y-34176800D01*
X123139400Y-34176800D02*
X123139400Y-31890800D01*
X120675600Y-31890800D02*
X123139400Y-31890800D01*
X120675600Y-34176800D02*
X120675600Y-31890800D01*
X120675600Y-37021600D02*
X123139400Y-37021600D01*
X123139400Y-37021600D02*
X123139400Y-34557800D01*
X120675600Y-34557800D02*
X123139400Y-34557800D01*
X120675600Y-37021600D02*
X120675600Y-34557800D01*
X150317400Y-34176800D02*
X152781200Y-34176800D01*
X152781200Y-34176800D02*
X152781200Y-31890800D01*
X150317400Y-31890800D02*
X152781200Y-31890800D01*
X150317400Y-34176800D02*
X150317400Y-31890800D01*
X150317400Y-37021600D02*
X152781200Y-37021600D01*
X152781200Y-37021600D02*
X152781200Y-34557800D01*
X150317400Y-34557800D02*
X152781200Y-34557800D01*
X150317400Y-37021600D02*
X150317400Y-34557800D01*
D13*
X120078700Y-32271800D02*
X120078700Y-38469400D01*
X120078700Y-38469400D02*
X123177500Y-38469400D01*
X123177500Y-38469400D02*
X123177500Y-40691900D01*
X123177500Y-40691900D02*
X150279300Y-40691900D01*
X150279300Y-40691900D02*
X150279300Y-38469400D01*
X150279300Y-38469400D02*
X153378100Y-38469400D01*
X153378100Y-38469400D02*
X153378100Y-32271800D01*
D16*
X55460000Y-55620000D02*
X55460000Y-45460000D01*
X54190000Y-55620000D02*
X61810000Y-55620000D01*
X61810000Y-55620000D02*
X61810000Y-45460000D01*
X61810000Y-45460000D02*
X54190000Y-45460000D01*
X54190000Y-45460000D02*
X54190000Y-55620000D01*
D14*
X65365000Y-49095000D02*
G75*
G03X65365000Y-49095000I-127000J0D01*
G01*
X64603000Y-48460000D02*
X64603000Y-53540000D01*
X67905000Y-48460000D02*
X67905000Y-53540000D01*
X64095000Y-48460000D02*
X64095000Y-53540000D01*
X64095000Y-48460000D02*
X67905000Y-48460000D01*
X64095000Y-53540000D02*
X67905000Y-53540000D01*
D16*
X146100000Y-65480000D02*
X144900000Y-65480000D01*
X144900000Y-63720000D02*
X146100000Y-63720000D01*
X131600000Y-44120000D02*
X132800000Y-44120000D01*
X132800000Y-45880000D02*
X131600000Y-45880000D01*
D13*
X80175300Y-32271800D02*
X80175300Y-38469400D01*
X80175300Y-38469400D02*
X83274100Y-38469400D01*
X83274100Y-38469400D02*
X83274100Y-41085600D01*
X83274100Y-41085600D02*
X116725900Y-41085600D01*
X116725900Y-41085600D02*
X116725900Y-38469400D01*
X116725900Y-38469400D02*
X119824700Y-38469400D01*
X119824700Y-38469400D02*
X119824700Y-32271800D01*
D16*
X47750000Y-58100000D02*
X47750000Y-59100000D01*
X49450000Y-59100000D02*
X49450000Y-58100000D01*
X67350000Y-80000000D02*
X67350000Y-79000000D01*
X65650000Y-79000000D02*
X65650000Y-80000000D01*
X69850000Y-80000000D02*
X69850000Y-79000000D01*
X68150000Y-79000000D02*
X68150000Y-80000000D01*
D10*
X87800000Y-64300000D02*
X70000000Y-64300000D01*
X87800000Y-46500000D02*
X87800000Y-64300000D01*
X70000000Y-46500000D02*
X70000000Y-64300000D01*
X87800000Y-46500000D02*
X70000000Y-46500000D01*
D16*
X52286000Y-44000000D02*
G75*
G03X52286000Y-44000000I-2286000J0D01*
G01*
X152286000Y-44000000D02*
G75*
G03X152286000Y-44000000I-2286000J0D01*
G01*
X152286000Y-84000000D02*
G75*
G03X152286000Y-84000000I-2286000J0D01*
G01*
X70286000Y-86000000D02*
G75*
G03X70286000Y-86000000I-2286000J0D01*
G01*
D17*
G36*
X71337162Y-98173430D02*
X71338990Y-98176248D01*
X71380771Y-98221927D01*
X71395751Y-98233009D01*
X71410309Y-98249766D01*
X71378054Y-98255352D01*
X71373350Y-98255411D01*
X71328030Y-98242195D01*
X71316588Y-98198650D01*
X71321416Y-98162508D01*
X71337162Y-98173430D01*
X71337162Y-98173430D01*
G37*
X71337162Y-98173430D02*
X71338990Y-98176248D01*
X71380771Y-98221927D01*
X71395751Y-98233009D01*
X71410309Y-98249766D01*
X71378054Y-98255352D01*
X71373350Y-98255411D01*
X71328030Y-98242195D01*
X71316588Y-98198650D01*
X71321416Y-98162508D01*
X71337162Y-98173430D01*
G36*
X91508752Y-98193945D02*
X91508811Y-98198650D01*
X91495595Y-98243969D01*
X91452050Y-98255411D01*
X91415908Y-98250583D01*
X91426830Y-98234837D01*
X91429648Y-98233009D01*
X91475327Y-98191228D01*
X91486409Y-98176248D01*
X91503166Y-98161690D01*
X91508752Y-98193945D01*
X91508752Y-98193945D01*
G37*
X91508752Y-98193945D02*
X91508811Y-98198650D01*
X91495595Y-98243969D01*
X91452050Y-98255411D01*
X91415908Y-98250583D01*
X91426830Y-98234837D01*
X91429648Y-98233009D01*
X91475327Y-98191228D01*
X91486409Y-98176248D01*
X91503166Y-98161690D01*
X91508752Y-98193945D01*
G36*
X72757960Y-94630288D02*
X72980775Y-94852071D01*
X73081937Y-94751081D01*
X73155379Y-94689534D01*
X73229580Y-94645754D01*
X73263750Y-94634050D01*
X73311260Y-94629512D01*
X73354190Y-94641995D01*
X73406012Y-94678253D01*
X73474514Y-94739716D01*
X73604628Y-94861423D01*
X73826351Y-94640728D01*
X74048073Y-94420033D01*
X74324701Y-94700141D01*
X73881525Y-95145379D01*
X73950872Y-95214727D01*
X74020220Y-95284074D01*
X74465458Y-94840898D01*
X74745566Y-95117526D01*
X74301806Y-95563352D01*
X74371127Y-95632672D01*
X74440447Y-95701993D01*
X74886273Y-95258233D01*
X75018936Y-95392565D01*
X75083185Y-95460653D01*
X75130306Y-95516368D01*
X75151267Y-95548923D01*
X75151600Y-95550968D01*
X75134649Y-95577483D01*
X75088570Y-95631521D01*
X75020527Y-95705058D01*
X74942862Y-95784866D01*
X74734125Y-95994693D01*
X74841262Y-96103858D01*
X74906980Y-96178486D01*
X74939813Y-96239607D01*
X74948400Y-96300000D01*
X74938956Y-96362974D01*
X74904876Y-96424353D01*
X74841262Y-96496141D01*
X74734125Y-96605306D01*
X74942862Y-96815133D01*
X75025032Y-96899687D01*
X75091976Y-96972294D01*
X75136531Y-97024929D01*
X75151600Y-97049031D01*
X75134894Y-97077605D01*
X75090799Y-97130804D01*
X75028348Y-97197843D01*
X75018936Y-97207434D01*
X74886273Y-97341766D01*
X74440447Y-96898006D01*
X74371127Y-96967327D01*
X74301806Y-97036647D01*
X74745566Y-97482473D01*
X74465458Y-97759101D01*
X74020220Y-97315925D01*
X73950872Y-97385272D01*
X73881525Y-97454620D01*
X74324701Y-97899858D01*
X74048073Y-98179966D01*
X73826351Y-97959271D01*
X73604628Y-97738576D01*
X73474514Y-97860283D01*
X73402131Y-97924929D01*
X73351257Y-97959455D01*
X73308452Y-97970612D01*
X73264144Y-97965938D01*
X73200456Y-97938970D01*
X73124735Y-97887384D01*
X73081136Y-97849042D01*
X72978382Y-97748197D01*
X72763802Y-97963898D01*
X72679502Y-98047521D01*
X72608313Y-98116040D01*
X72557701Y-98162414D01*
X72535133Y-98179599D01*
X72535093Y-98179600D01*
X72511806Y-98162797D01*
X72462869Y-98118287D01*
X72397911Y-98054914D01*
X72382831Y-98039729D01*
X72244698Y-97899858D01*
X72687874Y-97454620D01*
X72618527Y-97385272D01*
X72549179Y-97315925D01*
X72103941Y-97759101D01*
X71823833Y-97482473D01*
X72267593Y-97036647D01*
X72198272Y-96967327D01*
X72128952Y-96898006D01*
X71683126Y-97341766D01*
X71406498Y-97061658D01*
X71847366Y-96617500D01*
X71734183Y-96498328D01*
X71655612Y-96402841D01*
X71621375Y-96321240D01*
X71624103Y-96300000D01*
X72281400Y-96300000D01*
X72289221Y-96328510D01*
X72314959Y-96370261D01*
X72362026Y-96429113D01*
X72433833Y-96508927D01*
X72533791Y-96613562D01*
X72665312Y-96746879D01*
X72759170Y-96840628D01*
X72907545Y-96986421D01*
X73036524Y-97109455D01*
X73142665Y-97206622D01*
X73222523Y-97274815D01*
X73272656Y-97310929D01*
X73285976Y-97316000D01*
X73319042Y-97298050D01*
X73383623Y-97246240D01*
X73476340Y-97163631D01*
X73593815Y-97053284D01*
X73732669Y-96918257D01*
X73811505Y-96840000D01*
X73964479Y-96686019D01*
X74083651Y-96563183D01*
X74172240Y-96467850D01*
X74233463Y-96396377D01*
X74270538Y-96345120D01*
X74286682Y-96310437D01*
X74288000Y-96300495D01*
X74279213Y-96271301D01*
X74250714Y-96226883D01*
X74199298Y-96163601D01*
X74121757Y-96077820D01*
X74014885Y-95965900D01*
X73875476Y-95824206D01*
X73812000Y-95760494D01*
X73660697Y-95610913D01*
X73530556Y-95486087D01*
X73424627Y-95388779D01*
X73345958Y-95321753D01*
X73297597Y-95287773D01*
X73286471Y-95284000D01*
X73252931Y-95301989D01*
X73187657Y-95354064D01*
X73093801Y-95437382D01*
X72974516Y-95549102D01*
X72832954Y-95686381D01*
X72759170Y-95759371D01*
X72607412Y-95911436D01*
X72489230Y-96032539D01*
X72401214Y-96126542D01*
X72339952Y-96197304D01*
X72302033Y-96248686D01*
X72284045Y-96284548D01*
X72281400Y-96300000D01*
X71624103Y-96300000D01*
X71631474Y-96242611D01*
X71685906Y-96156038D01*
X71734183Y-96101671D01*
X71847366Y-95982500D01*
X71626932Y-95760420D01*
X71406498Y-95538341D01*
X71683126Y-95258233D01*
X72128952Y-95701993D01*
X72198272Y-95632672D01*
X72267593Y-95563352D01*
X71823833Y-95117526D01*
X72103941Y-94840898D01*
X72549179Y-95284074D01*
X72618527Y-95214727D01*
X72687874Y-95145379D01*
X72244106Y-94699545D01*
X72389626Y-94554026D01*
X72535145Y-94408506D01*
X72757960Y-94630288D01*
X72757960Y-94630288D01*
G37*
X72757960Y-94630288D02*
X72980775Y-94852071D01*
X73081937Y-94751081D01*
X73155379Y-94689534D01*
X73229580Y-94645754D01*
X73263750Y-94634050D01*
X73311260Y-94629512D01*
X73354190Y-94641995D01*
X73406012Y-94678253D01*
X73474514Y-94739716D01*
X73604628Y-94861423D01*
X73826351Y-94640728D01*
X74048073Y-94420033D01*
X74324701Y-94700141D01*
X73881525Y-95145379D01*
X73950872Y-95214727D01*
X74020220Y-95284074D01*
X74465458Y-94840898D01*
X74745566Y-95117526D01*
X74301806Y-95563352D01*
X74371127Y-95632672D01*
X74440447Y-95701993D01*
X74886273Y-95258233D01*
X75018936Y-95392565D01*
X75083185Y-95460653D01*
X75130306Y-95516368D01*
X75151267Y-95548923D01*
X75151600Y-95550968D01*
X75134649Y-95577483D01*
X75088570Y-95631521D01*
X75020527Y-95705058D01*
X74942862Y-95784866D01*
X74734125Y-95994693D01*
X74841262Y-96103858D01*
X74906980Y-96178486D01*
X74939813Y-96239607D01*
X74948400Y-96300000D01*
X74938956Y-96362974D01*
X74904876Y-96424353D01*
X74841262Y-96496141D01*
X74734125Y-96605306D01*
X74942862Y-96815133D01*
X75025032Y-96899687D01*
X75091976Y-96972294D01*
X75136531Y-97024929D01*
X75151600Y-97049031D01*
X75134894Y-97077605D01*
X75090799Y-97130804D01*
X75028348Y-97197843D01*
X75018936Y-97207434D01*
X74886273Y-97341766D01*
X74440447Y-96898006D01*
X74371127Y-96967327D01*
X74301806Y-97036647D01*
X74745566Y-97482473D01*
X74465458Y-97759101D01*
X74020220Y-97315925D01*
X73950872Y-97385272D01*
X73881525Y-97454620D01*
X74324701Y-97899858D01*
X74048073Y-98179966D01*
X73826351Y-97959271D01*
X73604628Y-97738576D01*
X73474514Y-97860283D01*
X73402131Y-97924929D01*
X73351257Y-97959455D01*
X73308452Y-97970612D01*
X73264144Y-97965938D01*
X73200456Y-97938970D01*
X73124735Y-97887384D01*
X73081136Y-97849042D01*
X72978382Y-97748197D01*
X72763802Y-97963898D01*
X72679502Y-98047521D01*
X72608313Y-98116040D01*
X72557701Y-98162414D01*
X72535133Y-98179599D01*
X72535093Y-98179600D01*
X72511806Y-98162797D01*
X72462869Y-98118287D01*
X72397911Y-98054914D01*
X72382831Y-98039729D01*
X72244698Y-97899858D01*
X72687874Y-97454620D01*
X72618527Y-97385272D01*
X72549179Y-97315925D01*
X72103941Y-97759101D01*
X71823833Y-97482473D01*
X72267593Y-97036647D01*
X72198272Y-96967327D01*
X72128952Y-96898006D01*
X71683126Y-97341766D01*
X71406498Y-97061658D01*
X71847366Y-96617500D01*
X71734183Y-96498328D01*
X71655612Y-96402841D01*
X71621375Y-96321240D01*
X71624103Y-96300000D01*
X72281400Y-96300000D01*
X72289221Y-96328510D01*
X72314959Y-96370261D01*
X72362026Y-96429113D01*
X72433833Y-96508927D01*
X72533791Y-96613562D01*
X72665312Y-96746879D01*
X72759170Y-96840628D01*
X72907545Y-96986421D01*
X73036524Y-97109455D01*
X73142665Y-97206622D01*
X73222523Y-97274815D01*
X73272656Y-97310929D01*
X73285976Y-97316000D01*
X73319042Y-97298050D01*
X73383623Y-97246240D01*
X73476340Y-97163631D01*
X73593815Y-97053284D01*
X73732669Y-96918257D01*
X73811505Y-96840000D01*
X73964479Y-96686019D01*
X74083651Y-96563183D01*
X74172240Y-96467850D01*
X74233463Y-96396377D01*
X74270538Y-96345120D01*
X74286682Y-96310437D01*
X74288000Y-96300495D01*
X74279213Y-96271301D01*
X74250714Y-96226883D01*
X74199298Y-96163601D01*
X74121757Y-96077820D01*
X74014885Y-95965900D01*
X73875476Y-95824206D01*
X73812000Y-95760494D01*
X73660697Y-95610913D01*
X73530556Y-95486087D01*
X73424627Y-95388779D01*
X73345958Y-95321753D01*
X73297597Y-95287773D01*
X73286471Y-95284000D01*
X73252931Y-95301989D01*
X73187657Y-95354064D01*
X73093801Y-95437382D01*
X72974516Y-95549102D01*
X72832954Y-95686381D01*
X72759170Y-95759371D01*
X72607412Y-95911436D01*
X72489230Y-96032539D01*
X72401214Y-96126542D01*
X72339952Y-96197304D01*
X72302033Y-96248686D01*
X72284045Y-96284548D01*
X72281400Y-96300000D01*
X71624103Y-96300000D01*
X71631474Y-96242611D01*
X71685906Y-96156038D01*
X71734183Y-96101671D01*
X71847366Y-95982500D01*
X71626932Y-95760420D01*
X71406498Y-95538341D01*
X71683126Y-95258233D01*
X72128952Y-95701993D01*
X72198272Y-95632672D01*
X72267593Y-95563352D01*
X71823833Y-95117526D01*
X72103941Y-94840898D01*
X72549179Y-95284074D01*
X72618527Y-95214727D01*
X72687874Y-95145379D01*
X72244106Y-94699545D01*
X72389626Y-94554026D01*
X72535145Y-94408506D01*
X72757960Y-94630288D01*
G36*
X76825645Y-95259157D02*
X77032239Y-95259639D01*
X77194640Y-95260972D01*
X77319450Y-95263563D01*
X77413272Y-95267816D01*
X77482711Y-95274136D01*
X77534370Y-95282929D01*
X77574853Y-95294601D01*
X77605212Y-95306998D01*
X77720482Y-95385345D01*
X77800758Y-95495493D01*
X77837220Y-95615389D01*
X77850688Y-95715800D01*
X77713213Y-95715800D01*
X77632787Y-95713673D01*
X77587674Y-95702570D01*
X77562420Y-95675409D01*
X77546974Y-95639599D01*
X77518212Y-95563399D01*
X76844720Y-95563399D01*
X76638141Y-95563753D01*
X76476536Y-95565032D01*
X76354084Y-95567562D01*
X76264963Y-95571668D01*
X76203352Y-95577677D01*
X76163428Y-95585913D01*
X76139370Y-95596703D01*
X76131314Y-95603314D01*
X76106169Y-95656031D01*
X76092112Y-95741511D01*
X76088980Y-95842981D01*
X76096609Y-95943663D01*
X76114835Y-96026785D01*
X76135850Y-96068102D01*
X76150898Y-96083817D01*
X76170632Y-96096168D01*
X76201000Y-96105633D01*
X76247949Y-96112691D01*
X76317428Y-96117821D01*
X76415384Y-96121502D01*
X76547764Y-96124212D01*
X76720518Y-96126431D01*
X76880832Y-96128066D01*
X77581364Y-96134900D01*
X77674608Y-96206063D01*
X77743621Y-96265317D01*
X77791273Y-96326839D01*
X77821313Y-96401597D01*
X77837493Y-96500557D01*
X77843562Y-96634686D01*
X77844000Y-96701382D01*
X77840015Y-96853911D01*
X77825234Y-96967429D01*
X77795411Y-97053302D01*
X77746303Y-97122894D01*
X77673666Y-97187571D01*
X77658039Y-97199364D01*
X77634965Y-97214837D01*
X77608244Y-97227052D01*
X77571839Y-97236457D01*
X77519711Y-97243495D01*
X77445823Y-97248614D01*
X77344135Y-97252258D01*
X77208611Y-97254875D01*
X77033211Y-97256909D01*
X76857939Y-97258434D01*
X76632934Y-97259753D01*
X76453326Y-97259515D01*
X76313732Y-97257527D01*
X76208768Y-97253594D01*
X76133049Y-97247522D01*
X76081192Y-97239117D01*
X76050229Y-97229289D01*
X75958112Y-97165027D01*
X75879998Y-97068237D01*
X75829134Y-96957182D01*
X75819066Y-96910550D01*
X75805311Y-96808000D01*
X75948355Y-96808000D01*
X76033733Y-96811276D01*
X76078216Y-96822809D01*
X76091388Y-96845150D01*
X76091400Y-96846100D01*
X76108214Y-96891171D01*
X76142200Y-96935000D01*
X76160407Y-96950704D01*
X76183927Y-96962795D01*
X76219106Y-96971743D01*
X76272292Y-96978019D01*
X76349834Y-96982091D01*
X76458079Y-96984432D01*
X76603375Y-96985510D01*
X76792070Y-96985796D01*
X76828000Y-96985800D01*
X77040571Y-96985796D01*
X77207782Y-96984350D01*
X77335069Y-96979304D01*
X77427865Y-96968505D01*
X77491607Y-96949796D01*
X77531730Y-96921023D01*
X77553668Y-96880030D01*
X77562856Y-96824662D01*
X77564730Y-96752763D01*
X77564600Y-96693700D01*
X77564756Y-96611677D01*
X77561715Y-96546624D01*
X77550210Y-96496579D01*
X77524976Y-96459579D01*
X77480747Y-96433661D01*
X77412256Y-96416862D01*
X77314238Y-96407219D01*
X77181427Y-96402769D01*
X77008557Y-96401550D01*
X76790362Y-96401599D01*
X76780956Y-96401600D01*
X76576890Y-96401466D01*
X76417243Y-96400747D01*
X76295635Y-96398967D01*
X76205685Y-96395650D01*
X76141011Y-96390320D01*
X76095234Y-96382501D01*
X76061973Y-96371717D01*
X76034846Y-96357492D01*
X76014941Y-96344450D01*
X75937843Y-96286539D01*
X75884393Y-96228452D01*
X75850027Y-96158986D01*
X75830183Y-96066942D01*
X75820298Y-95941119D01*
X75817615Y-95860083D01*
X75815420Y-95732376D01*
X75817460Y-95643044D01*
X75825373Y-95579727D01*
X75840793Y-95530067D01*
X75865358Y-95481705D01*
X75868415Y-95476405D01*
X75946647Y-95382351D01*
X76038245Y-95317655D01*
X76073500Y-95299918D01*
X76108319Y-95286148D01*
X76149370Y-95275849D01*
X76203320Y-95268526D01*
X76276836Y-95263685D01*
X76376584Y-95260829D01*
X76509233Y-95259463D01*
X76681449Y-95259093D01*
X76825645Y-95259157D01*
X76825645Y-95259157D01*
G37*
X76825645Y-95259157D02*
X77032239Y-95259639D01*
X77194640Y-95260972D01*
X77319450Y-95263563D01*
X77413272Y-95267816D01*
X77482711Y-95274136D01*
X77534370Y-95282929D01*
X77574853Y-95294601D01*
X77605212Y-95306998D01*
X77720482Y-95385345D01*
X77800758Y-95495493D01*
X77837220Y-95615389D01*
X77850688Y-95715800D01*
X77713213Y-95715800D01*
X77632787Y-95713673D01*
X77587674Y-95702570D01*
X77562420Y-95675409D01*
X77546974Y-95639599D01*
X77518212Y-95563399D01*
X76844720Y-95563399D01*
X76638141Y-95563753D01*
X76476536Y-95565032D01*
X76354084Y-95567562D01*
X76264963Y-95571668D01*
X76203352Y-95577677D01*
X76163428Y-95585913D01*
X76139370Y-95596703D01*
X76131314Y-95603314D01*
X76106169Y-95656031D01*
X76092112Y-95741511D01*
X76088980Y-95842981D01*
X76096609Y-95943663D01*
X76114835Y-96026785D01*
X76135850Y-96068102D01*
X76150898Y-96083817D01*
X76170632Y-96096168D01*
X76201000Y-96105633D01*
X76247949Y-96112691D01*
X76317428Y-96117821D01*
X76415384Y-96121502D01*
X76547764Y-96124212D01*
X76720518Y-96126431D01*
X76880832Y-96128066D01*
X77581364Y-96134900D01*
X77674608Y-96206063D01*
X77743621Y-96265317D01*
X77791273Y-96326839D01*
X77821313Y-96401597D01*
X77837493Y-96500557D01*
X77843562Y-96634686D01*
X77844000Y-96701382D01*
X77840015Y-96853911D01*
X77825234Y-96967429D01*
X77795411Y-97053302D01*
X77746303Y-97122894D01*
X77673666Y-97187571D01*
X77658039Y-97199364D01*
X77634965Y-97214837D01*
X77608244Y-97227052D01*
X77571839Y-97236457D01*
X77519711Y-97243495D01*
X77445823Y-97248614D01*
X77344135Y-97252258D01*
X77208611Y-97254875D01*
X77033211Y-97256909D01*
X76857939Y-97258434D01*
X76632934Y-97259753D01*
X76453326Y-97259515D01*
X76313732Y-97257527D01*
X76208768Y-97253594D01*
X76133049Y-97247522D01*
X76081192Y-97239117D01*
X76050229Y-97229289D01*
X75958112Y-97165027D01*
X75879998Y-97068237D01*
X75829134Y-96957182D01*
X75819066Y-96910550D01*
X75805311Y-96808000D01*
X75948355Y-96808000D01*
X76033733Y-96811276D01*
X76078216Y-96822809D01*
X76091388Y-96845150D01*
X76091400Y-96846100D01*
X76108214Y-96891171D01*
X76142200Y-96935000D01*
X76160407Y-96950704D01*
X76183927Y-96962795D01*
X76219106Y-96971743D01*
X76272292Y-96978019D01*
X76349834Y-96982091D01*
X76458079Y-96984432D01*
X76603375Y-96985510D01*
X76792070Y-96985796D01*
X76828000Y-96985800D01*
X77040571Y-96985796D01*
X77207782Y-96984350D01*
X77335069Y-96979304D01*
X77427865Y-96968505D01*
X77491607Y-96949796D01*
X77531730Y-96921023D01*
X77553668Y-96880030D01*
X77562856Y-96824662D01*
X77564730Y-96752763D01*
X77564600Y-96693700D01*
X77564756Y-96611677D01*
X77561715Y-96546624D01*
X77550210Y-96496579D01*
X77524976Y-96459579D01*
X77480747Y-96433661D01*
X77412256Y-96416862D01*
X77314238Y-96407219D01*
X77181427Y-96402769D01*
X77008557Y-96401550D01*
X76790362Y-96401599D01*
X76780956Y-96401600D01*
X76576890Y-96401466D01*
X76417243Y-96400747D01*
X76295635Y-96398967D01*
X76205685Y-96395650D01*
X76141011Y-96390320D01*
X76095234Y-96382501D01*
X76061973Y-96371717D01*
X76034846Y-96357492D01*
X76014941Y-96344450D01*
X75937843Y-96286539D01*
X75884393Y-96228452D01*
X75850027Y-96158986D01*
X75830183Y-96066942D01*
X75820298Y-95941119D01*
X75817615Y-95860083D01*
X75815420Y-95732376D01*
X75817460Y-95643044D01*
X75825373Y-95579727D01*
X75840793Y-95530067D01*
X75865358Y-95481705D01*
X75868415Y-95476405D01*
X75946647Y-95382351D01*
X76038245Y-95317655D01*
X76073500Y-95299918D01*
X76108319Y-95286148D01*
X76149370Y-95275849D01*
X76203320Y-95268526D01*
X76276836Y-95263685D01*
X76376584Y-95260829D01*
X76509233Y-95259463D01*
X76681449Y-95259093D01*
X76825645Y-95259157D01*
G36*
X80150317Y-95404649D02*
X80142700Y-95550700D01*
X79306677Y-95557402D01*
X79038933Y-95560361D01*
X78821211Y-95564562D01*
X78652745Y-95570035D01*
X78532772Y-95576810D01*
X78460527Y-95584919D01*
X78436727Y-95592262D01*
X78425810Y-95611801D01*
X78417356Y-95653549D01*
X78411104Y-95722665D01*
X78406794Y-95824311D01*
X78404164Y-95963645D01*
X78402954Y-96145829D01*
X78402800Y-96263569D01*
X78402911Y-96460673D01*
X78403586Y-96613169D01*
X78405338Y-96727250D01*
X78408678Y-96809107D01*
X78414118Y-96864935D01*
X78422170Y-96900923D01*
X78433347Y-96923266D01*
X78448159Y-96938155D01*
X78459251Y-96946259D01*
X78481216Y-96957375D01*
X78515484Y-96966247D01*
X78567378Y-96973114D01*
X78642220Y-96978216D01*
X78745333Y-96981794D01*
X78882038Y-96984089D01*
X79057659Y-96985339D01*
X79277517Y-96985785D01*
X79335551Y-96985800D01*
X80155400Y-96985800D01*
X80155400Y-97265200D01*
X79298150Y-97263589D01*
X79068905Y-97262410D01*
X78863926Y-97259868D01*
X78688186Y-97256111D01*
X78546660Y-97251282D01*
X78444320Y-97245528D01*
X78386143Y-97238994D01*
X78377413Y-97236664D01*
X78311379Y-97199994D01*
X78254349Y-97155724D01*
X78217422Y-97119572D01*
X78188179Y-97083693D01*
X78165723Y-97041926D01*
X78149160Y-96988107D01*
X78137596Y-96916076D01*
X78130134Y-96819670D01*
X78125879Y-96692727D01*
X78123938Y-96529085D01*
X78123414Y-96322582D01*
X78123400Y-96254217D01*
X78123522Y-96045809D01*
X78124188Y-95881952D01*
X78125850Y-95756395D01*
X78128959Y-95662888D01*
X78133965Y-95595181D01*
X78141319Y-95547026D01*
X78151472Y-95512171D01*
X78164875Y-95484368D01*
X78180755Y-95459206D01*
X78239756Y-95394280D01*
X78319993Y-95333493D01*
X78351237Y-95315750D01*
X78383396Y-95300236D01*
X78415731Y-95287818D01*
X78454023Y-95278151D01*
X78504052Y-95270891D01*
X78571600Y-95265694D01*
X78662447Y-95262215D01*
X78782373Y-95260111D01*
X78937161Y-95259036D01*
X79132590Y-95258648D01*
X79311149Y-95258599D01*
X80157935Y-95258599D01*
X80150317Y-95404649D01*
X80150317Y-95404649D01*
G37*
X80150317Y-95404649D02*
X80142700Y-95550700D01*
X79306677Y-95557402D01*
X79038933Y-95560361D01*
X78821211Y-95564562D01*
X78652745Y-95570035D01*
X78532772Y-95576810D01*
X78460527Y-95584919D01*
X78436727Y-95592262D01*
X78425810Y-95611801D01*
X78417356Y-95653549D01*
X78411104Y-95722665D01*
X78406794Y-95824311D01*
X78404164Y-95963645D01*
X78402954Y-96145829D01*
X78402800Y-96263569D01*
X78402911Y-96460673D01*
X78403586Y-96613169D01*
X78405338Y-96727250D01*
X78408678Y-96809107D01*
X78414118Y-96864935D01*
X78422170Y-96900923D01*
X78433347Y-96923266D01*
X78448159Y-96938155D01*
X78459251Y-96946259D01*
X78481216Y-96957375D01*
X78515484Y-96966247D01*
X78567378Y-96973114D01*
X78642220Y-96978216D01*
X78745333Y-96981794D01*
X78882038Y-96984089D01*
X79057659Y-96985339D01*
X79277517Y-96985785D01*
X79335551Y-96985800D01*
X80155400Y-96985800D01*
X80155400Y-97265200D01*
X79298150Y-97263589D01*
X79068905Y-97262410D01*
X78863926Y-97259868D01*
X78688186Y-97256111D01*
X78546660Y-97251282D01*
X78444320Y-97245528D01*
X78386143Y-97238994D01*
X78377413Y-97236664D01*
X78311379Y-97199994D01*
X78254349Y-97155724D01*
X78217422Y-97119572D01*
X78188179Y-97083693D01*
X78165723Y-97041926D01*
X78149160Y-96988107D01*
X78137596Y-96916076D01*
X78130134Y-96819670D01*
X78125879Y-96692727D01*
X78123938Y-96529085D01*
X78123414Y-96322582D01*
X78123400Y-96254217D01*
X78123522Y-96045809D01*
X78124188Y-95881952D01*
X78125850Y-95756395D01*
X78128959Y-95662888D01*
X78133965Y-95595181D01*
X78141319Y-95547026D01*
X78151472Y-95512171D01*
X78164875Y-95484368D01*
X78180755Y-95459206D01*
X78239756Y-95394280D01*
X78319993Y-95333493D01*
X78351237Y-95315750D01*
X78383396Y-95300236D01*
X78415731Y-95287818D01*
X78454023Y-95278151D01*
X78504052Y-95270891D01*
X78571600Y-95265694D01*
X78662447Y-95262215D01*
X78782373Y-95260111D01*
X78937161Y-95259036D01*
X79132590Y-95258648D01*
X79311149Y-95258599D01*
X80157935Y-95258599D01*
X80150317Y-95404649D01*
G36*
X80790400Y-97265200D02*
X80511000Y-97265200D01*
X80511000Y-95258600D01*
X80790400Y-95258600D01*
X80790400Y-97265200D01*
X80790400Y-97265200D01*
G37*
X80790400Y-97265200D02*
X80511000Y-97265200D01*
X80511000Y-95258600D01*
X80790400Y-95258600D01*
X80790400Y-97265200D01*
G36*
X83305000Y-95258600D02*
X84008180Y-95258600D01*
X84217003Y-95258799D01*
X84381533Y-95259683D01*
X84508276Y-95261676D01*
X84603737Y-95265205D01*
X84674424Y-95270696D01*
X84726843Y-95278574D01*
X84767499Y-95289266D01*
X84802898Y-95303197D01*
X84821339Y-95311839D01*
X84934558Y-95393421D01*
X84995601Y-95474770D01*
X85059884Y-95584462D01*
X85052392Y-96293511D01*
X85044900Y-97002561D01*
X84976483Y-97092206D01*
X84941558Y-97136442D01*
X84907434Y-97172412D01*
X84868687Y-97200971D01*
X84819896Y-97222973D01*
X84755639Y-97239274D01*
X84670493Y-97250727D01*
X84559037Y-97258188D01*
X84415847Y-97262511D01*
X84235501Y-97264551D01*
X84012579Y-97265162D01*
X83879011Y-97265200D01*
X83025600Y-97265200D01*
X83025600Y-96284189D01*
X83305000Y-96284189D01*
X83305120Y-96477750D01*
X83305838Y-96626818D01*
X83307694Y-96737700D01*
X83311223Y-96816703D01*
X83316965Y-96870133D01*
X83325456Y-96904298D01*
X83337235Y-96925505D01*
X83352839Y-96940060D01*
X83361451Y-96946259D01*
X83386491Y-96958854D01*
X83425259Y-96968543D01*
X83483899Y-96975680D01*
X83568557Y-96980620D01*
X83685378Y-96983717D01*
X83840506Y-96985325D01*
X84040088Y-96985799D01*
X84047251Y-96985800D01*
X84242794Y-96985596D01*
X84393918Y-96984667D01*
X84507004Y-96982537D01*
X84588433Y-96978728D01*
X84644585Y-96972765D01*
X84681843Y-96964170D01*
X84706585Y-96952468D01*
X84725193Y-96937180D01*
X84727400Y-96935000D01*
X84743343Y-96916477D01*
X84755556Y-96892540D01*
X84764533Y-96856716D01*
X84770770Y-96802533D01*
X84774760Y-96723516D01*
X84776999Y-96613193D01*
X84777980Y-96465092D01*
X84778199Y-96272738D01*
X84778200Y-96270250D01*
X84777831Y-96074535D01*
X84776460Y-95923335D01*
X84773685Y-95810365D01*
X84769107Y-95729342D01*
X84762326Y-95673985D01*
X84752942Y-95638009D01*
X84740555Y-95615132D01*
X84736163Y-95609850D01*
X84720056Y-95595769D01*
X84696279Y-95584844D01*
X84658777Y-95576680D01*
X84601497Y-95570880D01*
X84518382Y-95567048D01*
X84403380Y-95564788D01*
X84250434Y-95563705D01*
X84053491Y-95563402D01*
X84025856Y-95563400D01*
X83824044Y-95563574D01*
X83667095Y-95564377D01*
X83549074Y-95566229D01*
X83464046Y-95569550D01*
X83406076Y-95574759D01*
X83369226Y-95582276D01*
X83347563Y-95592522D01*
X83335149Y-95605916D01*
X83331293Y-95612530D01*
X83322738Y-95654384D01*
X83315653Y-95742329D01*
X83310221Y-95871671D01*
X83306628Y-96037715D01*
X83305056Y-96235769D01*
X83305000Y-96284189D01*
X83025600Y-96284189D01*
X83025600Y-94598200D01*
X83305000Y-94598200D01*
X83305000Y-95258600D01*
X83305000Y-95258600D01*
G37*
X83305000Y-95258600D02*
X84008180Y-95258600D01*
X84217003Y-95258799D01*
X84381533Y-95259683D01*
X84508276Y-95261676D01*
X84603737Y-95265205D01*
X84674424Y-95270696D01*
X84726843Y-95278574D01*
X84767499Y-95289266D01*
X84802898Y-95303197D01*
X84821339Y-95311839D01*
X84934558Y-95393421D01*
X84995601Y-95474770D01*
X85059884Y-95584462D01*
X85052392Y-96293511D01*
X85044900Y-97002561D01*
X84976483Y-97092206D01*
X84941558Y-97136442D01*
X84907434Y-97172412D01*
X84868687Y-97200971D01*
X84819896Y-97222973D01*
X84755639Y-97239274D01*
X84670493Y-97250727D01*
X84559037Y-97258188D01*
X84415847Y-97262511D01*
X84235501Y-97264551D01*
X84012579Y-97265162D01*
X83879011Y-97265200D01*
X83025600Y-97265200D01*
X83025600Y-96284189D01*
X83305000Y-96284189D01*
X83305120Y-96477750D01*
X83305838Y-96626818D01*
X83307694Y-96737700D01*
X83311223Y-96816703D01*
X83316965Y-96870133D01*
X83325456Y-96904298D01*
X83337235Y-96925505D01*
X83352839Y-96940060D01*
X83361451Y-96946259D01*
X83386491Y-96958854D01*
X83425259Y-96968543D01*
X83483899Y-96975680D01*
X83568557Y-96980620D01*
X83685378Y-96983717D01*
X83840506Y-96985325D01*
X84040088Y-96985799D01*
X84047251Y-96985800D01*
X84242794Y-96985596D01*
X84393918Y-96984667D01*
X84507004Y-96982537D01*
X84588433Y-96978728D01*
X84644585Y-96972765D01*
X84681843Y-96964170D01*
X84706585Y-96952468D01*
X84725193Y-96937180D01*
X84727400Y-96935000D01*
X84743343Y-96916477D01*
X84755556Y-96892540D01*
X84764533Y-96856716D01*
X84770770Y-96802533D01*
X84774760Y-96723516D01*
X84776999Y-96613193D01*
X84777980Y-96465092D01*
X84778199Y-96272738D01*
X84778200Y-96270250D01*
X84777831Y-96074535D01*
X84776460Y-95923335D01*
X84773685Y-95810365D01*
X84769107Y-95729342D01*
X84762326Y-95673985D01*
X84752942Y-95638009D01*
X84740555Y-95615132D01*
X84736163Y-95609850D01*
X84720056Y-95595769D01*
X84696279Y-95584844D01*
X84658777Y-95576680D01*
X84601497Y-95570880D01*
X84518382Y-95567048D01*
X84403380Y-95564788D01*
X84250434Y-95563705D01*
X84053491Y-95563402D01*
X84025856Y-95563400D01*
X83824044Y-95563574D01*
X83667095Y-95564377D01*
X83549074Y-95566229D01*
X83464046Y-95569550D01*
X83406076Y-95574759D01*
X83369226Y-95582276D01*
X83347563Y-95592522D01*
X83335149Y-95605916D01*
X83331293Y-95612530D01*
X83322738Y-95654384D01*
X83315653Y-95742329D01*
X83310221Y-95871671D01*
X83306628Y-96037715D01*
X83305056Y-96235769D01*
X83305000Y-96284189D01*
X83025600Y-96284189D01*
X83025600Y-94598200D01*
X83305000Y-94598200D01*
X83305000Y-95258600D01*
G36*
X86529680Y-95259209D02*
X86689333Y-95260045D01*
X86811592Y-95262113D01*
X86903160Y-95265865D01*
X86970737Y-95271749D01*
X87021028Y-95280217D01*
X87060735Y-95291717D01*
X87096559Y-95306700D01*
X87106803Y-95311580D01*
X87187610Y-95362248D01*
X87257326Y-95424887D01*
X87273572Y-95444930D01*
X87290077Y-95469421D01*
X87303065Y-95495317D01*
X87312958Y-95528652D01*
X87320177Y-95575459D01*
X87325143Y-95641770D01*
X87328277Y-95733619D01*
X87330000Y-95857039D01*
X87330733Y-96018062D01*
X87330898Y-96222723D01*
X87330900Y-96266387D01*
X87330750Y-96480400D01*
X87330043Y-96649577D01*
X87328394Y-96779884D01*
X87325419Y-96877284D01*
X87320732Y-96947742D01*
X87313949Y-96997221D01*
X87304683Y-97031688D01*
X87292550Y-97057105D01*
X87278530Y-97077617D01*
X87218051Y-97145431D01*
X87156070Y-97200130D01*
X87133301Y-97215388D01*
X87106510Y-97227438D01*
X87069670Y-97236719D01*
X87016756Y-97243671D01*
X86941745Y-97248734D01*
X86838610Y-97252348D01*
X86701328Y-97254953D01*
X86523872Y-97256989D01*
X86357539Y-97258434D01*
X86130971Y-97259735D01*
X85949969Y-97259428D01*
X85809321Y-97257327D01*
X85703814Y-97253249D01*
X85628235Y-97247010D01*
X85577371Y-97238428D01*
X85551640Y-97230050D01*
X85459995Y-97168723D01*
X85381337Y-97079639D01*
X85331088Y-96981539D01*
X85323887Y-96953302D01*
X85320099Y-96906316D01*
X85317250Y-96816255D01*
X85315415Y-96690837D01*
X85314670Y-96537779D01*
X85315090Y-96364798D01*
X85315882Y-96272930D01*
X85591000Y-96272930D01*
X85591215Y-96465365D01*
X85592192Y-96613491D01*
X85594430Y-96723797D01*
X85598426Y-96802771D01*
X85604678Y-96856905D01*
X85613685Y-96892686D01*
X85625943Y-96916605D01*
X85641800Y-96935000D01*
X85660007Y-96950704D01*
X85683527Y-96962795D01*
X85718706Y-96971743D01*
X85771892Y-96978019D01*
X85849434Y-96982091D01*
X85957679Y-96984432D01*
X86102975Y-96985510D01*
X86291670Y-96985796D01*
X86327600Y-96985800D01*
X86524105Y-96985599D01*
X86676159Y-96984685D01*
X86790109Y-96982586D01*
X86872303Y-96978834D01*
X86929090Y-96972956D01*
X86966816Y-96964484D01*
X86991830Y-96952946D01*
X87010479Y-96937874D01*
X87013400Y-96935000D01*
X87029343Y-96916477D01*
X87041556Y-96892540D01*
X87050533Y-96856716D01*
X87056770Y-96802533D01*
X87060760Y-96723516D01*
X87062999Y-96613193D01*
X87063980Y-96465092D01*
X87064199Y-96272738D01*
X87064200Y-96270250D01*
X87063831Y-96074535D01*
X87062460Y-95923335D01*
X87059685Y-95810365D01*
X87055107Y-95729342D01*
X87048326Y-95673985D01*
X87038942Y-95638009D01*
X87026555Y-95615132D01*
X87022163Y-95609850D01*
X87006056Y-95595769D01*
X86982279Y-95584844D01*
X86944777Y-95576680D01*
X86887497Y-95570880D01*
X86804382Y-95567048D01*
X86689380Y-95564788D01*
X86536434Y-95563705D01*
X86339491Y-95563402D01*
X86311856Y-95563400D01*
X86110044Y-95563574D01*
X85953095Y-95564377D01*
X85835074Y-95566229D01*
X85750046Y-95569550D01*
X85692076Y-95574759D01*
X85655226Y-95582276D01*
X85633563Y-95592522D01*
X85621149Y-95605916D01*
X85617293Y-95612530D01*
X85608694Y-95654446D01*
X85601577Y-95742306D01*
X85596133Y-95871270D01*
X85592557Y-96036498D01*
X85591039Y-96233152D01*
X85591000Y-96272930D01*
X85315882Y-96272930D01*
X85316526Y-96198400D01*
X85318979Y-95996036D01*
X85321493Y-95838033D01*
X85324650Y-95717956D01*
X85329034Y-95629368D01*
X85335227Y-95565833D01*
X85343815Y-95520916D01*
X85355379Y-95488181D01*
X85370503Y-95461191D01*
X85385287Y-95439790D01*
X85424108Y-95389640D01*
X85465224Y-95349728D01*
X85514699Y-95318888D01*
X85578598Y-95295956D01*
X85662985Y-95279767D01*
X85773924Y-95269158D01*
X85917481Y-95262963D01*
X86099719Y-95260017D01*
X86325930Y-95259157D01*
X86529680Y-95259209D01*
X86529680Y-95259209D01*
G37*
X86529680Y-95259209D02*
X86689333Y-95260045D01*
X86811592Y-95262113D01*
X86903160Y-95265865D01*
X86970737Y-95271749D01*
X87021028Y-95280217D01*
X87060735Y-95291717D01*
X87096559Y-95306700D01*
X87106803Y-95311580D01*
X87187610Y-95362248D01*
X87257326Y-95424887D01*
X87273572Y-95444930D01*
X87290077Y-95469421D01*
X87303065Y-95495317D01*
X87312958Y-95528652D01*
X87320177Y-95575459D01*
X87325143Y-95641770D01*
X87328277Y-95733619D01*
X87330000Y-95857039D01*
X87330733Y-96018062D01*
X87330898Y-96222723D01*
X87330900Y-96266387D01*
X87330750Y-96480400D01*
X87330043Y-96649577D01*
X87328394Y-96779884D01*
X87325419Y-96877284D01*
X87320732Y-96947742D01*
X87313949Y-96997221D01*
X87304683Y-97031688D01*
X87292550Y-97057105D01*
X87278530Y-97077617D01*
X87218051Y-97145431D01*
X87156070Y-97200130D01*
X87133301Y-97215388D01*
X87106510Y-97227438D01*
X87069670Y-97236719D01*
X87016756Y-97243671D01*
X86941745Y-97248734D01*
X86838610Y-97252348D01*
X86701328Y-97254953D01*
X86523872Y-97256989D01*
X86357539Y-97258434D01*
X86130971Y-97259735D01*
X85949969Y-97259428D01*
X85809321Y-97257327D01*
X85703814Y-97253249D01*
X85628235Y-97247010D01*
X85577371Y-97238428D01*
X85551640Y-97230050D01*
X85459995Y-97168723D01*
X85381337Y-97079639D01*
X85331088Y-96981539D01*
X85323887Y-96953302D01*
X85320099Y-96906316D01*
X85317250Y-96816255D01*
X85315415Y-96690837D01*
X85314670Y-96537779D01*
X85315090Y-96364798D01*
X85315882Y-96272930D01*
X85591000Y-96272930D01*
X85591215Y-96465365D01*
X85592192Y-96613491D01*
X85594430Y-96723797D01*
X85598426Y-96802771D01*
X85604678Y-96856905D01*
X85613685Y-96892686D01*
X85625943Y-96916605D01*
X85641800Y-96935000D01*
X85660007Y-96950704D01*
X85683527Y-96962795D01*
X85718706Y-96971743D01*
X85771892Y-96978019D01*
X85849434Y-96982091D01*
X85957679Y-96984432D01*
X86102975Y-96985510D01*
X86291670Y-96985796D01*
X86327600Y-96985800D01*
X86524105Y-96985599D01*
X86676159Y-96984685D01*
X86790109Y-96982586D01*
X86872303Y-96978834D01*
X86929090Y-96972956D01*
X86966816Y-96964484D01*
X86991830Y-96952946D01*
X87010479Y-96937874D01*
X87013400Y-96935000D01*
X87029343Y-96916477D01*
X87041556Y-96892540D01*
X87050533Y-96856716D01*
X87056770Y-96802533D01*
X87060760Y-96723516D01*
X87062999Y-96613193D01*
X87063980Y-96465092D01*
X87064199Y-96272738D01*
X87064200Y-96270250D01*
X87063831Y-96074535D01*
X87062460Y-95923335D01*
X87059685Y-95810365D01*
X87055107Y-95729342D01*
X87048326Y-95673985D01*
X87038942Y-95638009D01*
X87026555Y-95615132D01*
X87022163Y-95609850D01*
X87006056Y-95595769D01*
X86982279Y-95584844D01*
X86944777Y-95576680D01*
X86887497Y-95570880D01*
X86804382Y-95567048D01*
X86689380Y-95564788D01*
X86536434Y-95563705D01*
X86339491Y-95563402D01*
X86311856Y-95563400D01*
X86110044Y-95563574D01*
X85953095Y-95564377D01*
X85835074Y-95566229D01*
X85750046Y-95569550D01*
X85692076Y-95574759D01*
X85655226Y-95582276D01*
X85633563Y-95592522D01*
X85621149Y-95605916D01*
X85617293Y-95612530D01*
X85608694Y-95654446D01*
X85601577Y-95742306D01*
X85596133Y-95871270D01*
X85592557Y-96036498D01*
X85591039Y-96233152D01*
X85591000Y-96272930D01*
X85315882Y-96272930D01*
X85316526Y-96198400D01*
X85318979Y-95996036D01*
X85321493Y-95838033D01*
X85324650Y-95717956D01*
X85329034Y-95629368D01*
X85335227Y-95565833D01*
X85343815Y-95520916D01*
X85355379Y-95488181D01*
X85370503Y-95461191D01*
X85385287Y-95439790D01*
X85424108Y-95389640D01*
X85465224Y-95349728D01*
X85514699Y-95318888D01*
X85578598Y-95295956D01*
X85662985Y-95279767D01*
X85773924Y-95269158D01*
X85917481Y-95262963D01*
X86099719Y-95260017D01*
X86325930Y-95259157D01*
X86529680Y-95259209D01*
G36*
X87902400Y-95258600D02*
X88335467Y-95258599D01*
X88768535Y-95258599D01*
X88760917Y-95404649D01*
X88753300Y-95550700D01*
X87902400Y-95564628D01*
X87902400Y-96235673D01*
X87902500Y-96437484D01*
X87903123Y-96594541D01*
X87904748Y-96712892D01*
X87907856Y-96798583D01*
X87912927Y-96857661D01*
X87920441Y-96896173D01*
X87930880Y-96920165D01*
X87944722Y-96935684D01*
X87958851Y-96946259D01*
X87992453Y-96962489D01*
X88044604Y-96973818D01*
X88123385Y-96980986D01*
X88236877Y-96984733D01*
X88390651Y-96985800D01*
X88766000Y-96985800D01*
X88766000Y-97265200D01*
X88353250Y-97263589D01*
X88208806Y-97261519D01*
X88078215Y-97256848D01*
X87971729Y-97250156D01*
X87899602Y-97242023D01*
X87877013Y-97236664D01*
X87810979Y-97199994D01*
X87753949Y-97155724D01*
X87724250Y-97127602D01*
X87699419Y-97100459D01*
X87679021Y-97069722D01*
X87662618Y-97030815D01*
X87649777Y-96979164D01*
X87640060Y-96910194D01*
X87633034Y-96819330D01*
X87628261Y-96701999D01*
X87625307Y-96553625D01*
X87623736Y-96369634D01*
X87623111Y-96145451D01*
X87622999Y-95876502D01*
X87623000Y-95780561D01*
X87623000Y-94598200D01*
X87902400Y-94598200D01*
X87902400Y-95258600D01*
X87902400Y-95258600D01*
G37*
X87902400Y-95258600D02*
X88335467Y-95258599D01*
X88768535Y-95258599D01*
X88760917Y-95404649D01*
X88753300Y-95550700D01*
X87902400Y-95564628D01*
X87902400Y-96235673D01*
X87902500Y-96437484D01*
X87903123Y-96594541D01*
X87904748Y-96712892D01*
X87907856Y-96798583D01*
X87912927Y-96857661D01*
X87920441Y-96896173D01*
X87930880Y-96920165D01*
X87944722Y-96935684D01*
X87958851Y-96946259D01*
X87992453Y-96962489D01*
X88044604Y-96973818D01*
X88123385Y-96980986D01*
X88236877Y-96984733D01*
X88390651Y-96985800D01*
X88766000Y-96985800D01*
X88766000Y-97265200D01*
X88353250Y-97263589D01*
X88208806Y-97261519D01*
X88078215Y-97256848D01*
X87971729Y-97250156D01*
X87899602Y-97242023D01*
X87877013Y-97236664D01*
X87810979Y-97199994D01*
X87753949Y-97155724D01*
X87724250Y-97127602D01*
X87699419Y-97100459D01*
X87679021Y-97069722D01*
X87662618Y-97030815D01*
X87649777Y-96979164D01*
X87640060Y-96910194D01*
X87633034Y-96819330D01*
X87628261Y-96701999D01*
X87625307Y-96553625D01*
X87623736Y-96369634D01*
X87623111Y-96145451D01*
X87622999Y-95876502D01*
X87623000Y-95780561D01*
X87623000Y-94598200D01*
X87902400Y-94598200D01*
X87902400Y-95258600D01*
G36*
X90243079Y-95259671D02*
X90428369Y-95262772D01*
X90578281Y-95267734D01*
X90688195Y-95274387D01*
X90753493Y-95282562D01*
X90764596Y-95285615D01*
X90865739Y-95344597D01*
X90954549Y-95433524D01*
X91019962Y-95537822D01*
X91050913Y-95642916D01*
X91052000Y-95664184D01*
X91046650Y-95692985D01*
X91022830Y-95708547D01*
X90968881Y-95714818D01*
X90899600Y-95715800D01*
X90813755Y-95713637D01*
X90767374Y-95704901D01*
X90749222Y-95686223D01*
X90747200Y-95670080D01*
X90744873Y-95639029D01*
X90734248Y-95614658D01*
X90709854Y-95596162D01*
X90666224Y-95582734D01*
X90597888Y-95573568D01*
X90499377Y-95567859D01*
X90365223Y-95564800D01*
X90189956Y-95563585D01*
X90023300Y-95563399D01*
X89802124Y-95564150D01*
X89628035Y-95566511D01*
X89497341Y-95570644D01*
X89406349Y-95576711D01*
X89351366Y-95584875D01*
X89329880Y-95593879D01*
X89311425Y-95638814D01*
X89300790Y-95718275D01*
X89297673Y-95816642D01*
X89301771Y-95918297D01*
X89312782Y-96007619D01*
X89330406Y-96068989D01*
X89339314Y-96082285D01*
X89357483Y-96094491D01*
X89388526Y-96103984D01*
X89438256Y-96111089D01*
X89512485Y-96116129D01*
X89617028Y-96119430D01*
X89757695Y-96121315D01*
X89940302Y-96122110D01*
X90054632Y-96122199D01*
X90257243Y-96122295D01*
X90415653Y-96122935D01*
X90536461Y-96124652D01*
X90626267Y-96127978D01*
X90691670Y-96133446D01*
X90739270Y-96141586D01*
X90775665Y-96152932D01*
X90807454Y-96168015D01*
X90837778Y-96185340D01*
X90930729Y-96256032D01*
X90994800Y-96346390D01*
X91033453Y-96464671D01*
X91050144Y-96619132D01*
X91051442Y-96695369D01*
X91041728Y-96869577D01*
X91011616Y-97004073D01*
X90958202Y-97106837D01*
X90878579Y-97185850D01*
X90870809Y-97191512D01*
X90845066Y-97209107D01*
X90818772Y-97223007D01*
X90785849Y-97233717D01*
X90740215Y-97241743D01*
X90675790Y-97247591D01*
X90586495Y-97251764D01*
X90466249Y-97254769D01*
X90308972Y-97257111D01*
X90108584Y-97259295D01*
X90047678Y-97259909D01*
X89834935Y-97261965D01*
X89666899Y-97263116D01*
X89537481Y-97262983D01*
X89440590Y-97261185D01*
X89370136Y-97257344D01*
X89320031Y-97251080D01*
X89284183Y-97242013D01*
X89256503Y-97229764D01*
X89230901Y-97213954D01*
X89222783Y-97208505D01*
X89125281Y-97122950D01*
X89055170Y-97021538D01*
X89021608Y-96918514D01*
X89020000Y-96893143D01*
X89020000Y-96808000D01*
X89159700Y-96808000D01*
X89240604Y-96810291D01*
X89282746Y-96819980D01*
X89298066Y-96841282D01*
X89299400Y-96857359D01*
X89318858Y-96908196D01*
X89355851Y-96946259D01*
X89401022Y-96960210D01*
X89487195Y-96971529D01*
X89605758Y-96980216D01*
X89748100Y-96986275D01*
X89905610Y-96989709D01*
X90069674Y-96990519D01*
X90231683Y-96988707D01*
X90383023Y-96984277D01*
X90515084Y-96977231D01*
X90619253Y-96967570D01*
X90686919Y-96955298D01*
X90707285Y-96945885D01*
X90728865Y-96908970D01*
X90741523Y-96844818D01*
X90746805Y-96743645D01*
X90747200Y-96693325D01*
X90747427Y-96610758D01*
X90744572Y-96545420D01*
X90733322Y-96495298D01*
X90708371Y-96458383D01*
X90664407Y-96432663D01*
X90596122Y-96416127D01*
X90498205Y-96406764D01*
X90365349Y-96402562D01*
X90192243Y-96401511D01*
X89977037Y-96401600D01*
X89757211Y-96401065D01*
X89582014Y-96398710D01*
X89445281Y-96393412D01*
X89340844Y-96384045D01*
X89262537Y-96369485D01*
X89204195Y-96348607D01*
X89159650Y-96320288D01*
X89122738Y-96283402D01*
X89089349Y-96239718D01*
X89064603Y-96199402D01*
X89047634Y-96153153D01*
X89036590Y-96089996D01*
X89029616Y-95998952D01*
X89024861Y-95869044D01*
X89024490Y-95855500D01*
X89021665Y-95724502D01*
X89022480Y-95633051D01*
X89028388Y-95569938D01*
X89040840Y-95523958D01*
X89061289Y-95483903D01*
X89075495Y-95461800D01*
X89135842Y-95395097D01*
X89216984Y-95333297D01*
X89247837Y-95315749D01*
X89284122Y-95298447D01*
X89320620Y-95285039D01*
X89364085Y-95275030D01*
X89421272Y-95267925D01*
X89498935Y-95263227D01*
X89603831Y-95260443D01*
X89742713Y-95259076D01*
X89922337Y-95258631D01*
X90027028Y-95258599D01*
X90243079Y-95259671D01*
X90243079Y-95259671D01*
G37*
X90243079Y-95259671D02*
X90428369Y-95262772D01*
X90578281Y-95267734D01*
X90688195Y-95274387D01*
X90753493Y-95282562D01*
X90764596Y-95285615D01*
X90865739Y-95344597D01*
X90954549Y-95433524D01*
X91019962Y-95537822D01*
X91050913Y-95642916D01*
X91052000Y-95664184D01*
X91046650Y-95692985D01*
X91022830Y-95708547D01*
X90968881Y-95714818D01*
X90899600Y-95715800D01*
X90813755Y-95713637D01*
X90767374Y-95704901D01*
X90749222Y-95686223D01*
X90747200Y-95670080D01*
X90744873Y-95639029D01*
X90734248Y-95614658D01*
X90709854Y-95596162D01*
X90666224Y-95582734D01*
X90597888Y-95573568D01*
X90499377Y-95567859D01*
X90365223Y-95564800D01*
X90189956Y-95563585D01*
X90023300Y-95563399D01*
X89802124Y-95564150D01*
X89628035Y-95566511D01*
X89497341Y-95570644D01*
X89406349Y-95576711D01*
X89351366Y-95584875D01*
X89329880Y-95593879D01*
X89311425Y-95638814D01*
X89300790Y-95718275D01*
X89297673Y-95816642D01*
X89301771Y-95918297D01*
X89312782Y-96007619D01*
X89330406Y-96068989D01*
X89339314Y-96082285D01*
X89357483Y-96094491D01*
X89388526Y-96103984D01*
X89438256Y-96111089D01*
X89512485Y-96116129D01*
X89617028Y-96119430D01*
X89757695Y-96121315D01*
X89940302Y-96122110D01*
X90054632Y-96122199D01*
X90257243Y-96122295D01*
X90415653Y-96122935D01*
X90536461Y-96124652D01*
X90626267Y-96127978D01*
X90691670Y-96133446D01*
X90739270Y-96141586D01*
X90775665Y-96152932D01*
X90807454Y-96168015D01*
X90837778Y-96185340D01*
X90930729Y-96256032D01*
X90994800Y-96346390D01*
X91033453Y-96464671D01*
X91050144Y-96619132D01*
X91051442Y-96695369D01*
X91041728Y-96869577D01*
X91011616Y-97004073D01*
X90958202Y-97106837D01*
X90878579Y-97185850D01*
X90870809Y-97191512D01*
X90845066Y-97209107D01*
X90818772Y-97223007D01*
X90785849Y-97233717D01*
X90740215Y-97241743D01*
X90675790Y-97247591D01*
X90586495Y-97251764D01*
X90466249Y-97254769D01*
X90308972Y-97257111D01*
X90108584Y-97259295D01*
X90047678Y-97259909D01*
X89834935Y-97261965D01*
X89666899Y-97263116D01*
X89537481Y-97262983D01*
X89440590Y-97261185D01*
X89370136Y-97257344D01*
X89320031Y-97251080D01*
X89284183Y-97242013D01*
X89256503Y-97229764D01*
X89230901Y-97213954D01*
X89222783Y-97208505D01*
X89125281Y-97122950D01*
X89055170Y-97021538D01*
X89021608Y-96918514D01*
X89020000Y-96893143D01*
X89020000Y-96808000D01*
X89159700Y-96808000D01*
X89240604Y-96810291D01*
X89282746Y-96819980D01*
X89298066Y-96841282D01*
X89299400Y-96857359D01*
X89318858Y-96908196D01*
X89355851Y-96946259D01*
X89401022Y-96960210D01*
X89487195Y-96971529D01*
X89605758Y-96980216D01*
X89748100Y-96986275D01*
X89905610Y-96989709D01*
X90069674Y-96990519D01*
X90231683Y-96988707D01*
X90383023Y-96984277D01*
X90515084Y-96977231D01*
X90619253Y-96967570D01*
X90686919Y-96955298D01*
X90707285Y-96945885D01*
X90728865Y-96908970D01*
X90741523Y-96844818D01*
X90746805Y-96743645D01*
X90747200Y-96693325D01*
X90747427Y-96610758D01*
X90744572Y-96545420D01*
X90733322Y-96495298D01*
X90708371Y-96458383D01*
X90664407Y-96432663D01*
X90596122Y-96416127D01*
X90498205Y-96406764D01*
X90365349Y-96402562D01*
X90192243Y-96401511D01*
X89977037Y-96401600D01*
X89757211Y-96401065D01*
X89582014Y-96398710D01*
X89445281Y-96393412D01*
X89340844Y-96384045D01*
X89262537Y-96369485D01*
X89204195Y-96348607D01*
X89159650Y-96320288D01*
X89122738Y-96283402D01*
X89089349Y-96239718D01*
X89064603Y-96199402D01*
X89047634Y-96153153D01*
X89036590Y-96089996D01*
X89029616Y-95998952D01*
X89024861Y-95869044D01*
X89024490Y-95855500D01*
X89021665Y-95724502D01*
X89022480Y-95633051D01*
X89028388Y-95569938D01*
X89040840Y-95523958D01*
X89061289Y-95483903D01*
X89075495Y-95461800D01*
X89135842Y-95395097D01*
X89216984Y-95333297D01*
X89247837Y-95315749D01*
X89284122Y-95298447D01*
X89320620Y-95285039D01*
X89364085Y-95275030D01*
X89421272Y-95267925D01*
X89498935Y-95263227D01*
X89603831Y-95260443D01*
X89742713Y-95259076D01*
X89922337Y-95258631D01*
X90027028Y-95258599D01*
X90243079Y-95259671D01*
G36*
X82593800Y-96401600D02*
X81937633Y-96401600D01*
X81759945Y-96400969D01*
X81599214Y-96399195D01*
X81462364Y-96396450D01*
X81356317Y-96392909D01*
X81287995Y-96388746D01*
X81264533Y-96384666D01*
X81255020Y-96351597D01*
X81248877Y-96285018D01*
X81247600Y-96232266D01*
X81247600Y-96096800D01*
X82593800Y-96096800D01*
X82593800Y-96401600D01*
X82593800Y-96401600D01*
G37*
X82593800Y-96401600D02*
X81937633Y-96401600D01*
X81759945Y-96400969D01*
X81599214Y-96399195D01*
X81462364Y-96396450D01*
X81356317Y-96392909D01*
X81287995Y-96388746D01*
X81264533Y-96384666D01*
X81255020Y-96351597D01*
X81248877Y-96285018D01*
X81247600Y-96232266D01*
X81247600Y-96096800D01*
X82593800Y-96096800D01*
X82593800Y-96401600D01*
G36*
X80790400Y-94903000D02*
X80511000Y-94903000D01*
X80511000Y-94598200D01*
X80790400Y-94598200D01*
X80790400Y-94903000D01*
X80790400Y-94903000D01*
G37*
X80790400Y-94903000D02*
X80511000Y-94903000D01*
X80511000Y-94598200D01*
X80790400Y-94598200D01*
X80790400Y-94903000D01*
G36*
X71409491Y-94374816D02*
X71398569Y-94390562D01*
X71395751Y-94392390D01*
X71350072Y-94434171D01*
X71338990Y-94449151D01*
X71322233Y-94463709D01*
X71316647Y-94431454D01*
X71316588Y-94426750D01*
X71329804Y-94381430D01*
X71373350Y-94369988D01*
X71409491Y-94374816D01*
X71409491Y-94374816D01*
G37*
X71409491Y-94374816D02*
X71398569Y-94390562D01*
X71395751Y-94392390D01*
X71350072Y-94434171D01*
X71338990Y-94449151D01*
X71322233Y-94463709D01*
X71316647Y-94431454D01*
X71316588Y-94426750D01*
X71329804Y-94381430D01*
X71373350Y-94369988D01*
X71409491Y-94374816D01*
G36*
X91500851Y-94387560D02*
X91509200Y-94420400D01*
X91507328Y-94459448D01*
X91494521Y-94461771D01*
X91459989Y-94426970D01*
X91452050Y-94418283D01*
X91422697Y-94382680D01*
X91430261Y-94370763D01*
X91458400Y-94369600D01*
X91500851Y-94387560D01*
X91500851Y-94387560D01*
G37*
X91500851Y-94387560D02*
X91509200Y-94420400D01*
X91507328Y-94459448D01*
X91494521Y-94461771D01*
X91459989Y-94426970D01*
X91452050Y-94418283D01*
X91422697Y-94382680D01*
X91430261Y-94370763D01*
X91458400Y-94369600D01*
X91500851Y-94387560D01*
D13*
X105910900Y-63160200D02*
X105910900Y-61737800D01*
X105199700Y-62449000D02*
X106622100Y-62449000D01*
X106413794Y-62449000D02*
G75*
G03X106413794Y-62449000I-502894J0D01*
G01*
X104389440Y-63592000D02*
X104389440Y-61306000D01*
X106164900Y-63592000D02*
X104389440Y-63592000D01*
X106164900Y-65306500D02*
X106164900Y-63592000D01*
X106672900Y-60417000D02*
X106672900Y-59591500D01*
X106164900Y-60417000D02*
X106672900Y-60417000D01*
X106164900Y-61306000D02*
X106164900Y-60417000D01*
X104389440Y-61306000D02*
X106164900Y-61306000D01*
X106672900Y-59591500D02*
X139311900Y-59591500D01*
X139311900Y-59591500D02*
X139311900Y-61306000D01*
X139311900Y-61306000D02*
X141087360Y-61306000D01*
X141087360Y-61306000D02*
X141087360Y-63592000D01*
X141087360Y-63592000D02*
X139311900Y-63592000D01*
X139311900Y-63592000D02*
X139311900Y-65306500D01*
X139311900Y-65306500D02*
X106164900Y-65306500D01*
X140068794Y-62449000D02*
G75*
G03X140068794Y-62449000I-502894J0D01*
G01*
X138854700Y-62449000D02*
X140277100Y-62449000D01*
X139565900Y-63160200D02*
X139565900Y-61737800D01*
X105910900Y-76760200D02*
X105910900Y-75337800D01*
X105199700Y-76049000D02*
X106622100Y-76049000D01*
X106413794Y-76049000D02*
G75*
G03X106413794Y-76049000I-502894J0D01*
G01*
X104389440Y-77192000D02*
X104389440Y-74906000D01*
X106164900Y-77192000D02*
X104389440Y-77192000D01*
X106164900Y-78906500D02*
X106164900Y-77192000D01*
X106672900Y-74017000D02*
X106672900Y-73191500D01*
X106164900Y-74017000D02*
X106672900Y-74017000D01*
X106164900Y-74906000D02*
X106164900Y-74017000D01*
X104389440Y-74906000D02*
X106164900Y-74906000D01*
X106672900Y-73191500D02*
X139311900Y-73191500D01*
X139311900Y-73191500D02*
X139311900Y-74906000D01*
X139311900Y-74906000D02*
X141087360Y-74906000D01*
X141087360Y-74906000D02*
X141087360Y-77192000D01*
X141087360Y-77192000D02*
X139311900Y-77192000D01*
X139311900Y-77192000D02*
X139311900Y-78906500D01*
X139311900Y-78906500D02*
X106164900Y-78906500D01*
X140068794Y-76049000D02*
G75*
G03X140068794Y-76049000I-502894J0D01*
G01*
X138854700Y-76049000D02*
X140277100Y-76049000D01*
X139565900Y-76760200D02*
X139565900Y-75337800D01*
X105910900Y-90360200D02*
X105910900Y-88937800D01*
X105199700Y-89649000D02*
X106622100Y-89649000D01*
X106413794Y-89649000D02*
G75*
G03X106413794Y-89649000I-502894J0D01*
G01*
X104389440Y-90792000D02*
X104389440Y-88506000D01*
X106164900Y-90792000D02*
X104389440Y-90792000D01*
X106164900Y-92506500D02*
X106164900Y-90792000D01*
X106672900Y-87617000D02*
X106672900Y-86791500D01*
X106164900Y-87617000D02*
X106672900Y-87617000D01*
X106164900Y-88506000D02*
X106164900Y-87617000D01*
X104389440Y-88506000D02*
X106164900Y-88506000D01*
X106672900Y-86791500D02*
X139311900Y-86791500D01*
X139311900Y-86791500D02*
X139311900Y-88506000D01*
X139311900Y-88506000D02*
X141087360Y-88506000D01*
X141087360Y-88506000D02*
X141087360Y-90792000D01*
X141087360Y-90792000D02*
X139311900Y-90792000D01*
X139311900Y-90792000D02*
X139311900Y-92506500D01*
X139311900Y-92506500D02*
X106164900Y-92506500D01*
X140068794Y-89649000D02*
G75*
G03X140068794Y-89649000I-502894J0D01*
G01*
X138854700Y-89649000D02*
X140277100Y-89649000D01*
X139565900Y-90360200D02*
X139565900Y-88937800D01*
D18*
X130150019Y-53361024D02*
X130150019Y-52091024D01*
X130633828Y-52091024D01*
X130754781Y-52151500D01*
X130815257Y-52211976D01*
X130875733Y-52332929D01*
X130875733Y-52514357D01*
X130815257Y-52635310D01*
X130754781Y-52695786D01*
X130633828Y-52756262D01*
X130150019Y-52756262D01*
X132085257Y-53361024D02*
X131359543Y-53361024D01*
X131722400Y-53361024D02*
X131722400Y-52091024D01*
X131601448Y-52272452D01*
X131480495Y-52393405D01*
X131359543Y-52453881D01*
X135768257Y-53361024D02*
X135042543Y-53361024D01*
X135405400Y-53361024D02*
X135405400Y-52091024D01*
X135284448Y-52272452D01*
X135163495Y-52393405D01*
X135042543Y-52453881D01*
X134915543Y-44337976D02*
X134976019Y-44277500D01*
X135096971Y-44217024D01*
X135399352Y-44217024D01*
X135520305Y-44277500D01*
X135580781Y-44337976D01*
X135641257Y-44458929D01*
X135641257Y-44579881D01*
X135580781Y-44761310D01*
X134855067Y-45487024D01*
X135641257Y-45487024D01*
D14*
X51133334Y-56652381D02*
X50657143Y-56652381D01*
X50657143Y-55652381D01*
X51419048Y-55747619D02*
X51466667Y-55700000D01*
X51561905Y-55652381D01*
X51800001Y-55652381D01*
X51895239Y-55700000D01*
X51942858Y-55747619D01*
X51990477Y-55842857D01*
X51990477Y-55938095D01*
X51942858Y-56080952D01*
X51371429Y-56652381D01*
X51990477Y-56652381D01*
X151061905Y-60152381D02*
X151061905Y-59152381D01*
X151442858Y-59152381D01*
X151538096Y-59200000D01*
X151585715Y-59247619D01*
X151633334Y-59342857D01*
X151633334Y-59485714D01*
X151585715Y-59580952D01*
X151538096Y-59628571D01*
X151442858Y-59676190D01*
X151061905Y-59676190D01*
X152109524Y-60152381D02*
X152300000Y-60152381D01*
X152395239Y-60104762D01*
X152442858Y-60057143D01*
X152538096Y-59914286D01*
X152585715Y-59723810D01*
X152585715Y-59342857D01*
X152538096Y-59247619D01*
X152490477Y-59200000D01*
X152395239Y-59152381D01*
X152204762Y-59152381D01*
X152109524Y-59200000D01*
X152061905Y-59247619D01*
X152014286Y-59342857D01*
X152014286Y-59580952D01*
X152061905Y-59676190D01*
X152109524Y-59723810D01*
X152204762Y-59771429D01*
X152395239Y-59771429D01*
X152490477Y-59723810D01*
X152538096Y-59676190D01*
X152585715Y-59580952D01*
D18*
X77262619Y-40074524D02*
X77262619Y-38804524D01*
X77746428Y-38804524D01*
X77867381Y-38865000D01*
X77927857Y-38925476D01*
X77988333Y-39046429D01*
X77988333Y-39227857D01*
X77927857Y-39348810D01*
X77867381Y-39409286D01*
X77746428Y-39469762D01*
X77262619Y-39469762D01*
X78411667Y-38804524D02*
X79258333Y-38804524D01*
X78714048Y-40074524D01*
X74435505Y-40974324D02*
X75221695Y-40974324D01*
X74798362Y-41458133D01*
X74979790Y-41458133D01*
X75100743Y-41518610D01*
X75161219Y-41579086D01*
X75221695Y-41700038D01*
X75221695Y-42002419D01*
X75161219Y-42123371D01*
X75100743Y-42183848D01*
X74979790Y-42244324D01*
X74616933Y-42244324D01*
X74495981Y-42183848D01*
X74435505Y-42123371D01*
X75947410Y-41518610D02*
X75826457Y-41458133D01*
X75765981Y-41397657D01*
X75705505Y-41276705D01*
X75705505Y-41216229D01*
X75765981Y-41095276D01*
X75826457Y-41034800D01*
X75947410Y-40974324D01*
X76189314Y-40974324D01*
X76310267Y-41034800D01*
X76370743Y-41095276D01*
X76431219Y-41216229D01*
X76431219Y-41276705D01*
X76370743Y-41397657D01*
X76310267Y-41458133D01*
X76189314Y-41518610D01*
X75947410Y-41518610D01*
X75826457Y-41579086D01*
X75765981Y-41639562D01*
X75705505Y-41760514D01*
X75705505Y-42002419D01*
X75765981Y-42123371D01*
X75826457Y-42183848D01*
X75947410Y-42244324D01*
X76189314Y-42244324D01*
X76310267Y-42183848D01*
X76370743Y-42123371D01*
X76431219Y-42002419D01*
X76431219Y-41760514D01*
X76370743Y-41639562D01*
X76310267Y-41579086D01*
X76189314Y-41518610D01*
X48939524Y-39279524D02*
X49060476Y-39279524D01*
X49181428Y-39340000D01*
X49241905Y-39400476D01*
X49302381Y-39521429D01*
X49362857Y-39763333D01*
X49362857Y-40065714D01*
X49302381Y-40307619D01*
X49241905Y-40428571D01*
X49181428Y-40489048D01*
X49060476Y-40549524D01*
X48939524Y-40549524D01*
X48818571Y-40489048D01*
X48758095Y-40428571D01*
X48697619Y-40307619D01*
X48637143Y-40065714D01*
X48637143Y-39763333D01*
X48697619Y-39521429D01*
X48758095Y-39400476D01*
X48818571Y-39340000D01*
X48939524Y-39279524D01*
X121037619Y-40074524D02*
X121037619Y-38804524D01*
X121521428Y-38804524D01*
X121642381Y-38865000D01*
X121702857Y-38925476D01*
X121763333Y-39046429D01*
X121763333Y-39227857D01*
X121702857Y-39348810D01*
X121642381Y-39409286D01*
X121521428Y-39469762D01*
X121037619Y-39469762D01*
X122186667Y-38804524D02*
X122972857Y-38804524D01*
X122549524Y-39288333D01*
X122730952Y-39288333D01*
X122851905Y-39348810D01*
X122912381Y-39409286D01*
X122972857Y-39530238D01*
X122972857Y-39832619D01*
X122912381Y-39953571D01*
X122851905Y-40014048D01*
X122730952Y-40074524D01*
X122368095Y-40074524D01*
X122247143Y-40014048D01*
X122186667Y-39953571D01*
X151203333Y-40674524D02*
X150477619Y-40674524D01*
X150840476Y-40674524D02*
X150840476Y-39404524D01*
X150719524Y-39585952D01*
X150598571Y-39706905D01*
X150477619Y-39767381D01*
X152412857Y-40674524D02*
X151687143Y-40674524D01*
X152050000Y-40674524D02*
X152050000Y-39404524D01*
X151929048Y-39585952D01*
X151808095Y-39706905D01*
X151687143Y-39767381D01*
X153138572Y-39948810D02*
X153017619Y-39888333D01*
X152957143Y-39827857D01*
X152896667Y-39706905D01*
X152896667Y-39646429D01*
X152957143Y-39525476D01*
X153017619Y-39465000D01*
X153138572Y-39404524D01*
X153380476Y-39404524D01*
X153501429Y-39465000D01*
X153561905Y-39525476D01*
X153622381Y-39646429D01*
X153622381Y-39706905D01*
X153561905Y-39827857D01*
X153501429Y-39888333D01*
X153380476Y-39948810D01*
X153138572Y-39948810D01*
X153017619Y-40009286D01*
X152957143Y-40069762D01*
X152896667Y-40190714D01*
X152896667Y-40432619D01*
X152957143Y-40553571D01*
X153017619Y-40614048D01*
X153138572Y-40674524D01*
X153380476Y-40674524D01*
X153501429Y-40614048D01*
X153561905Y-40553571D01*
X153622381Y-40432619D01*
X153622381Y-40190714D01*
X153561905Y-40069762D01*
X153501429Y-40009286D01*
X153380476Y-39948810D01*
X123924286Y-41523810D02*
X123803333Y-41463333D01*
X123742857Y-41402857D01*
X123682381Y-41281905D01*
X123682381Y-41221429D01*
X123742857Y-41100476D01*
X123803333Y-41040000D01*
X123924286Y-40979524D01*
X124166190Y-40979524D01*
X124287143Y-41040000D01*
X124347619Y-41100476D01*
X124408095Y-41221429D01*
X124408095Y-41281905D01*
X124347619Y-41402857D01*
X124287143Y-41463333D01*
X124166190Y-41523810D01*
X123924286Y-41523810D01*
X123803333Y-41584286D01*
X123742857Y-41644762D01*
X123682381Y-41765714D01*
X123682381Y-42007619D01*
X123742857Y-42128571D01*
X123803333Y-42189048D01*
X123924286Y-42249524D01*
X124166190Y-42249524D01*
X124287143Y-42189048D01*
X124347619Y-42128571D01*
X124408095Y-42007619D01*
X124408095Y-41765714D01*
X124347619Y-41644762D01*
X124287143Y-41584286D01*
X124166190Y-41523810D01*
X125194286Y-40979524D02*
X125315238Y-40979524D01*
X125436190Y-41040000D01*
X125496667Y-41100476D01*
X125557143Y-41221429D01*
X125617619Y-41463333D01*
X125617619Y-41765714D01*
X125557143Y-42007619D01*
X125496667Y-42128571D01*
X125436190Y-42189048D01*
X125315238Y-42249524D01*
X125194286Y-42249524D01*
X125073333Y-42189048D01*
X125012857Y-42128571D01*
X124952381Y-42007619D01*
X124891905Y-41765714D01*
X124891905Y-41463333D01*
X124952381Y-41221429D01*
X125012857Y-41100476D01*
X125073333Y-41040000D01*
X125194286Y-40979524D01*
D14*
X63302381Y-49164286D02*
X62302381Y-49164286D01*
X62302381Y-48783333D01*
X62350000Y-48688095D01*
X62397619Y-48640476D01*
X62492857Y-48592857D01*
X62635714Y-48592857D01*
X62730952Y-48640476D01*
X62778571Y-48688095D01*
X62826190Y-48783333D01*
X62826190Y-49164286D01*
X63302381Y-47640476D02*
X63302381Y-48211905D01*
X63302381Y-47926191D02*
X62302381Y-47926191D01*
X62445238Y-48021429D01*
X62540476Y-48116667D01*
X62588095Y-48211905D01*
X62302381Y-47021429D02*
X62302381Y-46926190D01*
X62350000Y-46830952D01*
X62397619Y-46783333D01*
X62492857Y-46735714D01*
X62683333Y-46688095D01*
X62921429Y-46688095D01*
X63111905Y-46735714D01*
X63207143Y-46783333D01*
X63254762Y-46830952D01*
X63302381Y-46926190D01*
X63302381Y-47021429D01*
X63254762Y-47116667D01*
X63207143Y-47164286D01*
X63111905Y-47211905D01*
X62921429Y-47259524D01*
X62683333Y-47259524D01*
X62492857Y-47211905D01*
X62397619Y-47164286D01*
X62350000Y-47116667D01*
X62302381Y-47021429D01*
X67004762Y-54847619D02*
X66909524Y-54800000D01*
X66814286Y-54704762D01*
X66671429Y-54561905D01*
X66576190Y-54514286D01*
X66480952Y-54514286D01*
X66528571Y-54752381D02*
X66433333Y-54704762D01*
X66338095Y-54609524D01*
X66290476Y-54419048D01*
X66290476Y-54085714D01*
X66338095Y-53895238D01*
X66433333Y-53800000D01*
X66528571Y-53752381D01*
X66719048Y-53752381D01*
X66814286Y-53800000D01*
X66909524Y-53895238D01*
X66957143Y-54085714D01*
X66957143Y-54419048D01*
X66909524Y-54609524D01*
X66814286Y-54704762D01*
X66719048Y-54752381D01*
X66528571Y-54752381D01*
X67909524Y-54752381D02*
X67338095Y-54752381D01*
X67623809Y-54752381D02*
X67623809Y-53752381D01*
X67528571Y-53895238D01*
X67433333Y-53990476D01*
X67338095Y-54038095D01*
X147566667Y-64002381D02*
X147566667Y-64716667D01*
X147519047Y-64859524D01*
X147423809Y-64954762D01*
X147280952Y-65002381D01*
X147185714Y-65002381D01*
X148042857Y-65002381D02*
X148042857Y-64002381D01*
X148423810Y-64002381D01*
X148519048Y-64050000D01*
X148566667Y-64097619D01*
X148614286Y-64192857D01*
X148614286Y-64335714D01*
X148566667Y-64430952D01*
X148519048Y-64478571D01*
X148423810Y-64526190D01*
X148042857Y-64526190D01*
X149566667Y-65002381D02*
X148995238Y-65002381D01*
X149280952Y-65002381D02*
X149280952Y-64002381D01*
X149185714Y-64145238D01*
X149090476Y-64240476D01*
X148995238Y-64288095D01*
X128316667Y-44452381D02*
X128316667Y-45166667D01*
X128269047Y-45309524D01*
X128173809Y-45404762D01*
X128030952Y-45452381D01*
X127935714Y-45452381D01*
X128792857Y-45452381D02*
X128792857Y-44452381D01*
X129173810Y-44452381D01*
X129269048Y-44500000D01*
X129316667Y-44547619D01*
X129364286Y-44642857D01*
X129364286Y-44785714D01*
X129316667Y-44880952D01*
X129269048Y-44928571D01*
X129173810Y-44976190D01*
X128792857Y-44976190D01*
X129745238Y-44547619D02*
X129792857Y-44500000D01*
X129888095Y-44452381D01*
X130126191Y-44452381D01*
X130221429Y-44500000D01*
X130269048Y-44547619D01*
X130316667Y-44642857D01*
X130316667Y-44738095D01*
X130269048Y-44880952D01*
X129697619Y-45452381D01*
X130316667Y-45452381D01*
D18*
X117062619Y-40074524D02*
X117062619Y-38804524D01*
X117546428Y-38804524D01*
X117667381Y-38865000D01*
X117727857Y-38925476D01*
X117788333Y-39046429D01*
X117788333Y-39227857D01*
X117727857Y-39348810D01*
X117667381Y-39409286D01*
X117546428Y-39469762D01*
X117062619Y-39469762D01*
X118937381Y-38804524D02*
X118332619Y-38804524D01*
X118272143Y-39409286D01*
X118332619Y-39348810D01*
X118453571Y-39288333D01*
X118755952Y-39288333D01*
X118876905Y-39348810D01*
X118937381Y-39409286D01*
X118997857Y-39530238D01*
X118997857Y-39832619D01*
X118937381Y-39953571D01*
X118876905Y-40014048D01*
X118755952Y-40074524D01*
X118453571Y-40074524D01*
X118332619Y-40014048D01*
X118272143Y-39953571D01*
X107896905Y-41279524D02*
X108743571Y-41279524D01*
X108199286Y-42549524D01*
X109408810Y-41823810D02*
X109287857Y-41763333D01*
X109227381Y-41702857D01*
X109166905Y-41581905D01*
X109166905Y-41521429D01*
X109227381Y-41400476D01*
X109287857Y-41340000D01*
X109408810Y-41279524D01*
X109650714Y-41279524D01*
X109771667Y-41340000D01*
X109832143Y-41400476D01*
X109892619Y-41521429D01*
X109892619Y-41581905D01*
X109832143Y-41702857D01*
X109771667Y-41763333D01*
X109650714Y-41823810D01*
X109408810Y-41823810D01*
X109287857Y-41884286D01*
X109227381Y-41944762D01*
X109166905Y-42065714D01*
X109166905Y-42307619D01*
X109227381Y-42428571D01*
X109287857Y-42489048D01*
X109408810Y-42549524D01*
X109650714Y-42549524D01*
X109771667Y-42489048D01*
X109832143Y-42428571D01*
X109892619Y-42307619D01*
X109892619Y-42065714D01*
X109832143Y-41944762D01*
X109771667Y-41884286D01*
X109650714Y-41823810D01*
X84462143Y-41702857D02*
X84462143Y-42549524D01*
X84159762Y-41219048D02*
X83857381Y-42126190D01*
X84643571Y-42126190D01*
X85369286Y-41279524D02*
X85490238Y-41279524D01*
X85611190Y-41340000D01*
X85671667Y-41400476D01*
X85732143Y-41521429D01*
X85792619Y-41763333D01*
X85792619Y-42065714D01*
X85732143Y-42307619D01*
X85671667Y-42428571D01*
X85611190Y-42489048D01*
X85490238Y-42549524D01*
X85369286Y-42549524D01*
X85248333Y-42489048D01*
X85187857Y-42428571D01*
X85127381Y-42307619D01*
X85066905Y-42065714D01*
X85066905Y-41763333D01*
X85127381Y-41521429D01*
X85187857Y-41400476D01*
X85248333Y-41340000D01*
X85369286Y-41279524D01*
D14*
X49057143Y-56066666D02*
X49104762Y-56114285D01*
X49152381Y-56257142D01*
X49152381Y-56352380D01*
X49104762Y-56495238D01*
X49009524Y-56590476D01*
X48914286Y-56638095D01*
X48723810Y-56685714D01*
X48580952Y-56685714D01*
X48390476Y-56638095D01*
X48295238Y-56590476D01*
X48200000Y-56495238D01*
X48152381Y-56352380D01*
X48152381Y-56257142D01*
X48200000Y-56114285D01*
X48247619Y-56066666D01*
X49152381Y-55114285D02*
X49152381Y-55685714D01*
X49152381Y-55400000D02*
X48152381Y-55400000D01*
X48295238Y-55495238D01*
X48390476Y-55590476D01*
X48438095Y-55685714D01*
X66857143Y-76666666D02*
X66904762Y-76714285D01*
X66952381Y-76857142D01*
X66952381Y-76952380D01*
X66904762Y-77095238D01*
X66809524Y-77190476D01*
X66714286Y-77238095D01*
X66523810Y-77285714D01*
X66380952Y-77285714D01*
X66190476Y-77238095D01*
X66095238Y-77190476D01*
X66000000Y-77095238D01*
X65952381Y-76952380D01*
X65952381Y-76857142D01*
X66000000Y-76714285D01*
X66047619Y-76666666D01*
X66047619Y-76285714D02*
X66000000Y-76238095D01*
X65952381Y-76142857D01*
X65952381Y-75904761D01*
X66000000Y-75809523D01*
X66047619Y-75761904D01*
X66142857Y-75714285D01*
X66238095Y-75714285D01*
X66380952Y-75761904D01*
X66952381Y-76333333D01*
X66952381Y-75714285D01*
X69357143Y-76666666D02*
X69404762Y-76714285D01*
X69452381Y-76857142D01*
X69452381Y-76952380D01*
X69404762Y-77095238D01*
X69309524Y-77190476D01*
X69214286Y-77238095D01*
X69023810Y-77285714D01*
X68880952Y-77285714D01*
X68690476Y-77238095D01*
X68595238Y-77190476D01*
X68500000Y-77095238D01*
X68452381Y-76952380D01*
X68452381Y-76857142D01*
X68500000Y-76714285D01*
X68547619Y-76666666D01*
X68452381Y-76333333D02*
X68452381Y-75714285D01*
X68833333Y-76047619D01*
X68833333Y-75904761D01*
X68880952Y-75809523D01*
X68928571Y-75761904D01*
X69023810Y-75714285D01*
X69261905Y-75714285D01*
X69357143Y-75761904D01*
X69404762Y-75809523D01*
X69452381Y-75904761D01*
X69452381Y-76190476D01*
X69404762Y-76285714D01*
X69357143Y-76333333D01*
X68752381Y-62361905D02*
X69561905Y-62361905D01*
X69657143Y-62314286D01*
X69704762Y-62266667D01*
X69752381Y-62171429D01*
X69752381Y-61980952D01*
X69704762Y-61885714D01*
X69657143Y-61838095D01*
X69561905Y-61790476D01*
X68752381Y-61790476D01*
X68847619Y-61361905D02*
X68800000Y-61314286D01*
X68752381Y-61219048D01*
X68752381Y-60980952D01*
X68800000Y-60885714D01*
X68847619Y-60838095D01*
X68942857Y-60790476D01*
X69038095Y-60790476D01*
X69180952Y-60838095D01*
X69752381Y-61409524D01*
X69752381Y-60790476D01*
X72538095Y-57352381D02*
X72871428Y-58352381D01*
X73204762Y-57352381D01*
X73728571Y-57352381D02*
X73919048Y-57352381D01*
X74014286Y-57400000D01*
X74109524Y-57495238D01*
X74157143Y-57685714D01*
X74157143Y-58019048D01*
X74109524Y-58209524D01*
X74014286Y-58304762D01*
X73919048Y-58352381D01*
X73728571Y-58352381D01*
X73633333Y-58304762D01*
X73538095Y-58209524D01*
X73490476Y-58019048D01*
X73490476Y-57685714D01*
X73538095Y-57495238D01*
X73633333Y-57400000D01*
X73728571Y-57352381D01*
X74585714Y-57352381D02*
X74585714Y-58161905D01*
X74633333Y-58257143D01*
X74680952Y-58304762D01*
X74776190Y-58352381D01*
X74966667Y-58352381D01*
X75061905Y-58304762D01*
X75109524Y-58257143D01*
X75157143Y-58161905D01*
X75157143Y-57352381D01*
X75490476Y-57352381D02*
X76061905Y-57352381D01*
X75776190Y-58352381D02*
X75776190Y-57352381D01*
X72604762Y-52352381D02*
X72938095Y-53352381D01*
X73271429Y-52352381D01*
X73604762Y-53352381D02*
X73604762Y-52352381D01*
X74080952Y-53352381D02*
X74080952Y-52352381D01*
X74652381Y-53352381D01*
X74652381Y-52352381D01*
X73238096Y-54900000D02*
X73142858Y-54852381D01*
X73000001Y-54852381D01*
X72857143Y-54900000D01*
X72761905Y-54995238D01*
X72714286Y-55090476D01*
X72666667Y-55280952D01*
X72666667Y-55423810D01*
X72714286Y-55614286D01*
X72761905Y-55709524D01*
X72857143Y-55804762D01*
X73000001Y-55852381D01*
X73095239Y-55852381D01*
X73238096Y-55804762D01*
X73285715Y-55757143D01*
X73285715Y-55423810D01*
X73095239Y-55423810D01*
X73714286Y-55852381D02*
X73714286Y-54852381D01*
X74285715Y-55852381D01*
X74285715Y-54852381D01*
X74761905Y-55852381D02*
X74761905Y-54852381D01*
X75000000Y-54852381D01*
X75142858Y-54900000D01*
X75238096Y-54995238D01*
X75285715Y-55090476D01*
X75333334Y-55280952D01*
X75333334Y-55423810D01*
X75285715Y-55614286D01*
X75238096Y-55709524D01*
X75142858Y-55804762D01*
X75000000Y-55852381D01*
X74761905Y-55852381D01*
X72661905Y-50228571D02*
X72995239Y-50228571D01*
X73138096Y-50752381D02*
X72661905Y-50752381D01*
X72661905Y-49752381D01*
X73138096Y-49752381D01*
X73566667Y-50752381D02*
X73566667Y-49752381D01*
X74138096Y-50752381D01*
X74138096Y-49752381D01*
X72638095Y-48252381D02*
X72638095Y-47252381D01*
X73019048Y-47252381D01*
X73114286Y-47300000D01*
X73161905Y-47347619D01*
X73209524Y-47442857D01*
X73209524Y-47585714D01*
X73161905Y-47680952D01*
X73114286Y-47728571D01*
X73019048Y-47776190D01*
X72638095Y-47776190D01*
X74161905Y-47300000D02*
X74066667Y-47252381D01*
X73923810Y-47252381D01*
X73780952Y-47300000D01*
X73685714Y-47395238D01*
X73638095Y-47490476D01*
X73590476Y-47680952D01*
X73590476Y-47823810D01*
X73638095Y-48014286D01*
X73685714Y-48109524D01*
X73780952Y-48204762D01*
X73923810Y-48252381D01*
X74019048Y-48252381D01*
X74161905Y-48204762D01*
X74209524Y-48157143D01*
X74209524Y-47823810D01*
X74019048Y-47823810D01*
D18*
X121801019Y-66960524D02*
X121801019Y-65690524D01*
X122284828Y-65690524D01*
X122405781Y-65751000D01*
X122466257Y-65811476D01*
X122526733Y-65932429D01*
X122526733Y-66113857D01*
X122466257Y-66234810D01*
X122405781Y-66295286D01*
X122284828Y-66355762D01*
X121801019Y-66355762D01*
X123010543Y-65811476D02*
X123071019Y-65751000D01*
X123191971Y-65690524D01*
X123494352Y-65690524D01*
X123615305Y-65751000D01*
X123675781Y-65811476D01*
X123736257Y-65932429D01*
X123736257Y-66053381D01*
X123675781Y-66234810D01*
X122950067Y-66960524D01*
X123736257Y-66960524D01*
X106674286Y-66223810D02*
X106553333Y-66163333D01*
X106492857Y-66102857D01*
X106432381Y-65981905D01*
X106432381Y-65921429D01*
X106492857Y-65800476D01*
X106553333Y-65740000D01*
X106674286Y-65679524D01*
X106916190Y-65679524D01*
X107037143Y-65740000D01*
X107097619Y-65800476D01*
X107158095Y-65921429D01*
X107158095Y-65981905D01*
X107097619Y-66102857D01*
X107037143Y-66163333D01*
X106916190Y-66223810D01*
X106674286Y-66223810D01*
X106553333Y-66284286D01*
X106492857Y-66344762D01*
X106432381Y-66465714D01*
X106432381Y-66707619D01*
X106492857Y-66828571D01*
X106553333Y-66889048D01*
X106674286Y-66949524D01*
X106916190Y-66949524D01*
X107037143Y-66889048D01*
X107097619Y-66828571D01*
X107158095Y-66707619D01*
X107158095Y-66465714D01*
X107097619Y-66344762D01*
X107037143Y-66284286D01*
X106916190Y-66223810D01*
X108367619Y-66949524D02*
X107641905Y-66949524D01*
X108004762Y-66949524D02*
X108004762Y-65679524D01*
X107883810Y-65860952D01*
X107762857Y-65981905D01*
X107641905Y-66042381D01*
X106799286Y-58673810D02*
X106678333Y-58613333D01*
X106617857Y-58552857D01*
X106557381Y-58431905D01*
X106557381Y-58371429D01*
X106617857Y-58250476D01*
X106678333Y-58190000D01*
X106799286Y-58129524D01*
X107041190Y-58129524D01*
X107162143Y-58190000D01*
X107222619Y-58250476D01*
X107283095Y-58371429D01*
X107283095Y-58431905D01*
X107222619Y-58552857D01*
X107162143Y-58613333D01*
X107041190Y-58673810D01*
X106799286Y-58673810D01*
X106678333Y-58734286D01*
X106617857Y-58794762D01*
X106557381Y-58915714D01*
X106557381Y-59157619D01*
X106617857Y-59278571D01*
X106678333Y-59339048D01*
X106799286Y-59399524D01*
X107041190Y-59399524D01*
X107162143Y-59339048D01*
X107222619Y-59278571D01*
X107283095Y-59157619D01*
X107283095Y-58915714D01*
X107222619Y-58794762D01*
X107162143Y-58734286D01*
X107041190Y-58673810D01*
X108069286Y-58129524D02*
X108190238Y-58129524D01*
X108311190Y-58190000D01*
X108371667Y-58250476D01*
X108432143Y-58371429D01*
X108492619Y-58613333D01*
X108492619Y-58915714D01*
X108432143Y-59157619D01*
X108371667Y-59278571D01*
X108311190Y-59339048D01*
X108190238Y-59399524D01*
X108069286Y-59399524D01*
X107948333Y-59339048D01*
X107887857Y-59278571D01*
X107827381Y-59157619D01*
X107766905Y-58915714D01*
X107766905Y-58613333D01*
X107827381Y-58371429D01*
X107887857Y-58250476D01*
X107948333Y-58190000D01*
X108069286Y-58129524D01*
X121801019Y-80560524D02*
X121801019Y-79290524D01*
X122284828Y-79290524D01*
X122405781Y-79351000D01*
X122466257Y-79411476D01*
X122526733Y-79532429D01*
X122526733Y-79713857D01*
X122466257Y-79834810D01*
X122405781Y-79895286D01*
X122284828Y-79955762D01*
X121801019Y-79955762D01*
X123615305Y-79713857D02*
X123615305Y-80560524D01*
X123312924Y-79230048D02*
X123010543Y-80137190D01*
X123796733Y-80137190D01*
X107087143Y-79677857D02*
X107087143Y-80524524D01*
X106784762Y-79194048D02*
X106482381Y-80101190D01*
X107268571Y-80101190D01*
X108417619Y-80524524D02*
X107691905Y-80524524D01*
X108054762Y-80524524D02*
X108054762Y-79254524D01*
X107933810Y-79435952D01*
X107812857Y-79556905D01*
X107691905Y-79617381D01*
X107037143Y-72127857D02*
X107037143Y-72974524D01*
X106734762Y-71644048D02*
X106432381Y-72551190D01*
X107218571Y-72551190D01*
X107944286Y-71704524D02*
X108065238Y-71704524D01*
X108186190Y-71765000D01*
X108246667Y-71825476D01*
X108307143Y-71946429D01*
X108367619Y-72188333D01*
X108367619Y-72490714D01*
X108307143Y-72732619D01*
X108246667Y-72853571D01*
X108186190Y-72914048D01*
X108065238Y-72974524D01*
X107944286Y-72974524D01*
X107823333Y-72914048D01*
X107762857Y-72853571D01*
X107702381Y-72732619D01*
X107641905Y-72490714D01*
X107641905Y-72188333D01*
X107702381Y-71946429D01*
X107762857Y-71825476D01*
X107823333Y-71765000D01*
X107944286Y-71704524D01*
X121801019Y-94160524D02*
X121801019Y-92890524D01*
X122284828Y-92890524D01*
X122405781Y-92951000D01*
X122466257Y-93011476D01*
X122526733Y-93132429D01*
X122526733Y-93313857D01*
X122466257Y-93434810D01*
X122405781Y-93495286D01*
X122284828Y-93555762D01*
X121801019Y-93555762D01*
X123615305Y-92890524D02*
X123373400Y-92890524D01*
X123252448Y-92951000D01*
X123191971Y-93011476D01*
X123071019Y-93192905D01*
X123010543Y-93434810D01*
X123010543Y-93918619D01*
X123071019Y-94039571D01*
X123131495Y-94100048D01*
X123252448Y-94160524D01*
X123494352Y-94160524D01*
X123615305Y-94100048D01*
X123675781Y-94039571D01*
X123736257Y-93918619D01*
X123736257Y-93616238D01*
X123675781Y-93495286D01*
X123615305Y-93434810D01*
X123494352Y-93374333D01*
X123252448Y-93374333D01*
X123131495Y-93434810D01*
X123071019Y-93495286D01*
X123010543Y-93616238D01*
X107912857Y-94224524D02*
X107187143Y-94224524D01*
X107550000Y-94224524D02*
X107550000Y-92954524D01*
X107429048Y-93135952D01*
X107308095Y-93256905D01*
X107187143Y-93317381D01*
X107539524Y-85304524D02*
X107660476Y-85304524D01*
X107781428Y-85365000D01*
X107841905Y-85425476D01*
X107902381Y-85546429D01*
X107962857Y-85788333D01*
X107962857Y-86090714D01*
X107902381Y-86332619D01*
X107841905Y-86453571D01*
X107781428Y-86514048D01*
X107660476Y-86574524D01*
X107539524Y-86574524D01*
X107418571Y-86514048D01*
X107358095Y-86453571D01*
X107297619Y-86332619D01*
X107237143Y-86090714D01*
X107237143Y-85788333D01*
X107297619Y-85546429D01*
X107358095Y-85425476D01*
X107418571Y-85365000D01*
X107539524Y-85304524D01*
M02*
