G04 #@! TF.FileFunction,Copper,L1,Top,Signal*
%FSLAX46Y46*%
G04 Gerber Fmt 4.6, Leading zero omitted, Abs format (unit mm)*
G04 Created by KiCad (PCBNEW 4.0.1-stable) date 2017-03-07 1:46:45 PM*
%MOMM*%
G01*
G04 APERTURE LIST*
%ADD10C,0.100000*%
%ADD11C,1.500000*%
%ADD12C,3.000000*%
%ADD13R,2.032000X1.727200*%
%ADD14O,2.032000X1.727200*%
%ADD15R,0.736600X1.143000*%
%ADD16C,1.270000*%
%ADD17R,0.736600X2.219960*%
%ADD18R,3.000000X3.000000*%
%ADD19R,1.300000X0.700000*%
%ADD20R,1.000000X1.250000*%
%ADD21C,2.000000*%
%ADD22C,2.032000*%
%ADD23C,4.064000*%
%ADD24C,0.600000*%
%ADD25C,0.250000*%
%ADD26C,0.500000*%
G04 APERTURE END LIST*
D10*
D11*
X63570000Y-48500000D03*
X61030000Y-48500000D03*
X59000000Y-48500000D03*
X56460000Y-48500000D03*
D12*
X66620000Y-51170000D03*
X52900000Y-51170000D03*
D13*
X151800000Y-51900000D03*
D14*
X151800000Y-54440000D03*
X151800000Y-56980000D03*
D15*
X75336600Y-38342400D03*
X75336600Y-39866400D03*
X74066600Y-38342400D03*
X74066600Y-39866400D03*
X72796600Y-38342400D03*
X72796600Y-39866400D03*
X71526600Y-38342400D03*
X71526600Y-39866400D03*
X70256600Y-38342400D03*
X70256600Y-39866400D03*
X68986600Y-38342400D03*
X68986600Y-39866400D03*
X67716600Y-38342400D03*
X67716600Y-39866400D03*
X66446600Y-38342400D03*
X66446600Y-39866400D03*
X65176600Y-38342400D03*
X65176600Y-39866400D03*
X63906600Y-38342400D03*
X63906600Y-39866400D03*
X62636600Y-38342400D03*
X62636600Y-39866400D03*
X61366600Y-38342400D03*
X61366600Y-39866400D03*
X60096600Y-38342400D03*
X60096600Y-39866400D03*
X58826600Y-38342400D03*
X58826600Y-39866400D03*
X57556600Y-38342400D03*
X57556600Y-39866400D03*
X56286600Y-38342400D03*
X56286600Y-39866400D03*
X55016600Y-38342400D03*
X55016600Y-39866400D03*
X53746600Y-38342400D03*
X53746600Y-39866400D03*
X52476600Y-38342400D03*
X52476600Y-39866400D03*
X51206600Y-38342400D03*
X51206600Y-39866400D03*
D16*
X77927400Y-33237000D03*
X48615800Y-33237000D03*
X77927400Y-35497600D03*
X48615800Y-35497600D03*
D15*
X148793400Y-38342400D03*
X148793400Y-39866400D03*
X147523400Y-38342400D03*
X147523400Y-39866400D03*
X146253400Y-38342400D03*
X146253400Y-39866400D03*
X144983400Y-38342400D03*
X144983400Y-39866400D03*
X143713400Y-38342400D03*
X143713400Y-39866400D03*
X142443400Y-38342400D03*
X142443400Y-39866400D03*
X141173400Y-38342400D03*
X141173400Y-39866400D03*
X139903400Y-38342400D03*
X139903400Y-39866400D03*
X138633400Y-38342400D03*
X138633400Y-39866400D03*
X137363400Y-38342400D03*
X137363400Y-39866400D03*
X136093400Y-38342400D03*
X136093400Y-39866400D03*
X134823400Y-38342400D03*
X134823400Y-39866400D03*
X133553400Y-38342400D03*
X133553400Y-39866400D03*
X132283400Y-38342400D03*
X132283400Y-39866400D03*
X131013400Y-38342400D03*
X131013400Y-39866400D03*
X129743400Y-38342400D03*
X129743400Y-39866400D03*
X128473400Y-38342400D03*
X128473400Y-39866400D03*
X127203400Y-38342400D03*
X127203400Y-39866400D03*
X125933400Y-38342400D03*
X125933400Y-39866400D03*
X124663400Y-38342400D03*
X124663400Y-39866400D03*
D16*
X151384200Y-33237000D03*
X122072600Y-33237000D03*
X151384200Y-35497600D03*
X122072600Y-35497600D03*
D17*
X130198400Y-47485520D03*
X130198400Y-50213480D03*
X131468400Y-47485520D03*
X131468400Y-50213480D03*
X135278400Y-50213480D03*
X135278400Y-47485520D03*
X134008400Y-50213480D03*
X134008400Y-47485520D03*
X132738400Y-50213480D03*
X132738400Y-47485520D03*
X108768400Y-63812980D03*
X108768400Y-61085020D03*
X117658400Y-63812980D03*
X117658400Y-61085020D03*
X116388400Y-63812980D03*
X116388400Y-61085020D03*
X115118400Y-63812980D03*
X115118400Y-61085020D03*
X113848400Y-63812980D03*
X113848400Y-61085020D03*
X126548400Y-61085020D03*
X126548400Y-63812980D03*
X127818400Y-61085020D03*
X127818400Y-63812980D03*
X129088400Y-61085020D03*
X129088400Y-63812980D03*
X130358400Y-61085020D03*
X130358400Y-63812980D03*
X131628400Y-61085020D03*
X131628400Y-63812980D03*
X107498400Y-61085020D03*
X107498400Y-63812980D03*
X110038400Y-61085020D03*
X110038400Y-63812980D03*
X111308400Y-61085020D03*
X111308400Y-63812980D03*
X112578400Y-61085020D03*
X112578400Y-63812980D03*
X118928400Y-61085020D03*
X118928400Y-63812980D03*
X137978400Y-63812980D03*
X137978400Y-61085020D03*
X136708400Y-63812980D03*
X136708400Y-61085020D03*
X135438400Y-63812980D03*
X135438400Y-61085020D03*
X134168400Y-63812980D03*
X134168400Y-61085020D03*
X132898400Y-63812980D03*
X132898400Y-61085020D03*
X125278400Y-63812980D03*
X125278400Y-61085020D03*
X124008400Y-63812980D03*
X124008400Y-61085020D03*
X122738400Y-63812980D03*
X122738400Y-61085020D03*
X121468400Y-63812980D03*
X121468400Y-61085020D03*
X120198400Y-63812980D03*
X120198400Y-61085020D03*
X108768400Y-77412980D03*
X108768400Y-74685020D03*
X117658400Y-77412980D03*
X117658400Y-74685020D03*
X116388400Y-77412980D03*
X116388400Y-74685020D03*
X115118400Y-77412980D03*
X115118400Y-74685020D03*
X113848400Y-77412980D03*
X113848400Y-74685020D03*
X126548400Y-74685020D03*
X126548400Y-77412980D03*
X127818400Y-74685020D03*
X127818400Y-77412980D03*
X129088400Y-74685020D03*
X129088400Y-77412980D03*
X130358400Y-74685020D03*
X130358400Y-77412980D03*
X131628400Y-74685020D03*
X131628400Y-77412980D03*
X107498400Y-74685020D03*
X107498400Y-77412980D03*
X110038400Y-74685020D03*
X110038400Y-77412980D03*
X111308400Y-74685020D03*
X111308400Y-77412980D03*
X112578400Y-74685020D03*
X112578400Y-77412980D03*
X118928400Y-74685020D03*
X118928400Y-77412980D03*
X137978400Y-77412980D03*
X137978400Y-74685020D03*
X136708400Y-77412980D03*
X136708400Y-74685020D03*
X135438400Y-77412980D03*
X135438400Y-74685020D03*
X134168400Y-77412980D03*
X134168400Y-74685020D03*
X132898400Y-77412980D03*
X132898400Y-74685020D03*
X125278400Y-77412980D03*
X125278400Y-74685020D03*
X124008400Y-77412980D03*
X124008400Y-74685020D03*
X122738400Y-77412980D03*
X122738400Y-74685020D03*
X121468400Y-77412980D03*
X121468400Y-74685020D03*
X120198400Y-77412980D03*
X120198400Y-74685020D03*
X108768400Y-91012980D03*
X108768400Y-88285020D03*
X117658400Y-91012980D03*
X117658400Y-88285020D03*
X116388400Y-91012980D03*
X116388400Y-88285020D03*
X115118400Y-91012980D03*
X115118400Y-88285020D03*
X113848400Y-91012980D03*
X113848400Y-88285020D03*
X126548400Y-88285020D03*
X126548400Y-91012980D03*
X127818400Y-88285020D03*
X127818400Y-91012980D03*
X129088400Y-88285020D03*
X129088400Y-91012980D03*
X130358400Y-88285020D03*
X130358400Y-91012980D03*
X131628400Y-88285020D03*
X131628400Y-91012980D03*
X107498400Y-88285020D03*
X107498400Y-91012980D03*
X110038400Y-88285020D03*
X110038400Y-91012980D03*
X111308400Y-88285020D03*
X111308400Y-91012980D03*
X112578400Y-88285020D03*
X112578400Y-91012980D03*
X118928400Y-88285020D03*
X118928400Y-91012980D03*
X137978400Y-91012980D03*
X137978400Y-88285020D03*
X136708400Y-91012980D03*
X136708400Y-88285020D03*
X135438400Y-91012980D03*
X135438400Y-88285020D03*
X134168400Y-91012980D03*
X134168400Y-88285020D03*
X132898400Y-91012980D03*
X132898400Y-88285020D03*
X125278400Y-91012980D03*
X125278400Y-88285020D03*
X124008400Y-91012980D03*
X124008400Y-88285020D03*
X122738400Y-91012980D03*
X122738400Y-88285020D03*
X121468400Y-91012980D03*
X121468400Y-88285020D03*
X120198400Y-91012980D03*
X120198400Y-88285020D03*
D18*
X60700000Y-91400000D03*
D12*
X60700000Y-96480000D03*
D19*
X145800000Y-58450000D03*
X145800000Y-56550000D03*
X147950000Y-58400000D03*
X147950000Y-56500000D03*
D15*
X115240000Y-38469400D03*
X115240000Y-39993400D03*
X113970000Y-38469400D03*
X113970000Y-39993400D03*
X112700000Y-38469400D03*
X112700000Y-39993400D03*
X111430000Y-38469400D03*
X111430000Y-39993400D03*
X110160000Y-38469400D03*
X110160000Y-39993400D03*
X108890000Y-38469400D03*
X108890000Y-39993400D03*
X107620000Y-38469400D03*
X107620000Y-39993400D03*
X106350000Y-38469400D03*
X106350000Y-39993400D03*
X105080000Y-38469400D03*
X105080000Y-39993400D03*
X103810000Y-38469400D03*
X103810000Y-39993400D03*
X102540000Y-38469400D03*
X102540000Y-39993400D03*
X101270000Y-38469400D03*
X101270000Y-39993400D03*
X100000000Y-38469400D03*
X100000000Y-39993400D03*
X98730000Y-38469400D03*
X98730000Y-39993400D03*
X97460000Y-38469400D03*
X97460000Y-39993400D03*
X96190000Y-38469400D03*
X96190000Y-39993400D03*
X94920000Y-38469400D03*
X94920000Y-39993400D03*
X93650000Y-38469400D03*
X93650000Y-39993400D03*
X92380000Y-38469400D03*
X92380000Y-39993400D03*
X91110000Y-38469400D03*
X91110000Y-39993400D03*
X89840000Y-38469400D03*
X89840000Y-39993400D03*
X88570000Y-38469400D03*
X88570000Y-39993400D03*
X87300000Y-38469400D03*
X87300000Y-39993400D03*
X86030000Y-38469400D03*
X86030000Y-39993400D03*
X84760000Y-38469400D03*
X84760000Y-39993400D03*
D16*
X117830800Y-33237000D03*
X82169200Y-33237000D03*
X117830800Y-35497600D03*
X82169200Y-35497600D03*
D20*
X64300000Y-54000000D03*
X66300000Y-54000000D03*
X64300000Y-55800000D03*
X66300000Y-55800000D03*
D21*
X63300000Y-78650000D03*
X63300000Y-66150000D03*
X48300000Y-78650000D03*
X48300000Y-66150000D03*
D22*
X71270000Y-57930000D03*
X71270000Y-55390000D03*
X71270000Y-52850000D03*
X71270000Y-50310000D03*
X71270000Y-47770000D03*
D23*
X50000000Y-44000000D03*
X150000000Y-44000000D03*
X150000000Y-86000000D03*
X68000000Y-86000000D03*
D24*
X63200000Y-51900000D03*
X57556600Y-39866400D03*
X56286600Y-39866400D03*
X53746600Y-39866400D03*
X55016600Y-39866400D03*
X51206600Y-39866400D03*
X52476600Y-39866400D03*
X62636600Y-39866400D03*
X61366600Y-39866400D03*
X58826600Y-39866400D03*
X60096600Y-39866400D03*
X61700000Y-74650000D03*
X58250000Y-69250000D03*
D25*
X83400000Y-91200000D02*
X83500000Y-91300000D01*
D26*
X63300000Y-66150000D02*
X63300000Y-66000000D01*
X130198400Y-50213480D02*
X131468400Y-50213480D01*
D25*
X124663400Y-38386600D02*
X124663400Y-38342400D01*
X135167400Y-38342400D02*
X134823400Y-38342400D01*
X128742400Y-38342400D02*
X128473400Y-38342400D01*
X131013400Y-38338400D02*
X131013400Y-38342400D01*
X132292400Y-38342400D02*
X132283400Y-38342400D01*
X142667400Y-38342400D02*
X142443400Y-38342400D01*
X140192400Y-38342400D02*
X139903400Y-38342400D01*
X145242400Y-38342400D02*
X144983400Y-38342400D01*
X143982600Y-38342400D02*
X143713400Y-38342400D01*
X146417400Y-38342400D02*
X146253400Y-38342400D01*
X128473400Y-39866400D02*
X128473400Y-39951600D01*
X124366400Y-39866400D02*
X124663400Y-39866400D01*
X138633400Y-40141600D02*
X138633400Y-39866400D01*
X137363400Y-40111600D02*
X137363400Y-39866400D01*
X134823400Y-40176600D02*
X134823400Y-39866400D01*
X146253400Y-39866400D02*
X146253400Y-40346600D01*
X144983400Y-39866400D02*
X144983400Y-40291600D01*
X147523400Y-39866400D02*
X147523400Y-40376600D01*
X148793400Y-39893400D02*
X148793400Y-39866400D01*
X143713400Y-39866400D02*
X143713400Y-40261600D01*
X142443400Y-40231600D02*
X142443400Y-39866400D01*
X142443400Y-40406600D02*
X142443400Y-39866400D01*
X139903400Y-40171600D02*
X139903400Y-39866400D01*
X141173400Y-40201600D02*
X141173400Y-39866400D01*
X148793400Y-38393400D02*
X148793400Y-38342400D01*
X147842400Y-38342400D02*
X147523400Y-38342400D01*
X133553400Y-39866400D02*
X133553400Y-40146600D01*
X132283400Y-39866400D02*
X132283400Y-40116600D01*
X130850000Y-40029800D02*
X130850000Y-40250000D01*
X131013400Y-39866400D02*
X130850000Y-40029800D01*
X131013400Y-41211600D02*
X131013400Y-39866400D01*
X131013400Y-39866400D02*
X131013400Y-41211600D01*
X63906600Y-39866400D02*
X63906600Y-43006600D01*
X71700000Y-45100000D02*
X83400000Y-56800000D01*
X66000000Y-45100000D02*
X71700000Y-45100000D01*
X63906600Y-43006600D02*
X66000000Y-45100000D01*
X75336600Y-39866400D02*
X75336600Y-42936600D01*
X75336600Y-42936600D02*
X87700000Y-55300000D01*
X61700000Y-72700000D02*
X61700000Y-74650000D01*
X58250000Y-69250000D02*
X61700000Y-72700000D01*
D10*
G36*
X47888857Y-32146995D02*
X47527065Y-32508155D01*
X47331023Y-32980276D01*
X47330577Y-33491481D01*
X47525795Y-33963943D01*
X47886955Y-34325735D01*
X47986717Y-34367160D01*
X47888857Y-34407595D01*
X47527065Y-34768755D01*
X47331023Y-35240876D01*
X47330577Y-35752081D01*
X47525795Y-36224543D01*
X47886955Y-36586335D01*
X48359076Y-36782377D01*
X48870281Y-36782823D01*
X49342743Y-36587605D01*
X49704535Y-36226445D01*
X49900577Y-35754324D01*
X49901023Y-35243119D01*
X49705805Y-34770657D01*
X49344645Y-34408865D01*
X49244883Y-34367440D01*
X49342743Y-34327005D01*
X49704535Y-33965845D01*
X49900577Y-33493724D01*
X49901023Y-32982519D01*
X49705805Y-32510057D01*
X49344645Y-32148265D01*
X48927377Y-31975000D01*
X77616715Y-31975000D01*
X77200457Y-32146995D01*
X76838665Y-32508155D01*
X76642623Y-32980276D01*
X76642177Y-33491481D01*
X76837395Y-33963943D01*
X77198555Y-34325735D01*
X77298317Y-34367160D01*
X77200457Y-34407595D01*
X76838665Y-34768755D01*
X76642623Y-35240876D01*
X76642177Y-35752081D01*
X76837395Y-36224543D01*
X77198555Y-36586335D01*
X77670676Y-36782377D01*
X78181881Y-36782823D01*
X78654343Y-36587605D01*
X79016135Y-36226445D01*
X79212177Y-35754324D01*
X79212623Y-35243119D01*
X79017405Y-34770657D01*
X78656245Y-34408865D01*
X78556483Y-34367440D01*
X78654343Y-34327005D01*
X79016135Y-33965845D01*
X79212177Y-33493724D01*
X79212623Y-32982519D01*
X79017405Y-32510057D01*
X78656245Y-32148265D01*
X78238977Y-31975000D01*
X81858515Y-31975000D01*
X81442257Y-32146995D01*
X81080465Y-32508155D01*
X80884423Y-32980276D01*
X80883977Y-33491481D01*
X81079195Y-33963943D01*
X81440355Y-34325735D01*
X81540117Y-34367160D01*
X81442257Y-34407595D01*
X81080465Y-34768755D01*
X80884423Y-35240876D01*
X80883977Y-35752081D01*
X81079195Y-36224543D01*
X81440355Y-36586335D01*
X81912476Y-36782377D01*
X82423681Y-36782823D01*
X82896143Y-36587605D01*
X83257935Y-36226445D01*
X83453977Y-35754324D01*
X83454423Y-35243119D01*
X83259205Y-34770657D01*
X82898045Y-34408865D01*
X82798283Y-34367440D01*
X82896143Y-34327005D01*
X83257935Y-33965845D01*
X83453977Y-33493724D01*
X83454423Y-32982519D01*
X83259205Y-32510057D01*
X82898045Y-32148265D01*
X82480777Y-31975000D01*
X117520115Y-31975000D01*
X117103857Y-32146995D01*
X116742065Y-32508155D01*
X116546023Y-32980276D01*
X116545577Y-33491481D01*
X116740795Y-33963943D01*
X117101955Y-34325735D01*
X117201717Y-34367160D01*
X117103857Y-34407595D01*
X116742065Y-34768755D01*
X116546023Y-35240876D01*
X116545577Y-35752081D01*
X116740795Y-36224543D01*
X117101955Y-36586335D01*
X117574076Y-36782377D01*
X118085281Y-36782823D01*
X118557743Y-36587605D01*
X118919535Y-36226445D01*
X119115577Y-35754324D01*
X119116023Y-35243119D01*
X118920805Y-34770657D01*
X118559645Y-34408865D01*
X118459883Y-34367440D01*
X118557743Y-34327005D01*
X118919535Y-33965845D01*
X119115577Y-33493724D01*
X119116023Y-32982519D01*
X118920805Y-32510057D01*
X118559645Y-32148265D01*
X118142377Y-31975000D01*
X121761915Y-31975000D01*
X121345657Y-32146995D01*
X120983865Y-32508155D01*
X120787823Y-32980276D01*
X120787377Y-33491481D01*
X120982595Y-33963943D01*
X121343755Y-34325735D01*
X121443517Y-34367160D01*
X121345657Y-34407595D01*
X120983865Y-34768755D01*
X120787823Y-35240876D01*
X120787377Y-35752081D01*
X120982595Y-36224543D01*
X121343755Y-36586335D01*
X121815876Y-36782377D01*
X122327081Y-36782823D01*
X122799543Y-36587605D01*
X123161335Y-36226445D01*
X123357377Y-35754324D01*
X123357823Y-35243119D01*
X123162605Y-34770657D01*
X122801445Y-34408865D01*
X122701683Y-34367440D01*
X122799543Y-34327005D01*
X123161335Y-33965845D01*
X123357377Y-33493724D01*
X123357823Y-32982519D01*
X123162605Y-32510057D01*
X122801445Y-32148265D01*
X122384177Y-31975000D01*
X151073515Y-31975000D01*
X150657257Y-32146995D01*
X150295465Y-32508155D01*
X150099423Y-32980276D01*
X150098977Y-33491481D01*
X150294195Y-33963943D01*
X150655355Y-34325735D01*
X150755117Y-34367160D01*
X150657257Y-34407595D01*
X150295465Y-34768755D01*
X150099423Y-35240876D01*
X150098977Y-35752081D01*
X150294195Y-36224543D01*
X150655355Y-36586335D01*
X151127476Y-36782377D01*
X151638681Y-36782823D01*
X152111143Y-36587605D01*
X152472935Y-36226445D01*
X152668977Y-35754324D01*
X152669423Y-35243119D01*
X152474205Y-34770657D01*
X152113045Y-34408865D01*
X152013283Y-34367440D01*
X152111143Y-34327005D01*
X152472935Y-33965845D01*
X152668977Y-33493724D01*
X152669423Y-32982519D01*
X152474205Y-32510057D01*
X152113045Y-32148265D01*
X151695777Y-31975000D01*
X153415100Y-31975000D01*
X153415100Y-50767069D01*
X153291053Y-50574295D01*
X153073841Y-50425880D01*
X152816000Y-50373666D01*
X150784000Y-50373666D01*
X150543124Y-50418990D01*
X150321895Y-50561347D01*
X150173480Y-50778559D01*
X150121266Y-51036400D01*
X150121266Y-52763600D01*
X150166590Y-53004476D01*
X150308947Y-53225705D01*
X150526159Y-53374120D01*
X150539888Y-53376900D01*
X150216577Y-53860770D01*
X150101361Y-54440000D01*
X150216577Y-55019230D01*
X150544684Y-55510277D01*
X150843591Y-55710000D01*
X150544684Y-55909723D01*
X150216577Y-56400770D01*
X150101361Y-56980000D01*
X150216577Y-57559230D01*
X150544684Y-58050277D01*
X151035731Y-58378384D01*
X151614961Y-58493600D01*
X151985039Y-58493600D01*
X152564269Y-58378384D01*
X153055316Y-58050277D01*
X153383423Y-57559230D01*
X153415100Y-57399979D01*
X153415100Y-90036000D01*
X149738400Y-90036000D01*
X149460955Y-90091187D01*
X149225748Y-90248348D01*
X149068587Y-90483555D01*
X149013400Y-90761000D01*
X149013400Y-99275000D01*
X71050000Y-99275000D01*
X71050000Y-91200000D01*
X82625000Y-91200000D01*
X82683993Y-91496580D01*
X82851992Y-91748008D01*
X82951992Y-91848008D01*
X83203420Y-92016007D01*
X83500000Y-92075000D01*
X83796579Y-92016007D01*
X84048008Y-91848008D01*
X84216007Y-91596579D01*
X84275000Y-91300000D01*
X84216007Y-91003420D01*
X84048008Y-90751992D01*
X83948008Y-90651992D01*
X83696580Y-90483993D01*
X83400000Y-90425000D01*
X83103420Y-90483993D01*
X82851992Y-90651992D01*
X82683993Y-90903420D01*
X82625000Y-91200000D01*
X71050000Y-91200000D01*
X71050000Y-87175040D01*
X106467366Y-87175040D01*
X106467366Y-89395000D01*
X106512690Y-89635876D01*
X106519361Y-89646242D01*
X106467366Y-89903000D01*
X106467366Y-92122960D01*
X106512690Y-92363836D01*
X106655047Y-92585065D01*
X106872259Y-92733480D01*
X107130100Y-92785694D01*
X107866700Y-92785694D01*
X108107576Y-92740370D01*
X108130631Y-92725535D01*
X108142259Y-92733480D01*
X108400100Y-92785694D01*
X109136700Y-92785694D01*
X109377576Y-92740370D01*
X109400631Y-92725535D01*
X109412259Y-92733480D01*
X109670100Y-92785694D01*
X110406700Y-92785694D01*
X110647576Y-92740370D01*
X110670631Y-92725535D01*
X110682259Y-92733480D01*
X110940100Y-92785694D01*
X111676700Y-92785694D01*
X111917576Y-92740370D01*
X111940631Y-92725535D01*
X111952259Y-92733480D01*
X112210100Y-92785694D01*
X112946700Y-92785694D01*
X113187576Y-92740370D01*
X113210631Y-92725535D01*
X113222259Y-92733480D01*
X113480100Y-92785694D01*
X114216700Y-92785694D01*
X114457576Y-92740370D01*
X114480631Y-92725535D01*
X114492259Y-92733480D01*
X114750100Y-92785694D01*
X115486700Y-92785694D01*
X115727576Y-92740370D01*
X115750631Y-92725535D01*
X115762259Y-92733480D01*
X116020100Y-92785694D01*
X116756700Y-92785694D01*
X116997576Y-92740370D01*
X117020631Y-92725535D01*
X117032259Y-92733480D01*
X117290100Y-92785694D01*
X118026700Y-92785694D01*
X118267576Y-92740370D01*
X118290631Y-92725535D01*
X118302259Y-92733480D01*
X118560100Y-92785694D01*
X119296700Y-92785694D01*
X119537576Y-92740370D01*
X119560631Y-92725535D01*
X119572259Y-92733480D01*
X119830100Y-92785694D01*
X120566700Y-92785694D01*
X120807576Y-92740370D01*
X120830631Y-92725535D01*
X120842259Y-92733480D01*
X121100100Y-92785694D01*
X121836700Y-92785694D01*
X122077576Y-92740370D01*
X122100631Y-92725535D01*
X122112259Y-92733480D01*
X122370100Y-92785694D01*
X123106700Y-92785694D01*
X123347576Y-92740370D01*
X123370631Y-92725535D01*
X123382259Y-92733480D01*
X123640100Y-92785694D01*
X124376700Y-92785694D01*
X124617576Y-92740370D01*
X124640631Y-92725535D01*
X124652259Y-92733480D01*
X124910100Y-92785694D01*
X125646700Y-92785694D01*
X125887576Y-92740370D01*
X125910631Y-92725535D01*
X125922259Y-92733480D01*
X126180100Y-92785694D01*
X126916700Y-92785694D01*
X127157576Y-92740370D01*
X127180631Y-92725535D01*
X127192259Y-92733480D01*
X127450100Y-92785694D01*
X128186700Y-92785694D01*
X128427576Y-92740370D01*
X128450631Y-92725535D01*
X128462259Y-92733480D01*
X128720100Y-92785694D01*
X129456700Y-92785694D01*
X129697576Y-92740370D01*
X129720631Y-92725535D01*
X129732259Y-92733480D01*
X129990100Y-92785694D01*
X130726700Y-92785694D01*
X130967576Y-92740370D01*
X130990631Y-92725535D01*
X131002259Y-92733480D01*
X131260100Y-92785694D01*
X131996700Y-92785694D01*
X132237576Y-92740370D01*
X132260631Y-92725535D01*
X132272259Y-92733480D01*
X132530100Y-92785694D01*
X133266700Y-92785694D01*
X133507576Y-92740370D01*
X133634836Y-92658480D01*
X133689107Y-92680960D01*
X133844750Y-92680960D01*
X133984250Y-92541460D01*
X133984250Y-91462980D01*
X134352550Y-91462980D01*
X134352550Y-92541460D01*
X134492050Y-92680960D01*
X134647693Y-92680960D01*
X134803400Y-92616465D01*
X134959107Y-92680960D01*
X135114750Y-92680960D01*
X135254250Y-92541460D01*
X135254250Y-91462980D01*
X135622550Y-91462980D01*
X135622550Y-92541460D01*
X135762050Y-92680960D01*
X135917693Y-92680960D01*
X136073400Y-92616465D01*
X136229107Y-92680960D01*
X136384750Y-92680960D01*
X136524250Y-92541460D01*
X136524250Y-91462980D01*
X135622550Y-91462980D01*
X135254250Y-91462980D01*
X134352550Y-91462980D01*
X133984250Y-91462980D01*
X133929434Y-91462980D01*
X133929434Y-90562980D01*
X133984250Y-90562980D01*
X133984250Y-90542980D01*
X134352550Y-90542980D01*
X134352550Y-90562980D01*
X135254250Y-90562980D01*
X135254250Y-90542980D01*
X135622550Y-90542980D01*
X135622550Y-90562980D01*
X136524250Y-90562980D01*
X136524250Y-90542980D01*
X136892550Y-90542980D01*
X136892550Y-90562980D01*
X136947366Y-90562980D01*
X136947366Y-91462980D01*
X136892550Y-91462980D01*
X136892550Y-92541460D01*
X137032050Y-92680960D01*
X137187693Y-92680960D01*
X137242294Y-92658344D01*
X137352259Y-92733480D01*
X137610100Y-92785694D01*
X138346700Y-92785694D01*
X138587576Y-92740370D01*
X138808805Y-92598013D01*
X138957220Y-92380801D01*
X139009434Y-92122960D01*
X139009434Y-89903000D01*
X138964110Y-89662124D01*
X138957439Y-89651758D01*
X139009434Y-89395000D01*
X139009434Y-87175040D01*
X138964110Y-86934164D01*
X138821753Y-86712935D01*
X138604541Y-86564520D01*
X138439716Y-86531142D01*
X147317536Y-86531142D01*
X147724986Y-87517246D01*
X148478786Y-88272363D01*
X149464177Y-88681533D01*
X150531142Y-88682464D01*
X151517246Y-88275014D01*
X152272363Y-87521214D01*
X152681533Y-86535823D01*
X152682464Y-85468858D01*
X152275014Y-84482754D01*
X151521214Y-83727637D01*
X150535823Y-83318467D01*
X149468858Y-83317536D01*
X148482754Y-83724986D01*
X147727637Y-84478786D01*
X147318467Y-85464177D01*
X147317536Y-86531142D01*
X138439716Y-86531142D01*
X138346700Y-86512306D01*
X137610100Y-86512306D01*
X137369224Y-86557630D01*
X137346169Y-86572465D01*
X137334541Y-86564520D01*
X137076700Y-86512306D01*
X136340100Y-86512306D01*
X136099224Y-86557630D01*
X136076169Y-86572465D01*
X136064541Y-86564520D01*
X135806700Y-86512306D01*
X135070100Y-86512306D01*
X134829224Y-86557630D01*
X134806169Y-86572465D01*
X134794541Y-86564520D01*
X134536700Y-86512306D01*
X133800100Y-86512306D01*
X133559224Y-86557630D01*
X133536169Y-86572465D01*
X133524541Y-86564520D01*
X133266700Y-86512306D01*
X132530100Y-86512306D01*
X132289224Y-86557630D01*
X132266169Y-86572465D01*
X132254541Y-86564520D01*
X131996700Y-86512306D01*
X131260100Y-86512306D01*
X131019224Y-86557630D01*
X130996169Y-86572465D01*
X130984541Y-86564520D01*
X130726700Y-86512306D01*
X129990100Y-86512306D01*
X129749224Y-86557630D01*
X129726169Y-86572465D01*
X129714541Y-86564520D01*
X129456700Y-86512306D01*
X128720100Y-86512306D01*
X128479224Y-86557630D01*
X128456169Y-86572465D01*
X128444541Y-86564520D01*
X128186700Y-86512306D01*
X127450100Y-86512306D01*
X127209224Y-86557630D01*
X127186169Y-86572465D01*
X127174541Y-86564520D01*
X126916700Y-86512306D01*
X126180100Y-86512306D01*
X125939224Y-86557630D01*
X125916169Y-86572465D01*
X125904541Y-86564520D01*
X125646700Y-86512306D01*
X124910100Y-86512306D01*
X124669224Y-86557630D01*
X124646169Y-86572465D01*
X124634541Y-86564520D01*
X124376700Y-86512306D01*
X123640100Y-86512306D01*
X123399224Y-86557630D01*
X123376169Y-86572465D01*
X123364541Y-86564520D01*
X123106700Y-86512306D01*
X122370100Y-86512306D01*
X122129224Y-86557630D01*
X122106169Y-86572465D01*
X122094541Y-86564520D01*
X121836700Y-86512306D01*
X121100100Y-86512306D01*
X120859224Y-86557630D01*
X120836169Y-86572465D01*
X120824541Y-86564520D01*
X120566700Y-86512306D01*
X119830100Y-86512306D01*
X119589224Y-86557630D01*
X119566169Y-86572465D01*
X119554541Y-86564520D01*
X119296700Y-86512306D01*
X118560100Y-86512306D01*
X118319224Y-86557630D01*
X118296169Y-86572465D01*
X118284541Y-86564520D01*
X118026700Y-86512306D01*
X117290100Y-86512306D01*
X117049224Y-86557630D01*
X117026169Y-86572465D01*
X117014541Y-86564520D01*
X116756700Y-86512306D01*
X116020100Y-86512306D01*
X115779224Y-86557630D01*
X115756169Y-86572465D01*
X115744541Y-86564520D01*
X115486700Y-86512306D01*
X114750100Y-86512306D01*
X114509224Y-86557630D01*
X114486169Y-86572465D01*
X114474541Y-86564520D01*
X114216700Y-86512306D01*
X113480100Y-86512306D01*
X113239224Y-86557630D01*
X113216169Y-86572465D01*
X113204541Y-86564520D01*
X112946700Y-86512306D01*
X112210100Y-86512306D01*
X111969224Y-86557630D01*
X111946169Y-86572465D01*
X111934541Y-86564520D01*
X111676700Y-86512306D01*
X110940100Y-86512306D01*
X110699224Y-86557630D01*
X110676169Y-86572465D01*
X110664541Y-86564520D01*
X110406700Y-86512306D01*
X109670100Y-86512306D01*
X109429224Y-86557630D01*
X109406169Y-86572465D01*
X109394541Y-86564520D01*
X109136700Y-86512306D01*
X108400100Y-86512306D01*
X108159224Y-86557630D01*
X108136169Y-86572465D01*
X108124541Y-86564520D01*
X107866700Y-86512306D01*
X107130100Y-86512306D01*
X106889224Y-86557630D01*
X106667995Y-86699987D01*
X106519580Y-86917199D01*
X106467366Y-87175040D01*
X71050000Y-87175040D01*
X71050000Y-73575040D01*
X106467366Y-73575040D01*
X106467366Y-75795000D01*
X106512690Y-76035876D01*
X106519361Y-76046242D01*
X106467366Y-76303000D01*
X106467366Y-78522960D01*
X106512690Y-78763836D01*
X106655047Y-78985065D01*
X106872259Y-79133480D01*
X107130100Y-79185694D01*
X107866700Y-79185694D01*
X108107576Y-79140370D01*
X108130631Y-79125535D01*
X108142259Y-79133480D01*
X108400100Y-79185694D01*
X109136700Y-79185694D01*
X109377576Y-79140370D01*
X109400631Y-79125535D01*
X109412259Y-79133480D01*
X109670100Y-79185694D01*
X110406700Y-79185694D01*
X110647576Y-79140370D01*
X110670631Y-79125535D01*
X110682259Y-79133480D01*
X110940100Y-79185694D01*
X111676700Y-79185694D01*
X111917576Y-79140370D01*
X111940631Y-79125535D01*
X111952259Y-79133480D01*
X112210100Y-79185694D01*
X112946700Y-79185694D01*
X113187576Y-79140370D01*
X113210631Y-79125535D01*
X113222259Y-79133480D01*
X113480100Y-79185694D01*
X114216700Y-79185694D01*
X114457576Y-79140370D01*
X114480631Y-79125535D01*
X114492259Y-79133480D01*
X114750100Y-79185694D01*
X115486700Y-79185694D01*
X115727576Y-79140370D01*
X115750631Y-79125535D01*
X115762259Y-79133480D01*
X116020100Y-79185694D01*
X116756700Y-79185694D01*
X116997576Y-79140370D01*
X117020631Y-79125535D01*
X117032259Y-79133480D01*
X117290100Y-79185694D01*
X118026700Y-79185694D01*
X118267576Y-79140370D01*
X118290631Y-79125535D01*
X118302259Y-79133480D01*
X118560100Y-79185694D01*
X119296700Y-79185694D01*
X119537576Y-79140370D01*
X119560631Y-79125535D01*
X119572259Y-79133480D01*
X119830100Y-79185694D01*
X120566700Y-79185694D01*
X120807576Y-79140370D01*
X120830631Y-79125535D01*
X120842259Y-79133480D01*
X121100100Y-79185694D01*
X121836700Y-79185694D01*
X122077576Y-79140370D01*
X122100631Y-79125535D01*
X122112259Y-79133480D01*
X122370100Y-79185694D01*
X123106700Y-79185694D01*
X123347576Y-79140370D01*
X123370631Y-79125535D01*
X123382259Y-79133480D01*
X123640100Y-79185694D01*
X124376700Y-79185694D01*
X124617576Y-79140370D01*
X124640631Y-79125535D01*
X124652259Y-79133480D01*
X124910100Y-79185694D01*
X125646700Y-79185694D01*
X125887576Y-79140370D01*
X125910631Y-79125535D01*
X125922259Y-79133480D01*
X126180100Y-79185694D01*
X126916700Y-79185694D01*
X127157576Y-79140370D01*
X127180631Y-79125535D01*
X127192259Y-79133480D01*
X127450100Y-79185694D01*
X128186700Y-79185694D01*
X128427576Y-79140370D01*
X128450631Y-79125535D01*
X128462259Y-79133480D01*
X128720100Y-79185694D01*
X129456700Y-79185694D01*
X129697576Y-79140370D01*
X129720631Y-79125535D01*
X129732259Y-79133480D01*
X129990100Y-79185694D01*
X130726700Y-79185694D01*
X130967576Y-79140370D01*
X130990631Y-79125535D01*
X131002259Y-79133480D01*
X131260100Y-79185694D01*
X131996700Y-79185694D01*
X132237576Y-79140370D01*
X132260631Y-79125535D01*
X132272259Y-79133480D01*
X132530100Y-79185694D01*
X133266700Y-79185694D01*
X133507576Y-79140370D01*
X133634836Y-79058480D01*
X133689107Y-79080960D01*
X133844750Y-79080960D01*
X133984250Y-78941460D01*
X133984250Y-77862980D01*
X134352550Y-77862980D01*
X134352550Y-78941460D01*
X134492050Y-79080960D01*
X134647693Y-79080960D01*
X134803400Y-79016465D01*
X134959107Y-79080960D01*
X135114750Y-79080960D01*
X135254250Y-78941460D01*
X135254250Y-77862980D01*
X135622550Y-77862980D01*
X135622550Y-78941460D01*
X135762050Y-79080960D01*
X135917693Y-79080960D01*
X136073400Y-79016465D01*
X136229107Y-79080960D01*
X136384750Y-79080960D01*
X136524250Y-78941460D01*
X136524250Y-77862980D01*
X135622550Y-77862980D01*
X135254250Y-77862980D01*
X134352550Y-77862980D01*
X133984250Y-77862980D01*
X133929434Y-77862980D01*
X133929434Y-76962980D01*
X133984250Y-76962980D01*
X133984250Y-76942980D01*
X134352550Y-76942980D01*
X134352550Y-76962980D01*
X135254250Y-76962980D01*
X135254250Y-76942980D01*
X135622550Y-76942980D01*
X135622550Y-76962980D01*
X136524250Y-76962980D01*
X136524250Y-76942980D01*
X136892550Y-76942980D01*
X136892550Y-76962980D01*
X136947366Y-76962980D01*
X136947366Y-77862980D01*
X136892550Y-77862980D01*
X136892550Y-78941460D01*
X137032050Y-79080960D01*
X137187693Y-79080960D01*
X137242294Y-79058344D01*
X137352259Y-79133480D01*
X137610100Y-79185694D01*
X138346700Y-79185694D01*
X138587576Y-79140370D01*
X138808805Y-78998013D01*
X138957220Y-78780801D01*
X139009434Y-78522960D01*
X139009434Y-76303000D01*
X138964110Y-76062124D01*
X138957439Y-76051758D01*
X139009434Y-75795000D01*
X139009434Y-73575040D01*
X138964110Y-73334164D01*
X138821753Y-73112935D01*
X138604541Y-72964520D01*
X138346700Y-72912306D01*
X137610100Y-72912306D01*
X137369224Y-72957630D01*
X137346169Y-72972465D01*
X137334541Y-72964520D01*
X137076700Y-72912306D01*
X136340100Y-72912306D01*
X136099224Y-72957630D01*
X136076169Y-72972465D01*
X136064541Y-72964520D01*
X135806700Y-72912306D01*
X135070100Y-72912306D01*
X134829224Y-72957630D01*
X134806169Y-72972465D01*
X134794541Y-72964520D01*
X134536700Y-72912306D01*
X133800100Y-72912306D01*
X133559224Y-72957630D01*
X133536169Y-72972465D01*
X133524541Y-72964520D01*
X133266700Y-72912306D01*
X132530100Y-72912306D01*
X132289224Y-72957630D01*
X132266169Y-72972465D01*
X132254541Y-72964520D01*
X131996700Y-72912306D01*
X131260100Y-72912306D01*
X131019224Y-72957630D01*
X130996169Y-72972465D01*
X130984541Y-72964520D01*
X130726700Y-72912306D01*
X129990100Y-72912306D01*
X129749224Y-72957630D01*
X129726169Y-72972465D01*
X129714541Y-72964520D01*
X129456700Y-72912306D01*
X128720100Y-72912306D01*
X128479224Y-72957630D01*
X128456169Y-72972465D01*
X128444541Y-72964520D01*
X128186700Y-72912306D01*
X127450100Y-72912306D01*
X127209224Y-72957630D01*
X127186169Y-72972465D01*
X127174541Y-72964520D01*
X126916700Y-72912306D01*
X126180100Y-72912306D01*
X125939224Y-72957630D01*
X125916169Y-72972465D01*
X125904541Y-72964520D01*
X125646700Y-72912306D01*
X124910100Y-72912306D01*
X124669224Y-72957630D01*
X124646169Y-72972465D01*
X124634541Y-72964520D01*
X124376700Y-72912306D01*
X123640100Y-72912306D01*
X123399224Y-72957630D01*
X123376169Y-72972465D01*
X123364541Y-72964520D01*
X123106700Y-72912306D01*
X122370100Y-72912306D01*
X122129224Y-72957630D01*
X122106169Y-72972465D01*
X122094541Y-72964520D01*
X121836700Y-72912306D01*
X121100100Y-72912306D01*
X120859224Y-72957630D01*
X120836169Y-72972465D01*
X120824541Y-72964520D01*
X120566700Y-72912306D01*
X119830100Y-72912306D01*
X119589224Y-72957630D01*
X119566169Y-72972465D01*
X119554541Y-72964520D01*
X119296700Y-72912306D01*
X118560100Y-72912306D01*
X118319224Y-72957630D01*
X118296169Y-72972465D01*
X118284541Y-72964520D01*
X118026700Y-72912306D01*
X117290100Y-72912306D01*
X117049224Y-72957630D01*
X117026169Y-72972465D01*
X117014541Y-72964520D01*
X116756700Y-72912306D01*
X116020100Y-72912306D01*
X115779224Y-72957630D01*
X115756169Y-72972465D01*
X115744541Y-72964520D01*
X115486700Y-72912306D01*
X114750100Y-72912306D01*
X114509224Y-72957630D01*
X114486169Y-72972465D01*
X114474541Y-72964520D01*
X114216700Y-72912306D01*
X113480100Y-72912306D01*
X113239224Y-72957630D01*
X113216169Y-72972465D01*
X113204541Y-72964520D01*
X112946700Y-72912306D01*
X112210100Y-72912306D01*
X111969224Y-72957630D01*
X111946169Y-72972465D01*
X111934541Y-72964520D01*
X111676700Y-72912306D01*
X110940100Y-72912306D01*
X110699224Y-72957630D01*
X110676169Y-72972465D01*
X110664541Y-72964520D01*
X110406700Y-72912306D01*
X109670100Y-72912306D01*
X109429224Y-72957630D01*
X109406169Y-72972465D01*
X109394541Y-72964520D01*
X109136700Y-72912306D01*
X108400100Y-72912306D01*
X108159224Y-72957630D01*
X108136169Y-72972465D01*
X108124541Y-72964520D01*
X107866700Y-72912306D01*
X107130100Y-72912306D01*
X106889224Y-72957630D01*
X106667995Y-73099987D01*
X106519580Y-73317199D01*
X106467366Y-73575040D01*
X71050000Y-73575040D01*
X71050000Y-59975040D01*
X106467366Y-59975040D01*
X106467366Y-62195000D01*
X106512690Y-62435876D01*
X106519361Y-62446242D01*
X106467366Y-62703000D01*
X106467366Y-64922960D01*
X106512690Y-65163836D01*
X106655047Y-65385065D01*
X106872259Y-65533480D01*
X107130100Y-65585694D01*
X107866700Y-65585694D01*
X108107576Y-65540370D01*
X108130631Y-65525535D01*
X108142259Y-65533480D01*
X108400100Y-65585694D01*
X109136700Y-65585694D01*
X109377576Y-65540370D01*
X109400631Y-65525535D01*
X109412259Y-65533480D01*
X109670100Y-65585694D01*
X110406700Y-65585694D01*
X110647576Y-65540370D01*
X110670631Y-65525535D01*
X110682259Y-65533480D01*
X110940100Y-65585694D01*
X111676700Y-65585694D01*
X111917576Y-65540370D01*
X111940631Y-65525535D01*
X111952259Y-65533480D01*
X112210100Y-65585694D01*
X112946700Y-65585694D01*
X113187576Y-65540370D01*
X113210631Y-65525535D01*
X113222259Y-65533480D01*
X113480100Y-65585694D01*
X114216700Y-65585694D01*
X114457576Y-65540370D01*
X114480631Y-65525535D01*
X114492259Y-65533480D01*
X114750100Y-65585694D01*
X115486700Y-65585694D01*
X115727576Y-65540370D01*
X115750631Y-65525535D01*
X115762259Y-65533480D01*
X116020100Y-65585694D01*
X116756700Y-65585694D01*
X116997576Y-65540370D01*
X117020631Y-65525535D01*
X117032259Y-65533480D01*
X117290100Y-65585694D01*
X118026700Y-65585694D01*
X118267576Y-65540370D01*
X118290631Y-65525535D01*
X118302259Y-65533480D01*
X118560100Y-65585694D01*
X119296700Y-65585694D01*
X119537576Y-65540370D01*
X119560631Y-65525535D01*
X119572259Y-65533480D01*
X119830100Y-65585694D01*
X120566700Y-65585694D01*
X120807576Y-65540370D01*
X120830631Y-65525535D01*
X120842259Y-65533480D01*
X121100100Y-65585694D01*
X121836700Y-65585694D01*
X122077576Y-65540370D01*
X122100631Y-65525535D01*
X122112259Y-65533480D01*
X122370100Y-65585694D01*
X123106700Y-65585694D01*
X123347576Y-65540370D01*
X123370631Y-65525535D01*
X123382259Y-65533480D01*
X123640100Y-65585694D01*
X124376700Y-65585694D01*
X124617576Y-65540370D01*
X124640631Y-65525535D01*
X124652259Y-65533480D01*
X124910100Y-65585694D01*
X125646700Y-65585694D01*
X125887576Y-65540370D01*
X125910631Y-65525535D01*
X125922259Y-65533480D01*
X126180100Y-65585694D01*
X126916700Y-65585694D01*
X127157576Y-65540370D01*
X127180631Y-65525535D01*
X127192259Y-65533480D01*
X127450100Y-65585694D01*
X128186700Y-65585694D01*
X128427576Y-65540370D01*
X128450631Y-65525535D01*
X128462259Y-65533480D01*
X128720100Y-65585694D01*
X129456700Y-65585694D01*
X129697576Y-65540370D01*
X129720631Y-65525535D01*
X129732259Y-65533480D01*
X129990100Y-65585694D01*
X130726700Y-65585694D01*
X130967576Y-65540370D01*
X130990631Y-65525535D01*
X131002259Y-65533480D01*
X131260100Y-65585694D01*
X131996700Y-65585694D01*
X132237576Y-65540370D01*
X132260631Y-65525535D01*
X132272259Y-65533480D01*
X132530100Y-65585694D01*
X133266700Y-65585694D01*
X133507576Y-65540370D01*
X133634836Y-65458480D01*
X133689107Y-65480960D01*
X133844750Y-65480960D01*
X133984250Y-65341460D01*
X133984250Y-64262980D01*
X134352550Y-64262980D01*
X134352550Y-65341460D01*
X134492050Y-65480960D01*
X134647693Y-65480960D01*
X134803400Y-65416465D01*
X134959107Y-65480960D01*
X135114750Y-65480960D01*
X135254250Y-65341460D01*
X135254250Y-64262980D01*
X135622550Y-64262980D01*
X135622550Y-65341460D01*
X135762050Y-65480960D01*
X135917693Y-65480960D01*
X136073400Y-65416465D01*
X136229107Y-65480960D01*
X136384750Y-65480960D01*
X136524250Y-65341460D01*
X136524250Y-64262980D01*
X135622550Y-64262980D01*
X135254250Y-64262980D01*
X134352550Y-64262980D01*
X133984250Y-64262980D01*
X133929434Y-64262980D01*
X133929434Y-63362980D01*
X133984250Y-63362980D01*
X133984250Y-63342980D01*
X134352550Y-63342980D01*
X134352550Y-63362980D01*
X135254250Y-63362980D01*
X135254250Y-63342980D01*
X135622550Y-63342980D01*
X135622550Y-63362980D01*
X136524250Y-63362980D01*
X136524250Y-63342980D01*
X136892550Y-63342980D01*
X136892550Y-63362980D01*
X136947366Y-63362980D01*
X136947366Y-64262980D01*
X136892550Y-64262980D01*
X136892550Y-65341460D01*
X137032050Y-65480960D01*
X137187693Y-65480960D01*
X137242294Y-65458344D01*
X137352259Y-65533480D01*
X137610100Y-65585694D01*
X138346700Y-65585694D01*
X138587576Y-65540370D01*
X138808805Y-65398013D01*
X138957220Y-65180801D01*
X139009434Y-64922960D01*
X139009434Y-62703000D01*
X138964110Y-62462124D01*
X138957439Y-62451758D01*
X139009434Y-62195000D01*
X139009434Y-59975040D01*
X138964110Y-59734164D01*
X138821753Y-59512935D01*
X138604541Y-59364520D01*
X138346700Y-59312306D01*
X137610100Y-59312306D01*
X137369224Y-59357630D01*
X137346169Y-59372465D01*
X137334541Y-59364520D01*
X137076700Y-59312306D01*
X136340100Y-59312306D01*
X136099224Y-59357630D01*
X136076169Y-59372465D01*
X136064541Y-59364520D01*
X135806700Y-59312306D01*
X135070100Y-59312306D01*
X134829224Y-59357630D01*
X134806169Y-59372465D01*
X134794541Y-59364520D01*
X134536700Y-59312306D01*
X133800100Y-59312306D01*
X133559224Y-59357630D01*
X133536169Y-59372465D01*
X133524541Y-59364520D01*
X133266700Y-59312306D01*
X132530100Y-59312306D01*
X132289224Y-59357630D01*
X132266169Y-59372465D01*
X132254541Y-59364520D01*
X131996700Y-59312306D01*
X131260100Y-59312306D01*
X131019224Y-59357630D01*
X130996169Y-59372465D01*
X130984541Y-59364520D01*
X130726700Y-59312306D01*
X129990100Y-59312306D01*
X129749224Y-59357630D01*
X129726169Y-59372465D01*
X129714541Y-59364520D01*
X129456700Y-59312306D01*
X128720100Y-59312306D01*
X128479224Y-59357630D01*
X128456169Y-59372465D01*
X128444541Y-59364520D01*
X128186700Y-59312306D01*
X127450100Y-59312306D01*
X127209224Y-59357630D01*
X127186169Y-59372465D01*
X127174541Y-59364520D01*
X126916700Y-59312306D01*
X126180100Y-59312306D01*
X125939224Y-59357630D01*
X125916169Y-59372465D01*
X125904541Y-59364520D01*
X125646700Y-59312306D01*
X124910100Y-59312306D01*
X124669224Y-59357630D01*
X124646169Y-59372465D01*
X124634541Y-59364520D01*
X124376700Y-59312306D01*
X123640100Y-59312306D01*
X123399224Y-59357630D01*
X123376169Y-59372465D01*
X123364541Y-59364520D01*
X123106700Y-59312306D01*
X122370100Y-59312306D01*
X122129224Y-59357630D01*
X122106169Y-59372465D01*
X122094541Y-59364520D01*
X121836700Y-59312306D01*
X121100100Y-59312306D01*
X120859224Y-59357630D01*
X120836169Y-59372465D01*
X120824541Y-59364520D01*
X120566700Y-59312306D01*
X119830100Y-59312306D01*
X119589224Y-59357630D01*
X119566169Y-59372465D01*
X119554541Y-59364520D01*
X119296700Y-59312306D01*
X118560100Y-59312306D01*
X118319224Y-59357630D01*
X118296169Y-59372465D01*
X118284541Y-59364520D01*
X118026700Y-59312306D01*
X117290100Y-59312306D01*
X117049224Y-59357630D01*
X117026169Y-59372465D01*
X117014541Y-59364520D01*
X116756700Y-59312306D01*
X116020100Y-59312306D01*
X115779224Y-59357630D01*
X115756169Y-59372465D01*
X115744541Y-59364520D01*
X115486700Y-59312306D01*
X114750100Y-59312306D01*
X114509224Y-59357630D01*
X114486169Y-59372465D01*
X114474541Y-59364520D01*
X114216700Y-59312306D01*
X113480100Y-59312306D01*
X113239224Y-59357630D01*
X113216169Y-59372465D01*
X113204541Y-59364520D01*
X112946700Y-59312306D01*
X112210100Y-59312306D01*
X111969224Y-59357630D01*
X111946169Y-59372465D01*
X111934541Y-59364520D01*
X111676700Y-59312306D01*
X110940100Y-59312306D01*
X110699224Y-59357630D01*
X110676169Y-59372465D01*
X110664541Y-59364520D01*
X110406700Y-59312306D01*
X109670100Y-59312306D01*
X109429224Y-59357630D01*
X109406169Y-59372465D01*
X109394541Y-59364520D01*
X109136700Y-59312306D01*
X108400100Y-59312306D01*
X108159224Y-59357630D01*
X108136169Y-59372465D01*
X108124541Y-59364520D01*
X107866700Y-59312306D01*
X107130100Y-59312306D01*
X106889224Y-59357630D01*
X106667995Y-59499987D01*
X106519580Y-59717199D01*
X106467366Y-59975040D01*
X71050000Y-59975040D01*
X71050000Y-59595809D01*
X71599934Y-59596289D01*
X72212480Y-59343190D01*
X72681543Y-58874945D01*
X72727403Y-58764500D01*
X144592000Y-58764500D01*
X144592000Y-58910993D01*
X144676950Y-59116082D01*
X144833918Y-59273049D01*
X145039007Y-59358000D01*
X145335500Y-59358000D01*
X145475000Y-59218500D01*
X145475000Y-58625000D01*
X146125000Y-58625000D01*
X146125000Y-59218500D01*
X146264500Y-59358000D01*
X146560993Y-59358000D01*
X146766082Y-59273049D01*
X146900000Y-59139132D01*
X146983918Y-59223049D01*
X147189007Y-59308000D01*
X147485500Y-59308000D01*
X147625000Y-59168500D01*
X147625000Y-58575000D01*
X148275000Y-58575000D01*
X148275000Y-59168500D01*
X148414500Y-59308000D01*
X148710993Y-59308000D01*
X148916082Y-59223049D01*
X149073050Y-59066082D01*
X149158000Y-58860993D01*
X149158000Y-58714500D01*
X149018500Y-58575000D01*
X148275000Y-58575000D01*
X147625000Y-58575000D01*
X146881500Y-58575000D01*
X146831500Y-58625000D01*
X146125000Y-58625000D01*
X145475000Y-58625000D01*
X144731500Y-58625000D01*
X144592000Y-58764500D01*
X72727403Y-58764500D01*
X72935710Y-58262842D01*
X72936289Y-57600066D01*
X72683190Y-56987520D01*
X72214945Y-56518457D01*
X71602842Y-56264290D01*
X71507811Y-56264207D01*
X71270000Y-56026396D01*
X71255858Y-56040539D01*
X71050000Y-55834681D01*
X71050000Y-55390000D01*
X71906396Y-55390000D01*
X72574278Y-56057882D01*
X72780757Y-55931398D01*
X72872942Y-55312046D01*
X72780757Y-54848602D01*
X72574278Y-54722118D01*
X71906396Y-55390000D01*
X71050000Y-55390000D01*
X71050000Y-54945319D01*
X71255858Y-54739462D01*
X71270000Y-54753604D01*
X71507396Y-54516208D01*
X71599934Y-54516289D01*
X72212480Y-54263190D01*
X72681543Y-53794945D01*
X72935710Y-53182842D01*
X72936289Y-52520066D01*
X72683190Y-51907520D01*
X72356081Y-51579839D01*
X72681543Y-51254945D01*
X72935710Y-50642842D01*
X72936289Y-49980066D01*
X72683190Y-49367520D01*
X72356081Y-49039839D01*
X72681543Y-48714945D01*
X72935710Y-48102842D01*
X72936289Y-47440066D01*
X72930824Y-47426840D01*
X82851992Y-57348008D01*
X83103421Y-57516007D01*
X83400000Y-57575001D01*
X83696580Y-57516007D01*
X83948008Y-57348008D01*
X84116007Y-57096580D01*
X84175001Y-56800000D01*
X84116007Y-56503421D01*
X83948008Y-56251992D01*
X83896016Y-56200000D01*
X144487266Y-56200000D01*
X144487266Y-56900000D01*
X144532590Y-57140876D01*
X144674947Y-57362105D01*
X144892159Y-57510520D01*
X145047612Y-57542000D01*
X145039007Y-57542000D01*
X144833918Y-57626951D01*
X144676950Y-57783918D01*
X144592000Y-57989007D01*
X144592000Y-58135500D01*
X144731500Y-58275000D01*
X145475000Y-58275000D01*
X145475000Y-58100000D01*
X146125000Y-58100000D01*
X146125000Y-58275000D01*
X146868500Y-58275000D01*
X146918500Y-58225000D01*
X147625000Y-58225000D01*
X147625000Y-58050000D01*
X148275000Y-58050000D01*
X148275000Y-58225000D01*
X149018500Y-58225000D01*
X149158000Y-58085500D01*
X149158000Y-57939007D01*
X149073050Y-57733918D01*
X148916082Y-57576951D01*
X148710993Y-57492000D01*
X148710192Y-57492000D01*
X148840876Y-57467410D01*
X149062105Y-57325053D01*
X149210520Y-57107841D01*
X149262734Y-56850000D01*
X149262734Y-56150000D01*
X149217410Y-55909124D01*
X149075053Y-55687895D01*
X148857841Y-55539480D01*
X148600000Y-55487266D01*
X147300000Y-55487266D01*
X147059124Y-55532590D01*
X146837895Y-55674947D01*
X146836313Y-55677262D01*
X146707841Y-55589480D01*
X146450000Y-55537266D01*
X145150000Y-55537266D01*
X144909124Y-55582590D01*
X144687895Y-55724947D01*
X144539480Y-55942159D01*
X144487266Y-56200000D01*
X83896016Y-56200000D01*
X72248008Y-44551992D01*
X71996580Y-44383993D01*
X71700000Y-44325000D01*
X66321016Y-44325000D01*
X64681600Y-42685584D01*
X64681600Y-41074977D01*
X64808300Y-41100634D01*
X65544900Y-41100634D01*
X65785776Y-41055310D01*
X65808831Y-41040475D01*
X65820459Y-41048420D01*
X66078300Y-41100634D01*
X66814900Y-41100634D01*
X67055776Y-41055310D01*
X67078831Y-41040475D01*
X67090459Y-41048420D01*
X67348300Y-41100634D01*
X68084900Y-41100634D01*
X68325776Y-41055310D01*
X68348831Y-41040475D01*
X68360459Y-41048420D01*
X68618300Y-41100634D01*
X69354900Y-41100634D01*
X69595776Y-41055310D01*
X69618831Y-41040475D01*
X69630459Y-41048420D01*
X69888300Y-41100634D01*
X70624900Y-41100634D01*
X70865776Y-41055310D01*
X70888831Y-41040475D01*
X70900459Y-41048420D01*
X71158300Y-41100634D01*
X71894900Y-41100634D01*
X72135776Y-41055310D01*
X72158831Y-41040475D01*
X72170459Y-41048420D01*
X72428300Y-41100634D01*
X73164900Y-41100634D01*
X73405776Y-41055310D01*
X73428831Y-41040475D01*
X73440459Y-41048420D01*
X73698300Y-41100634D01*
X74434900Y-41100634D01*
X74561600Y-41076794D01*
X74561600Y-42936600D01*
X74620593Y-43233180D01*
X74788592Y-43484608D01*
X87151992Y-55848008D01*
X87403420Y-56016007D01*
X87700000Y-56075000D01*
X87996580Y-56016007D01*
X88248008Y-55848008D01*
X88416007Y-55596580D01*
X88475000Y-55300000D01*
X88416007Y-55003420D01*
X88248008Y-54751992D01*
X79871556Y-46375540D01*
X129167366Y-46375540D01*
X129167366Y-48595500D01*
X129212690Y-48836376D01*
X129219361Y-48846742D01*
X129167366Y-49103500D01*
X129167366Y-51323460D01*
X129212690Y-51564336D01*
X129355047Y-51785565D01*
X129572259Y-51933980D01*
X129830100Y-51986194D01*
X130566700Y-51986194D01*
X130807576Y-51940870D01*
X130830631Y-51926035D01*
X130842259Y-51933980D01*
X131100100Y-51986194D01*
X131836700Y-51986194D01*
X132077576Y-51940870D01*
X132100631Y-51926035D01*
X132112259Y-51933980D01*
X132370100Y-51986194D01*
X133106700Y-51986194D01*
X133347576Y-51940870D01*
X133370631Y-51926035D01*
X133382259Y-51933980D01*
X133640100Y-51986194D01*
X134376700Y-51986194D01*
X134617576Y-51940870D01*
X134640631Y-51926035D01*
X134652259Y-51933980D01*
X134910100Y-51986194D01*
X135646700Y-51986194D01*
X135887576Y-51940870D01*
X136108805Y-51798513D01*
X136257220Y-51581301D01*
X136309434Y-51323460D01*
X136309434Y-49103500D01*
X136264110Y-48862624D01*
X136188621Y-48745311D01*
X136204700Y-48706493D01*
X136204700Y-48075020D01*
X136065200Y-47935520D01*
X135462550Y-47935520D01*
X135462550Y-47955520D01*
X135094250Y-47955520D01*
X135094250Y-47935520D01*
X135039434Y-47935520D01*
X135039434Y-47035520D01*
X135094250Y-47035520D01*
X135094250Y-45957040D01*
X135462550Y-45957040D01*
X135462550Y-47035520D01*
X136065200Y-47035520D01*
X136204700Y-46896020D01*
X136204700Y-46264547D01*
X136119749Y-46059458D01*
X135962782Y-45902490D01*
X135757693Y-45817540D01*
X135602050Y-45817540D01*
X135462550Y-45957040D01*
X135094250Y-45957040D01*
X134954750Y-45817540D01*
X134799107Y-45817540D01*
X134744506Y-45840156D01*
X134634541Y-45765020D01*
X134376700Y-45712806D01*
X133640100Y-45712806D01*
X133399224Y-45758130D01*
X133271964Y-45840020D01*
X133217693Y-45817540D01*
X133062050Y-45817540D01*
X132922550Y-45957040D01*
X132922550Y-47035520D01*
X132977366Y-47035520D01*
X132977366Y-47935520D01*
X132922550Y-47935520D01*
X132922550Y-47955520D01*
X132554250Y-47955520D01*
X132554250Y-47935520D01*
X132499434Y-47935520D01*
X132499434Y-47035520D01*
X132554250Y-47035520D01*
X132554250Y-45957040D01*
X132414750Y-45817540D01*
X132259107Y-45817540D01*
X132204506Y-45840156D01*
X132094541Y-45765020D01*
X131836700Y-45712806D01*
X131100100Y-45712806D01*
X130859224Y-45758130D01*
X130836169Y-45772965D01*
X130824541Y-45765020D01*
X130566700Y-45712806D01*
X129830100Y-45712806D01*
X129589224Y-45758130D01*
X129367995Y-45900487D01*
X129219580Y-46117699D01*
X129167366Y-46375540D01*
X79871556Y-46375540D01*
X78027158Y-44531142D01*
X147317536Y-44531142D01*
X147724986Y-45517246D01*
X148478786Y-46272363D01*
X149464177Y-46681533D01*
X150531142Y-46682464D01*
X151517246Y-46275014D01*
X152272363Y-45521214D01*
X152681533Y-44535823D01*
X152682464Y-43468858D01*
X152275014Y-42482754D01*
X151521214Y-41727637D01*
X150535823Y-41318467D01*
X149468858Y-41317536D01*
X148482754Y-41724986D01*
X147727637Y-42478786D01*
X147318467Y-43464177D01*
X147317536Y-44531142D01*
X78027158Y-44531142D01*
X76111600Y-42615584D01*
X76111600Y-40948605D01*
X76167005Y-40912953D01*
X76315420Y-40695741D01*
X76367634Y-40437900D01*
X76367634Y-39294900D01*
X76330473Y-39097407D01*
X76367634Y-38913900D01*
X76367634Y-37897900D01*
X83728966Y-37897900D01*
X83728966Y-39040900D01*
X83766127Y-39238393D01*
X83728966Y-39421900D01*
X83728966Y-40564900D01*
X83774290Y-40805776D01*
X83916647Y-41027005D01*
X84133859Y-41175420D01*
X84391700Y-41227634D01*
X85128300Y-41227634D01*
X85369176Y-41182310D01*
X85392231Y-41167475D01*
X85403859Y-41175420D01*
X85661700Y-41227634D01*
X86398300Y-41227634D01*
X86639176Y-41182310D01*
X86662231Y-41167475D01*
X86673859Y-41175420D01*
X86931700Y-41227634D01*
X87668300Y-41227634D01*
X87909176Y-41182310D01*
X87932231Y-41167475D01*
X87943859Y-41175420D01*
X88201700Y-41227634D01*
X88938300Y-41227634D01*
X89179176Y-41182310D01*
X89202231Y-41167475D01*
X89213859Y-41175420D01*
X89471700Y-41227634D01*
X90208300Y-41227634D01*
X90449176Y-41182310D01*
X90472231Y-41167475D01*
X90483859Y-41175420D01*
X90741700Y-41227634D01*
X91478300Y-41227634D01*
X91719176Y-41182310D01*
X91742231Y-41167475D01*
X91753859Y-41175420D01*
X92011700Y-41227634D01*
X92748300Y-41227634D01*
X92989176Y-41182310D01*
X93012231Y-41167475D01*
X93023859Y-41175420D01*
X93281700Y-41227634D01*
X94018300Y-41227634D01*
X94259176Y-41182310D01*
X94282231Y-41167475D01*
X94293859Y-41175420D01*
X94551700Y-41227634D01*
X95288300Y-41227634D01*
X95529176Y-41182310D01*
X95552231Y-41167475D01*
X95563859Y-41175420D01*
X95821700Y-41227634D01*
X96558300Y-41227634D01*
X96799176Y-41182310D01*
X96822231Y-41167475D01*
X96833859Y-41175420D01*
X97091700Y-41227634D01*
X97828300Y-41227634D01*
X98069176Y-41182310D01*
X98092231Y-41167475D01*
X98103859Y-41175420D01*
X98361700Y-41227634D01*
X99098300Y-41227634D01*
X99339176Y-41182310D01*
X99362231Y-41167475D01*
X99373859Y-41175420D01*
X99631700Y-41227634D01*
X100368300Y-41227634D01*
X100609176Y-41182310D01*
X100632231Y-41167475D01*
X100643859Y-41175420D01*
X100901700Y-41227634D01*
X101638300Y-41227634D01*
X101879176Y-41182310D01*
X101902231Y-41167475D01*
X101913859Y-41175420D01*
X102171700Y-41227634D01*
X102908300Y-41227634D01*
X103149176Y-41182310D01*
X103172231Y-41167475D01*
X103183859Y-41175420D01*
X103441700Y-41227634D01*
X104178300Y-41227634D01*
X104419176Y-41182310D01*
X104442231Y-41167475D01*
X104453859Y-41175420D01*
X104711700Y-41227634D01*
X105448300Y-41227634D01*
X105689176Y-41182310D01*
X105712231Y-41167475D01*
X105723859Y-41175420D01*
X105981700Y-41227634D01*
X106718300Y-41227634D01*
X106959176Y-41182310D01*
X106982231Y-41167475D01*
X106993859Y-41175420D01*
X107251700Y-41227634D01*
X107988300Y-41227634D01*
X108229176Y-41182310D01*
X108252231Y-41167475D01*
X108263859Y-41175420D01*
X108521700Y-41227634D01*
X109258300Y-41227634D01*
X109499176Y-41182310D01*
X109522231Y-41167475D01*
X109533859Y-41175420D01*
X109791700Y-41227634D01*
X110528300Y-41227634D01*
X110769176Y-41182310D01*
X110792231Y-41167475D01*
X110803859Y-41175420D01*
X111061700Y-41227634D01*
X111798300Y-41227634D01*
X112039176Y-41182310D01*
X112062231Y-41167475D01*
X112073859Y-41175420D01*
X112331700Y-41227634D01*
X113068300Y-41227634D01*
X113309176Y-41182310D01*
X113332231Y-41167475D01*
X113343859Y-41175420D01*
X113601700Y-41227634D01*
X114338300Y-41227634D01*
X114579176Y-41182310D01*
X114602231Y-41167475D01*
X114613859Y-41175420D01*
X114871700Y-41227634D01*
X115608300Y-41227634D01*
X115849176Y-41182310D01*
X116070405Y-41039953D01*
X116218820Y-40822741D01*
X116271034Y-40564900D01*
X116271034Y-39866400D01*
X123591400Y-39866400D01*
X123632366Y-40072351D01*
X123632366Y-40437900D01*
X123677690Y-40678776D01*
X123820047Y-40900005D01*
X124037259Y-41048420D01*
X124295100Y-41100634D01*
X125031700Y-41100634D01*
X125272576Y-41055310D01*
X125295631Y-41040475D01*
X125307259Y-41048420D01*
X125565100Y-41100634D01*
X126301700Y-41100634D01*
X126542576Y-41055310D01*
X126565631Y-41040475D01*
X126577259Y-41048420D01*
X126835100Y-41100634D01*
X127571700Y-41100634D01*
X127812576Y-41055310D01*
X127835631Y-41040475D01*
X127847259Y-41048420D01*
X128105100Y-41100634D01*
X128841700Y-41100634D01*
X129082576Y-41055310D01*
X129105631Y-41040475D01*
X129117259Y-41048420D01*
X129375100Y-41100634D01*
X130111700Y-41100634D01*
X130238400Y-41076794D01*
X130238400Y-41211600D01*
X130297393Y-41508180D01*
X130465392Y-41759608D01*
X130716820Y-41927607D01*
X131013400Y-41986600D01*
X131309980Y-41927607D01*
X131561408Y-41759608D01*
X131729407Y-41508180D01*
X131788400Y-41211600D01*
X131788400Y-41074977D01*
X131915100Y-41100634D01*
X132651700Y-41100634D01*
X132892576Y-41055310D01*
X132915631Y-41040475D01*
X132927259Y-41048420D01*
X133185100Y-41100634D01*
X133921700Y-41100634D01*
X134162576Y-41055310D01*
X134185631Y-41040475D01*
X134197259Y-41048420D01*
X134455100Y-41100634D01*
X135191700Y-41100634D01*
X135432576Y-41055310D01*
X135455631Y-41040475D01*
X135467259Y-41048420D01*
X135725100Y-41100634D01*
X136461700Y-41100634D01*
X136702576Y-41055310D01*
X136725631Y-41040475D01*
X136737259Y-41048420D01*
X136995100Y-41100634D01*
X137731700Y-41100634D01*
X137972576Y-41055310D01*
X137995631Y-41040475D01*
X138007259Y-41048420D01*
X138265100Y-41100634D01*
X139001700Y-41100634D01*
X139242576Y-41055310D01*
X139265631Y-41040475D01*
X139277259Y-41048420D01*
X139535100Y-41100634D01*
X140271700Y-41100634D01*
X140512576Y-41055310D01*
X140535631Y-41040475D01*
X140547259Y-41048420D01*
X140805100Y-41100634D01*
X141541700Y-41100634D01*
X141782576Y-41055310D01*
X141805631Y-41040475D01*
X141817259Y-41048420D01*
X142075100Y-41100634D01*
X142113935Y-41100634D01*
X142146820Y-41122607D01*
X142443400Y-41181600D01*
X142739980Y-41122607D01*
X142772865Y-41100634D01*
X142811700Y-41100634D01*
X143052576Y-41055310D01*
X143075631Y-41040475D01*
X143087259Y-41048420D01*
X143345100Y-41100634D01*
X144081700Y-41100634D01*
X144322576Y-41055310D01*
X144345631Y-41040475D01*
X144357259Y-41048420D01*
X144615100Y-41100634D01*
X145351700Y-41100634D01*
X145592576Y-41055310D01*
X145615631Y-41040475D01*
X145627259Y-41048420D01*
X145885100Y-41100634D01*
X146147996Y-41100634D01*
X146253400Y-41121600D01*
X146358804Y-41100634D01*
X146621700Y-41100634D01*
X146862576Y-41055310D01*
X146885631Y-41040475D01*
X146897259Y-41048420D01*
X147155100Y-41100634D01*
X147267175Y-41100634D01*
X147523400Y-41151600D01*
X147779625Y-41100634D01*
X147891700Y-41100634D01*
X148132576Y-41055310D01*
X148155631Y-41040475D01*
X148167259Y-41048420D01*
X148425100Y-41100634D01*
X149161700Y-41100634D01*
X149402576Y-41055310D01*
X149623805Y-40912953D01*
X149772220Y-40695741D01*
X149824434Y-40437900D01*
X149824434Y-39294900D01*
X149787273Y-39097407D01*
X149824434Y-38913900D01*
X149824434Y-37770900D01*
X149779110Y-37530024D01*
X149636753Y-37308795D01*
X149419541Y-37160380D01*
X149161700Y-37108166D01*
X148425100Y-37108166D01*
X148184224Y-37153490D01*
X148161169Y-37168325D01*
X148149541Y-37160380D01*
X147891700Y-37108166D01*
X147155100Y-37108166D01*
X146914224Y-37153490D01*
X146891169Y-37168325D01*
X146879541Y-37160380D01*
X146621700Y-37108166D01*
X145885100Y-37108166D01*
X145644224Y-37153490D01*
X145621169Y-37168325D01*
X145609541Y-37160380D01*
X145351700Y-37108166D01*
X144615100Y-37108166D01*
X144374224Y-37153490D01*
X144351169Y-37168325D01*
X144339541Y-37160380D01*
X144081700Y-37108166D01*
X143345100Y-37108166D01*
X143104224Y-37153490D01*
X143081169Y-37168325D01*
X143069541Y-37160380D01*
X142811700Y-37108166D01*
X142075100Y-37108166D01*
X141834224Y-37153490D01*
X141811169Y-37168325D01*
X141799541Y-37160380D01*
X141541700Y-37108166D01*
X140805100Y-37108166D01*
X140564224Y-37153490D01*
X140541169Y-37168325D01*
X140529541Y-37160380D01*
X140271700Y-37108166D01*
X139535100Y-37108166D01*
X139294224Y-37153490D01*
X139271169Y-37168325D01*
X139259541Y-37160380D01*
X139001700Y-37108166D01*
X138265100Y-37108166D01*
X138024224Y-37153490D01*
X138001169Y-37168325D01*
X137989541Y-37160380D01*
X137731700Y-37108166D01*
X136995100Y-37108166D01*
X136754224Y-37153490D01*
X136731169Y-37168325D01*
X136719541Y-37160380D01*
X136461700Y-37108166D01*
X135725100Y-37108166D01*
X135484224Y-37153490D01*
X135461169Y-37168325D01*
X135449541Y-37160380D01*
X135191700Y-37108166D01*
X134455100Y-37108166D01*
X134214224Y-37153490D01*
X134191169Y-37168325D01*
X134179541Y-37160380D01*
X133921700Y-37108166D01*
X133185100Y-37108166D01*
X132944224Y-37153490D01*
X132921169Y-37168325D01*
X132909541Y-37160380D01*
X132651700Y-37108166D01*
X131915100Y-37108166D01*
X131674224Y-37153490D01*
X131651169Y-37168325D01*
X131639541Y-37160380D01*
X131381700Y-37108166D01*
X130645100Y-37108166D01*
X130404224Y-37153490D01*
X130381169Y-37168325D01*
X130369541Y-37160380D01*
X130111700Y-37108166D01*
X129375100Y-37108166D01*
X129134224Y-37153490D01*
X129111169Y-37168325D01*
X129099541Y-37160380D01*
X128841700Y-37108166D01*
X128105100Y-37108166D01*
X127864224Y-37153490D01*
X127841169Y-37168325D01*
X127829541Y-37160380D01*
X127571700Y-37108166D01*
X126835100Y-37108166D01*
X126594224Y-37153490D01*
X126571169Y-37168325D01*
X126559541Y-37160380D01*
X126301700Y-37108166D01*
X125565100Y-37108166D01*
X125324224Y-37153490D01*
X125301169Y-37168325D01*
X125289541Y-37160380D01*
X125031700Y-37108166D01*
X124295100Y-37108166D01*
X124054224Y-37153490D01*
X123832995Y-37295847D01*
X123684580Y-37513059D01*
X123632366Y-37770900D01*
X123632366Y-38913900D01*
X123669527Y-39111393D01*
X123632366Y-39294900D01*
X123632366Y-39660449D01*
X123591400Y-39866400D01*
X116271034Y-39866400D01*
X116271034Y-39421900D01*
X116233873Y-39224407D01*
X116271034Y-39040900D01*
X116271034Y-37897900D01*
X116225710Y-37657024D01*
X116083353Y-37435795D01*
X115866141Y-37287380D01*
X115608300Y-37235166D01*
X114871700Y-37235166D01*
X114630824Y-37280490D01*
X114607769Y-37295325D01*
X114596141Y-37287380D01*
X114338300Y-37235166D01*
X113601700Y-37235166D01*
X113360824Y-37280490D01*
X113337769Y-37295325D01*
X113326141Y-37287380D01*
X113068300Y-37235166D01*
X112331700Y-37235166D01*
X112090824Y-37280490D01*
X112067769Y-37295325D01*
X112056141Y-37287380D01*
X111798300Y-37235166D01*
X111061700Y-37235166D01*
X110820824Y-37280490D01*
X110797769Y-37295325D01*
X110786141Y-37287380D01*
X110528300Y-37235166D01*
X109791700Y-37235166D01*
X109550824Y-37280490D01*
X109527769Y-37295325D01*
X109516141Y-37287380D01*
X109258300Y-37235166D01*
X108521700Y-37235166D01*
X108280824Y-37280490D01*
X108257769Y-37295325D01*
X108246141Y-37287380D01*
X107988300Y-37235166D01*
X107251700Y-37235166D01*
X107010824Y-37280490D01*
X106987769Y-37295325D01*
X106976141Y-37287380D01*
X106718300Y-37235166D01*
X105981700Y-37235166D01*
X105740824Y-37280490D01*
X105717769Y-37295325D01*
X105706141Y-37287380D01*
X105448300Y-37235166D01*
X104711700Y-37235166D01*
X104470824Y-37280490D01*
X104447769Y-37295325D01*
X104436141Y-37287380D01*
X104178300Y-37235166D01*
X103441700Y-37235166D01*
X103200824Y-37280490D01*
X103177769Y-37295325D01*
X103166141Y-37287380D01*
X102908300Y-37235166D01*
X102171700Y-37235166D01*
X101930824Y-37280490D01*
X101907769Y-37295325D01*
X101896141Y-37287380D01*
X101638300Y-37235166D01*
X100901700Y-37235166D01*
X100660824Y-37280490D01*
X100637769Y-37295325D01*
X100626141Y-37287380D01*
X100368300Y-37235166D01*
X99631700Y-37235166D01*
X99390824Y-37280490D01*
X99367769Y-37295325D01*
X99356141Y-37287380D01*
X99098300Y-37235166D01*
X98361700Y-37235166D01*
X98120824Y-37280490D01*
X98097769Y-37295325D01*
X98086141Y-37287380D01*
X97828300Y-37235166D01*
X97091700Y-37235166D01*
X96850824Y-37280490D01*
X96827769Y-37295325D01*
X96816141Y-37287380D01*
X96558300Y-37235166D01*
X95821700Y-37235166D01*
X95580824Y-37280490D01*
X95557769Y-37295325D01*
X95546141Y-37287380D01*
X95288300Y-37235166D01*
X94551700Y-37235166D01*
X94310824Y-37280490D01*
X94287769Y-37295325D01*
X94276141Y-37287380D01*
X94018300Y-37235166D01*
X93281700Y-37235166D01*
X93040824Y-37280490D01*
X93017769Y-37295325D01*
X93006141Y-37287380D01*
X92748300Y-37235166D01*
X92011700Y-37235166D01*
X91770824Y-37280490D01*
X91747769Y-37295325D01*
X91736141Y-37287380D01*
X91478300Y-37235166D01*
X90741700Y-37235166D01*
X90500824Y-37280490D01*
X90477769Y-37295325D01*
X90466141Y-37287380D01*
X90208300Y-37235166D01*
X89471700Y-37235166D01*
X89230824Y-37280490D01*
X89207769Y-37295325D01*
X89196141Y-37287380D01*
X88938300Y-37235166D01*
X88201700Y-37235166D01*
X87960824Y-37280490D01*
X87937769Y-37295325D01*
X87926141Y-37287380D01*
X87668300Y-37235166D01*
X86931700Y-37235166D01*
X86690824Y-37280490D01*
X86667769Y-37295325D01*
X86656141Y-37287380D01*
X86398300Y-37235166D01*
X85661700Y-37235166D01*
X85420824Y-37280490D01*
X85397769Y-37295325D01*
X85386141Y-37287380D01*
X85128300Y-37235166D01*
X84391700Y-37235166D01*
X84150824Y-37280490D01*
X83929595Y-37422847D01*
X83781180Y-37640059D01*
X83728966Y-37897900D01*
X76367634Y-37897900D01*
X76367634Y-37770900D01*
X76322310Y-37530024D01*
X76179953Y-37308795D01*
X75962741Y-37160380D01*
X75704900Y-37108166D01*
X74968300Y-37108166D01*
X74727424Y-37153490D01*
X74704369Y-37168325D01*
X74692741Y-37160380D01*
X74434900Y-37108166D01*
X73698300Y-37108166D01*
X73457424Y-37153490D01*
X73434369Y-37168325D01*
X73422741Y-37160380D01*
X73164900Y-37108166D01*
X72428300Y-37108166D01*
X72187424Y-37153490D01*
X72164369Y-37168325D01*
X72152741Y-37160380D01*
X71894900Y-37108166D01*
X71158300Y-37108166D01*
X70917424Y-37153490D01*
X70894369Y-37168325D01*
X70882741Y-37160380D01*
X70624900Y-37108166D01*
X69888300Y-37108166D01*
X69647424Y-37153490D01*
X69624369Y-37168325D01*
X69612741Y-37160380D01*
X69354900Y-37108166D01*
X68618300Y-37108166D01*
X68377424Y-37153490D01*
X68354369Y-37168325D01*
X68342741Y-37160380D01*
X68084900Y-37108166D01*
X67348300Y-37108166D01*
X67107424Y-37153490D01*
X67084369Y-37168325D01*
X67072741Y-37160380D01*
X66814900Y-37108166D01*
X66078300Y-37108166D01*
X65837424Y-37153490D01*
X65814369Y-37168325D01*
X65802741Y-37160380D01*
X65544900Y-37108166D01*
X64808300Y-37108166D01*
X64567424Y-37153490D01*
X64544369Y-37168325D01*
X64532741Y-37160380D01*
X64274900Y-37108166D01*
X63538300Y-37108166D01*
X63297424Y-37153490D01*
X63274369Y-37168325D01*
X63262741Y-37160380D01*
X63004900Y-37108166D01*
X62268300Y-37108166D01*
X62027424Y-37153490D01*
X62004369Y-37168325D01*
X61992741Y-37160380D01*
X61734900Y-37108166D01*
X60998300Y-37108166D01*
X60757424Y-37153490D01*
X60734369Y-37168325D01*
X60722741Y-37160380D01*
X60464900Y-37108166D01*
X59728300Y-37108166D01*
X59487424Y-37153490D01*
X59464369Y-37168325D01*
X59452741Y-37160380D01*
X59194900Y-37108166D01*
X58458300Y-37108166D01*
X58217424Y-37153490D01*
X58194369Y-37168325D01*
X58182741Y-37160380D01*
X57924900Y-37108166D01*
X57188300Y-37108166D01*
X56947424Y-37153490D01*
X56924369Y-37168325D01*
X56912741Y-37160380D01*
X56654900Y-37108166D01*
X55918300Y-37108166D01*
X55677424Y-37153490D01*
X55654369Y-37168325D01*
X55642741Y-37160380D01*
X55384900Y-37108166D01*
X54648300Y-37108166D01*
X54407424Y-37153490D01*
X54384369Y-37168325D01*
X54372741Y-37160380D01*
X54114900Y-37108166D01*
X53378300Y-37108166D01*
X53137424Y-37153490D01*
X53114369Y-37168325D01*
X53102741Y-37160380D01*
X52844900Y-37108166D01*
X52108300Y-37108166D01*
X51867424Y-37153490D01*
X51844369Y-37168325D01*
X51832741Y-37160380D01*
X51574900Y-37108166D01*
X50838300Y-37108166D01*
X50597424Y-37153490D01*
X50376195Y-37295847D01*
X50227780Y-37513059D01*
X50175566Y-37770900D01*
X50175566Y-38913900D01*
X50212727Y-39111393D01*
X50175566Y-39294900D01*
X50175566Y-40437900D01*
X50220890Y-40678776D01*
X50363247Y-40900005D01*
X50580459Y-41048420D01*
X50838300Y-41100634D01*
X51574900Y-41100634D01*
X51815776Y-41055310D01*
X51838831Y-41040475D01*
X51850459Y-41048420D01*
X52108300Y-41100634D01*
X52844900Y-41100634D01*
X53085776Y-41055310D01*
X53108831Y-41040475D01*
X53120459Y-41048420D01*
X53378300Y-41100634D01*
X54114900Y-41100634D01*
X54355776Y-41055310D01*
X54378831Y-41040475D01*
X54390459Y-41048420D01*
X54648300Y-41100634D01*
X55384900Y-41100634D01*
X55625776Y-41055310D01*
X55648831Y-41040475D01*
X55660459Y-41048420D01*
X55918300Y-41100634D01*
X56654900Y-41100634D01*
X56895776Y-41055310D01*
X56918831Y-41040475D01*
X56930459Y-41048420D01*
X57188300Y-41100634D01*
X57924900Y-41100634D01*
X58165776Y-41055310D01*
X58188831Y-41040475D01*
X58200459Y-41048420D01*
X58458300Y-41100634D01*
X59194900Y-41100634D01*
X59435776Y-41055310D01*
X59458831Y-41040475D01*
X59470459Y-41048420D01*
X59728300Y-41100634D01*
X60464900Y-41100634D01*
X60705776Y-41055310D01*
X60728831Y-41040475D01*
X60740459Y-41048420D01*
X60998300Y-41100634D01*
X61734900Y-41100634D01*
X61975776Y-41055310D01*
X61998831Y-41040475D01*
X62010459Y-41048420D01*
X62268300Y-41100634D01*
X63004900Y-41100634D01*
X63131600Y-41076794D01*
X63131600Y-43006600D01*
X63190593Y-43303180D01*
X63358592Y-43554608D01*
X64753984Y-44950000D01*
X52509552Y-44950000D01*
X52681533Y-44535823D01*
X52682464Y-43468858D01*
X52275014Y-42482754D01*
X51521214Y-41727637D01*
X50535823Y-41318467D01*
X49468858Y-41317536D01*
X48482754Y-41724986D01*
X47727637Y-42478786D01*
X47318467Y-43464177D01*
X47317536Y-44531142D01*
X47490605Y-44950000D01*
X46584900Y-44950000D01*
X46584900Y-31975000D01*
X48305115Y-31975000D01*
X47888857Y-32146995D01*
X47888857Y-32146995D01*
G37*
X47888857Y-32146995D02*
X47527065Y-32508155D01*
X47331023Y-32980276D01*
X47330577Y-33491481D01*
X47525795Y-33963943D01*
X47886955Y-34325735D01*
X47986717Y-34367160D01*
X47888857Y-34407595D01*
X47527065Y-34768755D01*
X47331023Y-35240876D01*
X47330577Y-35752081D01*
X47525795Y-36224543D01*
X47886955Y-36586335D01*
X48359076Y-36782377D01*
X48870281Y-36782823D01*
X49342743Y-36587605D01*
X49704535Y-36226445D01*
X49900577Y-35754324D01*
X49901023Y-35243119D01*
X49705805Y-34770657D01*
X49344645Y-34408865D01*
X49244883Y-34367440D01*
X49342743Y-34327005D01*
X49704535Y-33965845D01*
X49900577Y-33493724D01*
X49901023Y-32982519D01*
X49705805Y-32510057D01*
X49344645Y-32148265D01*
X48927377Y-31975000D01*
X77616715Y-31975000D01*
X77200457Y-32146995D01*
X76838665Y-32508155D01*
X76642623Y-32980276D01*
X76642177Y-33491481D01*
X76837395Y-33963943D01*
X77198555Y-34325735D01*
X77298317Y-34367160D01*
X77200457Y-34407595D01*
X76838665Y-34768755D01*
X76642623Y-35240876D01*
X76642177Y-35752081D01*
X76837395Y-36224543D01*
X77198555Y-36586335D01*
X77670676Y-36782377D01*
X78181881Y-36782823D01*
X78654343Y-36587605D01*
X79016135Y-36226445D01*
X79212177Y-35754324D01*
X79212623Y-35243119D01*
X79017405Y-34770657D01*
X78656245Y-34408865D01*
X78556483Y-34367440D01*
X78654343Y-34327005D01*
X79016135Y-33965845D01*
X79212177Y-33493724D01*
X79212623Y-32982519D01*
X79017405Y-32510057D01*
X78656245Y-32148265D01*
X78238977Y-31975000D01*
X81858515Y-31975000D01*
X81442257Y-32146995D01*
X81080465Y-32508155D01*
X80884423Y-32980276D01*
X80883977Y-33491481D01*
X81079195Y-33963943D01*
X81440355Y-34325735D01*
X81540117Y-34367160D01*
X81442257Y-34407595D01*
X81080465Y-34768755D01*
X80884423Y-35240876D01*
X80883977Y-35752081D01*
X81079195Y-36224543D01*
X81440355Y-36586335D01*
X81912476Y-36782377D01*
X82423681Y-36782823D01*
X82896143Y-36587605D01*
X83257935Y-36226445D01*
X83453977Y-35754324D01*
X83454423Y-35243119D01*
X83259205Y-34770657D01*
X82898045Y-34408865D01*
X82798283Y-34367440D01*
X82896143Y-34327005D01*
X83257935Y-33965845D01*
X83453977Y-33493724D01*
X83454423Y-32982519D01*
X83259205Y-32510057D01*
X82898045Y-32148265D01*
X82480777Y-31975000D01*
X117520115Y-31975000D01*
X117103857Y-32146995D01*
X116742065Y-32508155D01*
X116546023Y-32980276D01*
X116545577Y-33491481D01*
X116740795Y-33963943D01*
X117101955Y-34325735D01*
X117201717Y-34367160D01*
X117103857Y-34407595D01*
X116742065Y-34768755D01*
X116546023Y-35240876D01*
X116545577Y-35752081D01*
X116740795Y-36224543D01*
X117101955Y-36586335D01*
X117574076Y-36782377D01*
X118085281Y-36782823D01*
X118557743Y-36587605D01*
X118919535Y-36226445D01*
X119115577Y-35754324D01*
X119116023Y-35243119D01*
X118920805Y-34770657D01*
X118559645Y-34408865D01*
X118459883Y-34367440D01*
X118557743Y-34327005D01*
X118919535Y-33965845D01*
X119115577Y-33493724D01*
X119116023Y-32982519D01*
X118920805Y-32510057D01*
X118559645Y-32148265D01*
X118142377Y-31975000D01*
X121761915Y-31975000D01*
X121345657Y-32146995D01*
X120983865Y-32508155D01*
X120787823Y-32980276D01*
X120787377Y-33491481D01*
X120982595Y-33963943D01*
X121343755Y-34325735D01*
X121443517Y-34367160D01*
X121345657Y-34407595D01*
X120983865Y-34768755D01*
X120787823Y-35240876D01*
X120787377Y-35752081D01*
X120982595Y-36224543D01*
X121343755Y-36586335D01*
X121815876Y-36782377D01*
X122327081Y-36782823D01*
X122799543Y-36587605D01*
X123161335Y-36226445D01*
X123357377Y-35754324D01*
X123357823Y-35243119D01*
X123162605Y-34770657D01*
X122801445Y-34408865D01*
X122701683Y-34367440D01*
X122799543Y-34327005D01*
X123161335Y-33965845D01*
X123357377Y-33493724D01*
X123357823Y-32982519D01*
X123162605Y-32510057D01*
X122801445Y-32148265D01*
X122384177Y-31975000D01*
X151073515Y-31975000D01*
X150657257Y-32146995D01*
X150295465Y-32508155D01*
X150099423Y-32980276D01*
X150098977Y-33491481D01*
X150294195Y-33963943D01*
X150655355Y-34325735D01*
X150755117Y-34367160D01*
X150657257Y-34407595D01*
X150295465Y-34768755D01*
X150099423Y-35240876D01*
X150098977Y-35752081D01*
X150294195Y-36224543D01*
X150655355Y-36586335D01*
X151127476Y-36782377D01*
X151638681Y-36782823D01*
X152111143Y-36587605D01*
X152472935Y-36226445D01*
X152668977Y-35754324D01*
X152669423Y-35243119D01*
X152474205Y-34770657D01*
X152113045Y-34408865D01*
X152013283Y-34367440D01*
X152111143Y-34327005D01*
X152472935Y-33965845D01*
X152668977Y-33493724D01*
X152669423Y-32982519D01*
X152474205Y-32510057D01*
X152113045Y-32148265D01*
X151695777Y-31975000D01*
X153415100Y-31975000D01*
X153415100Y-50767069D01*
X153291053Y-50574295D01*
X153073841Y-50425880D01*
X152816000Y-50373666D01*
X150784000Y-50373666D01*
X150543124Y-50418990D01*
X150321895Y-50561347D01*
X150173480Y-50778559D01*
X150121266Y-51036400D01*
X150121266Y-52763600D01*
X150166590Y-53004476D01*
X150308947Y-53225705D01*
X150526159Y-53374120D01*
X150539888Y-53376900D01*
X150216577Y-53860770D01*
X150101361Y-54440000D01*
X150216577Y-55019230D01*
X150544684Y-55510277D01*
X150843591Y-55710000D01*
X150544684Y-55909723D01*
X150216577Y-56400770D01*
X150101361Y-56980000D01*
X150216577Y-57559230D01*
X150544684Y-58050277D01*
X151035731Y-58378384D01*
X151614961Y-58493600D01*
X151985039Y-58493600D01*
X152564269Y-58378384D01*
X153055316Y-58050277D01*
X153383423Y-57559230D01*
X153415100Y-57399979D01*
X153415100Y-90036000D01*
X149738400Y-90036000D01*
X149460955Y-90091187D01*
X149225748Y-90248348D01*
X149068587Y-90483555D01*
X149013400Y-90761000D01*
X149013400Y-99275000D01*
X71050000Y-99275000D01*
X71050000Y-91200000D01*
X82625000Y-91200000D01*
X82683993Y-91496580D01*
X82851992Y-91748008D01*
X82951992Y-91848008D01*
X83203420Y-92016007D01*
X83500000Y-92075000D01*
X83796579Y-92016007D01*
X84048008Y-91848008D01*
X84216007Y-91596579D01*
X84275000Y-91300000D01*
X84216007Y-91003420D01*
X84048008Y-90751992D01*
X83948008Y-90651992D01*
X83696580Y-90483993D01*
X83400000Y-90425000D01*
X83103420Y-90483993D01*
X82851992Y-90651992D01*
X82683993Y-90903420D01*
X82625000Y-91200000D01*
X71050000Y-91200000D01*
X71050000Y-87175040D01*
X106467366Y-87175040D01*
X106467366Y-89395000D01*
X106512690Y-89635876D01*
X106519361Y-89646242D01*
X106467366Y-89903000D01*
X106467366Y-92122960D01*
X106512690Y-92363836D01*
X106655047Y-92585065D01*
X106872259Y-92733480D01*
X107130100Y-92785694D01*
X107866700Y-92785694D01*
X108107576Y-92740370D01*
X108130631Y-92725535D01*
X108142259Y-92733480D01*
X108400100Y-92785694D01*
X109136700Y-92785694D01*
X109377576Y-92740370D01*
X109400631Y-92725535D01*
X109412259Y-92733480D01*
X109670100Y-92785694D01*
X110406700Y-92785694D01*
X110647576Y-92740370D01*
X110670631Y-92725535D01*
X110682259Y-92733480D01*
X110940100Y-92785694D01*
X111676700Y-92785694D01*
X111917576Y-92740370D01*
X111940631Y-92725535D01*
X111952259Y-92733480D01*
X112210100Y-92785694D01*
X112946700Y-92785694D01*
X113187576Y-92740370D01*
X113210631Y-92725535D01*
X113222259Y-92733480D01*
X113480100Y-92785694D01*
X114216700Y-92785694D01*
X114457576Y-92740370D01*
X114480631Y-92725535D01*
X114492259Y-92733480D01*
X114750100Y-92785694D01*
X115486700Y-92785694D01*
X115727576Y-92740370D01*
X115750631Y-92725535D01*
X115762259Y-92733480D01*
X116020100Y-92785694D01*
X116756700Y-92785694D01*
X116997576Y-92740370D01*
X117020631Y-92725535D01*
X117032259Y-92733480D01*
X117290100Y-92785694D01*
X118026700Y-92785694D01*
X118267576Y-92740370D01*
X118290631Y-92725535D01*
X118302259Y-92733480D01*
X118560100Y-92785694D01*
X119296700Y-92785694D01*
X119537576Y-92740370D01*
X119560631Y-92725535D01*
X119572259Y-92733480D01*
X119830100Y-92785694D01*
X120566700Y-92785694D01*
X120807576Y-92740370D01*
X120830631Y-92725535D01*
X120842259Y-92733480D01*
X121100100Y-92785694D01*
X121836700Y-92785694D01*
X122077576Y-92740370D01*
X122100631Y-92725535D01*
X122112259Y-92733480D01*
X122370100Y-92785694D01*
X123106700Y-92785694D01*
X123347576Y-92740370D01*
X123370631Y-92725535D01*
X123382259Y-92733480D01*
X123640100Y-92785694D01*
X124376700Y-92785694D01*
X124617576Y-92740370D01*
X124640631Y-92725535D01*
X124652259Y-92733480D01*
X124910100Y-92785694D01*
X125646700Y-92785694D01*
X125887576Y-92740370D01*
X125910631Y-92725535D01*
X125922259Y-92733480D01*
X126180100Y-92785694D01*
X126916700Y-92785694D01*
X127157576Y-92740370D01*
X127180631Y-92725535D01*
X127192259Y-92733480D01*
X127450100Y-92785694D01*
X128186700Y-92785694D01*
X128427576Y-92740370D01*
X128450631Y-92725535D01*
X128462259Y-92733480D01*
X128720100Y-92785694D01*
X129456700Y-92785694D01*
X129697576Y-92740370D01*
X129720631Y-92725535D01*
X129732259Y-92733480D01*
X129990100Y-92785694D01*
X130726700Y-92785694D01*
X130967576Y-92740370D01*
X130990631Y-92725535D01*
X131002259Y-92733480D01*
X131260100Y-92785694D01*
X131996700Y-92785694D01*
X132237576Y-92740370D01*
X132260631Y-92725535D01*
X132272259Y-92733480D01*
X132530100Y-92785694D01*
X133266700Y-92785694D01*
X133507576Y-92740370D01*
X133634836Y-92658480D01*
X133689107Y-92680960D01*
X133844750Y-92680960D01*
X133984250Y-92541460D01*
X133984250Y-91462980D01*
X134352550Y-91462980D01*
X134352550Y-92541460D01*
X134492050Y-92680960D01*
X134647693Y-92680960D01*
X134803400Y-92616465D01*
X134959107Y-92680960D01*
X135114750Y-92680960D01*
X135254250Y-92541460D01*
X135254250Y-91462980D01*
X135622550Y-91462980D01*
X135622550Y-92541460D01*
X135762050Y-92680960D01*
X135917693Y-92680960D01*
X136073400Y-92616465D01*
X136229107Y-92680960D01*
X136384750Y-92680960D01*
X136524250Y-92541460D01*
X136524250Y-91462980D01*
X135622550Y-91462980D01*
X135254250Y-91462980D01*
X134352550Y-91462980D01*
X133984250Y-91462980D01*
X133929434Y-91462980D01*
X133929434Y-90562980D01*
X133984250Y-90562980D01*
X133984250Y-90542980D01*
X134352550Y-90542980D01*
X134352550Y-90562980D01*
X135254250Y-90562980D01*
X135254250Y-90542980D01*
X135622550Y-90542980D01*
X135622550Y-90562980D01*
X136524250Y-90562980D01*
X136524250Y-90542980D01*
X136892550Y-90542980D01*
X136892550Y-90562980D01*
X136947366Y-90562980D01*
X136947366Y-91462980D01*
X136892550Y-91462980D01*
X136892550Y-92541460D01*
X137032050Y-92680960D01*
X137187693Y-92680960D01*
X137242294Y-92658344D01*
X137352259Y-92733480D01*
X137610100Y-92785694D01*
X138346700Y-92785694D01*
X138587576Y-92740370D01*
X138808805Y-92598013D01*
X138957220Y-92380801D01*
X139009434Y-92122960D01*
X139009434Y-89903000D01*
X138964110Y-89662124D01*
X138957439Y-89651758D01*
X139009434Y-89395000D01*
X139009434Y-87175040D01*
X138964110Y-86934164D01*
X138821753Y-86712935D01*
X138604541Y-86564520D01*
X138439716Y-86531142D01*
X147317536Y-86531142D01*
X147724986Y-87517246D01*
X148478786Y-88272363D01*
X149464177Y-88681533D01*
X150531142Y-88682464D01*
X151517246Y-88275014D01*
X152272363Y-87521214D01*
X152681533Y-86535823D01*
X152682464Y-85468858D01*
X152275014Y-84482754D01*
X151521214Y-83727637D01*
X150535823Y-83318467D01*
X149468858Y-83317536D01*
X148482754Y-83724986D01*
X147727637Y-84478786D01*
X147318467Y-85464177D01*
X147317536Y-86531142D01*
X138439716Y-86531142D01*
X138346700Y-86512306D01*
X137610100Y-86512306D01*
X137369224Y-86557630D01*
X137346169Y-86572465D01*
X137334541Y-86564520D01*
X137076700Y-86512306D01*
X136340100Y-86512306D01*
X136099224Y-86557630D01*
X136076169Y-86572465D01*
X136064541Y-86564520D01*
X135806700Y-86512306D01*
X135070100Y-86512306D01*
X134829224Y-86557630D01*
X134806169Y-86572465D01*
X134794541Y-86564520D01*
X134536700Y-86512306D01*
X133800100Y-86512306D01*
X133559224Y-86557630D01*
X133536169Y-86572465D01*
X133524541Y-86564520D01*
X133266700Y-86512306D01*
X132530100Y-86512306D01*
X132289224Y-86557630D01*
X132266169Y-86572465D01*
X132254541Y-86564520D01*
X131996700Y-86512306D01*
X131260100Y-86512306D01*
X131019224Y-86557630D01*
X130996169Y-86572465D01*
X130984541Y-86564520D01*
X130726700Y-86512306D01*
X129990100Y-86512306D01*
X129749224Y-86557630D01*
X129726169Y-86572465D01*
X129714541Y-86564520D01*
X129456700Y-86512306D01*
X128720100Y-86512306D01*
X128479224Y-86557630D01*
X128456169Y-86572465D01*
X128444541Y-86564520D01*
X128186700Y-86512306D01*
X127450100Y-86512306D01*
X127209224Y-86557630D01*
X127186169Y-86572465D01*
X127174541Y-86564520D01*
X126916700Y-86512306D01*
X126180100Y-86512306D01*
X125939224Y-86557630D01*
X125916169Y-86572465D01*
X125904541Y-86564520D01*
X125646700Y-86512306D01*
X124910100Y-86512306D01*
X124669224Y-86557630D01*
X124646169Y-86572465D01*
X124634541Y-86564520D01*
X124376700Y-86512306D01*
X123640100Y-86512306D01*
X123399224Y-86557630D01*
X123376169Y-86572465D01*
X123364541Y-86564520D01*
X123106700Y-86512306D01*
X122370100Y-86512306D01*
X122129224Y-86557630D01*
X122106169Y-86572465D01*
X122094541Y-86564520D01*
X121836700Y-86512306D01*
X121100100Y-86512306D01*
X120859224Y-86557630D01*
X120836169Y-86572465D01*
X120824541Y-86564520D01*
X120566700Y-86512306D01*
X119830100Y-86512306D01*
X119589224Y-86557630D01*
X119566169Y-86572465D01*
X119554541Y-86564520D01*
X119296700Y-86512306D01*
X118560100Y-86512306D01*
X118319224Y-86557630D01*
X118296169Y-86572465D01*
X118284541Y-86564520D01*
X118026700Y-86512306D01*
X117290100Y-86512306D01*
X117049224Y-86557630D01*
X117026169Y-86572465D01*
X117014541Y-86564520D01*
X116756700Y-86512306D01*
X116020100Y-86512306D01*
X115779224Y-86557630D01*
X115756169Y-86572465D01*
X115744541Y-86564520D01*
X115486700Y-86512306D01*
X114750100Y-86512306D01*
X114509224Y-86557630D01*
X114486169Y-86572465D01*
X114474541Y-86564520D01*
X114216700Y-86512306D01*
X113480100Y-86512306D01*
X113239224Y-86557630D01*
X113216169Y-86572465D01*
X113204541Y-86564520D01*
X112946700Y-86512306D01*
X112210100Y-86512306D01*
X111969224Y-86557630D01*
X111946169Y-86572465D01*
X111934541Y-86564520D01*
X111676700Y-86512306D01*
X110940100Y-86512306D01*
X110699224Y-86557630D01*
X110676169Y-86572465D01*
X110664541Y-86564520D01*
X110406700Y-86512306D01*
X109670100Y-86512306D01*
X109429224Y-86557630D01*
X109406169Y-86572465D01*
X109394541Y-86564520D01*
X109136700Y-86512306D01*
X108400100Y-86512306D01*
X108159224Y-86557630D01*
X108136169Y-86572465D01*
X108124541Y-86564520D01*
X107866700Y-86512306D01*
X107130100Y-86512306D01*
X106889224Y-86557630D01*
X106667995Y-86699987D01*
X106519580Y-86917199D01*
X106467366Y-87175040D01*
X71050000Y-87175040D01*
X71050000Y-73575040D01*
X106467366Y-73575040D01*
X106467366Y-75795000D01*
X106512690Y-76035876D01*
X106519361Y-76046242D01*
X106467366Y-76303000D01*
X106467366Y-78522960D01*
X106512690Y-78763836D01*
X106655047Y-78985065D01*
X106872259Y-79133480D01*
X107130100Y-79185694D01*
X107866700Y-79185694D01*
X108107576Y-79140370D01*
X108130631Y-79125535D01*
X108142259Y-79133480D01*
X108400100Y-79185694D01*
X109136700Y-79185694D01*
X109377576Y-79140370D01*
X109400631Y-79125535D01*
X109412259Y-79133480D01*
X109670100Y-79185694D01*
X110406700Y-79185694D01*
X110647576Y-79140370D01*
X110670631Y-79125535D01*
X110682259Y-79133480D01*
X110940100Y-79185694D01*
X111676700Y-79185694D01*
X111917576Y-79140370D01*
X111940631Y-79125535D01*
X111952259Y-79133480D01*
X112210100Y-79185694D01*
X112946700Y-79185694D01*
X113187576Y-79140370D01*
X113210631Y-79125535D01*
X113222259Y-79133480D01*
X113480100Y-79185694D01*
X114216700Y-79185694D01*
X114457576Y-79140370D01*
X114480631Y-79125535D01*
X114492259Y-79133480D01*
X114750100Y-79185694D01*
X115486700Y-79185694D01*
X115727576Y-79140370D01*
X115750631Y-79125535D01*
X115762259Y-79133480D01*
X116020100Y-79185694D01*
X116756700Y-79185694D01*
X116997576Y-79140370D01*
X117020631Y-79125535D01*
X117032259Y-79133480D01*
X117290100Y-79185694D01*
X118026700Y-79185694D01*
X118267576Y-79140370D01*
X118290631Y-79125535D01*
X118302259Y-79133480D01*
X118560100Y-79185694D01*
X119296700Y-79185694D01*
X119537576Y-79140370D01*
X119560631Y-79125535D01*
X119572259Y-79133480D01*
X119830100Y-79185694D01*
X120566700Y-79185694D01*
X120807576Y-79140370D01*
X120830631Y-79125535D01*
X120842259Y-79133480D01*
X121100100Y-79185694D01*
X121836700Y-79185694D01*
X122077576Y-79140370D01*
X122100631Y-79125535D01*
X122112259Y-79133480D01*
X122370100Y-79185694D01*
X123106700Y-79185694D01*
X123347576Y-79140370D01*
X123370631Y-79125535D01*
X123382259Y-79133480D01*
X123640100Y-79185694D01*
X124376700Y-79185694D01*
X124617576Y-79140370D01*
X124640631Y-79125535D01*
X124652259Y-79133480D01*
X124910100Y-79185694D01*
X125646700Y-79185694D01*
X125887576Y-79140370D01*
X125910631Y-79125535D01*
X125922259Y-79133480D01*
X126180100Y-79185694D01*
X126916700Y-79185694D01*
X127157576Y-79140370D01*
X127180631Y-79125535D01*
X127192259Y-79133480D01*
X127450100Y-79185694D01*
X128186700Y-79185694D01*
X128427576Y-79140370D01*
X128450631Y-79125535D01*
X128462259Y-79133480D01*
X128720100Y-79185694D01*
X129456700Y-79185694D01*
X129697576Y-79140370D01*
X129720631Y-79125535D01*
X129732259Y-79133480D01*
X129990100Y-79185694D01*
X130726700Y-79185694D01*
X130967576Y-79140370D01*
X130990631Y-79125535D01*
X131002259Y-79133480D01*
X131260100Y-79185694D01*
X131996700Y-79185694D01*
X132237576Y-79140370D01*
X132260631Y-79125535D01*
X132272259Y-79133480D01*
X132530100Y-79185694D01*
X133266700Y-79185694D01*
X133507576Y-79140370D01*
X133634836Y-79058480D01*
X133689107Y-79080960D01*
X133844750Y-79080960D01*
X133984250Y-78941460D01*
X133984250Y-77862980D01*
X134352550Y-77862980D01*
X134352550Y-78941460D01*
X134492050Y-79080960D01*
X134647693Y-79080960D01*
X134803400Y-79016465D01*
X134959107Y-79080960D01*
X135114750Y-79080960D01*
X135254250Y-78941460D01*
X135254250Y-77862980D01*
X135622550Y-77862980D01*
X135622550Y-78941460D01*
X135762050Y-79080960D01*
X135917693Y-79080960D01*
X136073400Y-79016465D01*
X136229107Y-79080960D01*
X136384750Y-79080960D01*
X136524250Y-78941460D01*
X136524250Y-77862980D01*
X135622550Y-77862980D01*
X135254250Y-77862980D01*
X134352550Y-77862980D01*
X133984250Y-77862980D01*
X133929434Y-77862980D01*
X133929434Y-76962980D01*
X133984250Y-76962980D01*
X133984250Y-76942980D01*
X134352550Y-76942980D01*
X134352550Y-76962980D01*
X135254250Y-76962980D01*
X135254250Y-76942980D01*
X135622550Y-76942980D01*
X135622550Y-76962980D01*
X136524250Y-76962980D01*
X136524250Y-76942980D01*
X136892550Y-76942980D01*
X136892550Y-76962980D01*
X136947366Y-76962980D01*
X136947366Y-77862980D01*
X136892550Y-77862980D01*
X136892550Y-78941460D01*
X137032050Y-79080960D01*
X137187693Y-79080960D01*
X137242294Y-79058344D01*
X137352259Y-79133480D01*
X137610100Y-79185694D01*
X138346700Y-79185694D01*
X138587576Y-79140370D01*
X138808805Y-78998013D01*
X138957220Y-78780801D01*
X139009434Y-78522960D01*
X139009434Y-76303000D01*
X138964110Y-76062124D01*
X138957439Y-76051758D01*
X139009434Y-75795000D01*
X139009434Y-73575040D01*
X138964110Y-73334164D01*
X138821753Y-73112935D01*
X138604541Y-72964520D01*
X138346700Y-72912306D01*
X137610100Y-72912306D01*
X137369224Y-72957630D01*
X137346169Y-72972465D01*
X137334541Y-72964520D01*
X137076700Y-72912306D01*
X136340100Y-72912306D01*
X136099224Y-72957630D01*
X136076169Y-72972465D01*
X136064541Y-72964520D01*
X135806700Y-72912306D01*
X135070100Y-72912306D01*
X134829224Y-72957630D01*
X134806169Y-72972465D01*
X134794541Y-72964520D01*
X134536700Y-72912306D01*
X133800100Y-72912306D01*
X133559224Y-72957630D01*
X133536169Y-72972465D01*
X133524541Y-72964520D01*
X133266700Y-72912306D01*
X132530100Y-72912306D01*
X132289224Y-72957630D01*
X132266169Y-72972465D01*
X132254541Y-72964520D01*
X131996700Y-72912306D01*
X131260100Y-72912306D01*
X131019224Y-72957630D01*
X130996169Y-72972465D01*
X130984541Y-72964520D01*
X130726700Y-72912306D01*
X129990100Y-72912306D01*
X129749224Y-72957630D01*
X129726169Y-72972465D01*
X129714541Y-72964520D01*
X129456700Y-72912306D01*
X128720100Y-72912306D01*
X128479224Y-72957630D01*
X128456169Y-72972465D01*
X128444541Y-72964520D01*
X128186700Y-72912306D01*
X127450100Y-72912306D01*
X127209224Y-72957630D01*
X127186169Y-72972465D01*
X127174541Y-72964520D01*
X126916700Y-72912306D01*
X126180100Y-72912306D01*
X125939224Y-72957630D01*
X125916169Y-72972465D01*
X125904541Y-72964520D01*
X125646700Y-72912306D01*
X124910100Y-72912306D01*
X124669224Y-72957630D01*
X124646169Y-72972465D01*
X124634541Y-72964520D01*
X124376700Y-72912306D01*
X123640100Y-72912306D01*
X123399224Y-72957630D01*
X123376169Y-72972465D01*
X123364541Y-72964520D01*
X123106700Y-72912306D01*
X122370100Y-72912306D01*
X122129224Y-72957630D01*
X122106169Y-72972465D01*
X122094541Y-72964520D01*
X121836700Y-72912306D01*
X121100100Y-72912306D01*
X120859224Y-72957630D01*
X120836169Y-72972465D01*
X120824541Y-72964520D01*
X120566700Y-72912306D01*
X119830100Y-72912306D01*
X119589224Y-72957630D01*
X119566169Y-72972465D01*
X119554541Y-72964520D01*
X119296700Y-72912306D01*
X118560100Y-72912306D01*
X118319224Y-72957630D01*
X118296169Y-72972465D01*
X118284541Y-72964520D01*
X118026700Y-72912306D01*
X117290100Y-72912306D01*
X117049224Y-72957630D01*
X117026169Y-72972465D01*
X117014541Y-72964520D01*
X116756700Y-72912306D01*
X116020100Y-72912306D01*
X115779224Y-72957630D01*
X115756169Y-72972465D01*
X115744541Y-72964520D01*
X115486700Y-72912306D01*
X114750100Y-72912306D01*
X114509224Y-72957630D01*
X114486169Y-72972465D01*
X114474541Y-72964520D01*
X114216700Y-72912306D01*
X113480100Y-72912306D01*
X113239224Y-72957630D01*
X113216169Y-72972465D01*
X113204541Y-72964520D01*
X112946700Y-72912306D01*
X112210100Y-72912306D01*
X111969224Y-72957630D01*
X111946169Y-72972465D01*
X111934541Y-72964520D01*
X111676700Y-72912306D01*
X110940100Y-72912306D01*
X110699224Y-72957630D01*
X110676169Y-72972465D01*
X110664541Y-72964520D01*
X110406700Y-72912306D01*
X109670100Y-72912306D01*
X109429224Y-72957630D01*
X109406169Y-72972465D01*
X109394541Y-72964520D01*
X109136700Y-72912306D01*
X108400100Y-72912306D01*
X108159224Y-72957630D01*
X108136169Y-72972465D01*
X108124541Y-72964520D01*
X107866700Y-72912306D01*
X107130100Y-72912306D01*
X106889224Y-72957630D01*
X106667995Y-73099987D01*
X106519580Y-73317199D01*
X106467366Y-73575040D01*
X71050000Y-73575040D01*
X71050000Y-59975040D01*
X106467366Y-59975040D01*
X106467366Y-62195000D01*
X106512690Y-62435876D01*
X106519361Y-62446242D01*
X106467366Y-62703000D01*
X106467366Y-64922960D01*
X106512690Y-65163836D01*
X106655047Y-65385065D01*
X106872259Y-65533480D01*
X107130100Y-65585694D01*
X107866700Y-65585694D01*
X108107576Y-65540370D01*
X108130631Y-65525535D01*
X108142259Y-65533480D01*
X108400100Y-65585694D01*
X109136700Y-65585694D01*
X109377576Y-65540370D01*
X109400631Y-65525535D01*
X109412259Y-65533480D01*
X109670100Y-65585694D01*
X110406700Y-65585694D01*
X110647576Y-65540370D01*
X110670631Y-65525535D01*
X110682259Y-65533480D01*
X110940100Y-65585694D01*
X111676700Y-65585694D01*
X111917576Y-65540370D01*
X111940631Y-65525535D01*
X111952259Y-65533480D01*
X112210100Y-65585694D01*
X112946700Y-65585694D01*
X113187576Y-65540370D01*
X113210631Y-65525535D01*
X113222259Y-65533480D01*
X113480100Y-65585694D01*
X114216700Y-65585694D01*
X114457576Y-65540370D01*
X114480631Y-65525535D01*
X114492259Y-65533480D01*
X114750100Y-65585694D01*
X115486700Y-65585694D01*
X115727576Y-65540370D01*
X115750631Y-65525535D01*
X115762259Y-65533480D01*
X116020100Y-65585694D01*
X116756700Y-65585694D01*
X116997576Y-65540370D01*
X117020631Y-65525535D01*
X117032259Y-65533480D01*
X117290100Y-65585694D01*
X118026700Y-65585694D01*
X118267576Y-65540370D01*
X118290631Y-65525535D01*
X118302259Y-65533480D01*
X118560100Y-65585694D01*
X119296700Y-65585694D01*
X119537576Y-65540370D01*
X119560631Y-65525535D01*
X119572259Y-65533480D01*
X119830100Y-65585694D01*
X120566700Y-65585694D01*
X120807576Y-65540370D01*
X120830631Y-65525535D01*
X120842259Y-65533480D01*
X121100100Y-65585694D01*
X121836700Y-65585694D01*
X122077576Y-65540370D01*
X122100631Y-65525535D01*
X122112259Y-65533480D01*
X122370100Y-65585694D01*
X123106700Y-65585694D01*
X123347576Y-65540370D01*
X123370631Y-65525535D01*
X123382259Y-65533480D01*
X123640100Y-65585694D01*
X124376700Y-65585694D01*
X124617576Y-65540370D01*
X124640631Y-65525535D01*
X124652259Y-65533480D01*
X124910100Y-65585694D01*
X125646700Y-65585694D01*
X125887576Y-65540370D01*
X125910631Y-65525535D01*
X125922259Y-65533480D01*
X126180100Y-65585694D01*
X126916700Y-65585694D01*
X127157576Y-65540370D01*
X127180631Y-65525535D01*
X127192259Y-65533480D01*
X127450100Y-65585694D01*
X128186700Y-65585694D01*
X128427576Y-65540370D01*
X128450631Y-65525535D01*
X128462259Y-65533480D01*
X128720100Y-65585694D01*
X129456700Y-65585694D01*
X129697576Y-65540370D01*
X129720631Y-65525535D01*
X129732259Y-65533480D01*
X129990100Y-65585694D01*
X130726700Y-65585694D01*
X130967576Y-65540370D01*
X130990631Y-65525535D01*
X131002259Y-65533480D01*
X131260100Y-65585694D01*
X131996700Y-65585694D01*
X132237576Y-65540370D01*
X132260631Y-65525535D01*
X132272259Y-65533480D01*
X132530100Y-65585694D01*
X133266700Y-65585694D01*
X133507576Y-65540370D01*
X133634836Y-65458480D01*
X133689107Y-65480960D01*
X133844750Y-65480960D01*
X133984250Y-65341460D01*
X133984250Y-64262980D01*
X134352550Y-64262980D01*
X134352550Y-65341460D01*
X134492050Y-65480960D01*
X134647693Y-65480960D01*
X134803400Y-65416465D01*
X134959107Y-65480960D01*
X135114750Y-65480960D01*
X135254250Y-65341460D01*
X135254250Y-64262980D01*
X135622550Y-64262980D01*
X135622550Y-65341460D01*
X135762050Y-65480960D01*
X135917693Y-65480960D01*
X136073400Y-65416465D01*
X136229107Y-65480960D01*
X136384750Y-65480960D01*
X136524250Y-65341460D01*
X136524250Y-64262980D01*
X135622550Y-64262980D01*
X135254250Y-64262980D01*
X134352550Y-64262980D01*
X133984250Y-64262980D01*
X133929434Y-64262980D01*
X133929434Y-63362980D01*
X133984250Y-63362980D01*
X133984250Y-63342980D01*
X134352550Y-63342980D01*
X134352550Y-63362980D01*
X135254250Y-63362980D01*
X135254250Y-63342980D01*
X135622550Y-63342980D01*
X135622550Y-63362980D01*
X136524250Y-63362980D01*
X136524250Y-63342980D01*
X136892550Y-63342980D01*
X136892550Y-63362980D01*
X136947366Y-63362980D01*
X136947366Y-64262980D01*
X136892550Y-64262980D01*
X136892550Y-65341460D01*
X137032050Y-65480960D01*
X137187693Y-65480960D01*
X137242294Y-65458344D01*
X137352259Y-65533480D01*
X137610100Y-65585694D01*
X138346700Y-65585694D01*
X138587576Y-65540370D01*
X138808805Y-65398013D01*
X138957220Y-65180801D01*
X139009434Y-64922960D01*
X139009434Y-62703000D01*
X138964110Y-62462124D01*
X138957439Y-62451758D01*
X139009434Y-62195000D01*
X139009434Y-59975040D01*
X138964110Y-59734164D01*
X138821753Y-59512935D01*
X138604541Y-59364520D01*
X138346700Y-59312306D01*
X137610100Y-59312306D01*
X137369224Y-59357630D01*
X137346169Y-59372465D01*
X137334541Y-59364520D01*
X137076700Y-59312306D01*
X136340100Y-59312306D01*
X136099224Y-59357630D01*
X136076169Y-59372465D01*
X136064541Y-59364520D01*
X135806700Y-59312306D01*
X135070100Y-59312306D01*
X134829224Y-59357630D01*
X134806169Y-59372465D01*
X134794541Y-59364520D01*
X134536700Y-59312306D01*
X133800100Y-59312306D01*
X133559224Y-59357630D01*
X133536169Y-59372465D01*
X133524541Y-59364520D01*
X133266700Y-59312306D01*
X132530100Y-59312306D01*
X132289224Y-59357630D01*
X132266169Y-59372465D01*
X132254541Y-59364520D01*
X131996700Y-59312306D01*
X131260100Y-59312306D01*
X131019224Y-59357630D01*
X130996169Y-59372465D01*
X130984541Y-59364520D01*
X130726700Y-59312306D01*
X129990100Y-59312306D01*
X129749224Y-59357630D01*
X129726169Y-59372465D01*
X129714541Y-59364520D01*
X129456700Y-59312306D01*
X128720100Y-59312306D01*
X128479224Y-59357630D01*
X128456169Y-59372465D01*
X128444541Y-59364520D01*
X128186700Y-59312306D01*
X127450100Y-59312306D01*
X127209224Y-59357630D01*
X127186169Y-59372465D01*
X127174541Y-59364520D01*
X126916700Y-59312306D01*
X126180100Y-59312306D01*
X125939224Y-59357630D01*
X125916169Y-59372465D01*
X125904541Y-59364520D01*
X125646700Y-59312306D01*
X124910100Y-59312306D01*
X124669224Y-59357630D01*
X124646169Y-59372465D01*
X124634541Y-59364520D01*
X124376700Y-59312306D01*
X123640100Y-59312306D01*
X123399224Y-59357630D01*
X123376169Y-59372465D01*
X123364541Y-59364520D01*
X123106700Y-59312306D01*
X122370100Y-59312306D01*
X122129224Y-59357630D01*
X122106169Y-59372465D01*
X122094541Y-59364520D01*
X121836700Y-59312306D01*
X121100100Y-59312306D01*
X120859224Y-59357630D01*
X120836169Y-59372465D01*
X120824541Y-59364520D01*
X120566700Y-59312306D01*
X119830100Y-59312306D01*
X119589224Y-59357630D01*
X119566169Y-59372465D01*
X119554541Y-59364520D01*
X119296700Y-59312306D01*
X118560100Y-59312306D01*
X118319224Y-59357630D01*
X118296169Y-59372465D01*
X118284541Y-59364520D01*
X118026700Y-59312306D01*
X117290100Y-59312306D01*
X117049224Y-59357630D01*
X117026169Y-59372465D01*
X117014541Y-59364520D01*
X116756700Y-59312306D01*
X116020100Y-59312306D01*
X115779224Y-59357630D01*
X115756169Y-59372465D01*
X115744541Y-59364520D01*
X115486700Y-59312306D01*
X114750100Y-59312306D01*
X114509224Y-59357630D01*
X114486169Y-59372465D01*
X114474541Y-59364520D01*
X114216700Y-59312306D01*
X113480100Y-59312306D01*
X113239224Y-59357630D01*
X113216169Y-59372465D01*
X113204541Y-59364520D01*
X112946700Y-59312306D01*
X112210100Y-59312306D01*
X111969224Y-59357630D01*
X111946169Y-59372465D01*
X111934541Y-59364520D01*
X111676700Y-59312306D01*
X110940100Y-59312306D01*
X110699224Y-59357630D01*
X110676169Y-59372465D01*
X110664541Y-59364520D01*
X110406700Y-59312306D01*
X109670100Y-59312306D01*
X109429224Y-59357630D01*
X109406169Y-59372465D01*
X109394541Y-59364520D01*
X109136700Y-59312306D01*
X108400100Y-59312306D01*
X108159224Y-59357630D01*
X108136169Y-59372465D01*
X108124541Y-59364520D01*
X107866700Y-59312306D01*
X107130100Y-59312306D01*
X106889224Y-59357630D01*
X106667995Y-59499987D01*
X106519580Y-59717199D01*
X106467366Y-59975040D01*
X71050000Y-59975040D01*
X71050000Y-59595809D01*
X71599934Y-59596289D01*
X72212480Y-59343190D01*
X72681543Y-58874945D01*
X72727403Y-58764500D01*
X144592000Y-58764500D01*
X144592000Y-58910993D01*
X144676950Y-59116082D01*
X144833918Y-59273049D01*
X145039007Y-59358000D01*
X145335500Y-59358000D01*
X145475000Y-59218500D01*
X145475000Y-58625000D01*
X146125000Y-58625000D01*
X146125000Y-59218500D01*
X146264500Y-59358000D01*
X146560993Y-59358000D01*
X146766082Y-59273049D01*
X146900000Y-59139132D01*
X146983918Y-59223049D01*
X147189007Y-59308000D01*
X147485500Y-59308000D01*
X147625000Y-59168500D01*
X147625000Y-58575000D01*
X148275000Y-58575000D01*
X148275000Y-59168500D01*
X148414500Y-59308000D01*
X148710993Y-59308000D01*
X148916082Y-59223049D01*
X149073050Y-59066082D01*
X149158000Y-58860993D01*
X149158000Y-58714500D01*
X149018500Y-58575000D01*
X148275000Y-58575000D01*
X147625000Y-58575000D01*
X146881500Y-58575000D01*
X146831500Y-58625000D01*
X146125000Y-58625000D01*
X145475000Y-58625000D01*
X144731500Y-58625000D01*
X144592000Y-58764500D01*
X72727403Y-58764500D01*
X72935710Y-58262842D01*
X72936289Y-57600066D01*
X72683190Y-56987520D01*
X72214945Y-56518457D01*
X71602842Y-56264290D01*
X71507811Y-56264207D01*
X71270000Y-56026396D01*
X71255858Y-56040539D01*
X71050000Y-55834681D01*
X71050000Y-55390000D01*
X71906396Y-55390000D01*
X72574278Y-56057882D01*
X72780757Y-55931398D01*
X72872942Y-55312046D01*
X72780757Y-54848602D01*
X72574278Y-54722118D01*
X71906396Y-55390000D01*
X71050000Y-55390000D01*
X71050000Y-54945319D01*
X71255858Y-54739462D01*
X71270000Y-54753604D01*
X71507396Y-54516208D01*
X71599934Y-54516289D01*
X72212480Y-54263190D01*
X72681543Y-53794945D01*
X72935710Y-53182842D01*
X72936289Y-52520066D01*
X72683190Y-51907520D01*
X72356081Y-51579839D01*
X72681543Y-51254945D01*
X72935710Y-50642842D01*
X72936289Y-49980066D01*
X72683190Y-49367520D01*
X72356081Y-49039839D01*
X72681543Y-48714945D01*
X72935710Y-48102842D01*
X72936289Y-47440066D01*
X72930824Y-47426840D01*
X82851992Y-57348008D01*
X83103421Y-57516007D01*
X83400000Y-57575001D01*
X83696580Y-57516007D01*
X83948008Y-57348008D01*
X84116007Y-57096580D01*
X84175001Y-56800000D01*
X84116007Y-56503421D01*
X83948008Y-56251992D01*
X83896016Y-56200000D01*
X144487266Y-56200000D01*
X144487266Y-56900000D01*
X144532590Y-57140876D01*
X144674947Y-57362105D01*
X144892159Y-57510520D01*
X145047612Y-57542000D01*
X145039007Y-57542000D01*
X144833918Y-57626951D01*
X144676950Y-57783918D01*
X144592000Y-57989007D01*
X144592000Y-58135500D01*
X144731500Y-58275000D01*
X145475000Y-58275000D01*
X145475000Y-58100000D01*
X146125000Y-58100000D01*
X146125000Y-58275000D01*
X146868500Y-58275000D01*
X146918500Y-58225000D01*
X147625000Y-58225000D01*
X147625000Y-58050000D01*
X148275000Y-58050000D01*
X148275000Y-58225000D01*
X149018500Y-58225000D01*
X149158000Y-58085500D01*
X149158000Y-57939007D01*
X149073050Y-57733918D01*
X148916082Y-57576951D01*
X148710993Y-57492000D01*
X148710192Y-57492000D01*
X148840876Y-57467410D01*
X149062105Y-57325053D01*
X149210520Y-57107841D01*
X149262734Y-56850000D01*
X149262734Y-56150000D01*
X149217410Y-55909124D01*
X149075053Y-55687895D01*
X148857841Y-55539480D01*
X148600000Y-55487266D01*
X147300000Y-55487266D01*
X147059124Y-55532590D01*
X146837895Y-55674947D01*
X146836313Y-55677262D01*
X146707841Y-55589480D01*
X146450000Y-55537266D01*
X145150000Y-55537266D01*
X144909124Y-55582590D01*
X144687895Y-55724947D01*
X144539480Y-55942159D01*
X144487266Y-56200000D01*
X83896016Y-56200000D01*
X72248008Y-44551992D01*
X71996580Y-44383993D01*
X71700000Y-44325000D01*
X66321016Y-44325000D01*
X64681600Y-42685584D01*
X64681600Y-41074977D01*
X64808300Y-41100634D01*
X65544900Y-41100634D01*
X65785776Y-41055310D01*
X65808831Y-41040475D01*
X65820459Y-41048420D01*
X66078300Y-41100634D01*
X66814900Y-41100634D01*
X67055776Y-41055310D01*
X67078831Y-41040475D01*
X67090459Y-41048420D01*
X67348300Y-41100634D01*
X68084900Y-41100634D01*
X68325776Y-41055310D01*
X68348831Y-41040475D01*
X68360459Y-41048420D01*
X68618300Y-41100634D01*
X69354900Y-41100634D01*
X69595776Y-41055310D01*
X69618831Y-41040475D01*
X69630459Y-41048420D01*
X69888300Y-41100634D01*
X70624900Y-41100634D01*
X70865776Y-41055310D01*
X70888831Y-41040475D01*
X70900459Y-41048420D01*
X71158300Y-41100634D01*
X71894900Y-41100634D01*
X72135776Y-41055310D01*
X72158831Y-41040475D01*
X72170459Y-41048420D01*
X72428300Y-41100634D01*
X73164900Y-41100634D01*
X73405776Y-41055310D01*
X73428831Y-41040475D01*
X73440459Y-41048420D01*
X73698300Y-41100634D01*
X74434900Y-41100634D01*
X74561600Y-41076794D01*
X74561600Y-42936600D01*
X74620593Y-43233180D01*
X74788592Y-43484608D01*
X87151992Y-55848008D01*
X87403420Y-56016007D01*
X87700000Y-56075000D01*
X87996580Y-56016007D01*
X88248008Y-55848008D01*
X88416007Y-55596580D01*
X88475000Y-55300000D01*
X88416007Y-55003420D01*
X88248008Y-54751992D01*
X79871556Y-46375540D01*
X129167366Y-46375540D01*
X129167366Y-48595500D01*
X129212690Y-48836376D01*
X129219361Y-48846742D01*
X129167366Y-49103500D01*
X129167366Y-51323460D01*
X129212690Y-51564336D01*
X129355047Y-51785565D01*
X129572259Y-51933980D01*
X129830100Y-51986194D01*
X130566700Y-51986194D01*
X130807576Y-51940870D01*
X130830631Y-51926035D01*
X130842259Y-51933980D01*
X131100100Y-51986194D01*
X131836700Y-51986194D01*
X132077576Y-51940870D01*
X132100631Y-51926035D01*
X132112259Y-51933980D01*
X132370100Y-51986194D01*
X133106700Y-51986194D01*
X133347576Y-51940870D01*
X133370631Y-51926035D01*
X133382259Y-51933980D01*
X133640100Y-51986194D01*
X134376700Y-51986194D01*
X134617576Y-51940870D01*
X134640631Y-51926035D01*
X134652259Y-51933980D01*
X134910100Y-51986194D01*
X135646700Y-51986194D01*
X135887576Y-51940870D01*
X136108805Y-51798513D01*
X136257220Y-51581301D01*
X136309434Y-51323460D01*
X136309434Y-49103500D01*
X136264110Y-48862624D01*
X136188621Y-48745311D01*
X136204700Y-48706493D01*
X136204700Y-48075020D01*
X136065200Y-47935520D01*
X135462550Y-47935520D01*
X135462550Y-47955520D01*
X135094250Y-47955520D01*
X135094250Y-47935520D01*
X135039434Y-47935520D01*
X135039434Y-47035520D01*
X135094250Y-47035520D01*
X135094250Y-45957040D01*
X135462550Y-45957040D01*
X135462550Y-47035520D01*
X136065200Y-47035520D01*
X136204700Y-46896020D01*
X136204700Y-46264547D01*
X136119749Y-46059458D01*
X135962782Y-45902490D01*
X135757693Y-45817540D01*
X135602050Y-45817540D01*
X135462550Y-45957040D01*
X135094250Y-45957040D01*
X134954750Y-45817540D01*
X134799107Y-45817540D01*
X134744506Y-45840156D01*
X134634541Y-45765020D01*
X134376700Y-45712806D01*
X133640100Y-45712806D01*
X133399224Y-45758130D01*
X133271964Y-45840020D01*
X133217693Y-45817540D01*
X133062050Y-45817540D01*
X132922550Y-45957040D01*
X132922550Y-47035520D01*
X132977366Y-47035520D01*
X132977366Y-47935520D01*
X132922550Y-47935520D01*
X132922550Y-47955520D01*
X132554250Y-47955520D01*
X132554250Y-47935520D01*
X132499434Y-47935520D01*
X132499434Y-47035520D01*
X132554250Y-47035520D01*
X132554250Y-45957040D01*
X132414750Y-45817540D01*
X132259107Y-45817540D01*
X132204506Y-45840156D01*
X132094541Y-45765020D01*
X131836700Y-45712806D01*
X131100100Y-45712806D01*
X130859224Y-45758130D01*
X130836169Y-45772965D01*
X130824541Y-45765020D01*
X130566700Y-45712806D01*
X129830100Y-45712806D01*
X129589224Y-45758130D01*
X129367995Y-45900487D01*
X129219580Y-46117699D01*
X129167366Y-46375540D01*
X79871556Y-46375540D01*
X78027158Y-44531142D01*
X147317536Y-44531142D01*
X147724986Y-45517246D01*
X148478786Y-46272363D01*
X149464177Y-46681533D01*
X150531142Y-46682464D01*
X151517246Y-46275014D01*
X152272363Y-45521214D01*
X152681533Y-44535823D01*
X152682464Y-43468858D01*
X152275014Y-42482754D01*
X151521214Y-41727637D01*
X150535823Y-41318467D01*
X149468858Y-41317536D01*
X148482754Y-41724986D01*
X147727637Y-42478786D01*
X147318467Y-43464177D01*
X147317536Y-44531142D01*
X78027158Y-44531142D01*
X76111600Y-42615584D01*
X76111600Y-40948605D01*
X76167005Y-40912953D01*
X76315420Y-40695741D01*
X76367634Y-40437900D01*
X76367634Y-39294900D01*
X76330473Y-39097407D01*
X76367634Y-38913900D01*
X76367634Y-37897900D01*
X83728966Y-37897900D01*
X83728966Y-39040900D01*
X83766127Y-39238393D01*
X83728966Y-39421900D01*
X83728966Y-40564900D01*
X83774290Y-40805776D01*
X83916647Y-41027005D01*
X84133859Y-41175420D01*
X84391700Y-41227634D01*
X85128300Y-41227634D01*
X85369176Y-41182310D01*
X85392231Y-41167475D01*
X85403859Y-41175420D01*
X85661700Y-41227634D01*
X86398300Y-41227634D01*
X86639176Y-41182310D01*
X86662231Y-41167475D01*
X86673859Y-41175420D01*
X86931700Y-41227634D01*
X87668300Y-41227634D01*
X87909176Y-41182310D01*
X87932231Y-41167475D01*
X87943859Y-41175420D01*
X88201700Y-41227634D01*
X88938300Y-41227634D01*
X89179176Y-41182310D01*
X89202231Y-41167475D01*
X89213859Y-41175420D01*
X89471700Y-41227634D01*
X90208300Y-41227634D01*
X90449176Y-41182310D01*
X90472231Y-41167475D01*
X90483859Y-41175420D01*
X90741700Y-41227634D01*
X91478300Y-41227634D01*
X91719176Y-41182310D01*
X91742231Y-41167475D01*
X91753859Y-41175420D01*
X92011700Y-41227634D01*
X92748300Y-41227634D01*
X92989176Y-41182310D01*
X93012231Y-41167475D01*
X93023859Y-41175420D01*
X93281700Y-41227634D01*
X94018300Y-41227634D01*
X94259176Y-41182310D01*
X94282231Y-41167475D01*
X94293859Y-41175420D01*
X94551700Y-41227634D01*
X95288300Y-41227634D01*
X95529176Y-41182310D01*
X95552231Y-41167475D01*
X95563859Y-41175420D01*
X95821700Y-41227634D01*
X96558300Y-41227634D01*
X96799176Y-41182310D01*
X96822231Y-41167475D01*
X96833859Y-41175420D01*
X97091700Y-41227634D01*
X97828300Y-41227634D01*
X98069176Y-41182310D01*
X98092231Y-41167475D01*
X98103859Y-41175420D01*
X98361700Y-41227634D01*
X99098300Y-41227634D01*
X99339176Y-41182310D01*
X99362231Y-41167475D01*
X99373859Y-41175420D01*
X99631700Y-41227634D01*
X100368300Y-41227634D01*
X100609176Y-41182310D01*
X100632231Y-41167475D01*
X100643859Y-41175420D01*
X100901700Y-41227634D01*
X101638300Y-41227634D01*
X101879176Y-41182310D01*
X101902231Y-41167475D01*
X101913859Y-41175420D01*
X102171700Y-41227634D01*
X102908300Y-41227634D01*
X103149176Y-41182310D01*
X103172231Y-41167475D01*
X103183859Y-41175420D01*
X103441700Y-41227634D01*
X104178300Y-41227634D01*
X104419176Y-41182310D01*
X104442231Y-41167475D01*
X104453859Y-41175420D01*
X104711700Y-41227634D01*
X105448300Y-41227634D01*
X105689176Y-41182310D01*
X105712231Y-41167475D01*
X105723859Y-41175420D01*
X105981700Y-41227634D01*
X106718300Y-41227634D01*
X106959176Y-41182310D01*
X106982231Y-41167475D01*
X106993859Y-41175420D01*
X107251700Y-41227634D01*
X107988300Y-41227634D01*
X108229176Y-41182310D01*
X108252231Y-41167475D01*
X108263859Y-41175420D01*
X108521700Y-41227634D01*
X109258300Y-41227634D01*
X109499176Y-41182310D01*
X109522231Y-41167475D01*
X109533859Y-41175420D01*
X109791700Y-41227634D01*
X110528300Y-41227634D01*
X110769176Y-41182310D01*
X110792231Y-41167475D01*
X110803859Y-41175420D01*
X111061700Y-41227634D01*
X111798300Y-41227634D01*
X112039176Y-41182310D01*
X112062231Y-41167475D01*
X112073859Y-41175420D01*
X112331700Y-41227634D01*
X113068300Y-41227634D01*
X113309176Y-41182310D01*
X113332231Y-41167475D01*
X113343859Y-41175420D01*
X113601700Y-41227634D01*
X114338300Y-41227634D01*
X114579176Y-41182310D01*
X114602231Y-41167475D01*
X114613859Y-41175420D01*
X114871700Y-41227634D01*
X115608300Y-41227634D01*
X115849176Y-41182310D01*
X116070405Y-41039953D01*
X116218820Y-40822741D01*
X116271034Y-40564900D01*
X116271034Y-39866400D01*
X123591400Y-39866400D01*
X123632366Y-40072351D01*
X123632366Y-40437900D01*
X123677690Y-40678776D01*
X123820047Y-40900005D01*
X124037259Y-41048420D01*
X124295100Y-41100634D01*
X125031700Y-41100634D01*
X125272576Y-41055310D01*
X125295631Y-41040475D01*
X125307259Y-41048420D01*
X125565100Y-41100634D01*
X126301700Y-41100634D01*
X126542576Y-41055310D01*
X126565631Y-41040475D01*
X126577259Y-41048420D01*
X126835100Y-41100634D01*
X127571700Y-41100634D01*
X127812576Y-41055310D01*
X127835631Y-41040475D01*
X127847259Y-41048420D01*
X128105100Y-41100634D01*
X128841700Y-41100634D01*
X129082576Y-41055310D01*
X129105631Y-41040475D01*
X129117259Y-41048420D01*
X129375100Y-41100634D01*
X130111700Y-41100634D01*
X130238400Y-41076794D01*
X130238400Y-41211600D01*
X130297393Y-41508180D01*
X130465392Y-41759608D01*
X130716820Y-41927607D01*
X131013400Y-41986600D01*
X131309980Y-41927607D01*
X131561408Y-41759608D01*
X131729407Y-41508180D01*
X131788400Y-41211600D01*
X131788400Y-41074977D01*
X131915100Y-41100634D01*
X132651700Y-41100634D01*
X132892576Y-41055310D01*
X132915631Y-41040475D01*
X132927259Y-41048420D01*
X133185100Y-41100634D01*
X133921700Y-41100634D01*
X134162576Y-41055310D01*
X134185631Y-41040475D01*
X134197259Y-41048420D01*
X134455100Y-41100634D01*
X135191700Y-41100634D01*
X135432576Y-41055310D01*
X135455631Y-41040475D01*
X135467259Y-41048420D01*
X135725100Y-41100634D01*
X136461700Y-41100634D01*
X136702576Y-41055310D01*
X136725631Y-41040475D01*
X136737259Y-41048420D01*
X136995100Y-41100634D01*
X137731700Y-41100634D01*
X137972576Y-41055310D01*
X137995631Y-41040475D01*
X138007259Y-41048420D01*
X138265100Y-41100634D01*
X139001700Y-41100634D01*
X139242576Y-41055310D01*
X139265631Y-41040475D01*
X139277259Y-41048420D01*
X139535100Y-41100634D01*
X140271700Y-41100634D01*
X140512576Y-41055310D01*
X140535631Y-41040475D01*
X140547259Y-41048420D01*
X140805100Y-41100634D01*
X141541700Y-41100634D01*
X141782576Y-41055310D01*
X141805631Y-41040475D01*
X141817259Y-41048420D01*
X142075100Y-41100634D01*
X142113935Y-41100634D01*
X142146820Y-41122607D01*
X142443400Y-41181600D01*
X142739980Y-41122607D01*
X142772865Y-41100634D01*
X142811700Y-41100634D01*
X143052576Y-41055310D01*
X143075631Y-41040475D01*
X143087259Y-41048420D01*
X143345100Y-41100634D01*
X144081700Y-41100634D01*
X144322576Y-41055310D01*
X144345631Y-41040475D01*
X144357259Y-41048420D01*
X144615100Y-41100634D01*
X145351700Y-41100634D01*
X145592576Y-41055310D01*
X145615631Y-41040475D01*
X145627259Y-41048420D01*
X145885100Y-41100634D01*
X146147996Y-41100634D01*
X146253400Y-41121600D01*
X146358804Y-41100634D01*
X146621700Y-41100634D01*
X146862576Y-41055310D01*
X146885631Y-41040475D01*
X146897259Y-41048420D01*
X147155100Y-41100634D01*
X147267175Y-41100634D01*
X147523400Y-41151600D01*
X147779625Y-41100634D01*
X147891700Y-41100634D01*
X148132576Y-41055310D01*
X148155631Y-41040475D01*
X148167259Y-41048420D01*
X148425100Y-41100634D01*
X149161700Y-41100634D01*
X149402576Y-41055310D01*
X149623805Y-40912953D01*
X149772220Y-40695741D01*
X149824434Y-40437900D01*
X149824434Y-39294900D01*
X149787273Y-39097407D01*
X149824434Y-38913900D01*
X149824434Y-37770900D01*
X149779110Y-37530024D01*
X149636753Y-37308795D01*
X149419541Y-37160380D01*
X149161700Y-37108166D01*
X148425100Y-37108166D01*
X148184224Y-37153490D01*
X148161169Y-37168325D01*
X148149541Y-37160380D01*
X147891700Y-37108166D01*
X147155100Y-37108166D01*
X146914224Y-37153490D01*
X146891169Y-37168325D01*
X146879541Y-37160380D01*
X146621700Y-37108166D01*
X145885100Y-37108166D01*
X145644224Y-37153490D01*
X145621169Y-37168325D01*
X145609541Y-37160380D01*
X145351700Y-37108166D01*
X144615100Y-37108166D01*
X144374224Y-37153490D01*
X144351169Y-37168325D01*
X144339541Y-37160380D01*
X144081700Y-37108166D01*
X143345100Y-37108166D01*
X143104224Y-37153490D01*
X143081169Y-37168325D01*
X143069541Y-37160380D01*
X142811700Y-37108166D01*
X142075100Y-37108166D01*
X141834224Y-37153490D01*
X141811169Y-37168325D01*
X141799541Y-37160380D01*
X141541700Y-37108166D01*
X140805100Y-37108166D01*
X140564224Y-37153490D01*
X140541169Y-37168325D01*
X140529541Y-37160380D01*
X140271700Y-37108166D01*
X139535100Y-37108166D01*
X139294224Y-37153490D01*
X139271169Y-37168325D01*
X139259541Y-37160380D01*
X139001700Y-37108166D01*
X138265100Y-37108166D01*
X138024224Y-37153490D01*
X138001169Y-37168325D01*
X137989541Y-37160380D01*
X137731700Y-37108166D01*
X136995100Y-37108166D01*
X136754224Y-37153490D01*
X136731169Y-37168325D01*
X136719541Y-37160380D01*
X136461700Y-37108166D01*
X135725100Y-37108166D01*
X135484224Y-37153490D01*
X135461169Y-37168325D01*
X135449541Y-37160380D01*
X135191700Y-37108166D01*
X134455100Y-37108166D01*
X134214224Y-37153490D01*
X134191169Y-37168325D01*
X134179541Y-37160380D01*
X133921700Y-37108166D01*
X133185100Y-37108166D01*
X132944224Y-37153490D01*
X132921169Y-37168325D01*
X132909541Y-37160380D01*
X132651700Y-37108166D01*
X131915100Y-37108166D01*
X131674224Y-37153490D01*
X131651169Y-37168325D01*
X131639541Y-37160380D01*
X131381700Y-37108166D01*
X130645100Y-37108166D01*
X130404224Y-37153490D01*
X130381169Y-37168325D01*
X130369541Y-37160380D01*
X130111700Y-37108166D01*
X129375100Y-37108166D01*
X129134224Y-37153490D01*
X129111169Y-37168325D01*
X129099541Y-37160380D01*
X128841700Y-37108166D01*
X128105100Y-37108166D01*
X127864224Y-37153490D01*
X127841169Y-37168325D01*
X127829541Y-37160380D01*
X127571700Y-37108166D01*
X126835100Y-37108166D01*
X126594224Y-37153490D01*
X126571169Y-37168325D01*
X126559541Y-37160380D01*
X126301700Y-37108166D01*
X125565100Y-37108166D01*
X125324224Y-37153490D01*
X125301169Y-37168325D01*
X125289541Y-37160380D01*
X125031700Y-37108166D01*
X124295100Y-37108166D01*
X124054224Y-37153490D01*
X123832995Y-37295847D01*
X123684580Y-37513059D01*
X123632366Y-37770900D01*
X123632366Y-38913900D01*
X123669527Y-39111393D01*
X123632366Y-39294900D01*
X123632366Y-39660449D01*
X123591400Y-39866400D01*
X116271034Y-39866400D01*
X116271034Y-39421900D01*
X116233873Y-39224407D01*
X116271034Y-39040900D01*
X116271034Y-37897900D01*
X116225710Y-37657024D01*
X116083353Y-37435795D01*
X115866141Y-37287380D01*
X115608300Y-37235166D01*
X114871700Y-37235166D01*
X114630824Y-37280490D01*
X114607769Y-37295325D01*
X114596141Y-37287380D01*
X114338300Y-37235166D01*
X113601700Y-37235166D01*
X113360824Y-37280490D01*
X113337769Y-37295325D01*
X113326141Y-37287380D01*
X113068300Y-37235166D01*
X112331700Y-37235166D01*
X112090824Y-37280490D01*
X112067769Y-37295325D01*
X112056141Y-37287380D01*
X111798300Y-37235166D01*
X111061700Y-37235166D01*
X110820824Y-37280490D01*
X110797769Y-37295325D01*
X110786141Y-37287380D01*
X110528300Y-37235166D01*
X109791700Y-37235166D01*
X109550824Y-37280490D01*
X109527769Y-37295325D01*
X109516141Y-37287380D01*
X109258300Y-37235166D01*
X108521700Y-37235166D01*
X108280824Y-37280490D01*
X108257769Y-37295325D01*
X108246141Y-37287380D01*
X107988300Y-37235166D01*
X107251700Y-37235166D01*
X107010824Y-37280490D01*
X106987769Y-37295325D01*
X106976141Y-37287380D01*
X106718300Y-37235166D01*
X105981700Y-37235166D01*
X105740824Y-37280490D01*
X105717769Y-37295325D01*
X105706141Y-37287380D01*
X105448300Y-37235166D01*
X104711700Y-37235166D01*
X104470824Y-37280490D01*
X104447769Y-37295325D01*
X104436141Y-37287380D01*
X104178300Y-37235166D01*
X103441700Y-37235166D01*
X103200824Y-37280490D01*
X103177769Y-37295325D01*
X103166141Y-37287380D01*
X102908300Y-37235166D01*
X102171700Y-37235166D01*
X101930824Y-37280490D01*
X101907769Y-37295325D01*
X101896141Y-37287380D01*
X101638300Y-37235166D01*
X100901700Y-37235166D01*
X100660824Y-37280490D01*
X100637769Y-37295325D01*
X100626141Y-37287380D01*
X100368300Y-37235166D01*
X99631700Y-37235166D01*
X99390824Y-37280490D01*
X99367769Y-37295325D01*
X99356141Y-37287380D01*
X99098300Y-37235166D01*
X98361700Y-37235166D01*
X98120824Y-37280490D01*
X98097769Y-37295325D01*
X98086141Y-37287380D01*
X97828300Y-37235166D01*
X97091700Y-37235166D01*
X96850824Y-37280490D01*
X96827769Y-37295325D01*
X96816141Y-37287380D01*
X96558300Y-37235166D01*
X95821700Y-37235166D01*
X95580824Y-37280490D01*
X95557769Y-37295325D01*
X95546141Y-37287380D01*
X95288300Y-37235166D01*
X94551700Y-37235166D01*
X94310824Y-37280490D01*
X94287769Y-37295325D01*
X94276141Y-37287380D01*
X94018300Y-37235166D01*
X93281700Y-37235166D01*
X93040824Y-37280490D01*
X93017769Y-37295325D01*
X93006141Y-37287380D01*
X92748300Y-37235166D01*
X92011700Y-37235166D01*
X91770824Y-37280490D01*
X91747769Y-37295325D01*
X91736141Y-37287380D01*
X91478300Y-37235166D01*
X90741700Y-37235166D01*
X90500824Y-37280490D01*
X90477769Y-37295325D01*
X90466141Y-37287380D01*
X90208300Y-37235166D01*
X89471700Y-37235166D01*
X89230824Y-37280490D01*
X89207769Y-37295325D01*
X89196141Y-37287380D01*
X88938300Y-37235166D01*
X88201700Y-37235166D01*
X87960824Y-37280490D01*
X87937769Y-37295325D01*
X87926141Y-37287380D01*
X87668300Y-37235166D01*
X86931700Y-37235166D01*
X86690824Y-37280490D01*
X86667769Y-37295325D01*
X86656141Y-37287380D01*
X86398300Y-37235166D01*
X85661700Y-37235166D01*
X85420824Y-37280490D01*
X85397769Y-37295325D01*
X85386141Y-37287380D01*
X85128300Y-37235166D01*
X84391700Y-37235166D01*
X84150824Y-37280490D01*
X83929595Y-37422847D01*
X83781180Y-37640059D01*
X83728966Y-37897900D01*
X76367634Y-37897900D01*
X76367634Y-37770900D01*
X76322310Y-37530024D01*
X76179953Y-37308795D01*
X75962741Y-37160380D01*
X75704900Y-37108166D01*
X74968300Y-37108166D01*
X74727424Y-37153490D01*
X74704369Y-37168325D01*
X74692741Y-37160380D01*
X74434900Y-37108166D01*
X73698300Y-37108166D01*
X73457424Y-37153490D01*
X73434369Y-37168325D01*
X73422741Y-37160380D01*
X73164900Y-37108166D01*
X72428300Y-37108166D01*
X72187424Y-37153490D01*
X72164369Y-37168325D01*
X72152741Y-37160380D01*
X71894900Y-37108166D01*
X71158300Y-37108166D01*
X70917424Y-37153490D01*
X70894369Y-37168325D01*
X70882741Y-37160380D01*
X70624900Y-37108166D01*
X69888300Y-37108166D01*
X69647424Y-37153490D01*
X69624369Y-37168325D01*
X69612741Y-37160380D01*
X69354900Y-37108166D01*
X68618300Y-37108166D01*
X68377424Y-37153490D01*
X68354369Y-37168325D01*
X68342741Y-37160380D01*
X68084900Y-37108166D01*
X67348300Y-37108166D01*
X67107424Y-37153490D01*
X67084369Y-37168325D01*
X67072741Y-37160380D01*
X66814900Y-37108166D01*
X66078300Y-37108166D01*
X65837424Y-37153490D01*
X65814369Y-37168325D01*
X65802741Y-37160380D01*
X65544900Y-37108166D01*
X64808300Y-37108166D01*
X64567424Y-37153490D01*
X64544369Y-37168325D01*
X64532741Y-37160380D01*
X64274900Y-37108166D01*
X63538300Y-37108166D01*
X63297424Y-37153490D01*
X63274369Y-37168325D01*
X63262741Y-37160380D01*
X63004900Y-37108166D01*
X62268300Y-37108166D01*
X62027424Y-37153490D01*
X62004369Y-37168325D01*
X61992741Y-37160380D01*
X61734900Y-37108166D01*
X60998300Y-37108166D01*
X60757424Y-37153490D01*
X60734369Y-37168325D01*
X60722741Y-37160380D01*
X60464900Y-37108166D01*
X59728300Y-37108166D01*
X59487424Y-37153490D01*
X59464369Y-37168325D01*
X59452741Y-37160380D01*
X59194900Y-37108166D01*
X58458300Y-37108166D01*
X58217424Y-37153490D01*
X58194369Y-37168325D01*
X58182741Y-37160380D01*
X57924900Y-37108166D01*
X57188300Y-37108166D01*
X56947424Y-37153490D01*
X56924369Y-37168325D01*
X56912741Y-37160380D01*
X56654900Y-37108166D01*
X55918300Y-37108166D01*
X55677424Y-37153490D01*
X55654369Y-37168325D01*
X55642741Y-37160380D01*
X55384900Y-37108166D01*
X54648300Y-37108166D01*
X54407424Y-37153490D01*
X54384369Y-37168325D01*
X54372741Y-37160380D01*
X54114900Y-37108166D01*
X53378300Y-37108166D01*
X53137424Y-37153490D01*
X53114369Y-37168325D01*
X53102741Y-37160380D01*
X52844900Y-37108166D01*
X52108300Y-37108166D01*
X51867424Y-37153490D01*
X51844369Y-37168325D01*
X51832741Y-37160380D01*
X51574900Y-37108166D01*
X50838300Y-37108166D01*
X50597424Y-37153490D01*
X50376195Y-37295847D01*
X50227780Y-37513059D01*
X50175566Y-37770900D01*
X50175566Y-38913900D01*
X50212727Y-39111393D01*
X50175566Y-39294900D01*
X50175566Y-40437900D01*
X50220890Y-40678776D01*
X50363247Y-40900005D01*
X50580459Y-41048420D01*
X50838300Y-41100634D01*
X51574900Y-41100634D01*
X51815776Y-41055310D01*
X51838831Y-41040475D01*
X51850459Y-41048420D01*
X52108300Y-41100634D01*
X52844900Y-41100634D01*
X53085776Y-41055310D01*
X53108831Y-41040475D01*
X53120459Y-41048420D01*
X53378300Y-41100634D01*
X54114900Y-41100634D01*
X54355776Y-41055310D01*
X54378831Y-41040475D01*
X54390459Y-41048420D01*
X54648300Y-41100634D01*
X55384900Y-41100634D01*
X55625776Y-41055310D01*
X55648831Y-41040475D01*
X55660459Y-41048420D01*
X55918300Y-41100634D01*
X56654900Y-41100634D01*
X56895776Y-41055310D01*
X56918831Y-41040475D01*
X56930459Y-41048420D01*
X57188300Y-41100634D01*
X57924900Y-41100634D01*
X58165776Y-41055310D01*
X58188831Y-41040475D01*
X58200459Y-41048420D01*
X58458300Y-41100634D01*
X59194900Y-41100634D01*
X59435776Y-41055310D01*
X59458831Y-41040475D01*
X59470459Y-41048420D01*
X59728300Y-41100634D01*
X60464900Y-41100634D01*
X60705776Y-41055310D01*
X60728831Y-41040475D01*
X60740459Y-41048420D01*
X60998300Y-41100634D01*
X61734900Y-41100634D01*
X61975776Y-41055310D01*
X61998831Y-41040475D01*
X62010459Y-41048420D01*
X62268300Y-41100634D01*
X63004900Y-41100634D01*
X63131600Y-41076794D01*
X63131600Y-43006600D01*
X63190593Y-43303180D01*
X63358592Y-43554608D01*
X64753984Y-44950000D01*
X52509552Y-44950000D01*
X52681533Y-44535823D01*
X52682464Y-43468858D01*
X52275014Y-42482754D01*
X51521214Y-41727637D01*
X50535823Y-41318467D01*
X49468858Y-41317536D01*
X48482754Y-41724986D01*
X47727637Y-42478786D01*
X47318467Y-43464177D01*
X47317536Y-44531142D01*
X47490605Y-44950000D01*
X46584900Y-44950000D01*
X46584900Y-31975000D01*
X48305115Y-31975000D01*
X47888857Y-32146995D01*
M02*
