G04 #@! TF.FileFunction,Soldermask,Top*
%FSLAX46Y46*%
G04 Gerber Fmt 4.6, Leading zero omitted, Abs format (unit mm)*
G04 Created by KiCad (PCBNEW 4.0.1-stable) date 2016-12-19 11:19:05 AM*
%MOMM*%
G01*
G04 APERTURE LIST*
%ADD10C,0.100000*%
%ADD11C,4.464000*%
%ADD12R,0.900000X1.600000*%
%ADD13C,1.800000*%
%ADD14C,1.670000*%
%ADD15R,2.432000X2.432000*%
%ADD16O,2.432000X2.432000*%
%ADD17R,2.127200X2.127200*%
%ADD18O,2.127200X2.127200*%
%ADD19R,2.127200X2.432000*%
%ADD20O,2.127200X2.432000*%
G04 APERTURE END LIST*
D10*
D11*
X104000000Y-83000000D03*
X28000000Y-83000000D03*
X104000000Y-25000000D03*
D12*
X95500000Y-64800000D03*
X97100000Y-64800000D03*
X96300000Y-64800000D03*
X95500000Y-61400000D03*
X97100000Y-61400000D03*
X96300000Y-61400000D03*
X89100000Y-64800000D03*
X89900000Y-64800000D03*
X91500000Y-64800000D03*
X90700000Y-64800000D03*
X93900000Y-64800000D03*
X94700000Y-64800000D03*
X93100000Y-64800000D03*
X92300000Y-64800000D03*
X89100000Y-61400000D03*
X89900000Y-61400000D03*
X91500000Y-61400000D03*
X90700000Y-61400000D03*
X93900000Y-61400000D03*
X94700000Y-61400000D03*
X93100000Y-61400000D03*
X92300000Y-61400000D03*
X85900000Y-61400000D03*
X86700000Y-61400000D03*
X88300000Y-61400000D03*
X87500000Y-61400000D03*
X85900000Y-64800000D03*
X86700000Y-64800000D03*
X88300000Y-64800000D03*
X87500000Y-64800000D03*
X84300000Y-64800000D03*
X85100000Y-64800000D03*
X76300000Y-64800000D03*
X77100000Y-64800000D03*
X75500000Y-64800000D03*
X77900000Y-64800000D03*
X78700000Y-64800000D03*
X83500000Y-64800000D03*
X82700000Y-64800000D03*
D13*
X98600000Y-63100000D03*
D12*
X84300000Y-61400000D03*
X85100000Y-61400000D03*
X76300000Y-61400000D03*
X77100000Y-61400000D03*
X75500000Y-61400000D03*
X74700000Y-61400000D03*
X77900000Y-61400000D03*
X78700000Y-61400000D03*
X83500000Y-61400000D03*
X82700000Y-61400000D03*
X74700000Y-64800000D03*
D13*
X73200000Y-64600000D03*
D12*
X95500000Y-81400000D03*
X97100000Y-81400000D03*
X96300000Y-81400000D03*
X95500000Y-78000000D03*
X97100000Y-78000000D03*
X96300000Y-78000000D03*
X89100000Y-81400000D03*
X89900000Y-81400000D03*
X91500000Y-81400000D03*
X90700000Y-81400000D03*
X93900000Y-81400000D03*
X94700000Y-81400000D03*
X93100000Y-81400000D03*
X92300000Y-81400000D03*
X89100000Y-78000000D03*
X89900000Y-78000000D03*
X91500000Y-78000000D03*
X90700000Y-78000000D03*
X93900000Y-78000000D03*
X94700000Y-78000000D03*
X93100000Y-78000000D03*
X92300000Y-78000000D03*
X85900000Y-78000000D03*
X86700000Y-78000000D03*
X88300000Y-78000000D03*
X87500000Y-78000000D03*
X85900000Y-81400000D03*
X86700000Y-81400000D03*
X88300000Y-81400000D03*
X87500000Y-81400000D03*
X84300000Y-81400000D03*
X85100000Y-81400000D03*
X76300000Y-81400000D03*
X77100000Y-81400000D03*
X75500000Y-81400000D03*
X77900000Y-81400000D03*
X78700000Y-81400000D03*
X83500000Y-81400000D03*
X82700000Y-81400000D03*
D13*
X98600000Y-79700000D03*
D12*
X84300000Y-78000000D03*
X85100000Y-78000000D03*
X76300000Y-78000000D03*
X77100000Y-78000000D03*
X75500000Y-78000000D03*
X74700000Y-78000000D03*
X77900000Y-78000000D03*
X78700000Y-78000000D03*
X83500000Y-78000000D03*
X82700000Y-78000000D03*
X74700000Y-81400000D03*
D13*
X73200000Y-81200000D03*
D14*
X98452500Y-76700000D03*
X71147500Y-76700000D03*
X98452500Y-60100000D03*
X71147500Y-60100000D03*
D13*
X98600000Y-29900000D03*
D12*
X96300000Y-28200000D03*
X97100000Y-28200000D03*
X91500000Y-28200000D03*
X92300000Y-28200000D03*
X90700000Y-28200000D03*
X89900000Y-28200000D03*
X93100000Y-28200000D03*
X93900000Y-28200000D03*
X95500000Y-28200000D03*
X94700000Y-28200000D03*
X94700000Y-31600000D03*
X95500000Y-31600000D03*
X93900000Y-31600000D03*
X93100000Y-31600000D03*
X89900000Y-31600000D03*
X90700000Y-31600000D03*
X92300000Y-31600000D03*
X91500000Y-31600000D03*
X97100000Y-31600000D03*
X96300000Y-31600000D03*
D13*
X88400000Y-31400000D03*
D12*
X95500000Y-48200000D03*
X97100000Y-48200000D03*
X96300000Y-48200000D03*
X95500000Y-44800000D03*
X97100000Y-44800000D03*
X96300000Y-44800000D03*
X89100000Y-48200000D03*
X89900000Y-48200000D03*
X91500000Y-48200000D03*
X90700000Y-48200000D03*
X93900000Y-48200000D03*
X94700000Y-48200000D03*
X93100000Y-48200000D03*
X92300000Y-48200000D03*
X89100000Y-44800000D03*
X89900000Y-44800000D03*
X91500000Y-44800000D03*
X90700000Y-44800000D03*
X93900000Y-44800000D03*
X94700000Y-44800000D03*
X93100000Y-44800000D03*
X92300000Y-44800000D03*
X85900000Y-44800000D03*
X86700000Y-44800000D03*
X88300000Y-44800000D03*
X87500000Y-44800000D03*
X85900000Y-48200000D03*
X86700000Y-48200000D03*
X88300000Y-48200000D03*
X87500000Y-48200000D03*
X84300000Y-48200000D03*
X85100000Y-48200000D03*
X76300000Y-48200000D03*
X77100000Y-48200000D03*
X75500000Y-48200000D03*
X77900000Y-48200000D03*
X78700000Y-48200000D03*
X83500000Y-48200000D03*
X82700000Y-48200000D03*
D13*
X98600000Y-46500000D03*
D12*
X84300000Y-44800000D03*
X85100000Y-44800000D03*
X76300000Y-44800000D03*
X77100000Y-44800000D03*
X75500000Y-44800000D03*
X74700000Y-44800000D03*
X77900000Y-44800000D03*
X78700000Y-44800000D03*
X83500000Y-44800000D03*
X82700000Y-44800000D03*
X74700000Y-48200000D03*
D13*
X73200000Y-48000000D03*
D14*
X98452500Y-43500000D03*
X71147500Y-43500000D03*
D15*
X73660000Y-22860000D03*
D16*
X76200000Y-22860000D03*
D15*
X66040000Y-22860000D03*
D16*
X68580000Y-22860000D03*
D17*
X35560000Y-25400000D03*
D18*
X35560000Y-22860000D03*
X38100000Y-25400000D03*
X38100000Y-22860000D03*
X40640000Y-25400000D03*
X40640000Y-22860000D03*
X43180000Y-25400000D03*
X43180000Y-22860000D03*
X45720000Y-25400000D03*
X45720000Y-22860000D03*
X48260000Y-25400000D03*
X48260000Y-22860000D03*
X50800000Y-25400000D03*
X50800000Y-22860000D03*
X53340000Y-25400000D03*
X53340000Y-22860000D03*
X55880000Y-25400000D03*
X55880000Y-22860000D03*
X58420000Y-25400000D03*
X58420000Y-22860000D03*
D11*
X28000000Y-25000000D03*
D19*
X66040000Y-26670000D03*
D20*
X68580000Y-26670000D03*
X71120000Y-26670000D03*
M02*
