G04 #@! TF.FileFunction,Soldermask,Top*
%FSLAX46Y46*%
G04 Gerber Fmt 4.6, Leading zero omitted, Abs format (unit mm)*
G04 Created by KiCad (PCBNEW 4.0.7) date 03/15/18 15:57:52*
%MOMM*%
%LPD*%
G01*
G04 APERTURE LIST*
%ADD10C,0.100000*%
%ADD11C,1.400760*%
%ADD12C,2.400000*%
%ADD13R,2.432000X2.127200*%
%ADD14O,2.432000X2.127200*%
%ADD15R,3.400000X3.400000*%
%ADD16C,3.400000*%
%ADD17O,1.873200X1.009600*%
%ADD18R,1.100000X1.700000*%
%ADD19R,1.650000X1.400000*%
%ADD20C,2.432000*%
%ADD21C,4.464000*%
%ADD22R,1.136600X2.619960*%
%ADD23C,2.150000*%
%ADD24R,1.000000X0.850000*%
%ADD25R,1.700000X1.100000*%
%ADD26R,0.850000X1.850000*%
%ADD27R,1.300000X0.900000*%
G04 APERTURE END LIST*
D10*
D11*
X52476600Y-39131800D03*
X51206600Y-39131800D03*
X51206600Y-37861800D03*
X52476600Y-37861800D03*
X56286600Y-37861800D03*
X57556600Y-37861800D03*
X55016600Y-37861800D03*
X53746600Y-37861800D03*
X53746600Y-39131800D03*
X55016600Y-39131800D03*
X57556600Y-39131800D03*
X56286600Y-39131800D03*
X70256600Y-37861800D03*
X71526600Y-37861800D03*
X74066600Y-37861800D03*
X72796600Y-37861800D03*
X72796600Y-39131800D03*
X74066600Y-39131800D03*
X71526600Y-39131800D03*
X70256600Y-39131800D03*
X75336600Y-39131800D03*
X75336600Y-37861800D03*
X68986600Y-37861800D03*
X68986600Y-39131800D03*
X61366600Y-39131800D03*
X62636600Y-39131800D03*
X60096600Y-39131800D03*
X58826600Y-39131800D03*
X63906600Y-39131800D03*
X65176600Y-39131800D03*
X67716600Y-39131800D03*
X66446600Y-39131800D03*
X66446600Y-37861800D03*
X67716600Y-37861800D03*
X65176600Y-37861800D03*
X63906600Y-37861800D03*
X58826600Y-37861800D03*
X60096600Y-37861800D03*
X62636600Y-37861800D03*
X61366600Y-37861800D03*
D12*
X63300000Y-78650000D03*
X63300000Y-66150000D03*
X48300000Y-78650000D03*
X48300000Y-66150000D03*
D13*
X151800000Y-57000000D03*
D14*
X151800000Y-54460000D03*
X151800000Y-51920000D03*
D15*
X58000000Y-48000000D03*
D16*
X58000000Y-53080000D03*
D17*
X68594000Y-54005000D03*
X68594000Y-52735000D03*
X68594000Y-51465000D03*
X68594000Y-50195000D03*
X63006000Y-50195000D03*
X63006000Y-51465000D03*
X63006000Y-52735000D03*
X63006000Y-54005000D03*
D18*
X144550000Y-64600000D03*
X146450000Y-64600000D03*
X133150000Y-45000000D03*
X131250000Y-45000000D03*
D19*
X48600000Y-59600000D03*
X48600000Y-57600000D03*
X66700000Y-75500000D03*
X66700000Y-77500000D03*
X69000000Y-75500000D03*
X69000000Y-77500000D03*
D20*
X71270000Y-57930000D03*
X71270000Y-55390000D03*
X71270000Y-52850000D03*
X71270000Y-50310000D03*
X71270000Y-47770000D03*
D21*
X50000000Y-44000000D03*
X150000000Y-44000000D03*
X150000000Y-84000000D03*
X68000000Y-86000000D03*
D22*
X108768400Y-77412980D03*
X108768400Y-74685020D03*
X117658400Y-77412980D03*
X117658400Y-74685020D03*
X116388400Y-77412980D03*
X116388400Y-74685020D03*
X115118400Y-77412980D03*
X115118400Y-74685020D03*
X113848400Y-77412980D03*
X113848400Y-74685020D03*
X126548400Y-74685020D03*
X126548400Y-77412980D03*
X127818400Y-74685020D03*
X127818400Y-77412980D03*
X129088400Y-74685020D03*
X129088400Y-77412980D03*
X130358400Y-74685020D03*
X130358400Y-77412980D03*
X131628400Y-74685020D03*
X131628400Y-77412980D03*
X107498400Y-74685020D03*
X107498400Y-77412980D03*
X110038400Y-74685020D03*
X110038400Y-77412980D03*
X111308400Y-74685020D03*
X111308400Y-77412980D03*
X112578400Y-74685020D03*
X112578400Y-77412980D03*
X118928400Y-74685020D03*
X118928400Y-77412980D03*
X137978400Y-77412980D03*
X137978400Y-74685020D03*
X136708400Y-77412980D03*
X136708400Y-74685020D03*
X135438400Y-77412980D03*
X135438400Y-74685020D03*
X134168400Y-77412980D03*
X134168400Y-74685020D03*
X132898400Y-77412980D03*
X132898400Y-74685020D03*
X125278400Y-77412980D03*
X125278400Y-74685020D03*
X124008400Y-77412980D03*
X124008400Y-74685020D03*
X122738400Y-77412980D03*
X122738400Y-74685020D03*
X121468400Y-77412980D03*
X121468400Y-74685020D03*
X120198400Y-77412980D03*
X120198400Y-74685020D03*
D23*
X105910900Y-76049000D03*
X139565900Y-76049000D03*
D22*
X108768400Y-91012980D03*
X108768400Y-88285020D03*
X117658400Y-91012980D03*
X117658400Y-88285020D03*
X116388400Y-91012980D03*
X116388400Y-88285020D03*
X115118400Y-91012980D03*
X115118400Y-88285020D03*
X113848400Y-91012980D03*
X113848400Y-88285020D03*
X126548400Y-88285020D03*
X126548400Y-91012980D03*
X127818400Y-88285020D03*
X127818400Y-91012980D03*
X129088400Y-88285020D03*
X129088400Y-91012980D03*
X130358400Y-88285020D03*
X130358400Y-91012980D03*
X131628400Y-88285020D03*
X131628400Y-91012980D03*
X107498400Y-88285020D03*
X107498400Y-91012980D03*
X110038400Y-88285020D03*
X110038400Y-91012980D03*
X111308400Y-88285020D03*
X111308400Y-91012980D03*
X112578400Y-88285020D03*
X112578400Y-91012980D03*
X118928400Y-88285020D03*
X118928400Y-91012980D03*
X137978400Y-91012980D03*
X137978400Y-88285020D03*
X136708400Y-91012980D03*
X136708400Y-88285020D03*
X135438400Y-91012980D03*
X135438400Y-88285020D03*
X134168400Y-91012980D03*
X134168400Y-88285020D03*
X132898400Y-91012980D03*
X132898400Y-88285020D03*
X125278400Y-91012980D03*
X125278400Y-88285020D03*
X124008400Y-91012980D03*
X124008400Y-88285020D03*
X122738400Y-91012980D03*
X122738400Y-88285020D03*
X121468400Y-91012980D03*
X121468400Y-88285020D03*
X120198400Y-91012980D03*
X120198400Y-88285020D03*
D23*
X105910900Y-89649000D03*
X139565900Y-89649000D03*
D24*
X68150000Y-48300000D03*
X66050000Y-48300000D03*
D18*
X64750000Y-48300000D03*
X62850000Y-48300000D03*
D25*
X148500000Y-68150000D03*
X148500000Y-70050000D03*
D26*
X150425000Y-74450000D03*
X151075000Y-74450000D03*
X151725000Y-74450000D03*
X152375000Y-74450000D03*
X152375000Y-68550000D03*
X151725000Y-68550000D03*
X151075000Y-68550000D03*
X150425000Y-68550000D03*
D27*
X150100000Y-77750000D03*
X150100000Y-76250000D03*
X151400000Y-77750000D03*
X151400000Y-76250000D03*
X152700000Y-77750000D03*
X152700000Y-76250000D03*
D23*
X136865900Y-48849500D03*
D22*
X130198400Y-47485520D03*
X130198400Y-50213480D03*
X131468400Y-47485520D03*
X131468400Y-50213480D03*
X135278400Y-50213480D03*
X135278400Y-47485520D03*
X134008400Y-50213480D03*
X134008400Y-47485520D03*
X132738400Y-50213480D03*
X132738400Y-47485520D03*
D23*
X128610900Y-48849500D03*
D19*
X150800000Y-66800000D03*
X150800000Y-64800000D03*
D11*
X125933400Y-39131800D03*
X124663400Y-39131800D03*
X124663400Y-37861800D03*
X125933400Y-37861800D03*
X129743400Y-37861800D03*
X131013400Y-37861800D03*
X128473400Y-37861800D03*
X127203400Y-37861800D03*
X127203400Y-39131800D03*
X128473400Y-39131800D03*
X131013400Y-39131800D03*
X129743400Y-39131800D03*
X143713400Y-37861800D03*
X144983400Y-37861800D03*
X147523400Y-37861800D03*
X146253400Y-37861800D03*
X146253400Y-39131800D03*
X147523400Y-39131800D03*
X144983400Y-39131800D03*
X143713400Y-39131800D03*
X148793400Y-39131800D03*
X148793400Y-37861800D03*
X142443400Y-37861800D03*
X142443400Y-39131800D03*
X134823400Y-39131800D03*
X136093400Y-39131800D03*
X133553400Y-39131800D03*
X132283400Y-39131800D03*
X137363400Y-39131800D03*
X138633400Y-39131800D03*
X141173400Y-39131800D03*
X139903400Y-39131800D03*
X139903400Y-37861800D03*
X141173400Y-37861800D03*
X138633400Y-37861800D03*
X137363400Y-37861800D03*
X132283400Y-37861800D03*
X133553400Y-37861800D03*
X136093400Y-37861800D03*
X134823400Y-37861800D03*
X89840000Y-39131800D03*
X88570000Y-39131800D03*
X87300000Y-39131800D03*
X87300000Y-37861800D03*
X88570000Y-37861800D03*
X89840000Y-37861800D03*
X86030000Y-37861800D03*
X84760000Y-37861800D03*
X84760000Y-39131800D03*
X86030000Y-39131800D03*
X92380000Y-39131800D03*
X91110000Y-39131800D03*
X91110000Y-37861800D03*
X92380000Y-37861800D03*
X96190000Y-37861800D03*
X97460000Y-37861800D03*
X94920000Y-37861800D03*
X93650000Y-37861800D03*
X93650000Y-39131800D03*
X94920000Y-39131800D03*
X97460000Y-39131800D03*
X96190000Y-39131800D03*
X110160000Y-37861800D03*
X111430000Y-37861800D03*
X113970000Y-37861800D03*
X112700000Y-37861800D03*
X112700000Y-39131800D03*
X113970000Y-39131800D03*
X111430000Y-39131800D03*
X110160000Y-39131800D03*
X115240000Y-39131800D03*
X115240000Y-37861800D03*
X108890000Y-37861800D03*
X108890000Y-39131800D03*
X101270000Y-39131800D03*
X102540000Y-39131800D03*
X100000000Y-39131800D03*
X98730000Y-39131800D03*
X103810000Y-39131800D03*
X105080000Y-39131800D03*
X107620000Y-39131800D03*
X106350000Y-39131800D03*
X106350000Y-37861800D03*
X107620000Y-37861800D03*
X105080000Y-37861800D03*
X103810000Y-37861800D03*
X98730000Y-37861800D03*
X100000000Y-37861800D03*
X102540000Y-37861800D03*
X101270000Y-37861800D03*
D22*
X108768400Y-63812980D03*
X108768400Y-61085020D03*
X117658400Y-63812980D03*
X117658400Y-61085020D03*
X116388400Y-63812980D03*
X116388400Y-61085020D03*
X115118400Y-63812980D03*
X115118400Y-61085020D03*
X113848400Y-63812980D03*
X113848400Y-61085020D03*
X126548400Y-61085020D03*
X126548400Y-63812980D03*
X127818400Y-61085020D03*
X127818400Y-63812980D03*
X129088400Y-61085020D03*
X129088400Y-63812980D03*
X130358400Y-61085020D03*
X130358400Y-63812980D03*
X131628400Y-61085020D03*
X131628400Y-63812980D03*
X107498400Y-61085020D03*
X107498400Y-63812980D03*
X110038400Y-61085020D03*
X110038400Y-63812980D03*
X111308400Y-61085020D03*
X111308400Y-63812980D03*
X112578400Y-61085020D03*
X112578400Y-63812980D03*
X118928400Y-61085020D03*
X118928400Y-63812980D03*
X137978400Y-63812980D03*
X137978400Y-61085020D03*
X136708400Y-63812980D03*
X136708400Y-61085020D03*
X135438400Y-63812980D03*
X135438400Y-61085020D03*
X134168400Y-63812980D03*
X134168400Y-61085020D03*
X132898400Y-63812980D03*
X132898400Y-61085020D03*
X125278400Y-63812980D03*
X125278400Y-61085020D03*
X124008400Y-63812980D03*
X124008400Y-61085020D03*
X122738400Y-63812980D03*
X122738400Y-61085020D03*
X121468400Y-63812980D03*
X121468400Y-61085020D03*
X120198400Y-63812980D03*
X120198400Y-61085020D03*
D23*
X105910900Y-62449000D03*
X139565900Y-62449000D03*
M02*
