G04 #@! TF.FileFunction,Legend,Top*
%FSLAX46Y46*%
G04 Gerber Fmt 4.6, Leading zero omitted, Abs format (unit mm)*
G04 Created by KiCad (PCBNEW 4.0.1-stable) date 2016-12-19 11:19:05 AM*
%MOMM*%
G01*
G04 APERTURE LIST*
%ADD10C,0.100000*%
%ADD11C,0.300000*%
%ADD12C,0.150000*%
G04 APERTURE END LIST*
D10*
D11*
X34728572Y-84378571D02*
X34728572Y-82878571D01*
X35085715Y-82878571D01*
X35300000Y-82950000D01*
X35442858Y-83092857D01*
X35514286Y-83235714D01*
X35585715Y-83521429D01*
X35585715Y-83735714D01*
X35514286Y-84021429D01*
X35442858Y-84164286D01*
X35300000Y-84307143D01*
X35085715Y-84378571D01*
X34728572Y-84378571D01*
X36228572Y-84378571D02*
X36228572Y-83378571D01*
X36228572Y-83664286D02*
X36300000Y-83521429D01*
X36371429Y-83450000D01*
X36514286Y-83378571D01*
X36657143Y-83378571D01*
X37371429Y-84378571D02*
X37228571Y-84307143D01*
X37157143Y-84235714D01*
X37085714Y-84092857D01*
X37085714Y-83664286D01*
X37157143Y-83521429D01*
X37228571Y-83450000D01*
X37371429Y-83378571D01*
X37585714Y-83378571D01*
X37728571Y-83450000D01*
X37800000Y-83521429D01*
X37871429Y-83664286D01*
X37871429Y-84092857D01*
X37800000Y-84235714D01*
X37728571Y-84307143D01*
X37585714Y-84378571D01*
X37371429Y-84378571D01*
X38514286Y-83378571D02*
X38514286Y-84878571D01*
X38514286Y-83450000D02*
X38657143Y-83378571D01*
X38942857Y-83378571D01*
X39085714Y-83450000D01*
X39157143Y-83521429D01*
X39228572Y-83664286D01*
X39228572Y-84092857D01*
X39157143Y-84235714D01*
X39085714Y-84307143D01*
X38942857Y-84378571D01*
X38657143Y-84378571D01*
X38514286Y-84307143D01*
X40371429Y-83592857D02*
X40585715Y-83664286D01*
X40657143Y-83735714D01*
X40728572Y-83878571D01*
X40728572Y-84092857D01*
X40657143Y-84235714D01*
X40585715Y-84307143D01*
X40442857Y-84378571D01*
X39871429Y-84378571D01*
X39871429Y-82878571D01*
X40371429Y-82878571D01*
X40514286Y-82950000D01*
X40585715Y-83021429D01*
X40657143Y-83164286D01*
X40657143Y-83307143D01*
X40585715Y-83450000D01*
X40514286Y-83521429D01*
X40371429Y-83592857D01*
X39871429Y-83592857D01*
X41585715Y-84378571D02*
X41442857Y-84307143D01*
X41371429Y-84235714D01*
X41300000Y-84092857D01*
X41300000Y-83664286D01*
X41371429Y-83521429D01*
X41442857Y-83450000D01*
X41585715Y-83378571D01*
X41800000Y-83378571D01*
X41942857Y-83450000D01*
X42014286Y-83521429D01*
X42085715Y-83664286D01*
X42085715Y-84092857D01*
X42014286Y-84235714D01*
X41942857Y-84307143D01*
X41800000Y-84378571D01*
X41585715Y-84378571D01*
X42514286Y-83378571D02*
X43085715Y-83378571D01*
X42728572Y-82878571D02*
X42728572Y-84164286D01*
X42800000Y-84307143D01*
X42942858Y-84378571D01*
X43085715Y-84378571D01*
X44514286Y-83378571D02*
X45085715Y-83378571D01*
X44728572Y-84378571D02*
X44728572Y-83092857D01*
X44800000Y-82950000D01*
X44942858Y-82878571D01*
X45085715Y-82878571D01*
X45585715Y-84378571D02*
X45585715Y-83378571D01*
X45585715Y-83664286D02*
X45657143Y-83521429D01*
X45728572Y-83450000D01*
X45871429Y-83378571D01*
X46014286Y-83378571D01*
X46728572Y-84378571D02*
X46585714Y-84307143D01*
X46514286Y-84235714D01*
X46442857Y-84092857D01*
X46442857Y-83664286D01*
X46514286Y-83521429D01*
X46585714Y-83450000D01*
X46728572Y-83378571D01*
X46942857Y-83378571D01*
X47085714Y-83450000D01*
X47157143Y-83521429D01*
X47228572Y-83664286D01*
X47228572Y-84092857D01*
X47157143Y-84235714D01*
X47085714Y-84307143D01*
X46942857Y-84378571D01*
X46728572Y-84378571D01*
X47871429Y-83378571D02*
X47871429Y-84378571D01*
X47871429Y-83521429D02*
X47942857Y-83450000D01*
X48085715Y-83378571D01*
X48300000Y-83378571D01*
X48442857Y-83450000D01*
X48514286Y-83592857D01*
X48514286Y-84378571D01*
X49014286Y-83378571D02*
X49585715Y-83378571D01*
X49228572Y-82878571D02*
X49228572Y-84164286D01*
X49300000Y-84307143D01*
X49442858Y-84378571D01*
X49585715Y-84378571D01*
X51228572Y-83378571D02*
X51228572Y-84878571D01*
X51228572Y-83450000D02*
X51371429Y-83378571D01*
X51657143Y-83378571D01*
X51800000Y-83450000D01*
X51871429Y-83521429D01*
X51942858Y-83664286D01*
X51942858Y-84092857D01*
X51871429Y-84235714D01*
X51800000Y-84307143D01*
X51657143Y-84378571D01*
X51371429Y-84378571D01*
X51228572Y-84307143D01*
X53228572Y-84378571D02*
X53228572Y-83592857D01*
X53157143Y-83450000D01*
X53014286Y-83378571D01*
X52728572Y-83378571D01*
X52585715Y-83450000D01*
X53228572Y-84307143D02*
X53085715Y-84378571D01*
X52728572Y-84378571D01*
X52585715Y-84307143D01*
X52514286Y-84164286D01*
X52514286Y-84021429D01*
X52585715Y-83878571D01*
X52728572Y-83807143D01*
X53085715Y-83807143D01*
X53228572Y-83735714D01*
X53942858Y-83378571D02*
X53942858Y-84378571D01*
X53942858Y-83521429D02*
X54014286Y-83450000D01*
X54157144Y-83378571D01*
X54371429Y-83378571D01*
X54514286Y-83450000D01*
X54585715Y-83592857D01*
X54585715Y-84378571D01*
X55300001Y-83378571D02*
X55300001Y-84378571D01*
X55300001Y-83521429D02*
X55371429Y-83450000D01*
X55514287Y-83378571D01*
X55728572Y-83378571D01*
X55871429Y-83450000D01*
X55942858Y-83592857D01*
X55942858Y-84378571D01*
X57228572Y-84307143D02*
X57085715Y-84378571D01*
X56800001Y-84378571D01*
X56657144Y-84307143D01*
X56585715Y-84164286D01*
X56585715Y-83592857D01*
X56657144Y-83450000D01*
X56800001Y-83378571D01*
X57085715Y-83378571D01*
X57228572Y-83450000D01*
X57300001Y-83592857D01*
X57300001Y-83735714D01*
X56585715Y-83878571D01*
X58157144Y-84378571D02*
X58014286Y-84307143D01*
X57942858Y-84164286D01*
X57942858Y-82878571D01*
X59728572Y-83378571D02*
X60085715Y-84378571D01*
X60442857Y-83378571D01*
X61300000Y-82878571D02*
X61442857Y-82878571D01*
X61585714Y-82950000D01*
X61657143Y-83021429D01*
X61728572Y-83164286D01*
X61800000Y-83450000D01*
X61800000Y-83807143D01*
X61728572Y-84092857D01*
X61657143Y-84235714D01*
X61585714Y-84307143D01*
X61442857Y-84378571D01*
X61300000Y-84378571D01*
X61157143Y-84307143D01*
X61085714Y-84235714D01*
X61014286Y-84092857D01*
X60942857Y-83807143D01*
X60942857Y-83450000D01*
X61014286Y-83164286D01*
X61085714Y-83021429D01*
X61157143Y-82950000D01*
X61300000Y-82878571D01*
X62442857Y-84235714D02*
X62514285Y-84307143D01*
X62442857Y-84378571D01*
X62371428Y-84307143D01*
X62442857Y-84235714D01*
X62442857Y-84378571D01*
X63942857Y-84378571D02*
X63085714Y-84378571D01*
X63514286Y-84378571D02*
X63514286Y-82878571D01*
X63371429Y-83092857D01*
X63228571Y-83235714D01*
X63085714Y-83307143D01*
D12*
X106286000Y-83000000D02*
G75*
G03X106286000Y-83000000I-2286000J0D01*
G01*
X30286000Y-83000000D02*
G75*
G03X30286000Y-83000000I-2286000J0D01*
G01*
X106286000Y-25000000D02*
G75*
G03X106286000Y-25000000I-2286000J0D01*
G01*
X103000000Y-56400000D02*
X103000000Y-69800000D01*
X99800000Y-59600000D02*
X99800000Y-66600000D01*
X68800000Y-56400000D02*
X103000000Y-56400000D01*
X68800000Y-69800000D02*
X103000000Y-69800000D01*
X72000000Y-59600000D02*
X72000000Y-66600000D01*
X72000000Y-66600000D02*
X99800000Y-66600000D01*
X68800000Y-56400000D02*
X68800000Y-69800000D01*
X72000000Y-59600000D02*
X99800000Y-59600000D01*
X103000000Y-73000000D02*
X103000000Y-86400000D01*
X99800000Y-76200000D02*
X99800000Y-83200000D01*
X68800000Y-73000000D02*
X103000000Y-73000000D01*
X68800000Y-86400000D02*
X103000000Y-86400000D01*
X72000000Y-76200000D02*
X72000000Y-83200000D01*
X72000000Y-83200000D02*
X99800000Y-83200000D01*
X68800000Y-73000000D02*
X68800000Y-86400000D01*
X72000000Y-76200000D02*
X99800000Y-76200000D01*
X84000000Y-23200000D02*
X103000000Y-23200000D01*
X84000000Y-36600000D02*
X103000000Y-36600000D01*
X103000000Y-36600000D02*
X103000000Y-23200000D01*
X87200000Y-26400000D02*
X87200000Y-33400000D01*
X99800000Y-33400000D02*
X99800000Y-26400000D01*
X87200000Y-33400000D02*
X99800000Y-33400000D01*
X84000000Y-23200000D02*
X84000000Y-36600000D01*
X87200000Y-26400000D02*
X99800000Y-26400000D01*
X103000000Y-39800000D02*
X103000000Y-53200000D01*
X99800000Y-43000000D02*
X99800000Y-50000000D01*
X68800000Y-39800000D02*
X103000000Y-39800000D01*
X68800000Y-53200000D02*
X103000000Y-53200000D01*
X72000000Y-43000000D02*
X72000000Y-50000000D01*
X72000000Y-50000000D02*
X99800000Y-50000000D01*
X68800000Y-39800000D02*
X68800000Y-53200000D01*
X72000000Y-43000000D02*
X99800000Y-43000000D01*
X74930000Y-21590000D02*
X77470000Y-21590000D01*
X72110000Y-21310000D02*
X73660000Y-21310000D01*
X74930000Y-21590000D02*
X74930000Y-24130000D01*
X73660000Y-24410000D02*
X72110000Y-24410000D01*
X72110000Y-24410000D02*
X72110000Y-21310000D01*
X74930000Y-24130000D02*
X77470000Y-24130000D01*
X77470000Y-24130000D02*
X77470000Y-21590000D01*
X67310000Y-21590000D02*
X69850000Y-21590000D01*
X64490000Y-21310000D02*
X66040000Y-21310000D01*
X67310000Y-21590000D02*
X67310000Y-24130000D01*
X66040000Y-24410000D02*
X64490000Y-24410000D01*
X64490000Y-24410000D02*
X64490000Y-21310000D01*
X67310000Y-24130000D02*
X69850000Y-24130000D01*
X69850000Y-24130000D02*
X69850000Y-21590000D01*
X59690000Y-21590000D02*
X34290000Y-21590000D01*
X36830000Y-26670000D02*
X59690000Y-26670000D01*
X59690000Y-21590000D02*
X59690000Y-26670000D01*
X34290000Y-21590000D02*
X34290000Y-24130000D01*
X34010000Y-25400000D02*
X34010000Y-26950000D01*
X34290000Y-24130000D02*
X36830000Y-24130000D01*
X36830000Y-24130000D02*
X36830000Y-26670000D01*
X34010000Y-26950000D02*
X35560000Y-26950000D01*
X30286000Y-25000000D02*
G75*
G03X30286000Y-25000000I-2286000J0D01*
G01*
X67310000Y-27940000D02*
X72390000Y-27940000D01*
X72390000Y-27940000D02*
X72390000Y-25400000D01*
X72390000Y-25400000D02*
X67310000Y-25400000D01*
X64490000Y-25120000D02*
X66040000Y-25120000D01*
X67310000Y-25400000D02*
X67310000Y-27940000D01*
X66040000Y-28220000D02*
X64490000Y-28220000D01*
X64490000Y-28220000D02*
X64490000Y-25120000D01*
X102666667Y-80404381D02*
X102333333Y-79928190D01*
X102095238Y-80404381D02*
X102095238Y-79404381D01*
X102476191Y-79404381D01*
X102571429Y-79452000D01*
X102619048Y-79499619D01*
X102666667Y-79594857D01*
X102666667Y-79737714D01*
X102619048Y-79832952D01*
X102571429Y-79880571D01*
X102476191Y-79928190D01*
X102095238Y-79928190D01*
X103095238Y-79880571D02*
X103428572Y-79880571D01*
X103571429Y-80404381D02*
X103095238Y-80404381D01*
X103095238Y-79404381D01*
X103571429Y-79404381D01*
X104333334Y-79880571D02*
X104000000Y-79880571D01*
X104000000Y-80404381D02*
X104000000Y-79404381D01*
X104476191Y-79404381D01*
X105000000Y-79404381D02*
X105000000Y-79642476D01*
X104761905Y-79547238D02*
X105000000Y-79642476D01*
X105238096Y-79547238D01*
X104857143Y-79832952D02*
X105000000Y-79642476D01*
X105142858Y-79832952D01*
X105761905Y-79404381D02*
X105761905Y-79642476D01*
X105523810Y-79547238D02*
X105761905Y-79642476D01*
X106000001Y-79547238D01*
X105619048Y-79832952D02*
X105761905Y-79642476D01*
X105904763Y-79832952D01*
X26666667Y-80404381D02*
X26333333Y-79928190D01*
X26095238Y-80404381D02*
X26095238Y-79404381D01*
X26476191Y-79404381D01*
X26571429Y-79452000D01*
X26619048Y-79499619D01*
X26666667Y-79594857D01*
X26666667Y-79737714D01*
X26619048Y-79832952D01*
X26571429Y-79880571D01*
X26476191Y-79928190D01*
X26095238Y-79928190D01*
X27095238Y-79880571D02*
X27428572Y-79880571D01*
X27571429Y-80404381D02*
X27095238Y-80404381D01*
X27095238Y-79404381D01*
X27571429Y-79404381D01*
X28333334Y-79880571D02*
X28000000Y-79880571D01*
X28000000Y-80404381D02*
X28000000Y-79404381D01*
X28476191Y-79404381D01*
X29000000Y-79404381D02*
X29000000Y-79642476D01*
X28761905Y-79547238D02*
X29000000Y-79642476D01*
X29238096Y-79547238D01*
X28857143Y-79832952D02*
X29000000Y-79642476D01*
X29142858Y-79832952D01*
X29761905Y-79404381D02*
X29761905Y-79642476D01*
X29523810Y-79547238D02*
X29761905Y-79642476D01*
X30000001Y-79547238D01*
X29619048Y-79832952D02*
X29761905Y-79642476D01*
X29904763Y-79832952D01*
X102666667Y-22404381D02*
X102333333Y-21928190D01*
X102095238Y-22404381D02*
X102095238Y-21404381D01*
X102476191Y-21404381D01*
X102571429Y-21452000D01*
X102619048Y-21499619D01*
X102666667Y-21594857D01*
X102666667Y-21737714D01*
X102619048Y-21832952D01*
X102571429Y-21880571D01*
X102476191Y-21928190D01*
X102095238Y-21928190D01*
X103095238Y-21880571D02*
X103428572Y-21880571D01*
X103571429Y-22404381D02*
X103095238Y-22404381D01*
X103095238Y-21404381D01*
X103571429Y-21404381D01*
X104333334Y-21880571D02*
X104000000Y-21880571D01*
X104000000Y-22404381D02*
X104000000Y-21404381D01*
X104476191Y-21404381D01*
X105000000Y-21404381D02*
X105000000Y-21642476D01*
X104761905Y-21547238D02*
X105000000Y-21642476D01*
X105238096Y-21547238D01*
X104857143Y-21832952D02*
X105000000Y-21642476D01*
X105142858Y-21832952D01*
X105761905Y-21404381D02*
X105761905Y-21642476D01*
X105523810Y-21547238D02*
X105761905Y-21642476D01*
X106000001Y-21547238D01*
X105619048Y-21832952D02*
X105761905Y-21642476D01*
X105904763Y-21832952D01*
X85161905Y-58952381D02*
X85161905Y-57952381D01*
X85542858Y-57952381D01*
X85638096Y-58000000D01*
X85685715Y-58047619D01*
X85733334Y-58142857D01*
X85733334Y-58285714D01*
X85685715Y-58380952D01*
X85638096Y-58428571D01*
X85542858Y-58476190D01*
X85161905Y-58476190D01*
X86590477Y-58285714D02*
X86590477Y-58952381D01*
X86352381Y-57904762D02*
X86114286Y-58619048D01*
X86733334Y-58619048D01*
X85161905Y-75552381D02*
X85161905Y-74552381D01*
X85542858Y-74552381D01*
X85638096Y-74600000D01*
X85685715Y-74647619D01*
X85733334Y-74742857D01*
X85733334Y-74885714D01*
X85685715Y-74980952D01*
X85638096Y-75028571D01*
X85542858Y-75076190D01*
X85161905Y-75076190D01*
X86590477Y-74552381D02*
X86400000Y-74552381D01*
X86304762Y-74600000D01*
X86257143Y-74647619D01*
X86161905Y-74790476D01*
X86114286Y-74980952D01*
X86114286Y-75361905D01*
X86161905Y-75457143D01*
X86209524Y-75504762D01*
X86304762Y-75552381D01*
X86495239Y-75552381D01*
X86590477Y-75504762D01*
X86638096Y-75457143D01*
X86685715Y-75361905D01*
X86685715Y-75123810D01*
X86638096Y-75028571D01*
X86590477Y-74980952D01*
X86495239Y-74933333D01*
X86304762Y-74933333D01*
X86209524Y-74980952D01*
X86161905Y-75028571D01*
X86114286Y-75123810D01*
X90571905Y-26052381D02*
X90571905Y-25052381D01*
X90952858Y-25052381D01*
X91048096Y-25100000D01*
X91095715Y-25147619D01*
X91143334Y-25242857D01*
X91143334Y-25385714D01*
X91095715Y-25480952D01*
X91048096Y-25528571D01*
X90952858Y-25576190D01*
X90571905Y-25576190D01*
X92095715Y-26052381D02*
X91524286Y-26052381D01*
X91810000Y-26052381D02*
X91810000Y-25052381D01*
X91714762Y-25195238D01*
X91619524Y-25290476D01*
X91524286Y-25338095D01*
X85161905Y-42352381D02*
X85161905Y-41352381D01*
X85542858Y-41352381D01*
X85638096Y-41400000D01*
X85685715Y-41447619D01*
X85733334Y-41542857D01*
X85733334Y-41685714D01*
X85685715Y-41780952D01*
X85638096Y-41828571D01*
X85542858Y-41876190D01*
X85161905Y-41876190D01*
X86114286Y-41447619D02*
X86161905Y-41400000D01*
X86257143Y-41352381D01*
X86495239Y-41352381D01*
X86590477Y-41400000D01*
X86638096Y-41447619D01*
X86685715Y-41542857D01*
X86685715Y-41638095D01*
X86638096Y-41780952D01*
X86066667Y-42352381D01*
X86685715Y-42352381D01*
X72526667Y-24712381D02*
X72526667Y-25426667D01*
X72479047Y-25569524D01*
X72383809Y-25664762D01*
X72240952Y-25712381D01*
X72145714Y-25712381D01*
X73002857Y-25712381D02*
X73002857Y-24712381D01*
X73383810Y-24712381D01*
X73479048Y-24760000D01*
X73526667Y-24807619D01*
X73574286Y-24902857D01*
X73574286Y-25045714D01*
X73526667Y-25140952D01*
X73479048Y-25188571D01*
X73383810Y-25236190D01*
X73002857Y-25236190D01*
X74526667Y-25712381D02*
X73955238Y-25712381D01*
X74240952Y-25712381D02*
X74240952Y-24712381D01*
X74145714Y-24855238D01*
X74050476Y-24950476D01*
X73955238Y-24998095D01*
X64706667Y-24812381D02*
X64706667Y-25526667D01*
X64659047Y-25669524D01*
X64563809Y-25764762D01*
X64420952Y-25812381D01*
X64325714Y-25812381D01*
X65182857Y-25812381D02*
X65182857Y-24812381D01*
X65563810Y-24812381D01*
X65659048Y-24860000D01*
X65706667Y-24907619D01*
X65754286Y-25002857D01*
X65754286Y-25145714D01*
X65706667Y-25240952D01*
X65659048Y-25288571D01*
X65563810Y-25336190D01*
X65182857Y-25336190D01*
X66135238Y-24907619D02*
X66182857Y-24860000D01*
X66278095Y-24812381D01*
X66516191Y-24812381D01*
X66611429Y-24860000D01*
X66659048Y-24907619D01*
X66706667Y-25002857D01*
X66706667Y-25098095D01*
X66659048Y-25240952D01*
X66087619Y-25812381D01*
X66706667Y-25812381D01*
X34821905Y-28392381D02*
X34821905Y-27392381D01*
X35202858Y-27392381D01*
X35298096Y-27440000D01*
X35345715Y-27487619D01*
X35393334Y-27582857D01*
X35393334Y-27725714D01*
X35345715Y-27820952D01*
X35298096Y-27868571D01*
X35202858Y-27916190D01*
X34821905Y-27916190D01*
X35964762Y-27820952D02*
X35869524Y-27773333D01*
X35821905Y-27725714D01*
X35774286Y-27630476D01*
X35774286Y-27582857D01*
X35821905Y-27487619D01*
X35869524Y-27440000D01*
X35964762Y-27392381D01*
X36155239Y-27392381D01*
X36250477Y-27440000D01*
X36298096Y-27487619D01*
X36345715Y-27582857D01*
X36345715Y-27630476D01*
X36298096Y-27725714D01*
X36250477Y-27773333D01*
X36155239Y-27820952D01*
X35964762Y-27820952D01*
X35869524Y-27868571D01*
X35821905Y-27916190D01*
X35774286Y-28011429D01*
X35774286Y-28201905D01*
X35821905Y-28297143D01*
X35869524Y-28344762D01*
X35964762Y-28392381D01*
X36155239Y-28392381D01*
X36250477Y-28344762D01*
X36298096Y-28297143D01*
X36345715Y-28201905D01*
X36345715Y-28011429D01*
X36298096Y-27916190D01*
X36250477Y-27868571D01*
X36155239Y-27820952D01*
X26666667Y-22404381D02*
X26333333Y-21928190D01*
X26095238Y-22404381D02*
X26095238Y-21404381D01*
X26476191Y-21404381D01*
X26571429Y-21452000D01*
X26619048Y-21499619D01*
X26666667Y-21594857D01*
X26666667Y-21737714D01*
X26619048Y-21832952D01*
X26571429Y-21880571D01*
X26476191Y-21928190D01*
X26095238Y-21928190D01*
X27095238Y-21880571D02*
X27428572Y-21880571D01*
X27571429Y-22404381D02*
X27095238Y-22404381D01*
X27095238Y-21404381D01*
X27571429Y-21404381D01*
X28333334Y-21880571D02*
X28000000Y-21880571D01*
X28000000Y-22404381D02*
X28000000Y-21404381D01*
X28476191Y-21404381D01*
X29000000Y-21404381D02*
X29000000Y-21642476D01*
X28761905Y-21547238D02*
X29000000Y-21642476D01*
X29238096Y-21547238D01*
X28857143Y-21832952D02*
X29000000Y-21642476D01*
X29142858Y-21832952D01*
X29761905Y-21404381D02*
X29761905Y-21642476D01*
X29523810Y-21547238D02*
X29761905Y-21642476D01*
X30000001Y-21547238D01*
X29619048Y-21832952D02*
X29761905Y-21642476D01*
X29904763Y-21832952D01*
X61392381Y-27408095D02*
X60392381Y-27408095D01*
X60392381Y-27027142D01*
X60440000Y-26931904D01*
X60487619Y-26884285D01*
X60582857Y-26836666D01*
X60725714Y-26836666D01*
X60820952Y-26884285D01*
X60868571Y-26931904D01*
X60916190Y-27027142D01*
X60916190Y-27408095D01*
X61392381Y-26360476D02*
X61392381Y-26170000D01*
X61344762Y-26074761D01*
X61297143Y-26027142D01*
X61154286Y-25931904D01*
X60963810Y-25884285D01*
X60582857Y-25884285D01*
X60487619Y-25931904D01*
X60440000Y-25979523D01*
X60392381Y-26074761D01*
X60392381Y-26265238D01*
X60440000Y-26360476D01*
X60487619Y-26408095D01*
X60582857Y-26455714D01*
X60820952Y-26455714D01*
X60916190Y-26408095D01*
X60963810Y-26360476D01*
X61011429Y-26265238D01*
X61011429Y-26074761D01*
X60963810Y-25979523D01*
X60916190Y-25931904D01*
X60820952Y-25884285D01*
M02*
