G04 #@! TF.FileFunction,Paste,Top*
%FSLAX46Y46*%
G04 Gerber Fmt 4.6, Leading zero omitted, Abs format (unit mm)*
G04 Created by KiCad (PCBNEW 4.0.6) date 09/19/17 09:44:05*
%MOMM*%
%LPD*%
G01*
G04 APERTURE LIST*
%ADD10C,0.100000*%
%ADD11R,0.736600X1.143000*%
%ADD12C,1.270000*%
%ADD13O,1.473200X0.609600*%
%ADD14R,0.700000X1.300000*%
%ADD15R,1.250000X1.000000*%
%ADD16R,0.736600X2.219960*%
%ADD17R,0.600000X0.450000*%
%ADD18R,1.300000X0.700000*%
%ADD19R,0.450000X1.450000*%
%ADD20R,0.900000X0.500000*%
G04 APERTURE END LIST*
D10*
D11*
X75336600Y-38342400D03*
X75336600Y-39866400D03*
X74066600Y-38342400D03*
X74066600Y-39866400D03*
X72796600Y-38342400D03*
X72796600Y-39866400D03*
X71526600Y-38342400D03*
X71526600Y-39866400D03*
X70256600Y-38342400D03*
X70256600Y-39866400D03*
X68986600Y-38342400D03*
X68986600Y-39866400D03*
X67716600Y-38342400D03*
X67716600Y-39866400D03*
X66446600Y-38342400D03*
X66446600Y-39866400D03*
X65176600Y-38342400D03*
X65176600Y-39866400D03*
X63906600Y-38342400D03*
X63906600Y-39866400D03*
X62636600Y-38342400D03*
X62636600Y-39866400D03*
X61366600Y-38342400D03*
X61366600Y-39866400D03*
X60096600Y-38342400D03*
X60096600Y-39866400D03*
X58826600Y-38342400D03*
X58826600Y-39866400D03*
X57556600Y-38342400D03*
X57556600Y-39866400D03*
X56286600Y-38342400D03*
X56286600Y-39866400D03*
X55016600Y-38342400D03*
X55016600Y-39866400D03*
X53746600Y-38342400D03*
X53746600Y-39866400D03*
X52476600Y-38342400D03*
X52476600Y-39866400D03*
X51206600Y-38342400D03*
X51206600Y-39866400D03*
D12*
X77927400Y-33237000D03*
X48615800Y-33237000D03*
X77927400Y-35497600D03*
X48615800Y-35497600D03*
D11*
X148793400Y-38342400D03*
X148793400Y-39866400D03*
X147523400Y-38342400D03*
X147523400Y-39866400D03*
X146253400Y-38342400D03*
X146253400Y-39866400D03*
X144983400Y-38342400D03*
X144983400Y-39866400D03*
X143713400Y-38342400D03*
X143713400Y-39866400D03*
X142443400Y-38342400D03*
X142443400Y-39866400D03*
X141173400Y-38342400D03*
X141173400Y-39866400D03*
X139903400Y-38342400D03*
X139903400Y-39866400D03*
X138633400Y-38342400D03*
X138633400Y-39866400D03*
X137363400Y-38342400D03*
X137363400Y-39866400D03*
X136093400Y-38342400D03*
X136093400Y-39866400D03*
X134823400Y-38342400D03*
X134823400Y-39866400D03*
X133553400Y-38342400D03*
X133553400Y-39866400D03*
X132283400Y-38342400D03*
X132283400Y-39866400D03*
X131013400Y-38342400D03*
X131013400Y-39866400D03*
X129743400Y-38342400D03*
X129743400Y-39866400D03*
X128473400Y-38342400D03*
X128473400Y-39866400D03*
X127203400Y-38342400D03*
X127203400Y-39866400D03*
X125933400Y-38342400D03*
X125933400Y-39866400D03*
X124663400Y-38342400D03*
X124663400Y-39866400D03*
D12*
X151384200Y-33237000D03*
X122072600Y-33237000D03*
X151384200Y-35497600D03*
X122072600Y-35497600D03*
D13*
X68594000Y-54005000D03*
X68594000Y-52735000D03*
X68594000Y-51465000D03*
X68594000Y-50195000D03*
X63006000Y-50195000D03*
X63006000Y-51465000D03*
X63006000Y-52735000D03*
X63006000Y-54005000D03*
D14*
X144550000Y-64600000D03*
X146450000Y-64600000D03*
X133150000Y-45000000D03*
X131250000Y-45000000D03*
D11*
X115240000Y-38469400D03*
X115240000Y-39993400D03*
X113970000Y-38469400D03*
X113970000Y-39993400D03*
X112700000Y-38469400D03*
X112700000Y-39993400D03*
X111430000Y-38469400D03*
X111430000Y-39993400D03*
X110160000Y-38469400D03*
X110160000Y-39993400D03*
X108890000Y-38469400D03*
X108890000Y-39993400D03*
X107620000Y-38469400D03*
X107620000Y-39993400D03*
X106350000Y-38469400D03*
X106350000Y-39993400D03*
X105080000Y-38469400D03*
X105080000Y-39993400D03*
X103810000Y-38469400D03*
X103810000Y-39993400D03*
X102540000Y-38469400D03*
X102540000Y-39993400D03*
X101270000Y-38469400D03*
X101270000Y-39993400D03*
X100000000Y-38469400D03*
X100000000Y-39993400D03*
X98730000Y-38469400D03*
X98730000Y-39993400D03*
X97460000Y-38469400D03*
X97460000Y-39993400D03*
X96190000Y-38469400D03*
X96190000Y-39993400D03*
X94920000Y-38469400D03*
X94920000Y-39993400D03*
X93650000Y-38469400D03*
X93650000Y-39993400D03*
X92380000Y-38469400D03*
X92380000Y-39993400D03*
X91110000Y-38469400D03*
X91110000Y-39993400D03*
X89840000Y-38469400D03*
X89840000Y-39993400D03*
X88570000Y-38469400D03*
X88570000Y-39993400D03*
X87300000Y-38469400D03*
X87300000Y-39993400D03*
X86030000Y-38469400D03*
X86030000Y-39993400D03*
X84760000Y-38469400D03*
X84760000Y-39993400D03*
D12*
X117830800Y-33237000D03*
X82169200Y-33237000D03*
X117830800Y-35497600D03*
X82169200Y-35497600D03*
D15*
X48600000Y-59600000D03*
X48600000Y-57600000D03*
X66700000Y-75500000D03*
X66700000Y-77500000D03*
X69000000Y-75500000D03*
X69000000Y-77500000D03*
D16*
X108768400Y-63812980D03*
X108768400Y-61085020D03*
X117658400Y-63812980D03*
X117658400Y-61085020D03*
X116388400Y-63812980D03*
X116388400Y-61085020D03*
X115118400Y-63812980D03*
X115118400Y-61085020D03*
X113848400Y-63812980D03*
X113848400Y-61085020D03*
X126548400Y-61085020D03*
X126548400Y-63812980D03*
X127818400Y-61085020D03*
X127818400Y-63812980D03*
X129088400Y-61085020D03*
X129088400Y-63812980D03*
X130358400Y-61085020D03*
X130358400Y-63812980D03*
X131628400Y-61085020D03*
X131628400Y-63812980D03*
X107498400Y-61085020D03*
X107498400Y-63812980D03*
X110038400Y-61085020D03*
X110038400Y-63812980D03*
X111308400Y-61085020D03*
X111308400Y-63812980D03*
X112578400Y-61085020D03*
X112578400Y-63812980D03*
X118928400Y-61085020D03*
X118928400Y-63812980D03*
X137978400Y-63812980D03*
X137978400Y-61085020D03*
X136708400Y-63812980D03*
X136708400Y-61085020D03*
X135438400Y-63812980D03*
X135438400Y-61085020D03*
X134168400Y-63812980D03*
X134168400Y-61085020D03*
X132898400Y-63812980D03*
X132898400Y-61085020D03*
X125278400Y-63812980D03*
X125278400Y-61085020D03*
X124008400Y-63812980D03*
X124008400Y-61085020D03*
X122738400Y-63812980D03*
X122738400Y-61085020D03*
X121468400Y-63812980D03*
X121468400Y-61085020D03*
X120198400Y-63812980D03*
X120198400Y-61085020D03*
X108768400Y-77412980D03*
X108768400Y-74685020D03*
X117658400Y-77412980D03*
X117658400Y-74685020D03*
X116388400Y-77412980D03*
X116388400Y-74685020D03*
X115118400Y-77412980D03*
X115118400Y-74685020D03*
X113848400Y-77412980D03*
X113848400Y-74685020D03*
X126548400Y-74685020D03*
X126548400Y-77412980D03*
X127818400Y-74685020D03*
X127818400Y-77412980D03*
X129088400Y-74685020D03*
X129088400Y-77412980D03*
X130358400Y-74685020D03*
X130358400Y-77412980D03*
X131628400Y-74685020D03*
X131628400Y-77412980D03*
X107498400Y-74685020D03*
X107498400Y-77412980D03*
X110038400Y-74685020D03*
X110038400Y-77412980D03*
X111308400Y-74685020D03*
X111308400Y-77412980D03*
X112578400Y-74685020D03*
X112578400Y-77412980D03*
X118928400Y-74685020D03*
X118928400Y-77412980D03*
X137978400Y-77412980D03*
X137978400Y-74685020D03*
X136708400Y-77412980D03*
X136708400Y-74685020D03*
X135438400Y-77412980D03*
X135438400Y-74685020D03*
X134168400Y-77412980D03*
X134168400Y-74685020D03*
X132898400Y-77412980D03*
X132898400Y-74685020D03*
X125278400Y-77412980D03*
X125278400Y-74685020D03*
X124008400Y-77412980D03*
X124008400Y-74685020D03*
X122738400Y-77412980D03*
X122738400Y-74685020D03*
X121468400Y-77412980D03*
X121468400Y-74685020D03*
X120198400Y-77412980D03*
X120198400Y-74685020D03*
X108768400Y-91012980D03*
X108768400Y-88285020D03*
X117658400Y-91012980D03*
X117658400Y-88285020D03*
X116388400Y-91012980D03*
X116388400Y-88285020D03*
X115118400Y-91012980D03*
X115118400Y-88285020D03*
X113848400Y-91012980D03*
X113848400Y-88285020D03*
X126548400Y-88285020D03*
X126548400Y-91012980D03*
X127818400Y-88285020D03*
X127818400Y-91012980D03*
X129088400Y-88285020D03*
X129088400Y-91012980D03*
X130358400Y-88285020D03*
X130358400Y-91012980D03*
X131628400Y-88285020D03*
X131628400Y-91012980D03*
X107498400Y-88285020D03*
X107498400Y-91012980D03*
X110038400Y-88285020D03*
X110038400Y-91012980D03*
X111308400Y-88285020D03*
X111308400Y-91012980D03*
X112578400Y-88285020D03*
X112578400Y-91012980D03*
X118928400Y-88285020D03*
X118928400Y-91012980D03*
X137978400Y-91012980D03*
X137978400Y-88285020D03*
X136708400Y-91012980D03*
X136708400Y-88285020D03*
X135438400Y-91012980D03*
X135438400Y-88285020D03*
X134168400Y-91012980D03*
X134168400Y-88285020D03*
X132898400Y-91012980D03*
X132898400Y-88285020D03*
X125278400Y-91012980D03*
X125278400Y-88285020D03*
X124008400Y-91012980D03*
X124008400Y-88285020D03*
X122738400Y-91012980D03*
X122738400Y-88285020D03*
X121468400Y-91012980D03*
X121468400Y-88285020D03*
X120198400Y-91012980D03*
X120198400Y-88285020D03*
D17*
X68150000Y-48300000D03*
X66050000Y-48300000D03*
D14*
X64750000Y-48300000D03*
X62850000Y-48300000D03*
D18*
X148500000Y-68150000D03*
X148500000Y-70050000D03*
D19*
X150425000Y-74450000D03*
X151075000Y-74450000D03*
X151725000Y-74450000D03*
X152375000Y-74450000D03*
X152375000Y-68550000D03*
X151725000Y-68550000D03*
X151075000Y-68550000D03*
X150425000Y-68550000D03*
D20*
X150100000Y-77750000D03*
X150100000Y-76250000D03*
X151400000Y-77750000D03*
X151400000Y-76250000D03*
X152700000Y-77750000D03*
X152700000Y-76250000D03*
D16*
X130198400Y-47485520D03*
X130198400Y-50213480D03*
X131468400Y-47485520D03*
X131468400Y-50213480D03*
X135278400Y-50213480D03*
X135278400Y-47485520D03*
X134008400Y-50213480D03*
X134008400Y-47485520D03*
X132738400Y-50213480D03*
X132738400Y-47485520D03*
D15*
X150800000Y-66800000D03*
X150800000Y-64800000D03*
M02*
