G04 #@! TF.FileFunction,Copper,L4,Bot,Signal*
%FSLAX46Y46*%
G04 Gerber Fmt 4.6, Leading zero omitted, Abs format (unit mm)*
G04 Created by KiCad (PCBNEW 4.0.6) date 09/19/17 09:44:05*
%MOMM*%
%LPD*%
G01*
G04 APERTURE LIST*
%ADD10C,0.100000*%
%ADD11C,2.000000*%
%ADD12R,2.032000X1.727200*%
%ADD13O,2.032000X1.727200*%
%ADD14C,1.270000*%
%ADD15R,3.000000X3.000000*%
%ADD16C,3.000000*%
%ADD17C,2.032000*%
%ADD18C,4.064000*%
%ADD19C,1.750000*%
%ADD20C,0.600000*%
%ADD21C,0.250000*%
%ADD22C,0.500000*%
G04 APERTURE END LIST*
D10*
D11*
X63300000Y-78650000D03*
X63300000Y-66150000D03*
X48300000Y-78650000D03*
X48300000Y-66150000D03*
D12*
X151800000Y-57000000D03*
D13*
X151800000Y-54460000D03*
X151800000Y-51920000D03*
D14*
X77927400Y-33237000D03*
X48615800Y-33237000D03*
X77927400Y-35497600D03*
X48615800Y-35497600D03*
X151384200Y-33237000D03*
X122072600Y-33237000D03*
X151384200Y-35497600D03*
X122072600Y-35497600D03*
D15*
X58000000Y-48000000D03*
D16*
X58000000Y-53080000D03*
D14*
X117830800Y-33237000D03*
X82169200Y-33237000D03*
X117830800Y-35497600D03*
X82169200Y-35497600D03*
D17*
X71270000Y-57930000D03*
X71270000Y-55390000D03*
X71270000Y-52850000D03*
X71270000Y-50310000D03*
X71270000Y-47770000D03*
D18*
X50000000Y-44000000D03*
X150000000Y-44000000D03*
X150000000Y-84000000D03*
X68000000Y-86000000D03*
D19*
X105910900Y-62449000D03*
X139565900Y-62449000D03*
X105910900Y-76049000D03*
X139565900Y-76049000D03*
X105910900Y-89649000D03*
X139565900Y-89649000D03*
X136865900Y-48849500D03*
X128610900Y-48849500D03*
D20*
X132940000Y-58660000D03*
X115200000Y-43690000D03*
X144000000Y-56900000D03*
X144010000Y-47490000D03*
X144000000Y-73000000D03*
X144000000Y-86900000D03*
X144000000Y-60600000D03*
X112700000Y-39993400D03*
X66700000Y-75500000D03*
X136708400Y-77412980D03*
X143300000Y-48000000D03*
X136708400Y-63812980D03*
X135438400Y-63812980D03*
X134168400Y-63812980D03*
X112700000Y-38469400D03*
X110160000Y-38469400D03*
X141950000Y-50930000D03*
X117050000Y-43590000D03*
X118570000Y-43790000D03*
X141950000Y-57370000D03*
X143200000Y-91600000D03*
X120060000Y-43410000D03*
X69000000Y-75500000D03*
X145500000Y-52600000D03*
X120800000Y-42800000D03*
X110160000Y-39993400D03*
X111430000Y-38469400D03*
X142610000Y-56320000D03*
X142610000Y-50210000D03*
X142600000Y-77400000D03*
X142600000Y-63800000D03*
X142500000Y-91000000D03*
X150800000Y-66800000D03*
X150700000Y-62100000D03*
X141180000Y-74020000D03*
X141210000Y-87800000D03*
X139500000Y-52500000D03*
X146890000Y-53380000D03*
X147400000Y-61400000D03*
X146000000Y-45000000D03*
X119800000Y-41800000D03*
X111430000Y-39993400D03*
X73300000Y-57900000D03*
X73300000Y-58600000D03*
X73300000Y-57100000D03*
X141200000Y-53300000D03*
X141210000Y-56910000D03*
X113970000Y-38469400D03*
X72796600Y-39866400D03*
X129088400Y-88285020D03*
X74066600Y-39866400D03*
X130358400Y-88285020D03*
X131630000Y-88320000D03*
X75336600Y-39866400D03*
X62636600Y-39866400D03*
X118928400Y-88285020D03*
X63906600Y-39866400D03*
X120198400Y-88285020D03*
X66446600Y-39866400D03*
X122738400Y-88285020D03*
X65176600Y-39866400D03*
X121468400Y-88285020D03*
X126548400Y-88285020D03*
X70256600Y-39866400D03*
X71526600Y-39866400D03*
X127818400Y-88285020D03*
X68986600Y-39866400D03*
X125278400Y-88285020D03*
X67716600Y-39866400D03*
X124008400Y-88285020D03*
X94140000Y-53220000D03*
X89090000Y-58300000D03*
X113848400Y-88285020D03*
X57556600Y-39866400D03*
X58826600Y-39866400D03*
X115118400Y-88285020D03*
X61366600Y-39866400D03*
X117658400Y-88285020D03*
X60096600Y-39866400D03*
X116388400Y-88285020D03*
X94140000Y-51420000D03*
X87810000Y-59350000D03*
X111308400Y-88285020D03*
X55016600Y-39866400D03*
X88450000Y-58830000D03*
X112578400Y-88285020D03*
X94140000Y-52320000D03*
X56286600Y-39866400D03*
X94140000Y-50530000D03*
X54380000Y-37010000D03*
X53746600Y-39866400D03*
X87170000Y-59850000D03*
X110038400Y-88285020D03*
X87580000Y-44790000D03*
X146450000Y-64600000D03*
X146600000Y-58200000D03*
X146500000Y-71600000D03*
X146500000Y-85400000D03*
X71526600Y-38342400D03*
X127818400Y-91012980D03*
X72796600Y-38342400D03*
X129088400Y-91012980D03*
X75336600Y-38342400D03*
X131630000Y-90950000D03*
X74066600Y-38342400D03*
X130358400Y-91012980D03*
X61366600Y-38342400D03*
X117658400Y-91012980D03*
X62636600Y-38342400D03*
X118928400Y-91012980D03*
X65176600Y-38342400D03*
X121468400Y-91012980D03*
X63906600Y-38342400D03*
X120198400Y-91012980D03*
X110038400Y-91012980D03*
X75270000Y-48180000D03*
X53746600Y-38342400D03*
X54380000Y-40930000D03*
X111308400Y-91012980D03*
X75120000Y-47390000D03*
X55016600Y-38342400D03*
X55670000Y-41050000D03*
X108768400Y-91012980D03*
X53510000Y-40970000D03*
X75420000Y-48980000D03*
X52476600Y-38342400D03*
X107498400Y-91012980D03*
X52170000Y-41000000D03*
X75590000Y-49770000D03*
X51206600Y-38342400D03*
X112578400Y-91012980D03*
X56920000Y-41140000D03*
X74970000Y-46600000D03*
X56286600Y-38342400D03*
X57556600Y-38342400D03*
X113848400Y-91012980D03*
X60096600Y-38342400D03*
X116388400Y-91012980D03*
X58826600Y-38342400D03*
X115118400Y-91012980D03*
X94140000Y-48730000D03*
X51850000Y-37290000D03*
X86310000Y-43530000D03*
X51206600Y-39866400D03*
X85900000Y-60880000D03*
X107498400Y-88285020D03*
X86540000Y-60380000D03*
X94140000Y-49630000D03*
X108768400Y-88285020D03*
X52476600Y-39866400D03*
X87010000Y-44160000D03*
X53120000Y-37230000D03*
X66446600Y-38342400D03*
X122738400Y-91012980D03*
X67716600Y-38342400D03*
X124008400Y-91012980D03*
X70256600Y-38342400D03*
X126548400Y-91012980D03*
X68986600Y-38342400D03*
X125278400Y-91012980D03*
X102540000Y-39993400D03*
X125278400Y-74685020D03*
X103810000Y-39993400D03*
X126548400Y-74685020D03*
X106350000Y-39993400D03*
X129088400Y-74685020D03*
X105080000Y-39993400D03*
X127818400Y-74685020D03*
X131628400Y-74685020D03*
X108890000Y-39993400D03*
X107620000Y-39993400D03*
X130358400Y-74685020D03*
X125278400Y-77412980D03*
X102540000Y-38469400D03*
X103810000Y-38469400D03*
X126548400Y-77412980D03*
X106350000Y-38469400D03*
X129088400Y-77412980D03*
X105080000Y-38469400D03*
X127818400Y-77412980D03*
X131628400Y-77412980D03*
X108890000Y-38469400D03*
X107620000Y-38469400D03*
X130358400Y-77412980D03*
X97460000Y-38469400D03*
X120198400Y-77412980D03*
X98730000Y-38469400D03*
X121468400Y-77412980D03*
X124008400Y-77412980D03*
X101270000Y-38469400D03*
X100000000Y-38469400D03*
X122738400Y-77412980D03*
X97460000Y-39993400D03*
X120198400Y-74685020D03*
X98730000Y-39993400D03*
X121468400Y-74685020D03*
X101270000Y-39993400D03*
X124008400Y-74685020D03*
X100000000Y-39993400D03*
X122738400Y-74685020D03*
X94920000Y-39993400D03*
X117658400Y-74685020D03*
X96190000Y-39993400D03*
X118928400Y-74685020D03*
X87300000Y-39993400D03*
X110038400Y-74685020D03*
X88570000Y-39993400D03*
X111308400Y-74685020D03*
X108768400Y-74685020D03*
X86030000Y-39993400D03*
X112578400Y-74685020D03*
X89840000Y-39993400D03*
X91110000Y-39993400D03*
X113848400Y-74685020D03*
X93650000Y-39993400D03*
X116388400Y-74685020D03*
X115118400Y-74685020D03*
X92380000Y-39993400D03*
X94920000Y-38469400D03*
X117658400Y-77412980D03*
X96190000Y-38469400D03*
X118928400Y-77412980D03*
X87300000Y-38469400D03*
X110038400Y-77412980D03*
X88570000Y-38469400D03*
X111308400Y-77412980D03*
X86030000Y-38469400D03*
X108768400Y-77412980D03*
X84760000Y-38469400D03*
X107498400Y-77412980D03*
X89840000Y-38469400D03*
X112578400Y-77412980D03*
X91110000Y-38469400D03*
X113848400Y-77412980D03*
X116388400Y-77412980D03*
X93650000Y-38469400D03*
X92380000Y-38469400D03*
X115118400Y-77412980D03*
X107498400Y-74685020D03*
X84760000Y-39993400D03*
X142443400Y-39866400D03*
X125278400Y-61085020D03*
X126548400Y-61085020D03*
X143713400Y-39866400D03*
X129088400Y-61085020D03*
X146253400Y-39866400D03*
X144983400Y-39866400D03*
X127818400Y-61085020D03*
X131628400Y-61085020D03*
X148793400Y-39866400D03*
X147523400Y-39866400D03*
X130358400Y-61085020D03*
X142443400Y-38342400D03*
X125278400Y-63812980D03*
X143713400Y-38342400D03*
X126548400Y-63812980D03*
X146253400Y-38342400D03*
X129100000Y-63780000D03*
X144983400Y-38342400D03*
X127818400Y-63812980D03*
X131628400Y-63812980D03*
X149500000Y-38600000D03*
X130358400Y-63812980D03*
X147550000Y-38325000D03*
X120198400Y-63812980D03*
X137363400Y-38342400D03*
X138633400Y-38342400D03*
X121468400Y-63812980D03*
X141173400Y-38342400D03*
X124008400Y-63812980D03*
X139903400Y-38342400D03*
X122740000Y-63810000D03*
X120198400Y-61085020D03*
X137363400Y-39866400D03*
X138633400Y-39866400D03*
X121468400Y-61085020D03*
X141173400Y-39866400D03*
X124008400Y-61085020D03*
X139903400Y-39866400D03*
X122738400Y-61085020D03*
X117658400Y-61085020D03*
X134823400Y-39866400D03*
X136093400Y-39866400D03*
X118928400Y-61085020D03*
X110038400Y-61085020D03*
X127203400Y-39866400D03*
X111308400Y-61085020D03*
X128473400Y-39866400D03*
X108768400Y-61085020D03*
X125933400Y-39866400D03*
X112578400Y-61085020D03*
X129743400Y-39866400D03*
X113848400Y-61085020D03*
X131013400Y-39866400D03*
X116388400Y-61085020D03*
X133553400Y-39866400D03*
X115118400Y-61085020D03*
X132283400Y-39866400D03*
X117658400Y-63812980D03*
X134823400Y-38342400D03*
X136093400Y-38342400D03*
X118928400Y-63812980D03*
X127203400Y-38342400D03*
X110038400Y-63812980D03*
X128473400Y-38342400D03*
X111308400Y-63812980D03*
X125933400Y-38342400D03*
X108768400Y-63812980D03*
X107498400Y-63812980D03*
X124663400Y-38342400D03*
X129743400Y-38342400D03*
X112578400Y-63812980D03*
X113848400Y-63812980D03*
X131013400Y-38342400D03*
X133553400Y-38342400D03*
X116388400Y-63812980D03*
X115118400Y-63812980D03*
X132283400Y-38342400D03*
X107498400Y-61085020D03*
X124663400Y-39866400D03*
X113970000Y-39993400D03*
X119000000Y-41000000D03*
X135000000Y-41300000D03*
X132200000Y-44100000D03*
X147300000Y-85600000D03*
X147300000Y-72100000D03*
X149700000Y-59100000D03*
X145400000Y-54700000D03*
X145700000Y-79700000D03*
X145700000Y-66200000D03*
X145600000Y-93600000D03*
X62850000Y-48300000D03*
X69000000Y-77500000D03*
X66700000Y-77500000D03*
X48600000Y-57600000D03*
X48300000Y-46100000D03*
X51700000Y-46100000D03*
X52500000Y-45000000D03*
X47100000Y-44700000D03*
X115240000Y-38469400D03*
X115240000Y-39993400D03*
D21*
X115290000Y-43600000D02*
X115200000Y-43690000D01*
X144000000Y-60600000D02*
X144000000Y-56900000D01*
X144000000Y-56900000D02*
X144000000Y-47500000D01*
X144000000Y-47500000D02*
X144010000Y-47490000D01*
X144000000Y-86900000D02*
X144000000Y-73000000D01*
X144000000Y-73000000D02*
X144000000Y-60600000D01*
X112700000Y-39990000D02*
X112700000Y-39993400D01*
X136700000Y-77404580D02*
X136700000Y-77400000D01*
X136708400Y-77412980D02*
X136700000Y-77404580D01*
X144210000Y-46800000D02*
X143810000Y-46800000D01*
X144700000Y-47290000D02*
X144210000Y-46800000D01*
X143810000Y-46800000D02*
X143290000Y-47320000D01*
X143290000Y-47320000D02*
X143290000Y-48000000D01*
X143300000Y-48000000D02*
X143290000Y-48000000D01*
X143290000Y-48000000D02*
X143300000Y-48000000D01*
X143300000Y-48000000D02*
X143290000Y-48000000D01*
X143300000Y-49970000D02*
X142770000Y-49440000D01*
X142770000Y-49440000D02*
X142420000Y-49440000D01*
X142420000Y-49440000D02*
X141950000Y-49910000D01*
X143290000Y-49960000D02*
X143300000Y-49970000D01*
X143290000Y-48000000D02*
X143290000Y-49960000D01*
X136700000Y-63800000D02*
X136700000Y-63804580D01*
X136700000Y-63804580D02*
X136708400Y-63812980D01*
X135400000Y-63800000D02*
X135425420Y-63800000D01*
X135425420Y-63800000D02*
X135438400Y-63812980D01*
X134181380Y-63800000D02*
X134200000Y-63800000D01*
X134168400Y-63812980D02*
X134181380Y-63800000D01*
X143300000Y-88700000D02*
X143300000Y-49970000D01*
X112700000Y-38469400D02*
X112700000Y-38480000D01*
X112700600Y-38470000D02*
X112700000Y-38469400D01*
X112710000Y-38470000D02*
X112700600Y-38470000D01*
X110160000Y-38469400D02*
X110199400Y-38469400D01*
X110160000Y-38470000D02*
X110160000Y-38469400D01*
X141950000Y-50930000D02*
X141950000Y-57370000D01*
X141950000Y-49910000D02*
X141950000Y-50930000D01*
X144700000Y-87300000D02*
X143300000Y-88700000D01*
X144700000Y-87300000D02*
X144700000Y-47290000D01*
X143300000Y-91500000D02*
X143300000Y-88700000D01*
X141950000Y-57370000D02*
X141950000Y-90650000D01*
X141950000Y-90650000D02*
X141800000Y-90800000D01*
X141800000Y-90800000D02*
X141800000Y-91200000D01*
X141800000Y-91200000D02*
X142300000Y-91700000D01*
X142300000Y-91700000D02*
X143100000Y-91700000D01*
X143100000Y-91700000D02*
X143200000Y-91600000D01*
X143200000Y-91600000D02*
X143300000Y-91500000D01*
D22*
X110160000Y-40260000D02*
X112450000Y-42550000D01*
X120600000Y-42800000D02*
X120370000Y-42570000D01*
X120370000Y-42570000D02*
X112450000Y-42570000D01*
X112450000Y-42570000D02*
X112450000Y-42550000D01*
X120800000Y-42800000D02*
X120600000Y-42800000D01*
D21*
X110160000Y-39993400D02*
X110160000Y-39990000D01*
D22*
X110160000Y-39993400D02*
X110160000Y-40260000D01*
D21*
X111430000Y-38469400D02*
X111439400Y-38469400D01*
X111430000Y-38470000D02*
X111430000Y-38469400D01*
X142600000Y-56330000D02*
X142600000Y-56420000D01*
X142610000Y-56320000D02*
X142600000Y-56330000D01*
X142600000Y-63800000D02*
X142600000Y-56420000D01*
X142600000Y-56420000D02*
X142600000Y-50220000D01*
X142600000Y-50220000D02*
X142610000Y-50210000D01*
X142600000Y-63800000D02*
X142600000Y-77400000D01*
X142600000Y-77400000D02*
X142600000Y-90900000D01*
X142600000Y-90900000D02*
X142500000Y-91000000D01*
X150800000Y-62200000D02*
X150800000Y-66800000D01*
X150700000Y-62100000D02*
X150800000Y-62200000D01*
D22*
X146890000Y-53380000D02*
X146900000Y-53380000D01*
X146900000Y-53380000D02*
X146890000Y-53380000D01*
X146890000Y-53380000D02*
X146900000Y-53380000D01*
X147400000Y-61400000D02*
X147500000Y-61300000D01*
X147500000Y-61300000D02*
X147500000Y-57900000D01*
X147500000Y-57900000D02*
X146900000Y-57300000D01*
X146900000Y-57300000D02*
X146900000Y-53380000D01*
X146900000Y-53380000D02*
X146900000Y-45900000D01*
X146900000Y-45900000D02*
X146000000Y-45000000D01*
X119800000Y-41800000D02*
X113100000Y-41800000D01*
X113100000Y-41800000D02*
X111430000Y-40130000D01*
X111430000Y-40130000D02*
X111430000Y-39993400D01*
X111423400Y-40000000D02*
X111400000Y-40000000D01*
X111423400Y-40000000D02*
X111430000Y-39993400D01*
D21*
X141200000Y-53300000D02*
X141200000Y-56900000D01*
X141200000Y-56900000D02*
X141210000Y-56910000D01*
X72800000Y-39869800D02*
X72796600Y-39866400D01*
X72800000Y-39870000D02*
X72800000Y-39869800D01*
X129083380Y-88280000D02*
X129088400Y-88285020D01*
X129083380Y-88280000D02*
X129080000Y-88280000D01*
X74070000Y-39869800D02*
X74066600Y-39866400D01*
X74070000Y-39870000D02*
X74070000Y-39869800D01*
X130353380Y-88280000D02*
X130358400Y-88285020D01*
X130353380Y-88280000D02*
X130340000Y-88280000D01*
X75333000Y-39870000D02*
X75330000Y-39870000D01*
X75333000Y-39870000D02*
X75336600Y-39866400D01*
X62640000Y-39869800D02*
X62636600Y-39866400D01*
X62640000Y-39870000D02*
X62640000Y-39869800D01*
X118923380Y-88280000D02*
X118928400Y-88285020D01*
X118923380Y-88280000D02*
X118910000Y-88280000D01*
X63903000Y-39870000D02*
X63906600Y-39866400D01*
X63900000Y-39870000D02*
X63903000Y-39870000D01*
X120203420Y-88280000D02*
X120198400Y-88285020D01*
X120203420Y-88280000D02*
X120210000Y-88280000D01*
X66450000Y-39869800D02*
X66446600Y-39866400D01*
X66450000Y-39870000D02*
X66450000Y-39869800D01*
X122733380Y-88280000D02*
X122738400Y-88285020D01*
X122733380Y-88280000D02*
X122720000Y-88280000D01*
X65180000Y-39869800D02*
X65176600Y-39866400D01*
X65180000Y-39870000D02*
X65180000Y-39869800D01*
X121463380Y-88280000D02*
X121468400Y-88285020D01*
X121463380Y-88280000D02*
X121460000Y-88280000D01*
X126530000Y-88280000D02*
X126543380Y-88280000D01*
X126543380Y-88280000D02*
X126548400Y-88285020D01*
X70260000Y-39869800D02*
X70260000Y-39870000D01*
X70260000Y-39869800D02*
X70256600Y-39866400D01*
X71523000Y-39870000D02*
X71526600Y-39866400D01*
X71520000Y-39870000D02*
X71523000Y-39870000D01*
X127823420Y-88280000D02*
X127818400Y-88285020D01*
X127823420Y-88280000D02*
X127830000Y-88280000D01*
X68990000Y-39869800D02*
X68986600Y-39866400D01*
X68990000Y-39870000D02*
X68990000Y-39869800D01*
X125273380Y-88280000D02*
X125278400Y-88285020D01*
X125273380Y-88280000D02*
X125270000Y-88280000D01*
X67713000Y-39870000D02*
X67716600Y-39866400D01*
X67710000Y-39870000D02*
X67713000Y-39870000D01*
X124013420Y-88280000D02*
X124008400Y-88285020D01*
X124013420Y-88280000D02*
X124020000Y-88280000D01*
X89090000Y-58300000D02*
X89090000Y-58270000D01*
X89090000Y-58270000D02*
X94140000Y-53220000D01*
X113843380Y-88280000D02*
X113848400Y-88285020D01*
X113840000Y-88280000D02*
X113843380Y-88280000D01*
X89130000Y-58260000D02*
X89090000Y-58300000D01*
X57560000Y-39869800D02*
X57556600Y-39866400D01*
X57560000Y-39870000D02*
X57560000Y-39869800D01*
X58830000Y-39869800D02*
X58826600Y-39866400D01*
X58830000Y-39870000D02*
X58830000Y-39869800D01*
X115113380Y-88280000D02*
X115118400Y-88285020D01*
X115113380Y-88280000D02*
X115100000Y-88280000D01*
X61370000Y-39869800D02*
X61366600Y-39866400D01*
X61370000Y-39870000D02*
X61370000Y-39869800D01*
X117653380Y-88280000D02*
X117658400Y-88285020D01*
X117653380Y-88280000D02*
X117650000Y-88280000D01*
X60093000Y-39870000D02*
X60096600Y-39866400D01*
X60090000Y-39870000D02*
X60093000Y-39870000D01*
X116393420Y-88280000D02*
X116388400Y-88285020D01*
X116393420Y-88280000D02*
X116400000Y-88280000D01*
X87810000Y-57750000D02*
X94140000Y-51420000D01*
X87810000Y-59350000D02*
X87810000Y-57750000D01*
X111290000Y-88280000D02*
X111303380Y-88280000D01*
X111303380Y-88280000D02*
X111308400Y-88285020D01*
X55013000Y-39870000D02*
X55010000Y-39870000D01*
X55013000Y-39870000D02*
X55016600Y-39866400D01*
X112590000Y-88280000D02*
X112583420Y-88280000D01*
X112583420Y-88280000D02*
X112578400Y-88285020D01*
X88450000Y-58010000D02*
X88450000Y-58830000D01*
X88450000Y-58010000D02*
X94140000Y-52320000D01*
X56283000Y-39870000D02*
X56286600Y-39866400D01*
X56283000Y-39870000D02*
X56280000Y-39870000D01*
X87170000Y-57500000D02*
X94140000Y-50530000D01*
X53740000Y-39870000D02*
X53743000Y-39870000D01*
X53743000Y-39870000D02*
X53746600Y-39866400D01*
X87170000Y-59850000D02*
X87170000Y-57500000D01*
X110033380Y-88280000D02*
X110030000Y-88280000D01*
X110033380Y-88280000D02*
X110038400Y-88285020D01*
D22*
X146450000Y-64600000D02*
X146500000Y-64600000D01*
X146600000Y-58200000D02*
X146500000Y-58300000D01*
X146500000Y-58300000D02*
X146500000Y-64600000D01*
X146500000Y-64600000D02*
X146500000Y-71600000D01*
X146500000Y-71600000D02*
X146500000Y-85400000D01*
D21*
X71526600Y-38342400D02*
X71692400Y-38342400D01*
X71524200Y-38340000D02*
X71526600Y-38342400D01*
X71520000Y-38340000D02*
X71524200Y-38340000D01*
X127190000Y-90384580D02*
X127818400Y-91012980D01*
X127190000Y-87660000D02*
X127190000Y-90384580D01*
X119390006Y-79860006D02*
X127190000Y-87660000D01*
X101870812Y-79860006D02*
X119390006Y-79860006D01*
X83889994Y-61879188D02*
X101870812Y-79860006D01*
X83889994Y-47629188D02*
X83889994Y-61879188D01*
X77230808Y-40970002D02*
X83889994Y-47629188D01*
X72520002Y-40970002D02*
X77230808Y-40970002D01*
X72160000Y-40610000D02*
X72520002Y-40970002D01*
X72160000Y-38810000D02*
X72160000Y-40610000D01*
X71692400Y-38342400D02*
X72160000Y-38810000D01*
X72796600Y-38342400D02*
X73142400Y-38342400D01*
X72799000Y-38340000D02*
X72796600Y-38342400D01*
X72800000Y-38340000D02*
X72799000Y-38340000D01*
X128450000Y-90374580D02*
X129088400Y-91012980D01*
X128450000Y-87650000D02*
X128450000Y-90374580D01*
X120210004Y-79410004D02*
X128450000Y-87650000D01*
X102057208Y-79410004D02*
X120210004Y-79410004D01*
X84339996Y-61692792D02*
X102057208Y-79410004D01*
X84339996Y-47442792D02*
X84339996Y-61692792D01*
X77417204Y-40520000D02*
X84339996Y-47442792D01*
X75090000Y-40520000D02*
X77417204Y-40520000D01*
X74700000Y-40130000D02*
X75090000Y-40520000D01*
X74700000Y-39500000D02*
X74700000Y-40130000D01*
X74400000Y-39200000D02*
X74700000Y-39500000D01*
X74000000Y-39200000D02*
X74400000Y-39200000D01*
X73142400Y-38342400D02*
X74000000Y-39200000D01*
X75336600Y-38342400D02*
X76512400Y-38342400D01*
X75334200Y-38340000D02*
X75336600Y-38342400D01*
X75330000Y-38340000D02*
X75334200Y-38340000D01*
X130990000Y-90310000D02*
X131630000Y-90950000D01*
X130990000Y-87660000D02*
X130990000Y-90310000D01*
X121840000Y-78510000D02*
X130990000Y-87660000D01*
X102430000Y-78510000D02*
X121840000Y-78510000D01*
X85240000Y-61320000D02*
X102430000Y-78510000D01*
X85240000Y-47070000D02*
X85240000Y-61320000D01*
X76512400Y-38342400D02*
X85240000Y-47070000D01*
X74066600Y-38342400D02*
X74352400Y-38342400D01*
X74069000Y-38340000D02*
X74066600Y-38342400D01*
X74070000Y-38340000D02*
X74069000Y-38340000D01*
X129720000Y-90374580D02*
X130358400Y-91012980D01*
X129720000Y-87660000D02*
X129720000Y-90374580D01*
X121020002Y-78960002D02*
X129720000Y-87660000D01*
X102243604Y-78960002D02*
X121020002Y-78960002D01*
X84789998Y-61506396D02*
X102243604Y-78960002D01*
X84789998Y-47256396D02*
X84789998Y-61506396D01*
X76563602Y-39030000D02*
X84789998Y-47256396D01*
X75040000Y-39030000D02*
X76563602Y-39030000D01*
X74352400Y-38342400D02*
X75040000Y-39030000D01*
X61366600Y-38342400D02*
X61452400Y-38342400D01*
X61369000Y-38340000D02*
X61366600Y-38342400D01*
X61370000Y-38340000D02*
X61369000Y-38340000D01*
X117020000Y-90374580D02*
X117658400Y-91012980D01*
X117020000Y-87640000D02*
X117020000Y-90374580D01*
X112840022Y-83460022D02*
X117020000Y-87640000D01*
X100379644Y-83460022D02*
X112840022Y-83460022D01*
X80289978Y-63370356D02*
X100379644Y-83460022D01*
X80289978Y-49120356D02*
X80289978Y-63370356D01*
X75739640Y-44570018D02*
X80289978Y-49120356D01*
X66170018Y-44570018D02*
X75739640Y-44570018D01*
X62000000Y-40400000D02*
X66170018Y-44570018D01*
X62000000Y-38890000D02*
X62000000Y-40400000D01*
X61452400Y-38342400D02*
X62000000Y-38890000D01*
X62636600Y-38342400D02*
X62662400Y-38342400D01*
X62639000Y-38340000D02*
X62636600Y-38342400D01*
X62640000Y-38340000D02*
X62639000Y-38340000D01*
X118290000Y-90374580D02*
X118928400Y-91012980D01*
X118290000Y-87650000D02*
X118290000Y-90374580D01*
X113650020Y-83010020D02*
X118290000Y-87650000D01*
X100566040Y-83010020D02*
X113650020Y-83010020D01*
X80739980Y-63183960D02*
X100566040Y-83010020D01*
X80739980Y-48933960D02*
X80739980Y-63183960D01*
X75926036Y-44120016D02*
X80739980Y-48933960D01*
X67060016Y-44120016D02*
X75926036Y-44120016D01*
X63270000Y-40330000D02*
X67060016Y-44120016D01*
X63270000Y-38950000D02*
X63270000Y-40330000D01*
X62662400Y-38342400D02*
X63270000Y-38950000D01*
X65176600Y-38342400D02*
X65452400Y-38342400D01*
X65179000Y-38340000D02*
X65176600Y-38342400D01*
X65180000Y-38340000D02*
X65179000Y-38340000D01*
X120830000Y-90374580D02*
X121468400Y-91012980D01*
X120830000Y-87650000D02*
X120830000Y-90374580D01*
X115290016Y-82110016D02*
X120830000Y-87650000D01*
X100938832Y-82110016D02*
X115290016Y-82110016D01*
X81639984Y-62811168D02*
X100938832Y-82110016D01*
X81639984Y-48561168D02*
X81639984Y-62811168D01*
X76298828Y-43220012D02*
X81639984Y-48561168D01*
X68770012Y-43220012D02*
X76298828Y-43220012D01*
X65810000Y-40260000D02*
X68770012Y-43220012D01*
X65810000Y-38700000D02*
X65810000Y-40260000D01*
X65452400Y-38342400D02*
X65810000Y-38700000D01*
X63906600Y-38342400D02*
X63942400Y-38342400D01*
X63904200Y-38340000D02*
X63906600Y-38342400D01*
X63900000Y-38340000D02*
X63904200Y-38340000D01*
X119560000Y-90374580D02*
X120198400Y-91012980D01*
X119560000Y-87640000D02*
X119560000Y-90374580D01*
X114480018Y-82560018D02*
X119560000Y-87640000D01*
X100752436Y-82560018D02*
X114480018Y-82560018D01*
X81189982Y-62997564D02*
X100752436Y-82560018D01*
X81189982Y-48747564D02*
X81189982Y-62997564D01*
X76112432Y-43670014D02*
X81189982Y-48747564D01*
X67810014Y-43670014D02*
X76112432Y-43670014D01*
X64540000Y-40400000D02*
X67810014Y-43670014D01*
X64540000Y-38940000D02*
X64540000Y-40400000D01*
X63942400Y-38342400D02*
X64540000Y-38940000D01*
X75270000Y-48180000D02*
X75531234Y-48180000D01*
X53746600Y-38342400D02*
X53746600Y-38416600D01*
X53740000Y-38349000D02*
X53746600Y-38342400D01*
X53740000Y-38349000D02*
X53740000Y-38350000D01*
X54380000Y-39050000D02*
X54380000Y-40930000D01*
X53746600Y-38416600D02*
X54380000Y-39050000D01*
X109400000Y-90374580D02*
X110038400Y-91012980D01*
X109400000Y-87650000D02*
X109400000Y-90374580D01*
X108030002Y-86280002D02*
X109400000Y-87650000D01*
X99381236Y-86280002D02*
X108030002Y-86280002D01*
X77589966Y-64488732D02*
X99381236Y-86280002D01*
X77589966Y-50238732D02*
X77589966Y-64488732D01*
X75531234Y-48180000D02*
X77589966Y-50238732D01*
X75120000Y-47390000D02*
X75377632Y-47390000D01*
X55016600Y-38342400D02*
X55042400Y-38342400D01*
X55010000Y-38349000D02*
X55010000Y-38350000D01*
X55010000Y-38349000D02*
X55016600Y-38342400D01*
X55650000Y-41030000D02*
X55670000Y-41050000D01*
X55650000Y-38950000D02*
X55650000Y-41030000D01*
X55042400Y-38342400D02*
X55650000Y-38950000D01*
X110680000Y-90384580D02*
X111308400Y-91012980D01*
X110680000Y-87660000D02*
X110680000Y-90384580D01*
X108850000Y-85830000D02*
X110680000Y-87660000D01*
X99567632Y-85830000D02*
X108850000Y-85830000D01*
X78039968Y-64302336D02*
X99567632Y-85830000D01*
X78039968Y-50052336D02*
X78039968Y-64302336D01*
X75377632Y-47390000D02*
X78039968Y-50052336D01*
X75420000Y-48980000D02*
X75694836Y-48980000D01*
X52732400Y-38342400D02*
X53110000Y-38720000D01*
X53110000Y-38720000D02*
X53110000Y-40570000D01*
X53110000Y-40570000D02*
X53510000Y-40970000D01*
X52480000Y-38345800D02*
X52480000Y-38350000D01*
X52480000Y-38345800D02*
X52476600Y-38342400D01*
X52476600Y-38342400D02*
X52732400Y-38342400D01*
X108130000Y-90374580D02*
X108768400Y-91012980D01*
X108130000Y-87900000D02*
X108130000Y-90374580D01*
X106960004Y-86730004D02*
X108130000Y-87900000D01*
X99194840Y-86730004D02*
X106960004Y-86730004D01*
X77139964Y-64675128D02*
X99194840Y-86730004D01*
X77139964Y-50425128D02*
X77139964Y-64675128D01*
X75694836Y-48980000D02*
X77139964Y-50425128D01*
X107498400Y-91012980D02*
X107498400Y-89318400D01*
X105360006Y-87180006D02*
X99008444Y-87180006D01*
X107498400Y-89318400D02*
X105360006Y-87180006D01*
X99008444Y-87180006D02*
X98994219Y-87165781D01*
X75590000Y-49770000D02*
X75848438Y-49770000D01*
X51402400Y-38342400D02*
X51840000Y-38780000D01*
X51840000Y-38780000D02*
X51840000Y-40670000D01*
X51840000Y-40670000D02*
X52170000Y-41000000D01*
X51210000Y-38345800D02*
X51210000Y-38350000D01*
X51210000Y-38345800D02*
X51206600Y-38342400D01*
X51206600Y-38342400D02*
X51402400Y-38342400D01*
X76689962Y-64861524D02*
X98994219Y-87165781D01*
X98994219Y-87165781D02*
X99008444Y-87180006D01*
X76689962Y-50611524D02*
X76689962Y-64861524D01*
X75848438Y-49770000D02*
X76689962Y-50611524D01*
X74970000Y-46600000D02*
X75224030Y-46600000D01*
X56286600Y-38576600D02*
X56920000Y-39210000D01*
X56920000Y-39210000D02*
X56920000Y-41140000D01*
X56286600Y-38576600D02*
X56286600Y-38342400D01*
X111940000Y-90374580D02*
X112578400Y-91012980D01*
X111940000Y-87650000D02*
X111940000Y-90374580D01*
X109550030Y-85260030D02*
X111940000Y-87650000D01*
X99634060Y-85260030D02*
X109550030Y-85260030D01*
X78489970Y-64115940D02*
X99634060Y-85260030D01*
X78489970Y-49865940D02*
X78489970Y-64115940D01*
X75224030Y-46600000D02*
X78489970Y-49865940D01*
X56286600Y-38342400D02*
X56487600Y-38342400D01*
X56280000Y-38349000D02*
X56286600Y-38342400D01*
X56280000Y-38349000D02*
X56280000Y-38350000D01*
X57556600Y-38342400D02*
X57556600Y-38506600D01*
X57559000Y-38340000D02*
X57556600Y-38342400D01*
X57560000Y-38340000D02*
X57559000Y-38340000D01*
X113210000Y-90374580D02*
X113848400Y-91012980D01*
X113210000Y-87640000D02*
X113210000Y-90374580D01*
X110380028Y-84810028D02*
X113210000Y-87640000D01*
X99820456Y-84810028D02*
X110380028Y-84810028D01*
X78939972Y-63929544D02*
X99820456Y-84810028D01*
X78939972Y-49679544D02*
X78939972Y-63929544D01*
X75180452Y-45920024D02*
X78939972Y-49679544D01*
X63570024Y-45920024D02*
X75180452Y-45920024D01*
X58190000Y-40540000D02*
X63570024Y-45920024D01*
X58190000Y-39140000D02*
X58190000Y-40540000D01*
X57556600Y-38506600D02*
X58190000Y-39140000D01*
X60096600Y-38342400D02*
X60142400Y-38342400D01*
X60094200Y-38340000D02*
X60096600Y-38342400D01*
X60090000Y-38340000D02*
X60094200Y-38340000D01*
X115760000Y-90384580D02*
X116388400Y-91012980D01*
X115760000Y-87670000D02*
X115760000Y-90384580D01*
X112000024Y-83910024D02*
X115760000Y-87670000D01*
X100193248Y-83910024D02*
X112000024Y-83910024D01*
X79839976Y-63556752D02*
X100193248Y-83910024D01*
X79839976Y-49306752D02*
X79839976Y-63556752D01*
X75553244Y-45020020D02*
X79839976Y-49306752D01*
X65080020Y-45020020D02*
X75553244Y-45020020D01*
X60740000Y-40680000D02*
X65080020Y-45020020D01*
X60740000Y-38940000D02*
X60740000Y-40680000D01*
X60142400Y-38342400D02*
X60740000Y-38940000D01*
X58826600Y-38342400D02*
X58826600Y-38406600D01*
X58829000Y-38340000D02*
X58826600Y-38342400D01*
X58830000Y-38340000D02*
X58829000Y-38340000D01*
X114480000Y-90374580D02*
X115118400Y-91012980D01*
X114480000Y-87640000D02*
X114480000Y-90374580D01*
X111200026Y-84360026D02*
X114480000Y-87640000D01*
X100006852Y-84360026D02*
X111200026Y-84360026D01*
X79389974Y-63743148D02*
X100006852Y-84360026D01*
X79389974Y-49493148D02*
X79389974Y-63743148D01*
X75366848Y-45470022D02*
X79389974Y-49493148D01*
X64170022Y-45470022D02*
X75366848Y-45470022D01*
X59460000Y-40760000D02*
X64170022Y-45470022D01*
X59460000Y-39040000D02*
X59460000Y-40760000D01*
X58826600Y-38406600D02*
X59460000Y-39040000D01*
X85900000Y-56970000D02*
X94140000Y-48730000D01*
X51210000Y-39870000D02*
X51210000Y-39869800D01*
X51210000Y-39869800D02*
X51206600Y-39866400D01*
X85900000Y-60880000D02*
X85900000Y-56970000D01*
X107493380Y-88280000D02*
X107480000Y-88280000D01*
X107493380Y-88280000D02*
X107498400Y-88285020D01*
X86540000Y-60380000D02*
X86540000Y-57230000D01*
X86540000Y-57230000D02*
X94140000Y-49630000D01*
X108780000Y-88280000D02*
X108773420Y-88280000D01*
X108773420Y-88280000D02*
X108768400Y-88285020D01*
X52473000Y-39870000D02*
X52476600Y-39866400D01*
X52460000Y-39870000D02*
X52473000Y-39870000D01*
X66446600Y-38342400D02*
X66522400Y-38342400D01*
X66449000Y-38340000D02*
X66446600Y-38342400D01*
X66450000Y-38340000D02*
X66449000Y-38340000D01*
X122110000Y-90384580D02*
X122738400Y-91012980D01*
X122110000Y-87660000D02*
X122110000Y-90384580D01*
X116110014Y-81660014D02*
X122110000Y-87660000D01*
X101125228Y-81660014D02*
X116110014Y-81660014D01*
X82089986Y-62624772D02*
X101125228Y-81660014D01*
X82089986Y-48374772D02*
X82089986Y-62624772D01*
X76485224Y-42770010D02*
X82089986Y-48374772D01*
X69490010Y-42770010D02*
X76485224Y-42770010D01*
X67080000Y-40360000D02*
X69490010Y-42770010D01*
X67080000Y-38900000D02*
X67080000Y-40360000D01*
X66522400Y-38342400D02*
X67080000Y-38900000D01*
X67716600Y-38342400D02*
X67922400Y-38342400D01*
X67714200Y-38340000D02*
X67716600Y-38342400D01*
X67710000Y-38340000D02*
X67714200Y-38340000D01*
X123370000Y-90374580D02*
X124008400Y-91012980D01*
X123370000Y-87650000D02*
X123370000Y-90374580D01*
X116930012Y-81210012D02*
X123370000Y-87650000D01*
X101311624Y-81210012D02*
X116930012Y-81210012D01*
X82539988Y-62438376D02*
X101311624Y-81210012D01*
X82539988Y-48188376D02*
X82539988Y-62438376D01*
X76671620Y-42320008D02*
X82539988Y-48188376D01*
X70370008Y-42320008D02*
X76671620Y-42320008D01*
X68360000Y-40310000D02*
X70370008Y-42320008D01*
X68360000Y-38780000D02*
X68360000Y-40310000D01*
X67922400Y-38342400D02*
X68360000Y-38780000D01*
X70256600Y-38342400D02*
X70482400Y-38342400D01*
X70259000Y-38340000D02*
X70256600Y-38342400D01*
X70260000Y-38340000D02*
X70259000Y-38340000D01*
X125910000Y-90374580D02*
X126548400Y-91012980D01*
X125910000Y-87660000D02*
X125910000Y-90374580D01*
X118560008Y-80310008D02*
X125910000Y-87660000D01*
X101684416Y-80310008D02*
X118560008Y-80310008D01*
X83439992Y-62065584D02*
X101684416Y-80310008D01*
X83439992Y-47815584D02*
X83439992Y-62065584D01*
X77044412Y-41420004D02*
X83439992Y-47815584D01*
X72150004Y-41420004D02*
X77044412Y-41420004D01*
X70890000Y-40160000D02*
X72150004Y-41420004D01*
X70890000Y-38750000D02*
X70890000Y-40160000D01*
X70482400Y-38342400D02*
X70890000Y-38750000D01*
X68986600Y-38342400D02*
X69032400Y-38342400D01*
X68989000Y-38340000D02*
X68986600Y-38342400D01*
X68990000Y-38340000D02*
X68989000Y-38340000D01*
X124640000Y-90374580D02*
X125278400Y-91012980D01*
X124640000Y-87640000D02*
X124640000Y-90374580D01*
X117760010Y-80760010D02*
X124640000Y-87640000D01*
X101498020Y-80760010D02*
X117760010Y-80760010D01*
X82989990Y-62251980D02*
X101498020Y-80760010D01*
X82989990Y-48001980D02*
X82989990Y-62251980D01*
X76858016Y-41870006D02*
X82989990Y-48001980D01*
X70910006Y-41870006D02*
X76858016Y-41870006D01*
X69620000Y-40580000D02*
X70910006Y-41870006D01*
X69620000Y-38930000D02*
X69620000Y-40580000D01*
X69032400Y-38342400D02*
X69620000Y-38930000D01*
X102540000Y-39990000D02*
X102540000Y-39993400D01*
X125280000Y-74683420D02*
X125280000Y-74680000D01*
X125280000Y-74683420D02*
X125278400Y-74685020D01*
X103810000Y-39990000D02*
X103810000Y-39993400D01*
X126543380Y-74680000D02*
X126540000Y-74680000D01*
X126543380Y-74680000D02*
X126548400Y-74685020D01*
X106340000Y-39990000D02*
X106346600Y-39990000D01*
X106346600Y-39990000D02*
X106350000Y-39993400D01*
X129083380Y-74680000D02*
X129080000Y-74680000D01*
X129083380Y-74680000D02*
X129088400Y-74685020D01*
X105080000Y-39990000D02*
X105080000Y-39993400D01*
X127823420Y-74680000D02*
X127830000Y-74680000D01*
X127823420Y-74680000D02*
X127818400Y-74685020D01*
X131630000Y-74680000D02*
X131630000Y-74683420D01*
X131630000Y-74683420D02*
X131628400Y-74685020D01*
X108890000Y-39993400D02*
X108890000Y-39990000D01*
X107620000Y-39993400D02*
X107620000Y-39990000D01*
X130363420Y-74680000D02*
X130358400Y-74685020D01*
X130363420Y-74680000D02*
X130370000Y-74680000D01*
X101850033Y-63970293D02*
X104599723Y-66719983D01*
X101850033Y-42199973D02*
X101850033Y-63970293D01*
X124640000Y-75414600D02*
X125278400Y-76053000D01*
X124640000Y-74040000D02*
X124640000Y-75414600D01*
X125278400Y-76053000D02*
X125278400Y-77412980D01*
X117319983Y-66719983D02*
X124640000Y-74040000D01*
X103170000Y-40880006D02*
X101850033Y-42199973D01*
X103170000Y-38980000D02*
X103170000Y-40880006D01*
X104599723Y-66719983D02*
X117319983Y-66719983D01*
X125280000Y-77414580D02*
X125278400Y-77412980D01*
X125280000Y-77414580D02*
X125280000Y-77420000D01*
X102540000Y-38469400D02*
X102659400Y-38469400D01*
X102659400Y-38469400D02*
X103170000Y-38980000D01*
X102540000Y-38470000D02*
X102540000Y-38469400D01*
X103170000Y-38980000D02*
X103180000Y-38990000D01*
X126548400Y-77412980D02*
X126548400Y-76053000D01*
X126548400Y-76053000D02*
X125910000Y-75414600D01*
X104440000Y-40740000D02*
X104440000Y-39302600D01*
X104440000Y-39302600D02*
X103810000Y-38672600D01*
X104786122Y-66269972D02*
X102360000Y-63843850D01*
X125910000Y-74040000D02*
X118139972Y-66269972D01*
X102360000Y-42820000D02*
X104440000Y-40740000D01*
X103810000Y-38672600D02*
X103810000Y-38469400D01*
X102360000Y-63843850D02*
X102360000Y-42820000D01*
X125910000Y-75414600D02*
X125910000Y-74040000D01*
X118139972Y-66269972D02*
X104786122Y-66269972D01*
X103810000Y-38470000D02*
X103810000Y-38469400D01*
X126541380Y-77420000D02*
X126540000Y-77420000D01*
X126541380Y-77420000D02*
X126548400Y-77412980D01*
X128450000Y-74050000D02*
X128450000Y-75414600D01*
X103260022Y-44429978D02*
X103260022Y-63471052D01*
X106990000Y-40700000D02*
X103260022Y-44429978D01*
X106350000Y-38469400D02*
X106350000Y-38672600D01*
X128450000Y-75414600D02*
X129088400Y-76053000D01*
X106350000Y-38672600D02*
X106990000Y-39312600D01*
X129088400Y-76053000D02*
X129088400Y-77412980D01*
X105158920Y-65369950D02*
X119769950Y-65369950D01*
X103260022Y-63471052D02*
X105158920Y-65369950D01*
X106990000Y-39312600D02*
X106990000Y-40700000D01*
X119769950Y-65369950D02*
X128450000Y-74050000D01*
X106340000Y-38470000D02*
X106349400Y-38470000D01*
X106349400Y-38470000D02*
X106350000Y-38469400D01*
X129081380Y-77420000D02*
X129080000Y-77420000D01*
X129081380Y-77420000D02*
X129088400Y-77412980D01*
X118959961Y-65819961D02*
X127180000Y-74040000D01*
X105080000Y-38469400D02*
X105080000Y-38672600D01*
X105710000Y-40870000D02*
X102810011Y-43769989D01*
X127180000Y-75414600D02*
X127818400Y-76053000D01*
X102810011Y-63657451D02*
X104972521Y-65819961D01*
X105710000Y-39302600D02*
X105710000Y-40870000D01*
X105080000Y-38672600D02*
X105710000Y-39302600D01*
X102810011Y-43769989D02*
X102810011Y-63657451D01*
X127818400Y-76053000D02*
X127818400Y-77412980D01*
X127180000Y-74040000D02*
X127180000Y-75414600D01*
X104972521Y-65819961D02*
X118959961Y-65819961D01*
X105080000Y-38470000D02*
X105080000Y-38469400D01*
X127825420Y-77420000D02*
X127830000Y-77420000D01*
X127825420Y-77420000D02*
X127818400Y-77412980D01*
X131000000Y-75424600D02*
X131000000Y-74060000D01*
X109520000Y-41020000D02*
X109520000Y-38980000D01*
X131628400Y-77412980D02*
X131628400Y-76053000D01*
X105531718Y-64469928D02*
X104170000Y-63108210D01*
X131628400Y-76053000D02*
X131000000Y-75424600D01*
X104170000Y-46370000D02*
X109520000Y-41020000D01*
X131000000Y-74060000D02*
X121409928Y-64469928D01*
X104170000Y-63108210D02*
X104170000Y-46370000D01*
X121409928Y-64469928D02*
X105531718Y-64469928D01*
X131630000Y-77420000D02*
X131630000Y-77414580D01*
X131630000Y-77414580D02*
X131628400Y-77412980D01*
X109009400Y-38469400D02*
X109520000Y-38980000D01*
X109520000Y-38980000D02*
X109530000Y-38990000D01*
X108890000Y-38469400D02*
X109009400Y-38469400D01*
X108890000Y-38470000D02*
X108890000Y-38469400D01*
X108260000Y-40700000D02*
X108260000Y-39312600D01*
X105345319Y-64919939D02*
X103710033Y-63284653D01*
X130358400Y-77412980D02*
X130358400Y-76053000D01*
X103710033Y-45249967D02*
X108260000Y-40700000D01*
X120589939Y-64919939D02*
X105345319Y-64919939D01*
X130358400Y-76053000D02*
X129730000Y-75424600D01*
X103710033Y-63284653D02*
X103710033Y-45249967D01*
X129730000Y-75424600D02*
X129730000Y-74060000D01*
X107620000Y-38672600D02*
X107620000Y-38469400D01*
X108260000Y-39312600D02*
X107620000Y-38672600D01*
X129730000Y-74060000D02*
X120589939Y-64919939D01*
X107620000Y-38470000D02*
X107620000Y-38469400D01*
X130365420Y-77420000D02*
X130370000Y-77420000D01*
X130365420Y-77420000D02*
X130358400Y-77412980D01*
X119560000Y-74060000D02*
X114020027Y-68520027D01*
X119560000Y-75414600D02*
X119560000Y-74060000D01*
X100049989Y-42899989D02*
X98100000Y-40950000D01*
X103854127Y-68520027D02*
X100049989Y-64715889D01*
X120198400Y-77412980D02*
X120198400Y-76053000D01*
X114020027Y-68520027D02*
X103854127Y-68520027D01*
X98100000Y-40950000D02*
X98100000Y-39312600D01*
X100049989Y-64715889D02*
X100049989Y-42899989D01*
X98100000Y-39312600D02*
X97460000Y-38672600D01*
X97460000Y-38672600D02*
X97460000Y-38469400D01*
X120198400Y-76053000D02*
X119560000Y-75414600D01*
X97450000Y-38470000D02*
X97459400Y-38470000D01*
X97459400Y-38470000D02*
X97460000Y-38469400D01*
X120200000Y-77414580D02*
X120200000Y-77420000D01*
X120200000Y-77414580D02*
X120198400Y-77412980D01*
X121468400Y-77412980D02*
X121468400Y-76053000D01*
X98730000Y-38672600D02*
X98730000Y-38469400D01*
X99370000Y-39312600D02*
X98730000Y-38672600D01*
X99370000Y-40770000D02*
X99370000Y-39312600D01*
X100500000Y-64529490D02*
X100500000Y-41900000D01*
X104040526Y-68070016D02*
X100500000Y-64529490D01*
X114850016Y-68070016D02*
X104040526Y-68070016D01*
X120830000Y-74050000D02*
X114850016Y-68070016D01*
X120830000Y-75414600D02*
X120830000Y-74050000D01*
X100500000Y-41900000D02*
X99370000Y-40770000D01*
X121468400Y-76053000D02*
X120830000Y-75414600D01*
X98730000Y-38470000D02*
X98730000Y-38469400D01*
X121461380Y-77420000D02*
X121460000Y-77420000D01*
X121461380Y-77420000D02*
X121468400Y-77412980D01*
X101400022Y-64156692D02*
X104413324Y-67169994D01*
X101400022Y-41039978D02*
X101400022Y-64156692D01*
X123380000Y-75424600D02*
X124008400Y-76053000D01*
X116489994Y-67169994D02*
X123380000Y-74060000D01*
X123380000Y-74060000D02*
X123380000Y-75424600D01*
X101900000Y-40540000D02*
X101400022Y-41039978D01*
X104413324Y-67169994D02*
X116489994Y-67169994D01*
X124008400Y-76053000D02*
X124008400Y-77412980D01*
X124000000Y-77420000D02*
X124001380Y-77420000D01*
X124001380Y-77420000D02*
X124008400Y-77412980D01*
X101279400Y-38469400D02*
X101900000Y-39090000D01*
X101270000Y-38470000D02*
X101270000Y-38469400D01*
X101270000Y-38469400D02*
X101279400Y-38469400D01*
X101900000Y-40560000D02*
X101900000Y-40540000D01*
X101900000Y-40540000D02*
X101900000Y-39090000D01*
X122100000Y-75414600D02*
X122738400Y-76053000D01*
X104226934Y-67620014D02*
X115670014Y-67620014D01*
X122738400Y-76053000D02*
X122738400Y-77412980D01*
X100630000Y-39302600D02*
X100630000Y-41393589D01*
X122100000Y-74050000D02*
X122100000Y-75414600D01*
X115670014Y-67620014D02*
X122100000Y-74050000D01*
X100000000Y-38672600D02*
X100630000Y-39302600D01*
X100950011Y-41713600D02*
X100950011Y-64343091D01*
X100630000Y-41393589D02*
X100950011Y-41713600D01*
X100000000Y-38469400D02*
X100000000Y-38672600D01*
X100950011Y-64343091D02*
X104226934Y-67620014D01*
X122740000Y-77414580D02*
X122738400Y-77412980D01*
X122740000Y-77414580D02*
X122740000Y-77420000D01*
X100000000Y-38469400D02*
X100000000Y-38480000D01*
X100000000Y-38469400D02*
X100000000Y-38470000D01*
X97456600Y-39990000D02*
X97450000Y-39990000D01*
X97456600Y-39990000D02*
X97460000Y-39993400D01*
X120200000Y-74686620D02*
X120198400Y-74685020D01*
X120200000Y-74686620D02*
X120200000Y-74690000D01*
X98730000Y-39990000D02*
X98730000Y-39993400D01*
X121463420Y-74690000D02*
X121460000Y-74690000D01*
X121463420Y-74690000D02*
X121468400Y-74685020D01*
X101270000Y-39990000D02*
X101270000Y-39993400D01*
X124010000Y-74686620D02*
X124010000Y-74690000D01*
X124010000Y-74686620D02*
X124008400Y-74685020D01*
X100000000Y-39993400D02*
X100000000Y-39990000D01*
X122740000Y-74686620D02*
X122738400Y-74685020D01*
X122740000Y-74686620D02*
X122740000Y-74690000D01*
X94910000Y-39990000D02*
X94916600Y-39990000D01*
X94916600Y-39990000D02*
X94920000Y-39993400D01*
X117653420Y-74690000D02*
X117650000Y-74690000D01*
X117653420Y-74690000D02*
X117658400Y-74685020D01*
X96190000Y-39993400D02*
X96190000Y-39990000D01*
X118930000Y-74686620D02*
X118928400Y-74685020D01*
X118930000Y-74690000D02*
X118930000Y-74686620D01*
X87296600Y-39990000D02*
X87300000Y-39993400D01*
X87290000Y-39990000D02*
X87296600Y-39990000D01*
X110033420Y-74690000D02*
X110038400Y-74685020D01*
X110033420Y-74690000D02*
X110030000Y-74690000D01*
X88570000Y-39990000D02*
X88570000Y-39993400D01*
X111310000Y-74686620D02*
X111310000Y-74690000D01*
X111310000Y-74686620D02*
X111308400Y-74685020D01*
X108770000Y-74690000D02*
X108770000Y-74686620D01*
X108770000Y-74686620D02*
X108768400Y-74685020D01*
X86030000Y-39993400D02*
X86030000Y-39990000D01*
X112580000Y-74686620D02*
X112578400Y-74685020D01*
X112580000Y-74690000D02*
X112580000Y-74686620D01*
X89836600Y-39990000D02*
X89830000Y-39990000D01*
X89836600Y-39990000D02*
X89840000Y-39993400D01*
X91110000Y-39990000D02*
X91110000Y-39993400D01*
X113843420Y-74690000D02*
X113840000Y-74690000D01*
X113843420Y-74690000D02*
X113848400Y-74685020D01*
X93650000Y-39993400D02*
X93650000Y-39990000D01*
X116390000Y-74686620D02*
X116388400Y-74685020D01*
X116390000Y-74686620D02*
X116390000Y-74690000D01*
X115120000Y-74690000D02*
X115120000Y-74686620D01*
X115120000Y-74686620D02*
X115118400Y-74685020D01*
X92376600Y-39990000D02*
X92370000Y-39990000D01*
X92376600Y-39990000D02*
X92380000Y-39993400D01*
X103581302Y-69520022D02*
X99149967Y-65088687D01*
X95550000Y-39302600D02*
X94920000Y-38672600D01*
X117658400Y-77412980D02*
X117658400Y-76053000D01*
X112490022Y-69520022D02*
X103581302Y-69520022D01*
X95550000Y-40560000D02*
X95550000Y-39302600D01*
X99149967Y-65088687D02*
X99149967Y-44159967D01*
X99149967Y-44159967D02*
X95550000Y-40560000D01*
X117658400Y-76053000D02*
X117020000Y-75414600D01*
X94920000Y-38672600D02*
X94920000Y-38469400D01*
X117020000Y-75414600D02*
X117020000Y-74050000D01*
X117020000Y-74050000D02*
X112490022Y-69520022D01*
X94910000Y-38470000D02*
X94919400Y-38470000D01*
X94919400Y-38470000D02*
X94920000Y-38469400D01*
X117650000Y-77421380D02*
X117650000Y-77430000D01*
X117650000Y-77421380D02*
X117658400Y-77412980D01*
X96190000Y-38469400D02*
X96190000Y-38672600D01*
X96190000Y-38672600D02*
X96830000Y-39312600D01*
X118290000Y-75414600D02*
X118928400Y-76053000D01*
X118928400Y-76053000D02*
X118928400Y-77412980D01*
X113320011Y-69070011D02*
X118290000Y-74040000D01*
X99599978Y-64902288D02*
X103767701Y-69070011D01*
X96830000Y-39312600D02*
X96830000Y-40710000D01*
X118290000Y-74040000D02*
X118290000Y-75414600D01*
X96830000Y-40710000D02*
X99599978Y-43479978D01*
X99599978Y-43479978D02*
X99599978Y-64902288D01*
X103767701Y-69070011D02*
X113320011Y-69070011D01*
X96190000Y-38470000D02*
X96190000Y-38469400D01*
X118930000Y-77414580D02*
X118930000Y-77420000D01*
X118930000Y-77414580D02*
X118928400Y-77412980D01*
X109400000Y-75414600D02*
X110038400Y-76053000D01*
X107610033Y-72250033D02*
X109400000Y-74040000D01*
X102492853Y-72250033D02*
X107610033Y-72250033D01*
X95290000Y-46890000D02*
X96449901Y-48049901D01*
X94260000Y-46890000D02*
X95290000Y-46890000D01*
X87930000Y-40560000D02*
X94260000Y-46890000D01*
X87300000Y-38672600D02*
X87930000Y-39302600D01*
X110038400Y-76053000D02*
X110038400Y-77412980D01*
X96449901Y-48049901D02*
X96449901Y-66207081D01*
X96449901Y-66207081D02*
X102492853Y-72250033D01*
X87300000Y-38469400D02*
X87300000Y-38672600D01*
X109400000Y-74040000D02*
X109400000Y-75414600D01*
X87930000Y-39302600D02*
X87930000Y-40560000D01*
X87299400Y-38470000D02*
X87300000Y-38469400D01*
X87290000Y-38470000D02*
X87299400Y-38470000D01*
X110031380Y-77420000D02*
X110038400Y-77412980D01*
X110031380Y-77420000D02*
X110030000Y-77420000D01*
X89200000Y-40670000D02*
X94950000Y-46420000D01*
X88570000Y-38469400D02*
X88570000Y-38672600D01*
X110680000Y-75424600D02*
X111308400Y-76053000D01*
X89200000Y-39302600D02*
X89200000Y-40670000D01*
X94950000Y-46420000D02*
X95789968Y-46420000D01*
X108420022Y-71800022D02*
X110680000Y-74060000D01*
X102679252Y-71800022D02*
X108420022Y-71800022D01*
X88570000Y-38672600D02*
X89200000Y-39302600D01*
X95789968Y-46420000D02*
X96899912Y-47529944D01*
X96899912Y-66020682D02*
X102679252Y-71800022D01*
X110680000Y-74060000D02*
X110680000Y-75424600D01*
X96899912Y-47529944D02*
X96899912Y-66020682D01*
X111308400Y-76053000D02*
X111308400Y-77412980D01*
X88570000Y-38470000D02*
X88570000Y-38469400D01*
X111310000Y-77414580D02*
X111308400Y-77412980D01*
X111310000Y-77414580D02*
X111310000Y-77420000D01*
X94950000Y-47470000D02*
X95999890Y-48519890D01*
X106790044Y-72700044D02*
X108130000Y-74040000D01*
X108768400Y-76053000D02*
X108768400Y-77412980D01*
X95999890Y-66393480D02*
X102306454Y-72700044D01*
X95999890Y-48519890D02*
X95999890Y-66393480D01*
X86670000Y-40390000D02*
X93750000Y-47470000D01*
X102306454Y-72700044D02*
X106790044Y-72700044D01*
X86670000Y-39312600D02*
X86670000Y-40390000D01*
X108130000Y-75414600D02*
X108768400Y-76053000D01*
X93750000Y-47470000D02*
X94950000Y-47470000D01*
X86030000Y-38469400D02*
X86030000Y-38672600D01*
X86030000Y-38672600D02*
X86670000Y-39312600D01*
X108130000Y-74040000D02*
X108130000Y-75414600D01*
X86030000Y-38470000D02*
X86030000Y-38469400D01*
X108770000Y-77414580D02*
X108768400Y-77412980D01*
X108770000Y-77414580D02*
X108770000Y-77420000D01*
X85400000Y-39312600D02*
X85400000Y-40400000D01*
X94479962Y-48100000D02*
X95549879Y-49169917D01*
X95549879Y-49169917D02*
X95549879Y-66579879D01*
X84760000Y-38469400D02*
X84760000Y-38672600D01*
X84760000Y-38672600D02*
X85400000Y-39312600D01*
X85400000Y-40400000D02*
X93100000Y-48100000D01*
X93100000Y-48100000D02*
X94479962Y-48100000D01*
X95549879Y-66579879D02*
X102120064Y-73150064D01*
X102120064Y-73150064D02*
X104787966Y-73150064D01*
X107498400Y-76053000D02*
X107498400Y-77412980D01*
X104787966Y-73150064D02*
X107498400Y-75860498D01*
X107498400Y-75860498D02*
X107498400Y-76053000D01*
X84750000Y-38470000D02*
X84759400Y-38470000D01*
X84759400Y-38470000D02*
X84760000Y-38469400D01*
X107500000Y-77414580D02*
X107500000Y-77420000D01*
X107500000Y-77414580D02*
X107498400Y-77412980D01*
X89840000Y-38672600D02*
X90470000Y-39302600D01*
X90470000Y-40400000D02*
X97349923Y-47279923D01*
X109240011Y-71350011D02*
X111940000Y-74050000D01*
X90470000Y-39302600D02*
X90470000Y-40400000D01*
X111940000Y-75414600D02*
X112578400Y-76053000D01*
X97349923Y-65834283D02*
X102865651Y-71350011D01*
X89840000Y-38469400D02*
X89840000Y-38672600D01*
X97349923Y-47279923D02*
X97349923Y-65834283D01*
X102865651Y-71350011D02*
X109240011Y-71350011D01*
X111940000Y-74050000D02*
X111940000Y-75414600D01*
X112578400Y-76053000D02*
X112578400Y-77412980D01*
X89839400Y-38470000D02*
X89840000Y-38469400D01*
X89830000Y-38470000D02*
X89839400Y-38470000D01*
X112580000Y-77414580D02*
X112580000Y-77420000D01*
X112580000Y-77414580D02*
X112578400Y-77412980D01*
X113210000Y-74040000D02*
X113210000Y-75414600D01*
X91750000Y-40840000D02*
X97799934Y-46889934D01*
X113210000Y-75414600D02*
X113848400Y-76053000D01*
X110070000Y-70900000D02*
X113210000Y-74040000D01*
X113848400Y-76053000D02*
X113848400Y-77412980D01*
X97799934Y-65647884D02*
X103052050Y-70900000D01*
X97799934Y-46889934D02*
X97799934Y-65647884D01*
X91750000Y-39312600D02*
X91750000Y-40840000D01*
X91110000Y-38469400D02*
X91110000Y-38672600D01*
X91110000Y-38672600D02*
X91750000Y-39312600D01*
X103052050Y-70900000D02*
X110070000Y-70900000D01*
X91110000Y-38469400D02*
X91110000Y-38550000D01*
X91110000Y-38470000D02*
X91110000Y-38469400D01*
X113840000Y-77420000D02*
X113841380Y-77420000D01*
X113841380Y-77420000D02*
X113848400Y-77412980D01*
X103394903Y-69970033D02*
X111680033Y-69970033D01*
X94280000Y-39302600D02*
X94280000Y-40650000D01*
X98699956Y-65275086D02*
X103394903Y-69970033D01*
X94280000Y-40650000D02*
X98699956Y-45069956D01*
X98699956Y-45069956D02*
X98699956Y-65275086D01*
X93650000Y-38672600D02*
X94280000Y-39302600D01*
X115750000Y-74040000D02*
X115750000Y-75414600D01*
X116388400Y-76053000D02*
X116388400Y-77412980D01*
X111680033Y-69970033D02*
X115750000Y-74040000D01*
X93650000Y-38469400D02*
X93650000Y-38672600D01*
X115750000Y-75414600D02*
X116388400Y-76053000D01*
X116390000Y-77420000D02*
X116390000Y-77414580D01*
X116390000Y-77414580D02*
X116388400Y-77412980D01*
X93650000Y-38469400D02*
X93650000Y-38470000D01*
X103208504Y-70420044D02*
X110870035Y-70420044D01*
X92370000Y-38470000D02*
X92379400Y-38470000D01*
X92379400Y-38470000D02*
X92380000Y-38469400D01*
X93010000Y-39302600D02*
X93010000Y-40420000D01*
X92380000Y-38469400D02*
X92380000Y-38672600D01*
X92380000Y-38672600D02*
X93010000Y-39302600D01*
X93010000Y-40420000D02*
X98249945Y-45659945D01*
X98249945Y-45659945D02*
X98249945Y-65461485D01*
X98249945Y-65461485D02*
X103208504Y-70420044D01*
X110870044Y-70420035D02*
X110870044Y-70420044D01*
X110870035Y-70420044D02*
X110870044Y-70420035D01*
X115118400Y-76053000D02*
X115118400Y-77412980D01*
X110870044Y-70420044D02*
X110870044Y-70420044D01*
X110870044Y-70420044D02*
X114480000Y-74030000D01*
X114480000Y-74030000D02*
X114480000Y-75414600D01*
X114480000Y-75414600D02*
X115118400Y-76053000D01*
X115120000Y-77414580D02*
X115118400Y-77412980D01*
X115120000Y-77414580D02*
X115120000Y-77420000D01*
X107480000Y-74680000D02*
X107493380Y-74680000D01*
X107493380Y-74680000D02*
X107498400Y-74685020D01*
X84756600Y-39990000D02*
X84760000Y-39993400D01*
X84756600Y-39990000D02*
X84750000Y-39990000D01*
X142450000Y-39850000D02*
X142450000Y-39859800D01*
X142443400Y-39866400D02*
X142450000Y-39859800D01*
X125293380Y-61100000D02*
X125300000Y-61100000D01*
X125293380Y-61100000D02*
X125278400Y-61085020D01*
X126533420Y-61100000D02*
X126548400Y-61085020D01*
X126500000Y-61100000D02*
X126533420Y-61100000D01*
X143700000Y-39853000D02*
X143713400Y-39866400D01*
X143700000Y-39853000D02*
X143700000Y-39850000D01*
X129100000Y-61100000D02*
X129100000Y-61096620D01*
X129100000Y-61096620D02*
X129088400Y-61085020D01*
X146287000Y-39900000D02*
X146253400Y-39866400D01*
X146287000Y-39900000D02*
X146300000Y-39900000D01*
X144983400Y-39866400D02*
X144999800Y-39850000D01*
X145000000Y-39850000D02*
X144999800Y-39850000D01*
X127803420Y-61100000D02*
X127800000Y-61100000D01*
X127803420Y-61100000D02*
X127818400Y-61085020D01*
X131625000Y-61081620D02*
X131625000Y-61075000D01*
X131628400Y-61085020D02*
X131625000Y-61081620D01*
X148800000Y-39873000D02*
X148800000Y-39900000D01*
X148793400Y-39866400D02*
X148800000Y-39873000D01*
X147500000Y-39889800D02*
X147523400Y-39866400D01*
X147500000Y-39889800D02*
X147500000Y-39900000D01*
X130373380Y-61100000D02*
X130400000Y-61100000D01*
X130358400Y-61085020D02*
X130373380Y-61100000D01*
X136373199Y-46573199D02*
X136986801Y-46573199D01*
X136986801Y-46573199D02*
X142620000Y-40940000D01*
X125920000Y-58750000D02*
X125920000Y-57950000D01*
X134420000Y-49450000D02*
X134420000Y-48526398D01*
X125920000Y-57950000D02*
X134420000Y-49450000D01*
X142620000Y-40940000D02*
X142640000Y-40940000D01*
X134420000Y-48526398D02*
X136373199Y-46573199D01*
X142443400Y-38342400D02*
X142443400Y-38373400D01*
X142450000Y-38349000D02*
X142443400Y-38342400D01*
X142450000Y-38350000D02*
X142450000Y-38349000D01*
X143080000Y-40500000D02*
X142640000Y-40940000D01*
X143080000Y-39010000D02*
X143080000Y-40500000D01*
X142443400Y-38373400D02*
X143080000Y-39010000D01*
X125275420Y-63810000D02*
X125278400Y-63812980D01*
X125275420Y-63810000D02*
X125270000Y-63810000D01*
X125920000Y-63171380D02*
X125278400Y-63812980D01*
X125920000Y-58750000D02*
X125920000Y-63171380D01*
X135356398Y-48226398D02*
X135356398Y-49763602D01*
X135356398Y-49763602D02*
X127190000Y-57930000D01*
X144350000Y-40500000D02*
X144350000Y-40560000D01*
X143713400Y-38363400D02*
X144350000Y-39000000D01*
X144350000Y-39000000D02*
X144350000Y-40500000D01*
X143725000Y-38350000D02*
X143721000Y-38350000D01*
X143721000Y-38350000D02*
X143713400Y-38342400D01*
X143713400Y-38342400D02*
X143713400Y-38363400D01*
X137390000Y-47520000D02*
X136062796Y-47520000D01*
X144350000Y-40560000D02*
X137390000Y-47520000D01*
X136062796Y-47520000D02*
X135356398Y-48226398D01*
X126550000Y-63811380D02*
X126548400Y-63812980D01*
X127190000Y-57930000D02*
X127190000Y-63171380D01*
X127190000Y-63171380D02*
X126548400Y-63812980D01*
X126550000Y-63811380D02*
X126550000Y-63810000D01*
X139115000Y-49395000D02*
X139115000Y-48525000D01*
X139115000Y-48525000D02*
X146880000Y-40760000D01*
X129720000Y-58830000D02*
X129720000Y-57990000D01*
X136610000Y-51100000D02*
X137410000Y-51100000D01*
X129720000Y-57990000D02*
X136610000Y-51100000D01*
X146253400Y-38342400D02*
X146262400Y-38342400D01*
X146253400Y-38342400D02*
X146250000Y-38345800D01*
X146250000Y-38350000D02*
X146250000Y-38345800D01*
X146880000Y-38960000D02*
X146880000Y-40760000D01*
X146262400Y-38342400D02*
X146880000Y-38960000D01*
X139115000Y-49395000D02*
X137410000Y-51100000D01*
X129720000Y-63160000D02*
X129100000Y-63780000D01*
X129720000Y-58830000D02*
X129720000Y-63160000D01*
X138431801Y-49441801D02*
X138431801Y-47868199D01*
X138431801Y-47868199D02*
X145620000Y-40680000D01*
X128450000Y-59460000D02*
X128450000Y-57940000D01*
X136040000Y-50350000D02*
X137523602Y-50350000D01*
X128450000Y-57940000D02*
X136040000Y-50350000D01*
X128450000Y-59620000D02*
X128450000Y-59460000D01*
X145620000Y-40680000D02*
X145620000Y-40500000D01*
X137523602Y-50350000D02*
X138431801Y-49441801D01*
X144983400Y-38342400D02*
X145112400Y-38342400D01*
X144975800Y-38350000D02*
X144983400Y-38342400D01*
X144975000Y-38350000D02*
X144975800Y-38350000D01*
X127820000Y-63811380D02*
X127818400Y-63812980D01*
X127820000Y-63811380D02*
X127820000Y-63810000D01*
X128450000Y-63181380D02*
X127818400Y-63812980D01*
X128450000Y-59620000D02*
X128450000Y-63181380D01*
X145620000Y-38850000D02*
X145620000Y-40500000D01*
X145112400Y-38342400D02*
X145620000Y-38850000D01*
X149500000Y-40400000D02*
X149500000Y-38600000D01*
X132300000Y-57600000D02*
X149500000Y-40400000D01*
X132300000Y-63141380D02*
X132300000Y-57600000D01*
X132300000Y-63141380D02*
X131628400Y-63812980D01*
X131000000Y-58180000D02*
X131000000Y-57860000D01*
X136940000Y-51920000D02*
X137260000Y-51920000D01*
X131000000Y-57860000D02*
X136940000Y-51920000D01*
X139745000Y-49435000D02*
X139745000Y-49105000D01*
X139745000Y-49105000D02*
X148150000Y-40700000D01*
X137260000Y-51920000D02*
X139745000Y-49435000D01*
X148150000Y-38925000D02*
X147550000Y-38325000D01*
X148150000Y-40700000D02*
X148150000Y-38925000D01*
X131000000Y-63171380D02*
X131000000Y-58180000D01*
X131000000Y-63171380D02*
X130358400Y-63812980D01*
X138000000Y-39050000D02*
X138000000Y-40880000D01*
X120830000Y-59490000D02*
X120830000Y-63181380D01*
X120830000Y-63181380D02*
X120198400Y-63812980D01*
X120200000Y-63810000D02*
X120200000Y-63811380D01*
X120200000Y-63811380D02*
X120198400Y-63812980D01*
X130770000Y-49550000D02*
X129490000Y-50830000D01*
X120830000Y-57630000D02*
X127630000Y-50830000D01*
X127630000Y-50830000D02*
X129490000Y-50830000D01*
X120830000Y-59490000D02*
X120830000Y-57630000D01*
X130770000Y-48130000D02*
X138010000Y-40890000D01*
X130770000Y-49550000D02*
X130770000Y-48130000D01*
X137363400Y-38342400D02*
X137363400Y-38413400D01*
X137363400Y-38413400D02*
X138000000Y-39050000D01*
X137365800Y-38340000D02*
X137370000Y-38340000D01*
X137365800Y-38340000D02*
X137363400Y-38342400D01*
X138000000Y-40880000D02*
X138010000Y-40890000D01*
X131613602Y-49423602D02*
X131613602Y-48446398D01*
X139250000Y-40830000D02*
X139270000Y-40830000D01*
X139270000Y-40810000D02*
X139250000Y-40830000D01*
X139270000Y-40790000D02*
X139270000Y-40810000D01*
X131613602Y-48446398D02*
X139270000Y-40790000D01*
X122100000Y-58937204D02*
X122100000Y-57770000D01*
X128220000Y-51650000D02*
X129387204Y-51650000D01*
X122100000Y-57770000D02*
X128220000Y-51650000D01*
X139270000Y-40500000D02*
X139270000Y-40830000D01*
X138633400Y-38342400D02*
X138633400Y-38513400D01*
X138631000Y-38340000D02*
X138633400Y-38342400D01*
X138631000Y-38340000D02*
X138630000Y-38340000D01*
X139270000Y-39150000D02*
X139270000Y-40500000D01*
X138633400Y-38513400D02*
X139270000Y-39150000D01*
X122100000Y-60180000D02*
X122100000Y-63181380D01*
X122100000Y-63181380D02*
X121468400Y-63812980D01*
X121470000Y-63810000D02*
X121470000Y-63811380D01*
X121470000Y-63811380D02*
X121468400Y-63812980D01*
X129387204Y-51650000D02*
X131613602Y-49423602D01*
X122100000Y-60180000D02*
X122100000Y-58937204D01*
X141173400Y-38342400D02*
X141173400Y-38443400D01*
X141175000Y-38344000D02*
X141173400Y-38342400D01*
X141175000Y-38350000D02*
X141175000Y-38344000D01*
X124005420Y-63810000D02*
X124008400Y-63812980D01*
X124005420Y-63810000D02*
X124000000Y-63810000D01*
X124640000Y-63181380D02*
X124008400Y-63812980D01*
X124640000Y-57670000D02*
X124640000Y-63181380D01*
X141800000Y-40510000D02*
X124640000Y-57670000D01*
X141800000Y-39070000D02*
X141800000Y-40510000D01*
X141173400Y-38443400D02*
X141800000Y-39070000D01*
X132431801Y-49241801D02*
X132431801Y-48838199D01*
X132431801Y-48838199D02*
X140530000Y-40740000D01*
X123370000Y-58303602D02*
X123370000Y-57720000D01*
X128790000Y-52300000D02*
X129373602Y-52300000D01*
X123370000Y-57720000D02*
X128790000Y-52300000D01*
X123370000Y-59230000D02*
X123370000Y-58303602D01*
X140530000Y-40740000D02*
X140530000Y-40510000D01*
X129373602Y-52300000D02*
X132431801Y-49241801D01*
X139903400Y-38342400D02*
X139903400Y-38533400D01*
X139901000Y-38340000D02*
X139903400Y-38342400D01*
X139900000Y-38340000D02*
X139901000Y-38340000D01*
X123370000Y-63180000D02*
X122740000Y-63810000D01*
X123370000Y-59230000D02*
X123370000Y-63180000D01*
X140530000Y-39160000D02*
X140530000Y-40510000D01*
X139903400Y-38533400D02*
X140530000Y-39160000D01*
X120200000Y-61086620D02*
X120198400Y-61085020D01*
X120200000Y-61086620D02*
X120200000Y-61100000D01*
X137363400Y-39866400D02*
X137350000Y-39853000D01*
X137350000Y-39853000D02*
X137350000Y-39850000D01*
X138633400Y-39866400D02*
X138649800Y-39850000D01*
X138650000Y-39850000D02*
X138649800Y-39850000D01*
X121483380Y-61100000D02*
X121468400Y-61085020D01*
X121483380Y-61100000D02*
X121500000Y-61100000D01*
X141173400Y-39866400D02*
X141189800Y-39850000D01*
X141200000Y-39850000D02*
X141189800Y-39850000D01*
X124000000Y-61093420D02*
X124000000Y-61100000D01*
X124000000Y-61093420D02*
X124008400Y-61085020D01*
X139900000Y-39850000D02*
X139900000Y-39863000D01*
X139903400Y-39866400D02*
X139900000Y-39863000D01*
X122723420Y-61100000D02*
X122738400Y-61085020D01*
X122700000Y-61100000D02*
X122723420Y-61100000D01*
X117673380Y-61100000D02*
X117658400Y-61085020D01*
X117700000Y-61100000D02*
X117673380Y-61100000D01*
X134823400Y-39866400D02*
X134839800Y-39850000D01*
X134839800Y-39850000D02*
X134850000Y-39850000D01*
X136100000Y-39859800D02*
X136093400Y-39866400D01*
X136100000Y-39859800D02*
X136100000Y-39850000D01*
X118913420Y-61100000D02*
X118900000Y-61100000D01*
X118913420Y-61100000D02*
X118928400Y-61085020D01*
X110023420Y-61100000D02*
X110038400Y-61085020D01*
X110000000Y-61100000D02*
X110023420Y-61100000D01*
X127200000Y-39863000D02*
X127203400Y-39866400D01*
X127200000Y-39863000D02*
X127200000Y-39850000D01*
X111300000Y-61093420D02*
X111308400Y-61085020D01*
X111300000Y-61100000D02*
X111300000Y-61093420D01*
X128473400Y-39866400D02*
X128457000Y-39850000D01*
X128457000Y-39850000D02*
X128450000Y-39850000D01*
X108783380Y-61100000D02*
X108768400Y-61085020D01*
X108800000Y-61100000D02*
X108783380Y-61100000D01*
X125949800Y-39850000D02*
X125933400Y-39866400D01*
X125949800Y-39850000D02*
X125950000Y-39850000D01*
X112593380Y-61100000D02*
X112578400Y-61085020D01*
X112600000Y-61100000D02*
X112593380Y-61100000D01*
X129750000Y-39859800D02*
X129743400Y-39866400D01*
X129750000Y-39859800D02*
X129750000Y-39850000D01*
X113863380Y-61100000D02*
X113848400Y-61085020D01*
X113900000Y-61100000D02*
X113863380Y-61100000D01*
X131000000Y-39853000D02*
X131000000Y-39850000D01*
X131013400Y-39866400D02*
X131000000Y-39853000D01*
X116400000Y-61096620D02*
X116388400Y-61085020D01*
X116400000Y-61100000D02*
X116400000Y-61096620D01*
X133553400Y-39866400D02*
X133550000Y-39863000D01*
X133550000Y-39863000D02*
X133550000Y-39850000D01*
X115103420Y-61100000D02*
X115118400Y-61085020D01*
X115100000Y-61100000D02*
X115103420Y-61100000D01*
X132283400Y-39866400D02*
X132299800Y-39850000D01*
X132299800Y-39850000D02*
X132300000Y-39850000D01*
X135400000Y-40600000D02*
X135460000Y-40540000D01*
X130150000Y-45460000D02*
X118290000Y-57320000D01*
X118290000Y-57320000D02*
X118290000Y-63181380D01*
X118290000Y-63181380D02*
X117658400Y-63812980D01*
X117660000Y-63810000D02*
X117660000Y-63811380D01*
X117660000Y-63811380D02*
X117658400Y-63812980D01*
X134832400Y-38342400D02*
X135460000Y-38970000D01*
X135460000Y-38970000D02*
X135460000Y-40540000D01*
X134830000Y-38349000D02*
X134830000Y-38350000D01*
X134830000Y-38349000D02*
X134823400Y-38342400D01*
X134823400Y-38342400D02*
X134832400Y-38342400D01*
X130150000Y-44986398D02*
X134536398Y-40600000D01*
X134536398Y-40600000D02*
X135400000Y-40600000D01*
X130150000Y-45460000D02*
X130150000Y-44986398D01*
X130030000Y-49590000D02*
X130030000Y-47630000D01*
X130030000Y-47630000D02*
X136730000Y-40930000D01*
X119570000Y-60050000D02*
X119570000Y-57320000D01*
X126770000Y-50120000D02*
X129500000Y-50120000D01*
X119570000Y-57320000D02*
X126770000Y-50120000D01*
X130030000Y-49590000D02*
X129500000Y-50120000D01*
X136093400Y-38342400D02*
X136093400Y-38713400D01*
X136093400Y-38713400D02*
X136730000Y-39350000D01*
X136730000Y-39350000D02*
X136730000Y-40930000D01*
X136100000Y-38350000D02*
X136100000Y-38349000D01*
X136100000Y-38349000D02*
X136093400Y-38342400D01*
X119570000Y-60050000D02*
X119570000Y-63171380D01*
X118930000Y-63811380D02*
X118928400Y-63812980D01*
X118930000Y-63811380D02*
X118930000Y-63810000D01*
X119570000Y-63171380D02*
X118928400Y-63812980D01*
X127203400Y-38342400D02*
X127332400Y-38342400D01*
X127201000Y-38340000D02*
X127203400Y-38342400D01*
X127200000Y-38340000D02*
X127201000Y-38340000D01*
X110035420Y-63810000D02*
X110038400Y-63812980D01*
X110035420Y-63810000D02*
X110030000Y-63810000D01*
X110670000Y-63181380D02*
X110038400Y-63812980D01*
X110670000Y-57670000D02*
X110670000Y-63181380D01*
X127830000Y-40510000D02*
X110670000Y-57670000D01*
X127830000Y-38840000D02*
X127830000Y-40510000D01*
X127332400Y-38342400D02*
X127830000Y-38840000D01*
X128473400Y-38342400D02*
X128582400Y-38342400D01*
X128473400Y-38342400D02*
X128475800Y-38340000D01*
X128480000Y-38340000D02*
X128475800Y-38340000D01*
X111310000Y-63811380D02*
X111308400Y-63812980D01*
X111310000Y-63811380D02*
X111310000Y-63810000D01*
X111940000Y-63181380D02*
X111308400Y-63812980D01*
X111940000Y-57670000D02*
X111940000Y-63181380D01*
X129110000Y-40500000D02*
X111940000Y-57670000D01*
X129110000Y-38870000D02*
X129110000Y-40500000D01*
X128582400Y-38342400D02*
X129110000Y-38870000D01*
X125933400Y-38342400D02*
X126012400Y-38342400D01*
X125935800Y-38340000D02*
X125933400Y-38342400D01*
X125940000Y-38340000D02*
X125935800Y-38340000D01*
X108770000Y-63811380D02*
X108768400Y-63812980D01*
X108770000Y-63811380D02*
X108770000Y-63810000D01*
X109400000Y-63181380D02*
X108768400Y-63812980D01*
X109400000Y-57670000D02*
X109400000Y-63181380D01*
X126560000Y-40510000D02*
X109400000Y-57670000D01*
X126560000Y-38890000D02*
X126560000Y-40510000D01*
X126012400Y-38342400D02*
X126560000Y-38890000D01*
X124663400Y-38342400D02*
X124663400Y-38363400D01*
X107490000Y-63804580D02*
X107498400Y-63812980D01*
X107490000Y-63804580D02*
X107490000Y-63800000D01*
X108130000Y-63181380D02*
X107498400Y-63812980D01*
X108130000Y-57770000D02*
X108130000Y-63181380D01*
X125290000Y-40610000D02*
X108130000Y-57770000D01*
X125290000Y-38990000D02*
X125290000Y-40610000D01*
X124663400Y-38363400D02*
X125290000Y-38990000D01*
X124661000Y-38340000D02*
X124660000Y-38340000D01*
X124663400Y-38342400D02*
X124661000Y-38340000D01*
X129743400Y-38342400D02*
X129832400Y-38342400D01*
X129741000Y-38340000D02*
X129743400Y-38342400D01*
X129740000Y-38340000D02*
X129741000Y-38340000D01*
X112580000Y-63811380D02*
X112578400Y-63812980D01*
X112580000Y-63811380D02*
X112608620Y-63811380D01*
X112608620Y-63811380D02*
X112640000Y-63780000D01*
X113210000Y-63181380D02*
X112578400Y-63812980D01*
X113210000Y-57670000D02*
X113210000Y-63181380D01*
X130380000Y-40500000D02*
X113210000Y-57670000D01*
X130380000Y-38890000D02*
X130380000Y-40500000D01*
X129832400Y-38342400D02*
X130380000Y-38890000D01*
X131013400Y-38342400D02*
X131082400Y-38342400D01*
X113845420Y-63810000D02*
X113848400Y-63812980D01*
X113845420Y-63810000D02*
X113840000Y-63810000D01*
X114480000Y-63181380D02*
X113848400Y-63812980D01*
X114480000Y-57670000D02*
X114480000Y-63181380D01*
X131650000Y-40500000D02*
X114480000Y-57670000D01*
X131650000Y-38910000D02*
X131650000Y-40500000D01*
X131082400Y-38342400D02*
X131650000Y-38910000D01*
X131015800Y-38340000D02*
X131020000Y-38340000D01*
X131013400Y-38342400D02*
X131015800Y-38340000D01*
X133553400Y-38342400D02*
X133562400Y-38342400D01*
X133550000Y-38345800D02*
X133553400Y-38342400D01*
X133550000Y-38350000D02*
X133550000Y-38345800D01*
X116390000Y-63811380D02*
X116388400Y-63812980D01*
X116390000Y-63811380D02*
X116390000Y-63810000D01*
X117020000Y-63181380D02*
X116388400Y-63812980D01*
X117020000Y-57480000D02*
X117020000Y-63181380D01*
X134180000Y-40320000D02*
X117020000Y-57480000D01*
X134180000Y-38960000D02*
X134180000Y-40320000D01*
X133562400Y-38342400D02*
X134180000Y-38960000D01*
X132283400Y-38342400D02*
X132302400Y-38342400D01*
X115120000Y-63811380D02*
X115118400Y-63812980D01*
X115120000Y-63811380D02*
X115120000Y-63810000D01*
X115750000Y-63181380D02*
X115118400Y-63812980D01*
X115750000Y-57650000D02*
X115750000Y-63181380D01*
X132920000Y-40480000D02*
X115750000Y-57650000D01*
X132920000Y-38960000D02*
X132920000Y-40480000D01*
X132302400Y-38342400D02*
X132920000Y-38960000D01*
X132280000Y-38345800D02*
X132280000Y-38350000D01*
X132283400Y-38342400D02*
X132280000Y-38345800D01*
X107500000Y-61086620D02*
X107498400Y-61085020D01*
X107500000Y-61100000D02*
X107500000Y-61086620D01*
X124650000Y-39853000D02*
X124663400Y-39866400D01*
X124650000Y-39853000D02*
X124650000Y-39850000D01*
X132200000Y-44100000D02*
X135000000Y-41300000D01*
X113970000Y-39993400D02*
X113970000Y-39980000D01*
X113970000Y-40570000D02*
X113970000Y-39993400D01*
X114500000Y-41100000D02*
X113970000Y-40570000D01*
X118900000Y-41100000D02*
X114500000Y-41100000D01*
X119000000Y-41000000D02*
X118900000Y-41100000D01*
X132200000Y-44100000D02*
X132200000Y-44000000D01*
X151800000Y-58536398D02*
X151800000Y-57000000D01*
X148550002Y-61786396D02*
X151800000Y-58536398D01*
X148550002Y-71749998D02*
X148550002Y-61786396D01*
X147200000Y-73100000D02*
X148550002Y-71749998D01*
X147200000Y-85500000D02*
X147200000Y-73100000D01*
X147300000Y-85600000D02*
X147200000Y-85500000D01*
X150400000Y-55860000D02*
X151800000Y-54460000D01*
X150400000Y-59300000D02*
X150400000Y-55860000D01*
X148100000Y-61600000D02*
X150400000Y-59300000D01*
X148100000Y-71300000D02*
X148100000Y-61600000D01*
X147300000Y-72100000D02*
X148100000Y-71300000D01*
X149949998Y-53750002D02*
X151800000Y-51900000D01*
X149949998Y-58850002D02*
X149949998Y-53750002D01*
X149700000Y-59100000D02*
X149949998Y-58850002D01*
D22*
X145400000Y-54700000D02*
X145275002Y-54700000D01*
X145275002Y-65775002D02*
X145700000Y-66200000D01*
X145275002Y-54700000D02*
X145275002Y-65775002D01*
X145700000Y-93500000D02*
X145700000Y-79700000D01*
X145700000Y-79700000D02*
X145700000Y-66200000D01*
X145600000Y-93600000D02*
X145700000Y-93500000D01*
D21*
X62850000Y-48300000D02*
X62900000Y-48300000D01*
X115240600Y-38470000D02*
X115240000Y-38469400D01*
X115250000Y-38470000D02*
X115240600Y-38470000D01*
X115250000Y-39983400D02*
X115240000Y-39993400D01*
X115250000Y-39980000D02*
X115250000Y-39983400D01*
D10*
G36*
X74019835Y-46788138D02*
X74164159Y-47137429D01*
X74186810Y-47160119D01*
X74170165Y-47200204D01*
X74169835Y-47578138D01*
X74314159Y-47927429D01*
X74336810Y-47950119D01*
X74320165Y-47990204D01*
X74319835Y-48368138D01*
X74464159Y-48717429D01*
X74489742Y-48743057D01*
X74470165Y-48790204D01*
X74469835Y-49168138D01*
X74614159Y-49517429D01*
X74650934Y-49554269D01*
X74640165Y-49580204D01*
X74639835Y-49958138D01*
X74784159Y-50307429D01*
X75051165Y-50574902D01*
X75400204Y-50719835D01*
X75702521Y-50720099D01*
X75914962Y-50932540D01*
X75914962Y-64861524D01*
X75973955Y-65158104D01*
X76141954Y-65409532D01*
X98460436Y-87728014D01*
X98711864Y-87896013D01*
X99008444Y-87955006D01*
X105038990Y-87955006D01*
X105325014Y-88241030D01*
X105048185Y-88355414D01*
X104618821Y-88784029D01*
X104386165Y-89344328D01*
X104385635Y-89951011D01*
X104617314Y-90511715D01*
X105045929Y-90941079D01*
X105606228Y-91173735D01*
X106212911Y-91174265D01*
X106548379Y-91035652D01*
X106548235Y-91201118D01*
X106692559Y-91550409D01*
X106959565Y-91817882D01*
X107308604Y-91962815D01*
X107686538Y-91963145D01*
X108035829Y-91818821D01*
X108133336Y-91721484D01*
X108229565Y-91817882D01*
X108578604Y-91962815D01*
X108956538Y-91963145D01*
X109305829Y-91818821D01*
X109403336Y-91721484D01*
X109499565Y-91817882D01*
X109848604Y-91962815D01*
X110226538Y-91963145D01*
X110575829Y-91818821D01*
X110673336Y-91721484D01*
X110769565Y-91817882D01*
X111118604Y-91962815D01*
X111496538Y-91963145D01*
X111845829Y-91818821D01*
X111943336Y-91721484D01*
X112039565Y-91817882D01*
X112388604Y-91962815D01*
X112766538Y-91963145D01*
X113115829Y-91818821D01*
X113213336Y-91721484D01*
X113309565Y-91817882D01*
X113658604Y-91962815D01*
X114036538Y-91963145D01*
X114385829Y-91818821D01*
X114483336Y-91721484D01*
X114579565Y-91817882D01*
X114928604Y-91962815D01*
X115306538Y-91963145D01*
X115655829Y-91818821D01*
X115753336Y-91721484D01*
X115849565Y-91817882D01*
X116198604Y-91962815D01*
X116576538Y-91963145D01*
X116925829Y-91818821D01*
X117023336Y-91721484D01*
X117119565Y-91817882D01*
X117468604Y-91962815D01*
X117846538Y-91963145D01*
X118195829Y-91818821D01*
X118293336Y-91721484D01*
X118389565Y-91817882D01*
X118738604Y-91962815D01*
X119116538Y-91963145D01*
X119465829Y-91818821D01*
X119563336Y-91721484D01*
X119659565Y-91817882D01*
X120008604Y-91962815D01*
X120386538Y-91963145D01*
X120735829Y-91818821D01*
X120833336Y-91721484D01*
X120929565Y-91817882D01*
X121278604Y-91962815D01*
X121656538Y-91963145D01*
X122005829Y-91818821D01*
X122103336Y-91721484D01*
X122199565Y-91817882D01*
X122548604Y-91962815D01*
X122926538Y-91963145D01*
X123275829Y-91818821D01*
X123373336Y-91721484D01*
X123469565Y-91817882D01*
X123818604Y-91962815D01*
X124196538Y-91963145D01*
X124545829Y-91818821D01*
X124643336Y-91721484D01*
X124739565Y-91817882D01*
X125088604Y-91962815D01*
X125466538Y-91963145D01*
X125815829Y-91818821D01*
X125913336Y-91721484D01*
X126009565Y-91817882D01*
X126358604Y-91962815D01*
X126736538Y-91963145D01*
X127085829Y-91818821D01*
X127183336Y-91721484D01*
X127279565Y-91817882D01*
X127628604Y-91962815D01*
X128006538Y-91963145D01*
X128355829Y-91818821D01*
X128453336Y-91721484D01*
X128549565Y-91817882D01*
X128898604Y-91962815D01*
X129276538Y-91963145D01*
X129625829Y-91818821D01*
X129723336Y-91721484D01*
X129819565Y-91817882D01*
X130168604Y-91962815D01*
X130546538Y-91963145D01*
X130895829Y-91818821D01*
X131025627Y-91689249D01*
X131091165Y-91754902D01*
X131440204Y-91899835D01*
X131818138Y-91900165D01*
X132167429Y-91755841D01*
X132434902Y-91488835D01*
X132579835Y-91139796D01*
X132580165Y-90761862D01*
X132435841Y-90412571D01*
X132168835Y-90145098D01*
X131819796Y-90000165D01*
X131776143Y-90000127D01*
X131765000Y-89988984D01*
X131765000Y-89270119D01*
X131818138Y-89270165D01*
X132167429Y-89125841D01*
X132434902Y-88858835D01*
X132579835Y-88509796D01*
X132580165Y-88131862D01*
X132435841Y-87782571D01*
X132168835Y-87515098D01*
X131819796Y-87370165D01*
X131707329Y-87370067D01*
X131706007Y-87363420D01*
X131538008Y-87111992D01*
X122789041Y-78363025D01*
X122926538Y-78363145D01*
X123275829Y-78218821D01*
X123373336Y-78121484D01*
X123469565Y-78217882D01*
X123818604Y-78362815D01*
X124196538Y-78363145D01*
X124545829Y-78218821D01*
X124643336Y-78121484D01*
X124739565Y-78217882D01*
X125088604Y-78362815D01*
X125466538Y-78363145D01*
X125815829Y-78218821D01*
X125913336Y-78121484D01*
X126009565Y-78217882D01*
X126358604Y-78362815D01*
X126736538Y-78363145D01*
X127085829Y-78218821D01*
X127183336Y-78121484D01*
X127279565Y-78217882D01*
X127628604Y-78362815D01*
X128006538Y-78363145D01*
X128355829Y-78218821D01*
X128453336Y-78121484D01*
X128549565Y-78217882D01*
X128898604Y-78362815D01*
X129276538Y-78363145D01*
X129625829Y-78218821D01*
X129723336Y-78121484D01*
X129819565Y-78217882D01*
X130168604Y-78362815D01*
X130546538Y-78363145D01*
X130895829Y-78218821D01*
X130993336Y-78121484D01*
X131089565Y-78217882D01*
X131438604Y-78362815D01*
X131816538Y-78363145D01*
X132165829Y-78218821D01*
X132433302Y-77951815D01*
X132578235Y-77602776D01*
X132578565Y-77224842D01*
X132434241Y-76875551D01*
X132403400Y-76844656D01*
X132403400Y-76351011D01*
X138040635Y-76351011D01*
X138272314Y-76911715D01*
X138700929Y-77341079D01*
X139261228Y-77573735D01*
X139867911Y-77574265D01*
X140428615Y-77342586D01*
X140857979Y-76913971D01*
X141090635Y-76353672D01*
X141091165Y-75746989D01*
X140859486Y-75186285D01*
X140430871Y-74756921D01*
X139870572Y-74524265D01*
X139263889Y-74523735D01*
X138703185Y-74755414D01*
X138273821Y-75184029D01*
X138041165Y-75744328D01*
X138040635Y-76351011D01*
X132403400Y-76351011D01*
X132403400Y-76053000D01*
X132344407Y-75756420D01*
X132176408Y-75504992D01*
X132163316Y-75491900D01*
X132165829Y-75490861D01*
X132433302Y-75223855D01*
X132578235Y-74874816D01*
X132578565Y-74496882D01*
X132434241Y-74147591D01*
X132167235Y-73880118D01*
X131818196Y-73735185D01*
X131697070Y-73735079D01*
X131548008Y-73511992D01*
X122796066Y-64760050D01*
X122928138Y-64760165D01*
X123277429Y-64615841D01*
X123372644Y-64520792D01*
X123469565Y-64617882D01*
X123818604Y-64762815D01*
X124196538Y-64763145D01*
X124545829Y-64618821D01*
X124643336Y-64521484D01*
X124739565Y-64617882D01*
X125088604Y-64762815D01*
X125466538Y-64763145D01*
X125815829Y-64618821D01*
X125913336Y-64521484D01*
X126009565Y-64617882D01*
X126358604Y-64762815D01*
X126736538Y-64763145D01*
X127085829Y-64618821D01*
X127183336Y-64521484D01*
X127279565Y-64617882D01*
X127628604Y-64762815D01*
X128006538Y-64763145D01*
X128355829Y-64618821D01*
X128475636Y-64499223D01*
X128561165Y-64584902D01*
X128910204Y-64729835D01*
X129288138Y-64730165D01*
X129637429Y-64585841D01*
X129712636Y-64510766D01*
X129819565Y-64617882D01*
X130168604Y-64762815D01*
X130546538Y-64763145D01*
X130895829Y-64618821D01*
X130993336Y-64521484D01*
X131089565Y-64617882D01*
X131438604Y-64762815D01*
X131816538Y-64763145D01*
X132165829Y-64618821D01*
X132433302Y-64351815D01*
X132578235Y-64002776D01*
X132578273Y-63959123D01*
X132848008Y-63689388D01*
X133016007Y-63437960D01*
X133075000Y-63141380D01*
X133075000Y-62751011D01*
X138040635Y-62751011D01*
X138272314Y-63311715D01*
X138700929Y-63741079D01*
X139261228Y-63973735D01*
X139867911Y-63974265D01*
X140428615Y-63742586D01*
X140857979Y-63313971D01*
X141090635Y-62753672D01*
X141091165Y-62146989D01*
X140859486Y-61586285D01*
X140430871Y-61156921D01*
X139870572Y-60924265D01*
X139263889Y-60923735D01*
X138703185Y-61155414D01*
X138273821Y-61584029D01*
X138041165Y-62144328D01*
X138040635Y-62751011D01*
X133075000Y-62751011D01*
X133075000Y-59610119D01*
X133128138Y-59610165D01*
X133477429Y-59465841D01*
X133744902Y-59198835D01*
X133889835Y-58849796D01*
X133890165Y-58471862D01*
X133745841Y-58122571D01*
X133478835Y-57855098D01*
X133240064Y-57755952D01*
X138550046Y-52445970D01*
X138549835Y-52688138D01*
X138694159Y-53037429D01*
X138961165Y-53304902D01*
X139310204Y-53449835D01*
X139688138Y-53450165D01*
X140037429Y-53305841D01*
X140262028Y-53081634D01*
X140250165Y-53110204D01*
X140249835Y-53488138D01*
X140394159Y-53837429D01*
X140425000Y-53868324D01*
X140425000Y-56351298D01*
X140405098Y-56371165D01*
X140260165Y-56720204D01*
X140259835Y-57098138D01*
X140404159Y-57447429D01*
X140671165Y-57714902D01*
X141020204Y-57859835D01*
X141398138Y-57860165D01*
X141747429Y-57715841D01*
X141825000Y-57638405D01*
X141825000Y-63231315D01*
X141795098Y-63261165D01*
X141650165Y-63610204D01*
X141649835Y-63988138D01*
X141794159Y-64337429D01*
X141825000Y-64368324D01*
X141825000Y-73321449D01*
X141718835Y-73215098D01*
X141369796Y-73070165D01*
X140991862Y-73069835D01*
X140642571Y-73214159D01*
X140375098Y-73481165D01*
X140230165Y-73830204D01*
X140229835Y-74208138D01*
X140374159Y-74557429D01*
X140641165Y-74824902D01*
X140990204Y-74969835D01*
X141368138Y-74970165D01*
X141717429Y-74825841D01*
X141825000Y-74718458D01*
X141825000Y-76831315D01*
X141795098Y-76861165D01*
X141650165Y-77210204D01*
X141649835Y-77588138D01*
X141794159Y-77937429D01*
X141825000Y-77968324D01*
X141825000Y-87071396D01*
X141748835Y-86995098D01*
X141399796Y-86850165D01*
X141021862Y-86849835D01*
X140672571Y-86994159D01*
X140405098Y-87261165D01*
X140260165Y-87610204D01*
X140259835Y-87988138D01*
X140404159Y-88337429D01*
X140418481Y-88351776D01*
X139870572Y-88124265D01*
X139263889Y-88123735D01*
X138703185Y-88355414D01*
X138273821Y-88784029D01*
X138041165Y-89344328D01*
X138040635Y-89951011D01*
X138272314Y-90511715D01*
X138700929Y-90941079D01*
X139261228Y-91173735D01*
X139867911Y-91174265D01*
X140428615Y-90942586D01*
X140857979Y-90513971D01*
X141090635Y-89953672D01*
X141091165Y-89346989D01*
X140859486Y-88786285D01*
X140683555Y-88610047D01*
X141020204Y-88749835D01*
X141398138Y-88750165D01*
X141747429Y-88605841D01*
X141825000Y-88528405D01*
X141825000Y-90331490D01*
X141695098Y-90461165D01*
X141550165Y-90810204D01*
X141549835Y-91188138D01*
X141694159Y-91537429D01*
X141961165Y-91804902D01*
X142310204Y-91949835D01*
X142688138Y-91950165D01*
X143037429Y-91805841D01*
X143304902Y-91538835D01*
X143449835Y-91189796D01*
X143450165Y-90811862D01*
X143375000Y-90629949D01*
X143375000Y-87618586D01*
X143461165Y-87704902D01*
X143810204Y-87849835D01*
X144188138Y-87850165D01*
X144537429Y-87705841D01*
X144800000Y-87443728D01*
X144800000Y-93056272D01*
X144795098Y-93061165D01*
X144650165Y-93410204D01*
X144649835Y-93788138D01*
X144794159Y-94137429D01*
X145061165Y-94404902D01*
X145410204Y-94549835D01*
X145788138Y-94550165D01*
X146137429Y-94405841D01*
X146404902Y-94138835D01*
X146450000Y-94030226D01*
X146450000Y-96450033D01*
X71050000Y-96499967D01*
X71050000Y-59595809D01*
X71599934Y-59596289D01*
X72212480Y-59343190D01*
X72472094Y-59084028D01*
X72494159Y-59137429D01*
X72761165Y-59404902D01*
X73110204Y-59549835D01*
X73488138Y-59550165D01*
X73837429Y-59405841D01*
X74104902Y-59138835D01*
X74249835Y-58789796D01*
X74250165Y-58411862D01*
X74183299Y-58250034D01*
X74249835Y-58089796D01*
X74250165Y-57711862D01*
X74162588Y-57499910D01*
X74249835Y-57289796D01*
X74250165Y-56911862D01*
X74105841Y-56562571D01*
X73838835Y-56295098D01*
X73489796Y-56150165D01*
X73111862Y-56149835D01*
X72762571Y-56294159D01*
X72495098Y-56561165D01*
X72425323Y-56729203D01*
X72214945Y-56518457D01*
X71602842Y-56264290D01*
X71507811Y-56264207D01*
X71270000Y-56026396D01*
X71255858Y-56040539D01*
X71050000Y-55834681D01*
X71050000Y-55390000D01*
X71906396Y-55390000D01*
X72574278Y-56057882D01*
X72780757Y-55931398D01*
X72872942Y-55312046D01*
X72780757Y-54848602D01*
X72574278Y-54722118D01*
X71906396Y-55390000D01*
X71050000Y-55390000D01*
X71050000Y-54945319D01*
X71255858Y-54739462D01*
X71270000Y-54753604D01*
X71507396Y-54516208D01*
X71599934Y-54516289D01*
X72212480Y-54263190D01*
X72681543Y-53794945D01*
X72935710Y-53182842D01*
X72936289Y-52520066D01*
X72683190Y-51907520D01*
X72356081Y-51579839D01*
X72681543Y-51254945D01*
X72935710Y-50642842D01*
X72936289Y-49980066D01*
X72683190Y-49367520D01*
X72356081Y-49039839D01*
X72681543Y-48714945D01*
X72935710Y-48102842D01*
X72936289Y-47440066D01*
X72683190Y-46827520D01*
X72550925Y-46695024D01*
X74019916Y-46695024D01*
X74019835Y-46788138D01*
X74019835Y-46788138D01*
G37*
X74019835Y-46788138D02*
X74164159Y-47137429D01*
X74186810Y-47160119D01*
X74170165Y-47200204D01*
X74169835Y-47578138D01*
X74314159Y-47927429D01*
X74336810Y-47950119D01*
X74320165Y-47990204D01*
X74319835Y-48368138D01*
X74464159Y-48717429D01*
X74489742Y-48743057D01*
X74470165Y-48790204D01*
X74469835Y-49168138D01*
X74614159Y-49517429D01*
X74650934Y-49554269D01*
X74640165Y-49580204D01*
X74639835Y-49958138D01*
X74784159Y-50307429D01*
X75051165Y-50574902D01*
X75400204Y-50719835D01*
X75702521Y-50720099D01*
X75914962Y-50932540D01*
X75914962Y-64861524D01*
X75973955Y-65158104D01*
X76141954Y-65409532D01*
X98460436Y-87728014D01*
X98711864Y-87896013D01*
X99008444Y-87955006D01*
X105038990Y-87955006D01*
X105325014Y-88241030D01*
X105048185Y-88355414D01*
X104618821Y-88784029D01*
X104386165Y-89344328D01*
X104385635Y-89951011D01*
X104617314Y-90511715D01*
X105045929Y-90941079D01*
X105606228Y-91173735D01*
X106212911Y-91174265D01*
X106548379Y-91035652D01*
X106548235Y-91201118D01*
X106692559Y-91550409D01*
X106959565Y-91817882D01*
X107308604Y-91962815D01*
X107686538Y-91963145D01*
X108035829Y-91818821D01*
X108133336Y-91721484D01*
X108229565Y-91817882D01*
X108578604Y-91962815D01*
X108956538Y-91963145D01*
X109305829Y-91818821D01*
X109403336Y-91721484D01*
X109499565Y-91817882D01*
X109848604Y-91962815D01*
X110226538Y-91963145D01*
X110575829Y-91818821D01*
X110673336Y-91721484D01*
X110769565Y-91817882D01*
X111118604Y-91962815D01*
X111496538Y-91963145D01*
X111845829Y-91818821D01*
X111943336Y-91721484D01*
X112039565Y-91817882D01*
X112388604Y-91962815D01*
X112766538Y-91963145D01*
X113115829Y-91818821D01*
X113213336Y-91721484D01*
X113309565Y-91817882D01*
X113658604Y-91962815D01*
X114036538Y-91963145D01*
X114385829Y-91818821D01*
X114483336Y-91721484D01*
X114579565Y-91817882D01*
X114928604Y-91962815D01*
X115306538Y-91963145D01*
X115655829Y-91818821D01*
X115753336Y-91721484D01*
X115849565Y-91817882D01*
X116198604Y-91962815D01*
X116576538Y-91963145D01*
X116925829Y-91818821D01*
X117023336Y-91721484D01*
X117119565Y-91817882D01*
X117468604Y-91962815D01*
X117846538Y-91963145D01*
X118195829Y-91818821D01*
X118293336Y-91721484D01*
X118389565Y-91817882D01*
X118738604Y-91962815D01*
X119116538Y-91963145D01*
X119465829Y-91818821D01*
X119563336Y-91721484D01*
X119659565Y-91817882D01*
X120008604Y-91962815D01*
X120386538Y-91963145D01*
X120735829Y-91818821D01*
X120833336Y-91721484D01*
X120929565Y-91817882D01*
X121278604Y-91962815D01*
X121656538Y-91963145D01*
X122005829Y-91818821D01*
X122103336Y-91721484D01*
X122199565Y-91817882D01*
X122548604Y-91962815D01*
X122926538Y-91963145D01*
X123275829Y-91818821D01*
X123373336Y-91721484D01*
X123469565Y-91817882D01*
X123818604Y-91962815D01*
X124196538Y-91963145D01*
X124545829Y-91818821D01*
X124643336Y-91721484D01*
X124739565Y-91817882D01*
X125088604Y-91962815D01*
X125466538Y-91963145D01*
X125815829Y-91818821D01*
X125913336Y-91721484D01*
X126009565Y-91817882D01*
X126358604Y-91962815D01*
X126736538Y-91963145D01*
X127085829Y-91818821D01*
X127183336Y-91721484D01*
X127279565Y-91817882D01*
X127628604Y-91962815D01*
X128006538Y-91963145D01*
X128355829Y-91818821D01*
X128453336Y-91721484D01*
X128549565Y-91817882D01*
X128898604Y-91962815D01*
X129276538Y-91963145D01*
X129625829Y-91818821D01*
X129723336Y-91721484D01*
X129819565Y-91817882D01*
X130168604Y-91962815D01*
X130546538Y-91963145D01*
X130895829Y-91818821D01*
X131025627Y-91689249D01*
X131091165Y-91754902D01*
X131440204Y-91899835D01*
X131818138Y-91900165D01*
X132167429Y-91755841D01*
X132434902Y-91488835D01*
X132579835Y-91139796D01*
X132580165Y-90761862D01*
X132435841Y-90412571D01*
X132168835Y-90145098D01*
X131819796Y-90000165D01*
X131776143Y-90000127D01*
X131765000Y-89988984D01*
X131765000Y-89270119D01*
X131818138Y-89270165D01*
X132167429Y-89125841D01*
X132434902Y-88858835D01*
X132579835Y-88509796D01*
X132580165Y-88131862D01*
X132435841Y-87782571D01*
X132168835Y-87515098D01*
X131819796Y-87370165D01*
X131707329Y-87370067D01*
X131706007Y-87363420D01*
X131538008Y-87111992D01*
X122789041Y-78363025D01*
X122926538Y-78363145D01*
X123275829Y-78218821D01*
X123373336Y-78121484D01*
X123469565Y-78217882D01*
X123818604Y-78362815D01*
X124196538Y-78363145D01*
X124545829Y-78218821D01*
X124643336Y-78121484D01*
X124739565Y-78217882D01*
X125088604Y-78362815D01*
X125466538Y-78363145D01*
X125815829Y-78218821D01*
X125913336Y-78121484D01*
X126009565Y-78217882D01*
X126358604Y-78362815D01*
X126736538Y-78363145D01*
X127085829Y-78218821D01*
X127183336Y-78121484D01*
X127279565Y-78217882D01*
X127628604Y-78362815D01*
X128006538Y-78363145D01*
X128355829Y-78218821D01*
X128453336Y-78121484D01*
X128549565Y-78217882D01*
X128898604Y-78362815D01*
X129276538Y-78363145D01*
X129625829Y-78218821D01*
X129723336Y-78121484D01*
X129819565Y-78217882D01*
X130168604Y-78362815D01*
X130546538Y-78363145D01*
X130895829Y-78218821D01*
X130993336Y-78121484D01*
X131089565Y-78217882D01*
X131438604Y-78362815D01*
X131816538Y-78363145D01*
X132165829Y-78218821D01*
X132433302Y-77951815D01*
X132578235Y-77602776D01*
X132578565Y-77224842D01*
X132434241Y-76875551D01*
X132403400Y-76844656D01*
X132403400Y-76351011D01*
X138040635Y-76351011D01*
X138272314Y-76911715D01*
X138700929Y-77341079D01*
X139261228Y-77573735D01*
X139867911Y-77574265D01*
X140428615Y-77342586D01*
X140857979Y-76913971D01*
X141090635Y-76353672D01*
X141091165Y-75746989D01*
X140859486Y-75186285D01*
X140430871Y-74756921D01*
X139870572Y-74524265D01*
X139263889Y-74523735D01*
X138703185Y-74755414D01*
X138273821Y-75184029D01*
X138041165Y-75744328D01*
X138040635Y-76351011D01*
X132403400Y-76351011D01*
X132403400Y-76053000D01*
X132344407Y-75756420D01*
X132176408Y-75504992D01*
X132163316Y-75491900D01*
X132165829Y-75490861D01*
X132433302Y-75223855D01*
X132578235Y-74874816D01*
X132578565Y-74496882D01*
X132434241Y-74147591D01*
X132167235Y-73880118D01*
X131818196Y-73735185D01*
X131697070Y-73735079D01*
X131548008Y-73511992D01*
X122796066Y-64760050D01*
X122928138Y-64760165D01*
X123277429Y-64615841D01*
X123372644Y-64520792D01*
X123469565Y-64617882D01*
X123818604Y-64762815D01*
X124196538Y-64763145D01*
X124545829Y-64618821D01*
X124643336Y-64521484D01*
X124739565Y-64617882D01*
X125088604Y-64762815D01*
X125466538Y-64763145D01*
X125815829Y-64618821D01*
X125913336Y-64521484D01*
X126009565Y-64617882D01*
X126358604Y-64762815D01*
X126736538Y-64763145D01*
X127085829Y-64618821D01*
X127183336Y-64521484D01*
X127279565Y-64617882D01*
X127628604Y-64762815D01*
X128006538Y-64763145D01*
X128355829Y-64618821D01*
X128475636Y-64499223D01*
X128561165Y-64584902D01*
X128910204Y-64729835D01*
X129288138Y-64730165D01*
X129637429Y-64585841D01*
X129712636Y-64510766D01*
X129819565Y-64617882D01*
X130168604Y-64762815D01*
X130546538Y-64763145D01*
X130895829Y-64618821D01*
X130993336Y-64521484D01*
X131089565Y-64617882D01*
X131438604Y-64762815D01*
X131816538Y-64763145D01*
X132165829Y-64618821D01*
X132433302Y-64351815D01*
X132578235Y-64002776D01*
X132578273Y-63959123D01*
X132848008Y-63689388D01*
X133016007Y-63437960D01*
X133075000Y-63141380D01*
X133075000Y-62751011D01*
X138040635Y-62751011D01*
X138272314Y-63311715D01*
X138700929Y-63741079D01*
X139261228Y-63973735D01*
X139867911Y-63974265D01*
X140428615Y-63742586D01*
X140857979Y-63313971D01*
X141090635Y-62753672D01*
X141091165Y-62146989D01*
X140859486Y-61586285D01*
X140430871Y-61156921D01*
X139870572Y-60924265D01*
X139263889Y-60923735D01*
X138703185Y-61155414D01*
X138273821Y-61584029D01*
X138041165Y-62144328D01*
X138040635Y-62751011D01*
X133075000Y-62751011D01*
X133075000Y-59610119D01*
X133128138Y-59610165D01*
X133477429Y-59465841D01*
X133744902Y-59198835D01*
X133889835Y-58849796D01*
X133890165Y-58471862D01*
X133745841Y-58122571D01*
X133478835Y-57855098D01*
X133240064Y-57755952D01*
X138550046Y-52445970D01*
X138549835Y-52688138D01*
X138694159Y-53037429D01*
X138961165Y-53304902D01*
X139310204Y-53449835D01*
X139688138Y-53450165D01*
X140037429Y-53305841D01*
X140262028Y-53081634D01*
X140250165Y-53110204D01*
X140249835Y-53488138D01*
X140394159Y-53837429D01*
X140425000Y-53868324D01*
X140425000Y-56351298D01*
X140405098Y-56371165D01*
X140260165Y-56720204D01*
X140259835Y-57098138D01*
X140404159Y-57447429D01*
X140671165Y-57714902D01*
X141020204Y-57859835D01*
X141398138Y-57860165D01*
X141747429Y-57715841D01*
X141825000Y-57638405D01*
X141825000Y-63231315D01*
X141795098Y-63261165D01*
X141650165Y-63610204D01*
X141649835Y-63988138D01*
X141794159Y-64337429D01*
X141825000Y-64368324D01*
X141825000Y-73321449D01*
X141718835Y-73215098D01*
X141369796Y-73070165D01*
X140991862Y-73069835D01*
X140642571Y-73214159D01*
X140375098Y-73481165D01*
X140230165Y-73830204D01*
X140229835Y-74208138D01*
X140374159Y-74557429D01*
X140641165Y-74824902D01*
X140990204Y-74969835D01*
X141368138Y-74970165D01*
X141717429Y-74825841D01*
X141825000Y-74718458D01*
X141825000Y-76831315D01*
X141795098Y-76861165D01*
X141650165Y-77210204D01*
X141649835Y-77588138D01*
X141794159Y-77937429D01*
X141825000Y-77968324D01*
X141825000Y-87071396D01*
X141748835Y-86995098D01*
X141399796Y-86850165D01*
X141021862Y-86849835D01*
X140672571Y-86994159D01*
X140405098Y-87261165D01*
X140260165Y-87610204D01*
X140259835Y-87988138D01*
X140404159Y-88337429D01*
X140418481Y-88351776D01*
X139870572Y-88124265D01*
X139263889Y-88123735D01*
X138703185Y-88355414D01*
X138273821Y-88784029D01*
X138041165Y-89344328D01*
X138040635Y-89951011D01*
X138272314Y-90511715D01*
X138700929Y-90941079D01*
X139261228Y-91173735D01*
X139867911Y-91174265D01*
X140428615Y-90942586D01*
X140857979Y-90513971D01*
X141090635Y-89953672D01*
X141091165Y-89346989D01*
X140859486Y-88786285D01*
X140683555Y-88610047D01*
X141020204Y-88749835D01*
X141398138Y-88750165D01*
X141747429Y-88605841D01*
X141825000Y-88528405D01*
X141825000Y-90331490D01*
X141695098Y-90461165D01*
X141550165Y-90810204D01*
X141549835Y-91188138D01*
X141694159Y-91537429D01*
X141961165Y-91804902D01*
X142310204Y-91949835D01*
X142688138Y-91950165D01*
X143037429Y-91805841D01*
X143304902Y-91538835D01*
X143449835Y-91189796D01*
X143450165Y-90811862D01*
X143375000Y-90629949D01*
X143375000Y-87618586D01*
X143461165Y-87704902D01*
X143810204Y-87849835D01*
X144188138Y-87850165D01*
X144537429Y-87705841D01*
X144800000Y-87443728D01*
X144800000Y-93056272D01*
X144795098Y-93061165D01*
X144650165Y-93410204D01*
X144649835Y-93788138D01*
X144794159Y-94137429D01*
X145061165Y-94404902D01*
X145410204Y-94549835D01*
X145788138Y-94550165D01*
X146137429Y-94405841D01*
X146404902Y-94138835D01*
X146450000Y-94030226D01*
X146450000Y-96450033D01*
X71050000Y-96499967D01*
X71050000Y-59595809D01*
X71599934Y-59596289D01*
X72212480Y-59343190D01*
X72472094Y-59084028D01*
X72494159Y-59137429D01*
X72761165Y-59404902D01*
X73110204Y-59549835D01*
X73488138Y-59550165D01*
X73837429Y-59405841D01*
X74104902Y-59138835D01*
X74249835Y-58789796D01*
X74250165Y-58411862D01*
X74183299Y-58250034D01*
X74249835Y-58089796D01*
X74250165Y-57711862D01*
X74162588Y-57499910D01*
X74249835Y-57289796D01*
X74250165Y-56911862D01*
X74105841Y-56562571D01*
X73838835Y-56295098D01*
X73489796Y-56150165D01*
X73111862Y-56149835D01*
X72762571Y-56294159D01*
X72495098Y-56561165D01*
X72425323Y-56729203D01*
X72214945Y-56518457D01*
X71602842Y-56264290D01*
X71507811Y-56264207D01*
X71270000Y-56026396D01*
X71255858Y-56040539D01*
X71050000Y-55834681D01*
X71050000Y-55390000D01*
X71906396Y-55390000D01*
X72574278Y-56057882D01*
X72780757Y-55931398D01*
X72872942Y-55312046D01*
X72780757Y-54848602D01*
X72574278Y-54722118D01*
X71906396Y-55390000D01*
X71050000Y-55390000D01*
X71050000Y-54945319D01*
X71255858Y-54739462D01*
X71270000Y-54753604D01*
X71507396Y-54516208D01*
X71599934Y-54516289D01*
X72212480Y-54263190D01*
X72681543Y-53794945D01*
X72935710Y-53182842D01*
X72936289Y-52520066D01*
X72683190Y-51907520D01*
X72356081Y-51579839D01*
X72681543Y-51254945D01*
X72935710Y-50642842D01*
X72936289Y-49980066D01*
X72683190Y-49367520D01*
X72356081Y-49039839D01*
X72681543Y-48714945D01*
X72935710Y-48102842D01*
X72936289Y-47440066D01*
X72683190Y-46827520D01*
X72550925Y-46695024D01*
X74019916Y-46695024D01*
X74019835Y-46788138D01*
G36*
X111773330Y-43146122D02*
X111813604Y-43206396D01*
X112105585Y-43401492D01*
X112450000Y-43470000D01*
X114262707Y-43470000D01*
X114250165Y-43500204D01*
X114249835Y-43878138D01*
X114394159Y-44227429D01*
X114661165Y-44494902D01*
X115010204Y-44639835D01*
X115388138Y-44640165D01*
X115737429Y-44495841D01*
X116004902Y-44228835D01*
X116149835Y-43879796D01*
X116150165Y-43501862D01*
X116137000Y-43470000D01*
X120013896Y-43470000D01*
X120255584Y-43631492D01*
X120389214Y-43658072D01*
X120610204Y-43749835D01*
X120988138Y-43750165D01*
X121100067Y-43703917D01*
X107581992Y-57221992D01*
X107413993Y-57473420D01*
X107355000Y-57770000D01*
X107355000Y-60134894D01*
X107310262Y-60134855D01*
X106960971Y-60279179D01*
X106693498Y-60546185D01*
X106548565Y-60895224D01*
X106548419Y-61062475D01*
X106215572Y-60924265D01*
X105608889Y-60923735D01*
X105048185Y-61155414D01*
X104945000Y-61258419D01*
X104945000Y-46691016D01*
X110068005Y-41568010D01*
X110068008Y-41568008D01*
X110118960Y-41491752D01*
X111773330Y-43146122D01*
X111773330Y-43146122D01*
G37*
X111773330Y-43146122D02*
X111813604Y-43206396D01*
X112105585Y-43401492D01*
X112450000Y-43470000D01*
X114262707Y-43470000D01*
X114250165Y-43500204D01*
X114249835Y-43878138D01*
X114394159Y-44227429D01*
X114661165Y-44494902D01*
X115010204Y-44639835D01*
X115388138Y-44640165D01*
X115737429Y-44495841D01*
X116004902Y-44228835D01*
X116149835Y-43879796D01*
X116150165Y-43501862D01*
X116137000Y-43470000D01*
X120013896Y-43470000D01*
X120255584Y-43631492D01*
X120389214Y-43658072D01*
X120610204Y-43749835D01*
X120988138Y-43750165D01*
X121100067Y-43703917D01*
X107581992Y-57221992D01*
X107413993Y-57473420D01*
X107355000Y-57770000D01*
X107355000Y-60134894D01*
X107310262Y-60134855D01*
X106960971Y-60279179D01*
X106693498Y-60546185D01*
X106548565Y-60895224D01*
X106548419Y-61062475D01*
X106215572Y-60924265D01*
X105608889Y-60923735D01*
X105048185Y-61155414D01*
X104945000Y-61258419D01*
X104945000Y-46691016D01*
X110068005Y-41568010D01*
X110068008Y-41568008D01*
X110118960Y-41491752D01*
X111773330Y-43146122D01*
G36*
X153275000Y-41950000D02*
X151743189Y-41950000D01*
X151521214Y-41727637D01*
X150535823Y-41318467D01*
X149678297Y-41317719D01*
X150048008Y-40948008D01*
X150216007Y-40696580D01*
X150275000Y-40400000D01*
X150275000Y-39168685D01*
X150304902Y-39138835D01*
X150449835Y-38789796D01*
X150450165Y-38411862D01*
X150305841Y-38062571D01*
X150038835Y-37795098D01*
X149689796Y-37650165D01*
X149311862Y-37649835D01*
X148962571Y-37794159D01*
X148695098Y-38061165D01*
X148603287Y-38282271D01*
X148500128Y-38179112D01*
X148500165Y-38136862D01*
X148355841Y-37787571D01*
X148088835Y-37520098D01*
X147739796Y-37375165D01*
X147361862Y-37374835D01*
X147012571Y-37519159D01*
X146893041Y-37638480D01*
X146792235Y-37537498D01*
X146443196Y-37392565D01*
X146065262Y-37392235D01*
X145715971Y-37536559D01*
X145618464Y-37633896D01*
X145522235Y-37537498D01*
X145173196Y-37392565D01*
X144795262Y-37392235D01*
X144445971Y-37536559D01*
X144348464Y-37633896D01*
X144252235Y-37537498D01*
X143903196Y-37392565D01*
X143525262Y-37392235D01*
X143175971Y-37536559D01*
X143078464Y-37633896D01*
X142982235Y-37537498D01*
X142633196Y-37392565D01*
X142255262Y-37392235D01*
X141905971Y-37536559D01*
X141808464Y-37633896D01*
X141712235Y-37537498D01*
X141363196Y-37392565D01*
X140985262Y-37392235D01*
X140635971Y-37536559D01*
X140538464Y-37633896D01*
X140442235Y-37537498D01*
X140093196Y-37392565D01*
X139715262Y-37392235D01*
X139365971Y-37536559D01*
X139268464Y-37633896D01*
X139172235Y-37537498D01*
X138823196Y-37392565D01*
X138445262Y-37392235D01*
X138095971Y-37536559D01*
X137998464Y-37633896D01*
X137902235Y-37537498D01*
X137553196Y-37392565D01*
X137175262Y-37392235D01*
X136825971Y-37536559D01*
X136728464Y-37633896D01*
X136632235Y-37537498D01*
X136283196Y-37392565D01*
X135905262Y-37392235D01*
X135555971Y-37536559D01*
X135458464Y-37633896D01*
X135362235Y-37537498D01*
X135013196Y-37392565D01*
X134635262Y-37392235D01*
X134285971Y-37536559D01*
X134188464Y-37633896D01*
X134092235Y-37537498D01*
X133743196Y-37392565D01*
X133365262Y-37392235D01*
X133015971Y-37536559D01*
X132918464Y-37633896D01*
X132822235Y-37537498D01*
X132473196Y-37392565D01*
X132095262Y-37392235D01*
X131745971Y-37536559D01*
X131648464Y-37633896D01*
X131552235Y-37537498D01*
X131203196Y-37392565D01*
X130825262Y-37392235D01*
X130475971Y-37536559D01*
X130378464Y-37633896D01*
X130282235Y-37537498D01*
X129933196Y-37392565D01*
X129555262Y-37392235D01*
X129205971Y-37536559D01*
X129108464Y-37633896D01*
X129012235Y-37537498D01*
X128663196Y-37392565D01*
X128285262Y-37392235D01*
X127935971Y-37536559D01*
X127838464Y-37633896D01*
X127742235Y-37537498D01*
X127393196Y-37392565D01*
X127015262Y-37392235D01*
X126665971Y-37536559D01*
X126568464Y-37633896D01*
X126472235Y-37537498D01*
X126123196Y-37392565D01*
X125745262Y-37392235D01*
X125395971Y-37536559D01*
X125298464Y-37633896D01*
X125202235Y-37537498D01*
X124853196Y-37392565D01*
X124475262Y-37392235D01*
X124125971Y-37536559D01*
X123858498Y-37803565D01*
X123713565Y-38152604D01*
X123713235Y-38530538D01*
X123857559Y-38879829D01*
X124081895Y-39104558D01*
X123858498Y-39327565D01*
X123713565Y-39676604D01*
X123713235Y-40054538D01*
X123857559Y-40403829D01*
X124124565Y-40671302D01*
X124130300Y-40673684D01*
X121704139Y-43099845D01*
X121749835Y-42989796D01*
X121750165Y-42611862D01*
X121605841Y-42262571D01*
X121338835Y-41995098D01*
X120989796Y-41850165D01*
X120881379Y-41850070D01*
X120750034Y-41762308D01*
X120750165Y-41611862D01*
X120605841Y-41262571D01*
X120338835Y-40995098D01*
X119989796Y-40850165D01*
X119950132Y-40850130D01*
X119950165Y-40811862D01*
X119805841Y-40462571D01*
X119538835Y-40195098D01*
X119189796Y-40050165D01*
X118811862Y-40049835D01*
X118462571Y-40194159D01*
X118331501Y-40325000D01*
X116130953Y-40325000D01*
X116189835Y-40183196D01*
X116190165Y-39805262D01*
X116045841Y-39455971D01*
X115821505Y-39231242D01*
X116044902Y-39008235D01*
X116189835Y-38659196D01*
X116190165Y-38281262D01*
X116045841Y-37931971D01*
X115778835Y-37664498D01*
X115429796Y-37519565D01*
X115051862Y-37519235D01*
X114702571Y-37663559D01*
X114605064Y-37760896D01*
X114508835Y-37664498D01*
X114159796Y-37519565D01*
X113781862Y-37519235D01*
X113432571Y-37663559D01*
X113165098Y-37930565D01*
X113020165Y-38279604D01*
X113019835Y-38657538D01*
X113164159Y-39006829D01*
X113388495Y-39231558D01*
X113335064Y-39284896D01*
X113238835Y-39188498D01*
X112889796Y-39043565D01*
X112511862Y-39043235D01*
X112162571Y-39187559D01*
X112065064Y-39284896D01*
X112011505Y-39231242D01*
X112234902Y-39008235D01*
X112379835Y-38659196D01*
X112380165Y-38281262D01*
X112235841Y-37931971D01*
X111968835Y-37664498D01*
X111619796Y-37519565D01*
X111241862Y-37519235D01*
X110892571Y-37663559D01*
X110625098Y-37930565D01*
X110480165Y-38279604D01*
X110479835Y-38657538D01*
X110624159Y-39006829D01*
X110848495Y-39231558D01*
X110795064Y-39284896D01*
X110698835Y-39188498D01*
X110349796Y-39043565D01*
X110295000Y-39043517D01*
X110295000Y-39040274D01*
X110305000Y-38990000D01*
X110246007Y-38693420D01*
X110078008Y-38441992D01*
X110068008Y-38431992D01*
X110068005Y-38431990D01*
X109785868Y-38149852D01*
X109695841Y-37931971D01*
X109428835Y-37664498D01*
X109079796Y-37519565D01*
X108701862Y-37519235D01*
X108352571Y-37663559D01*
X108255064Y-37760896D01*
X108158835Y-37664498D01*
X107809796Y-37519565D01*
X107431862Y-37519235D01*
X107082571Y-37663559D01*
X106985064Y-37760896D01*
X106888835Y-37664498D01*
X106539796Y-37519565D01*
X106161862Y-37519235D01*
X105812571Y-37663559D01*
X105715064Y-37760896D01*
X105618835Y-37664498D01*
X105269796Y-37519565D01*
X104891862Y-37519235D01*
X104542571Y-37663559D01*
X104445064Y-37760896D01*
X104348835Y-37664498D01*
X103999796Y-37519565D01*
X103621862Y-37519235D01*
X103272571Y-37663559D01*
X103175064Y-37760896D01*
X103078835Y-37664498D01*
X102729796Y-37519565D01*
X102351862Y-37519235D01*
X102002571Y-37663559D01*
X101905064Y-37760896D01*
X101808835Y-37664498D01*
X101459796Y-37519565D01*
X101081862Y-37519235D01*
X100732571Y-37663559D01*
X100635064Y-37760896D01*
X100538835Y-37664498D01*
X100189796Y-37519565D01*
X99811862Y-37519235D01*
X99462571Y-37663559D01*
X99365064Y-37760896D01*
X99268835Y-37664498D01*
X98919796Y-37519565D01*
X98541862Y-37519235D01*
X98192571Y-37663559D01*
X98095064Y-37760896D01*
X97998835Y-37664498D01*
X97649796Y-37519565D01*
X97271862Y-37519235D01*
X96922571Y-37663559D01*
X96825064Y-37760896D01*
X96728835Y-37664498D01*
X96379796Y-37519565D01*
X96001862Y-37519235D01*
X95652571Y-37663559D01*
X95555064Y-37760896D01*
X95458835Y-37664498D01*
X95109796Y-37519565D01*
X94731862Y-37519235D01*
X94382571Y-37663559D01*
X94285064Y-37760896D01*
X94188835Y-37664498D01*
X93839796Y-37519565D01*
X93461862Y-37519235D01*
X93112571Y-37663559D01*
X93015064Y-37760896D01*
X92918835Y-37664498D01*
X92569796Y-37519565D01*
X92191862Y-37519235D01*
X91842571Y-37663559D01*
X91745064Y-37760896D01*
X91648835Y-37664498D01*
X91299796Y-37519565D01*
X90921862Y-37519235D01*
X90572571Y-37663559D01*
X90475064Y-37760896D01*
X90378835Y-37664498D01*
X90029796Y-37519565D01*
X89651862Y-37519235D01*
X89302571Y-37663559D01*
X89205064Y-37760896D01*
X89108835Y-37664498D01*
X88759796Y-37519565D01*
X88381862Y-37519235D01*
X88032571Y-37663559D01*
X87935064Y-37760896D01*
X87838835Y-37664498D01*
X87489796Y-37519565D01*
X87111862Y-37519235D01*
X86762571Y-37663559D01*
X86665064Y-37760896D01*
X86568835Y-37664498D01*
X86219796Y-37519565D01*
X85841862Y-37519235D01*
X85492571Y-37663559D01*
X85395064Y-37760896D01*
X85298835Y-37664498D01*
X84949796Y-37519565D01*
X84571862Y-37519235D01*
X84222571Y-37663559D01*
X83955098Y-37930565D01*
X83810165Y-38279604D01*
X83809835Y-38657538D01*
X83954159Y-39006829D01*
X84178495Y-39231558D01*
X83955098Y-39454565D01*
X83810165Y-39803604D01*
X83809835Y-40181538D01*
X83954159Y-40530829D01*
X84221165Y-40798302D01*
X84570204Y-40943235D01*
X84848965Y-40943478D01*
X84851992Y-40948008D01*
X86484136Y-42580151D01*
X86121862Y-42579835D01*
X85772571Y-42724159D01*
X85505098Y-42991165D01*
X85360165Y-43340204D01*
X85359835Y-43718138D01*
X85504159Y-44067429D01*
X85771165Y-44334902D01*
X86113018Y-44476851D01*
X86204159Y-44697429D01*
X86471165Y-44964902D01*
X86656095Y-45041691D01*
X86774159Y-45327429D01*
X87041165Y-45594902D01*
X87390204Y-45739835D01*
X87768138Y-45740165D01*
X88117429Y-45595841D01*
X88384902Y-45328835D01*
X88529835Y-44979796D01*
X88530144Y-44626159D01*
X92551990Y-48648005D01*
X92551992Y-48648008D01*
X92792065Y-48808420D01*
X92803420Y-48816007D01*
X92932334Y-48841650D01*
X86015000Y-55758984D01*
X86015000Y-47070000D01*
X85956007Y-46773420D01*
X85788008Y-46521992D01*
X77060408Y-37794392D01*
X76808980Y-37626393D01*
X76512400Y-37567400D01*
X75905285Y-37567400D01*
X75875435Y-37537498D01*
X75526396Y-37392565D01*
X75148462Y-37392235D01*
X74799171Y-37536559D01*
X74701664Y-37633896D01*
X74605435Y-37537498D01*
X74256396Y-37392565D01*
X73878462Y-37392235D01*
X73529171Y-37536559D01*
X73439100Y-37626473D01*
X73438980Y-37626393D01*
X73420507Y-37622718D01*
X73335435Y-37537498D01*
X72986396Y-37392565D01*
X72608462Y-37392235D01*
X72259171Y-37536559D01*
X72161664Y-37633896D01*
X72065435Y-37537498D01*
X71716396Y-37392565D01*
X71338462Y-37392235D01*
X70989171Y-37536559D01*
X70891664Y-37633896D01*
X70795435Y-37537498D01*
X70446396Y-37392565D01*
X70068462Y-37392235D01*
X69719171Y-37536559D01*
X69621664Y-37633896D01*
X69525435Y-37537498D01*
X69176396Y-37392565D01*
X68798462Y-37392235D01*
X68449171Y-37536559D01*
X68351664Y-37633896D01*
X68255435Y-37537498D01*
X67906396Y-37392565D01*
X67528462Y-37392235D01*
X67179171Y-37536559D01*
X67081664Y-37633896D01*
X66985435Y-37537498D01*
X66636396Y-37392565D01*
X66258462Y-37392235D01*
X65909171Y-37536559D01*
X65811664Y-37633896D01*
X65715435Y-37537498D01*
X65366396Y-37392565D01*
X64988462Y-37392235D01*
X64639171Y-37536559D01*
X64541664Y-37633896D01*
X64445435Y-37537498D01*
X64096396Y-37392565D01*
X63718462Y-37392235D01*
X63369171Y-37536559D01*
X63271664Y-37633896D01*
X63175435Y-37537498D01*
X62826396Y-37392565D01*
X62448462Y-37392235D01*
X62099171Y-37536559D01*
X62001664Y-37633896D01*
X61905435Y-37537498D01*
X61556396Y-37392565D01*
X61178462Y-37392235D01*
X60829171Y-37536559D01*
X60731664Y-37633896D01*
X60635435Y-37537498D01*
X60286396Y-37392565D01*
X59908462Y-37392235D01*
X59559171Y-37536559D01*
X59461664Y-37633896D01*
X59365435Y-37537498D01*
X59016396Y-37392565D01*
X58638462Y-37392235D01*
X58289171Y-37536559D01*
X58191664Y-37633896D01*
X58095435Y-37537498D01*
X57746396Y-37392565D01*
X57368462Y-37392235D01*
X57019171Y-37536559D01*
X56921664Y-37633896D01*
X56825435Y-37537498D01*
X56476396Y-37392565D01*
X56098462Y-37392235D01*
X55749171Y-37536559D01*
X55651664Y-37633896D01*
X55555435Y-37537498D01*
X55243409Y-37407934D01*
X55329835Y-37199796D01*
X55330165Y-36821862D01*
X55185841Y-36472571D01*
X55163031Y-36449721D01*
X77424291Y-36449721D01*
X77494083Y-36634173D01*
X77962014Y-36713480D01*
X78360717Y-36634173D01*
X78430509Y-36449721D01*
X81666091Y-36449721D01*
X81735883Y-36634173D01*
X82203814Y-36713480D01*
X82602517Y-36634173D01*
X82672309Y-36449721D01*
X117327691Y-36449721D01*
X117397483Y-36634173D01*
X117865414Y-36713480D01*
X118264117Y-36634173D01*
X118333909Y-36449721D01*
X121569491Y-36449721D01*
X121639283Y-36634173D01*
X122107214Y-36713480D01*
X122505917Y-36634173D01*
X122575709Y-36449721D01*
X150881091Y-36449721D01*
X150950883Y-36634173D01*
X151418814Y-36713480D01*
X151817517Y-36634173D01*
X151887309Y-36449721D01*
X151384200Y-35946613D01*
X150881091Y-36449721D01*
X122575709Y-36449721D01*
X122072600Y-35946613D01*
X121569491Y-36449721D01*
X118333909Y-36449721D01*
X117830800Y-35946613D01*
X117327691Y-36449721D01*
X82672309Y-36449721D01*
X82169200Y-35946613D01*
X81666091Y-36449721D01*
X78430509Y-36449721D01*
X77927400Y-35946613D01*
X77424291Y-36449721D01*
X55163031Y-36449721D01*
X54918835Y-36205098D01*
X54569796Y-36060165D01*
X54191862Y-36059835D01*
X53842571Y-36204159D01*
X53632288Y-36414075D01*
X53309796Y-36280165D01*
X52931862Y-36279835D01*
X52582571Y-36424159D01*
X52455064Y-36551443D01*
X52388835Y-36485098D01*
X52039796Y-36340165D01*
X51661862Y-36339835D01*
X51312571Y-36484159D01*
X51045098Y-36751165D01*
X50900165Y-37100204D01*
X50899867Y-37441237D01*
X50669171Y-37536559D01*
X50401698Y-37803565D01*
X50256765Y-38152604D01*
X50256435Y-38530538D01*
X50400759Y-38879829D01*
X50625095Y-39104558D01*
X50401698Y-39327565D01*
X50256765Y-39676604D01*
X50256435Y-40054538D01*
X50400759Y-40403829D01*
X50667765Y-40671302D01*
X51016804Y-40816235D01*
X51094101Y-40816302D01*
X51123993Y-40966580D01*
X51219903Y-41110119D01*
X51219835Y-41188138D01*
X51364159Y-41537429D01*
X51631165Y-41804902D01*
X51980204Y-41949835D01*
X52358138Y-41950165D01*
X52707429Y-41805841D01*
X52854997Y-41658531D01*
X52971165Y-41774902D01*
X53320204Y-41919835D01*
X53698138Y-41920165D01*
X53993460Y-41798140D01*
X54190204Y-41879835D01*
X54568138Y-41880165D01*
X54917429Y-41735841D01*
X54964953Y-41688400D01*
X55131165Y-41854902D01*
X55480204Y-41999835D01*
X55858138Y-42000165D01*
X56207429Y-41855841D01*
X56249918Y-41813426D01*
X56381165Y-41944902D01*
X56730204Y-42089835D01*
X57108138Y-42090165D01*
X57457429Y-41945841D01*
X57724902Y-41678835D01*
X57869835Y-41329796D01*
X57869847Y-41315863D01*
X62003984Y-45450000D01*
X53341789Y-45450000D01*
X53449835Y-45189796D01*
X53450165Y-44811862D01*
X53305841Y-44462571D01*
X53038835Y-44195098D01*
X52689796Y-44050165D01*
X52681957Y-44050158D01*
X52682464Y-43468858D01*
X52275014Y-42482754D01*
X51521214Y-41727637D01*
X50535823Y-41318467D01*
X49468858Y-41317536D01*
X48482754Y-41724986D01*
X47727637Y-42478786D01*
X47318467Y-43464177D01*
X47318207Y-43761962D01*
X47289796Y-43750165D01*
X46911862Y-43749835D01*
X46725000Y-43827045D01*
X46725000Y-36449721D01*
X48112691Y-36449721D01*
X48182483Y-36634173D01*
X48650414Y-36713480D01*
X49049117Y-36634173D01*
X49118909Y-36449721D01*
X48615800Y-35946613D01*
X48112691Y-36449721D01*
X46725000Y-36449721D01*
X46725000Y-35532214D01*
X47399920Y-35532214D01*
X47479227Y-35930917D01*
X47663679Y-36000709D01*
X48166787Y-35497600D01*
X49064813Y-35497600D01*
X49567921Y-36000709D01*
X49752373Y-35930917D01*
X49819946Y-35532214D01*
X76711520Y-35532214D01*
X76790827Y-35930917D01*
X76975279Y-36000709D01*
X77478387Y-35497600D01*
X78376413Y-35497600D01*
X78879521Y-36000709D01*
X79063973Y-35930917D01*
X79131546Y-35532214D01*
X80953320Y-35532214D01*
X81032627Y-35930917D01*
X81217079Y-36000709D01*
X81720187Y-35497600D01*
X82618213Y-35497600D01*
X83121321Y-36000709D01*
X83305773Y-35930917D01*
X83373346Y-35532214D01*
X116614920Y-35532214D01*
X116694227Y-35930917D01*
X116878679Y-36000709D01*
X117381787Y-35497600D01*
X118279813Y-35497600D01*
X118782921Y-36000709D01*
X118967373Y-35930917D01*
X119034946Y-35532214D01*
X120856720Y-35532214D01*
X120936027Y-35930917D01*
X121120479Y-36000709D01*
X121623587Y-35497600D01*
X122521613Y-35497600D01*
X123024721Y-36000709D01*
X123209173Y-35930917D01*
X123276746Y-35532214D01*
X150168320Y-35532214D01*
X150247627Y-35930917D01*
X150432079Y-36000709D01*
X150935187Y-35497600D01*
X151833213Y-35497600D01*
X152336321Y-36000709D01*
X152520773Y-35930917D01*
X152600080Y-35462986D01*
X152520773Y-35064283D01*
X152336321Y-34994491D01*
X151833213Y-35497600D01*
X150935187Y-35497600D01*
X150432079Y-34994491D01*
X150247627Y-35064283D01*
X150168320Y-35532214D01*
X123276746Y-35532214D01*
X123288480Y-35462986D01*
X123209173Y-35064283D01*
X123024721Y-34994491D01*
X122521613Y-35497600D01*
X121623587Y-35497600D01*
X121120479Y-34994491D01*
X120936027Y-35064283D01*
X120856720Y-35532214D01*
X119034946Y-35532214D01*
X119046680Y-35462986D01*
X118967373Y-35064283D01*
X118782921Y-34994491D01*
X118279813Y-35497600D01*
X117381787Y-35497600D01*
X116878679Y-34994491D01*
X116694227Y-35064283D01*
X116614920Y-35532214D01*
X83373346Y-35532214D01*
X83385080Y-35462986D01*
X83305773Y-35064283D01*
X83121321Y-34994491D01*
X82618213Y-35497600D01*
X81720187Y-35497600D01*
X81217079Y-34994491D01*
X81032627Y-35064283D01*
X80953320Y-35532214D01*
X79131546Y-35532214D01*
X79143280Y-35462986D01*
X79063973Y-35064283D01*
X78879521Y-34994491D01*
X78376413Y-35497600D01*
X77478387Y-35497600D01*
X76975279Y-34994491D01*
X76790827Y-35064283D01*
X76711520Y-35532214D01*
X49819946Y-35532214D01*
X49831680Y-35462986D01*
X49752373Y-35064283D01*
X49567921Y-34994491D01*
X49064813Y-35497600D01*
X48166787Y-35497600D01*
X47663679Y-34994491D01*
X47479227Y-35064283D01*
X47399920Y-35532214D01*
X46725000Y-35532214D01*
X46725000Y-34189121D01*
X48112691Y-34189121D01*
X48180109Y-34367300D01*
X48112691Y-34545479D01*
X48615800Y-35048587D01*
X49118909Y-34545479D01*
X49051491Y-34367300D01*
X49118909Y-34189121D01*
X77424291Y-34189121D01*
X77491709Y-34367300D01*
X77424291Y-34545479D01*
X77927400Y-35048587D01*
X78430509Y-34545479D01*
X78363091Y-34367300D01*
X78430509Y-34189121D01*
X81666091Y-34189121D01*
X81733509Y-34367300D01*
X81666091Y-34545479D01*
X82169200Y-35048587D01*
X82672309Y-34545479D01*
X82604891Y-34367300D01*
X82672309Y-34189121D01*
X117327691Y-34189121D01*
X117395109Y-34367300D01*
X117327691Y-34545479D01*
X117830800Y-35048587D01*
X118333909Y-34545479D01*
X118266491Y-34367300D01*
X118333909Y-34189121D01*
X121569491Y-34189121D01*
X121636909Y-34367300D01*
X121569491Y-34545479D01*
X122072600Y-35048587D01*
X122575709Y-34545479D01*
X122508291Y-34367300D01*
X122575709Y-34189121D01*
X150881091Y-34189121D01*
X150948509Y-34367300D01*
X150881091Y-34545479D01*
X151384200Y-35048587D01*
X151887309Y-34545479D01*
X151819891Y-34367300D01*
X151887309Y-34189121D01*
X151384200Y-33686013D01*
X150881091Y-34189121D01*
X122575709Y-34189121D01*
X122072600Y-33686013D01*
X121569491Y-34189121D01*
X118333909Y-34189121D01*
X117830800Y-33686013D01*
X117327691Y-34189121D01*
X82672309Y-34189121D01*
X82169200Y-33686013D01*
X81666091Y-34189121D01*
X78430509Y-34189121D01*
X77927400Y-33686013D01*
X77424291Y-34189121D01*
X49118909Y-34189121D01*
X48615800Y-33686013D01*
X48112691Y-34189121D01*
X46725000Y-34189121D01*
X46725000Y-33271614D01*
X47399920Y-33271614D01*
X47479227Y-33670317D01*
X47663679Y-33740109D01*
X48166787Y-33237000D01*
X49064813Y-33237000D01*
X49567921Y-33740109D01*
X49752373Y-33670317D01*
X49819946Y-33271614D01*
X76711520Y-33271614D01*
X76790827Y-33670317D01*
X76975279Y-33740109D01*
X77478387Y-33237000D01*
X78376413Y-33237000D01*
X78879521Y-33740109D01*
X79063973Y-33670317D01*
X79131546Y-33271614D01*
X80953320Y-33271614D01*
X81032627Y-33670317D01*
X81217079Y-33740109D01*
X81720187Y-33237000D01*
X82618213Y-33237000D01*
X83121321Y-33740109D01*
X83305773Y-33670317D01*
X83373346Y-33271614D01*
X116614920Y-33271614D01*
X116694227Y-33670317D01*
X116878679Y-33740109D01*
X117381787Y-33237000D01*
X118279813Y-33237000D01*
X118782921Y-33740109D01*
X118967373Y-33670317D01*
X119034946Y-33271614D01*
X120856720Y-33271614D01*
X120936027Y-33670317D01*
X121120479Y-33740109D01*
X121623587Y-33237000D01*
X122521613Y-33237000D01*
X123024721Y-33740109D01*
X123209173Y-33670317D01*
X123276746Y-33271614D01*
X150168320Y-33271614D01*
X150247627Y-33670317D01*
X150432079Y-33740109D01*
X150935187Y-33237000D01*
X151833213Y-33237000D01*
X152336321Y-33740109D01*
X152520773Y-33670317D01*
X152600080Y-33202386D01*
X152520773Y-32803683D01*
X152336321Y-32733891D01*
X151833213Y-33237000D01*
X150935187Y-33237000D01*
X150432079Y-32733891D01*
X150247627Y-32803683D01*
X150168320Y-33271614D01*
X123276746Y-33271614D01*
X123288480Y-33202386D01*
X123209173Y-32803683D01*
X123024721Y-32733891D01*
X122521613Y-33237000D01*
X121623587Y-33237000D01*
X121120479Y-32733891D01*
X120936027Y-32803683D01*
X120856720Y-33271614D01*
X119034946Y-33271614D01*
X119046680Y-33202386D01*
X118967373Y-32803683D01*
X118782921Y-32733891D01*
X118279813Y-33237000D01*
X117381787Y-33237000D01*
X116878679Y-32733891D01*
X116694227Y-32803683D01*
X116614920Y-33271614D01*
X83373346Y-33271614D01*
X83385080Y-33202386D01*
X83305773Y-32803683D01*
X83121321Y-32733891D01*
X82618213Y-33237000D01*
X81720187Y-33237000D01*
X81217079Y-32733891D01*
X81032627Y-32803683D01*
X80953320Y-33271614D01*
X79131546Y-33271614D01*
X79143280Y-33202386D01*
X79063973Y-32803683D01*
X78879521Y-32733891D01*
X78376413Y-33237000D01*
X77478387Y-33237000D01*
X76975279Y-32733891D01*
X76790827Y-32803683D01*
X76711520Y-33271614D01*
X49819946Y-33271614D01*
X49831680Y-33202386D01*
X49752373Y-32803683D01*
X49567921Y-32733891D01*
X49064813Y-33237000D01*
X48166787Y-33237000D01*
X47663679Y-32733891D01*
X47479227Y-32803683D01*
X47399920Y-33271614D01*
X46725000Y-33271614D01*
X46725000Y-32284879D01*
X48112691Y-32284879D01*
X48615800Y-32787987D01*
X49118909Y-32284879D01*
X77424291Y-32284879D01*
X77927400Y-32787987D01*
X78430509Y-32284879D01*
X81666091Y-32284879D01*
X82169200Y-32787987D01*
X82672309Y-32284879D01*
X117327691Y-32284879D01*
X117830800Y-32787987D01*
X118333909Y-32284879D01*
X121569491Y-32284879D01*
X122072600Y-32787987D01*
X122575709Y-32284879D01*
X150881091Y-32284879D01*
X151384200Y-32787987D01*
X151887309Y-32284879D01*
X151817517Y-32100427D01*
X151349586Y-32021120D01*
X150950883Y-32100427D01*
X150881091Y-32284879D01*
X122575709Y-32284879D01*
X122505917Y-32100427D01*
X122037986Y-32021120D01*
X121639283Y-32100427D01*
X121569491Y-32284879D01*
X118333909Y-32284879D01*
X118264117Y-32100427D01*
X117796186Y-32021120D01*
X117397483Y-32100427D01*
X117327691Y-32284879D01*
X82672309Y-32284879D01*
X82602517Y-32100427D01*
X82134586Y-32021120D01*
X81735883Y-32100427D01*
X81666091Y-32284879D01*
X78430509Y-32284879D01*
X78360717Y-32100427D01*
X77892786Y-32021120D01*
X77494083Y-32100427D01*
X77424291Y-32284879D01*
X49118909Y-32284879D01*
X49049117Y-32100427D01*
X48581186Y-32021120D01*
X48182483Y-32100427D01*
X48112691Y-32284879D01*
X46725000Y-32284879D01*
X46725000Y-31975000D01*
X153275000Y-31975000D01*
X153275000Y-41950000D01*
X153275000Y-41950000D01*
G37*
X153275000Y-41950000D02*
X151743189Y-41950000D01*
X151521214Y-41727637D01*
X150535823Y-41318467D01*
X149678297Y-41317719D01*
X150048008Y-40948008D01*
X150216007Y-40696580D01*
X150275000Y-40400000D01*
X150275000Y-39168685D01*
X150304902Y-39138835D01*
X150449835Y-38789796D01*
X150450165Y-38411862D01*
X150305841Y-38062571D01*
X150038835Y-37795098D01*
X149689796Y-37650165D01*
X149311862Y-37649835D01*
X148962571Y-37794159D01*
X148695098Y-38061165D01*
X148603287Y-38282271D01*
X148500128Y-38179112D01*
X148500165Y-38136862D01*
X148355841Y-37787571D01*
X148088835Y-37520098D01*
X147739796Y-37375165D01*
X147361862Y-37374835D01*
X147012571Y-37519159D01*
X146893041Y-37638480D01*
X146792235Y-37537498D01*
X146443196Y-37392565D01*
X146065262Y-37392235D01*
X145715971Y-37536559D01*
X145618464Y-37633896D01*
X145522235Y-37537498D01*
X145173196Y-37392565D01*
X144795262Y-37392235D01*
X144445971Y-37536559D01*
X144348464Y-37633896D01*
X144252235Y-37537498D01*
X143903196Y-37392565D01*
X143525262Y-37392235D01*
X143175971Y-37536559D01*
X143078464Y-37633896D01*
X142982235Y-37537498D01*
X142633196Y-37392565D01*
X142255262Y-37392235D01*
X141905971Y-37536559D01*
X141808464Y-37633896D01*
X141712235Y-37537498D01*
X141363196Y-37392565D01*
X140985262Y-37392235D01*
X140635971Y-37536559D01*
X140538464Y-37633896D01*
X140442235Y-37537498D01*
X140093196Y-37392565D01*
X139715262Y-37392235D01*
X139365971Y-37536559D01*
X139268464Y-37633896D01*
X139172235Y-37537498D01*
X138823196Y-37392565D01*
X138445262Y-37392235D01*
X138095971Y-37536559D01*
X137998464Y-37633896D01*
X137902235Y-37537498D01*
X137553196Y-37392565D01*
X137175262Y-37392235D01*
X136825971Y-37536559D01*
X136728464Y-37633896D01*
X136632235Y-37537498D01*
X136283196Y-37392565D01*
X135905262Y-37392235D01*
X135555971Y-37536559D01*
X135458464Y-37633896D01*
X135362235Y-37537498D01*
X135013196Y-37392565D01*
X134635262Y-37392235D01*
X134285971Y-37536559D01*
X134188464Y-37633896D01*
X134092235Y-37537498D01*
X133743196Y-37392565D01*
X133365262Y-37392235D01*
X133015971Y-37536559D01*
X132918464Y-37633896D01*
X132822235Y-37537498D01*
X132473196Y-37392565D01*
X132095262Y-37392235D01*
X131745971Y-37536559D01*
X131648464Y-37633896D01*
X131552235Y-37537498D01*
X131203196Y-37392565D01*
X130825262Y-37392235D01*
X130475971Y-37536559D01*
X130378464Y-37633896D01*
X130282235Y-37537498D01*
X129933196Y-37392565D01*
X129555262Y-37392235D01*
X129205971Y-37536559D01*
X129108464Y-37633896D01*
X129012235Y-37537498D01*
X128663196Y-37392565D01*
X128285262Y-37392235D01*
X127935971Y-37536559D01*
X127838464Y-37633896D01*
X127742235Y-37537498D01*
X127393196Y-37392565D01*
X127015262Y-37392235D01*
X126665971Y-37536559D01*
X126568464Y-37633896D01*
X126472235Y-37537498D01*
X126123196Y-37392565D01*
X125745262Y-37392235D01*
X125395971Y-37536559D01*
X125298464Y-37633896D01*
X125202235Y-37537498D01*
X124853196Y-37392565D01*
X124475262Y-37392235D01*
X124125971Y-37536559D01*
X123858498Y-37803565D01*
X123713565Y-38152604D01*
X123713235Y-38530538D01*
X123857559Y-38879829D01*
X124081895Y-39104558D01*
X123858498Y-39327565D01*
X123713565Y-39676604D01*
X123713235Y-40054538D01*
X123857559Y-40403829D01*
X124124565Y-40671302D01*
X124130300Y-40673684D01*
X121704139Y-43099845D01*
X121749835Y-42989796D01*
X121750165Y-42611862D01*
X121605841Y-42262571D01*
X121338835Y-41995098D01*
X120989796Y-41850165D01*
X120881379Y-41850070D01*
X120750034Y-41762308D01*
X120750165Y-41611862D01*
X120605841Y-41262571D01*
X120338835Y-40995098D01*
X119989796Y-40850165D01*
X119950132Y-40850130D01*
X119950165Y-40811862D01*
X119805841Y-40462571D01*
X119538835Y-40195098D01*
X119189796Y-40050165D01*
X118811862Y-40049835D01*
X118462571Y-40194159D01*
X118331501Y-40325000D01*
X116130953Y-40325000D01*
X116189835Y-40183196D01*
X116190165Y-39805262D01*
X116045841Y-39455971D01*
X115821505Y-39231242D01*
X116044902Y-39008235D01*
X116189835Y-38659196D01*
X116190165Y-38281262D01*
X116045841Y-37931971D01*
X115778835Y-37664498D01*
X115429796Y-37519565D01*
X115051862Y-37519235D01*
X114702571Y-37663559D01*
X114605064Y-37760896D01*
X114508835Y-37664498D01*
X114159796Y-37519565D01*
X113781862Y-37519235D01*
X113432571Y-37663559D01*
X113165098Y-37930565D01*
X113020165Y-38279604D01*
X113019835Y-38657538D01*
X113164159Y-39006829D01*
X113388495Y-39231558D01*
X113335064Y-39284896D01*
X113238835Y-39188498D01*
X112889796Y-39043565D01*
X112511862Y-39043235D01*
X112162571Y-39187559D01*
X112065064Y-39284896D01*
X112011505Y-39231242D01*
X112234902Y-39008235D01*
X112379835Y-38659196D01*
X112380165Y-38281262D01*
X112235841Y-37931971D01*
X111968835Y-37664498D01*
X111619796Y-37519565D01*
X111241862Y-37519235D01*
X110892571Y-37663559D01*
X110625098Y-37930565D01*
X110480165Y-38279604D01*
X110479835Y-38657538D01*
X110624159Y-39006829D01*
X110848495Y-39231558D01*
X110795064Y-39284896D01*
X110698835Y-39188498D01*
X110349796Y-39043565D01*
X110295000Y-39043517D01*
X110295000Y-39040274D01*
X110305000Y-38990000D01*
X110246007Y-38693420D01*
X110078008Y-38441992D01*
X110068008Y-38431992D01*
X110068005Y-38431990D01*
X109785868Y-38149852D01*
X109695841Y-37931971D01*
X109428835Y-37664498D01*
X109079796Y-37519565D01*
X108701862Y-37519235D01*
X108352571Y-37663559D01*
X108255064Y-37760896D01*
X108158835Y-37664498D01*
X107809796Y-37519565D01*
X107431862Y-37519235D01*
X107082571Y-37663559D01*
X106985064Y-37760896D01*
X106888835Y-37664498D01*
X106539796Y-37519565D01*
X106161862Y-37519235D01*
X105812571Y-37663559D01*
X105715064Y-37760896D01*
X105618835Y-37664498D01*
X105269796Y-37519565D01*
X104891862Y-37519235D01*
X104542571Y-37663559D01*
X104445064Y-37760896D01*
X104348835Y-37664498D01*
X103999796Y-37519565D01*
X103621862Y-37519235D01*
X103272571Y-37663559D01*
X103175064Y-37760896D01*
X103078835Y-37664498D01*
X102729796Y-37519565D01*
X102351862Y-37519235D01*
X102002571Y-37663559D01*
X101905064Y-37760896D01*
X101808835Y-37664498D01*
X101459796Y-37519565D01*
X101081862Y-37519235D01*
X100732571Y-37663559D01*
X100635064Y-37760896D01*
X100538835Y-37664498D01*
X100189796Y-37519565D01*
X99811862Y-37519235D01*
X99462571Y-37663559D01*
X99365064Y-37760896D01*
X99268835Y-37664498D01*
X98919796Y-37519565D01*
X98541862Y-37519235D01*
X98192571Y-37663559D01*
X98095064Y-37760896D01*
X97998835Y-37664498D01*
X97649796Y-37519565D01*
X97271862Y-37519235D01*
X96922571Y-37663559D01*
X96825064Y-37760896D01*
X96728835Y-37664498D01*
X96379796Y-37519565D01*
X96001862Y-37519235D01*
X95652571Y-37663559D01*
X95555064Y-37760896D01*
X95458835Y-37664498D01*
X95109796Y-37519565D01*
X94731862Y-37519235D01*
X94382571Y-37663559D01*
X94285064Y-37760896D01*
X94188835Y-37664498D01*
X93839796Y-37519565D01*
X93461862Y-37519235D01*
X93112571Y-37663559D01*
X93015064Y-37760896D01*
X92918835Y-37664498D01*
X92569796Y-37519565D01*
X92191862Y-37519235D01*
X91842571Y-37663559D01*
X91745064Y-37760896D01*
X91648835Y-37664498D01*
X91299796Y-37519565D01*
X90921862Y-37519235D01*
X90572571Y-37663559D01*
X90475064Y-37760896D01*
X90378835Y-37664498D01*
X90029796Y-37519565D01*
X89651862Y-37519235D01*
X89302571Y-37663559D01*
X89205064Y-37760896D01*
X89108835Y-37664498D01*
X88759796Y-37519565D01*
X88381862Y-37519235D01*
X88032571Y-37663559D01*
X87935064Y-37760896D01*
X87838835Y-37664498D01*
X87489796Y-37519565D01*
X87111862Y-37519235D01*
X86762571Y-37663559D01*
X86665064Y-37760896D01*
X86568835Y-37664498D01*
X86219796Y-37519565D01*
X85841862Y-37519235D01*
X85492571Y-37663559D01*
X85395064Y-37760896D01*
X85298835Y-37664498D01*
X84949796Y-37519565D01*
X84571862Y-37519235D01*
X84222571Y-37663559D01*
X83955098Y-37930565D01*
X83810165Y-38279604D01*
X83809835Y-38657538D01*
X83954159Y-39006829D01*
X84178495Y-39231558D01*
X83955098Y-39454565D01*
X83810165Y-39803604D01*
X83809835Y-40181538D01*
X83954159Y-40530829D01*
X84221165Y-40798302D01*
X84570204Y-40943235D01*
X84848965Y-40943478D01*
X84851992Y-40948008D01*
X86484136Y-42580151D01*
X86121862Y-42579835D01*
X85772571Y-42724159D01*
X85505098Y-42991165D01*
X85360165Y-43340204D01*
X85359835Y-43718138D01*
X85504159Y-44067429D01*
X85771165Y-44334902D01*
X86113018Y-44476851D01*
X86204159Y-44697429D01*
X86471165Y-44964902D01*
X86656095Y-45041691D01*
X86774159Y-45327429D01*
X87041165Y-45594902D01*
X87390204Y-45739835D01*
X87768138Y-45740165D01*
X88117429Y-45595841D01*
X88384902Y-45328835D01*
X88529835Y-44979796D01*
X88530144Y-44626159D01*
X92551990Y-48648005D01*
X92551992Y-48648008D01*
X92792065Y-48808420D01*
X92803420Y-48816007D01*
X92932334Y-48841650D01*
X86015000Y-55758984D01*
X86015000Y-47070000D01*
X85956007Y-46773420D01*
X85788008Y-46521992D01*
X77060408Y-37794392D01*
X76808980Y-37626393D01*
X76512400Y-37567400D01*
X75905285Y-37567400D01*
X75875435Y-37537498D01*
X75526396Y-37392565D01*
X75148462Y-37392235D01*
X74799171Y-37536559D01*
X74701664Y-37633896D01*
X74605435Y-37537498D01*
X74256396Y-37392565D01*
X73878462Y-37392235D01*
X73529171Y-37536559D01*
X73439100Y-37626473D01*
X73438980Y-37626393D01*
X73420507Y-37622718D01*
X73335435Y-37537498D01*
X72986396Y-37392565D01*
X72608462Y-37392235D01*
X72259171Y-37536559D01*
X72161664Y-37633896D01*
X72065435Y-37537498D01*
X71716396Y-37392565D01*
X71338462Y-37392235D01*
X70989171Y-37536559D01*
X70891664Y-37633896D01*
X70795435Y-37537498D01*
X70446396Y-37392565D01*
X70068462Y-37392235D01*
X69719171Y-37536559D01*
X69621664Y-37633896D01*
X69525435Y-37537498D01*
X69176396Y-37392565D01*
X68798462Y-37392235D01*
X68449171Y-37536559D01*
X68351664Y-37633896D01*
X68255435Y-37537498D01*
X67906396Y-37392565D01*
X67528462Y-37392235D01*
X67179171Y-37536559D01*
X67081664Y-37633896D01*
X66985435Y-37537498D01*
X66636396Y-37392565D01*
X66258462Y-37392235D01*
X65909171Y-37536559D01*
X65811664Y-37633896D01*
X65715435Y-37537498D01*
X65366396Y-37392565D01*
X64988462Y-37392235D01*
X64639171Y-37536559D01*
X64541664Y-37633896D01*
X64445435Y-37537498D01*
X64096396Y-37392565D01*
X63718462Y-37392235D01*
X63369171Y-37536559D01*
X63271664Y-37633896D01*
X63175435Y-37537498D01*
X62826396Y-37392565D01*
X62448462Y-37392235D01*
X62099171Y-37536559D01*
X62001664Y-37633896D01*
X61905435Y-37537498D01*
X61556396Y-37392565D01*
X61178462Y-37392235D01*
X60829171Y-37536559D01*
X60731664Y-37633896D01*
X60635435Y-37537498D01*
X60286396Y-37392565D01*
X59908462Y-37392235D01*
X59559171Y-37536559D01*
X59461664Y-37633896D01*
X59365435Y-37537498D01*
X59016396Y-37392565D01*
X58638462Y-37392235D01*
X58289171Y-37536559D01*
X58191664Y-37633896D01*
X58095435Y-37537498D01*
X57746396Y-37392565D01*
X57368462Y-37392235D01*
X57019171Y-37536559D01*
X56921664Y-37633896D01*
X56825435Y-37537498D01*
X56476396Y-37392565D01*
X56098462Y-37392235D01*
X55749171Y-37536559D01*
X55651664Y-37633896D01*
X55555435Y-37537498D01*
X55243409Y-37407934D01*
X55329835Y-37199796D01*
X55330165Y-36821862D01*
X55185841Y-36472571D01*
X55163031Y-36449721D01*
X77424291Y-36449721D01*
X77494083Y-36634173D01*
X77962014Y-36713480D01*
X78360717Y-36634173D01*
X78430509Y-36449721D01*
X81666091Y-36449721D01*
X81735883Y-36634173D01*
X82203814Y-36713480D01*
X82602517Y-36634173D01*
X82672309Y-36449721D01*
X117327691Y-36449721D01*
X117397483Y-36634173D01*
X117865414Y-36713480D01*
X118264117Y-36634173D01*
X118333909Y-36449721D01*
X121569491Y-36449721D01*
X121639283Y-36634173D01*
X122107214Y-36713480D01*
X122505917Y-36634173D01*
X122575709Y-36449721D01*
X150881091Y-36449721D01*
X150950883Y-36634173D01*
X151418814Y-36713480D01*
X151817517Y-36634173D01*
X151887309Y-36449721D01*
X151384200Y-35946613D01*
X150881091Y-36449721D01*
X122575709Y-36449721D01*
X122072600Y-35946613D01*
X121569491Y-36449721D01*
X118333909Y-36449721D01*
X117830800Y-35946613D01*
X117327691Y-36449721D01*
X82672309Y-36449721D01*
X82169200Y-35946613D01*
X81666091Y-36449721D01*
X78430509Y-36449721D01*
X77927400Y-35946613D01*
X77424291Y-36449721D01*
X55163031Y-36449721D01*
X54918835Y-36205098D01*
X54569796Y-36060165D01*
X54191862Y-36059835D01*
X53842571Y-36204159D01*
X53632288Y-36414075D01*
X53309796Y-36280165D01*
X52931862Y-36279835D01*
X52582571Y-36424159D01*
X52455064Y-36551443D01*
X52388835Y-36485098D01*
X52039796Y-36340165D01*
X51661862Y-36339835D01*
X51312571Y-36484159D01*
X51045098Y-36751165D01*
X50900165Y-37100204D01*
X50899867Y-37441237D01*
X50669171Y-37536559D01*
X50401698Y-37803565D01*
X50256765Y-38152604D01*
X50256435Y-38530538D01*
X50400759Y-38879829D01*
X50625095Y-39104558D01*
X50401698Y-39327565D01*
X50256765Y-39676604D01*
X50256435Y-40054538D01*
X50400759Y-40403829D01*
X50667765Y-40671302D01*
X51016804Y-40816235D01*
X51094101Y-40816302D01*
X51123993Y-40966580D01*
X51219903Y-41110119D01*
X51219835Y-41188138D01*
X51364159Y-41537429D01*
X51631165Y-41804902D01*
X51980204Y-41949835D01*
X52358138Y-41950165D01*
X52707429Y-41805841D01*
X52854997Y-41658531D01*
X52971165Y-41774902D01*
X53320204Y-41919835D01*
X53698138Y-41920165D01*
X53993460Y-41798140D01*
X54190204Y-41879835D01*
X54568138Y-41880165D01*
X54917429Y-41735841D01*
X54964953Y-41688400D01*
X55131165Y-41854902D01*
X55480204Y-41999835D01*
X55858138Y-42000165D01*
X56207429Y-41855841D01*
X56249918Y-41813426D01*
X56381165Y-41944902D01*
X56730204Y-42089835D01*
X57108138Y-42090165D01*
X57457429Y-41945841D01*
X57724902Y-41678835D01*
X57869835Y-41329796D01*
X57869847Y-41315863D01*
X62003984Y-45450000D01*
X53341789Y-45450000D01*
X53449835Y-45189796D01*
X53450165Y-44811862D01*
X53305841Y-44462571D01*
X53038835Y-44195098D01*
X52689796Y-44050165D01*
X52681957Y-44050158D01*
X52682464Y-43468858D01*
X52275014Y-42482754D01*
X51521214Y-41727637D01*
X50535823Y-41318467D01*
X49468858Y-41317536D01*
X48482754Y-41724986D01*
X47727637Y-42478786D01*
X47318467Y-43464177D01*
X47318207Y-43761962D01*
X47289796Y-43750165D01*
X46911862Y-43749835D01*
X46725000Y-43827045D01*
X46725000Y-36449721D01*
X48112691Y-36449721D01*
X48182483Y-36634173D01*
X48650414Y-36713480D01*
X49049117Y-36634173D01*
X49118909Y-36449721D01*
X48615800Y-35946613D01*
X48112691Y-36449721D01*
X46725000Y-36449721D01*
X46725000Y-35532214D01*
X47399920Y-35532214D01*
X47479227Y-35930917D01*
X47663679Y-36000709D01*
X48166787Y-35497600D01*
X49064813Y-35497600D01*
X49567921Y-36000709D01*
X49752373Y-35930917D01*
X49819946Y-35532214D01*
X76711520Y-35532214D01*
X76790827Y-35930917D01*
X76975279Y-36000709D01*
X77478387Y-35497600D01*
X78376413Y-35497600D01*
X78879521Y-36000709D01*
X79063973Y-35930917D01*
X79131546Y-35532214D01*
X80953320Y-35532214D01*
X81032627Y-35930917D01*
X81217079Y-36000709D01*
X81720187Y-35497600D01*
X82618213Y-35497600D01*
X83121321Y-36000709D01*
X83305773Y-35930917D01*
X83373346Y-35532214D01*
X116614920Y-35532214D01*
X116694227Y-35930917D01*
X116878679Y-36000709D01*
X117381787Y-35497600D01*
X118279813Y-35497600D01*
X118782921Y-36000709D01*
X118967373Y-35930917D01*
X119034946Y-35532214D01*
X120856720Y-35532214D01*
X120936027Y-35930917D01*
X121120479Y-36000709D01*
X121623587Y-35497600D01*
X122521613Y-35497600D01*
X123024721Y-36000709D01*
X123209173Y-35930917D01*
X123276746Y-35532214D01*
X150168320Y-35532214D01*
X150247627Y-35930917D01*
X150432079Y-36000709D01*
X150935187Y-35497600D01*
X151833213Y-35497600D01*
X152336321Y-36000709D01*
X152520773Y-35930917D01*
X152600080Y-35462986D01*
X152520773Y-35064283D01*
X152336321Y-34994491D01*
X151833213Y-35497600D01*
X150935187Y-35497600D01*
X150432079Y-34994491D01*
X150247627Y-35064283D01*
X150168320Y-35532214D01*
X123276746Y-35532214D01*
X123288480Y-35462986D01*
X123209173Y-35064283D01*
X123024721Y-34994491D01*
X122521613Y-35497600D01*
X121623587Y-35497600D01*
X121120479Y-34994491D01*
X120936027Y-35064283D01*
X120856720Y-35532214D01*
X119034946Y-35532214D01*
X119046680Y-35462986D01*
X118967373Y-35064283D01*
X118782921Y-34994491D01*
X118279813Y-35497600D01*
X117381787Y-35497600D01*
X116878679Y-34994491D01*
X116694227Y-35064283D01*
X116614920Y-35532214D01*
X83373346Y-35532214D01*
X83385080Y-35462986D01*
X83305773Y-35064283D01*
X83121321Y-34994491D01*
X82618213Y-35497600D01*
X81720187Y-35497600D01*
X81217079Y-34994491D01*
X81032627Y-35064283D01*
X80953320Y-35532214D01*
X79131546Y-35532214D01*
X79143280Y-35462986D01*
X79063973Y-35064283D01*
X78879521Y-34994491D01*
X78376413Y-35497600D01*
X77478387Y-35497600D01*
X76975279Y-34994491D01*
X76790827Y-35064283D01*
X76711520Y-35532214D01*
X49819946Y-35532214D01*
X49831680Y-35462986D01*
X49752373Y-35064283D01*
X49567921Y-34994491D01*
X49064813Y-35497600D01*
X48166787Y-35497600D01*
X47663679Y-34994491D01*
X47479227Y-35064283D01*
X47399920Y-35532214D01*
X46725000Y-35532214D01*
X46725000Y-34189121D01*
X48112691Y-34189121D01*
X48180109Y-34367300D01*
X48112691Y-34545479D01*
X48615800Y-35048587D01*
X49118909Y-34545479D01*
X49051491Y-34367300D01*
X49118909Y-34189121D01*
X77424291Y-34189121D01*
X77491709Y-34367300D01*
X77424291Y-34545479D01*
X77927400Y-35048587D01*
X78430509Y-34545479D01*
X78363091Y-34367300D01*
X78430509Y-34189121D01*
X81666091Y-34189121D01*
X81733509Y-34367300D01*
X81666091Y-34545479D01*
X82169200Y-35048587D01*
X82672309Y-34545479D01*
X82604891Y-34367300D01*
X82672309Y-34189121D01*
X117327691Y-34189121D01*
X117395109Y-34367300D01*
X117327691Y-34545479D01*
X117830800Y-35048587D01*
X118333909Y-34545479D01*
X118266491Y-34367300D01*
X118333909Y-34189121D01*
X121569491Y-34189121D01*
X121636909Y-34367300D01*
X121569491Y-34545479D01*
X122072600Y-35048587D01*
X122575709Y-34545479D01*
X122508291Y-34367300D01*
X122575709Y-34189121D01*
X150881091Y-34189121D01*
X150948509Y-34367300D01*
X150881091Y-34545479D01*
X151384200Y-35048587D01*
X151887309Y-34545479D01*
X151819891Y-34367300D01*
X151887309Y-34189121D01*
X151384200Y-33686013D01*
X150881091Y-34189121D01*
X122575709Y-34189121D01*
X122072600Y-33686013D01*
X121569491Y-34189121D01*
X118333909Y-34189121D01*
X117830800Y-33686013D01*
X117327691Y-34189121D01*
X82672309Y-34189121D01*
X82169200Y-33686013D01*
X81666091Y-34189121D01*
X78430509Y-34189121D01*
X77927400Y-33686013D01*
X77424291Y-34189121D01*
X49118909Y-34189121D01*
X48615800Y-33686013D01*
X48112691Y-34189121D01*
X46725000Y-34189121D01*
X46725000Y-33271614D01*
X47399920Y-33271614D01*
X47479227Y-33670317D01*
X47663679Y-33740109D01*
X48166787Y-33237000D01*
X49064813Y-33237000D01*
X49567921Y-33740109D01*
X49752373Y-33670317D01*
X49819946Y-33271614D01*
X76711520Y-33271614D01*
X76790827Y-33670317D01*
X76975279Y-33740109D01*
X77478387Y-33237000D01*
X78376413Y-33237000D01*
X78879521Y-33740109D01*
X79063973Y-33670317D01*
X79131546Y-33271614D01*
X80953320Y-33271614D01*
X81032627Y-33670317D01*
X81217079Y-33740109D01*
X81720187Y-33237000D01*
X82618213Y-33237000D01*
X83121321Y-33740109D01*
X83305773Y-33670317D01*
X83373346Y-33271614D01*
X116614920Y-33271614D01*
X116694227Y-33670317D01*
X116878679Y-33740109D01*
X117381787Y-33237000D01*
X118279813Y-33237000D01*
X118782921Y-33740109D01*
X118967373Y-33670317D01*
X119034946Y-33271614D01*
X120856720Y-33271614D01*
X120936027Y-33670317D01*
X121120479Y-33740109D01*
X121623587Y-33237000D01*
X122521613Y-33237000D01*
X123024721Y-33740109D01*
X123209173Y-33670317D01*
X123276746Y-33271614D01*
X150168320Y-33271614D01*
X150247627Y-33670317D01*
X150432079Y-33740109D01*
X150935187Y-33237000D01*
X151833213Y-33237000D01*
X152336321Y-33740109D01*
X152520773Y-33670317D01*
X152600080Y-33202386D01*
X152520773Y-32803683D01*
X152336321Y-32733891D01*
X151833213Y-33237000D01*
X150935187Y-33237000D01*
X150432079Y-32733891D01*
X150247627Y-32803683D01*
X150168320Y-33271614D01*
X123276746Y-33271614D01*
X123288480Y-33202386D01*
X123209173Y-32803683D01*
X123024721Y-32733891D01*
X122521613Y-33237000D01*
X121623587Y-33237000D01*
X121120479Y-32733891D01*
X120936027Y-32803683D01*
X120856720Y-33271614D01*
X119034946Y-33271614D01*
X119046680Y-33202386D01*
X118967373Y-32803683D01*
X118782921Y-32733891D01*
X118279813Y-33237000D01*
X117381787Y-33237000D01*
X116878679Y-32733891D01*
X116694227Y-32803683D01*
X116614920Y-33271614D01*
X83373346Y-33271614D01*
X83385080Y-33202386D01*
X83305773Y-32803683D01*
X83121321Y-32733891D01*
X82618213Y-33237000D01*
X81720187Y-33237000D01*
X81217079Y-32733891D01*
X81032627Y-32803683D01*
X80953320Y-33271614D01*
X79131546Y-33271614D01*
X79143280Y-33202386D01*
X79063973Y-32803683D01*
X78879521Y-32733891D01*
X78376413Y-33237000D01*
X77478387Y-33237000D01*
X76975279Y-32733891D01*
X76790827Y-32803683D01*
X76711520Y-33271614D01*
X49819946Y-33271614D01*
X49831680Y-33202386D01*
X49752373Y-32803683D01*
X49567921Y-32733891D01*
X49064813Y-33237000D01*
X48166787Y-33237000D01*
X47663679Y-32733891D01*
X47479227Y-32803683D01*
X47399920Y-33271614D01*
X46725000Y-33271614D01*
X46725000Y-32284879D01*
X48112691Y-32284879D01*
X48615800Y-32787987D01*
X49118909Y-32284879D01*
X77424291Y-32284879D01*
X77927400Y-32787987D01*
X78430509Y-32284879D01*
X81666091Y-32284879D01*
X82169200Y-32787987D01*
X82672309Y-32284879D01*
X117327691Y-32284879D01*
X117830800Y-32787987D01*
X118333909Y-32284879D01*
X121569491Y-32284879D01*
X122072600Y-32787987D01*
X122575709Y-32284879D01*
X150881091Y-32284879D01*
X151384200Y-32787987D01*
X151887309Y-32284879D01*
X151817517Y-32100427D01*
X151349586Y-32021120D01*
X150950883Y-32100427D01*
X150881091Y-32284879D01*
X122575709Y-32284879D01*
X122505917Y-32100427D01*
X122037986Y-32021120D01*
X121639283Y-32100427D01*
X121569491Y-32284879D01*
X118333909Y-32284879D01*
X118264117Y-32100427D01*
X117796186Y-32021120D01*
X117397483Y-32100427D01*
X117327691Y-32284879D01*
X82672309Y-32284879D01*
X82602517Y-32100427D01*
X82134586Y-32021120D01*
X81735883Y-32100427D01*
X81666091Y-32284879D01*
X78430509Y-32284879D01*
X78360717Y-32100427D01*
X77892786Y-32021120D01*
X77494083Y-32100427D01*
X77424291Y-32284879D01*
X49118909Y-32284879D01*
X49049117Y-32100427D01*
X48581186Y-32021120D01*
X48182483Y-32100427D01*
X48112691Y-32284879D01*
X46725000Y-32284879D01*
X46725000Y-31975000D01*
X153275000Y-31975000D01*
X153275000Y-41950000D01*
M02*
