G04 #@! TF.FileFunction,Soldermask,Bot*
%FSLAX46Y46*%
G04 Gerber Fmt 4.6, Leading zero omitted, Abs format (unit mm)*
G04 Created by KiCad (PCBNEW 4.0.1-stable) date 2016-12-19 11:19:05 AM*
%MOMM*%
G01*
G04 APERTURE LIST*
%ADD10C,0.100000*%
%ADD11C,4.464000*%
%ADD12C,1.800000*%
%ADD13R,1.140000X3.320000*%
%ADD14C,1.670000*%
%ADD15R,2.432000X2.432000*%
%ADD16O,2.432000X2.432000*%
%ADD17R,2.127200X2.127200*%
%ADD18O,2.127200X2.127200*%
%ADD19R,2.127200X2.432000*%
%ADD20O,2.127200X2.432000*%
G04 APERTURE END LIST*
D10*
D11*
X104000000Y-83000000D03*
X28000000Y-83000000D03*
X104000000Y-25000000D03*
D12*
X98600000Y-63100000D03*
X73200000Y-64600000D03*
X98600000Y-79700000D03*
X73200000Y-81200000D03*
D13*
X84165000Y-74985000D03*
X85435000Y-74985000D03*
X96865000Y-74985000D03*
D14*
X98452500Y-76700000D03*
X71147500Y-76700000D03*
D13*
X95595000Y-78415000D03*
X96865000Y-78415000D03*
X95595000Y-74985000D03*
X91785000Y-74985000D03*
X90515000Y-74985000D03*
X93055000Y-74985000D03*
X94325000Y-74985000D03*
X94325000Y-78415000D03*
X93055000Y-78415000D03*
X90515000Y-78415000D03*
X91785000Y-78415000D03*
X77815000Y-74985000D03*
X76545000Y-74985000D03*
X74005000Y-74985000D03*
X75275000Y-74985000D03*
X75275000Y-78415000D03*
X74005000Y-78415000D03*
X76545000Y-78415000D03*
X77815000Y-78415000D03*
X72735000Y-78415000D03*
X72735000Y-74985000D03*
X79085000Y-74985000D03*
X79085000Y-78415000D03*
X86705000Y-78415000D03*
X85435000Y-78415000D03*
X87975000Y-78415000D03*
X89245000Y-78415000D03*
X84165000Y-78415000D03*
X82895000Y-78415000D03*
X80355000Y-78415000D03*
X81625000Y-78415000D03*
X81625000Y-74985000D03*
X80355000Y-74985000D03*
X82895000Y-74985000D03*
X89245000Y-74985000D03*
X87975000Y-74985000D03*
X86705000Y-74985000D03*
X84165000Y-58385000D03*
X85435000Y-58385000D03*
X96865000Y-58385000D03*
D14*
X98452500Y-60100000D03*
X71147500Y-60100000D03*
D13*
X95595000Y-61815000D03*
X96865000Y-61815000D03*
X95595000Y-58385000D03*
X91785000Y-58385000D03*
X90515000Y-58385000D03*
X93055000Y-58385000D03*
X94325000Y-58385000D03*
X94325000Y-61815000D03*
X93055000Y-61815000D03*
X90515000Y-61815000D03*
X91785000Y-61815000D03*
X77815000Y-58385000D03*
X76545000Y-58385000D03*
X74005000Y-58385000D03*
X75275000Y-58385000D03*
X75275000Y-61815000D03*
X74005000Y-61815000D03*
X76545000Y-61815000D03*
X77815000Y-61815000D03*
X72735000Y-61815000D03*
X72735000Y-58385000D03*
X79085000Y-58385000D03*
X79085000Y-61815000D03*
X86705000Y-61815000D03*
X85435000Y-61815000D03*
X87975000Y-61815000D03*
X89245000Y-61815000D03*
X84165000Y-61815000D03*
X82895000Y-61815000D03*
X80355000Y-61815000D03*
X81625000Y-61815000D03*
X81625000Y-58385000D03*
X80355000Y-58385000D03*
X82895000Y-58385000D03*
X89245000Y-58385000D03*
X87975000Y-58385000D03*
X86705000Y-58385000D03*
D12*
X98600000Y-29900000D03*
X88400000Y-31400000D03*
X98600000Y-46500000D03*
X73200000Y-48000000D03*
D13*
X84165000Y-41785000D03*
X85435000Y-41785000D03*
X96865000Y-41785000D03*
D14*
X98452500Y-43500000D03*
X71147500Y-43500000D03*
D13*
X95595000Y-45215000D03*
X96865000Y-45215000D03*
X95595000Y-41785000D03*
X91785000Y-41785000D03*
X90515000Y-41785000D03*
X93055000Y-41785000D03*
X94325000Y-41785000D03*
X94325000Y-45215000D03*
X93055000Y-45215000D03*
X90515000Y-45215000D03*
X91785000Y-45215000D03*
X77815000Y-41785000D03*
X76545000Y-41785000D03*
X74005000Y-41785000D03*
X75275000Y-41785000D03*
X75275000Y-45215000D03*
X74005000Y-45215000D03*
X76545000Y-45215000D03*
X77815000Y-45215000D03*
X72735000Y-45215000D03*
X72735000Y-41785000D03*
X79085000Y-41785000D03*
X79085000Y-45215000D03*
X86705000Y-45215000D03*
X85435000Y-45215000D03*
X87975000Y-45215000D03*
X89245000Y-45215000D03*
X84165000Y-45215000D03*
X82895000Y-45215000D03*
X80355000Y-45215000D03*
X81625000Y-45215000D03*
X81625000Y-41785000D03*
X80355000Y-41785000D03*
X82895000Y-41785000D03*
X89245000Y-41785000D03*
X87975000Y-41785000D03*
X86705000Y-41785000D03*
D15*
X73660000Y-22860000D03*
D16*
X76200000Y-22860000D03*
D15*
X66040000Y-22860000D03*
D16*
X68580000Y-22860000D03*
D17*
X35560000Y-25400000D03*
D18*
X35560000Y-22860000D03*
X38100000Y-25400000D03*
X38100000Y-22860000D03*
X40640000Y-25400000D03*
X40640000Y-22860000D03*
X43180000Y-25400000D03*
X43180000Y-22860000D03*
X45720000Y-25400000D03*
X45720000Y-22860000D03*
X48260000Y-25400000D03*
X48260000Y-22860000D03*
X50800000Y-25400000D03*
X50800000Y-22860000D03*
X53340000Y-25400000D03*
X53340000Y-22860000D03*
X55880000Y-25400000D03*
X55880000Y-22860000D03*
X58420000Y-25400000D03*
X58420000Y-22860000D03*
D11*
X28000000Y-25000000D03*
D19*
X66040000Y-26670000D03*
D20*
X68580000Y-26670000D03*
X71120000Y-26670000D03*
M02*
