G04 #@! TF.FileFunction,Legend,Bot*
%FSLAX46Y46*%
G04 Gerber Fmt 4.6, Leading zero omitted, Abs format (unit mm)*
G04 Created by KiCad (PCBNEW 4.0.1-stable) date 2017-03-08 11:16:27 PM*
%MOMM*%
G01*
G04 APERTURE LIST*
%ADD10C,0.100000*%
%ADD11C,0.120000*%
%ADD12C,0.150000*%
G04 APERTURE END LIST*
D10*
D11*
X55000000Y-74650000D02*
X67000000Y-74650000D01*
X55000000Y-63350000D02*
X67000000Y-63350000D01*
X67000000Y-74650000D02*
X67000000Y-63350000D01*
X55000000Y-74650000D02*
X55000000Y-63350000D01*
X59200000Y-58750000D02*
X60200000Y-58750000D01*
X60200000Y-60450000D02*
X59200000Y-60450000D01*
X56120000Y-60400000D02*
X56120000Y-61600000D01*
X57880000Y-61600000D02*
X57880000Y-60400000D01*
X56120000Y-57400000D02*
X56120000Y-58600000D01*
X57880000Y-58600000D02*
X57880000Y-57400000D01*
D12*
X62214286Y-77580381D02*
X62214286Y-76580381D01*
X61833333Y-76580381D01*
X61738095Y-76628000D01*
X61690476Y-76675619D01*
X61642857Y-76770857D01*
X61642857Y-76913714D01*
X61690476Y-77008952D01*
X61738095Y-77056571D01*
X61833333Y-77104190D01*
X62214286Y-77104190D01*
X60690476Y-77580381D02*
X61261905Y-77580381D01*
X60976191Y-77580381D02*
X60976191Y-76580381D01*
X61071429Y-76723238D01*
X61166667Y-76818476D01*
X61261905Y-76866095D01*
X60309524Y-76675619D02*
X60261905Y-76628000D01*
X60166667Y-76580381D01*
X59928571Y-76580381D01*
X59833333Y-76628000D01*
X59785714Y-76675619D01*
X59738095Y-76770857D01*
X59738095Y-76866095D01*
X59785714Y-77008952D01*
X60357143Y-77580381D01*
X59738095Y-77580381D01*
X60666666Y-58357143D02*
X60714285Y-58404762D01*
X60857142Y-58452381D01*
X60952380Y-58452381D01*
X61095238Y-58404762D01*
X61190476Y-58309524D01*
X61238095Y-58214286D01*
X61285714Y-58023810D01*
X61285714Y-57880952D01*
X61238095Y-57690476D01*
X61190476Y-57595238D01*
X61095238Y-57500000D01*
X60952380Y-57452381D01*
X60857142Y-57452381D01*
X60714285Y-57500000D01*
X60666666Y-57547619D01*
X59809523Y-57785714D02*
X59809523Y-58452381D01*
X60047619Y-57404762D02*
X60285714Y-58119048D01*
X59666666Y-58119048D01*
X59633333Y-63228571D02*
X59966667Y-63228571D01*
X59966667Y-63752381D02*
X59966667Y-62752381D01*
X59490476Y-62752381D01*
X58776190Y-63228571D02*
X58633333Y-63276190D01*
X58585714Y-63323810D01*
X58538095Y-63419048D01*
X58538095Y-63561905D01*
X58585714Y-63657143D01*
X58633333Y-63704762D01*
X58728571Y-63752381D01*
X59109524Y-63752381D01*
X59109524Y-62752381D01*
X58776190Y-62752381D01*
X58680952Y-62800000D01*
X58633333Y-62847619D01*
X58585714Y-62942857D01*
X58585714Y-63038095D01*
X58633333Y-63133333D01*
X58680952Y-63180952D01*
X58776190Y-63228571D01*
X59109524Y-63228571D01*
X57585714Y-63752381D02*
X58157143Y-63752381D01*
X57871429Y-63752381D02*
X57871429Y-62752381D01*
X57966667Y-62895238D01*
X58061905Y-62990476D01*
X58157143Y-63038095D01*
X58428571Y-55866667D02*
X58428571Y-55533333D01*
X58952381Y-55533333D02*
X57952381Y-55533333D01*
X57952381Y-56009524D01*
X58428571Y-56723810D02*
X58476190Y-56866667D01*
X58523810Y-56914286D01*
X58619048Y-56961905D01*
X58761905Y-56961905D01*
X58857143Y-56914286D01*
X58904762Y-56866667D01*
X58952381Y-56771429D01*
X58952381Y-56390476D01*
X57952381Y-56390476D01*
X57952381Y-56723810D01*
X58000000Y-56819048D01*
X58047619Y-56866667D01*
X58142857Y-56914286D01*
X58238095Y-56914286D01*
X58333333Y-56866667D01*
X58380952Y-56819048D01*
X58428571Y-56723810D01*
X58428571Y-56390476D01*
X58047619Y-57342857D02*
X58000000Y-57390476D01*
X57952381Y-57485714D01*
X57952381Y-57723810D01*
X58000000Y-57819048D01*
X58047619Y-57866667D01*
X58142857Y-57914286D01*
X58238095Y-57914286D01*
X58380952Y-57866667D01*
X58952381Y-57295238D01*
X58952381Y-57914286D01*
M02*
